<?xml version="1.0" standalone="no"?><!DOCTYPE svg PUBLIC "-//W3C//DTD SVG 1.1//EN" "http://www.w3.org/Graphics/SVG/1.1/DTD/svg11.dtd"><svg t="1779930916774" class="icon" viewBox="0 0 1024 1024" version="1.1" xmlns="http://www.w3.org/2000/svg" p-id="5548" xmlns:xlink="http://www.w3.org/1999/xlink" width="200" height="200"><path d="M566.4768 762.582109c7.223855 1.210182 14.689745-0.781964 18.822982-2.904436l392.750545-206.829382c13.293382-7.019055 18.394764-23.458909 11.394328-36.789527a27.331491 27.331491 0 0 0-36.77091-11.375709L568.171055 707.639855l-426.542546-91.303564a46.638545 46.638545 0 1 1 19.567709-91.210473c24.892509 4.784873 410.772945 87.468218 411.424582 87.468218 4.263564 0 8.582982-0.986764 12.6976-3.165091l392.750545-206.829381a27.182545 27.182545 0 0 0 2.085237-47.383273 27.294255 27.294255 0 0 0-27.461818-0.763346L567.7056 557.186327l-426.077091-91.042909a46.657164 46.657164 0 0 1 19.567709-91.191854c24.706327 4.338036 384.167564 81.957236 386.029382 81.957236 4.654545 0 8.918109-1.489455 12.827927-3.630545 0 0.055855 394.109673-204.1856 394.109673-204.1856 26.586764-13.758836 24.259491-29.751855-5.082764-35.54211l-382.417454-75.031272c-29.360873-5.771636-75.291927 0.353745-102.139346 13.572654L111.150545 326.060218c-4.784873 2.2528-9.197382 5.213091-13.069963 8.8064a100.463709 100.463709 0 0 0-45.446982 64.474764 101.003636 101.003636 0 0 0 31.315782 96.330473 100.891927 100.891927 0 0 0-31.315782 53.8624 101.040873 101.040873 0 0 0 31.390255 96.404945 101.003636 101.003636 0 0 0 46.247563 173.931055c37.143273 7.968582 437.229382 93.519127 439.109818 93.314327 4.784873-0.484073 11.841164-1.042618 15.937164-3.127855l392.750545-206.903854a27.070836 27.070836 0 0 0 11.412946-36.677818 27.312873 27.312873 0 0 0-36.789527-11.412946l-384.986764 202.752-426.077091-91.173236a46.638545 46.638545 0 0 1 19.567709-91.210473l405.280582 87.151709z m-22.751418-534.379054l183.035345 36.95709-80.523636 38.0928-182.960873-36.901236 80.449164-38.148654z m0 0" fill="#2f748a" p-id="5549"></path></svg>