<?xml version="1.0" standalone="no"?><!DOCTYPE svg PUBLIC "-//W3C//DTD SVG 1.1//EN" "http://www.w3.org/Graphics/SVG/1.1/DTD/svg11.dtd"><svg t="1779930856681" class="icon" viewBox="0 0 1024 1024" version="1.1" xmlns="http://www.w3.org/2000/svg" p-id="5219" xmlns:xlink="http://www.w3.org/1999/xlink" width="200" height="200"><path d="M72.256 845.568c0 95.296 77.184 167.936 172.416 167.936h658.56a46.976 46.976 0 1 0 0-94.08c-43.136 0-78.4-30.72-78.4-73.856 0-43.2 35.2-73.92 78.464-73.92a46.528 46.528 0 0 0 46.08-42.88h0.896V92.928c0-43.328-35.072-78.4-78.4-78.4H150.592C107.392 14.528 72.32 49.6 72.32 97.408v721.28m235.136-600.32h407.68a46.976 46.976 0 1 1 0 94.08h-407.68a46.976 46.976 0 1 1 0-94.08z m0 193.408h407.68a46.976 46.976 0 1 1 0 94.08h-407.68a46.976 46.976 0 1 1 0-94.08z m-62.72 507.712c-43.2 0-78.4-30.72-78.4-73.92s35.2-73.92 78.4-73.92h505.728c-12.16 23.68-19.584 45.44-19.584 73.92 0 28.48 7.552 50.304 19.584 73.92H244.672z" fill="#2f748a" p-id="5220"></path></svg>