<?xml version="1.0" standalone="no"?><!DOCTYPE svg PUBLIC "-//W3C//DTD SVG 1.1//EN" "http://www.w3.org/Graphics/SVG/1.1/DTD/svg11.dtd"><svg t="1757315248798" class="icon" viewBox="0 0 1024 1024" version="1.1" xmlns="http://www.w3.org/2000/svg" p-id="4675" xmlns:xlink="http://www.w3.org/1999/xlink" width="200" height="200"><path d="M723.66132 412.937746c42.67403-48.170883 46.330802-106.813726 46.330802-106.813726 0-166.50331-187.760406-203.154843-187.760406-203.154843s-9.75464-46.076102-68.682071-46.076102-69.089462 46.076102-69.089462 46.076102C274.988832 146.949848 253.043655 234.915086 253.043655 305.076629s48.76865 105.766335 48.76865 105.766335c-202.39269 111.00134-169.473949 285.883127-169.473949 285.883127s40.234234 253.419208 381.21064 248.183553 375.926904-246.089421 375.926904-246.089421C924.832487 511.374294 723.66132 412.937746 723.66132 412.937746zM851.728244 679.032203c0 0-31.455513 216.768325-338.333888 221.480284-306.879025 4.711959-343.089381-223.365198-343.089381-223.365198S140.677848 519.754071 322.830944 419.852995c0 0-43.891655-32.044183-43.891655-95.189766s19.750335-142.313909 172.275005-181.896447c0 0 9.145827-41.468751 62.180711-41.468751s61.813604 41.468751 61.813604 41.468751 168.984041 32.986315 168.984041 182.839228c0 0-3.290964 52.778234-41.697462 96.132548C702.495188 421.737909 883.548914 510.330802 851.728244 679.032203z" p-id="4676" fill="#d4237a"></path></svg>