<svg color="inherit" version="1.0" viewBox="0 0 457.000000 800.000000" preserveAspectRatio="xMidYMid meet">
  <g transform="translate(0.000000,800.000000) scale(0.100000,-0.100000)" fill="currentColor" stroke="none" id="branches">
    <path d="M3352 7966 c-126 -100 -184 -243 -186 -453 -1 -57 -3 -103 -6 -102 -3 0 -26 33 -52 72 -25 40 -90 126 -143 192 -53 66 -115 148 -138 183 -23 34 -47 62 -54 62 -21 0 52 -126 146 -249 47 -63 117 -156 154 -205 73 -97 140 -223 156 -294 12 -57 21 -64 21 -19 0 20 -12 69 -26 108 -25 69 -26 81 -21 209 6 160 29 258 88 370 47 89 56 101 92 124 25 17 36 36 20 36 -5 0 -27 -16 -51 -34z"/>
    <path d="M2330 7858 c0 -5 15 -24 33 -42 23 -23 64 -43 142 -70 164 -57 271 -103 332 -142 49 -31 53 -32 36 -10 -20 28 -151 103 -286 166 -142 65 -257 109 -257 98z"/>
    <path d="M2555 7490 c-73 -11 -142 -50 -206 -117 -113 -118 -142 -234 -83 -330 61 -98 120 -113 231 -57 68 35 104 80 110 137 5 39 2 46 -22 65 -31 25 -53 27 -90 10 -30 -14 -35 -49 -5 -41 14 4 23 -2 31 -20 10 -22 8 -32 -15 -72 -17 -28 -41 -52 -62 -63 -32 -15 -38 -15 -62 -1 -14 8 -40 36 -56 62 -40 66 -40 125 3 210 50 100 95 143 176 172 89 31 118 31 213 -1 332 -110 554 -382 638 -779 21 -100 33 -294 26 -407 -10 -135 6 -107 18 32 20 222 -31 553 -107 705 -122 240 -311 410 -528 473 -87 26 -146 32 -210 22z"/>
    <path d="M1655 6642 c-35 -22 -60 -50 -52 -58 3 -4 21 3 40 15 47 29 68 26 104 -11 57 -61 71 -103 99 -301 12 -83 15 -148 10 -251 -10 -221 -44 -326 -131 -411 -32 -31 -41 -45 -33 -53 19 -19 83 25 111 77 54 100 76 174 87 290 16 171 -3 359 -51 518 -38 123 -57 158 -98 181 -47 27 -48 27 -86 4z"/>
    <path d="M2587 6586 c-111 -46 -184 -114 -226 -207 -44 -97 -15 -246 59 -299 70 -50 183 -64 248 -31 129 67 154 209 51 295 -41 35 -111 36 -160 3 -63 -42 -73 -143 -19 -192 24 -22 100 -31 128 -16 27 15 57 70 45 82 -6 6 -17 1 -28 -11 -23 -26 -65 -26 -99 1 -21 17 -26 29 -26 64 0 37 5 48 26 61 60 40 115 11 154 -78 25 -58 21 -94 -18 -140 -46 -54 -126 -72 -215 -47 -33 9 -42 18 -60 57 -30 68 -29 190 2 255 47 96 151 177 230 177 50 0 148 -30 204 -63 99 -58 194 -194 241 -345 27 -87 55 -271 57 -375 1 -34 5 -75 9 -92 6 -24 8 -18 11 35 13 283 -35 509 -143 670 -82 123 -216 207 -344 216 -58 4 -78 1 -127 -20z"/>
    <path d="M1595 6417 c-1 -71 -9 -127 -37 -242 -53 -220 -73 -372 -73 -560 1 -230 36 -340 145 -460 l56 -60 -18 -50 c-9 -27 -17 -66 -17 -85 l0 -35 31 58 c69 126 220 233 365 256 37 6 174 20 303 31 253 22 425 48 533 81 71 21 87 19 87 -10 0 -39 59 -55 115 -29 37 17 69 72 61 108 -3 17 -9 44 -12 60 -8 39 18 70 57 70 60 0 77 -86 35 -175 -28 -61 -132 -191 -180 -225 -38 -27 -47 -50 -18 -50 25 0 106 74 162 147 27 35 52 64 56 64 4 0 19 -49 34 -108 44 -171 93 -267 183 -353 38 -35 46 -50 52 -93 9 -61 22 -297 16 -297 -11 0 -284 206 -289 219 -3 8 1 82 8 165 16 172 16 319 2 356 -8 22 -11 16 -20 -45 -6 -38 -14 -130 -18 -204 -5 -112 -24 -234 -38 -248 -2 -2 -19 5 -37 16 -34 20 -139 51 -169 51 -32 -1 49 -58 111 -79 35 -12 70 -25 77 -29 9 -6 3 -47 -27 -183 -39 -174 -59 -236 -106 -329 -34 -68 -51 -75 -128 -56 -101 25 -200 31 -215 13 -11 -13 -9 -15 10 -15 34 0 189 -29 221 -41 15 -6 27 -14 27 -18 0 -5 -31 -44 -69 -88 -70 -84 -145 -149 -218 -192 -46 -27 -58 -49 -20 -38 87 27 212 126 332 264 l38 45 131 -67 c240 -123 449 -301 600 -512 102 -143 129 -191 165 -300 39 -119 55 -250 48 -380 -3 -58 -4 -105 -2 -105 13 0 36 160 36 244 0 123 -13 188 -61 299 -148 342 -435 649 -757 808 -68 34 -123 62 -123 64 0 1 25 54 55 117 59 126 106 258 126 356 7 34 16 62 20 62 4 0 29 -16 55 -35 27 -19 56 -38 64 -42 8 -4 20 -12 25 -18 6 -6 42 -36 80 -67 167 -135 346 -343 448 -521 118 -207 196 -487 197 -703 1 -57 3 -66 12 -49 20 33 13 236 -12 355 -65 315 -211 573 -468 825 -74 74 -93 98 -84 107 17 17 15 113 -4 225 -9 52 -14 96 -12 98 2 2 26 -2 53 -10 27 -9 57 -13 67 -9 14 4 2 14 -49 38 -168 81 -288 295 -313 556 -16 173 -6 267 42 361 58 117 167 207 216 180 10 -6 14 -42 16 -142 2 -111 7 -149 30 -224 40 -135 129 -305 288 -550 112 -174 164 -265 244 -435 202 -429 321 -771 349 -1003 4 -31 11 -60 16 -63 13 -8 2 -258 -17 -384 -32 -217 -109 -453 -215 -661 -27 -52 -49 -101 -49 -108 0 -7 -10 -26 -22 -41 -13 -15 -31 -40 -40 -56 -10 -16 -23 -38 -30 -49 -7 -11 -33 -51 -57 -90 -57 -89 -204 -286 -254 -338 l-37 -40 -63 6 c-181 17 -453 167 -655 362 -122 117 -210 231 -276 355 l-47 89 57 76 c31 41 55 77 53 80 -3 2 -28 -14 -58 -37 -39 -29 -56 -37 -64 -29 -17 17 -27 13 -27 -11 0 -13 -8 -35 -18 -49 -17 -26 -150 -139 -164 -139 -13 0 -9 70 6 98 20 38 58 72 92 81 45 12 40 45 -7 49 -71 6 -129 -83 -129 -198 0 -43 -4 -51 -41 -84 -43 -40 -130 -98 -176 -118 -15 -7 -43 -28 -61 -46 -18 -18 -64 -48 -102 -67 -61 -31 -70 -33 -71 -18 -4 61 20 149 52 193 17 22 20 33 12 41 -6 6 -17 8 -23 4 -23 -14 -70 -134 -84 -217 -17 -97 -4 -83 -216 -227 -176 -119 -300 -193 -575 -346 -115 -64 -219 -124 -230 -134 -11 -10 -42 -26 -69 -36 -27 -10 -83 -41 -125 -70 -42 -28 -132 -81 -201 -116 -69 -36 -225 -128 -347 -205 l-222 -139 -1 -37 c0 -41 10 -48 31 -22 13 16 183 134 193 134 3 0 119 70 258 156 139 86 276 167 304 179 28 13 55 28 58 34 4 6 24 18 44 27 20 8 39 19 42 24 3 5 53 33 110 62 90 46 394 220 610 350 36 21 121 77 190 124 l125 86 12 -58 c46 -218 146 -395 324 -575 169 -170 406 -329 642 -429 60 -25 109 -49 110 -53 6 -22 -554 -611 -752 -791 l-84 -76 38 0 c36 0 49 12 329 293 160 162 345 355 411 429 l120 135 130 4 c108 4 138 8 180 27 100 46 175 149 175 242 0 50 -34 135 -50 125 -7 -4 -7 -12 0 -25 30 -56 -16 -193 -82 -243 -65 -50 -188 -78 -256 -58 -23 6 -21 9 45 93 56 73 75 89 108 98 70 19 75 21 75 29 0 4 -12 11 -26 17 l-26 9 39 51 c21 29 68 87 106 129 l67 78 123 -2 c142 -2 183 8 264 70 126 95 167 228 92 295 l-22 19 18 -28 c36 -56 -4 -160 -91 -236 -64 -56 -161 -86 -252 -78 -35 4 -68 9 -71 12 -9 9 27 66 88 139 42 51 62 66 97 76 55 16 78 39 32 32 l-32 -5 60 74 c173 214 398 548 474 704 57 117 92 218 125 370 126 566 82 819 -287 1660 -61 140 -116 235 -279 481 -251 380 -319 548 -319 784 0 136 -2 140 -83 151 -63 8 -85 -2 -148 -68 -61 -63 -97 -136 -109 -223 -12 -84 -26 -118 -43 -101 -19 19 -64 12 -97 -16 -27 -22 -31 -31 -25 -57 18 -88 17 -92 -9 -123 -14 -17 -40 -36 -57 -44 -29 -12 -33 -11 -50 10 -29 35 -24 47 36 86 30 19 55 40 55 46 0 12 4 14 -77 -28 -132 -69 -314 -105 -618 -123 -99 -5 -205 -13 -235 -16 l-56 -5 -95 98 c-53 54 -113 125 -134 156 -21 31 -39 57 -41 57 -7 0 9 -66 24 -95 25 -51 80 -111 142 -157 33 -23 60 -46 60 -50 0 -4 -52 -24 -115 -44 -84 -26 -129 -46 -163 -73 -86 -69 -85 -69 -121 -2 -44 83 -78 178 -108 301 -37 151 -35 298 7 520 17 91 38 203 46 250 18 107 19 234 2 248 -10 8 -13 -9 -13 -81z m1150 -4002 c61 -115 143 -223 260 -340 139 -138 262 -227 440 -315 121 -61 150 -71 213 -76 39 -4 72 -8 72 -10 0 -2 -16 -25 -35 -51 -76 -103 -96 -123 -121 -123 -13 0 -68 22 -122 49 -53 26 -127 60 -164 75 -37 14 -83 36 -103 49 -221 138 -459 322 -519 402 -35 47 -117 204 -130 251 -5 17 9 34 80 93 48 39 88 70 90 69 1 -2 19 -34 39 -73z m-255 -119 c0 -31 93 -196 153 -272 89 -111 251 -244 422 -346 78 -46 318 -168 332 -168 6 0 16 -6 22 -14 7 -8 35 -20 62 -26 28 -7 53 -18 56 -26 3 -7 -41 -68 -98 -136 -56 -68 -104 -125 -105 -127 -6 -8 -156 23 -236 50 -271 89 -514 279 -700 547 -51 75 -100 192 -133 321 -16 63 -22 56 124 153 94 62 101 65 101 44z m-180 -481 c168 -337 499 -590 908 -695 40 -10 43 -13 30 -28 -123 -146 -120 -144 -158 -137 -61 11 -232 83 -325 136 -309 177 -515 381 -645 639 -56 112 -80 186 -80 249 l0 46 83 52 82 53 23 -98 c15 -67 40 -134 82 -217z"/>
    <path d="M3694 6310 c-133 -18 -243 -104 -317 -248 -45 -88 -90 -214 -102 -287 -10 -59 7 -33 45 70 68 186 140 303 218 357 126 87 324 91 425 7 56 -46 77 -95 77 -178 0 -60 -4 -74 -25 -99 -32 -39 -101 -72 -147 -72 -104 0 -150 151 -66 213 24 18 31 19 54 8 24 -11 26 -15 20 -52 -6 -38 -5 -39 14 -29 24 13 27 56 4 88 -30 43 -133 20 -167 -37 -39 -66 1 -189 71 -218 81 -34 195 5 249 85 46 69 38 214 -17 290 -61 85 -184 122 -336 102z"/>
    <path d="M595 5328 c-40 -22 -65 -52 -65 -77 l0 -26 19 29 c58 88 164 71 283 -45 50 -49 69 -79 129 -206 88 -183 135 -324 144 -423 6 -72 5 -77 -24 -119 -16 -25 -28 -48 -25 -53 12 -19 35 -5 56 35 33 63 37 215 9 328 -25 104 -121 300 -190 391 -50 66 -124 129 -188 162 -37 18 -118 21 -148 4z"/>
    <path d="M550 5164 c0 -3 11 -15 25 -26 31 -24 97 -120 119 -172 25 -60 62 -206 96 -376 95 -477 174 -633 406 -806 155 -114 216 -132 504 -144 375 -16 425 -36 651 -260 175 -174 336 -388 457 -609 38 -69 72 -111 182 -222 209 -211 322 -271 510 -273 137 -1 196 21 283 106 l62 59 -50 -35 c-218 -151 -483 -96 -730 151 -101 100 -168 191 -324 432 -165 255 -225 336 -331 441 -102 102 -209 172 -328 213 -79 28 -103 31 -262 38 -205 8 -296 28 -436 94 -209 98 -304 192 -413 412 -62 125 -104 256 -181 567 -34 137 -70 273 -81 302 -25 67 -76 114 -124 114 -19 0 -35 -3 -35 -6z"/>
    <path d="M2889 5075 c-75 -39 -152 -46 -370 -35 -107 5 -228 14 -269 20 -115 15 -287 12 -355 -5 -81 -21 -148 -67 -198 -134 -23 -30 -73 -94 -110 -141 -161 -201 -173 -321 -47 -479 23 -29 71 -72 107 -94 l64 -41 -38 -14 c-55 -19 -235 -21 -257 -3 -10 8 -31 42 -48 75 -31 63 -133 177 -180 202 -41 21 -35 6 26 -66 128 -151 184 -304 140 -379 -13 -21 -15 -34 -8 -41 17 -17 62 58 76 122 l12 56 66 -23 65 -22 95 24 c131 34 272 36 351 5 86 -34 123 -74 151 -165 21 -67 27 -76 38 -62 18 22 4 108 -26 156 -31 50 -93 95 -158 115 -28 9 -102 18 -164 21 l-113 6 -69 64 c-81 75 -143 163 -166 238 -16 50 -16 57 -1 97 9 24 37 68 62 98 24 30 59 81 77 115 67 125 177 204 324 230 102 18 192 18 389 0 88 -8 197 -15 241 -15 87 0 96 -5 108 -52 3 -16 13 -28 22 -28 11 0 12 4 4 19 -21 40 -12 49 57 65 39 9 72 11 77 6 15 -15 -3 -59 -32 -74 -25 -14 -25 -15 -5 -16 29 0 63 45 63 85 0 36 12 49 52 59 18 4 32 1 42 -10 55 -55 -56 -208 -199 -276 -125 -58 -291 -69 -630 -42 l-81 7 -57 -53 c-66 -60 -97 -113 -97 -165 0 -28 -4 -35 -20 -35 -11 0 -20 -4 -20 -10 0 -5 8 -10 18 -10 41 0 292 -70 347 -96 73 -35 158 -116 174 -167 7 -20 18 -37 25 -37 22 0 3 94 -29 140 -68 98 -151 134 -410 177 l-50 9 1 41 c1 48 43 124 86 156 26 20 28 20 160 2 187 -25 389 -24 493 4 183 49 335 192 335 316 0 85 -52 107 -141 60z"/>
    <path d="M2711 4543 c-45 -150 -145 -310 -371 -599 -71 -91 -130 -169 -130 -172 1 -11 175 174 241 255 122 148 248 397 283 556 12 51 -2 27 -23 -40z"/>
    <path d="M2420 4595 c0 -2 17 -13 39 -24 51 -27 89 -73 102 -127 14 -54 29 -48 29 11 0 39 -4 47 -42 78 -59 48 -128 81 -128 62z"/>
  </g>
</svg>
