<?xml version="1.0" standalone="no"?><!DOCTYPE svg PUBLIC "-//W3C//DTD SVG 1.1//EN" "http://www.w3.org/Graphics/SVG/1.1/DTD/svg11.dtd"><svg t="1778602541826" class="icon" viewBox="0 0 1337 1024" version="1.1" xmlns="http://www.w3.org/2000/svg" p-id="1899" xmlns:xlink="http://www.w3.org/1999/xlink" width="167.125" height="128"><path d="M668.767532 692.627458z m379.827961-121.322439c-0.919458 0.781539-1.700997 1.563078-2.620455 2.482536a571.075155 571.075155 0 0 1-371.322977 140.539104c78.61363 79.808925 196.44213 109.461435 328.522223 109.461435a456.280866 456.280866 0 0 0 334.360779-138.332406 411.917033 411.917033 0 0 0-288.93957-114.150669z m-757.035468 2.344617c-0.919458-0.781539-1.700997-1.563078-2.620454-2.482535A412.97441 412.97441 0 0 0 0 685.179851a455.821137 455.821137 0 0 0 334.360779 138.332405c132.03412 0 249.86262-29.65251 328.522224-109.461434a570.063751 570.063751 0 0 1-371.368951-140.401186z" fill="#666666" p-id="1900"></path><path d="M276.113136 363.87537a420.422017 420.422017 0 0 1 237.449942 77.32639 272.895035 272.895035 0 0 1-14.757295-83.71662 618.427225 618.427225 0 0 0-361.300889-132.17204 426.720302 426.720302 0 0 0 159.342013 323.419234 542.020293 542.020293 0 0 0 362.220346 138.56227 408.009338 408.009338 0 0 1-265.17159-97.048757 292.249618 292.249618 0 0 1-117.782527-226.370477z m562.570172-6.252312a388.470863 388.470863 0 0 1-14.113675 82.75119 426.904193 426.904193 0 0 1 236.806321-76.682769 293.215049 293.215049 0 0 1-117.8285 226.370477 407.319745 407.319745 0 0 1-265.17159 97.048756 541.376672 541.376672 0 0 0 362.220347-138.56227 426.306546 426.306546 0 0 0 159.342013-323.419233 635.759002 635.759002 0 0 0-361.116997 132.493849z" fill="#666666" p-id="1901"></path><path d="M540.503188 495.495735c0 66.752626 50.156416 126.195564 128.264344 164.858759 78.153901-38.663195 128.264344-98.244051 128.264344-164.858759s-50.156416-126.195564-128.264344-164.858759c-78.107929 38.709168-128.264344 98.244051-128.264344 164.858759z m0 0" fill="#666666" p-id="1902"></path><path d="M516.827153 494.714196A156.307803 156.307803 0 0 1 520.872766 459.820778a366.036096 366.036096 0 0 0-209.498428-68.683488 266.642722 266.642722 0 0 0 107.254736 205.958517 391.275209 391.275209 0 0 0 240.989854 87.992098c-87.256532-45.972883-142.791775-113.920805-142.791775-190.373709z m299.743198-34.617581a161.778576 161.778576 0 0 1 4.045614 34.617581c0 76.269013-55.48927 144.584718-142.745802 190.419682a390.769507 390.769507 0 0 0 240.851935-88.038071 266.320912 266.320912 0 0 0 107.116817-205.958517 375.276645 375.276645 0 0 0-209.222591 69.005298z m21.561282 381.115201a368.840442 368.840442 0 0 1-159.755769-89.325312 72.729101 72.729101 0 0 1-9.516387-10.8496 73.556613 73.556613 0 0 1-6.252312 7.447607c-0.275837 0.275837-0.505702 0.413756-0.64362 0.64362-1.195295 1.195295-2.344617 2.482536-3.769776 3.769777a1.74697 1.74697 0 0 1-0.643621 0.413756 370.541438 370.541438 0 0 1-158.054772 87.900152 86.383047 86.383047 0 0 0-4.597289 26.894137c0 63.074796 68.039867 119.253659 174.099309 155.848074 106.059442-36.778307 174.099309-92.727305 174.099309-155.710155a86.566939 86.566939 0 0 0-4.965072-26.848164z m-305.259944-412.376762a262.735027 262.735027 0 0 1 135.84987-132.953578 263.240729 263.240729 0 0 1 135.84987 132.953578h1.28724a470.946215 470.946215 0 0 0 9.194577-93.784681 445.017509 445.017509 0 0 0-146.561552-335.050373 445.017509 445.017509 0 0 0-146.561551 335.050373 469.842866 469.842866 0 0 0 9.516387 93.784681z" fill="#666666" p-id="1903"></path></svg>