<?xml version="1.0" standalone="no"?><!DOCTYPE svg PUBLIC "-//W3C//DTD SVG 1.1//EN" "http://www.w3.org/Graphics/SVG/1.1/DTD/svg11.dtd"><svg t="1757316541600" class="icon" viewBox="0 0 1024 1024" version="1.1" xmlns="http://www.w3.org/2000/svg" p-id="12573" xmlns:xlink="http://www.w3.org/1999/xlink" width="200" height="200"><path d="M736 283.733C736 157.867 633.6 57.6 509.867 57.6c-251.734 0-454.4 202.667-454.4 454.4s202.666 454.4 454.4 454.4C384 966.4 283.733 864 283.733 740.267 281.6 614.4 384 512 509.867 512S736 409.6 736 283.733z m-145.067 0c0 44.8-36.266 81.067-81.066 81.067S428.8 328.533 428.8 283.733s36.267-81.066 81.067-81.066 81.066 38.4 81.066 81.066z" p-id="12574" fill="#d4237a"></path><path d="M509.867 819.2c44.8 0 81.066-36.267 81.066-81.067s-36.266-81.066-81.066-81.066-81.067 36.266-81.067 81.066 36.267 81.067 81.067 81.067z" p-id="12575" fill="#d4237a"></path><path d="M512 78.933c238.933 0 433.067 194.134 433.067 433.067S750.933 945.067 512 945.067 78.933 750.933 78.933 512 273.067 78.933 512 78.933m0-21.333C262.4 57.6 57.6 262.4 57.6 512S262.4 966.4 512 966.4 966.4 763.733 966.4 512 763.733 57.6 512 57.6z" p-id="12576" fill="#d4237a"></path></svg>