<?xml version="1.0" standalone="no"?><!DOCTYPE svg PUBLIC "-//W3C//DTD SVG 1.1//EN" "http://www.w3.org/Graphics/SVG/1.1/DTD/svg11.dtd"><svg t="1757313873822" class="icon" viewBox="0 0 1024 1024" version="1.1" xmlns="http://www.w3.org/2000/svg" p-id="1620" xmlns:xlink="http://www.w3.org/1999/xlink" width="200" height="200"><path d="M917.4 164.4c-15.1-6.1-31.1-9.6-47.3-10.2-55.7-9.2-131.4 5-191.2 35.8 17.7-41.4-49.6-23.3-75.2-16.9-82.3 20.5-156.4 57.5-222.3 108 5.8-35.2-40.5-14.7-73.7 11.7-65.5 52-117.5 114.1-149.3 189.3-28.3 66.9-28.1 134.7-2.7 197.8 85.9-90.8 167.5-177.7 272.6-265 117.6-97.9 258.2-173.2 339.8-180-307.6 148.5-511 394-708.9 644.8h342.7V867H95.3c6-2.4 11.4-6.1 15.9-10.9 22.8-23.9 41.5-51.5 65.7-74.2 30.5-28.6 32.2-26.3 58.4-26.9 50.9-1.3 102.5-4.8 152.5-13.6 106.4-18.6 197.3-65.2 266.7-145.5 17.4-20.1 34.1-54.1-10.6-52.8 15.7-7.2 27-11.5 37.4-17.1 81.6-43.5 157.2-93.4 205.1-172.4 13-21.2 27.8-62-16-54 24-22.5 47.9-41.1 66.8-63.3 28.5-32.9 21.1-55.6-19.8-71.9z" p-id="1621" fill="#d4237a"></path></svg>