<?xml version="1.0" standalone="no"?>
<!DOCTYPE svg PUBLIC "-//W3C//DTD SVG 20010904//EN"
 "http://www.w3.org/TR/2001/REC-SVG-20010904/DTD/svg10.dtd">
<svg version="1.0" xmlns="http://www.w3.org/2000/svg"
 width="132.000000pt" height="147.000000pt" viewBox="0 0 132.000000 147.000000"
 preserveAspectRatio="xMidYMid meet">
<metadata>
Created by potrace 1.16, written by Peter Selinger 2001-2019
</metadata>
<g transform="translate(0.000000,147.000000) scale(0.100000,-0.100000)"
fill="#D94E3D" stroke="none">
<path d="M475 1235 c-110 -60 -141 -172 -152 -562 l-6 -223 22 0 c85 0 199
150 218 286 8 57 -9 63 -76 30 -58 -30 -106 -34 -115 -9 -8 19 29 63 53 63 55
0 131 42 131 71 0 6 -19 29 -42 50 -36 33 -41 42 -32 56 7 12 24 18 45 18 32
0 36 -4 66 -64 l31 -64 65 2 c72 3 129 -16 146 -47 6 -12 11 -43 11 -69 0 -64
-49 -148 -102 -176 -36 -18 -37 -20 -24 -45 41 -80 141 -120 225 -91 41 14 45
33 37 182 -17 310 -17 314 -66 406 -65 122 -100 154 -191 176 -111 26 -207 30
-244 10z"/>
<path d="M667 829 c-24 -14 -51 -71 -77 -164 -45 -162 -95 -230 -209 -284 -50
-23 -56 -30 -49 -46 13 -28 75 -70 133 -89 152 -52 400 -17 470 66 45 53 36
63 -51 60 -93 -4 -120 6 -179 69 -42 45 -45 52 -45 104 0 50 3 59 36 92 52 54
74 93 74 131 0 56 -55 89 -103 61z"/>
</g>
</svg>
