<?xml version="1.0" encoding="UTF-8" standalone="no"?>
<svg
   viewBox="0 0 132 147"
   width="132"
   height="147"
   version="1.1"
   id="svg30"
   sodipodi:docname="logo.svg"
   inkscape:version="1.4.2 (ebf0e940d0, 2025-05-08)"
   inkscape:export-filename="logo1.png"
   inkscape:export-xdpi="96"
   inkscape:export-ydpi="96"
   xmlns:inkscape="http://www.inkscape.org/namespaces/inkscape"
   xmlns:sodipodi="http://sodipodi.sourceforge.net/DTD/sodipodi-0.dtd"
   xmlns="http://www.w3.org/2000/svg"
   xmlns:svg="http://www.w3.org/2000/svg">
  <defs
     id="defs30">
    <inkscape:path-effect
       effect="fillet_chamfer"
       id="path-effect30"
       is_visible="true"
       lpeversion="1"
       nodesatellites_param="F,0,0,1,0,0,0,1 @ F,0,0,1,0,0,0,1 @ F,0,0,1,0,0,0,1 @ F,0,0,1,0,0,0,1 @ F,0,0,1,0,2.6911364,0,1 @ F,0,0,1,0,0,0,1"
       radius="0"
       unit="px"
       method="auto"
       mode="F"
       chamfer_steps="1"
       flexible="false"
       use_knot_distance="true"
       apply_no_radius="true"
       apply_with_radius="true"
       only_selected="false"
       hide_knots="false" />
  </defs>
  <sodipodi:namedview
     id="namedview30"
     pagecolor="#ffffff"
     bordercolor="#000000"
     borderopacity="0.25"
     inkscape:showpageshadow="2"
     inkscape:pageopacity="0.0"
     inkscape:pagecheckerboard="0"
     inkscape:deskcolor="#d1d1d1"
     inkscape:zoom="7.829932"
     inkscape:cx="66.284101"
     inkscape:cy="73.5"
     inkscape:window-width="2560"
     inkscape:window-height="1366"
     inkscape:window-x="0"
     inkscape:window-y="0"
     inkscape:window-maximized="1"
     inkscape:current-layer="svg30" />
  <g
     fill="None"
     fill-opacity="0.0"
     stroke="#000000"
     stroke-opacity="0.00"
     stroke-width="0.3"
     id="g1">
    <path
       d=" M 0.00 147.00  L 132.00 147.00 L 132.00 0.00 L 0.00 0.00 L 0.00 147.00 M 93.00 46.00  C 93.13 46.22 94.00 46.00 94.00 46.00 C 93.88 45.03 94.18 43.96 94.00 43.00 C 92.87 36.78 88.28 31.05 90.00 24.00 C 96.62 24.71 99.54 33.02 99.00 39.00 C 96.76 41.00 102.41 38.39 103.00 38.00 C 108.00 34.73 114.80 34.18 121.00 33.00 C 119.59 42.78 108.91 50.47 99.00 49.00 C 98.15 49.00 95.71 49.43 95.00 49.00 C 97.81 55.56 95.08 63.69 97.00 71.00 C 98.92 78.32 98.00 88.23 98.00 96.00 C 98.00 97.33 97.99 98.67 98.00 100.00 C 98.02 103.34 97.61 105.90 97.00 109.00 C 96.46 111.74 96.86 112.93 95.00 115.00 C 83.70 127.59 49.22 128.64 36.00 117.00 C 33.81 115.07 32.54 114.00 32.00 111.00 C 31.50 108.21 32.00 104.85 32.00 102.00 C 32.00 98.71 31.71 95.28 32.00 92.00 C 33.01 80.54 31.59 67.59 33.33 56.33 C 35.07 45.07 34.34 34.65 43.30 26.30 C 52.26 17.96 62.94 23.11 74.02 24.98 C 85.11 26.84 87.95 37.57 93.00 46.00 Z"
       id="path1" />
  </g>
  <g
     fill="None"
     fill-opacity="0.0"
     stroke="#F00F0D"
     stroke-opacity="0.97"
     stroke-width="0.3"
     id="g2">
    <path
       d=" M 32.00 92.00  C 32.28 100.42 38.98 102.32 44.75 95.75 C 50.53 89.18 50.61 88.05 53.33 79.33 C 56.05 70.61 52.68 70.64 45.00 72.00 C 43.91 72.49 43.10 72.62 42.00 73.00 C 35.80 75.13 31.94 70.35 37.25 66.25 C 42.56 62.15 46.74 64.55 52.07 61.07 C 57.41 57.60 48.40 53.36 47.00 50.00 C 46.75 48.01 47.88 45.53 50.00 45.00 C 57.72 43.06 58.97 55.32 62.00 59.00 C 68.21 57.67 81.62 56.64 83.77 65.23 C 85.92 73.82 79.98 84.87 71.00 85.00 C 71.00 83.67 71.00 82.33 71.00 81.00 C 71.10 76.54 84.63 67.02 72.75 64.25 C 60.88 61.47 65.79 75.57 60.75 80.75 C 55.71 85.93 57.94 96.56 52.10 101.10 C 46.26 105.63 41.97 109.75 36.00 114.00 C 35.26 115.89 39.76 116.80 36.00 117.00 C 49.22 128.64 83.70 127.59 95.00 115.00 C 95.82 113.64 95.57 110.61 96.00 109.00 C 88.05 110.48 80.18 111.45 73.77 106.23 C 67.36 101.01 61.47 93.01 70.00 89.00 C 67.76 103.66 87.00 106.52 96.00 100.00 C 95.67 99.58 97.95 96.21 98.00 96.00 C 98.00 88.23 98.92 78.32 97.00 71.00 C 95.08 63.69 97.81 55.56 95.00 49.00 C 93.67 48.62 91.64 46.94 93.00 46.00 C 87.95 37.57 85.11 26.84 74.02 24.98 C 62.94 23.11 52.26 17.96 43.30 26.30 C 34.34 34.65 35.07 45.07 33.33 56.33 C 31.59 67.59 33.01 80.54 32.00 92.00 Z"
       id="path2" />
  </g>
  <g
     fill="None"
     fill-opacity="0.0"
     stroke="#A6BA43"
     stroke-opacity="0.84"
     stroke-width="0.3"
     id="g3">
    <path
       d=" M 94.00 43.00  C 94.10 43.32 96.22 47.41 95.00 48.00 C 96.73 47.22 98.03 48.83 99.00 49.00 C 108.91 50.47 119.59 42.78 121.00 33.00 C 114.80 34.18 108.00 34.73 103.00 38.00 C 100.87 39.95 100.21 43.85 97.00 44.00 C 96.86 42.19 97.44 39.92 99.00 39.00 C 99.54 33.02 96.62 24.71 90.00 24.00 C 88.28 31.05 92.87 36.78 94.00 43.00 Z"
       id="path3" />
  </g>
  <g
     fill="None"
     fill-opacity="0.0"
     stroke="#B8C667"
     stroke-opacity="0.30"
     stroke-width="0.3"
     id="g4">
    <path
       d=" M 99.00 39.00  C 97.44 39.92 96.86 42.19 97.00 44.00 C 100.21 43.85 100.87 39.95 103.00 38.00 C 102.41 38.39 96.76 41.00 99.00 39.00 Z"
       id="path4" />
  </g>
  <g
     fill="None"
     fill-opacity="0.0"
     stroke="#F0E0B4"
     stroke-opacity="0.25"
     stroke-width="0.3"
     id="g5">
    <path
       d=" M 94.00 46.00  C 94.19 47.58 94.29 46.93 95.00 48.00 C 96.22 47.41 94.10 43.32 94.00 43.00 C 94.18 43.96 93.88 45.03 94.00 46.00 Z"
       id="path5" />
  </g>
  <g
     fill="None"
     fill-opacity="0.0"
     stroke="#EDA69D"
     stroke-opacity="1.00"
     stroke-width="0.3"
     id="g6">
    <path
       d=" M 47.00 50.00  C 47.07 50.18 48.00 50.00 48.00 50.00 C 48.12 48.69 48.50 45.65 50.00 45.00 C 47.88 45.53 46.75 48.01 47.00 50.00 Z"
       id="path6" />
  </g>
  <g
     fill="None"
     fill-opacity="0.0"
     stroke="#FBF0ED"
     stroke-opacity="1.00"
     stroke-width="0.3"
     id="g7">
    <path
       d=" M 48.00 50.00  C 49.83 52.81 57.71 55.93 54.22 60.22 C 50.73 64.51 46.69 64.14 41.33 65.33 C 35.97 66.52 33.40 74.20 42.00 73.00 C 43.10 72.62 43.91 72.49 45.00 72.00 C 47.96 70.67 53.21 66.02 55.89 69.11 C 58.58 72.20 54.07 79.08 55.00 83.00 C 65.49 80.28 57.62 63.34 70.01 63.01 C 82.39 62.67 80.02 77.16 71.00 81.00 C 71.00 82.33 71.00 83.67 71.00 85.00 C 79.98 84.87 85.92 73.82 83.77 65.23 C 81.62 56.64 68.21 57.67 62.00 59.00 C 58.97 55.32 57.72 43.06 50.00 45.00 C 48.50 45.65 48.12 48.69 48.00 50.00 Z"
       id="path7" />
  </g>
  <g
     fill="None"
     fill-opacity="0.0"
     stroke="#DC6242"
     stroke-opacity="0.57"
     stroke-width="0.3"
     id="g8">
    <path
       d=" M 95.00 49.00  C 94.78 48.87 95.00 48.00 95.00 48.00 C 94.29 46.93 94.19 47.58 94.00 46.00 C 94.00 46.00 93.13 46.22 93.00 46.00 C 91.64 46.94 93.67 48.62 95.00 49.00 Z"
       id="path8" />
  </g>
  <g
     fill="None"
     fill-opacity="0.0"
     stroke="#9D9560"
     stroke-opacity="0.64"
     stroke-width="0.3"
     id="g9">
    <path
       d=" M 95.00 49.00  C 95.71 49.43 98.15 49.00 99.00 49.00 C 98.03 48.83 96.73 47.22 95.00 48.00 C 95.00 48.00 94.78 48.87 95.00 49.00 Z"
       id="path9" />
  </g>
  <g
     fill="None"
     fill-opacity="0.0"
     stroke="#BD3C37"
     stroke-opacity="1.00"
     stroke-width="0.3"
     id="g10">
    <path
       d=" M 42.00 73.00  C 33.40 74.20 35.97 66.52 41.33 65.33 C 46.69 64.14 50.73 64.51 54.22 60.22 C 57.71 55.93 49.83 52.81 48.00 50.00 C 48.00 50.00 47.07 50.18 47.00 50.00 C 48.40 53.36 57.41 57.60 52.07 61.07 C 46.74 64.55 42.56 62.15 37.25 66.25 C 31.94 70.35 35.80 75.13 42.00 73.00 Z"
       id="path10" />
  </g>
  <g
     fill="None"
     fill-opacity="0.0"
     stroke="#CC302C"
     stroke-opacity="0.99"
     stroke-width="0.3"
     id="g11">
    <path
       d=" M 45.00 72.00  C 52.68 70.64 56.05 70.61 53.33 79.33 C 50.61 88.05 50.53 89.18 44.75 95.75 C 38.98 102.32 32.28 100.42 32.00 92.00 C 31.71 95.28 32.00 98.71 32.00 102.00 C 44.21 104.58 48.33 90.00 56.00 86.00 C 55.77 99.22 42.68 108.20 32.00 111.00 C 32.54 114.00 33.81 115.07 36.00 117.00 C 39.76 116.80 35.26 115.89 36.00 114.00 C 41.97 109.75 46.26 105.63 52.10 101.10 C 57.94 96.56 55.71 85.93 60.75 80.75 C 65.79 75.57 60.88 61.47 72.75 64.25 C 84.63 67.02 71.10 76.54 71.00 81.00 C 80.02 77.16 82.39 62.67 70.01 63.01 C 57.62 63.34 65.49 80.28 55.00 83.00 C 54.07 79.08 58.58 72.20 55.89 69.11 C 53.21 66.02 47.96 70.67 45.00 72.00 Z"
       id="path11" />
  </g>
  <g
     fill="None"
     fill-opacity="0.0"
     stroke="#FAEAE8"
     stroke-opacity="1.00"
     stroke-width="0.3"
     id="g12">
    <path
       d=" M 32.00 102.00  C 32.00 104.85 31.50 108.21 32.00 111.00 C 42.68 108.20 55.77 99.22 56.00 86.00 C 48.33 90.00 44.21 104.58 32.00 102.00 Z"
       id="path12" />
  </g>
  <g
     fill="None"
     fill-opacity="0.0"
     stroke="#FBEFEE"
     stroke-opacity="0.98"
     stroke-width="0.3"
     id="g13">
    <path
       d=" M 96.00 109.00  C 96.48 108.91 97.00 109.00 97.00 109.00 C 97.61 105.90 98.02 103.34 98.00 100.00 C 97.68 100.24 96.50 99.98 96.00 100.00 C 87.00 106.52 67.76 103.66 70.00 89.00 C 61.47 93.01 67.36 101.01 73.77 106.23 C 80.18 111.45 88.05 110.48 96.00 109.00 Z"
       id="path13" />
  </g>
  <g
     fill="None"
     fill-opacity="0.0"
     stroke="#B54845"
     stroke-opacity="0.72"
     stroke-width="0.3"
     id="g14">
    <path
       d=" M 96.00 100.00  C 96.50 99.98 97.68 100.24 98.00 100.00 C 97.99 98.67 98.00 97.33 98.00 96.00 C 97.95 96.21 95.67 99.58 96.00 100.00 Z"
       id="path14" />
  </g>
  <g
     fill="None"
     fill-opacity="0.0"
     stroke="#C68277"
     stroke-opacity="0.68"
     stroke-width="0.3"
     id="g15">
    <path
       d=" M 95.00 115.00  C 96.86 112.93 96.46 111.74 97.00 109.00 C 97.00 109.00 96.48 108.91 96.00 109.00 C 95.57 110.61 95.82 113.64 95.00 115.00 Z"
       id="path15" />
  </g>
  <g
     fill="#000000"
     fill-opacity="0.00"
     stroke="None"
     id="g16">
    <path
       d=" M 0.00 147.00  L 132.00 147.00 L 132.00 0.00 L 0.00 0.00 L 0.00 147.00 M 93.00 46.00  C 93.13 46.22 94.00 46.00 94.00 46.00 C 93.88 45.03 94.18 43.96 94.00 43.00 C 92.87 36.78 88.28 31.05 90.00 24.00 C 96.62 24.71 99.54 33.02 99.00 39.00 C 96.76 41.00 102.41 38.39 103.00 38.00 C 108.00 34.73 114.80 34.18 121.00 33.00 C 119.59 42.78 108.91 50.47 99.00 49.00 C 98.15 49.00 95.71 49.43 95.00 49.00 C 97.81 55.56 95.08 63.69 97.00 71.00 C 98.92 78.32 98.00 88.23 98.00 96.00 C 98.00 97.33 97.99 98.67 98.00 100.00 C 98.02 103.34 97.61 105.90 97.00 109.00 C 96.46 111.74 96.86 112.93 95.00 115.00 C 83.70 127.59 49.22 128.64 36.00 117.00 C 33.81 115.07 32.54 114.00 32.00 111.00 C 31.50 108.21 32.00 104.85 32.00 102.00 C 32.00 98.71 31.71 95.28 32.00 92.00 C 33.01 80.54 31.59 67.59 33.33 56.33 C 35.07 45.07 34.34 34.65 43.30 26.30 C 52.26 17.96 62.94 23.11 74.02 24.98 C 85.11 26.84 87.95 37.57 93.00 46.00 Z"
       id="path16" />
  </g>
  <g
     fill="#F00F0D"
     fill-opacity="0.97"
     stroke="None"
     id="g17">
    <path
       d=" M 32.00 92.00  C 32.28 100.42 38.98 102.32 44.75 95.75 C 50.53 89.18 50.61 88.05 53.33 79.33 C 56.05 70.61 52.68 70.64 45.00 72.00 C 43.91 72.49 43.10 72.62 42.00 73.00 C 35.80 75.13 31.94 70.35 37.25 66.25 C 42.56 62.15 46.74 64.55 52.07 61.07 C 57.41 57.60 48.40 53.36 47.00 50.00 C 46.75 48.01 47.88 45.53 50.00 45.00 C 57.72 43.06 58.97 55.32 62.00 59.00 C 68.21 57.67 81.62 56.64 83.77 65.23 C 85.92 73.82 79.98 84.87 71.00 85.00 C 71.00 83.67 71.00 82.33 71.00 81.00 C 71.10 76.54 84.63 67.02 72.75 64.25 C 60.88 61.47 65.79 75.57 60.75 80.75 C 55.71 85.93 57.94 96.56 52.10 101.10 C 46.26 105.63 41.97 109.75 36.00 114.00 C 35.26 115.89 39.76 116.80 36.00 117.00 C 49.22 128.64 83.70 127.59 95.00 115.00 C 95.82 113.64 95.57 110.61 96.00 109.00 C 88.05 110.48 80.18 111.45 73.77 106.23 C 67.36 101.01 61.47 93.01 70.00 89.00 C 67.76 103.66 87.00 106.52 96.00 100.00 C 95.67 99.58 97.95 96.21 98.00 96.00 C 98.00 88.23 98.92 78.32 97.00 71.00 C 95.08 63.69 97.81 55.56 95.00 49.00 C 93.67 48.62 91.64 46.94 93.00 46.00 C 87.95 37.57 85.11 26.84 74.02 24.98 C 62.94 23.11 52.26 17.96 43.30 26.30 C 34.34 34.65 35.07 45.07 33.33 56.33 C 31.59 67.59 33.01 80.54 32.00 92.00 Z"
       id="path17" />
  </g>
  <g
     fill="#A6BA43"
     fill-opacity="0.84"
     stroke="None"
     id="g18">
    <path
       d=" M 94.00 43.00  C 94.10 43.32 96.22 47.41 95.00 48.00 C 96.73 47.22 98.03 48.83 99.00 49.00 C 108.91 50.47 119.59 42.78 121.00 33.00 C 114.80 34.18 108.00 34.73 103.00 38.00 C 100.87 39.95 100.21 43.85 97.00 44.00 C 96.86 42.19 97.44 39.92 99.00 39.00 C 99.54 33.02 96.62 24.71 90.00 24.00 C 88.28 31.05 92.87 36.78 94.00 43.00 Z"
       id="path18" />
  </g>
  <g
     fill="#B8C667"
     fill-opacity="0.30"
     stroke="None"
     id="g19">
    <path
       d=" M 99.00 39.00  C 97.44 39.92 96.86 42.19 97.00 44.00 C 100.21 43.85 100.87 39.95 103.00 38.00 C 102.41 38.39 96.76 41.00 99.00 39.00 Z"
       id="path19" />
  </g>
  <g
     fill="#F0E0B4"
     fill-opacity="0.25"
     stroke="None"
     id="g20">
    <path
       d=" M 94.00 46.00  C 94.19 47.58 94.29 46.93 95.00 48.00 C 96.22 47.41 94.10 43.32 94.00 43.00 C 94.18 43.96 93.88 45.03 94.00 46.00 Z"
       id="path20" />
  </g>
  <g
     fill="#EDA69D"
     fill-opacity="1.00"
     stroke="None"
     id="g21">
    <path
       d=" M 47.00 50.00  C 47.07 50.18 48.00 50.00 48.00 50.00 C 48.12 48.69 48.50 45.65 50.00 45.00 C 47.88 45.53 46.75 48.01 47.00 50.00 Z"
       id="path21" />
  </g>
  <g
     fill="#FBF0ED"
     fill-opacity="1.00"
     stroke="None"
     id="g22">
    <path
       d="m 48,50 c 1.83,2.81 9.71,5.93 6.22,10.22 -3.49,4.29 -7.53,3.92 -12.89,5.11 -5.36,1.19 -7.93,8.87 0.67,7.67 1.1,-0.38 1.91,-0.51 3,-1 2.96,-1.33 8.21,-5.98 10.89,-2.89 2.69,3.09 -3.735725,15.461746 -2.805725,19.381746 C 63.574275,85.771746 57.62,63.34 70.01,63.01 82.39,62.67 76.699409,80.608306 67.679409,84.448306 l 1.915726,3.999999 C 78.575135,88.318305 85.92,73.82 83.77,65.23 81.62,56.64 68.21,57.67 62,59 58.97,55.32 57.72,43.06 50,45 c -1.5,0.65 -1.88,3.69 -2,5 z"
       id="path22"
       sodipodi:nodetypes="csscccccccsccc" />
  </g>
  <g
     fill="#DC6242"
     fill-opacity="0.57"
     stroke="None"
     id="g23">
    <path
       d=" M 95.00 49.00  C 94.78 48.87 95.00 48.00 95.00 48.00 C 94.29 46.93 94.19 47.58 94.00 46.00 C 94.00 46.00 93.13 46.22 93.00 46.00 C 91.64 46.94 93.67 48.62 95.00 49.00 Z"
       id="path23" />
  </g>
  <g
     fill="#9D9560"
     fill-opacity="0.64"
     stroke="None"
     id="g24">
    <path
       d=" M 95.00 49.00  C 95.71 49.43 98.15 49.00 99.00 49.00 C 98.03 48.83 96.73 47.22 95.00 48.00 C 95.00 48.00 94.78 48.87 95.00 49.00 Z"
       id="path24" />
  </g>
  <g
     fill="#BD3C37"
     fill-opacity="1.00"
     stroke="None"
     id="g25">
    <path
       d=" M 42.00 73.00  C 33.40 74.20 35.97 66.52 41.33 65.33 C 46.69 64.14 50.73 64.51 54.22 60.22 C 57.71 55.93 49.83 52.81 48.00 50.00 C 48.00 50.00 47.07 50.18 47.00 50.00 C 48.40 53.36 57.41 57.60 52.07 61.07 C 46.74 64.55 42.56 62.15 37.25 66.25 C 31.94 70.35 35.80 75.13 42.00 73.00 Z"
       id="path25" />
  </g>
  <g
     fill="#CC302C"
     fill-opacity="0.99"
     stroke="None"
     id="g26">
    <path
       d="m 45,72 c 7.68,-1.36 11.05,-1.39 8.33,7.33 -2.72,8.72 -2.8,9.85 -8.58,16.42 -5.77,6.57 -12.47,4.67 -12.75,-3.75 -0.29,3.28 0,6.71 0,10 12.21,2.58 16.33,-12 24,-16 -0.23,13.22 -13.32,22.2 -24,25 0.54,3 1.81,4.07 4,6 3.76,-0.2 -0.74,-1.11 0,-3 5.97,-4.25 10.26,-8.37 16.1,-12.9 5.84,-4.54 3.61,-15.17 8.65,-20.35 5.04,-5.18 0.13,-19.28 12,-16.5 11.88,2.77 -3.69344,13.694865 -3.79344,18.154865 C 77.97656,78.564865 82.39,62.67 70.01,63.01 57.62,63.34 59.998254,94.839513 49.508254,97.559513 48.578254,93.639513 58.58,72.2 55.89,69.11 53.21,66.02 47.96,70.67 45,72 Z"
       id="path26"
       sodipodi:nodetypes="csccccccccscccccc" />
  </g>
  <g
     fill="#FAEAE8"
     fill-opacity="1.00"
     stroke="None"
     id="g27">
    <path
       d="m 32,102 c 0,2.85 -0.5,6.21 0,9 C 42.68,108.2 57.174865,95.643979 57.404865,82.423979 52.161451,82.720243 44.21,104.58 32,102 Z"
       id="path27"
       sodipodi:nodetypes="cccc" />
  </g>
  <g
     fill="#FBEFEE"
     fill-opacity="0.98"
     stroke="None"
     id="g28">
    <path
       d="m 96,109 c 0.48,-0.09 1,0 1,0 0.61,-3.1 1.02,-5.66 1,-9 -0.32,0.24 -1.5,-0.02 -2,0 -8.435508,6.11106 -25.866766,-0.842585 -26.175809,-13.809823 -0.03537,-1.483943 -0.984608,-2.207103 -2.022472,-1.154107 -5.108507,5.18299 0.22086,16.5135 5.968281,21.19393 6.41,5.22 14.28,4.25 22.23,2.77 z"
       id="path28"
       inkscape:path-effect="#path-effect30"
       inkscape:original-d="m 96,109 c 0.48,-0.09 1,0 1,0 0.61,-3.1 1.02,-5.66 1,-9 -0.32,0.24 -1.5,-0.02 -2,0 -9,6.52 -28.24,-1.831746 -26,-16.491746 -8.53,4.01 -2.64,17.501746 3.77,22.721746 6.41,5.22 14.28,4.25 22.23,2.77 z"
       sodipodi:nodetypes="cccccsc" />
  </g>
  <g
     fill="#B54845"
     fill-opacity="0.72"
     stroke="None"
     id="g29">
    <path
       d=" M 96.00 100.00  C 96.50 99.98 97.68 100.24 98.00 100.00 C 97.99 98.67 98.00 97.33 98.00 96.00 C 97.95 96.21 95.67 99.58 96.00 100.00 Z"
       id="path29" />
  </g>
  <g
     fill="#C68277"
     fill-opacity="0.68"
     stroke="None"
     id="g30">
    <path
       d=" M 95.00 115.00  C 96.86 112.93 96.46 111.74 97.00 109.00 C 97.00 109.00 96.48 108.91 96.00 109.00 C 95.57 110.61 95.82 113.64 95.00 115.00 Z"
       id="path30" />
  </g>
</svg>
