<?xml version="1.0" standalone="no"?>
<!DOCTYPE svg PUBLIC "-//W3C//DTD SVG 20010904//EN"
 "http://www.w3.org/TR/2001/REC-SVG-20010904/DTD/svg10.dtd">
<svg version="1.0" xmlns="http://www.w3.org/2000/svg"
 width="1024.000000pt" height="1024.000000pt" viewBox="0 0 1024.000000 1024.000000"
 preserveAspectRatio="xMidYMid meet">
<metadata>
Created by potrace 1.16, written by Peter Selinger 2001-2019
</metadata>
<g transform="translate(0.000000,1024.000000) scale(0.100000,-0.100000)"
fill="currentColor" stroke="currentColor">
<path d="M4015 9175 c-85 -21 -135 -43 -185 -80 -138 -102 -229 -256 -256
-435 -14 -99 -14 -135 3 -275 l5 -49 -35 31 c-65 57 -215 99 -319 90 -140 -12
-264 -115 -312 -257 -46 -135 -33 -257 50 -453 22 -53 29 -79 21 -82 -7 -2
-41 -6 -77 -9 -176 -16 -273 -84 -318 -223 -43 -135 -20 -259 71 -378 81 -105
192 -185 322 -230 115 -39 316 -30 536 25 104 26 115 26 89 0 -12 -12 -20 -33
-20 -55 0 -37 -10 -44 -30 -20 -22 26 -50 18 -66 -20 -8 -20 -45 -75 -83 -123
-86 -110 -149 -217 -271 -456 -92 -182 -118 -252 -166 -446 -71 -282 -77 -574
-19 -865 21 -104 22 -122 10 -134 -8 -8 -16 -13 -19 -10 -2 2 -36 51 -77 109
-200 287 -432 514 -504 494 -14 -4 -16 -3 -7 4 17 11 -15 22 -69 22 -131 0
-187 -313 -124 -703 44 -270 163 -553 292 -697 25 -28 43 -53 40 -56 -2 -3
-49 11 -103 32 -117 44 -142 41 -162 -21 -18 -53 -10 -162 18 -245 51 -148
171 -332 263 -400 l47 -35 -65 -32 c-78 -40 -87 -53 -71 -107 48 -159 324
-403 533 -471 94 -31 219 -49 299 -42 l64 5 0 -29 c0 -16 9 -38 20 -49 l21
-21 -21 -46 c-27 -62 -27 -109 2 -124 21 -12 21 -12 -18 -47 -55 -50 -74 -81
-74 -123 0 -72 91 -142 186 -142 l53 0 -6 -58 c-9 -94 35 -167 131 -213 25
-12 56 -37 68 -56 13 -19 45 -47 71 -61 l47 -25 -38 -31 c-49 -39 -94 -105
-86 -126 16 -42 194 -58 329 -29 50 11 91 19 93 17 1 -1 -9 -27 -23 -58 -18
-39 -25 -69 -23 -99 l3 -43 46 -3 c100 -6 412 101 494 170 l30 25 1 -91 c0
-101 22 -166 54 -166 30 0 141 71 191 121 47 48 108 155 129 225 l12 41 62
-19 c69 -22 221 -26 289 -7 21 6 40 9 41 7 1 -2 13 -27 26 -57 41 -89 161
-196 258 -228 26 -9 57 -23 69 -31 41 -26 65 1 81 90 l7 37 45 -30 c98 -67
283 -149 335 -149 39 0 62 100 40 170 -6 20 -4 20 52 -9 32 -16 86 -34 118
-40 66 -12 232 -5 253 12 32 26 4 105 -67 181 -22 24 -22 26 -4 15 61 -37 188
59 219 168 16 54 22 62 53 73 92 33 179 162 167 247 l-6 43 54 0 c43 0 61 6
95 30 89 65 103 135 46 219 -19 28 -35 52 -35 54 0 3 18 7 41 11 84 13 175 78
199 142 23 58 22 89 -3 125 l-25 37 92 46 c196 99 337 255 432 477 48 110 71
175 80 224 6 35 5 38 -8 28 -16 -14 -28 -8 -28 14 0 9 5 11 13 7 8 -5 8 -2 -2
9 -8 10 -9 17 -3 17 6 0 16 -8 21 -17 9 -16 10 -17 11 -1 0 21 -56 62 -71 52
-8 -4 -9 -3 -5 5 4 6 0 14 -11 17 -10 4 -38 15 -62 26 l-44 18 41 36 c96 82
249 337 310 519 42 124 69 316 42 300 -5 -3 -10 2 -11 12 -1 13 -3 11 -9 -7
-7 -21 -8 -18 -10 20 -2 45 -2 45 -11 -15 -28 -202 -66 -319 -164 -503 -96
-181 -192 -298 -305 -376 -42 -29 -49 -37 -27 -32 15 4 27 2 27 -4 0 -6 10 -5
25 2 30 13 110 -7 182 -47 28 -16 43 -19 47 -12 8 21 -6 -67 -16 -103 -15 -49
-113 -255 -151 -315 -105 -169 -280 -302 -457 -346 -62 -16 -291 -16 -378 -1
l-54 9 45 -46 c25 -25 73 -95 107 -155 67 -116 67 -125 5 -126 l-30 0 28 -18
c37 -25 157 -151 157 -165 0 -16 -38 -58 -77 -85 -42 -29 -101 -29 -139 0 -24
20 -27 20 -21 4 6 -15 3 -17 -17 -12 l-24 6 19 -40 c32 -65 34 -118 7 -170
-31 -60 -98 -110 -147 -110 -38 0 -38 -1 -44 -45 -15 -106 -63 -157 -168 -179
-62 -12 -64 -12 -107 15 -24 15 -90 44 -148 64 -92 33 -112 37 -172 33 -37 -3
-84 -14 -104 -23 -35 -17 -39 -17 -56 -2 -27 25 -129 67 -177 74 -29 4 -42 10
-39 18 5 13 112 65 133 65 21 0 150 132 171 175 l20 41 57 -3 c66 -5 105 14
142 66 27 37 13 41 -25 6 -29 -27 -81 -45 -131 -45 -34 0 -151 36 -168 51 -12
12 -25 11 -25 -1 0 -5 27 -23 60 -40 33 -17 60 -34 60 -38 0 -19 -65 -105
-107 -142 -25 -22 -64 -45 -87 -51 -117 -31 -167 -52 -188 -79 -13 -16 -60
-47 -106 -70 -66 -32 -94 -40 -137 -40 -41 0 -55 -4 -55 -14 0 -21 -53 -36
-157 -46 -72 -7 -104 -6 -149 6 -78 20 -161 66 -228 126 -31 27 -56 46 -56 42
0 -12 44 -74 53 -74 4 0 7 -4 7 -10 0 -28 -133 11 -176 51 -18 17 -24 19 -24
8 0 -8 6 -21 12 -27 41 -41 -93 -28 -156 15 -23 15 -47 26 -54 25 -8 -2 -20 2
-28 9 -8 6 -25 8 -40 5 -17 -5 -40 1 -71 16 -57 28 -93 86 -93 150 0 53 -20
76 -93 107 -26 11 -70 43 -97 70 -28 28 -50 44 -50 36 0 -25 71 -96 127 -127
67 -38 83 -61 83 -119 0 -37 7 -58 33 -96 l33 -50 -71 5 c-104 6 -201 -13
-289 -58 -75 -38 -77 -39 -117 -25 -75 27 -128 82 -96 102 5 3 -12 12 -40 19
-63 16 -116 47 -130 76 -21 44 -23 60 -13 126 5 37 12 94 14 127 l6 60 -45
-47 c-47 -50 -75 -59 -128 -39 -26 10 -87 70 -87 85 0 5 32 38 71 74 91 85 99
99 53 94 -47 -6 -50 9 -19 108 49 154 86 222 144 264 29 21 50 40 48 43 -3 2
-31 -8 -63 -22 -155 -69 -409 -90 -549 -45 -176 56 -421 258 -492 407 -13 26
-23 48 -23 49 0 5 88 47 114 55 21 6 41 3 77 -12 35 -15 59 -19 83 -15 40 8
58 26 26 26 -41 0 -149 66 -241 148 -73 64 -184 239 -224 352 -20 58 -29 159
-16 192 l10 27 53 -24 c29 -13 115 -40 191 -60 76 -20 144 -38 152 -41 8 -4
15 -1 15 4 0 6 -9 13 -20 17 -31 10 -177 172 -242 269 -80 120 -122 205 -163
334 -94 291 -123 652 -65 807 30 82 49 99 94 91 101 -19 365 -304 544 -587 17
-28 32 -54 32 -58 0 -4 -45 -53 -100 -110 -55 -56 -100 -106 -100 -110 0 -13
74 -77 110 -96 17 -9 35 -26 40 -39 13 -36 62 -41 124 -12 43 20 48 25 31 31
-62 24 -163 75 -185 93 -30 25 -38 14 114 183 l120 132 -18 86 c-35 163 -44
226 -51 356 -12 229 24 490 98 710 36 106 163 367 255 525 60 103 202 300 216
300 5 0 33 -14 63 -31 30 -17 56 -30 58 -28 2 2 -6 32 -17 67 -14 40 -18 66
-12 72 15 15 125 -16 207 -58 4 -2 -8 25 -27 60 -19 34 -37 73 -41 86 -6 20
-3 22 32 22 50 -1 107 -27 166 -78 66 -57 77 -55 77 13 0 30 2 55 4 55 19 0
80 -29 117 -57 40 -28 52 -45 80 -116 92 -230 269 -499 396 -604 87 -72 177
-129 248 -157 266 -106 564 -66 796 109 98 73 160 150 220 270 61 123 82 217
83 365 1 174 -16 234 -127 441 -25 48 -43 90 -40 93 4 3 1 6 -6 6 -7 0 -10 4
-7 9 4 5 -3 7 -14 4 -13 -4 -34 8 -67 37 -27 23 -60 48 -75 56 -16 8 -28 17
-28 21 0 3 33 38 73 77 138 135 276 362 348 576 42 121 43 129 43 255 1 199
-34 327 -120 451 -53 76 -87 105 -167 143 -279 133 -618 43 -888 -235 -83 -87
-149 -172 -149 -193 0 -6 -4 -11 -9 -11 -5 0 -14 30 -21 68 -27 140 -112 340
-196 459 -132 185 -349 277 -539 228z m229 -83 c65 -18 163 -80 213 -136 90
-98 191 -329 218 -496 17 -104 26 -268 16 -274 -4 -3 -18 27 -30 67 -38 119
-121 338 -153 400 -16 32 -49 90 -74 128 -36 57 -53 74 -90 90 -39 16 -45 23
-41 41 9 32 -94 132 -153 148 -68 18 -195 -10 -249 -55 -34 -29 -101 -59 -101
-46 0 16 102 92 155 117 88 41 180 46 289 16z m100 -254 c11 -10 27 -20 36
-23 29 -9 60 -78 60 -135 0 -65 -10 -83 -65 -116 -37 -21 -52 -25 -87 -19 -88
14 -158 84 -158 158 0 75 37 128 107 152 43 15 78 10 107 -17z m1321 -9 c76
-14 180 -67 227 -116 59 -61 128 -215 128 -286 0 -18 5 -52 11 -76 14 -61 -4
-211 -37 -303 -77 -217 -222 -449 -360 -576 -85 -79 -122 -97 -58 -29 62 65
125 143 191 237 67 95 86 129 51 88 -29 -34 -38 -35 -38 -4 0 36 27 105 70
176 74 124 94 328 45 472 -14 40 -25 81 -25 91 0 18 -29 25 -31 7 -1 -5 -2
-16 -3 -22 -1 -7 2 -19 7 -25 5 -7 7 -24 5 -38 -3 -14 -1 -28 3 -31 5 -3 9
-13 9 -22 0 -13 -2 -14 -9 -4 -6 10 -10 7 -15 -12 -4 -18 -12 -26 -23 -24 -9
2 -22 -7 -28 -19 -7 -13 -14 -20 -17 -17 -3 2 -8 -10 -12 -29 -13 -68 -97
-115 -173 -95 -17 5 -45 22 -62 39 -57 57 -37 160 39 199 21 11 46 20 53 20
10 0 13 8 9 25 -2 14 -9 25 -14 25 -6 0 -8 16 -6 35 4 33 3 34 -22 27 -100
-28 -183 33 -166 122 l7 35 -48 -15 c-26 -8 -76 -22 -110 -30 -114 -28 -275
-145 -364 -266 -76 -101 -164 -244 -188 -303 -24 -61 -27 -39 -5 47 28 110
166 326 284 446 131 132 290 221 455 256 41 8 163 6 220 -5z m-2259 -469 c75
-26 117 -53 187 -119 55 -52 104 -117 95 -126 -2 -3 -33 15 -69 38 -79 53
-166 102 -198 112 -12 4 -39 18 -59 31 -57 39 -136 58 -191 46 -25 -5 -55 -13
-66 -17 -15 -6 -14 -3 5 11 73 55 181 63 296 24z m1999 -992 c62 -12 214 -85
277 -132 84 -63 178 -211 220 -346 41 -135 26 -370 -32 -480 l-19 -35 4 35 c2
19 11 64 21 100 21 83 14 254 -15 353 -33 112 -120 249 -194 304 -121 92 -210
128 -355 144 -106 12 -308 -1 -384 -24 -65 -20 -51 -4 31 38 115 57 294 75
446 43z m22 -125 c8 -9 18 -34 24 -55 11 -41 40 -52 57 -21 11 19 42 11 42
-12 0 -9 9 -15 25 -15 24 0 34 -13 18 -23 -5 -2 -3 -3 3 -1 7 1 30 -2 53 -8
77 -19 141 -122 111 -177 -14 -27 -49 -41 -102 -41 -38 0 -98 26 -98 42 0 4
-7 5 -15 2 -11 -5 -17 3 -22 26 -5 26 -8 29 -15 16 -11 -20 -44 -21 -52 -1 -3
8 -14 15 -25 15 -15 0 -19 5 -15 18 5 16 4 15 -9 -1 -15 -18 -16 -18 -25 0 -8
13 -7 22 4 34 14 16 11 16 -31 7 -64 -14 -91 -4 -120 42 -49 77 -23 148 63
173 54 16 110 7 129 -20z m1973 -4652 c15 -30 12 -86 -7 -120 -23 -40 -92 -79
-104 -60 -6 10 -9 8 -9 -8 0 -20 -5 -23 -44 -23 -49 0 -61 10 -70 61 -3 19
-22 60 -41 90 -19 30 -35 58 -35 62 0 5 26 6 58 3 31 -3 84 -2 117 3 102 14
123 13 135 -8z m-3206 -951 c-27 -30 -58 -43 -128 -55 -22 -4 -80 -27 -130
-52 -120 -60 -146 -68 -146 -42 0 13 27 37 87 76 131 84 176 100 281 102 l62
1 -26 -30z m1797 -28 c102 -60 198 -212 223 -354 6 -33 4 -38 -13 -38 -11 0
-46 26 -79 58 -32 31 -92 86 -132 121 -69 62 -140 147 -153 184 -5 13 2 23 26
37 43 27 73 25 128 -8z m-1544 -2 c18 -14 41 -20 74 -20 40 0 51 -4 68 -26 23
-29 25 -26 -36 -92 -18 -20 -33 -41 -33 -47 0 -15 -65 -51 -137 -76 -69 -24
-264 -71 -270 -65 -13 12 112 222 153 258 25 21 136 88 147 88 5 0 20 -9 34
-20z m1873 -16 c41 -8 95 -27 120 -41 49 -29 141 -120 171 -168 33 -53 28 -57
-58 -51 -43 3 -88 6 -100 7 -13 1 -21 5 -18 9 3 4 -14 20 -38 35 -41 27 -60
45 -141 134 -21 24 -57 51 -79 61 -37 17 -38 19 -16 23 48 9 85 7 159 -9z
m-651 -9 c16 -8 46 -37 67 -66 33 -45 38 -60 44 -130 4 -44 5 -91 2 -104 -4
-22 -8 -20 -61 38 -31 34 -75 79 -98 100 -72 67 -78 128 -15 161 34 19 28 19
61 1z m-750 -41 c37 -8 37 -8 11 -78 -33 -87 -71 -134 -156 -193 -77 -53 -79
-53 -87 -31 -11 29 -1 152 19 217 9 32 23 55 37 63 46 24 118 33 176 22z"/>
<path d="M4204 1396 c-31 -27 -37 -37 -27 -47 10 -10 20 -7 50 18 38 30 48 53
27 60 -5 2 -28 -12 -50 -31z"/>
<path d="M4728 1387 c-12 -29 -10 -63 3 -50 6 6 9 23 7 39 -2 24 -4 26 -10 11z"/>
<path d="M6262 5899 c-46 -23 -86 -73 -98 -123 l-7 -30 44 42 c24 23 66 51 95
61 66 25 169 44 196 35 12 -4 18 -2 14 4 -9 15 -88 32 -148 32 -34 0 -68 -8
-96 -21z"/>
<path d="M6435 5787 c-86 -29 -174 -102 -235 -196 -86 -135 -107 -329 -54
-510 53 -184 194 -353 312 -375 42 -7 42 11 0 46 -28 22 -31 30 -22 45 6 10
23 19 38 21 36 5 33 20 -9 38 -23 9 -33 19 -29 28 3 8 12 12 20 9 29 -11 103
8 139 37 59 47 85 18 45 -47 -18 -31 -19 -33 -2 -33 25 0 42 -20 42 -49 l0
-25 31 30 c64 60 104 185 114 352 6 88 3 123 -13 199 -12 50 -28 106 -37 123
-9 18 -15 34 -12 36 2 2 24 -16 49 -41 29 -29 56 -69 74 -112 28 -65 29 -74
28 -223 0 -134 -3 -163 -22 -214 -12 -33 -20 -61 -18 -63 13 -13 81 144 107
247 30 116 23 263 -15 368 -24 65 -26 76 -13 90 32 37 47 82 47 142 l0 60 -49
-38 c-26 -21 -62 -44 -79 -51 -28 -12 -33 -10 -73 21 -107 81 -264 118 -364
85z m228 -220 c51 -31 77 -72 77 -125 0 -79 -52 -122 -148 -122 -85 0 -152 70
-152 158 0 37 6 50 34 78 31 31 39 34 93 34 43 0 68 -6 96 -23z m56 -521 c7
-8 11 -27 9 -43 -2 -22 -8 -28 -27 -28 -33 0 -48 26 -33 59 13 29 33 33 51 12z"/>
<path d="M3820 5656 c-46 -12 -125 -54 -117 -63 3 -2 26 1 52 8 73 18 174 6
245 -30 33 -17 60 -26 60 -21 0 6 -16 28 -36 49 -50 56 -126 77 -204 57z"/>
<path d="M3760 5490 c-128 -22 -269 -118 -352 -239 -16 -23 -17 -23 -67 -6
-27 9 -61 25 -75 36 -13 10 -27 19 -30 19 -3 0 -6 -19 -6 -42 0 -54 29 -118
65 -146 l28 -22 1 -148 c2 -133 4 -154 28 -216 27 -71 74 -146 128 -204 35
-39 36 -42 11 -35 -11 3 -28 0 -38 -7 -16 -10 -15 -11 10 -7 15 2 30 0 33 -4
3 -5 -1 -9 -9 -9 -8 0 -17 -6 -20 -14 -3 -8 -16 -17 -29 -19 -13 -3 2 -4 32
-3 47 1 55 4 53 20 -1 19 1 17 35 -28 35 -45 26 -22 -24 66 -58 101 -68 126
-94 222 -27 103 -28 257 -1 318 22 48 76 134 66 103 -14 -40 -17 -192 -6 -245
6 -30 32 -102 56 -160 37 -86 60 -121 123 -194 42 -49 82 -91 88 -93 7 -2 9 8
6 26 -6 41 31 65 90 57 l43 -6 -42 20 c-46 22 -83 63 -83 91 0 21 15 25 26 8
3 -6 26 -20 49 -30 36 -16 50 -17 101 -8 93 17 123 19 130 8 10 -17 -18 -41
-43 -36 -13 2 -23 0 -23 -5 0 -4 -15 -17 -32 -28 -30 -18 -31 -20 -10 -20 57
0 75 -31 48 -82 -23 -43 0 -33 57 25 97 97 144 225 153 417 7 146 -12 257 -60
356 -97 196 -250 293 -416 264z m270 -192 c118 -60 122 -211 6 -267 -161 -78
-320 97 -209 230 52 61 128 75 203 37z m-286 -549 c34 -40 34 -81 0 -108 -45
-35 -81 -26 -118 29 -37 56 -7 110 60 110 24 0 39 -8 58 -31z"/>
<path d="M5137 5239 c-97 -23 -166 -79 -294 -239 -47 -58 -105 -121 -130 -142
-41 -32 -72 -70 -73 -90 0 -4 24 -33 54 -66 39 -41 67 -85 95 -149 101 -231
172 -344 281 -453 88 -87 172 -141 233 -147 143 -15 306 264 372 638 8 46 15
102 15 125 0 29 6 46 21 60 40 35 79 97 79 125 0 30 -32 60 -105 97 -22 11
-76 52 -119 91 -152 134 -291 183 -429 150z m154 -29 c79 -15 165 -59 237
-121 35 -30 102 -79 150 -110 48 -31 89 -64 90 -74 9 -45 -187 -188 -323 -236
-158 -55 -415 -42 -608 31 -75 28 -69 36 7 10 147 -50 358 -64 517 -34 101 19
267 100 344 169 l50 45 -90 -39 c-120 -51 -201 -71 -311 -78 -205 -13 -337 87
-354 267 l-6 65 -16 -36 c-22 -50 -150 -183 -223 -232 l-60 -40 85 89 c47 49
123 131 170 183 85 94 128 124 197 140 53 12 82 13 144 1z m-226 -607 c35 -10
98 -17 152 -18 51 0 93 -4 93 -9 0 -5 -46 -6 -102 -3 -75 3 -124 12 -178 31
-79 27 -66 27 35 -1z m580 -64 c-48 -234 -164 -468 -266 -536 -74 -49 -152
-14 -294 132 -82 83 -112 123 -167 221 -37 65 -74 136 -83 157 -28 68 -1 38
50 -56 123 -226 304 -407 407 -407 43 1 106 30 140 66 55 60 144 268 214 503
3 8 7 11 10 8 3 -3 -2 -43 -11 -88z m-275 51 c-8 -5 -24 -9 -35 -9 -16 1 -16
2 5 9 35 11 48 11 30 0z"/>
<path d="M7397 4965 c-34 -20 -36 -23 -18 -28 12 -3 34 -1 49 3 15 5 21 9 13
9 -8 1 -11 8 -8 21 3 11 4 20 4 19 -1 0 -19 -11 -40 -24z"/>
<path d="M7542 4872 l-42 -37 0 -90 c-1 -217 -104 -422 -314 -622 -167 -159
-375 -285 -615 -372 -178 -66 -321 -96 -549 -117 -40 -3 -72 -8 -70 -10 2 -2
62 -5 133 -8 137 -6 312 11 415 40 189 53 449 182 594 296 91 72 232 213 289
289 122 166 177 318 177 497 0 74 4 112 16 133 8 17 14 33 12 35 -2 2 -23 -14
-46 -34z"/>
<path d="M7797 4759 c-16 -27 -25 -54 -22 -59 3 -6 2 -10 -3 -10 -5 0 -31 -37
-58 -82 -26 -46 -70 -104 -96 -130 -26 -27 -45 -48 -43 -48 2 0 49 31 103 69
54 39 133 88 175 111 42 23 77 44 77 46 0 3 -9 0 -19 -6 -25 -13 -53 -14 -32
-1 8 5 10 14 6 22 -6 8 -4 11 7 7 8 -4 15 -1 15 7 0 10 -6 11 -23 3 -13 -6
-22 -14 -20 -17 2 -3 -7 -7 -19 -7 -32 -2 -36 24 -8 53 13 12 23 28 23 35 0 7
-9 0 -20 -17 -11 -16 -20 -24 -20 -17 0 6 -4 12 -10 12 -5 0 -7 -7 -4 -15 4
-8 2 -15 -4 -15 -13 0 -10 14 11 64 24 56 16 53 -16 -5z"/>
<path d="M3357 4458 c-15 -5 -24 -14 -21 -20 4 -6 -2 -8 -17 -3 -19 6 -22 5
-12 -5 13 -14 103 -22 100 -9 -1 4 7 15 18 23 19 15 18 15 -13 5 -18 -6 -36
-9 -39 -5 -4 3 1 6 10 6 10 0 17 5 17 10 0 12 -6 12 -43 -2z"/>
<path d="M3525 4419 c-4 -11 -14 -15 -28 -12 -21 4 -21 4 -2 -8 11 -7 24 -17
28 -23 6 -7 7 -4 3 6 -3 10 -1 20 4 23 6 4 10 -2 11 -12 0 -10 3 -13 5 -6 3 7
1 20 -5 30 -9 16 -10 16 -16 2z"/>
<path d="M3358 4385 c3 -16 0 -25 -8 -25 -8 0 -11 -9 -8 -25 6 -29 -6 -33 -21
-7 -9 15 -12 15 -21 2 -11 -18 -8 -32 8 -38 8 -2 10 3 6 15 -4 14 -1 12 16 -6
11 -13 19 -30 16 -37 -3 -8 0 -11 9 -8 15 6 16 25 1 35 -11 8 1 29 17 29 7 0
18 -4 26 -9 12 -8 12 -12 2 -25 -8 -9 -11 -16 -8 -16 3 0 12 -3 20 -6 12 -4
14 0 10 15 -3 13 -1 21 6 21 7 0 9 5 6 11 -4 6 -9 8 -12 5 -11 -11 -43 36 -43
64 0 19 -5 30 -14 30 -9 0 -12 -8 -8 -25z"/>
<path d="M3182 4355 c-7 -8 -8 -15 -3 -15 5 0 13 5 17 11 4 8 9 8 17 0 6 -6
16 -11 22 -11 5 0 1 7 -9 15 -24 18 -28 18 -44 0z"/>
<path d="M3254 4357 c16 -12 16 -14 -9 -25 -15 -7 -31 -9 -37 -6 -7 5 -8 2 -4
-5 5 -7 14 -10 22 -7 8 3 14 1 14 -5 0 -6 5 -7 10 -4 6 4 8 11 5 16 -4 5 -2 9
4 9 5 0 12 -6 15 -12 2 -7 4 -4 3 7 -3 26 -15 45 -30 45 -6 0 -3 -6 7 -13z"/>
<path d="M3506 4341 c-4 -5 -5 -15 -3 -23 2 -7 2 -10 0 -5 -12 21 -20 3 -10
-23 6 -16 15 -30 19 -30 4 0 8 -5 8 -11 0 -6 -9 -9 -19 -6 -21 5 -22 -6 -3
-41 l13 -22 34 37 c19 21 35 41 35 45 0 4 9 10 21 13 16 5 18 10 8 21 -6 8
-17 14 -23 14 -6 0 -18 9 -26 20 -15 21 -45 27 -54 11z m48 -66 c-5 -12 -10
-13 -20 -4 -19 15 -18 19 6 19 13 0 18 -5 14 -15z"/>
<path d="M3141 4304 c-12 -15 -21 -34 -20 -43 0 -10 4 -7 10 8 5 13 12 22 14
19 3 -3 1 -17 -5 -32 -5 -15 -8 -31 -5 -36 3 -5 1 -19 -4 -32 -8 -20 -6 -24
12 -26 16 -1 18 1 8 7 -10 7 -11 16 -4 37 5 16 9 46 8 67 -1 29 1 34 7 22 6
-9 7 -23 4 -31 -3 -8 -1 -14 4 -14 6 0 10 7 10 15 0 8 4 15 10 15 5 0 7 -8 3
-17 -4 -14 -3 -15 6 -7 16 14 4 41 -21 47 -11 3 -17 10 -13 16 13 21 -4 10
-24 -15z"/>
<path d="M3641 4293 c-7 -8 -10 -17 -7 -20 9 -9 29 13 25 25 -2 6 -10 3 -18
-5z"/>
<path d="M3433 4264 c0 -17 5 -24 18 -24 11 0 19 3 19 8 0 4 -8 15 -19 24 -17
15 -18 14 -18 -8z"/>
<path d="M3614 4247 c13 -10 16 -20 12 -35 -4 -12 -12 -22 -17 -22 -5 0 -9 -7
-9 -15 0 -8 5 -15 11 -15 5 0 -3 -11 -18 -25 -23 -20 -25 -26 -13 -34 8 -5 17
-8 21 -5 4 2 10 0 14 -6 3 -5 0 -10 -7 -10 -8 0 -6 -5 5 -11 21 -12 23 -48 2
-55 -24 -9 -17 -20 12 -19 14 0 28 -6 30 -12 3 -8 -4 -13 -14 -13 -25 0 -33
-8 -26 -26 6 -16 43 -19 43 -4 0 6 9 10 19 10 11 0 22 6 24 13 4 10 6 10 6 0
1 -17 46 -17 60 0 6 8 8 16 6 19 -8 8 16 58 27 58 5 0 6 9 3 20 -5 14 -2 20 9
20 9 0 16 5 16 10 0 11 -12 13 -47 10 -13 -1 -23 3 -23 9 0 6 7 8 15 5 20 -8
19 15 -2 39 -13 15 -14 18 -3 12 13 -8 13 -6 1 8 -7 9 -17 14 -22 11 -5 -3 -9
1 -9 8 0 7 -9 24 -20 38 -16 21 -21 23 -32 12 -11 -11 -10 -12 5 -7 22 9 22
-4 0 -21 -10 -7 -15 -16 -10 -20 4 -4 14 1 22 12 8 10 15 15 15 11 0 -19 -46
-67 -64 -66 -12 0 -16 3 -10 5 6 3 10 21 8 42 -1 20 3 40 9 45 7 5 3 6 -10 2
-12 -3 -24 -1 -28 5 -3 5 -11 10 -18 10 -6 0 -3 -6 7 -13z m86 -216 c0 -5 -6
-12 -12 -14 -10 -4 -10 -8 0 -15 11 -8 11 -10 -1 -15 -25 -10 -39 14 -19 34
19 20 32 24 32 10z"/>
<path d="M2890 4221 c-10 -19 -16 -21 -63 -15 -48 7 -51 6 -38 -10 8 -9 33
-21 57 -27 34 -9 45 -17 53 -42 21 -59 141 -225 207 -286 161 -148 390 -275
611 -341 165 -48 263 -63 428 -63 142 0 370 24 387 41 4 4 -46 5 -110 3 -165
-5 -394 15 -549 49 -309 67 -597 228 -788 438 -37 42 -135 199 -135 218 0 6
-11 21 -24 33 l-24 23 -12 -21z"/>
<path d="M3340 4182 c-8 -9 -13 -16 -11 -15 2 2 9 -1 15 -6 7 -6 11 -1 12 15
1 13 1 24 0 23 0 0 -8 -8 -16 -17z"/>
<path d="M3175 4169 c4 -13 13 -27 19 -31 11 -8 -6 -12 -33 -8 -9 1 -12 -5 -8
-22 4 -13 2 -30 -3 -38 -9 -13 -11 -13 -20 0 -8 11 -10 4 -7 -27 3 -39 53
-130 65 -118 3 3 18 -9 34 -27 15 -17 28 -28 28 -23 0 5 -7 17 -17 27 -9 11
-11 18 -5 18 7 0 17 -9 24 -20 7 -11 16 -20 21 -20 4 0 5 5 2 10 -3 6 0 13 8
15 7 3 13 15 12 25 -2 25 -15 39 -15 17 0 -9 -6 -17 -12 -17 -10 0 -9 -3 1 -9
8 -5 9 -11 3 -15 -14 -9 -63 59 -56 78 4 11 1 16 -11 16 -10 0 -13 -5 -9 -12
4 -6 3 -8 -4 -5 -7 5 -7 18 1 45 19 63 31 68 130 59 35 -3 36 -3 20 15 -19 22
-41 25 -23 3 10 -12 10 -15 -3 -15 -22 0 -29 28 -9 39 9 5 14 13 10 16 -4 4
-14 0 -23 -9 -26 -25 -54 -19 -92 20 -30 32 -34 33 -28 13z m56 -71 c-28 -10
-34 -7 -25 15 5 14 10 15 27 5 l21 -11 -23 -9z m-59 -103 c3 -14 1 -28 -4 -31
-4 -3 -8 -2 -7 3 1 4 0 10 -1 13 -1 3 -3 15 -4 27 -3 30 10 20 16 -12z"/>
<path d="M3347 4123 c3 -7 11 -13 19 -13 7 0 11 6 8 13 -3 8 -11 14 -18 14 -8
0 -12 -6 -9 -14z"/>
<path d="M3520 4083 c1 -24 26 -57 38 -49 17 10 21 46 6 46 -8 0 -14 5 -14 10
0 6 -7 10 -15 10 -8 0 -15 -8 -15 -17z"/>
<path d="M3440 4065 c0 -8 5 -15 10 -15 6 0 10 7 10 15 0 8 -4 15 -10 15 -5 0
-10 -7 -10 -15z"/>
<path d="M3344 4049 c-3 -6 -1 -16 5 -22 8 -8 11 -5 11 11 0 24 -5 28 -16 11z"/>
<path d="M3840 4050 c0 -5 5 -10 10 -10 14 0 -8 -34 -32 -49 -18 -11 -19 -10
-13 8 3 12 2 21 -3 21 -5 0 -12 -9 -15 -20 -3 -11 0 -20 5 -20 6 0 3 -9 -7
-20 -37 -41 -1 -19 41 25 26 28 41 51 38 60 -7 17 -24 20 -24 5z"/>
<path d="M3258 4016 c-4 -17 -1 -23 9 -19 14 6 18 43 4 43 -5 0 -11 -11 -13
-24z"/>
<path d="M3310 3984 c0 -9 9 -18 20 -21 12 -3 20 -14 21 -27 0 -18 2 -18 7 -4
5 13 11 15 22 8 21 -14 30 -12 30 5 0 9 -9 15 -25 15 -18 0 -25 5 -25 20 0 15
-7 20 -25 20 -16 0 -25 -6 -25 -16z"/>
<path d="M3490 3996 c0 -2 7 -9 15 -16 12 -10 15 -10 15 4 0 9 -7 16 -15 16
-8 0 -15 -2 -15 -4z"/>
<path d="M3321 3913 c-1 -7 -8 -13 -16 -13 -16 0 -21 -35 -6 -44 5 -3 8 0 7 7
0 6 4 13 9 15 6 1 10 -1 10 -5 2 -21 17 -53 26 -53 9 0 8 21 -2 30 -3 3 -10
21 -16 40 -6 19 -11 29 -12 23z"/>
<path d="M3367 3846 c-5 -13 0 -16 26 -15 21 1 25 3 12 6 -11 3 -23 10 -26 15
-3 5 -9 3 -12 -6z"/>
<path d="M3434 3832 c5 -8 -5 -13 -31 -14 l-38 -1 34 -4 c36 -5 61 9 40 22 -8
5 -10 4 -5 -3z"/>
<path d="M5339 3742 c-115 -76 -163 -125 -234 -237 -21 -33 -75 -109 -120
-170 -104 -141 -130 -185 -150 -265 -47 -182 53 -364 217 -395 l35 -7 -22 -23
c-58 -57 -89 -177 -65 -249 15 -48 54 -93 109 -128 39 -24 55 -28 117 -28 40
0 84 4 99 10 39 15 92 60 123 105 23 35 27 50 27 115 0 91 -28 149 -91 192
l-42 28 64 65 64 65 46 -30 c95 -60 236 -64 349 -12 74 35 118 79 153 152 23
46 27 68 27 141 0 81 -2 90 -42 170 -52 104 -117 177 -236 269 -51 38 -127 98
-169 133 -43 34 -94 71 -114 82 l-36 19 -19 -24 c-16 -21 -21 -23 -28 -10 -31
50 -34 51 -62 32z m288 -189 c26 -25 78 -70 114 -99 155 -124 229 -236 235
-357 l3 -72 -13 55 c-20 87 -66 170 -111 202 -44 33 -257 254 -274 286 -25 46
-13 42 46 -15z m129 -229 c13 -34 14 -48 6 -56 -7 -7 -14 -9 -17 -6 -5 5 -35
112 -35 125 0 18 32 -25 46 -63z m-356 -33 c0 -10 -8 -29 -18 -41 -14 -18 -25
-22 -45 -16 -38 9 -34 26 13 58 33 22 50 22 50 -1z m47 -119 c-2 -113 -5 -132
-27 -176 -14 -27 -29 -48 -35 -45 -5 2 -8 11 -6 19 2 8 5 68 6 132 2 102 5
120 24 144 11 15 21 35 21 46 0 11 4 16 10 13 6 -4 9 -57 7 -133z m411 72 c27
-19 28 -55 3 -78 -33 -30 -81 10 -81 68 0 22 5 26 28 26 15 0 38 -7 50 -16z
m-543 -64 c-3 -4 4 -6 14 -3 13 3 25 -3 36 -20 16 -25 15 -27 -11 -56 -16 -18
-37 -31 -51 -31 -19 0 -23 5 -23 30 0 21 -4 28 -14 24 -9 -3 -17 3 -21 15 -7
24 2 44 18 38 7 -2 18 2 25 10 14 14 36 8 27 -7z m47 -529 c87 -55 117 -175
69 -274 -59 -121 -226 -150 -331 -57 -14 13 -18 21 -10 18 8 -3 21 1 28 9 16
15 52 18 52 3 0 -5 -10 -10 -23 -10 -27 0 -39 -9 -31 -21 3 -5 18 -2 34 6 16
8 40 15 54 15 14 0 40 9 58 19 32 19 34 19 55 2 12 -10 19 -21 16 -25 -4 -3 1
-6 11 -6 25 0 61 44 63 77 1 23 0 25 -6 8 -5 -11 -7 -22 -6 -25 2 -3 -3 -11
-11 -18 -10 -9 -14 -9 -14 -1 0 8 -5 7 -17 -2 -11 -10 -14 -10 -9 -1 4 6 3 12
-1 12 -5 0 -14 10 -22 21 -11 19 -11 21 3 16 28 -11 17 10 -12 22 -31 13 -92
67 -92 82 0 5 -9 9 -19 9 -14 0 -18 5 -14 21 3 11 12 23 19 26 8 3 14 13 14
22 0 26 50 81 74 81 12 0 43 -13 68 -29z m-246 -33 c0 -13 -3 -25 -6 -28 -4
-3 -17 -26 -28 -52 -20 -46 -52 -66 -52 -33 0 27 28 84 54 110 31 31 32 31 32
3z m126 -153 c11 -19 10 -20 -10 -2 -11 10 -22 28 -26 40 -5 22 -5 22 10 2 9
-11 20 -29 26 -40z"/>
</g>
</svg>
