<?xml version="1.0" standalone="no"?>
<!DOCTYPE svg PUBLIC "-//W3C//DTD SVG 20010904//EN"
 "http://www.w3.org/TR/2001/REC-SVG-20010904/DTD/svg10.dtd">
<svg version="1.0" xmlns="http://www.w3.org/2000/svg"
 width="1024.000000pt" height="1024.000000pt" viewBox="0 0 1024.000000 1024.000000"
 preserveAspectRatio="xMidYMid meet">
<metadata>
Created by potrace 1.16, written by Peter Selinger 2001-2019
</metadata>
<g transform="translate(0.000000,1024.000000) scale(0.100000,-0.100000)"
fill="currentColor" stroke="currentColor">
<path d="M5065 9837 c-45 -45 -52 -77 -27 -127 l20 -41 -34 -14 c-94 -39 -270
-194 -339 -299 -41 -60 -55 -69 -55 -33 0 29 -56 126 -77 134 -21 8 -65 -44
-81 -95 -11 -33 -10 -39 9 -54 12 -11 38 -18 61 -18 87 0 126 -19 215 -102
103 -97 135 -112 231 -109 50 2 38 21 -13 21 -64 0 -102 19 -186 92 -41 35
-87 69 -102 76 -22 10 -26 15 -18 30 20 38 101 140 149 188 57 58 183 146 235
165 l34 12 -19 34 c-12 19 -15 33 -9 33 8 0 7 6 -1 20 -17 27 0 70 35 90 35
19 61 5 65 -37 3 -32 -12 -51 -46 -56 -61 -9 -46 -57 17 -57 20 0 43 6 50 13
10 10 12 8 9 -8 -2 -13 -14 -22 -33 -26 -17 -4 -22 -7 -11 -8 10 0 35 -16 56
-33 21 -18 57 -48 80 -67 51 -41 94 -126 84 -165 -8 -34 -49 -66 -84 -66 -25
0 -28 4 -33 47 -4 39 -12 54 -46 85 -32 30 -48 38 -78 38 -60 0 -112 -45 -61
-52 28 -4 34 -30 13 -52 -26 -26 -45 -20 -45 15 0 40 -21 34 -34 -10 -23 -79
35 -151 122 -151 24 0 41 -4 37 -9 -3 -5 12 -22 32 -38 61 -45 74 -67 49 -76
-9 -4 -22 7 -35 29 -18 30 -25 34 -64 34 -54 0 -86 -30 -94 -89 -5 -35 -2 -44
25 -71 17 -16 40 -30 53 -30 19 0 17 -4 -17 -31 -57 -46 -85 -55 -229 -73
-151 -19 -353 -52 -408 -67 -37 -10 -40 -9 -73 25 -19 20 -47 39 -62 42 -117
28 -216 138 -200 221 5 25 58 29 87 6 20 -16 21 -22 10 -45 -6 -15 -15 -25
-20 -23 -4 3 -10 1 -13 -3 -6 -10 102 -37 111 -28 3 2 9 36 13 74 9 84 33 128
83 153 40 21 44 35 26 88 -20 57 -108 81 -145 40 -13 -15 -19 -36 -19 -71 0
-43 4 -53 30 -76 28 -25 29 -30 21 -67 -15 -71 -13 -69 -52 -44 -44 27 -114
41 -131 27 -19 -15 -15 -87 6 -134 22 -49 72 -92 154 -132 34 -16 71 -39 81
-51 19 -21 19 -22 -9 -51 -23 -25 -135 -70 -172 -70 -5 0 -26 30 -47 68 -85
147 -225 309 -332 382 -122 84 -277 131 -428 128 l-101 -1 110 -7 c129 -8 260
-47 365 -110 116 -69 259 -231 260 -294 0 -14 -16 -3 -57 41 -49 51 -153 133
-153 120 0 -2 12 -37 26 -78 20 -55 28 -100 31 -174 l5 -100 -35 -57 c-20 -32
-31 -60 -27 -63 5 -3 27 4 50 15 22 11 40 18 40 15 0 -2 -27 -18 -61 -35 -33
-17 -92 -53 -130 -81 -38 -27 -74 -47 -80 -44 -19 12 -70 127 -105 237 -32 96
-42 117 -80 153 -24 24 -55 46 -69 49 -68 17 -153 -43 -174 -122 -6 -20 -11
-135 -11 -253 0 -265 -9 -319 -92 -529 -75 -190 -139 -264 -257 -300 -40 -12
-113 -28 -162 -36 -105 -17 -130 -28 -182 -81 -30 -32 -39 -49 -44 -91 l-6
-52 -39 0 c-90 0 -128 48 -128 162 0 51 -3 68 -10 58 -15 -23 -12 -146 5 -186
8 -20 32 -51 52 -70 20 -19 31 -34 24 -34 -24 0 -81 41 -95 69 -28 53 -48 153
-41 205 l6 51 -21 -24 c-22 -26 -27 -80 -9 -113 14 -26 6 -33 -21 -18 -35 19
-60 70 -60 126 0 61 42 134 95 165 35 21 47 36 20 26 -8 -4 -17 -1 -21 5 -4 7
-9 6 -15 -3 -7 -11 -9 -10 -9 4 0 9 6 17 14 17 7 0 22 11 32 25 13 17 20 21
26 12 5 -8 8 -4 8 11 0 13 3 21 8 19 4 -3 21 1 37 9 22 10 24 13 8 10 -13 -2
-25 0 -28 5 -3 4 -12 6 -20 2 -8 -3 -15 -1 -15 4 0 6 -20 23 -45 39 -25 15
-45 32 -45 38 0 5 -8 19 -18 30 -10 12 -3 9 17 -7 19 -16 57 -40 85 -55 44
-23 63 -27 136 -27 150 0 217 55 289 237 28 70 31 87 31 195 1 209 32 367 101
510 75 158 252 305 424 354 33 10 53 18 44 18 -26 1 -121 -30 -174 -57 -81
-40 -162 -109 -228 -191 -118 -149 -164 -298 -176 -576 -5 -99 -13 -193 -20
-210 -23 -58 -74 -150 -103 -188 -40 -50 -76 -67 -156 -74 -84 -6 -167 22
-226 78 -36 33 -41 43 -40 81 1 61 26 104 68 118 48 15 59 31 41 57 -10 14
-35 26 -69 34 -45 10 -61 9 -104 -5 -122 -41 -167 -162 -127 -335 25 -105 87
-198 159 -238 17 -9 16 -12 -3 -44 -48 -78 -16 -201 63 -245 28 -16 46 -37 63
-73 36 -75 115 -120 189 -107 30 6 38 15 65 69 36 72 75 117 102 117 55 0 111
-118 100 -210 -9 -75 19 -165 77 -250 27 -38 46 -70 42 -70 -4 0 -42 11 -85
25 -120 39 -279 32 -331 -13 -29 -27 -53 -83 -60 -144 -5 -41 -14 -63 -33 -82
-14 -14 -30 -26 -35 -26 -24 0 -47 23 -53 52 -16 72 -74 91 -118 38 -35 -41
-41 -80 -23 -143 21 -72 61 -124 148 -193 40 -33 103 -86 139 -120 79 -72 149
-99 302 -117 53 -6 97 -15 97 -19 0 -4 -12 -37 -26 -73 -26 -64 -44 -83 -44
-46 0 50 -81 53 -152 6 -52 -35 -91 -116 -92 -194 -2 -156 168 -307 370 -331
140 -16 396 31 492 90 18 11 37 20 42 20 5 0 38 -20 74 -46 70 -48 237 -130
324 -158 28 -10 52 -19 52 -21 0 -1 -7 -22 -15 -45 -19 -53 -19 -94 0 -155
l14 -48 -83 -86 c-91 -94 -158 -189 -228 -323 -26 -47 -65 -118 -88 -156 -37
-64 -42 -80 -50 -166 -14 -145 -55 -220 -156 -283 -33 -21 -69 -44 -80 -50
-10 -7 -50 -31 -89 -54 -139 -82 -181 -114 -265 -200 -134 -138 -271 -191
-576 -224 -115 -13 -347 63 -454 148 -24 20 -45 35 -46 34 -1 -1 5 -30 13 -64
l15 -62 67 -6 c124 -12 427 -87 495 -122 15 -8 42 -16 59 -19 17 -2 49 -16 71
-31 23 -16 61 -31 86 -34 l45 -6 -41 -1 c-23 -1 -47 -9 -54 -17 -11 -13 -6
-15 34 -15 49 0 56 -8 30 -34 -30 -31 -122 -18 -319 44 -33 10 -76 21 -95 24
-33 5 -33 4 -10 -7 14 -6 27 -14 30 -17 3 -3 27 -14 54 -24 27 -11 67 -35 88
-54 22 -19 38 -31 37 -26 -4 21 2 26 16 14 13 -11 13 -15 3 -21 -10 -7 -9 -9
4 -9 9 0 20 -9 23 -20 3 -11 10 -20 15 -20 5 0 7 -7 3 -16 -4 -12 -9 -9 -19
15 -12 28 -20 33 -64 33 -3 1 -18 -2 -33 -6 -21 -5 -27 -4 -21 5 5 8 2 10 -8
6 -9 -3 -21 0 -27 6 -16 16 -14 -5 9 -88 33 -120 24 -160 -56 -237 -61 -59
-136 -100 -239 -130 -71 -20 -101 -23 -275 -23 -173 1 -204 3 -277 24 -46 13
-109 39 -140 58 -71 42 -155 123 -189 181 -14 24 -28 41 -31 38 -3 -3 -1 -12
6 -19 6 -8 9 -21 6 -29 -4 -9 0 -22 7 -29 7 -8 20 -27 28 -43 58 -113 332
-252 521 -263 244 -15 536 71 647 191 50 54 66 109 58 193 -5 45 -3 62 6 65
21 7 38 -49 48 -155 8 -81 7 -104 -5 -127 -23 -45 -72 -86 -168 -141 -49 -28
-86 -53 -84 -55 8 -8 196 45 249 70 31 15 76 46 102 69 l46 43 0 -47 c0 -40
-5 -53 -28 -74 -45 -42 -172 -102 -257 -121 -90 -19 -311 -25 -433 -10 -69 8
-73 7 -71 -10 4 -22 -8 -44 -22 -44 -6 0 -8 4 -5 9 4 5 -10 4 -29 -2 -37 -11
-83 -49 -111 -91 -39 -61 41 -148 211 -230 147 -72 258 -103 433 -121 67 -7
112 -30 266 -134 59 -39 73 -55 97 -106 20 -40 29 -76 29 -108 0 -30 6 -54 15
-63 13 -14 15 -13 15 5 0 12 5 21 10 21 14 0 13 -43 -1 -57 -7 -7 -13 -31 -15
-55 -2 -24 -10 -74 -17 -112 -14 -74 -24 -84 -115 -117 -18 -6 -31 -13 -29
-15 4 -4 209 33 281 51 32 9 61 14 63 12 2 -3 -1 -16 -7 -31 -5 -15 -10 -48
-10 -73 0 -38 -6 -52 -34 -84 -19 -20 -39 -55 -45 -75 -11 -39 -5 -105 11
-136 10 -20 43 -24 53 -8 10 16 103 60 117 56 7 -3 25 -7 41 -10 24 -6 27 -11
27 -44 0 -42 26 -100 52 -116 14 -9 25 -4 55 24 21 20 52 45 70 57 l31 22 7
-49 c11 -77 53 -120 87 -87 58 55 162 137 174 137 10 0 14 -14 14 -57 1 -61
19 -99 43 -90 7 3 47 32 88 65 42 34 105 75 141 92 36 17 105 62 154 101 155
121 305 212 322 195 7 -8 -59 -66 -130 -112 -82 -54 -120 -99 -141 -167 -41
-135 -31 -229 39 -347 72 -123 105 -140 118 -61 11 68 26 47 27 -36 1 -143 31
-180 106 -129 21 14 52 26 69 26 17 0 51 11 77 23 l46 24 6 -46 c14 -103 40
-123 104 -81 23 16 66 36 94 46 73 23 145 63 172 96 l24 28 29 -42 c16 -24 39
-52 51 -63 27 -23 33 -16 56 60 16 57 71 146 132 217 29 33 44 63 52 98 15 68
15 67 -15 188 -24 98 -25 116 -19 235 l7 129 27 -7 c68 -17 141 -24 194 -16
l57 8 2 -61 c4 -113 2 -131 -35 -229 -63 -167 -51 -256 57 -417 36 -53 66
-107 66 -119 0 -29 23 -83 42 -99 14 -11 19 -8 37 22 39 63 41 63 144 8 51
-27 120 -58 153 -67 32 -10 74 -25 92 -34 32 -15 34 -15 52 7 11 13 22 40 25
60 10 60 13 64 32 54 10 -6 52 -19 93 -31 41 -11 87 -30 102 -41 15 -11 32
-20 37 -20 22 0 42 51 48 119 3 39 9 71 13 71 4 0 14 -10 22 -22 20 -31 40
-19 88 52 35 51 45 77 57 148 19 110 13 221 -15 284 -11 26 -53 81 -91 122
-70 74 -83 96 -58 96 21 0 123 -71 217 -150 47 -39 119 -88 160 -109 41 -20
107 -63 145 -94 97 -78 114 -86 130 -64 7 10 16 45 20 78 5 40 11 59 21 59 7
0 52 -36 99 -81 47 -44 91 -79 97 -77 24 8 50 57 55 102 4 29 11 46 19 46 7 0
40 -25 72 -55 33 -30 65 -55 71 -55 17 0 39 41 54 100 10 40 21 58 38 67 39
21 82 15 132 -17 55 -35 63 -36 75 -13 33 63 23 147 -23 207 -24 31 -33 56
-37 97 l-6 55 71 -18 c39 -10 108 -21 152 -24 l80 -6 61 41 c80 53 131 111
139 155 7 37 2 106 -10 143 -7 21 -5 22 47 19 66 -4 113 -27 133 -66 22 -43
19 -50 -25 -50 -43 0 -43 1 -54 -84 -4 -27 -16 -51 -41 -76 -19 -20 -33 -39
-30 -42 11 -10 78 13 120 42 84 58 98 95 80 205 -15 88 -43 143 -95 187 -22
19 -40 40 -40 46 0 6 -17 16 -37 21 -103 27 -110 29 -82 30 14 1 39 -3 55 -8
16 -5 43 -12 59 -16 24 -5 20 0 -22 25 -29 17 -52 34 -50 39 1 5 -7 17 -18 25
-18 14 -15 14 31 1 84 -24 156 -61 204 -105 24 -22 47 -40 50 -40 16 0 18 14
4 27 -10 11 -12 19 -4 28 21 26 -55 134 -124 176 l-29 18 25 6 c39 10 43 42 7
60 -16 9 -29 13 -29 10 0 -3 -11 2 -24 10 -17 11 -40 15 -72 12 -46 -4 -46 -4
-23 14 28 21 111 49 148 49 19 0 22 3 12 9 -11 7 -3 15 32 31 25 12 76 49 113
83 l67 61 82 -3 c98 -3 126 7 213 77 44 35 76 53 105 57 89 15 165 80 202 173
10 23 22 42 29 42 31 0 123 55 170 103 56 56 79 106 91 204 6 47 9 53 31 53
27 0 89 51 109 90 22 42 28 119 15 189 -11 61 -10 64 13 90 14 14 30 36 36 48
16 31 14 116 -5 162 -15 38 -15 40 10 78 51 77 43 170 -19 236 -19 20 -35 43
-35 51 0 7 -8 24 -19 37 -10 13 -24 48 -31 77 -11 46 -10 59 5 98 12 32 16 65
13 109 -5 83 -40 135 -113 170 -47 22 -53 29 -60 62 -22 120 -116 225 -221
247 -20 5 -44 22 -64 48 -37 46 -115 87 -133 69 -8 -8 -5 -11 9 -11 52 0 144
-106 144 -167 0 -11 9 -31 19 -44 18 -22 20 -22 26 -7 4 10 12 15 18 11 6 -3
7 -1 3 5 -4 7 -14 12 -22 12 -9 0 -14 11 -14 30 0 37 19 39 63 8 104 -71 145
-146 154 -284 l6 -81 30 -1 c31 -1 48 -19 54 -57 2 -10 9 -23 16 -27 7 -5 1
-7 -16 -4 -26 5 -27 4 -12 -17 18 -26 19 -41 3 -31 -7 4 -5 -2 5 -13 18 -21
18 -21 0 -26 -16 -4 -16 -5 2 -6 17 -1 18 -3 5 -11 -13 -8 -12 -10 3 -10 15 0
17 -11 17 -89 0 -70 3 -91 16 -102 15 -12 16 -11 8 11 -4 14 -8 90 -9 170 l0
145 -33 48 c-19 27 -40 51 -48 54 -8 3 -14 18 -14 34 l0 29 39 -20 c87 -44
122 -141 86 -235 -23 -61 -13 -161 21 -207 13 -17 24 -37 24 -43 0 -6 13 -24
30 -40 38 -36 54 -85 46 -139 -8 -49 -40 -106 -60 -106 -12 0 -10 -11 9 -52
15 -33 25 -71 25 -100 0 -41 -5 -54 -35 -87 l-35 -38 6 -104 c6 -106 -6 -178
-32 -186 -8 -3 -6 20 7 68 21 81 24 115 9 124 -6 4 -10 -6 -10 -23 0 -42 -29
-132 -45 -138 -8 -3 -11 -12 -9 -19 3 -7 0 -16 -5 -20 -6 -3 -9 -10 -6 -14 2
-5 -7 -6 -21 -3 -28 5 -71 -29 -106 -86 l-20 -33 22 -24 c22 -24 20 -45 -5
-45 -7 0 -15 -7 -19 -15 -9 -24 15 -17 46 12 26 25 28 25 28 6 0 -42 -92 -143
-155 -168 -68 -28 -76 -24 -17 9 35 19 69 40 77 46 19 16 19 40 1 40 -10 0
-12 12 -8 50 3 33 0 55 -9 66 -8 10 -9 18 -3 22 6 4 21 23 34 42 28 41 114
145 146 177 23 23 60 127 62 178 1 17 9 59 18 94 9 36 15 96 14 135 -4 106 -3
112 30 149 49 56 36 114 -38 175 -23 17 -43 32 -46 32 -3 0 -7 -21 -8 -47 -1
-39 -2 -42 -5 -13 -23 218 -84 394 -197 560 -53 79 -228 259 -316 326 -133
101 -276 165 -400 178 -60 7 -63 6 -43 -8 13 -10 19 -23 16 -34 -3 -12 11 -31
44 -59 73 -61 138 -195 114 -232 -8 -13 -19 -13 -73 -3 -45 9 -108 10 -223 3
-144 -8 -166 -11 -218 -36 -75 -36 -149 -103 -184 -167 -20 -37 -35 -52 -52
-55 -32 -4 -37 -11 -23 -25 8 -8 15 -8 28 3 16 13 17 11 11 -30 -6 -48 14
-137 39 -176 16 -25 16 -25 -16 -25 -48 0 -95 34 -134 97 -41 65 -54 128 -37
184 13 44 47 70 57 44 8 -19 24 -20 24 0 0 20 -46 30 -75 17 -68 -31 -35 -233
55 -335 38 -43 57 -55 120 -74 l45 -13 -40 6 c-59 8 -135 48 -183 96 -44 46
-82 132 -82 188 0 17 -11 57 -25 89 -35 84 -40 129 -21 192 25 88 81 166 148
210 33 21 69 53 81 71 13 18 35 39 50 46 43 21 146 34 215 28 34 -3 62 -1 62
4 0 15 -142 22 -210 10 -81 -15 -94 -21 -155 -81 -27 -27 -78 -75 -111 -108
-109 -106 -140 -233 -90 -363 13 -35 29 -95 36 -135 25 -151 104 -231 289
-289 97 -31 119 -42 155 -78 49 -48 73 -116 58 -157 -6 -14 -24 -37 -41 -52
-37 -31 -39 -54 -7 -68 65 -30 171 42 197 133 20 71 15 164 -15 249 -43 124
-33 196 36 254 29 25 38 27 103 23 182 -9 365 -180 419 -393 49 -193 22 -378
-85 -603 -44 -90 -61 -114 -147 -201 -104 -105 -137 -129 -271 -196 -69 -34
-208 -85 -233 -85 -3 0 -8 48 -11 108 -14 253 -115 461 -327 673 -63 63 -94
85 -171 122 -117 56 -182 72 -264 63 -66 -7 -164 -36 -201 -61 -21 -14 -21
-14 -27 83 -5 101 -27 185 -77 302 -16 37 -33 102 -39 150 -13 100 -55 198
-99 230 -20 15 -33 35 -37 59 -4 20 -23 67 -43 104 -28 55 -63 95 -177 205
l-142 135 19 45 c24 55 26 127 4 170 -9 17 -16 33 -16 36 0 3 46 27 103 54 56
28 138 76 182 107 44 32 85 60 92 62 7 3 27 -7 44 -22 112 -94 306 -128 509
-89 114 21 163 47 252 132 95 90 113 131 106 232 -7 96 -44 169 -105 209 -60
40 -96 40 -134 0 l-29 -31 -20 43 c-33 73 -30 76 58 83 97 9 158 26 264 75 56
25 93 49 109 71 28 37 70 79 133 134 118 100 136 278 33 321 -28 12 -34 11
-51 -3 -10 -9 -27 -36 -37 -59 -21 -49 -42 -54 -81 -23 -20 15 -26 31 -31 75
-7 74 -43 133 -99 165 -59 34 -168 33 -285 -2 -46 -14 -83 -23 -83 -21 0 3 14
19 32 36 46 47 103 139 118 192 8 28 10 68 7 105 -12 107 30 165 114 162 40
-1 57 -16 84 -78 24 -54 56 -84 90 -84 68 2 168 71 186 129 8 26 21 42 47 56
71 39 104 162 68 250 -14 32 -13 35 8 49 67 43 132 214 123 322 -9 116 -82
225 -162 240 -47 8 -97 -2 -129 -27 -34 -27 -33 -44 4 -59 17 -7 44 -28 61
-48 27 -31 31 -41 26 -79 -9 -81 -91 -139 -212 -150 -140 -13 -226 48 -295
207 -22 50 -25 75 -31 265 -7 214 -14 260 -61 389 -51 138 -179 288 -311 364
-129 74 -175 87 -312 86 -198 -1 -301 -36 -466 -160 -121 -92 -197 -174 -290
-315 -40 -60 -75 -109 -78 -109 -4 0 -34 9 -66 21 -61 20 -107 61 -98 86 3 7
36 29 74 49 133 70 203 154 197 236 -2 24 -10 45 -19 51 -22 13 -98 -8 -146
-40 -19 -13 -37 -22 -39 -20 -2 2 -8 28 -14 58 -8 41 -7 55 2 58 59 20 80 120
33 166 -13 14 -31 25 -40 25 -30 0 -71 -29 -99 -69 -16 -22 -32 -39 -36 -36
-4 2 -10 23 -13 45 -5 43 -42 106 -66 115 -20 8 -48 -21 -75 -79 -45 -94 -46
-91 37 -91 39 0 89 -4 110 -8 42 -9 117 -70 117 -96 0 -10 -7 -4 -19 14 -30
50 -65 66 -152 72 l-78 6 -7 -29 c-4 -16 -7 -37 -6 -48 0 -10 -2 -16 -5 -12
-3 3 -16 -8 -29 -25 -16 -22 -20 -37 -15 -52 11 -29 28 -32 41 -8 13 25 57 28
85 7 25 -18 25 -84 1 -121 -21 -32 -62 -43 -84 -21 -15 14 -13 16 16 22 26 5
34 13 41 41 12 41 6 60 -20 68 -24 8 -40 -1 -33 -19 3 -8 -3 -16 -15 -19 -25
-6 -45 -71 -30 -99 15 -28 9 -30 -44 -10 -63 24 -82 43 -36 36 44 -7 68 11 75
57 5 31 2 41 -24 70 -26 29 -32 32 -46 20 -9 -7 -17 -23 -17 -35 -1 -15 -3
-13 -8 9 -6 24 -3 35 18 58 42 46 -5 22 -61 -31 -26 -25 -60 -53 -75 -63 -57
-38 -163 -32 -163 8 1 17 1 17 11 1 12 -22 75 -24 122 -4 19 7 64 50 106 100
52 61 83 89 103 93 15 3 28 7 28 8 0 2 -14 32 -32 67 -51 101 -259 295 -346
323 -19 5 -22 12 -17 28 3 12 9 40 12 62 5 38 2 43 -36 78 -52 47 -82 48 -126
4z m-485 -464 c0 -48 -49 -80 -78 -51 -17 17 -15 43 9 90 l22 42 23 -28 c13
-15 24 -39 24 -53z m1183 15 c9 -12 16 -28 16 -37 -1 -13 -2 -13 -6 2 -6 24
-21 21 -25 -5 -2 -19 -10 -24 -40 -26 -47 -4 -49 12 -11 77 23 40 28 43 37 27
6 -10 19 -27 29 -38z m-1400 -7 c13 -5 27 -17 31 -26 7 -20 -3 -67 -14 -60 -9
5 -42 -29 -39 -41 4 -21 -3 -24 -30 -10 -44 23 -50 85 -13 129 17 19 30 21 65
8z m1605 -32 c2 -19 -4 -33 -24 -48 -45 -35 -113 -23 -82 14 58 70 100 83 106
34z m1117 -99 c106 -41 193 -100 280 -192 145 -152 192 -293 202 -603 5 -179
7 -194 35 -265 37 -97 88 -171 136 -198 82 -46 215 -46 306 0 48 24 96 66 96
84 0 7 4 15 10 19 5 3 5 -7 -1 -25 -19 -52 -121 -112 -225 -131 -29 -5 -66
-16 -81 -24 -72 -38 -185 -5 -273 78 -43 41 -50 57 -24 57 22 0 84 -30 84 -41
0 -5 3 -8 8 -7 4 1 18 -4 32 -11 l24 -14 -25 30 c-14 16 -47 73 -74 126 -43
85 -49 106 -56 184 -11 130 -37 346 -54 440 -14 83 -41 149 -70 173 -26 21
-30 2 -5 -25 13 -14 18 -25 12 -25 -7 0 -12 -15 -12 -36 0 -21 -4 -33 -10 -29
-5 3 -10 12 -10 20 0 7 -20 44 -45 82 -52 78 -55 77 -20 -9 32 -80 55 -191 55
-270 0 -35 -9 -130 -20 -213 -29 -222 -28 -252 15 -311 19 -27 52 -78 74 -114
62 -103 80 -115 256 -174 175 -59 219 -91 255 -188 25 -67 20 -113 -16 -171
-24 -37 -44 -42 -44 -11 0 39 -88 135 -172 187 -24 15 -128 43 -193 52 -60 8
-165 48 -197 75 -51 42 -150 175 -187 252 -60 125 -73 254 -61 628 2 62 -1 96
-13 124 -27 61 -88 137 -122 152 -100 42 -181 2 -250 -121 -53 -94 -128 -210
-160 -246 l-33 -37 -88 50 c-48 27 -108 58 -132 68 l-44 20 32 36 c39 45 45
62 54 143 9 76 67 224 104 265 64 69 217 144 337 166 88 16 242 5 310 -20z
m-1981 -114 c-3 -14 -10 -26 -15 -26 -14 0 -11 48 4 53 17 6 19 3 11 -27z
m845 -71 c0 -27 -4 -57 -9 -65 -7 -10 -9 14 -8 75 1 94 15 85 17 -10z m188 39
c-12 -41 -30 -52 -52 -34 -33 27 -8 69 42 70 20 0 20 -2 10 -36z m-767 -14
c-19 -13 -83 -13 -75 -1 3 5 19 9 35 9 17 -1 33 2 37 5 3 4 9 5 12 1 3 -3 -1
-9 -9 -14z m-1070 -29 c0 -14 -5 -18 -20 -14 -11 3 -20 12 -20 19 0 8 9 14 20
14 13 0 20 -7 20 -19z m1718 2 c-2 -10 -10 -18 -18 -18 -8 0 -16 8 -18 18 -2
12 3 17 18 17 15 0 20 -5 18 -17z m102 -68 c-7 -9 -22 -21 -32 -26 -17 -9 -18
-8 -6 10 6 11 15 18 19 15 4 -2 10 3 13 12 4 9 9 14 13 11 3 -4 0 -14 -7 -22z
m-70 6 c-24 -4 -31 -9 -22 -15 10 -6 6 -13 -17 -27 -18 -11 -36 -30 -41 -43
-5 -13 -13 -27 -19 -31 -14 -8 -4 49 16 93 15 30 18 32 67 31 46 -1 47 -2 16
-8z m-1936 -214 c43 -72 49 -97 25 -97 -5 0 -9 5 -9 11 0 5 -20 51 -45 101
-51 105 -39 98 29 -15z m1291 88 c128 -17 285 -45 402 -71 48 -11 80 -25 94
-40 33 -35 16 -40 -54 -16 -34 12 -96 28 -137 37 -41 8 -100 22 -130 30 -65
18 -133 20 -110 4 17 -11 -126 -4 -240 12 -127 18 -156 20 -135 10 11 -5 34
-10 51 -10 17 -1 55 -13 85 -28 41 -22 60 -39 78 -73 l25 -45 -42 38 c-23 20
-51 37 -61 37 -11 0 -25 2 -33 5 -13 5 -38 -55 -38 -92 0 -10 -9 -31 -19 -47
-11 -16 -17 -34 -15 -41 3 -7 -11 -26 -31 -44 -42 -37 -85 -41 -130 -11 -16
11 -33 20 -38 20 -12 0 22 -62 51 -92 l26 -28 -25 0 c-44 0 -94 73 -105 154
-13 95 30 186 108 225 36 18 38 21 13 16 -16 -4 -79 -13 -140 -21 -170 -22
-355 -54 -411 -70 -83 -24 -115 5 -49 46 40 25 268 73 425 89 58 6 119 13 135
15 87 9 344 4 450 -9z m1457 -77 c-11 -13 -45 -75 -74 -138 -92 -196 -128
-254 -148 -234 -7 7 2 30 35 78 25 38 66 109 91 160 39 77 96 156 113 156 2 0
-5 -10 -17 -22z m-3614 -35 c-21 -40 -21 -51 -2 -360 7 -115 -10 -241 -53
-378 -37 -116 -78 -191 -142 -258 -83 -87 -106 -92 -28 -6 96 105 145 217 187
422 23 117 27 213 16 412 -7 132 -6 142 13 173 28 44 33 41 9 -5z m1452 -33
c27 0 29 -2 34 -57 15 -139 53 -225 129 -289 51 -43 153 -86 230 -97 62 -9 83
-7 151 11 43 11 85 18 93 15 26 -10 -7 -32 -79 -54 -58 -18 -87 -21 -171 -16
-56 2 -121 12 -145 21 -24 8 -40 11 -37 6 3 -5 1 -11 -4 -14 -13 -9 -122 65
-160 109 -74 85 -114 237 -90 340 7 28 14 44 16 38 3 -7 17 -13 33 -13z m-336
-24 c34 -23 35 -24 13 -35 -20 -10 -20 -11 8 -6 76 14 164 24 201 25 l42 0 1
-67 c1 -107 36 -203 100 -278 15 -16 62 -64 106 -105 70 -65 94 -80 177 -114
54 -22 95 -43 92 -48 -3 -4 6 -8 20 -8 34 0 89 -69 84 -107 -2 -20 -9 -28 -23
-28 -15 0 -21 8 -23 33 -5 46 -22 29 -22 -22 0 -40 2 -43 41 -60 71 -32 104
-8 79 58 -8 22 -7 26 8 26 32 0 62 -38 62 -77 0 -28 -9 -45 -40 -79 -38 -42
-50 -79 -32 -99 5 -6 19 -26 30 -46 l22 -36 -21 -27 c-22 -28 -58 -34 -103
-16 -36 13 -41 -3 -16 -49 26 -45 18 -71 -30 -96 -27 -14 -30 -13 -59 11 -36
30 -38 45 -11 82 25 34 18 67 -10 52 -10 -6 -34 -10 -53 -10 -57 0 -114 60
-72 76 21 9 19 23 -3 17 -22 -5 -60 25 -64 51 -2 10 5 23 14 29 14 9 24 7 48
-11 17 -13 35 -20 40 -17 19 12 10 38 -30 85 -22 26 -40 55 -40 64 0 9 -4 16
-10 16 -5 0 -8 6 -6 13 1 6 1 9 -1 5 -3 -4 -4 -10 -3 -13 0 -3 -9 -15 -22 -25
l-23 -19 26 -1 c17 0 33 -9 44 -26 19 -30 14 -54 -14 -54 -42 0 -51 -10 -51
-61 0 -56 -16 -65 -47 -25 -17 21 -20 21 -33 8 -13 -14 -12 -15 3 -9 11 4 16
3 12 -3 -3 -6 -19 -10 -36 -10 -16 0 -29 -4 -29 -9 0 -6 -29 -40 -64 -76 l-63
-67 -67 -1 -67 -2 -20 55 c-11 30 -27 75 -35 100 -8 25 -21 56 -28 69 -12 22
-11 28 5 51 26 35 28 139 4 177 -38 57 -110 115 -198 158 -258 127 -538 92
-723 -90 -86 -84 -114 -177 -80 -258 17 -41 92 -107 121 -107 12 0 25 -3 28
-7 9 -9 -23 -44 -35 -37 -4 3 -7 2 -6 -3 3 -8 -90 -133 -99 -133 -2 0 -1 5 2
10 3 6 1 10 -5 10 -7 0 -10 7 -7 15 4 8 2 17 -4 20 -5 4 -9 3 -8 -2 3 -18 -3
-47 -8 -35 -8 19 -31 14 -38 -9 -4 -12 -12 -18 -21 -15 -9 3 -14 -1 -14 -14 0
-11 4 -20 10 -20 5 0 7 -6 4 -14 -3 -7 2 -16 10 -19 9 -4 16 -1 16 6 0 7 9 13
21 13 18 0 18 -2 5 -12 -9 -6 -13 -13 -10 -16 8 -8 -66 2 -94 13 -22 9 -23 11
-17 101 7 102 37 299 60 393 23 92 66 170 158 285 134 169 235 246 471 361
141 68 380 169 403 169 7 0 28 -11 47 -24z m1056 -27 c15 -55 15 -138 1 -182
-21 -62 -34 -40 -32 51 2 64 -2 91 -18 128 -12 26 -21 47 -21 49 0 1 13 0 30
-3 25 -4 32 -11 40 -43z m108 36 c3 -3 7 -40 10 -82 6 -119 -38 -226 -118
-283 l-29 -21 13 43 c8 24 24 66 37 93 20 42 23 67 24 158 l0 108 29 -5 c16
-4 32 -8 34 -11z m510 -19 c31 -13 73 -27 91 -31 104 -22 343 -150 498 -266
67 -50 111 -94 164 -161 140 -182 186 -319 223 -674 13 -118 12 -130 -3 -142
-14 -11 -17 -9 -23 20 -5 18 -5 76 -2 128 6 106 -7 190 -56 349 -61 195 -189
367 -344 461 -33 20 -43 22 -67 13 -27 -10 -29 -9 -29 12 0 12 -7 28 -15 35
-12 10 -20 7 -42 -17 -21 -22 -50 -35 -113 -52 -75 -21 -90 -22 -138 -11 -60
13 -164 86 -197 138 -19 30 -23 31 -88 32 -38 0 -80 6 -95 14 -39 21 -79 67
-88 100 l-7 29 62 -6 c66 -7 105 -23 134 -55 21 -23 84 -37 117 -27 29 9 26
55 -4 84 -21 19 -32 22 -63 17 l-38 -6 24 20 c29 25 30 25 99 -4z m-1260 -96
c2 27 5 31 12 20 8 -12 10 -10 10 10 0 32 10 45 38 52 21 6 22 4 22 -66 0
-117 40 -182 154 -249 87 -51 23 -61 -75 -11 -48 24 -129 106 -155 156 -21 41
-37 136 -28 167 7 21 10 12 14 -44 4 -38 7 -54 8 -35z m1242 30 c0 -22 -28
-27 -61 -10 -31 17 -22 30 21 30 33 0 40 -3 40 -20z m-65 -141 l30 -13 -47 -9
c-54 -12 -64 -35 -26 -61 31 -22 55 -22 38 -1 -18 22 0 37 36 33 39 -4 54 -46
30 -82 -13 -20 -25 -26 -54 -26 -88 0 -223 124 -170 156 39 25 109 26 163 3z
m-3744 -159 c10 -6 19 -18 19 -27 0 -12 -3 -13 -14 -4 -30 25 -173 -26 -161
-57 3 -8 0 -10 -7 -6 -8 5 -9 2 -5 -9 4 -10 2 -16 -5 -14 -15 3 -36 -61 -37
-113 -1 -64 15 -123 54 -204 l34 -71 -44 48 c-56 61 -86 149 -87 257 -2 101
27 152 107 194 34 18 117 21 146 6z m6021 -57 c98 -95 88 -313 -19 -430 -24
-26 -27 -28 -10 -6 69 89 100 215 73 304 -21 73 -45 109 -94 143 -35 24 -44
26 -57 16 -9 -7 -18 -10 -22 -7 -3 4 -13 2 -22 -3 -10 -5 -23 -5 -32 1 -7 5
-12 9 -9 9 3 0 22 6 44 14 54 19 100 6 148 -41z m-6103 -80 c-15 -56 -20 -63
-13 -18 6 39 11 55 19 55 2 0 -1 -17 -6 -37z m3024 20 c-13 -2 -33 -2 -45 0
-13 2 -3 4 22 4 25 0 35 -2 23 -4z m-1114 -48 c104 -32 204 -87 264 -147 32
-32 56 -62 52 -68 -3 -5 -1 -10 4 -10 6 0 11 -19 11 -42 0 -42 -21 -78 -47
-78 -7 0 -58 22 -112 49 -108 55 -181 72 -305 73 -104 0 -144 -11 -290 -84
-134 -67 -132 -65 -123 -74 8 -8 47 7 159 62 91 45 177 74 212 74 12 -1 -20
-16 -69 -34 -50 -18 -122 -51 -160 -73 -143 -83 -188 -91 -230 -41 -24 28 -27
38 -23 89 8 104 86 194 234 269 34 17 85 38 115 45 69 18 235 12 308 -10z
m2511 -14 c77 -27 185 -94 208 -130 9 -14 38 -50 64 -80 79 -90 97 -188 35
-193 -48 -3 -73 5 -190 61 -183 88 -212 96 -352 96 -113 0 -127 -2 -233 -38
-61 -21 -118 -36 -125 -34 -7 3 -4 6 6 6 10 1 55 16 100 35 138 57 287 68 423
32 27 -7 112 -43 190 -80 77 -36 148 -66 156 -66 22 0 34 40 17 52 -11 7 -11
11 -1 15 6 2 12 10 12 17 0 11 -27 24 -135 65 -10 3 -3 -3 55 -49 l25 -19 -23
-1 c-12 0 -30 4 -40 10 -57 31 -244 111 -282 119 -63 15 -183 13 -260 -3 -36
-8 -120 -41 -189 -75 -68 -34 -127 -61 -132 -61 -5 0 -16 11 -25 25 -51 79 84
220 273 287 91 32 130 37 248 34 83 -2 126 -8 175 -25z m596 -232 c27 -45 79
-116 116 -159 61 -71 74 -81 152 -113 47 -20 127 -43 178 -52 86 -15 181 -43
150 -44 -7 -1 -66 8 -130 19 -96 17 -134 29 -212 68 -89 44 -99 53 -167 137
-77 96 -157 238 -167 295 -4 26 -1 21 13 -17 10 -29 40 -89 67 -134z m-3065
-70 c20 -5 42 -16 49 -24 16 -19 19 -20 -80 15 -81 29 -64 34 31 9z m1324 -31
c55 -43 63 -122 15 -148 -28 -15 -29 -14 -32 38 -3 42 -6 49 -36 64 -46 23
-48 25 -27 48 23 26 46 25 80 -2z m2715 -37 c67 -48 85 -158 36 -231 -14 -22
-33 -40 -41 -40 -12 0 -11 7 2 46 10 30 14 68 11 111 -4 60 -7 68 -41 99 -20
19 -37 37 -37 40 0 9 43 -7 70 -25z m-4115 -42 c5 -5 18 -9 28 -9 41 0 179
-84 227 -138 54 -60 107 -162 119 -228 10 -52 6 -56 -12 -11 -24 55 -103 150
-154 184 -221 147 -472 113 -719 -98 -38 -33 -97 -73 -131 -91 -53 -26 -69
-30 -105 -24 -52 9 -123 53 -161 101 -49 62 -75 149 -30 99 28 -30 134 -110
178 -133 22 -12 56 -21 76 -21 35 0 38 4 106 108 75 113 110 152 164 182 98
54 169 81 228 89 72 10 170 4 186 -10z m1365 -3 c0 -29 -43 -60 -70 -51 -25 8
-27 50 -2 64 9 6 29 11 45 11 22 0 27 -4 27 -24z m1153 -35 c65 -23 100 -44
90 -55 -4 -4 0 -4 9 -1 22 8 153 -121 217 -212 24 -34 52 -65 62 -68 53 -17
223 74 297 160 43 48 39 24 -6 -50 -26 -42 -56 -73 -101 -104 -118 -82 -200
-67 -350 63 -86 74 -218 147 -311 171 -86 22 -214 16 -292 -14 -116 -45 -184
-108 -259 -241 -33 -61 -33 -38 2 54 80 216 261 333 494 322 54 -3 113 -13
148 -25z m1547 -91 c11 -41 -3 -147 -25 -191 -16 -30 -65 -69 -87 -69 -7 0 1
11 18 25 59 46 89 173 60 254 -9 24 -16 49 -16 55 1 20 40 -38 50 -74z m-5359
-91 c14 -14 18 -24 11 -31 -7 -7 -4 -27 10 -62 33 -83 37 -112 22 -168 -7 -29
-10 -64 -7 -78 10 -39 74 -151 83 -145 5 3 29 -10 54 -29 54 -41 117 -62 208
-72 50 -4 65 -10 61 -20 -8 -20 -88 -28 -151 -14 -47 10 -63 21 -113 72 -58
59 -75 67 -42 18 12 -19 7 -16 -20 9 -43 41 -102 150 -111 206 -4 23 -3 60 3
84 20 93 -49 221 -121 221 -58 0 -24 12 85 29 4 0 16 -8 28 -20z m1219 -18
c-95 -25 -136 -48 -211 -118 -115 -109 -166 -243 -156 -410 10 -166 108 -301
244 -338 46 -12 47 -13 20 -20 -47 -12 -139 -1 -192 25 -131 63 -194 171 -203
345 -8 165 29 265 134 371 97 96 250 163 374 163 l55 -1 -65 -17z m2450 -1
c143 -32 320 -154 374 -257 8 -17 25 -68 37 -114 46 -180 9 -332 -107 -438
-68 -62 -150 -91 -258 -90 l-71 0 56 18 c188 60 300 264 260 473 -17 86 -80
216 -131 272 -48 51 -132 110 -187 131 -45 16 -35 18 27 5z m1302 -15 c-85
-26 -106 -64 -107 -195 0 -84 -3 -101 -28 -150 -37 -72 -88 -133 -140 -168
-49 -34 -157 -76 -157 -62 0 6 9 10 21 10 11 0 23 8 26 18 2 9 31 30 64 46
154 75 231 213 196 351 -12 45 -12 53 6 83 21 36 98 81 137 81 18 0 13 -4 -18
-14z m-3414 -99 c64 -68 96 -134 123 -257 18 -83 19 -102 8 -159 -7 -36 -18
-74 -26 -86 -19 -30 -179 -156 -243 -192 -72 -41 -171 -66 -230 -59 -116 14
-229 99 -280 210 -29 65 -45 127 -32 127 4 0 16 -15 26 -32 11 -18 25 -40 33
-48 7 -8 31 -38 53 -67 29 -38 56 -60 107 -85 61 -30 76 -33 158 -33 78 0 97
4 146 28 66 32 132 100 160 162 13 30 24 42 37 40 13 -2 16 -11 15 -36 l-3
-34 20 23 c41 49 50 138 25 256 -21 100 -63 182 -131 255 -32 35 -50 59 -39
53 11 -5 44 -35 73 -66z m1761 11 c-66 -65 -103 -132 -129 -233 -36 -140 -21
-261 40 -319 17 -16 30 -23 30 -16 0 8 24 -7 53 -31 182 -156 395 -141 526 35
19 26 38 44 44 40 5 -3 14 1 19 8 14 21 -1 -29 -23 -78 -23 -49 -89 -112 -151
-145 -37 -19 -58 -23 -143 -23 -106 0 -149 13 -235 72 l-35 24 35 -31 c19 -17
64 -47 100 -66 69 -38 169 -113 170 -128 0 -4 -10 -5 -22 -1 -34 10 -198 7
-236 -4 -45 -13 -115 -70 -108 -88 3 -8 2 -11 -3 -8 -14 8 -24 -34 -12 -49 15
-18 3 -49 -16 -42 -8 3 -11 1 -8 -4 3 -6 -3 -10 -14 -10 -12 0 -21 -4 -21 -10
0 -5 -9 -10 -20 -10 -11 0 -20 -4 -20 -10 0 -5 -3 -9 -7 -9 -5 1 -17 1 -28 0
-17 -1 -18 -3 -5 -12 12 -8 9 -10 -12 -6 -16 2 -28 1 -28 -2 0 -9 -70 -37
-112 -45 -21 -4 -38 -12 -38 -18 0 -5 -7 -7 -16 -4 -8 3 -13 2 -10 -3 8 -12
-85 -41 -133 -41 -32 0 -56 11 -119 54 -44 30 -83 52 -86 48 -4 -3 -11 0 -17
8 -7 11 -11 12 -17 3 -5 -8 -13 -9 -22 -3 -21 14 -27 12 -27 -6 0 -18 51 -56
62 -46 5 4 5 2 2 -4 -4 -6 31 -30 86 -58 139 -70 268 -89 387 -55 82 24 142
53 160 79 11 15 57 46 102 70 46 23 106 64 135 90 47 43 98 69 110 56 13 -13
-12 -59 -53 -98 -103 -96 -220 -166 -351 -209 -129 -42 -218 -47 -345 -21
-123 25 -211 69 -293 144 l-65 60 -56 -50 c-75 -67 -150 -105 -259 -132 -121
-30 -292 -25 -405 13 -141 47 -225 92 -294 156 -36 34 -71 61 -78 61 -117 5
-151 19 -179 77 -17 35 -20 53 -14 91 10 68 55 106 188 162 75 31 134 64 190
108 45 34 123 94 173 132 227 174 600 280 851 241 134 -21 339 -78 425 -119
92 -43 217 -120 262 -161 29 -26 29 -26 -3 15 -62 80 -76 183 -42 317 24 90
40 124 94 195 34 44 99 102 115 102 3 0 -20 -24 -49 -53z m-2055 -18 c71 -56
74 -152 8 -222 -54 -56 -145 -53 -187 8 -14 21 -27 29 -42 27 -31 -5 -59 39
-43 67 10 20 27 26 58 22 6 -1 12 9 12 22 0 29 34 75 64 87 40 16 102 11 130
-11z m2282 2 c17 -10 39 -36 49 -57 16 -33 16 -44 6 -84 -20 -73 -67 -110
-140 -110 -35 0 -48 7 -85 43 -63 63 -72 84 -48 110 10 12 27 36 38 54 34 60
120 81 180 44z m-3250 -86 c11 -76 15 -145 9 -145 -18 0 -94 72 -109 104 -22
47 -21 54 17 59 59 8 80 3 83 -18z m-106 -146 c0 -6 -8 -5 -19 1 -23 12 -46
73 -36 97 4 13 13 3 30 -36 14 -29 25 -57 25 -62z m416 28 c12 -30 29 -66 38
-78 22 -32 21 -63 -1 -54 -15 5 -16 4 -5 -6 15 -16 16 -46 0 -51 -9 -3 -8 -17
5 -56 9 -29 14 -60 11 -70 -4 -11 -3 -13 3 -5 6 9 12 7 21 -7 7 -12 8 -21 2
-25 -6 -3 -10 -1 -10 4 0 14 -27 14 -35 0 -4 -5 0 -18 9 -28 9 -10 16 -20 16
-24 0 -9 58 -64 75 -70 8 -4 15 -11 15 -18 0 -6 7 -8 16 -5 11 4 37 -11 78
-47 73 -64 149 -111 205 -128 37 -11 43 -10 57 7 14 18 15 18 5 -3 -6 -12 -11
-48 -11 -81 0 -49 5 -66 32 -106 17 -26 37 -50 44 -53 8 -3 12 -9 9 -13 -3 -5
7 -20 22 -34 15 -14 23 -26 17 -26 -6 0 -11 -7 -11 -15 0 -8 4 -15 9 -15 14 0
-13 -43 -49 -77 -19 -18 -46 -36 -61 -39 -15 -3 -39 -10 -54 -16 -40 -15 -189
-1 -273 24 -71 22 -155 64 -155 77 0 4 -10 18 -22 31 -13 14 -22 28 -21 32 2
5 -3 8 -10 8 -7 0 -18 9 -25 21 -8 12 -9 18 -3 14 6 -3 11 0 11 8 0 11 -9 12
-48 4 -38 -8 -58 -7 -95 6 -26 9 -49 12 -52 7 -14 -22 53 -189 105 -266 58
-84 240 -262 326 -320 176 -117 422 -208 739 -274 239 -49 287 -61 338 -87 27
-13 47 -26 45 -28 -4 -4 -109 15 -233 42 -38 8 -99 20 -135 27 -36 7 -75 18
-86 24 -12 6 -51 16 -88 22 -170 27 -551 184 -680 280 -116 85 -262 260 -318
378 -48 101 -68 190 -68 305 0 134 23 223 96 378 l65 137 9 128 c5 71 12 154
16 185 l6 56 41 -12 c38 -11 44 -17 63 -68z m3727 -113 l6 -176 65 -137 c74
-155 93 -224 102 -366 11 -181 -33 -310 -169 -491 -148 -197 -303 -314 -553
-413 -124 -49 -209 -71 -249 -65 -23 3 -25 2 -11 -4 30 -13 -89 -33 -134 -23
-35 8 -35 8 20 15 92 13 406 123 533 188 73 37 197 118 197 129 0 5 -7 6 -15
3 -8 -4 -22 -1 -29 6 -18 14 -6 30 68 92 46 39 49 40 62 23 13 -18 14 -18 35
1 33 30 124 172 163 254 47 100 58 177 45 304 -18 173 -55 283 -135 399 -19
27 -35 61 -35 76 -1 14 -3 93 -4 176 -3 138 3 185 24 185 4 0 11 -79 14 -176z
m-2252 46 c41 0 16 -18 -48 -35 -38 -10 -95 -28 -127 -41 -69 -28 -83 -30 -66
-9 7 8 9 15 5 15 -4 0 4 9 18 20 28 22 163 62 185 54 8 -2 22 -4 33 -4z
m-2141 -124 c36 -8 114 -37 175 -65 60 -29 134 -59 165 -67 30 -9 60 -21 65
-26 17 -17 -75 2 -130 27 -116 53 -133 57 -166 39 -42 -21 -85 -21 -109 1 -18
17 -20 17 -14 2 3 -9 9 -17 13 -17 11 0 39 -54 34 -67 -3 -8 5 -13 22 -13 35
0 85 -27 85 -45 0 -11 -12 -15 -49 -15 -33 0 -51 -5 -54 -14 -8 -22 2 -26 59
-26 98 0 124 -29 126 -138 1 -43 -4 -65 -15 -76 -27 -27 -44 -19 -52 26 -5 23
-24 40 -37 32 -12 -8 -10 -48 3 -61 27 -27 -40 -51 -107 -38 -39 7 -84 44 -84
69 0 13 46 46 64 46 3 0 6 -15 8 -32 2 -25 8 -34 26 -36 26 -4 29 15 7 57 -18
36 -57 45 -86 20 -11 -10 -28 -15 -36 -12 -10 4 -14 2 -10 -4 10 -17 -9 -61
-39 -88 -34 -32 -74 -32 -112 0 -17 14 -33 22 -36 17 -3 -5 4 -15 16 -23 11
-8 27 -20 35 -28 9 -9 39 -13 98 -12 47 1 86 -3 90 -9 4 -6 -19 -10 -62 -11
-37 0 -90 -4 -118 -7 l-50 -7 35 -21 c60 -37 200 -74 279 -74 41 0 71 -4 71
-10 0 -18 -133 -11 -221 11 -106 27 -123 36 -182 98 -27 28 -72 66 -101 85
-116 77 -184 183 -173 268 9 70 78 105 98 50 6 -15 5 -21 -2 -17 -18 12 -57
-4 -64 -25 -8 -27 24 -79 53 -87 35 -8 38 4 9 35 -15 16 -27 31 -27 35 0 13
25 7 50 -13 68 -53 142 0 153 110 11 104 43 140 139 159 63 13 86 12 158 -3z
m5170 -30 c49 -32 70 -76 69 -143 -1 -55 -5 -49 -14 20 -4 33 -16 59 -37 83
-40 46 -61 56 -133 65 l-60 8 66 -3 c54 -1 75 -7 109 -30z m-3384 -21 c-11 -8
-24 -15 -30 -15 -5 0 -1 7 10 15 10 8 24 14 29 14 6 0 1 -6 -9 -14z m-526 -36
c19 -5 80 -6 136 -3 82 5 103 3 113 -9 26 -32 -41 -106 -122 -136 -86 -33
-201 10 -242 89 -17 33 -3 60 31 60 17 0 23 4 18 12 -5 8 -2 9 12 4 10 -5 35
-12 54 -17z m2253 6 c46 -19 137 -19 183 0 40 17 57 12 78 -20 22 -33 21 -39
-15 -80 -43 -49 -81 -67 -144 -67 -75 -1 -118 17 -164 67 -45 49 -48 60 -25
93 18 26 38 28 87 7z m1648 -45 c10 -6 25 -24 34 -39 12 -25 12 -31 1 -41 -11
-9 -16 -7 -21 9 -15 48 -81 51 -111 6 -20 -31 -9 -48 28 -43 55 8 123 -89 86
-120 -10 -8 -13 -4 -14 14 -3 48 -54 81 -54 35 0 -10 -9 -26 -20 -36 -28 -25
-25 -36 15 -75 19 -18 32 -37 29 -42 -3 -4 3 -7 13 -6 34 3 63 -2 63 -11 0
-10 -46 -61 -55 -61 -18 0 -85 57 -85 73 0 12 -11 20 -32 24 -30 6 -30 7 -9
15 35 13 15 28 -38 28 -55 0 -77 -18 -87 -68 -5 -24 -3 -33 10 -38 22 -9 46
13 46 42 0 30 35 33 50 4 16 -29 -2 -55 -51 -74 -69 -28 -158 -1 -120 37 13
13 15 44 2 51 -15 10 -40 -4 -46 -26 -5 -13 -14 -18 -28 -16 -20 3 -22 9 -22
77 0 68 2 75 26 93 14 11 49 22 80 25 51 5 56 4 90 -30 41 -40 73 -41 110 -1
18 19 20 27 11 36 -10 10 -17 10 -32 0 -29 -18 -53 -15 -68 8 -6 11 -30 29
-52 40 -45 23 -45 40 1 40 19 0 39 -9 55 -25 29 -29 34 -31 34 -10 0 32 40 93
67 103 37 14 70 14 94 2z m-903 -157 c3 -55 5 -62 28 -70 23 -8 23 -9 9 -31
-21 -28 -36 -28 -65 3 -43 45 -37 172 8 163 13 -3 18 -17 20 -65z m-57 -155
c38 -32 50 -37 70 -30 13 5 23 13 21 18 -1 4 5 9 13 10 13 2 14 -1 4 -12 -9
-11 -9 -17 1 -29 10 -12 10 -15 -3 -15 -9 0 -22 -9 -29 -19 -23 -32 -50 -30
-61 4 -13 39 -16 42 -27 25 -37 -58 47 -147 90 -95 7 8 16 12 21 9 15 -9 10
-40 -10 -58 -11 -10 -23 -31 -26 -47 -4 -16 -11 -29 -16 -29 -5 0 -26 23 -46
50 -34 45 -39 49 -50 34 -10 -14 -9 -22 7 -44 52 -73 -4 -145 -85 -108 -37 17
-32 44 10 52 26 5 36 13 41 32 8 32 1 39 -24 25 -48 -25 -113 0 -131 50 -22
63 -9 139 24 139 11 0 13 -8 9 -29 -6 -28 17 -88 40 -103 17 -12 58 -9 85 6
l23 13 -35 21 c-42 24 -72 66 -63 87 5 13 9 12 26 -5 45 -45 79 -9 48 52 -23
44 -21 124 3 139 11 7 15 -4 19 -48 5 -52 8 -59 51 -95z m-476 -14 c59 -45 64
-105 14 -175 -25 -35 -118 -83 -143 -73 -23 9 -20 24 7 24 44 1 141 79 152
123 7 25 0 34 -56 88 -50 47 -58 57 -36 49 16 -5 43 -22 62 -36z m713 -89
c-11 -11 -37 7 -31 22 5 13 8 13 21 -1 9 -9 13 -18 10 -21z m45 -16 c16 -22
12 -60 -6 -56 -6 1 -16 -8 -21 -20 -6 -13 -17 -25 -24 -28 -7 -2 -11 -1 -7 4
3 5 -1 11 -7 14 -8 2 -1 10 15 17 31 15 45 53 27 75 -8 10 -9 15 -2 15 6 0 17
-9 25 -21z m382 -47 c-5 -6 -74 18 -80 27 -2 5 15 1 40 -8 24 -8 42 -17 40
-19z m-4695 20 c0 -24 -40 -43 -81 -40 -58 4 -59 22 -2 35 64 14 83 15 83 5z
m4900 -88 c-47 -20 -61 -16 -20 5 19 11 39 17 44 14 5 -3 -6 -12 -24 -19z
m-4734 -26 c7 -5 15 -30 19 -56 4 -26 23 -86 42 -135 22 -56 32 -95 28 -108
-7 -20 -10 -19 -45 20 -21 22 -39 41 -41 41 -2 0 -5 -16 -6 -36 -2 -46 -6 -49
-35 -31 -12 8 -35 17 -50 21 -24 5 -28 3 -28 -14 0 -13 7 -20 19 -20 33 0 51
-11 67 -41 l14 -29 30 19 c29 17 75 18 85 1 2 -4 -6 -17 -20 -30 -20 -19 -28
-21 -57 -12 -18 6 -62 14 -97 18 -56 5 -63 4 -50 -8 38 -38 220 -51 260 -19
20 16 28 17 42 6 9 -7 17 -19 17 -28 0 -18 -46 -53 -90 -68 -17 -7 -30 -18
-30 -28 0 -9 -14 -39 -30 -65 -23 -36 -36 -47 -52 -44 -33 5 -32 21 7 61 60
62 42 127 -23 81 -24 -16 -78 -16 -76 1 1 6 11 15 24 21 28 15 14 23 -28 17
-42 -7 -56 -36 -35 -76 18 -37 3 -57 -43 -57 -35 0 -53 14 -29 24 10 3 15 19
15 45 0 34 -3 38 -20 34 -22 -6 -26 -18 -10 -28 6 -3 10 -15 10 -26 0 -14 -5
-19 -17 -17 -10 2 -17 10 -15 16 1 7 -5 12 -13 12 -25 0 -17 -17 25 -50 38
-30 44 -32 97 -25 l57 7 -16 -24 c-19 -29 -90 -36 -154 -14 -25 8 -42 11 -39
6 3 -5 28 -16 57 -26 103 -34 374 8 496 78 32 18 59 27 70 23 15 -5 14 -9 -8
-25 -14 -11 -56 -30 -95 -44 -123 -45 -203 -59 -330 -60 -118 -1 -121 0 -195
35 -85 41 -191 136 -215 193 -29 68 -13 177 33 230 21 23 85 56 109 56 12 0 7
-7 -17 -22 -19 -13 -37 -26 -38 -30 -2 -5 -10 -15 -17 -22 -12 -12 -11 -16 4
-30 17 -16 19 -15 36 11 10 15 31 41 47 56 24 22 33 25 44 16 18 -15 18 -33
-1 -49 -8 -7 -15 -17 -15 -23 0 -26 43 34 94 134 33 62 68 117 83 126 44 29
120 34 149 11z m4529 -12 c-62 -13 -79 -11 -70 5 4 5 34 9 68 8 l62 -1 -60
-12z m-409 -25 c-4 -6 -12 -11 -18 -11 -7 0 -7 4 1 13 6 8 9 16 7 19 -1 3 1 2
7 -2 5 -5 6 -13 3 -19z m681 -326 c8 -96 -14 -141 -103 -218 -81 -70 -137 -97
-227 -108 -37 -5 -71 -10 -75 -13 -4 -2 -12 2 -18 8 -9 10 -3 13 26 14 21 1
70 18 111 39 48 24 74 33 77 25 9 -27 39 -8 109 65 52 55 75 86 79 112 7 34
-6 164 -20 206 -4 11 2 3 14 -19 14 -25 24 -64 27 -111z m-3390 83 c23 -16 55
-45 70 -66 45 -62 76 -92 87 -85 6 4 5 -1 -3 -10 -12 -15 -12 -17 0 -12 9 3
24 -11 39 -36 84 -138 322 -249 534 -249 99 0 242 36 339 84 60 30 68 32 76
18 8 -15 14 -13 48 16 63 54 155 122 164 122 5 0 9 -8 10 -17 0 -10 10 11 21
46 19 61 20 62 34 42 14 -19 12 -29 -27 -118 -72 -170 -138 -247 -271 -314
-136 -69 -350 -107 -499 -88 -90 11 -217 50 -314 95 -128 61 -237 215 -334
474 -21 58 -42 113 -46 123 -9 22 14 15 72 -25z m3212 -36 c35 -55 39 -87 14
-114 -33 -37 -83 -18 -114 45 -12 23 -33 54 -47 70 -18 19 -21 27 -11 27 18 0
59 -36 59 -51 0 -6 5 -7 12 -3 7 4 8 3 4 -4 -4 -7 -3 -18 1 -27 7 -12 13 -12
33 -2 26 13 30 37 15 85 -12 35 0 26 34 -26z m-244 -32 c-43 -26 -93 -44 -56
-21 7 5 9 11 5 13 -5 3 -3 3 4 2 6 -2 12 0 12 5 0 11 40 30 65 30 13 0 2 -10
-30 -29z m-2715 -54 c0 -16 38 -66 51 -66 5 0 8 3 8 8 -4 25 3 31 29 26 16 -3
54 3 91 16 70 23 85 22 200 -17 63 -21 91 -24 175 -23 138 3 146 2 146 -15 0
-8 -9 -24 -19 -34 -11 -11 -17 -22 -14 -25 4 -3 0 -6 -7 -6 -25 0 -90 -34 -90
-47 0 -7 -5 -13 -12 -13 -6 0 -3 -6 8 -14 21 -16 13 -31 -21 -39 -14 -3 -11
-5 10 -6 49 -2 145 27 211 64 56 32 86 60 153 144 32 40 37 33 13 -21 -90
-203 -504 -278 -797 -144 -99 45 -174 140 -159 200 6 27 24 36 24 12z m2705
-86 c-3 -5 -1 -10 5 -10 6 0 8 -4 5 -10 -3 -5 -14 -10 -23 -10 -15 0 -15 2 -2
10 8 5 11 10 7 10 -9 0 1 20 9 20 3 0 2 -4 -1 -10z m295 -10 c-18 -12 -47 -13
-54 -2 -2 4 12 9 32 10 28 2 33 0 22 -8z m-101 -40 c-10 -21 -19 -44 -19 -49
0 -14 -90 -81 -109 -81 -25 0 -39 13 -46 40 -5 22 -1 28 30 43 20 9 44 17 54
17 20 0 74 39 56 40 -10 1 34 29 47 30 3 0 -2 -18 -13 -40z m-518 -89 c20 -13
25 -21 18 -31 -6 -10 -9 -11 -9 -2 0 6 -5 12 -12 12 -20 0 -108 62 -102 72 3
5 12 7 20 4 8 -3 14 0 14 6 0 6 10 -2 22 -17 12 -15 34 -35 49 -44z m203 -57
c33 -6 30 -14 -5 -13 -19 0 -52 7 -74 14 l-40 14 50 -6 c28 -3 58 -7 69 -9z
m126 -20 c0 -2 -12 -4 -26 -4 -14 0 -23 4 -20 9 6 8 46 4 46 -5z m-3515 -204
c-6 -51 -4 -63 15 -90 22 -31 110 -103 117 -96 4 3 -8 37 -30 83 -6 13 -8 25
-6 27 2 3 56 -27 119 -65 111 -68 240 -129 345 -163 65 -20 286 -73 348 -81
52 -8 58 -21 24 -53 -22 -21 -27 -22 -149 -12 -192 14 -408 71 -527 137 -48
27 -83 25 -60 -3 8 -9 36 -32 64 -50 60 -41 52 -45 -13 -7 -100 57 -246 179
-235 196 3 5 1 7 -4 4 -14 -9 -55 77 -60 129 -6 47 18 104 43 104 14 0 15 -9
9 -60z m2665 31 c19 -37 12 -104 -15 -133 -14 -15 -25 -30 -25 -33 0 -17 -109
-133 -142 -152 -22 -13 -51 -31 -66 -41 -32 -23 -95 -45 -87 -32 4 6 11 10 16
10 17 0 108 63 103 71 -2 5 19 26 48 47 69 51 136 124 144 157 3 14 3 48 0 76
-7 51 4 66 24 30z m-130 -38 c0 -4 -32 -38 -72 -75 -47 -44 -101 -83 -159
-113 -94 -48 -219 -99 -226 -91 -2 2 21 13 51 25 130 49 255 124 347 210 58
54 59 55 59 44z m-485 -39 c-33 -7 -69 -13 -80 -12 -30 1 75 26 110 26 19 0 7
-5 -30 -14z m-191 -10 c4 -10 1 -14 -6 -12 -15 5 -23 28 -10 28 5 0 13 -7 16
-16z m-1389 -104 c66 -17 165 -35 220 -41 155 -15 348 -39 351 -42 2 -2 -15
-22 -39 -45 l-42 -41 -106 14 c-240 31 -393 79 -548 169 -107 63 -118 81 -29
46 40 -16 127 -42 193 -60z m-435 -100 c0 -5 -6 -10 -14 -10 -17 0 -39 -26
-43 -50 -3 -19 23 -53 35 -46 4 2 21 -14 37 -36 25 -32 35 -39 57 -36 16 3 28
0 28 -5 0 -5 7 -6 16 -3 8 3 13 2 10 -3 -3 -5 5 -16 19 -25 15 -10 22 -22 19
-31 -4 -10 0 -15 16 -15 11 0 18 5 15 10 -3 6 -1 10 5 10 6 0 10 -8 8 -17 -2
-13 5 -19 24 -21 15 -2 34 -12 41 -22 7 -10 25 -22 39 -25 15 -4 29 -13 32
-21 3 -8 16 -14 29 -14 13 0 45 -11 71 -25 59 -31 68 -31 54 0 -9 21 -8 28 7
45 10 11 16 20 14 21 -2 0 -17 2 -33 3 -16 1 -31 7 -34 14 -2 7 -13 12 -25 12
-11 0 -18 3 -15 6 6 6 166 -32 272 -64 73 -22 105 -57 90 -99 -5 -16 -18 -29
-30 -31 -18 -3 -20 1 -16 26 10 69 -66 84 -128 25 -43 -43 -61 -83 -36 -83 17
0 29 -35 24 -70 -4 -29 14 -36 36 -15 22 22 20 52 -3 58 -13 3 -22 17 -27 43
-9 50 20 76 80 72 49 -4 58 -31 13 -36 -37 -4 -29 -25 12 -33 67 -14 95 -72
61 -126 -29 -47 -50 -44 -43 7 4 30 1 45 -12 60 -25 28 -36 25 -25 -6 15 -39
12 -53 -16 -81 -22 -22 -31 -24 -70 -18 -27 4 -44 2 -44 -4 0 -14 29 -41 45
-41 8 0 17 -5 20 -10 9 -15 -13 -40 -35 -40 -18 0 -30 -26 -30 -66 0 -12 -10
-28 -23 -37 -21 -13 -23 -13 -25 4 -6 42 -5 75 1 89 14 32 -6 42 -57 28 -41
-11 -51 -10 -76 4 -23 13 -28 13 -23 2 3 -8 10 -14 16 -14 5 0 3 -8 -6 -18
-10 -10 -17 -25 -18 -33 0 -10 -2 -10 -6 -1 -2 6 -15 12 -28 12 -22 0 -65 34
-65 51 0 4 -16 16 -36 28 -27 16 -40 19 -55 10 -12 -6 -18 -17 -15 -27 3 -9 7
-44 8 -77 2 -66 -22 -130 -67 -179 -14 -15 -25 -35 -25 -46 0 -10 -6 -25 -13
-32 -7 -7 -19 -28 -26 -46 -8 -18 -25 -43 -40 -55 -29 -26 -51 -60 -51 -80 0
-13 -35 -47 -49 -47 -5 0 -14 -7 -21 -15 -7 -9 -15 -14 -17 -11 -7 7 -63 -56
-63 -70 0 -8 -6 -14 -14 -14 -8 0 -21 -7 -30 -15 -9 -9 -36 -16 -70 -16 -46
-1 -54 -4 -45 -15 7 -9 7 -14 1 -14 -14 0 -33 25 -25 33 3 4 -1 7 -10 7 -9 0
-20 8 -25 17 -8 13 -9 10 -8 -13 2 -16 17 -58 34 -94 22 -44 32 -80 32 -111 0
-37 7 -56 38 -100 56 -80 106 -174 137 -259 15 -41 43 -115 62 -164 19 -49 31
-91 28 -94 -8 -8 -55 -12 -55 -4 0 4 -9 18 -19 31 l-19 24 3 -27 c2 -15 10
-35 18 -44 9 -10 36 -61 62 -114 25 -53 54 -102 63 -110 11 -9 14 -9 8 -1 -4
7 -9 26 -11 43 -3 27 -1 29 15 20 19 -10 70 -14 70 -5 0 2 -9 19 -20 37 -11
18 -20 41 -20 51 0 23 29 22 55 -3 21 -20 21 -20 59 6 21 14 35 28 32 31 -3 4
-14 -1 -24 -10 -33 -30 -66 -21 -100 27 -18 25 -28 47 -23 50 5 4 12 0 14 -6
3 -7 6 -3 6 10 1 19 -2 21 -18 12 -14 -7 -22 -7 -26 0 -4 6 -10 8 -15 5 -5 -3
-12 0 -16 6 -5 8 -2 10 7 5 8 -5 8 -2 -2 6 -9 7 -14 18 -12 23 2 6 -7 21 -20
35 -29 32 -51 81 -67 148 -7 28 -16 52 -22 52 -5 0 -7 4 -4 9 4 5 2 11 -4 13
-15 5 -20 170 -6 188 25 32 86 53 86 30 0 -5 7 -10 16 -10 22 0 66 -55 87
-109 9 -25 22 -54 28 -64 5 -10 7 -28 3 -39 -4 -15 -3 -18 6 -13 8 5 11 4 7
-2 -6 -10 20 -90 44 -135 6 -11 6 -18 0 -18 -5 0 -7 -9 -4 -20 3 -11 11 -20
18 -20 21 0 45 -29 45 -55 0 -26 -21 -46 -28 -27 -6 19 -42 -5 -42 -28 0 -11
2 -20 4 -20 18 0 60 34 88 71 28 36 40 45 71 47 35 3 37 2 37 -27 0 -36 -11
-44 -43 -32 -21 8 -26 6 -30 -10 -3 -10 -2 -19 1 -20 55 -5 77 -12 88 -27 12
-16 14 -15 41 9 78 74 179 84 241 26 20 -19 22 -28 17 -70 -9 -64 3 -187 18
-184 20 4 6 -36 -24 -71 -16 -18 -29 -37 -29 -42 0 -5 -14 -25 -32 -45 -57
-66 -149 -95 -179 -58 -13 15 -14 13 -19 -13 -7 -40 -61 -74 -116 -74 -40 0
-53 -8 -38 -23 3 -3 18 -2 32 3 15 5 39 11 54 14 14 3 41 18 58 32 29 25 34
26 69 15 45 -13 91 -47 91 -66 0 -21 17 -27 41 -15 21 12 21 13 -15 49 -55 56
-43 69 29 30 22 -12 60 -25 85 -28 36 -5 46 -10 48 -28 3 -18 -3 -23 -35 -28
-21 -3 -57 -15 -80 -25 -35 -16 -43 -25 -49 -55 -5 -29 -9 -33 -20 -24 -8 6
-14 21 -14 32 0 29 -6 18 -14 -25 -6 -33 -4 -38 12 -38 11 0 27 -10 36 -23 16
-22 16 -22 11 10 -15 79 53 125 153 103 66 -15 102 -46 102 -91 0 -26 3 -30
18 -24 9 4 39 11 65 16 27 4 56 14 64 20 8 7 24 14 36 14 18 2 16 -2 -11 -27
-26 -22 -42 -28 -78 -28 -57 0 -56 -21 2 -33 77 -16 154 30 154 92 0 15 -9 60
-21 101 -35 127 -66 311 -78 462 -3 47 -4 85 -1 83 4 -2 5 24 4 58 l-3 62 9
-50 c5 -27 16 -120 25 -205 9 -85 29 -216 45 -290 43 -194 127 -694 141 -837
10 -97 10 -139 0 -205 -12 -81 -12 -86 18 -191 38 -131 39 -182 6 -247 -13
-27 -30 -52 -36 -55 -6 -4 -26 -32 -46 -62 -19 -30 -37 -52 -40 -49 -3 3 2 17
12 32 15 24 16 26 1 21 -11 -4 -16 -1 -16 10 0 9 3 14 6 10 7 -7 35 21 74 74
28 39 30 48 30 130 0 65 -5 103 -20 141 -17 45 -20 75 -19 188 0 77 5 140 11
148 8 9 7 11 -3 7 -24 -9 -39 51 -49 201 -14 197 -41 384 -56 384 -3 0 -22
-12 -44 -26 -38 -25 -40 -26 -87 -11 -26 9 -69 18 -95 22 -47 6 -48 7 -48 42
0 42 -23 73 -54 73 -21 -1 -21 -1 -1 -12 28 -16 35 -28 34 -63 0 -24 -8 -36
-39 -57 -38 -27 -40 -30 -40 -80 1 -151 122 -232 261 -174 13 6 15 1 11 -22
-5 -36 37 -180 82 -279 19 -43 40 -100 46 -128 7 -27 21 -78 32 -113 11 -34
17 -69 14 -77 -3 -8 -1 -17 4 -20 12 -8 13 -72 1 -79 -4 -3 -11 -22 -14 -42
-3 -20 -13 -41 -21 -48 -26 -20 -67 -105 -62 -130 4 -22 3 -23 -24 -13 -34 13
-76 -4 -86 -35 -9 -29 -24 -21 -24 15 0 17 9 88 20 157 20 128 24 206 11 250
-6 22 -8 19 -14 -20 -4 -25 -25 -88 -46 -140 -78 -190 -97 -253 -100 -322 -1
-36 2 -69 7 -72 6 -4 8 3 5 16 -5 23 -5 23 10 3 8 -11 13 -24 10 -28 -3 -5 3
-7 13 -5 17 3 21 -6 15 -40 -2 -11 -56 -42 -91 -52 -36 -10 -39 1 -10 37 30
38 26 92 -10 141 -36 50 -61 58 -117 38 l-42 -15 -7 35 c-8 43 2 157 22 244
16 70 50 166 96 269 49 111 23 78 -45 -56 -36 -70 -77 -166 -91 -212 -27 -87
-69 -388 -55 -397 4 -2 10 2 12 8 4 10 6 10 6 1 1 -15 -35 -53 -50 -53 -6 0
-3 7 5 16 19 18 19 21 4 30 -6 4 -8 3 -4 -4 3 -6 2 -13 -4 -17 -11 -7 -14 11
-11 67 3 46 -25 96 -67 121 -37 21 -61 22 -89 2 -30 -21 -35 -7 -24 67 6 35
15 109 21 166 6 56 17 121 25 143 8 22 10 37 6 34 -11 -6 -51 -135 -51 -162 0
-18 -39 -185 -45 -191 -1 -2 -16 11 -33 28 -36 36 -45 37 -73 9 -15 -15 -20
-30 -17 -55 5 -43 -5 -43 -26 0 -21 44 -21 175 0 245 18 61 66 119 130 156 59
34 184 140 206 174 30 44 23 148 -16 261 -103 291 -188 469 -338 705 -98 155
-224 368 -263 445 -58 116 -95 249 -104 378 l-8 117 -66 115 c-126 219 -168
425 -137 670 7 54 21 98 49 155 47 94 62 151 49 185 -13 35 -3 66 47 141 24
37 59 98 78 136 54 107 147 240 233 332 l78 83 33 -36 c18 -19 33 -40 33 -46z
m2733 -47 c106 -97 164 -165 215 -252 20 -35 26 -60 29 -120 2 -42 4 -97 6
-123 1 -25 -1 -44 -5 -41 -5 2 -8 15 -8 28 0 38 -17 72 -59 118 -37 40 -38 43
-17 42 13 0 30 -6 39 -14 29 -23 21 11 -20 94 -27 53 -45 77 -63 84 -24 8
-191 171 -240 233 -21 28 -20 48 4 48 7 0 61 -44 119 -97z m-1433 25 c0 -13
-27 -9 -40 7 -19 23 -1 39 21 19 10 -9 19 -21 19 -26z m3519 2 c41 -17 110
-56 153 -87 83 -60 294 -272 309 -311 5 -13 13 -20 19 -17 5 3 7 0 4 -8 -3 -8
8 -37 24 -63 16 -27 32 -65 35 -84 l6 -35 -15 33 c-13 29 -19 33 -42 28 -15
-2 -43 -7 -63 -11 -43 -7 -63 -26 -55 -53 11 -33 95 -57 111 -32 11 19 25 10
25 -16 0 -16 -4 -23 -11 -18 -8 5 -8 1 0 -14 14 -26 14 -35 1 -27 -5 3 -7 0
-4 -8 3 -8 1 -18 -5 -22 -6 -3 -11 -2 -11 4 0 5 -16 19 -36 32 -20 12 -45 31
-56 43 -36 37 -68 118 -68 170 0 45 1 48 23 42 12 -3 28 -6 35 -6 7 0 18 -14
24 -31 7 -21 14 -27 21 -20 7 7 15 7 24 0 9 -9 13 -8 13 0 0 7 5 9 10 6 6 -4
5 5 -2 20 -11 25 -13 25 -25 9 -11 -16 -13 -13 -13 21 0 34 -7 46 -52 90 -55
52 -131 95 -171 95 -36 0 -65 -27 -79 -72 -9 -31 -20 -44 -45 -54 -39 -17 -99
-18 -142 -3 -29 10 -107 96 -97 107 3 2 28 -4 56 -14 51 -18 52 -18 67 1 43
58 -43 242 -142 302 -20 12 -20 12 0 28 27 22 79 14 174 -25z m-3630 15 c19
-4 47 -21 62 -37 31 -34 59 -32 77 6 16 36 82 41 141 11 49 -24 113 -83 77
-69 -16 6 -18 4 -13 -11 4 -10 -11 1 -34 24 -52 51 -84 54 -134 10 -19 -17
-35 -35 -35 -39 0 -16 97 -110 113 -110 9 0 26 9 37 20 16 16 20 17 20 5 0
-21 -36 -55 -59 -55 -39 0 -71 20 -84 52 -30 71 -77 71 -127 2 -29 -40 -35
-44 -75 -44 -34 0 -47 5 -59 22 -27 38 -20 52 13 29 38 -28 51 -27 89 8 37 35
41 67 11 105 -40 51 -99 26 -134 -56 -23 -58 -19 -86 19 -124 40 -40 80 -44
120 -13 26 20 26 20 26 0 0 -47 -130 -92 -157 -54 -17 22 -27 10 -14 -16 26
-48 108 -38 175 20 41 36 45 43 31 53 -24 17 -7 80 22 84 26 4 36 -30 27 -88
-4 -24 -2 -45 5 -53 14 -17 2 -30 -15 -16 -9 8 -27 1 -66 -25 -38 -26 -64 -36
-92 -36 -38 0 -39 0 -21 -20 10 -11 49 -30 86 -42 l69 -22 65 23 c36 13 69 21
72 17 3 -3 -3 -8 -13 -12 -10 -3 -34 -13 -53 -21 -84 -37 -244 11 -303 91 -80
108 -106 210 -72 282 31 65 107 119 154 109 8 -2 30 -7 49 -10z m761 -61 c-95
-39 -213 -74 -247 -74 -13 0 -23 6 -23 14 0 15 9 17 115 36 33 5 94 21 135 34
109 35 118 30 20 -10z m-779 -24 c23 -13 24 -37 2 -62 -20 -22 -37 -23 -57 -2
-21 20 -20 30 4 54 23 23 25 23 51 10z m282 -21 c13 -18 13 -59 0 -59 -15 0
-73 43 -73 54 0 32 52 36 73 5z m719 -57 c-27 -21 -164 -65 -288 -92 -105 -23
-228 -27 -222 -7 3 8 37 14 99 19 111 7 249 36 339 71 78 31 105 34 72 9z
m-1756 -22 c32 -12 88 -27 124 -35 36 -8 79 -19 95 -25 24 -8 20 -8 -25 -4
-55 6 -222 55 -250 74 -22 15 -9 12 56 -10z m1143 -67 c-15 -47 -60 -73 -126
-73 -42 0 -55 4 -67 22 -21 30 -6 42 31 23 58 -29 119 1 144 70 12 33 14 34
21 14 5 -13 4 -36 -3 -56z m3097 -105 c18 -24 34 -46 34 -49 0 -4 -46 7 -102
23 -63 18 -138 32 -193 35 l-90 5 -51 -39 c-35 -28 -61 -61 -86 -109 -47 -90
-54 -142 -33 -228 9 -37 14 -70 11 -73 -11 -12 -55 40 -72 84 -36 93 7 240 89
307 97 78 165 96 345 90 l114 -3 34 -43z m-2606 -23 c-13 -24 -15 -25 -21 -8
-4 10 -8 31 -8 48 l-1 29 22 -21 c20 -20 20 -25 8 -48z m3036 43 c47 -22 114
-78 114 -95 0 -7 -18 -8 -47 -5 l-46 5 6 -69 c3 -38 9 -77 12 -86 4 -11 3 -18
-4 -18 -7 0 -16 10 -21 23 -5 12 -9 18 -9 13 -1 -5 -10 2 -21 15 -40 48 -105
109 -116 109 -20 0 16 107 40 118 31 15 41 14 92 -10z m-3156 -9 c0 -5 5 -7
11 -3 6 4 28 -12 49 -35 26 -28 46 -41 64 -41 14 0 29 -1 34 -1 10 -2 52 -48
53 -60 1 -5 3 -13 4 -19 1 -5 3 -15 4 -21 1 -8 6 -8 16 1 8 7 15 9 15 5 0 -4
6 -2 14 4 12 10 13 8 9 -8 -4 -17 -1 -21 17 -21 15 0 20 -5 18 -17 -2 -13 -13
-18 -33 -18 -26 0 -30 3 -27 24 2 19 -1 22 -15 16 -10 -4 -24 -8 -30 -8 -7 0
-13 -9 -13 -19 0 -21 -9 -22 -44 -7 -29 14 -56 -1 -56 -31 0 -16 10 -18 95
-16 85 2 95 0 95 -16 0 -11 -7 -18 -20 -18 -14 0 -20 -7 -20 -23 0 -32 -27
-67 -53 -67 -29 0 -67 27 -67 47 0 15 2 14 18 0 10 -10 28 -17 40 -17 30 0 28
31 -4 61 l-26 24 -19 -24 c-14 -17 -19 -39 -19 -82 0 -33 -4 -59 -10 -59 -5 0
-10 7 -10 15 0 8 -11 25 -25 39 -30 30 -31 42 -5 49 14 3 20 14 20 31 0 30 -3
30 -64 14 -40 -11 -47 -10 -66 7 -26 24 -25 36 5 65 31 29 32 50 2 50 -29 0
-77 -49 -77 -78 0 -25 -3 -26 -31 -12 -28 16 -23 40 16 80 35 36 35 36 15 55
-24 22 -26 67 -4 89 21 22 38 20 29 -1 -13 -30 -16 -77 -6 -93 8 -11 16 -12
38 -4 35 12 43 43 13 51 -30 8 -19 28 16 28 28 0 29 -2 32 -52 2 -29 6 -53 10
-53 4 0 18 19 30 41 l24 41 -23 31 c-20 27 -20 30 -3 23 14 -5 16 -4 8 4 -6 6
-32 12 -58 14 -26 2 -50 7 -54 11 -4 5 1 5 11 2 9 -4 17 -2 17 3 0 6 9 10 20
10 11 0 20 -5 20 -11z m-537 -24 c20 -10 37 -22 37 -26 0 -10 -58 7 -76 22
-15 12 -20 33 -6 27 4 -2 24 -12 45 -23z m1489 7 c4 -4 -15 -8 -43 -10 -40 -2
-49 0 -49 14 0 14 7 15 43 10 23 -4 45 -10 49 -14z m-1572 -31 c0 -12 -9 -20
-25 -23 -29 -6 -32 7 -9 33 19 21 34 16 34 -10z m846 -6 c0 -27 -25 -32 -34
-6 -3 8 0 11 6 7 5 -3 12 1 16 9 8 22 12 18 12 -10z m462 -16 c-43 -22 -78
-64 -78 -93 0 -32 36 -84 72 -106 42 -26 168 -29 168 -5 0 15 11 19 40 16 41
-5 41 -13 -1 -41 -37 -25 -54 -30 -107 -30 -71 0 -103 13 -148 62 -42 44 -54
69 -54 113 0 66 34 98 107 102 l38 2 -37 -20z m443 -82 c23 -45 39 -93 47
-145 15 -96 22 -122 67 -249 42 -121 55 -252 36 -355 -14 -71 -89 -267 -131
-343 -43 -77 -77 -188 -106 -346 -32 -176 -68 -270 -171 -444 -42 -71 -103
-177 -134 -235 -31 -58 -77 -141 -101 -185 -59 -105 -207 -419 -246 -520 -37
-97 -54 -185 -48 -248 5 -55 79 -169 181 -279 64 -69 75 -94 90 -200 4 -25 2
-79 -5 -118 -17 -99 -34 -78 -37 43 -1 51 -2 96 -2 102 -1 5 -22 -14 -47 -43
-25 -28 -50 -52 -55 -52 -12 0 -42 61 -78 162 -39 112 -50 133 -101 191 -55
62 -72 61 -26 -2 20 -27 45 -69 56 -93 33 -76 88 -280 96 -358 l7 -73 -31 21
c-36 26 -53 27 -93 6 -61 -31 -81 -125 -35 -163 20 -17 21 -31 0 -31 -8 0 -12
5 -9 10 3 6 -1 10 -9 10 -9 0 -15 -5 -13 -11 1 -6 -4 -13 -11 -15 -8 -1 -8 0
-1 3 8 4 7 8 -2 14 -10 6 -11 9 -1 9 6 0 12 5 12 11 0 5 -5 7 -12 3 -7 -4 -8
-3 -4 4 7 12 -20 130 -35 148 -4 5 -13 44 -19 85 -21 146 -85 362 -126 424
-26 40 -26 25 2 -51 36 -96 74 -290 81 -408 l6 -100 -37 23 c-45 28 -87 23
-128 -16 -53 -51 -43 -124 29 -212 l28 -34 -30 7 c-16 4 -59 21 -95 39 l-65
32 -7 136 c-4 75 -11 154 -17 175 -20 75 -51 240 -52 279 l-1 40 -13 -54 c-14
-55 -13 -61 16 -196 4 -22 8 -73 9 -114 l0 -75 -28 27 c-39 37 -77 35 -119 -5
-18 -18 -33 -40 -33 -50 0 -31 -14 -20 -53 42 -90 140 -97 226 -31 385 36 87
37 94 35 197 -2 115 13 222 58 408 68 276 131 648 157 925 8 94 19 174 24 179
4 4 9 -63 9 -149 1 -87 4 -161 6 -165 3 -4 -2 -27 -10 -51 -7 -24 -21 -102
-29 -174 -9 -71 -18 -147 -21 -167 -3 -22 0 -40 7 -44 7 -5 9 -2 5 8 -3 9 -1
20 4 25 5 5 12 27 14 48 6 46 13 55 25 35 10 -16 11 -14 15 43 1 20 -2 40 -7
43 -5 4 0 11 13 18 28 14 39 39 12 29 -16 -6 -16 -5 -5 10 8 9 17 16 20 15 4
0 14 0 22 2 11 1 9 4 -5 10 -15 7 -16 9 -4 9 13 1 17 13 18 59 1 31 3 76 4 99
1 23 6 39 11 36 5 -4 7 1 3 10 -4 10 -10 24 -13 32 -3 8 -2 15 3 15 5 0 19 9
32 21 17 16 20 24 10 35 -7 9 -8 14 -1 14 6 0 14 9 17 20 13 40 25 18 25 -45
0 -56 2 -64 17 -58 12 5 14 3 8 -7 -5 -8 -4 -11 3 -6 6 4 9 13 6 21 -4 8 -10
12 -15 9 -5 -3 -9 10 -8 28 0 27 2 30 9 13 8 -19 9 -19 9 2 1 12 6 25 11 28 6
3 10 12 10 18 0 7 -4 6 -11 -3 -9 -12 -9 -11 -4 5 4 11 10 28 12 37 3 10 8 16
12 14 3 -2 6 6 7 17 1 41 14 100 39 173 27 80 81 184 96 184 5 0 9 7 9 16 0
12 6 15 21 11 16 -4 18 -3 8 9 -9 11 -5 15 22 21 19 4 38 6 43 5 5 -2 13 3 17
10 6 9 9 8 9 -6 0 -18 1 -18 18 -3 10 10 25 17 33 17 8 0 25 7 38 16 44 31 49
-18 14 -126 -18 -55 -94 -210 -103 -210 -4 0 -28 -16 -54 -36 l-47 -36 78 -47
78 -47 22 23 c29 30 43 29 43 -2 0 -26 29 -48 48 -36 8 5 6 12 -8 24 -13 11
-20 29 -20 52 0 34 -12 46 -25 25 -3 -5 -13 -10 -21 -10 -18 0 -19 59 -1 66
24 9 67 -15 78 -43 20 -52 26 -57 60 -66 19 -5 42 -16 52 -25 22 -19 40 -5 35
28 -5 35 -33 48 -57 26 -19 -17 -20 -17 -30 2 -7 14 -6 24 5 40 21 31 68 29
100 -4 22 -21 25 -31 19 -62 -3 -20 -15 -46 -26 -57 -16 -17 -23 -18 -52 -7
-47 17 -56 15 -68 -12 -8 -18 -7 -30 5 -54 15 -29 15 -32 -11 -71 -41 -63 -80
-48 -41 16 26 43 16 68 -34 94 -37 19 -43 19 -77 5 -42 -16 -60 -9 -110 43
-19 19 -30 22 -64 18 -22 -3 -49 -14 -60 -25 -24 -25 -36 -114 -17 -137 10
-12 10 -18 0 -30 -9 -10 -9 -15 -1 -15 6 0 11 4 11 8 0 4 9 8 20 9 17 2 20 -4
20 -43 0 -29 -6 -50 -17 -61 -17 -17 -16 -19 17 -49 69 -60 106 -77 163 -71
56 5 87 31 87 73 0 30 -12 30 -58 -1 -40 -28 -75 -33 -66 -11 3 8 -8 24 -24
37 -46 37 -56 66 -57 161 0 102 7 108 70 58 44 -35 52 -37 60 -11 15 49 91 27
94 -26 0 -15 1 -58 1 -94 0 -63 2 -69 31 -93 17 -14 35 -26 40 -26 13 0 11
-27 -2 -36 -7 -4 -20 4 -30 17 -21 28 -22 27 -38 -33 -11 -38 -11 -50 0 -66 8
-11 16 -20 19 -20 3 0 13 -4 23 -8 10 -3 36 -4 57 -1 45 6 61 -6 31 -22 -32
-18 -73 -12 -120 14 -28 16 -48 22 -54 16 -15 -15 26 -48 92 -71 34 -13 61
-27 61 -31 0 -15 -58 -10 -74 6 -8 9 -22 12 -32 8 -11 -4 -15 -3 -11 4 11 18
-65 -8 -90 -30 -45 -40 -38 -109 13 -121 20 -5 33 -1 50 15 13 12 24 28 24 36
0 7 4 13 9 13 11 0 2 -38 -10 -46 -5 -3 -9 -25 -9 -49 0 -95 -48 -155 -123
-155 -20 0 -40 -11 -63 -34 -30 -30 -34 -40 -34 -85 0 -60 20 -106 50 -114 24
-6 75 7 97 24 30 25 55 91 50 130 -6 43 6 64 43 77 17 7 36 32 62 83 20 41 39
84 42 97 3 12 9 31 12 42 5 20 3 21 -45 14 -34 -4 -51 -3 -51 4 0 12 14 17 75
27 22 4 46 12 53 18 19 15 125 228 117 235 -9 9 -36 11 -30 2 2 -4 -4 -15 -14
-24 -17 -16 -20 -16 -35 -1 -9 9 -14 20 -11 24 7 12 92 34 103 27 16 -9 42 29
49 70 3 22 21 59 39 85 18 25 43 72 55 104 26 70 66 140 102 179 37 40 83 158
102 262 9 49 23 106 31 128 7 21 11 43 7 48 -3 6 1 15 8 20 10 7 11 11 2 14
-15 7 -8 25 67 179 68 137 107 268 116 395 7 97 -3 144 -43 198 -20 27 -31 32
-64 32 -21 0 -39 5 -39 11 0 5 -5 7 -12 3 -6 -4 -8 -3 -5 3 4 6 28 13 55 17
55 7 63 12 55 32 -3 9 -13 12 -23 9 -24 -7 -67 45 -76 90 -8 42 18 90 43 81
12 -5 14 -1 9 16 -3 13 -6 33 -6 45 0 12 -15 41 -33 65 -19 24 -37 59 -40 77
-11 52 13 34 54 -42z m-749 32 c18 -10 19 -17 13 -67 -9 -70 -20 -92 -45 -92
-24 0 -26 13 -5 30 16 13 20 67 7 88 -5 7 -29 13 -54 14 -32 0 -45 5 -45 15 0
11 8 13 27 10 14 -3 32 -2 40 4 20 12 37 11 62 -2z m-1051 -50 c35 -11 99 -36
142 -56 43 -19 81 -32 84 -29 4 3 2 6 -4 6 -6 0 -14 7 -17 16 -12 31 56 -28
85 -74 41 -64 36 -73 -13 -25 -24 22 -58 48 -75 57 l-33 17 0 -31 c0 -18 -4
-29 -10 -25 -5 3 -10 1 -10 -4 0 -6 -5 -10 -11 -8 -6 1 -12 -15 -14 -36 -4
-55 -23 -97 -64 -139 -34 -37 -34 -38 -16 -52 15 -10 22 -11 27 -3 4 6 10 8
14 5 4 -4 16 -2 28 4 19 9 19 9 6 -5 -43 -43 -212 -61 -295 -32 -21 8 -41 13
-42 11 -2 -2 1 -15 7 -30 23 -62 -6 -79 -40 -23 -11 17 -20 25 -20 16 0 -8 14
-34 31 -58 24 -32 53 -53 120 -87 79 -39 96 -44 156 -44 81 0 159 32 194 79
12 16 34 34 49 40 27 9 27 9 14 -18 -34 -68 -128 -111 -259 -118 -103 -6 -177
20 -248 86 -91 85 -125 174 -108 282 14 84 43 139 107 203 45 45 122 96 145
96 3 0 35 -9 70 -21z m1404 -21 c4 -13 19 -36 34 -52 l26 -28 -25 7 c-31 9
-48 22 -62 48 -9 17 -8 19 8 13 15 -6 17 -5 7 5 -15 15 -17 29 -4 29 5 0 13
-10 16 -22z m2745 -59 c12 -23 20 -43 18 -45 -3 -2 -14 17 -26 41 -27 56 -20
60 8 4z m-693 14 c0 -9 -6 -9 -21 -1 -30 15 -30 16 -3 14 13 0 24 -6 24 -13z
m-3813 -89 c30 -21 37 -30 31 -47 -4 -12 -9 -64 -12 -115 -5 -88 -4 -96 25
-155 40 -80 107 -145 207 -200 51 -28 80 -50 79 -60 -5 -53 251 -65 351 -17
28 13 55 24 62 24 6 1 21 11 33 24 11 12 25 22 30 22 5 0 25 32 44 71 32 64
36 79 32 133 -2 34 -9 81 -16 106 -8 25 -13 50 -11 57 3 21 -39 93 -54 93 -8
0 -15 4 -15 9 0 5 -2 16 -5 23 -7 17 34 38 71 38 43 0 110 -42 98 -61 -2 -4 3
-12 10 -18 11 -9 16 -9 22 0 4 8 3 9 -4 5 -8 -5 -10 -1 -5 9 4 13 8 14 14 4 4
-7 6 -16 3 -20 -2 -4 0 -10 6 -14 5 -3 10 -1 10 5 0 6 5 8 11 4 7 -4 7 -10 1
-16 -11 -11 32 -83 76 -128 13 -13 26 -37 29 -52 3 -15 9 -28 14 -28 5 0 9
-12 8 -27 0 -25 -1 -26 -9 -8 -8 18 -9 18 -9 2 -1 -10 -11 -33 -24 -50 -13
-18 -36 -61 -50 -97 -31 -73 -93 -152 -123 -155 -11 0 -45 -16 -77 -34 -52
-30 -260 -91 -311 -91 -11 0 -16 -3 -13 -7 4 -3 -1 -12 -11 -20 -16 -13 -16
-14 3 -9 11 2 36 7 55 11 47 9 134 38 141 48 3 4 25 10 48 12 23 2 64 11 91
20 28 9 58 15 67 12 30 -7 -72 -46 -212 -82 -71 -18 -173 -44 -225 -58 -52
-14 -109 -23 -125 -20 -191 31 -458 108 -567 164 -26 13 -58 22 -80 20 -31 -1
-40 3 -61 31 -57 76 -62 95 -61 228 0 143 13 201 49 224 14 9 25 26 25 37 0
33 16 53 75 98 113 85 190 102 259 55z m1938 -36 c-17 -18 -35 -27 -42 -23 -8
5 -1 16 22 35 43 36 59 26 20 -12z m15 -72 c4 -4 1 -22 -5 -40 -8 -20 -10 -51
-6 -75 6 -37 5 -41 -15 -41 -37 0 -47 40 -21 90 l22 43 -44 -7 c-23 -4 -62
-18 -84 -31 -65 -38 -85 -115 -30 -115 21 0 25 5 28 33 2 25 8 33 27 35 23 4
24 2 17 -40 -10 -64 -30 -88 -71 -88 -63 0 -97 59 -76 131 14 45 60 84 123
105 41 13 122 13 135 0z m1513 -25 c0 -10 12 -50 27 -87 30 -78 38 -213 15
-249 -11 -17 -11 -15 -5 20 14 79 7 148 -26 240 -34 96 -36 109 -21 100 6 -3
10 -14 10 -24z m-2733 -108 c-14 -34 -16 -35 -16 -12 -1 15 2 42 6 60 6 31 7
32 16 12 7 -16 5 -33 -6 -60z m3399 15 c40 -77 57 -311 34 -454 -38 -232 -223
-530 -396 -636 -82 -50 -189 -92 -236 -94 -27 0 -48 1 -48 2 0 2 33 19 74 38
115 53 214 121 296 205 96 97 134 152 186 272 61 141 86 251 85 384 0 119 -9
175 -41 250 -16 38 -18 50 -8 57 24 14 37 8 54 -24z m-2106 -36 c0 -10 7 -28
16 -40 12 -17 12 -22 2 -23 -7 -1 5 -5 27 -9 l40 -7 -37 -2 c-26 -1 -44 5 -58
19 -24 24 -27 80 -5 80 8 0 15 -8 15 -18z m193 -35 c2 -7 -2 -33 -10 -59 -16
-55 -65 -99 -106 -96 -38 3 -33 13 11 26 31 9 43 20 57 52 11 24 15 50 12 69
-5 25 -3 28 13 24 10 -3 21 -10 23 -16z m-1028 -191 c-23 -97 -72 -172 -122
-185 -55 -16 -58 -14 -23 15 17 15 42 48 55 73 13 26 31 53 40 61 27 22 44 64
52 127 7 53 8 55 11 19 2 -22 -4 -71 -13 -110z m255 111 c0 -7 12 -14 27 -15
33 -3 37 -7 25 -28 -6 -11 -11 -13 -16 -5 -12 19 -36 12 -60 -16 -31 -36 -52
-23 -30 20 28 54 54 76 54 44z m-2980 -116 c0 -11 -4 -23 -10 -26 -5 -3 -10
-13 -10 -21 0 -8 5 -12 10 -9 6 3 10 -4 10 -18 0 -13 7 -48 16 -78 24 -80 26
-119 7 -112 -10 4 -14 2 -10 -4 4 -6 2 -13 -4 -15 -6 -2 -12 -17 -13 -34 -2
-17 -6 -36 -11 -43 -4 -7 -9 -42 -12 -78 -4 -64 -34 -164 -58 -193 -7 -8 -11
-20 -8 -26 2 -6 -13 -27 -32 -47 -20 -20 -33 -37 -29 -37 3 0 1 -6 -5 -14 -10
-12 -2 -17 43 -30 69 -20 101 -60 101 -126 0 -54 -26 -100 -56 -100 -16 0 -19
4 -14 18 4 9 10 40 12 67 5 47 3 52 -21 63 -34 15 -99 15 -114 0 -17 -17 -15
-58 2 -58 8 0 16 10 18 23 4 26 41 35 65 16 19 -16 14 -119 -8 -164 -41 -85
-166 -100 -226 -28 -29 35 -36 27 -15 -16 10 -22 37 -48 74 -70 65 -41 83 -72
73 -128 -7 -44 -21 -65 -54 -82 -39 -21 -51 2 -23 49 33 59 29 74 -31 114 -29
20 -68 51 -85 71 -20 22 -42 35 -57 35 -32 0 -38 -13 -14 -33 23 -20 24 -32 4
-86 -12 -36 -12 -41 1 -41 22 0 64 46 64 70 0 11 4 20 9 20 14 0 41 -41 41
-61 0 -9 7 -30 15 -45 8 -16 15 -44 15 -62 0 -26 -4 -33 -17 -30 -10 2 -22 17
-27 34 l-9 31 -65 -5 c-56 -4 -66 -2 -75 14 -10 17 -12 16 -18 -11 -4 -16 -10
-40 -14 -51 -6 -20 -2 -23 47 -29 75 -10 114 -29 132 -64 18 -35 21 -84 5
-112 -13 -25 -29 -15 -29 17 0 34 -26 81 -49 89 -73 23 -211 36 -211 20 0 -5
16 -31 35 -57 31 -42 40 -48 71 -48 31 0 37 4 47 30 12 32 41 40 51 14 10 -27
7 -40 -19 -79 -15 -20 -25 -38 -23 -39 50 -31 57 -38 51 -52 -3 -8 -12 -13
-19 -10 -7 3 -16 1 -19 -4 -6 -9 13 -25 30 -25 5 0 21 -16 35 -36 65 -94 179
-156 313 -170 51 -5 100 -14 109 -19 10 -6 28 -10 40 -10 31 0 74 -24 70 -38
-1 -9 11 -11 40 -7 33 4 37 3 18 -4 -14 -5 -82 -9 -153 -10 l-127 -1 -83 41
c-114 57 -188 112 -288 215 -179 184 -268 373 -285 604 -10 135 13 471 37 560
52 184 173 366 319 478 98 76 226 120 353 121 60 1 67 -1 67 -18z m4251 3
c106 -31 189 -83 284 -179 154 -154 232 -288 280 -476 57 -224 23 -526 -84
-737 -68 -135 -179 -299 -246 -364 -34 -33 -150 -98 -175 -98 -35 0 19 66 87
108 40 24 88 68 137 124 42 48 76 90 76 93 0 3 -11 5 -24 5 -34 0 -75 39 -78
74 -3 33 17 47 25 17 2 -10 14 -24 26 -30 20 -11 21 -10 21 44 0 73 23 75 36
3 5 -28 14 -53 19 -55 13 -4 85 116 85 140 0 21 2 20 -50 2 -49 -17 -86 -19
-95 -5 -10 16 17 36 57 44 46 8 82 37 98 78 7 18 18 40 25 48 6 8 19 34 27 57
15 40 15 42 0 34 -10 -5 -25 -19 -35 -30 -16 -20 -19 -21 -55 -5 -20 9 -43 18
-49 21 -30 12 2 25 47 19 47 -6 48 -5 69 29 11 19 25 35 31 35 5 0 10 18 10
40 0 28 -4 40 -14 40 -8 0 -21 3 -30 6 -10 4 -19 -3 -27 -20 -12 -26 -42 -35
-54 -16 -4 6 -2 16 4 23 5 7 9 22 7 32 -5 29 16 37 39 15 17 -16 24 -17 44 -7
13 7 28 19 33 27 15 25 -8 68 -44 83 -42 18 -72 52 -64 72 3 10 1 15 -7 13
-38 -7 -68 22 -71 70 -2 23 -1 23 14 5 8 -10 33 -29 54 -43 22 -13 55 -37 73
-53 19 -16 37 -27 40 -23 4 3 -2 28 -13 54 -14 33 -26 48 -41 50 -30 4 -46 27
-38 52 5 17 12 20 31 16 13 -4 24 -3 24 0 0 4 -21 31 -46 61 -49 57 -78 76
-131 86 l-33 7 0 -48 0 -47 -26 27 c-21 20 -25 32 -20 52 3 14 13 26 22 26 8
0 12 5 9 11 -4 6 -14 8 -22 4 -9 -3 -32 4 -52 16 -20 11 -33 18 -29 13 5 -4
-1 -13 -12 -21 -34 -24 -18 -102 21 -104 8 0 5 -4 -6 -8 -11 -5 -22 -5 -25 -1
-3 3 -13 9 -23 13 -9 3 -24 22 -33 41 -19 39 -12 71 12 62 12 -4 15 -2 10 9
-3 8 -2 14 2 13 4 -1 19 2 35 6 33 10 107 -2 88 -14 -7 -4 -9 -10 -4 -13 5 -3
15 -2 23 4 8 5 20 9 25 9 6 0 3 -5 -5 -10 -11 -7 -8 -10 16 -10 17 0 48 -7 68
-15 36 -15 37 -15 26 4 -9 19 -77 114 -130 183 -12 15 -60 49 -108 75 -48 26
-107 60 -132 75 -55 35 -99 47 -176 50 -33 1 -51 3 -41 6 9 2 17 8 17 13 0 15
112 10 171 -7z m1702 -34 c7 -27 35 -25 47 3 5 13 9 16 9 7 1 -16 -24 -57 -45
-75 -17 -14 -37 -83 -30 -101 4 -10 2 -13 -6 -8 -8 5 -9 0 -5 -17 4 -13 7 -28
7 -32 0 -5 5 -5 12 -1 7 5 8 3 3 -6 -6 -10 -11 -9 -23 6 -53 70 -56 178 -7
227 22 22 32 21 38 -3z m-2013 -5 c-14 -8 -20 -15 -15 -15 11 0 -15 -20 -27
-20 -18 0 -6 21 20 34 35 19 55 20 22 1z m-2635 -176 c26 -12 218 -86 270
-104 22 -7 89 -26 148 -41 113 -29 147 -47 177 -96 l18 -29 28 34 c16 19 43
41 59 50 42 21 275 89 418 122 109 25 119 26 136 11 17 -16 17 -18 -5 -63 -13
-25 -24 -53 -24 -60 0 -28 -44 -119 -86 -178 -55 -79 -166 -183 -221 -207 -56
-25 -164 -48 -226 -48 -38 0 -53 5 -73 25 -29 30 -40 31 -53 8 -6 -10 -11 -14
-11 -9 0 13 -30 -15 -30 -28 0 -18 45 -34 65 -23 13 7 32 5 64 -7 38 -13 63
-14 147 -7 113 10 156 25 261 94 118 77 181 161 239 314 18 49 24 85 25 156 1
79 3 86 10 47 20 -113 -3 -255 -57 -347 -34 -59 -148 -172 -223 -221 -111 -73
-150 -78 -521 -68 -107 3 -220 10 -250 16 -74 14 -181 80 -260 159 -112 113
-160 223 -160 363 0 133 46 179 135 137z m3134 -388 c54 -28 75 -56 22 -30
-53 25 -73 24 -111 -7 -36 -31 -34 -56 8 -91 19 -16 29 -19 39 -11 15 12 18
58 3 58 -5 0 -10 5 -10 10 0 17 29 11 50 -10 12 -12 20 -33 19 -52 0 -18 -3
-27 -6 -20 -2 6 -9 12 -15 12 -6 0 -7 -8 -4 -17 8 -20 -10 -33 -46 -33 -58 0
-105 42 -115 105 -14 84 77 131 166 86z m1185 -80 c-2 -3 -10 -6 -17 -7 -7 -1
-27 -4 -45 -7 -18 -3 -30 -1 -26 4 3 5 8 8 12 5 4 -2 16 0 27 4 22 8 57 9 49
1z m76 -51 c22 -7 22 -8 5 -10 -11 -1 -33 -4 -49 -6 -35 -4 -70 -38 -80 -77
-10 -42 -40 -32 -44 14 -5 55 33 89 95 88 26 -1 59 -5 73 -9z m-1449 -76 c80
-40 87 -156 12 -194 -15 -8 -31 -19 -35 -24 -10 -14 0 -31 20 -34 87 -10 102
-6 140 36 15 17 22 21 22 10 0 -23 -45 -63 -87 -77 -71 -23 -154 23 -125 69
10 17 10 26 -3 50 -17 32 -20 86 -6 94 23 14 42 -7 40 -43 -2 -27 1 -35 11
-33 46 11 54 65 15 102 -30 28 -86 31 -115 5 -34 -31 -40 -68 -19 -115 23 -51
23 -50 4 -50 -25 0 -55 60 -55 111 0 97 85 141 181 93z m191 -35 c-18 -17 -32
-35 -32 -40 0 -15 39 -10 65 7 19 12 28 14 38 5 8 -6 18 -7 22 -3 5 4 5 1 1
-6 -6 -10 -11 -10 -22 -1 -11 9 -15 8 -20 -4 -3 -9 -13 -15 -22 -15 -9 0 -21
0 -27 -2 -24 -6 -46 1 -65 22 -28 30 -25 38 13 38 17 0 41 7 51 15 33 25 32
17 -2 -16z m-5344 -44 c-10 -23 -28 -26 -28 -4 0 6 4 8 9 5 5 -3 11 1 15 9 3
8 8 15 10 15 3 0 1 -11 -6 -25z m5422 -34 c0 -5 -3 -16 -6 -25 -6 -16 -24 -12
-24 5 0 6 5 7 12 3 8 -5 9 -2 5 9 -3 10 -2 17 3 17 6 0 10 -4 10 -9z m-18 -65
c7 5 8 2 3 -5 -4 -7 -11 -25 -15 -39 -7 -22 -8 -17 -8 23 0 28 2 42 5 32 2 -9
9 -14 15 -11z m1314 -118 c-41 -85 -124 -148 -197 -148 -28 0 -43 -8 -74 -41
-64 -65 -106 -82 -210 -85 -49 -1 -76 0 -60 3 62 10 201 54 215 68 12 13 10
14 -17 6 -30 -9 -113 6 -113 20 0 4 27 7 59 6 43 0 69 6 96 21 22 13 53 22 78
22 60 0 157 54 157 87 0 24 -81 15 -137 -16 -62 -34 -69 -27 -15 16 55 44 76
53 126 53 33 0 52 6 73 24 34 30 42 14 19 -36z m-1196 29 c0 -2 -12 -14 -26
-28 l-26 -24 13 28 c7 15 18 27 26 27 7 0 13 -1 13 -3z m-4740 -66 c0 -29 -29
-61 -56 -61 -17 0 -12 69 6 80 30 19 50 12 50 -19z m4345 17 c33 -15 32 -30
-2 -26 -17 2 -29 10 -31 21 -4 20 -1 21 33 5z m-1015 -48 c0 -21 -27 -40 -59
-40 -45 0 -12 -39 34 -41 l30 -1 -34 -8 c-32 -8 -38 -5 -73 33 -20 23 -37 46
-38 51 0 4 19 5 43 2 30 -5 48 -2 62 8 27 21 35 20 35 -4z m-4030 -10 c-8 -6
-41 -22 -72 -36 -32 -15 -58 -30 -58 -35 0 -5 -7 -6 -15 -3 -8 4 -15 2 -15 -3
0 -5 -19 -10 -42 -11 -40 -2 -38 0 37 27 44 15 98 37 120 49 41 22 72 30 45
12z m5214 1 c3 -5 -5 -12 -19 -15 -35 -9 -59 -49 -49 -83 4 -16 9 -39 10 -52
3 -23 2 -23 -14 -7 -25 24 -23 117 2 145 19 21 60 28 70 12z m296 -31 c-8 -5
-24 -10 -35 -10 -17 0 -17 2 -5 10 8 5 24 10 35 10 17 0 17 -2 5 -10z m-74
-25 c16 -12 16 -14 3 -15 -9 0 -22 7 -29 15 -16 19 0 19 26 0z m-1489 -78 c7
-4 13 -13 13 -18 0 -6 -5 -7 -11 -4 -5 4 -25 -10 -42 -30 l-33 -38 -32 17
c-38 20 -44 45 -8 39 27 -6 66 36 66 71 0 19 1 19 17 -4 9 -14 23 -29 30 -33z
m-4419 28 c18 7 62 -5 62 -16 0 -12 -67 -11 -153 2 -101 16 -103 27 -5 17 46
-4 89 -6 96 -3z m202 5 c-14 -4 -38 -8 -53 -9 -16 -1 -26 -5 -23 -10 8 -12
-26 -9 -40 4 -12 10 43 21 111 22 29 1 29 1 5 -7z m-442 -35 c28 -26 49 -34
36 -13 -4 7 -3 8 5 4 6 -4 8 -12 5 -18 -5 -7 0 -9 14 -6 13 4 20 2 19 -6 -1
-6 8 -11 20 -10 12 0 20 -3 18 -7 -6 -8 26 -22 33 -14 3 3 -1 5 -8 5 -7 0 -11
2 -8 5 9 9 38 -6 38 -19 0 -18 47 -37 115 -46 33 -5 98 -16 145 -25 58 -11
130 -15 229 -13 l143 2 15 -27 c7 -15 10 -27 6 -26 -22 4 -54 -2 -50 -8 3 -5
-7 -9 -21 -10 -15 -1 -56 -8 -92 -16 -36 -7 -76 -11 -90 -7 -16 4 -43 0 -73
-11 -26 -11 -60 -19 -75 -19 -26 1 -198 50 -291 85 -24 9 -49 14 -55 11 -6 -2
-3 -5 7 -5 10 -1 16 -5 12 -10 -3 -5 3 -16 13 -23 10 -7 27 -26 37 -41 l18
-28 -59 26 c-32 15 -69 31 -82 36 -28 11 -40 38 -21 50 12 7 12 9 0 9 -12 0
-13 2 -2 13 8 8 42 12 104 11 l91 -1 -104 53 c-58 29 -130 61 -160 70 l-54 17
34 17 c48 24 57 24 88 -5z m4768 -13 c30 -16 30 -18 18 -47 -10 -23 -13 -25
-14 -10 0 17 -2 17 -10 5 -8 -12 -10 -11 -10 8 0 12 -4 22 -10 22 -5 0 -14 9
-20 20 -14 25 2 26 46 2z m1294 -17 c0 -3 -13 -11 -30 -20 -34 -18 -47 -56
-31 -91 12 -28 5 -30 -27 -8 -21 14 -33 72 -12 59 5 -3 16 8 25 24 11 22 20
28 32 24 9 -4 14 -2 10 3 -3 6 3 11 14 11 10 1 19 0 19 -2z m-1360 -31 c0 -8
-5 -12 -11 -9 -6 4 -22 -4 -36 -16 -27 -25 -22 -7 6 23 20 21 41 23 41 2z
m1951 -21 c10 -11 10 -14 2 -9 -7 4 -13 2 -13 -3 0 -6 5 -11 10 -11 16 0 12
-26 -7 -42 -40 -35 -293 -156 -373 -178 -25 -7 -48 -17 -51 -22 -4 -5 -9 -3
-12 6 -4 9 9 30 35 56 50 50 75 63 148 80 86 19 125 39 182 91 29 26 56 48 59
49 4 0 13 -8 20 -17z m-2016 -80 c1 -21 5 -49 9 -63 4 -14 -3 -5 -15 20 -27
53 -28 61 -16 78 14 18 19 8 22 -35z m-1561 -132 c21 -23 12 -49 -10 -30 -7 6
-20 9 -29 6 -22 -9 -30 14 -10 30 24 17 29 17 49 -6z m-2549 -6 c-48 -16 -85
-18 -85 -6 0 10 40 17 95 18 28 1 27 0 -10 -12z m2469 -51 c14 -25 23 -50 20
-55 -10 -16 -52 -10 -58 9 -19 68 -17 110 4 97 5 -3 20 -26 34 -51z m3200 10
c3 -8 2 -12 -4 -9 -6 3 -10 1 -10 -5 0 -6 -5 -8 -10 -5 -8 5 -7 11 1 21 14 18
16 17 23 -2z m-3099 -33 c0 -22 -3 -37 -7 -34 -14 8 -8 73 6 73 1 0 1 -18 1
-39z m1385 -41 c0 -5 -9 -14 -20 -20 -17 -9 -20 -8 -20 10 0 13 7 20 20 20 11
0 20 -4 20 -10z m100 -80 c0 -5 -11 -17 -25 -26 -20 -13 -25 -24 -25 -60 0
-38 -4 -45 -30 -59 -35 -18 -35 -17 -15 21 8 16 15 42 15 57 0 16 10 38 25 52
24 25 55 33 55 15z m1270 -64 c0 -3 -24 -18 -52 -34 -61 -35 -221 -83 -270
-81 -18 1 -24 3 -13 5 11 2 45 9 75 15 50 10 182 68 205 90 9 9 55 13 55 5z
m-2896 -24 c53 -19 82 -49 91 -97 6 -30 6 -29 -14 6 -29 52 -96 75 -161 54
-33 -10 -25 -52 17 -91 43 -40 83 -44 112 -13 l19 21 7 -22 c12 -37 -26 -65
-84 -64 -58 1 -92 20 -114 66 -29 61 -31 101 -7 131 26 32 61 35 134 9z m-805
-48 c2 -2 -14 -4 -37 -4 -30 0 -42 4 -42 14 0 12 7 12 38 4 20 -5 39 -12 41
-14z m796 -24 c3 -5 15 -10 26 -10 10 0 19 -7 19 -15 0 -11 -7 -14 -25 -9 -14
3 -31 1 -39 -5 -14 -12 -26 4 -26 35 0 16 36 19 45 4z m1459 -102 c29 -41 20
-64 -36 -98 -29 -18 -47 -26 -40 -19 6 7 12 21 12 30 0 13 7 17 28 16 23 -2
27 2 30 29 4 39 -20 51 -55 28 -17 -10 -23 -22 -20 -35 4 -15 0 -19 -19 -19
-34 0 -33 42 2 69 35 28 79 27 98 -1z m1159 -23 c112 -53 230 -174 283 -288
26 -58 43 -167 26 -167 -6 0 -24 -14 -41 -31 -17 -17 -31 -29 -31 -26 0 15 23
67 30 67 16 0 21 39 11 77 -9 32 -80 158 -81 143 0 -3 11 -27 25 -54 14 -27
25 -60 25 -73 0 -32 -17 -63 -34 -63 -25 0 -64 59 -76 113 -19 92 -79 190
-143 234 -23 15 -50 35 -60 44 -17 16 -17 17 0 23 15 6 15 8 3 16 -31 20 11 9
63 -15z m-4189 -10 c4 -11 14 -13 37 -8 23 4 30 3 25 -5 -5 -9 11 -12 56 -12
35 -1 76 -6 92 -13 l29 -13 -36 -26 c-53 -41 -102 -115 -127 -193 -22 -69 -66
-158 -102 -204 -22 -29 -23 -39 -2 -37 9 0 19 -5 22 -13 3 -8 0 -11 -7 -7 -11
7 -14 -4 -14 -60 l0 -32 -42 44 c-44 47 -67 53 -103 28 -21 -14 -22 -14 -22 9
0 47 30 193 55 271 30 93 72 157 126 193 53 35 41 42 -16 9 -66 -39 -107 -109
-146 -246 -18 -63 -38 -122 -44 -130 -7 -8 -16 -33 -20 -55 -4 -22 -10 -58
-15 -80 -7 -39 -8 -39 -9 -7 -2 50 -46 130 -77 138 -23 6 -25 10 -19 48 15 98
43 147 156 270 57 63 162 146 184 146 7 0 15 -7 19 -15z m434 -36 c28 -10 31
-14 28 -47 -2 -21 -13 -56 -24 -79 -12 -23 -22 -47 -22 -54 0 -22 -78 -176
-129 -256 -48 -76 -51 -84 -51 -146 0 -70 -14 -89 -25 -37 -13 61 -98 114
-150 94 -14 -6 -16 -3 -12 12 4 10 16 73 27 139 12 66 25 136 30 155 24 89
144 208 223 221 64 10 71 10 105 -2z m3473 -60 c46 -36 96 -113 115 -176 8
-27 21 -91 29 -143 9 -52 17 -104 20 -115 4 -18 0 -20 -33 -17 -52 5 -98 -37
-108 -98 -8 -49 -18 -38 -29 30 -8 54 -27 96 -73 170 -37 58 -56 110 -42 110
5 0 11 -10 13 -22 3 -13 2 7 0 44 -7 89 0 110 46 141 l40 27 15 -22 c8 -12 13
-25 10 -30 -3 -4 3 -5 12 -1 14 5 16 3 11 -11 -4 -10 -3 -15 4 -11 25 16 -42
123 -93 149 l-33 17 29 -6 c17 -3 46 -20 67 -36z m273 0 c25 -23 58 -60 71
-84 31 -52 71 -204 81 -306 7 -69 6 -73 -10 -60 -28 24 -75 16 -112 -20 l-32
-31 -7 48 c-10 69 -20 106 -55 208 -16 49 -30 95 -30 104 0 8 -10 34 -21 57
-25 50 -20 94 11 102 11 3 17 9 14 14 -3 5 6 9 19 9 14 0 44 -17 71 -41z m803
-36 c-7 -68 -42 -128 -95 -161 -88 -56 -164 -50 -317 24 -75 37 -77 43 -5 18
66 -24 194 -22 250 3 58 25 107 77 122 126 8 27 14 34 20 25 6 -9 8 -3 5 17
-5 28 -4 29 10 10 9 -13 13 -34 10 -62z m-4295 11 c29 -15 30 -18 26 -63 -3
-31 -15 -63 -35 -92 -17 -24 -51 -86 -77 -136 -25 -51 -50 -93 -54 -93 -4 0
-14 -27 -21 -59 l-13 -60 -38 40 c-39 42 -68 48 -115 27 -14 -6 -27 -9 -30 -6
-10 10 45 178 88 270 46 94 98 156 152 178 32 14 84 11 117 -6z m3026 -211
c47 -91 92 -206 92 -234 0 -7 -10 -3 -23 9 -35 33 -72 27 -124 -21 -26 -23
-32 -94 -11 -115 19 -19 -3 -14 -47 11 -44 25 -45 31 -20 123 17 60 47 101 78
107 17 3 15 5 -8 6 -24 1 -37 11 -62 49 -36 52 -42 92 -17 116 20 21 27 20 42
-5 10 -15 16 -18 26 -10 10 9 16 4 26 -19 7 -17 17 -33 21 -36 14 -8 -39 107
-59 131 -10 11 -28 36 -40 55 -19 28 -13 25 26 -17 29 -30 70 -92 100 -150z
m-4094 -188 c-26 -19 -31 -9 -8 16 11 12 20 16 22 9 2 -6 -4 -17 -14 -25z
m236 -52 c0 -5 -7 -30 -14 -58 l-14 -50 -1 51 c-1 28 2 54 6 57 9 9 23 9 23 0z
m530 -18 c0 -13 -30 -62 -44 -74 -14 -12 -16 -10 -16 11 0 29 26 68 46 68 8 0
14 -2 14 -5z m-293 -25 c3 -16 -13 -47 -21 -40 -2 3 -8 18 -12 34 -6 24 -4 27
12 24 10 -2 20 -10 21 -18z m1480 -307 c-3 -10 -5 -2 -5 17 0 19 2 27 5 18 2
-10 2 -26 0 -35z m823 -103 c0 -36 -10 -61 -21 -54 -10 6 -12 54 -3 78 9 24
24 9 24 -24z m-1330 14 c0 -10 -6 -14 -14 -11 -9 4 -19 -5 -26 -24 -7 -16 -17
-32 -23 -36 -13 -8 -1 55 14 74 16 18 49 17 49 -3z m630 -29 c0 -45 -12 -60
-24 -29 -12 31 -7 74 9 74 11 0 15 -12 15 -45z m-360 -41 c-5 -20 -16 -44 -24
-53 -15 -14 -16 -13 -16 15 0 29 24 74 40 74 4 0 4 -16 0 -36z"/>
<path d="M5027 8016 c-16 -17 -26 -25 -22 -18 7 14 -11 17 -20 2 -3 -5 -12 -7
-19 -4 -8 3 -17 1 -21 -5 -3 -6 0 -9 8 -5 30 11 37 -20 15 -65 -29 -58 -16
-69 53 -43 57 21 76 52 59 95 -8 21 -9 21 -9 -4 -1 -15 -8 -30 -17 -33 -39
-15 -46 29 -12 74 29 40 20 44 -15 6z"/>
<path d="M5090 7840 c20 -13 60 -13 60 0 0 6 -17 10 -37 10 -28 0 -34 -3 -23
-10z"/>
<path d="M5025 7809 c-28 -45 65 -104 125 -79 42 18 74 58 59 76 -16 19 -27
17 -34 -6 -9 -27 -50 -53 -72 -46 -10 3 -27 19 -36 36 -19 31 -31 37 -42 19z"/>
<path d="M5010 7674 c-6 -14 -10 -27 -10 -30 0 -9 36 -3 59 10 l24 13 -24 17
c-31 22 -38 20 -49 -10z"/>
<path d="M5186 7685 c-3 -8 -14 -15 -25 -15 -26 0 -36 -17 -14 -23 88 -25 110
-16 77 31 -18 26 -30 28 -38 7z"/>
<path d="M5100 7535 c0 -16 27 -32 37 -21 7 7 -16 36 -28 36 -5 0 -9 -7 -9
-15z"/>
<path d="M6192 8591 l-32 -19 25 -6 c27 -7 75 2 75 13 0 9 -22 31 -29 30 -4 0
-21 -8 -39 -18z"/>
<path d="M5790 8595 c0 -10 40 -24 54 -19 28 11 17 24 -19 24 -19 0 -35 -2
-35 -5z"/>
<path d="M6062 8540 l-23 -10 31 -39 c46 -57 126 -83 229 -75 86 8 97 12 109
38 9 20 7 27 -7 40 -22 20 -32 20 -25 1 6 -15 -11 -45 -25 -45 -4 0 -13 16
-20 35 -8 24 -20 37 -37 41 -32 8 -55 -11 -25 -21 12 -3 21 -13 21 -20 0 -20
-50 -32 -61 -14 -5 9 -27 14 -60 14 -56 0 -77 18 -34 29 15 4 25 12 22 19 -5
15 -64 19 -95 7z"/>
<path d="M6560 7665 c33 -19 50 -18 26 0 -11 8 -27 15 -35 15 -10 -1 -7 -6 9
-15z"/>
<path d="M4995 7033 c-140 -30 -265 -105 -306 -184 -26 -51 -26 -147 0 -197
30 -58 67 -86 206 -161 94 -50 135 -77 148 -99 20 -35 31 -75 16 -67 -5 4 -9
1 -9 -6 0 -7 -3 -9 -6 -6 -4 4 -22 -7 -41 -23 -70 -62 -223 -125 -353 -146
-95 -16 -253 -15 -295 2 -17 7 -18 6 -8 -8 25 -30 158 -53 303 -52 127 0 139
2 205 30 80 34 124 63 210 134 33 28 80 60 105 72 25 12 56 29 70 38 14 10 63
29 109 44 137 44 213 90 251 151 19 30 19 35 4 84 -8 29 -22 55 -30 58 -8 3
-14 18 -14 36 0 81 -101 203 -213 256 -73 35 -178 61 -242 60 -22 0 -71 -7
-110 -16z m227 -22 c87 -22 164 -59 193 -91 15 -17 6 -14 -40 13 -118 69 -287
85 -386 38 -24 -12 -50 -21 -58 -21 -9 0 1 -11 21 -25 65 -44 79 -107 32 -144
-46 -36 -94 -23 -94 26 0 16 -8 27 -24 33 -13 5 -29 17 -34 26 -9 16 -12 15
-36 -9 -14 -14 -26 -37 -26 -52 0 -35 -19 -32 -26 5 -4 16 -10 27 -15 24 -5
-3 -9 2 -9 10 0 28 72 97 132 127 118 59 241 73 370 40z m278 -361 c-25 -49
-72 -81 -166 -116 -47 -17 -92 -43 -130 -75 -32 -27 -67 -49 -79 -49 -11 0
-43 18 -70 41 -62 51 -101 71 -193 99 -81 25 -94 35 -29 25 69 -12 140 -42
208 -90 35 -25 74 -45 85 -45 12 0 44 18 70 40 27 22 80 52 119 67 96 37 147
70 175 109 30 45 35 43 10 -6z"/>
<path d="M3213 6827 c-24 -30 -24 -37 -2 -37 12 0 19 3 16 7 -4 3 -2 12 4 19
6 7 6 14 1 18 -6 3 -14 0 -19 -7z"/>
<path d="M3148 6718 c-15 -35 -16 -44 -4 -66 l13 -26 12 22 c7 14 9 37 4 66
l-8 45 -17 -41z"/>
<path d="M3300 6581 c0 -14 18 -23 31 -15 8 4 7 9 -2 15 -18 11 -29 11 -29 0z"/>
<path d="M3196 6325 c-3 -8 -1 -15 4 -15 6 0 10 5 10 11 0 5 4 8 9 4 5 -3 12
-1 16 5 3 5 -3 10 -13 10 -11 0 -22 -7 -26 -15z"/>
<path d="M2550 6692 c0 -14 54 -52 72 -52 13 0 58 39 47 41 -2 0 -22 1 -44 3
-22 1 -48 6 -57 10 -11 5 -18 4 -18 -2z"/>
<path d="M2463 6675 c-3 -9 -3 -18 0 -21 9 -9 27 6 27 22 0 19 -19 18 -27 -1z"/>
<path d="M2753 6633 c-25 -9 -12 -31 29 -52 49 -24 58 -20 38 16 -16 27 -46
43 -67 36z"/>
<path d="M2491 6621 c-7 -5 -9 -11 -4 -14 5 -3 15 -2 22 2 7 5 9 11 4 14 -5 3
-15 2 -22 -2z"/>
<path d="M7440 6620 c-11 -11 -20 -31 -20 -45 l0 -25 31 19 c18 11 37 17 43
15 12 -4 37 41 28 51 -13 12 -64 3 -82 -15z"/>
<path d="M5712 5698 c-65 -87 -150 -159 -232 -196 -185 -83 -266 -105 -385
-105 -88 0 -232 19 -290 38 -16 6 -17 5 -5 -4 29 -22 146 -52 235 -62 216 -23
446 43 583 167 53 48 152 198 139 210 -3 3 -23 -18 -45 -48z"/>
<path d="M7491 5716 c-7 -8 -28 -20 -47 -26 -35 -12 -43 -24 -23 -35 17 -11
66 15 78 42 14 30 9 40 -8 19z"/>
<path d="M4446 4757 c-11 -8 -17 -19 -15 -25 2 -6 17 0 34 14 32 25 14 35 -19
11z"/>
<path d="M4340 4650 c0 -5 12 -10 26 -10 14 0 23 4 19 10 -3 6 -15 10 -26 10
-10 0 -19 -4 -19 -10z"/>
<path d="M4293 4594 c0 -17 5 -24 18 -24 11 0 19 3 19 8 0 4 -8 15 -19 24 -17
15 -18 14 -18 -8z"/>
<path d="M4333 4516 c-75 -37 -82 -57 -20 -55 24 1 49 -1 55 -5 8 -5 12 1 12
14 0 12 5 30 11 41 18 35 5 36 -58 5z"/>
<path d="M3361 3794 c35 -76 45 -94 51 -94 12 0 10 5 -13 50 -18 33 -50 72
-38 44z"/>
<path d="M4281 2870 c-31 -5 -51 -15 -67 -35 -12 -16 -35 -34 -51 -40 l-28
-12 26 -8 c18 -4 39 0 67 14 55 28 61 27 61 -11 0 -18 3 -52 6 -75 8 -50 -7
-102 -39 -132 l-24 -22 -52 26 c-29 15 -50 23 -48 18 14 -31 27 -62 34 -88 10
-33 34 -41 91 -30 24 4 40 15 51 36 9 16 22 29 28 29 6 0 19 8 28 19 16 17 15
20 -9 49 -43 52 -29 91 16 42 17 -18 34 -28 43 -24 13 5 12 9 -7 24 -18 15
-20 22 -11 37 9 14 8 20 -4 29 -14 10 -14 19 -4 66 14 63 10 84 -21 92 -24 6
-24 6 -86 -4z m75 -289 c-13 -20 -26 -11 -26 16 0 25 1 26 16 11 9 -9 13 -21
10 -27z m-150 -46 c10 -8 35 -15 54 -15 33 -1 34 -1 16 -15 -11 -8 -29 -15
-41 -15 -26 0 -65 27 -65 46 0 18 11 18 36 -1z"/>
<path d="M4053 2833 c-9 -16 -21 -35 -27 -43 -9 -13 -8 -13 9 1 11 8 33 21 49
27 23 10 26 15 16 27 -18 21 -27 19 -47 -12z"/>
<path d="M4058 2763 c-20 -5 -23 -18 -8 -28 12 -7 40 12 40 26 0 9 -4 10 -32
2z"/>
<path d="M4117 2711 c-9 -16 -17 -34 -17 -40 0 -15 78 -53 102 -49 22 3 49 61
40 86 -7 19 -40 14 -54 -8 -18 -29 -36 -25 -45 10 l-8 31 -18 -30z"/>
<path d="M3936 2690 c-15 -23 -38 -45 -51 -50 -29 -11 -33 -30 -7 -30 26 0
102 85 102 114 0 17 -21 1 -44 -34z"/>
<path d="M4020 2691 c0 -12 -4 -19 -10 -16 -6 3 -10 -4 -10 -17 0 -18 2 -20
10 -8 8 13 10 12 10 -2 0 -12 8 -18 25 -18 l24 0 -21 38 c-29 49 -28 49 -28
23z"/>
<path d="M4046 2571 c-19 -21 -19 -23 -2 -53 11 -18 18 -48 18 -74 -1 -37 2
-44 18 -44 51 0 82 82 37 99 -31 12 -45 30 -49 65 l-3 28 -19 -21z"/>
<path d="M3864 2546 c-3 -8 -1 -23 5 -33 9 -16 10 -16 11 5 0 27 21 29 45 2
23 -25 28 -20 16 14 -8 20 -17 26 -41 26 -17 0 -33 -6 -36 -14z"/>
<path d="M4001 2473 c-1 -24 -6 -33 -18 -34 -31 -2 -48 2 -65 18 -21 18 -24
11 -5 -9 7 -7 20 -26 31 -42 l18 -28 25 36 c16 24 23 46 20 64 -4 25 -4 24 -6
-5z"/>
<path d="M4193 2330 c-22 -9 -73 -76 -73 -96 0 -6 -7 -17 -16 -25 -12 -10 -20
-10 -35 0 -18 11 -19 10 -10 -8 17 -31 28 -33 44 -10 14 20 16 20 40 4 27 -17
65 -13 105 11 25 16 30 54 7 54 -8 0 -15 -5 -15 -11 0 -18 -32 -38 -62 -39
-16 0 -28 3 -28 6 0 11 63 79 79 85 18 7 67 -14 74 -33 3 -7 6 -4 6 8 2 42
-68 75 -116 54z"/>
<path d="M4046 2271 c-11 -4 -15 -10 -10 -13 5 -3 23 0 39 7 23 10 25 13 10
13 -11 1 -29 -3 -39 -7z"/>
<path d="M4428 2213 c-14 -3 -18 -18 -20 -75 l-3 -70 -40 -4 c-38 -3 -41 -2
-57 36 -18 44 -46 56 -103 46 -30 -6 -36 -12 -45 -45 -7 -26 -7 -48 0 -65 12
-32 35 -36 24 -3 -12 33 -8 67 9 84 13 13 18 13 43 0 42 -22 70 -55 57 -68
-12 -12 -53 4 -53 21 0 6 -4 10 -10 10 -15 0 -12 -36 3 -48 7 -6 44 -11 83
-10 49 2 78 -3 102 -15 l32 -18 -2 28 c-1 15 -1 58 0 96 2 60 4 67 22 67 27 0
35 -22 19 -51 -12 -23 -12 -23 12 -8 33 22 35 46 8 75 -21 23 -43 27 -81 17z"/>
<path d="M4225 1966 c-47 -11 -50 -13 -47 -41 4 -39 43 -123 71 -155 13 -14
20 -19 16 -12 -9 17 10 15 25 -3 16 -20 73 -19 115 1 39 18 75 91 75 150 0 50
-13 34 -34 -38 -9 -32 -26 -67 -38 -78 -69 -64 -191 -7 -205 97 -8 59 15 77
85 69 65 -8 88 -19 98 -48 6 -21 7 -21 22 7 14 27 13 30 -8 47 -26 21 -97 23
-175 4z"/>
<path d="M4290 1905 c7 -8 18 -15 25 -15 19 0 27 -30 13 -47 -7 -9 -23 -13
-40 -11 -22 4 -25 2 -17 -9 20 -23 91 -7 103 23 8 21 -42 74 -71 74 -22 0 -24
-2 -13 -15z"/>
<path d="M4252 1888 c-7 -7 -12 -19 -12 -27 0 -11 4 -10 20 4 21 19 26 35 12
35 -4 0 -13 -5 -20 -12z"/>
<path d="M5920 4651 c-48 -9 -55 -15 -90 -66 -34 -49 -37 -70 -14 -79 19 -7
57 11 49 24 -10 16 13 47 45 60 27 11 32 10 48 -10 23 -28 44 -18 40 18 -2 26
-25 63 -37 61 -3 -1 -22 -4 -41 -8z"/>
<path d="M6927 4384 c-12 -12 18 -44 42 -44 l24 0 -23 25 c-24 26 -32 29 -43
19z"/>
<path d="M6112 2686 c-26 -23 -31 -24 -42 -11 -19 23 -30 18 -30 -12 0 -17 13
-42 31 -62 27 -29 35 -33 57 -25 14 5 34 21 45 36 17 22 18 33 11 60 -12 42
-33 46 -72 14z m58 -26 c0 -20 -29 -35 -42 -22 -10 10 20 54 33 47 5 -4 9 -14
9 -25z"/>
<path d="M5765 2650 c1 -27 -1 -47 -4 -46 -8 5 -55 -46 -59 -63 -2 -8 3 -11
13 -8 8 4 22 4 31 0 13 -5 13 -7 2 -15 -10 -7 -8 -12 10 -27 24 -20 31 -78 12
-97 -7 -7 -6 -22 5 -47 18 -44 21 -81 4 -57 -8 12 -9 9 -5 -12 3 -15 1 -30 -4
-33 -11 -7 -4 -25 10 -25 5 0 11 8 13 18 4 16 5 16 6 -1 0 -10 -7 -21 -16 -24
-15 -6 -15 -7 3 -14 18 -7 18 -8 -1 -8 -18 -1 -39 -33 -42 -65 -1 -5 -7 -13
-15 -17 -10 -7 -9 -9 4 -9 9 0 23 -3 32 -6 12 -5 16 1 16 23 0 51 24 73 81 73
27 0 49 -4 49 -10 0 -5 6 -10 14 -10 26 0 65 -44 80 -90 13 -38 13 -47 2 -59
-20 -19 -33 -7 -41 39 -9 51 -28 70 -69 70 -40 0 -91 -42 -82 -67 5 -12 11 -8
29 18 25 37 50 47 72 29 21 -18 18 -53 -6 -84 -21 -27 -21 -28 -3 -61 16 -31
17 -39 5 -87 -8 -29 -25 -80 -39 -113 -35 -85 -72 -223 -72 -271 0 -65 17 -74
144 -74 115 0 146 -9 198 -57 23 -22 78 -40 78 -26 0 3 -23 30 -51 61 -62 70
-78 100 -89 165 -9 61 -1 87 40 123 44 40 37 48 -20 19 -67 -34 -102 -33 -134
5 -45 54 -46 122 -5 208 24 49 61 72 118 72 32 0 44 6 65 31 14 17 26 41 26
55 0 22 -4 24 -46 24 -32 0 -44 -4 -41 -12 2 -7 16 -13 31 -13 26 1 26 0 9
-12 -10 -8 -31 -13 -47 -11 -24 2 -31 9 -40 41 -6 20 -23 52 -38 71 -23 29
-34 34 -88 39 -68 6 -90 19 -90 53 0 47 47 49 92 3 21 -20 39 -29 61 -28 l32
1 -33 14 c-39 17 -49 37 -34 69 8 17 22 26 49 30 133 20 173 38 173 78 0 19
-3 18 -30 -8 -40 -38 -85 -38 -163 -2 -32 14 -55 22 -52 17 3 -5 0 -12 -6 -16
-7 -4 -9 -3 -5 4 7 11 -19 42 -36 42 -6 0 -3 -10 8 -22 10 -12 13 -18 5 -13
-8 4 -17 2 -22 -6 -6 -10 -8 -9 -8 6 0 42 -8 92 -18 109 -6 11 -7 35 -2 60 7
41 4 59 -9 40 -9 -13 -37 -12 -37 1 0 6 -4 16 -9 24 -7 11 -5 13 7 8 11 -4 14
-2 11 8 -3 7 -11 16 -18 18 -8 3 -12 -9 -11 -43z"/>
<path d="M5745 2360 c-5 -8 10 -50 19 -50 1 0 1 14 -2 30 -5 32 -7 36 -17 20z"/>
<path d="M6075 2315 c-27 -13 -58 -26 -67 -29 -16 -5 -16 -8 -4 -33 8 -15 20
-48 28 -73 l13 -45 3 62 c3 55 6 65 33 88 17 14 39 25 49 25 25 0 34 16 14 24
-19 7 -11 10 -69 -19z"/>
<path d="M5622 2212 c-1 -7 -6 -11 -11 -8 -11 7 -9 -13 3 -33 6 -10 5 -12 -2
-7 -7 4 -12 4 -12 -1 0 -12 18 -38 27 -39 4 0 16 -4 26 -9 11 -5 23 -3 30 5 9
10 9 11 0 6 -20 -11 -51 25 -56 64 -2 19 -5 29 -5 22z"/>
<path d="M5770 2007 c0 -3 19 -23 41 -46 37 -37 41 -45 36 -77 -8 -48 -29 -78
-80 -115 -35 -26 -49 -30 -84 -26 -59 6 -100 39 -118 95 l-15 47 5 -40 c11
-78 71 -127 154 -127 60 1 101 21 135 65 56 73 55 136 -2 189 -24 23 -72 46
-72 35z"/>
<path d="M5742 1921 c19 -31 2 -68 -42 -88 -44 -20 -51 -33 -17 -33 48 0 126
71 114 104 -3 7 -19 18 -36 24 -28 10 -29 9 -19 -7z"/>
<path d="M2936 3061 c-4 -5 0 -11 6 -14 15 -5 2 -11 -44 -21 -33 -7 -35 -24
-9 -54 20 -24 37 -30 25 -9 -5 8 -2 7 10 -2 13 -11 14 -16 4 -22 -10 -7 -9 -9
5 -9 9 0 17 -4 17 -9 0 -18 58 -23 87 -7 35 18 48 33 58 66 l7 25 -30 -28 -30
-28 -35 31 c-20 17 -39 44 -42 60 -7 30 -19 38 -29 21z"/>
<path d="M2606 3044 c-5 -13 8 -54 17 -54 2 0 1 16 -1 35 -5 39 -7 42 -16 19z"/>
<path d="M2735 2984 c0 -16 6 -24 17 -24 32 0 31 30 -2 42 -11 4 -15 -1 -15
-18z"/>
<path d="M2511 2861 c-1 -13 9 -33 22 -45 12 -12 29 -32 39 -46 14 -22 19 -23
37 -12 11 6 28 12 36 12 10 0 15 10 15 33 0 17 3 43 7 56 l6 24 -35 -26 c-50
-39 -105 -33 -121 13 -3 9 -6 6 -6 -9z"/>
<path d="M2637 2698 c-10 -5 -36 -8 -58 -6 -21 2 -39 0 -39 -5 0 -16 45 -87
56 -87 16 0 42 32 55 69 13 38 10 43 -14 29z"/>
<path d="M2692 2336 c7 -7 19 -11 26 -8 11 4 11 6 0 13 -7 5 -19 9 -26 9 -10
0 -10 -3 0 -14z"/>
<path d="M4800 3140 c14 -11 30 -19 35 -18 6 1 23 -2 39 -7 18 -5 31 -4 35 3
4 7 12 8 21 2 13 -8 13 -10 1 -10 -8 0 -12 -2 -9 -5 3 -3 13 -3 22 1 32 12 -2
35 -43 28 -21 -3 -54 1 -81 10 l-45 16 25 -20z"/>
<path d="M4509 9101 c-32 -33 -36 -57 -15 -87 12 -15 17 -16 27 -7 10 10 10
18 -1 37 -20 39 2 60 57 53 45 -5 56 5 24 23 -33 17 -61 11 -92 -19z"/>
<path d="M4672 9097 c-43 -45 -18 -117 40 -117 54 0 79 79 38 120 -26 26 -52
25 -78 -3z"/>
<path d="M4372 9038 c-34 -34 5 -118 56 -118 26 0 56 42 48 68 -16 50 -75 79
-104 50z m34 -35 c-11 -11 -19 6 -11 24 8 17 8 17 12 0 3 -10 2 -21 -1 -24z"/>
<path d="M4580 9008 c0 -13 -7 -34 -16 -46 -13 -19 -13 -22 -1 -22 8 0 20 6
26 14 17 20 19 68 4 73 -8 3 -13 -4 -13 -19z"/>
<path d="M8297 5241 c-48 -19 -81 -41 -74 -48 2 -2 34 8 71 22 92 35 145 33
232 -9 66 -31 71 -32 93 -17 15 10 46 16 80 16 80 0 141 -37 174 -106 26 -55
47 -52 23 3 -43 100 -162 151 -261 114 -45 -18 -45 -17 -102 11 -75 36 -167
42 -236 14z"/>
<path d="M8089 5100 c-25 -4 -68 -19 -95 -33 -53 -27 -157 -124 -181 -170 -21
-42 -9 -44 16 -3 30 49 131 139 183 165 24 11 73 27 108 35 69 15 47 19 -31 6z"/>
<path d="M8275 4950 c3 -5 12 -10 18 -10 7 0 41 -23 76 -50 63 -50 81 -59 81
-40 0 15 -140 110 -162 110 -11 0 -16 -4 -13 -10z"/>
<path d="M7705 4798 c-9 -24 -19 -72 -21 -108 l-4 -65 14 73 c8 40 19 86 25
104 17 48 6 45 -14 -4z"/>
<path d="M3189 4470 c-62 -99 -99 -160 -99 -165 0 -9 -52 -55 -61 -55 -5 0 -9
-7 -9 -17 0 -9 -3 -13 -6 -10 -4 3 -15 -4 -25 -17 -10 -12 -46 -38 -81 -56
-35 -18 -74 -42 -87 -52 -13 -10 -33 -18 -45 -19 -20 0 -20 0 2 -9 12 -5 22
-12 22 -14 0 -3 -10 -10 -22 -16 -22 -11 -22 -10 -4 4 11 9 14 16 7 16 -6 0
-23 -11 -36 -25 -14 -13 -25 -21 -25 -18 0 4 -5 2 -12 -5 -7 -7 -20 -12 -30
-12 -10 0 -18 -4 -18 -10 0 -5 17 -3 38 4 60 21 122 55 122 67 0 6 4 7 10 4
18 -11 125 54 211 129 109 94 238 283 193 283 -7 0 -11 -4 -8 -9 3 -4 1 -8 -5
-8 -5 0 -11 8 -13 18 -3 14 -6 13 -19 -8z"/>
<path d="M2455 3978 c-23 -6 -107 -8 -195 -5 -137 5 -152 4 -125 -8 17 -8 37
-14 46 -15 9 0 42 -9 74 -20 62 -21 120 -27 110 -10 -4 6 9 10 32 11 21 1 43
2 48 3 6 1 31 6 58 10 50 9 63 29 25 40 -13 3 -25 5 -28 5 -3 -1 -23 -5 -45
-11z"/>
<path d="M1770 3946 c0 -2 44 -29 98 -59 171 -97 295 -121 472 -92 128 21 219
46 328 93 98 41 102 55 5 19 -37 -14 -113 -35 -168 -48 -90 -20 -118 -21 -280
-16 -196 6 -261 19 -388 76 -37 17 -67 29 -67 27z"/>
<path d="M2066 3401 c-4 -6 -2 -20 4 -31 10 -19 6 -24 -20 -22 -3 0 -5 -33 -5
-73 0 -67 -3 -77 -31 -112 -17 -21 -59 -60 -93 -88 -42 -34 -57 -51 -46 -53
45 -10 182 114 206 186 7 20 20 49 29 65 l18 29 -4 -69 c-3 -47 -1 -62 5 -48
11 23 14 106 5 129 -3 9 -11 13 -17 9 -5 -3 -7 -1 -4 5 4 5 4 18 1 27 -5 13
-8 14 -15 3 -6 -10 -9 -8 -9 7 0 28 -16 50 -24 36z"/>
<path d="M1510 3160 c8 -5 28 -10 44 -10 39 0 30 6 -19 13 -27 4 -35 3 -25 -3z"/>
<path d="M1643 3095 c-23 -7 -72 -16 -110 -20 -74 -7 -89 -13 -55 -22 19 -5
20 -8 10 -21 -12 -13 -7 -14 42 -8 60 7 184 62 175 77 -7 11 -8 11 -62 -6z"/>
<path d="M1233 2702 c14 -18 35 -65 47 -105 29 -106 78 -194 125 -228 40 -28
213 -85 224 -73 3 3 -8 15 -24 27 -58 42 -188 173 -245 247 -32 41 -80 95
-106 120 -36 34 -41 37 -21 12z"/>
<path d="M1605 2225 c39 -7 102 -18 140 -24 119 -20 160 -38 208 -91 88 -98
90 -217 6 -297 -41 -39 -84 -58 -166 -72 -113 -21 -252 25 -355 118 -68 61
-109 147 -78 166 5 3 17 22 26 41 9 20 41 53 71 75 29 22 53 42 53 45 0 4 -30
3 -67 -1 -75 -8 -127 -37 -144 -82 -5 -13 -13 -22 -17 -19 -5 3 -16 -10 -24
-28 -12 -25 -14 -43 -7 -79 7 -40 24 -87 32 -87 1 0 2 21 2 47 0 28 5 48 13
50 7 3 12 -4 12 -17 0 -55 80 -149 161 -190 101 -52 167 -64 344 -62 167 2
240 14 367 62 102 38 144 105 118 184 -22 67 -176 185 -260 200 -29 5 -31 4
-12 -4 66 -28 144 -112 123 -133 -8 -8 -11 -6 -11 7 0 9 -4 14 -10 11 -5 -3
-10 -1 -10 4 0 6 -7 11 -16 11 -8 0 -12 5 -9 10 6 9 -8 14 -28 11 -5 -1 -6 3
-3 8 6 10 -58 71 -75 71 -6 0 -8 4 -5 8 8 13 -174 51 -299 62 -140 13 -169 11
-80 -5z m573 -290 c0 -16 -2 -15 -8 5 -11 34 -11 60 0 35 5 -11 8 -29 8 -40z"/>
<path d="M1524 2121 c-11 -5 -33 -24 -48 -41 l-27 -33 28 -29 c64 -67 141 -91
205 -65 42 18 55 47 38 87 -24 59 -138 106 -196 81z"/>
<path d="M1900 2074 c0 -4 8 -16 18 -27 11 -13 17 -35 17 -67 0 -42 -5 -54
-34 -84 -45 -46 -88 -66 -172 -78 -38 -6 -69 -14 -69 -19 0 -30 132 -15 221
24 102 45 125 112 70 199 -28 44 -51 67 -51 52z"/>
<path d="M2340 2044 c42 -48 50 -73 50 -150 0 -80 -19 -126 -73 -181 -45 -47
-38 -54 22 -24 137 70 174 253 69 347 -19 17 -77 44 -96 44 -2 0 10 -16 28
-36z"/>
<path d="M1770 1990 c0 -18 4 -29 10 -25 6 3 10 15 10 25 0 10 -4 22 -10 25
-6 4 -10 -7 -10 -25z"/>
<path d="M2508 1732 c4 -11 1 -13 -8 -7 -10 6 -12 4 -7 -9 8 -21 -29 -80 -44
-70 -5 3 -8 0 -7 -8 2 -7 -3 -12 -10 -10 -8 1 -11 -2 -8 -7 3 -5 -2 -12 -12
-16 -9 -3 -17 -5 -18 -3 0 2 -9 -4 -20 -12 -12 -9 -10 -3 6 15 14 17 31 34 38
38 6 4 12 13 12 19 0 6 -17 -5 -37 -23 -141 -126 -260 -143 -598 -84 -43 8
-81 12 -83 11 -8 -9 224 -57 315 -66 107 -10 173 -1 306 41 98 32 185 114 193
185 1 11 -4 21 -11 21 -8 0 -11 -7 -7 -15z"/>
</g>
</svg>
