<?xml version="1.0" standalone="no"?>
<!DOCTYPE svg PUBLIC "-//W3C//DTD SVG 20010904//EN"
 "http://www.w3.org/TR/2001/REC-SVG-20010904/DTD/svg10.dtd">
<svg version="1.0" xmlns="http://www.w3.org/2000/svg"
 width="1024.000000pt" height="1024.000000pt" viewBox="0 0 1024.000000 1024.000000"
 preserveAspectRatio="xMidYMid meet">
<metadata>
Created by potrace 1.16, written by Peter Selinger 2001-2019
</metadata>
<g transform="translate(0.000000,1024.000000) scale(0.100000,-0.100000)"
fill="currentColor" stroke="currentColor">
<path d="M3240 9764 c-51 -10 -188 -54 -241 -78 -68 -30 -207 -132 -279 -205
-110 -112 -243 -338 -299 -507 -27 -82 -69 -293 -83 -421 -7 -57 -15 -103 -19
-103 -5 0 -37 18 -73 41 -35 22 -109 56 -163 75 -117 42 -128 49 -219 135
-133 126 -211 143 -256 55 -19 -35 -22 -56 -21 -141 3 -196 57 -459 123 -593
19 -40 57 -91 101 -136 l70 -72 4 -65 c3 -35 7 -82 11 -103 l6 -39 -66 6 c-36
3 -66 3 -66 -2 0 -13 34 -40 75 -60 l38 -18 -27 -18 c-20 -13 -38 -16 -71 -12
-52 8 -57 -3 -20 -37 25 -23 79 -41 95 -31 20 13 24 -337 4 -389 -3 -8 -29
-15 -65 -19 -71 -6 -150 -47 -194 -101 -25 -32 -30 -46 -29 -94 0 -46 5 -65
28 -99 24 -36 28 -49 22 -83 -9 -56 10 -163 38 -219 26 -50 95 -120 142 -144
16 -8 46 -17 66 -21 35 -6 42 -14 84 -86 105 -182 270 -273 467 -257 40 3 135
22 212 42 113 29 327 64 393 65 8 0 12 -20 12 -67 0 -80 -29 -562 -35 -580 -3
-7 -12 -13 -22 -13 -32 0 -79 -37 -97 -75 -22 -47 -17 -115 12 -154 14 -19 17
-32 11 -42 -15 -25 -10 -108 10 -147 22 -42 43 -63 86 -83 29 -14 30 -17 33
-86 l3 -72 -38 -25 c-21 -14 -69 -37 -108 -52 -81 -31 -148 -34 -400 -20 -140
8 -168 7 -220 -9 -64 -18 -166 -84 -209 -136 -73 -86 -101 -202 -76 -310 12
-54 68 -175 119 -259 16 -25 62 -104 104 -176 149 -256 178 -336 197 -554 16
-181 33 -300 44 -300 5 0 24 14 42 31 l32 31 54 -104 c68 -128 84 -134 133
-45 31 55 34 58 46 39 40 -56 188 -160 209 -147 6 3 10 27 10 53 l0 47 41 -63
c22 -34 90 -115 152 -180 62 -65 138 -148 170 -185 83 -95 105 -92 185 30 86
131 142 347 142 544 0 172 -69 343 -193 475 l-29 32 56 25 c89 41 77 61 -54
92 -41 10 -76 19 -78 20 -2 2 11 26 29 55 18 29 28 55 23 60 -5 5 -76 4 -159
-2 -172 -12 -215 -5 -271 44 -36 32 -118 186 -112 212 2 11 24 5 98 -26 157
-66 341 -134 418 -156 68 -19 80 -27 160 -104 96 -92 183 -157 282 -211 78
-43 202 -93 253 -102 l37 -7 0 -92 c0 -50 9 -152 20 -226 26 -175 26 -181 -10
-239 -69 -112 -104 -241 -115 -421 -9 -140 -19 -189 -72 -355 -58 -180 -79
-216 -169 -294 -41 -35 -81 -79 -89 -97 -15 -37 -36 -51 -120 -79 -37 -12 -60
-26 -60 -34 0 -8 20 -30 45 -49 25 -19 46 -40 48 -47 6 -26 -111 -92 -196
-110 -40 -8 -53 -33 -27 -51 10 -7 51 -21 92 -30 61 -13 73 -19 68 -33 -16
-40 -45 -167 -45 -198 0 -37 15 -73 30 -73 6 0 19 15 31 33 l20 32 -7 -50 c-6
-46 -22 -105 -89 -324 -14 -46 -25 -92 -25 -102 0 -33 42 -51 122 -50 40 0
120 -2 176 -5 124 -6 328 16 428 47 103 32 163 75 215 155 61 93 101 166 134
246 l27 66 52 -24 c57 -26 104 -31 112 -11 3 8 -9 54 -26 104 -16 50 -30 103
-30 117 0 23 4 26 38 26 42 0 82 23 82 47 0 8 -23 53 -50 98 -61 101 -132 259
-151 335 -23 95 -16 191 25 328 53 182 121 309 212 397 40 39 77 83 83 98 14
36 14 122 0 186 -13 61 1 165 28 217 25 48 144 210 163 222 11 6 56 5 136 -5
227 -28 507 -4 787 67 65 17 119 30 121 30 2 0 16 -19 31 -42 101 -154 202
-236 422 -344 107 -52 173 -90 177 -101 16 -59 15 -82 -12 -159 -35 -100 -87
-180 -172 -265 -53 -53 -90 -78 -197 -133 -73 -37 -152 -85 -177 -107 -52 -46
-89 -59 -164 -59 -68 0 -73 -13 -33 -84 30 -51 31 -56 14 -64 -34 -18 -155
-52 -187 -52 -49 0 -76 -11 -76 -30 0 -25 26 -45 104 -79 43 -20 66 -36 63
-44 -66 -149 -85 -241 -53 -259 15 -8 11 -21 -37 -111 -30 -56 -78 -140 -106
-187 -28 -47 -51 -92 -51 -101 0 -29 30 -42 108 -50 42 -4 124 -12 182 -19
225 -24 529 28 644 111 73 52 170 201 215 330 7 21 15 28 23 23 7 -4 36 -23
65 -41 54 -34 100 -43 109 -20 3 8 -4 55 -16 105 -28 127 -29 122 29 122 49 0
81 17 81 43 0 7 -20 62 -45 122 -63 156 -62 244 4 352 49 79 242 293 338 375
159 136 220 197 263 262 22 35 40 68 40 75 0 9 8 11 28 6 15 -4 65 -15 111
-24 l84 -17 12 -39 c6 -22 26 -73 44 -114 39 -87 60 -238 61 -427 l0 -120 -41
-85 c-22 -46 -59 -112 -81 -147 -31 -47 -41 -73 -43 -109 -1 -42 -6 -49 -50
-85 -26 -21 -65 -48 -86 -60 -64 -36 -47 -61 49 -74 29 -4 55 -10 58 -15 2 -4
-18 -53 -46 -108 -27 -56 -50 -112 -50 -126 0 -22 4 -25 33 -25 17 0 52 9 76
20 24 11 45 19 47 17 4 -4 -71 -376 -86 -430 -10 -33 -9 -42 7 -59 17 -20 26
-20 253 -15 468 11 615 77 687 306 26 84 53 241 53 312 0 25 2 48 5 51 3 3 31
-8 61 -24 122 -61 147 -22 68 107 -76 124 -74 103 -10 167 78 79 76 86 -29
127 -75 30 -82 36 -90 72 -4 16 -31 58 -62 92 -71 81 -90 119 -115 230 -18 82
-19 116 -15 307 3 118 12 265 21 325 9 61 17 162 18 225 2 194 -31 237 -217
290 -60 16 -116 37 -125 46 -12 12 -15 46 -13 202 1 161 6 212 34 367 26 147
33 214 36 370 7 292 -24 485 -114 693 -19 46 -33 85 -31 88 9 9 115 -30 200
-72 48 -24 92 -44 98 -44 28 0 -6 97 -51 146 -27 29 -24 34 19 34 77 0 248 57
334 112 109 69 210 204 259 346 34 99 25 104 -62 32 -33 -28 -78 -59 -99 -70
-54 -28 -140 -61 -140 -54 0 3 21 31 47 62 94 115 153 292 153 461 0 115 -25
276 -55 356 -33 87 -184 385 -196 385 -21 0 -29 -59 -29 -229 0 -98 -3 -200
-7 -227 -6 -47 -7 -45 -30 79 -39 215 -134 425 -278 615 -112 148 -132 142
-92 -27 17 -71 21 -118 21 -276 0 -190 0 -190 -37 -312 -20 -67 -51 -151 -69
-185 l-32 -63 -7 66 c-8 72 -35 144 -75 196 -43 56 -51 46 -56 -79 -4 -87 -14
-146 -44 -257 l-38 -145 -20 30 c-31 44 -124 132 -147 139 -30 10 -33 0 -15
-46 43 -107 51 -322 17 -436 -12 -37 -25 -74 -29 -81 -6 -9 -32 0 -105 39
-168 88 -329 133 -592 165 -245 29 -478 7 -696 -66 -52 -17 -179 -74 -284
-125 -275 -137 -316 -149 -495 -149 -194 -1 -261 17 -485 130 -93 48 -176 91
-182 96 -7 6 -13 24 -13 40 0 37 -24 89 -54 117 -20 19 -22 26 -13 50 15 41 0
98 -37 138 -42 46 -115 57 -170 25 l-34 -20 -21 51 c-27 67 -56 200 -77 357
-25 189 -21 572 6 700 14 64 23 151 27 268 4 115 10 172 17 172 58 0 219 36
296 65 411 157 584 376 645 820 3 28 17 85 31 128 32 103 48 206 40 252 -6 29
-14 39 -41 51 -38 15 -40 15 -155 -39 -95 -44 -152 -62 -270 -86 -52 -11 -117
-27 -143 -36 -55 -18 -182 -84 -240 -123 -31 -20 -40 -23 -47 -12 -6 10 -22
11 -64 6 -53 -6 -56 -5 -47 12 35 65 239 233 371 306 84 46 264 113 349 130
347 71 718 -44 881 -272 55 -76 80 -162 80 -271 0 -101 -11 -144 -85 -327
-115 -285 -126 -386 -58 -522 35 -70 135 -163 215 -200 203 -96 446 -88 605
18 127 85 160 244 71 345 -39 45 -84 60 -139 45 -55 -15 -80 -32 -102 -70
l-18 -30 36 0 c53 0 89 -39 82 -88 -8 -45 -50 -86 -104 -101 -60 -17 -163 -13
-208 8 -91 41 -155 131 -155 217 0 76 49 214 135 386 117 230 137 303 139 488
1 127 -2 158 -26 251 -32 128 -62 198 -125 292 -177 267 -503 461 -920 548
-218 45 -523 34 -758 -27 -212 -55 -485 -176 -664 -295 -58 -38 -96 -58 -99
-51 -10 32 -87 134 -144 191 -102 103 -246 188 -383 226 -59 16 -293 29 -345
19z m116 -27 c57 -34 104 -81 104 -106 0 -25 -1 -25 -31 12 -36 43 -90 74
-148 83 -22 4 -38 10 -35 15 8 13 86 10 110 -4z m363 -96 c24 -47 34 -120 24
-168 -7 -35 -8 -31 -13 38 -4 56 -13 91 -33 129 -15 28 -27 54 -27 57 0 14 33
-24 49 -56z m1764 53 c3 -4 -4 -19 -15 -35 l-21 -29 21 -112 c12 -62 22 -128
22 -145 0 -47 -27 -43 -39 5 -61 231 -63 261 -26 297 23 24 45 31 58 19z
m-465 -116 c34 -46 76 -116 93 -157 32 -78 52 -190 31 -177 -7 4 -12 0 -13
-11 -1 -10 -5 4 -10 31 -11 67 -85 217 -147 298 -55 71 -64 98 -34 98 12 0 42
-31 80 -82z m841 33 c11 -7 9 -15 -10 -40 -22 -30 -28 -74 -38 -270 -1 -10 -4
-11 -15 -2 -18 15 -29 171 -16 219 11 41 46 102 57 102 5 0 14 -4 22 -9z
m-1299 -104 c0 -12 15 -45 33 -72 65 -96 200 -374 151 -310 -8 11 -19 20 -24
20 -5 0 -37 45 -71 100 -34 55 -79 126 -100 159 -42 63 -49 99 -21 115 26 16
32 13 32 -12z m-1547 -8 c32 -5 79 -21 105 -34 45 -23 135 -94 120 -95 -8 0
-37 22 -69 52 -9 9 -20 14 -23 11 -3 -4 -6 -1 -6 5 0 6 -8 9 -18 7 -10 -2 -43
3 -73 10 -75 17 -186 11 -266 -15 -36 -11 -67 -19 -69 -17 -9 9 64 66 96 75
48 14 134 14 203 1z m934 -46 c-3 -10 -5 -2 -5 17 0 19 2 27 5 18 2 -10 2 -26
0 -35z m2263 -8 c0 -3 -7 -16 -16 -30 -8 -13 -22 -68 -30 -122 -13 -86 -48
-192 -60 -180 -3 2 0 24 5 48 6 24 11 71 11 105 0 67 13 114 42 157 17 23 48
38 48 22z m-2275 -97 c-7 -32 -42 -108 -49 -108 -4 0 48 140 52 140 2 0 0 -15
-3 -32z m-246 -62 c-12 -25 -25 -49 -30 -52 -5 -3 3 19 18 50 15 30 29 54 31
52 2 -2 -7 -25 -19 -50z m-214 -45 c-9 -27 -23 -55 -31 -61 -9 -9 -6 9 11 54
14 37 25 70 26 74 0 4 3 1 6 -5 2 -7 -3 -35 -12 -62z m671 -13 c16 -35 82
-138 206 -321 15 -22 37 -51 49 -63 21 -22 21 -24 4 -31 -14 -5 -26 2 -47 28
-15 19 -65 80 -111 136 -93 115 -147 209 -147 259 0 47 23 43 46 -8z m2296 17
c3 -3 -3 -22 -13 -43 -11 -20 -19 -46 -19 -58 0 -26 -37 -135 -50 -148 -13
-13 -13 15 0 63 5 20 12 56 15 81 8 65 47 125 67 105z m-3551 -52 c28 -5 30
-7 14 -14 -11 -4 -42 -8 -68 -8 -90 -2 -250 -49 -314 -93 -34 -23 -43 -26 -43
-13 0 33 87 93 175 121 43 14 182 18 236 7z m2540 -60 c-11 -22 -38 -56 -60
-76 -42 -38 -58 -47 -44 -24 21 33 116 147 120 143 2 -2 -5 -22 -16 -43z m303
33 c-8 -20 -86 -101 -111 -114 -12 -7 -30 -12 -40 -12 -12 1 -6 7 17 20 19 10
57 41 85 69 53 55 57 58 49 37z m-1909 -16 c-10 -11 -20 -18 -23 -15 -7 6 18
35 31 35 5 0 2 -9 -8 -20z m-776 -19 c15 -10 14 -13 -29 -196 -16 -66 -32
-138 -35 -160 l-5 -40 16 34 c8 18 35 63 60 98 24 36 45 69 45 74 1 5 2 13 3
18 0 5 17 25 37 43 19 18 26 26 15 18 -21 -15 -21 -15 -3 6 25 30 50 27 44 -5
-22 -112 -47 -272 -47 -301 l0 -35 24 30 c13 17 28 27 32 23 4 -4 53 36 109
90 61 58 118 104 143 114 45 18 59 9 16 -11 -17 -7 -24 -17 -20 -27 3 -8 2
-12 -4 -9 -6 3 -10 -2 -11 -12 0 -10 -2 -27 -4 -37 -5 -26 5 -42 16 -25 7 11
9 10 9 -3 0 -10 5 -18 10 -18 6 0 5 -8 -2 -19 -7 -11 -14 -18 -18 -16 -3 2 -5
-9 -5 -25 l0 -27 44 19 c24 10 66 34 94 53 53 35 71 38 45 8 -23 -27 -74 -122
-97 -180 l-20 -52 47 -48 c136 -140 267 -238 390 -295 54 -25 81 -31 139 -32
66 -1 74 1 101 27 17 16 34 29 39 28 4 -1 8 5 8 12 1 6 7 11 14 9 7 -1 10 1 7
6 -3 5 9 22 27 38 l32 29 -25 -30 -25 -30 32 29 c18 16 35 38 39 48 3 11 11
17 18 15 7 -3 23 4 37 14 13 10 20 19 15 19 -5 0 -17 -6 -26 -12 -9 -7 -5 -3
8 10 14 13 31 21 39 18 8 -3 11 -1 8 4 -12 19 184 99 248 100 22 0 -1 -35 -55
-84 l-63 -57 54 38 c30 21 77 56 105 78 77 60 299 162 393 180 99 19 195 47
253 73 165 74 181 78 218 49 21 -16 13 -88 -23 -223 -20 -71 -40 -158 -45
-194 -34 -242 -103 -402 -229 -533 -84 -88 -178 -151 -316 -211 -134 -58 -226
-83 -366 -98 -95 -10 -106 -13 -101 -30 2 -11 13 -18 27 -18 13 0 26 -7 29
-16 18 -46 -9 -334 -44 -459 -70 -259 -277 -548 -495 -693 -259 -171 -456
-228 -895 -257 -259 -17 -359 -32 -546 -80 -251 -65 -390 -39 -528 101 -49 49
-116 158 -116 189 0 7 9 20 20 30 20 18 23 18 88 -3 92 -29 206 -45 272 -38
56 5 201 50 256 79 48 25 136 101 169 146 34 46 48 50 69 19 20 -28 30 -18 21
21 -7 35 -44 51 -114 50 -40 0 -43 -2 -23 -11 12 -6 22 -17 22 -25 0 -8 5 -11
13 -7 6 4 -17 -23 -53 -60 -176 -181 -412 -232 -639 -138 -58 24 -68 32 -88
72 -34 71 -37 89 -16 97 10 3 36 20 58 38 22 18 54 39 71 48 17 9 50 32 73 51
24 20 51 36 61 36 31 0 104 30 128 53 39 36 65 95 57 133 -12 67 -94 129 -204
154 -54 13 -229 9 -280 -6 -21 -6 -23 -5 -16 12 5 10 10 111 13 224 4 197 5
207 29 248 13 24 27 41 30 39 2 -3 -5 -35 -16 -72 -26 -82 -28 -219 -5 -315 8
-36 15 -73 15 -83 0 -16 2 -16 27 2 119 87 147 150 140 320 -6 130 -32 208
-90 264 -37 36 -68 48 -68 27 0 -5 -11 -10 -25 -10 l-25 0 0 103 c0 108 4 120
35 125 89 16 99 14 154 -23 49 -34 52 -35 46 -13 -11 36 -55 110 -84 141 -37
41 -59 51 -77 36 -11 -9 -11 -5 2 27 8 22 22 44 30 50 7 6 10 15 6 19 -4 5 -2
5 5 1 6 -3 21 7 33 24 12 16 17 30 13 30 -5 0 -26 26 -46 58 -26 38 -67 80
-127 127 -95 73 -117 97 -195 210 -59 85 -54 79 -60 73 -3 -3 1 -24 10 -47 8
-23 17 -89 20 -147 6 -106 36 -245 75 -345 22 -55 92 -160 129 -193 22 -20 28
-60 10 -72 -15 -9 -125 108 -153 165 -88 173 -152 522 -127 680 10 62 36 100
70 101 23 0 110 -44 111 -56 0 -12 29 -29 43 -25 5 1 6 -2 3 -7 -5 -9 74 -89
116 -116 13 -8 66 -30 118 -49 91 -32 220 -102 227 -123 2 -5 -15 -20 -36 -34
-22 -13 -38 -27 -35 -31 2 -4 -10 -12 -27 -18 -19 -7 -28 -15 -23 -22 4 -7 3
-9 -3 -6 -13 8 -28 -9 -47 -54 -14 -33 -11 -32 52 29 88 84 166 138 170 117 6
-25 18 -17 28 16 5 18 28 47 53 68 l44 36 -7 -30 c-5 -24 -4 -27 5 -12 6 10 8
25 5 34 -4 8 -1 22 5 29 14 17 38 126 39 176 0 28 6 40 21 49 17 9 23 8 30 -2
5 -8 9 -11 9 -7 0 3 3 15 6 25 5 15 4 15 -5 3 -7 -9 -11 -11 -11 -3 0 13 -102
-34 -152 -69 -28 -19 -28 -19 -28 0 0 12 18 33 48 54 55 40 101 58 148 58 19
0 34 3 35 8 3 29 10 49 28 73 12 16 21 34 21 40 0 7 11 0 25 -15 17 -18 25
-39 25 -62 0 -19 4 -33 8 -30 5 3 7 -9 5 -27 -3 -26 -1 -28 6 -12 7 15 10 2
11 -50 1 -66 2 -69 17 -50 14 18 15 18 9 2 -21 -61 -13 -62 13 -2 17 38 31 77
31 85 0 9 7 25 16 36 8 10 12 12 8 4 -6 -13 -5 -13 8 0 25 25 136 219 127 222
-4 2 1 14 12 28 l20 25 -11 -25 c-10 -23 -10 -24 4 -6 9 10 13 23 10 28 -7 11
2 38 13 38 4 0 14 -4 22 -9z m602 -6 c25 -9 67 -35 93 -58 l49 -42 -25 -30
c-14 -17 -37 -48 -51 -70 -15 -22 -40 -46 -56 -55 -16 -8 -50 -30 -76 -49
l-48 -34 27 44 c31 50 63 119 72 155 9 37 -15 39 -102 8 -74 -25 -78 -26 -91
-8 -7 10 -13 13 -13 7 0 -5 -43 -45 -95 -87 l-95 -76 0 50 c0 45 6 60 50 125
28 41 62 82 75 91 66 43 204 57 286 29z m2388 -102 c-21 -24 -89 -54 -117 -51
-22 3 -15 8 44 39 69 36 96 40 73 12z m-926 -8 c-6 -28 -68 -103 -78 -93 -10
9 63 115 81 118 1 0 -1 -11 -3 -25z m-338 -108 c-2 -80 -8 -123 -19 -145 -24
-46 -36 -48 -24 -5 6 21 15 41 20 44 6 4 11 54 11 117 1 61 4 109 8 106 4 -2
5 -55 4 -117z m1833 25 c-7 -70 -43 -144 -93 -192 l-38 -35 36 55 c33 51 68
138 82 203 10 48 18 29 13 -31z m-3853 -32 c3 -5 1 -10 -5 -10 -7 0 -10 -7 -6
-15 3 -8 1 -15 -4 -15 -6 0 -10 11 -10 25 0 25 14 33 25 15z m535 -85 c-73
-74 -95 -92 -69 -57 17 23 131 132 138 132 3 0 -28 -34 -69 -75z m2964 53 c-8
-12 -105 -38 -117 -31 -6 4 11 14 39 24 51 17 86 21 78 7z m-1804 -89 c7 -13
7 -19 0 -19 -5 0 -10 7 -10 16 0 8 -4 12 -10 9 -5 -3 -10 1 -10 10 0 19 16 11
30 -16z m-649 -36 c25 -13 81 -52 125 -85 43 -33 100 -75 126 -94 43 -32 65
-61 54 -72 -7 -6 -130 67 -226 134 -101 70 -170 104 -214 104 -41 0 -43 5 -19
33 23 24 88 16 154 -20z m702 -26 c4 3 7 1 7 -5 0 -7 5 -12 11 -12 5 0 7 5 3
12 -4 7 -3 8 5 4 12 -8 6 -26 -8 -26 -5 0 -17 8 -28 18 -10 9 -14 14 -8 10 7
-4 15 -5 18 -1z m1888 -24 c-11 -5 -11 -7 0 -14 17 -11 -81 -12 -108 -1 -13 5
-4 9 32 13 67 8 93 9 76 2z m-1811 -28 c16 -19 0 -19 -26 0 -16 12 -16 14 -3
15 9 0 22 -7 29 -15z m2093 -127 c-8 -34 -46 -80 -82 -101 -42 -25 -39 -4 4
29 19 14 44 41 56 60 24 40 29 42 22 12z m-273 -132 c39 -9 49 -14 36 -19 -21
-8 -92 9 -101 23 -8 12 -3 12 65 -4z m-39 -232 c12 -16 12 -17 -1 -9 -38 21
-70 47 -70 56 0 12 50 -22 71 -47z m186 0 c-16 -13 -40 -24 -55 -23 -25 0 -23
2 14 19 23 10 45 23 49 30 4 6 10 8 14 5 3 -4 -7 -18 -22 -31z m-264 -206 c-7
-13 -49 21 -62 49 -12 25 -11 25 27 -8 21 -19 37 -37 35 -41z m181 22 c-11
-11 -30 -22 -43 -25 -27 -5 -24 -1 21 30 38 27 51 23 22 -5z m-113 -38 c-18
-2 -37 0 -42 5 -5 5 11 6 34 3 41 -4 41 -5 8 -8z m-141 -239 c0 -10 -64 33
-68 46 -3 8 12 2 32 -14 20 -15 36 -30 36 -32z m811 21 c9 -11 2 -9 -18 6 -18
13 -33 25 -33 27 0 8 38 -17 51 -33z m-639 -16 c-6 -6 -19 -7 -29 -4 -16 7
-16 9 7 21 26 14 41 2 22 -17z m-89 -15 c-13 -2 -33 -2 -45 0 -13 2 -3 4 22 4
25 0 35 -2 23 -4z m108 -52 c-11 -19 -47 -52 -40 -36 20 44 33 64 40 59 5 -3
5 -13 0 -23z m630 -8 c12 -16 12 -17 -1 -6 -8 6 -26 13 -40 16 l-25 4 26 2
c15 0 33 -7 40 -16z m-795 -55 c4 -6 -2 -7 -17 -3 -35 10 -45 23 -15 18 15 -3
29 -10 32 -15z m752 -44 c20 -9 31 -18 24 -21 -7 -3 -19 1 -27 7 -8 7 -30 16
-48 20 -24 6 -26 8 -9 9 12 1 39 -6 60 -15z m-4921 -12 c35 -22 44 -121 13
-152 -24 -24 -29 -24 -55 -4 -28 21 -28 113 -1 143 21 23 25 24 43 13z m4458
-42 c-12 -37 -145 -103 -145 -71 0 6 8 11 18 11 33 1 97 37 111 63 16 31 26
29 16 -3z m311 -71 l4 -44 -15 45 c-18 54 -19 68 -4 53 6 -6 13 -30 15 -54z
m-120 24 c-10 -43 -69 -93 -108 -92 l-33 1 33 8 c43 10 92 57 92 87 0 13 5 23
11 23 7 0 9 -10 5 -27z m-4710 -263 c8 -39 8 -55 -2 -68 -11 -14 -15 -15 -23
-3 -16 24 -22 92 -10 107 19 23 24 17 35 -36z m6462 -270 c100 -151 183 -349
212 -504 19 -102 7 -370 -20 -454 -37 -116 -20 -89 31 48 85 231 84 226 84
488 0 127 1 232 2 232 2 0 39 -72 83 -160 112 -225 133 -304 134 -520 1 -173
-2 -191 -57 -325 -27 -66 -97 -165 -140 -197 -18 -15 -51 -29 -73 -33 l-39 -6
39 15 c123 47 243 262 261 472 13 154 -34 387 -96 479 -19 27 -25 31 -32 19
-10 -17 0 -54 14 -54 6 0 8 10 4 23 -4 16 -3 18 4 7 17 -27 31 -132 31 -234 0
-115 -18 -214 -51 -277 -32 -64 -121 -145 -201 -184 -39 -19 -90 -51 -114 -71
l-44 -36 41 66 c88 140 146 384 135 571 -5 101 -36 242 -75 345 -28 73 -136
269 -166 299 l-24 25 14 -55 c8 -30 25 -112 37 -184 29 -175 32 -485 5 -620
-21 -104 -92 -263 -161 -359 -56 -78 -203 -221 -284 -275 l-63 -43 -57 39
c-31 20 -58 38 -59 39 -2 0 8 45 22 98 19 77 25 123 25 210 -1 102 -16 205
-36 237 -12 19 47 -25 77 -58 14 -15 36 -46 48 -68 l22 -40 -23 29 c-13 16
-33 41 -45 55 l-22 26 -1 -30 c0 -17 9 -47 20 -67 11 -21 23 -56 26 -78 4 -22
10 -43 15 -46 16 -10 52 83 80 207 15 69 35 150 44 180 8 30 19 99 22 153 l6
99 30 -58 c20 -40 30 -78 33 -119 l4 -61 -18 68 c-26 94 -47 113 -37 32 4 -33
10 -118 14 -189 l6 -128 62 118 c126 243 172 395 180 594 5 129 2 159 -32 360
l-6 35 36 -40 c20 -22 53 -64 73 -95z m-6717 24 c10 -13 10 -17 -1 -24 -8 -5
-11 -17 -7 -31 7 -27 -8 -49 -33 -49 -26 0 -70 38 -70 61 0 47 81 79 111 43z
m364 -45 l39 -11 -26 -23 c-42 -36 -208 -48 -208 -15 0 16 45 40 91 49 61 12
59 12 104 0z m2410 -524 c9 -71 22 -158 30 -193 18 -78 18 -75 0 -68 -10 4
-23 -8 -40 -34 -22 -35 -30 -40 -63 -40 -56 0 -99 31 -112 82 -24 87 24 156
88 125 20 -9 27 -20 27 -41 0 -36 -17 -44 -30 -14 -14 32 -42 35 -56 5 -15
-34 10 -79 56 -101 46 -22 60 -16 80 31 25 58 13 96 -42 138 -56 43 -98 46
-141 10 -40 -33 -56 -76 -49 -131 6 -57 34 -88 112 -125 94 -45 162 -34 187
30 10 25 11 23 32 -39 13 -36 30 -79 39 -97 9 -18 17 -45 16 -60 0 -22 -9 -12
-41 54 -22 46 -44 81 -48 78 -4 -2 -11 -41 -14 -86 -9 -94 -27 -120 -95 -139
-71 -19 -127 6 -236 105 -81 74 -124 80 -151 21 -13 -26 -14 -40 -5 -72 18
-68 50 -88 147 -93 16 -1 91 -80 118 -126 l23 -38 -24 -54 c-17 -38 -25 -72
-25 -118 -1 -59 -3 -64 -18 -50 -28 26 -88 45 -140 45 l-51 0 6 34 c4 20 2 43
-5 56 -14 27 -5 35 50 44 68 11 113 80 91 139 -9 24 -16 27 -60 27 -28 0 -60
5 -73 11 -62 28 -98 142 -72 228 16 55 39 77 95 87 40 8 91 32 101 48 4 6 5
36 1 67 -9 85 18 161 70 199 22 16 52 32 68 35 29 7 74 -11 104 -41 24 -24 28
-11 16 48 -7 29 -16 72 -22 96 -5 23 -9 64 -9 92 0 49 -12 71 -27 48 -4 -7
-10 -43 -14 -81 -7 -75 -27 -107 -68 -107 -37 -1 -104 -33 -135 -66 -55 -60
-87 -204 -48 -219 15 -6 15 -8 -7 -26 -47 -38 -89 -9 -76 52 5 22 3 29 -9 29
-44 0 -96 -94 -74 -134 7 -12 3 -30 -11 -60 -68 -139 27 -344 161 -350 39 -1
43 -4 40 -26 -5 -49 -74 -87 -108 -59 -12 10 -19 8 -39 -11 l-25 -23 25 -23
c28 -25 34 -74 12 -93 -10 -8 -22 -1 -51 29 -45 47 -98 65 -171 55 -43 -5 -58
-13 -87 -43 -19 -20 -42 -48 -52 -62 -18 -27 -21 -97 -7 -147 8 -27 6 -32 -12
-37 -15 -4 -28 1 -41 17 -25 30 -16 112 19 181 15 28 36 68 46 89 22 42 17 77
-10 77 -51 0 -104 -123 -105 -243 -1 -59 3 -80 14 -87 8 -5 11 -10 6 -10 -5 0
-4 -6 2 -13 8 -10 -1 -23 -39 -56 -27 -23 -56 -59 -65 -79 l-15 -36 -20 33
c-36 60 -145 88 -227 59 -32 -12 -36 -11 -51 12 -28 43 -63 70 -105 81 l-41
10 1 210 c2 240 -4 222 105 330 58 59 87 78 201 133 81 40 177 77 245 96 61
17 145 44 185 61 98 40 238 121 238 137 0 7 4 10 10 7 5 -3 16 0 24 7 12 11
11 15 -8 26 -14 9 -15 12 -3 8 9 -3 17 0 18 7 0 7 2 20 4 30 2 11 -1 15 -8 10
-15 -9 155 153 186 177 23 18 23 18 23 -3 -1 -36 47 -35 84 2 17 16 30 37 30
45 0 18 -35 21 -74 6 -20 -7 -10 11 54 98 44 59 93 134 108 166 l27 59 7 -169
c4 -93 14 -227 23 -299z m-2775 207 c30 -22 76 -50 103 -61 42 -18 51 -28 79
-86 l31 -66 -33 -34 c-20 -21 -44 -35 -57 -35 -56 0 -151 76 -188 151 -24 46
-45 145 -45 204 l1 30 27 -31 c15 -17 52 -49 82 -72z m2977 -629 c-23 -23 -47
-25 -47 -3 0 12 53 40 64 33 4 -3 -3 -17 -17 -30z m-563 -112 c22 -24 17 -54
-8 -59 -23 -5 -36 14 -36 51 0 32 19 36 44 8z m100 -80 c31 -21 68 -44 83 -50
16 -6 40 -30 55 -54 25 -39 26 -43 11 -54 -25 -19 -32 -16 -51 20 -9 17 -51
65 -92 104 -41 40 -72 73 -68 73 4 0 32 -17 62 -39z m440 19 c13 0 31 -9 40
-19 24 -27 9 -72 -27 -85 -34 -12 -57 6 -57 46 0 17 -4 27 -10 23 -15 -9 -12
8 7 35 10 14 18 19 21 12 2 -7 14 -12 26 -12z m2536 -88 c275 -54 436 -118
640 -254 206 -137 368 -351 444 -583 50 -153 61 -240 60 -495 0 -209 -3 -252
-27 -390 -37 -216 -52 -433 -38 -551 6 -51 16 -98 23 -104 7 -6 60 -22 118
-34 128 -28 166 -49 193 -110 24 -55 25 -200 3 -363 -43 -307 -45 -540 -6
-678 25 -90 52 -136 119 -211 50 -56 76 -103 66 -119 -3 -5 34 -27 81 -50 l87
-40 -27 -29 c-15 -16 -43 -37 -62 -47 -19 -10 -34 -26 -34 -34 0 -9 22 -51 49
-94 52 -82 76 -136 61 -136 -15 0 -193 88 -200 99 -14 24 -48 -20 -71 -91 -12
-40 -27 -78 -32 -85 -5 -7 -6 -17 -2 -24 10 -15 -25 4 -90 49 -67 46 -115 93
-115 111 -1 12 -3 11 -12 -4 -6 -11 -44 -54 -84 -96 -40 -42 -77 -87 -84 -100
-11 -23 -10 -23 4 -5 9 11 16 15 16 9 0 -6 -7 -16 -15 -23 -16 -13 -33 1 -96
87 -41 54 -62 100 -73 155 -4 21 -12 40 -18 44 -10 6 -7 -39 7 -111 4 -17 -18
-31 -143 -93 -136 -67 -182 -84 -182 -64 0 4 16 33 35 65 40 67 89 177 81 184
-3 3 -37 9 -76 13 -39 4 -74 10 -77 14 -3 3 11 13 31 21 21 9 60 37 87 62 39
37 49 52 49 79 0 18 15 60 35 96 19 34 57 107 85 160 l50 98 0 119 c0 130 -15
303 -31 365 -6 22 -24 68 -40 103 -17 34 -33 79 -36 100 -7 42 -17 53 -51 53
-30 0 -219 45 -312 75 -41 13 -117 35 -168 49 -283 79 -475 221 -643 475 -142
215 -211 363 -294 631 -28 92 -40 118 -50 108 -9 -9 50 -243 86 -342 17 -45
54 -127 84 -183 38 -74 50 -105 41 -112 -21 -17 -251 -129 -331 -161 -336
-135 -691 -201 -1000 -186 -77 3 -157 9 -178 12 -38 7 -38 7 -19 28 37 41 132
187 165 253 65 130 89 217 95 344 6 138 -6 200 -79 423 -27 81 -49 158 -49
171 0 30 -28 95 -40 95 -25 0 1 -125 63 -310 98 -288 98 -452 -2 -666 -51
-109 -95 -174 -199 -301 -132 -160 -200 -261 -219 -322 -13 -45 -14 -81 -8
-197 7 -159 3 -179 -56 -224 -106 -82 -226 -326 -270 -549 -15 -79 -7 -209 19
-281 23 -66 98 -221 148 -309 43 -74 39 -81 -44 -81 -36 0 -54 -4 -58 -14 -3
-8 12 -67 33 -130 22 -64 34 -116 29 -116 -18 0 -119 50 -151 74 -46 35 -61
37 -91 14 -32 -26 -84 -105 -84 -129 0 -14 -48 -38 -54 -27 -1 2 -26 34 -56
72 -60 78 -89 146 -91 209 -1 23 -5 56 -9 72 -6 25 -8 27 -14 13 -5 -10 -6
-36 -4 -58 l3 -40 -52 -10 c-55 -12 -69 -21 -151 -98 -29 -28 -68 -59 -86 -70
l-34 -20 -16 82 c-9 44 -30 117 -46 161 l-30 80 6 -61 c5 -58 5 -61 -23 -79
-15 -10 -63 -55 -105 -99 -91 -95 -93 -91 -48 65 16 57 30 111 30 120 0 17
-16 22 -118 35 -29 4 -54 9 -56 13 -2 3 30 17 71 31 88 28 154 80 170 134 6
19 8 35 4 34 -16 -5 -80 14 -91 26 -9 11 -6 16 12 21 80 25 120 49 139 87 11
21 32 49 47 61 68 57 135 124 148 150 29 55 92 244 117 352 15 63 31 168 36
245 11 148 25 206 78 323 36 78 48 91 56 60 14 -55 4 111 -14 221 -18 110 -21
160 -17 306 5 179 1 210 -43 293 -5 10 -22 55 -37 100 -27 82 -27 83 -27 374
0 198 -4 295 -11 303 -13 13 -28 -234 -28 -445 0 -142 15 -216 76 -365 35 -87
52 -200 30 -200 -27 0 -164 51 -240 89 -286 145 -571 471 -691 791 -46 124
-111 430 -114 539 -2 72 -1 74 24 81 24 7 30 2 60 -44 77 -116 231 -128 314
-23 l28 34 31 -35 c17 -20 30 -40 28 -45 -1 -4 1 -6 6 -3 5 3 33 -4 63 -15 42
-16 67 -20 112 -15 123 12 203 90 217 208 l5 48 38 -35 c20 -18 37 -32 37 -30
0 1 21 -3 47 -11 60 -18 115 -18 160 1 50 21 56 17 8 -6 -48 -22 -33 -26 18
-4 28 11 35 19 30 33 -5 16 -5 16 8 -1 14 -17 16 -17 38 6 16 18 19 27 10 32
-7 5 -10 4 -6 -2 3 -5 0 -10 -7 -10 -9 0 -3 17 16 47 21 34 31 66 36 112 l7
65 30 -19 c26 -17 26 -18 6 -13 -20 6 -23 4 -18 -10 4 -9 7 -22 7 -28 0 -8 3
-8 8 1 5 7 41 15 93 18 52 4 101 14 129 27 25 11 49 19 53 18 5 -1 6 3 3 7 -3
5 4 18 16 28 47 42 78 161 60 227 -10 35 -9 37 13 37 55 0 127 49 146 98 5 13
12 22 17 20 4 -2 86 -42 182 -91 229 -114 295 -132 490 -131 119 1 157 4 210
22 118 37 164 55 205 78 209 119 412 198 595 233 142 27 433 24 590 -7z
m-2662 -31 c31 -27 28 -31 -23 -31 -45 0 -50 5 -39 34 8 21 34 20 62 -3z
m4505 -108 c-78 -170 -188 -275 -331 -319 -25 -7 -47 -12 -49 -10 -2 1 40 24
92 50 71 35 110 62 158 110 55 56 127 169 116 181 -3 2 -44 -23 -94 -56 -113
-75 -158 -89 -330 -100 -77 -4 -165 -16 -195 -25 -48 -14 -240 -30 -240 -20 0
11 156 121 188 132 52 18 65 17 160 -12 74 -23 97 -26 181 -22 82 4 109 10
176 39 80 35 185 103 185 120 0 5 4 9 9 9 5 0 -6 -35 -26 -77z m-4448 38 c16
-7 14 -9 -13 -14 -17 -4 -39 -4 -47 -1 -8 4 -27 -1 -41 -11 l-26 -17 22 -23
c29 -31 24 -81 -11 -107 -24 -19 -28 -19 -56 -4 -22 11 -32 25 -37 50 -5 26
-13 36 -33 41 l-26 6 29 31 c16 17 43 36 59 44 32 14 147 18 180 5z m-703
-181 c35 -27 54 -75 38 -95 -11 -13 -16 -11 -40 15 -46 50 -124 40 -155 -20
-22 -42 -19 -66 14 -102 24 -28 36 -32 75 -33 l46 0 0 -39 0 -38 -35 31 c-39
34 -77 55 -117 65 -23 5 -28 13 -34 53 -18 119 124 230 208 163z m288 -70 c12
-7 8 -10 -15 -10 -84 -1 -140 -29 -85 -43 23 -6 43 -51 34 -79 -3 -10 -16 -26
-30 -34 -20 -14 -29 -14 -54 -4 -35 15 -54 43 -45 69 3 11 0 18 -9 18 -9 0
-13 -4 -10 -9 3 -4 -4 -8 -15 -8 -27 0 -26 8 3 44 40 48 183 84 226 56z m-350
-22 c0 -6 7 -19 15 -27 12 -15 11 -20 -11 -49 -14 -17 -34 -32 -44 -32 -35 0
-37 63 -2 103 17 19 42 23 42 5z m-781 -127 c11 -7 6 -12 -20 -18 -24 -7 -34
-15 -34 -29 0 -30 -37 -64 -63 -57 -44 11 -17 86 38 106 24 9 64 7 79 -2z
m5580 -1 c-8 -5 -66 -14 -127 -21 -62 -7 -112 -15 -112 -18 0 -3 15 -18 33
-32 33 -27 85 -109 69 -109 -5 0 -15 12 -23 26 -19 36 -117 124 -137 124 -14
0 -14 2 -3 9 7 5 54 10 105 11 50 1 111 5 136 10 67 11 79 11 59 0z m-4975
-44 c-3 -7 -15 -18 -27 -25 -12 -6 -15 -10 -7 -10 30 2 40 -1 60 -21 11 -11
20 -31 20 -45 0 -34 -53 -68 -95 -60 -34 6 -45 20 -45 57 0 23 -4 27 -24 26
-17 -2 -22 -6 -16 -13 7 -8 5 -12 -5 -12 -23 0 -25 24 -5 50 36 46 159 91 144
53z m-377 -43 c-15 -2 -25 -9 -22 -14 4 -5 -1 -9 -9 -9 -8 0 -18 -5 -22 -12
-4 -6 -3 -8 4 -4 6 3 22 2 36 -4 20 -7 26 -16 26 -40 0 -66 -94 -78 -102 -13
-2 16 -8 27 -15 26 -18 -4 -16 12 2 27 8 7 12 17 8 23 -3 6 -1 7 5 3 7 -4 12
-3 12 3 0 11 30 18 75 18 30 0 30 0 2 -4z m5111 -33 c34 -16 62 -32 62 -35 0
-3 -19 4 -42 16 -23 12 -58 27 -77 34 -20 8 -29 14 -21 14 8 1 43 -12 78 -29z
m-5385 -414 c4 -9 -3 -13 -21 -13 -24 0 -25 0 -7 13 10 8 20 14 21 14 1 0 4
-6 7 -14z m-493 -59 c108 -10 135 -15 135 -27 0 -8 10 -16 23 -18 12 -2 20 -7
17 -12 -3 -4 5 -6 17 -2 16 4 19 2 13 -8 -5 -9 -4 -11 3 -6 19 12 72 -22 66
-42 -5 -13 -4 -14 4 -3 8 11 18 8 50 -19 109 -87 135 -217 55 -280 -23 -18
-23 -19 -3 -25 40 -13 80 -8 95 11 20 27 29 117 16 155 -22 62 -97 184 -139
225 l-42 42 33 6 c40 8 67 -1 67 -20 0 -21 85 -148 114 -172 19 -14 36 -48 57
-109 53 -157 108 -257 251 -452 21 -28 34 -51 30 -51 -30 0 -419 151 -494 191
-21 11 -42 18 -47 15 -5 -4 -11 0 -14 6 -11 31 -14 -2 -5 -52 12 -70 67 -186
107 -226 61 -62 89 -69 264 -68 86 1 157 -2 157 -5 0 -4 -14 -24 -32 -45 -37
-45 -35 -48 67 -71 100 -24 105 -25 105 -34 0 -11 -106 -51 -136 -51 -13 0
-24 -5 -24 -10 0 -19 93 -111 106 -106 16 6 25 -6 16 -21 -12 -18 -62 -21
-157 -8 -49 7 -91 11 -93 10 -1 -1 14 -47 34 -101 48 -131 50 -142 29 -150 -9
-4 -53 2 -98 13 -56 14 -86 17 -94 11 -15 -12 -17 -114 -3 -173 13 -59 2 -67
-71 -44 -34 11 -65 19 -70 19 -5 0 -9 -38 -9 -85 0 -47 -4 -85 -9 -85 -16 0
-108 78 -136 114 -15 20 -41 42 -58 51 -37 18 -37 18 -37 1 0 -19 -41 -116
-49 -116 -4 0 -31 48 -61 106 -32 60 -67 114 -82 125 -29 21 -36 12 -18 -20 7
-14 5 -23 -9 -35 -18 -17 -19 -16 -27 16 -4 18 -8 56 -8 83 -1 28 -4 55 -8 61
-4 5 -12 57 -17 113 -21 198 -71 332 -204 543 -48 78 -55 94 -56 145 -1 32 -3
67 -4 78 -3 25 54 55 105 55 64 0 112 -84 75 -134 -13 -17 -14 -17 -30 7 -8
13 -13 33 -11 44 8 28 -22 38 -52 18 -29 -19 -38 -52 -32 -110 6 -48 46 -137
64 -143 23 -6 21 68 -3 117 -24 49 -29 86 -13 96 6 4 10 -10 10 -34 l0 -41 39
0 c34 0 44 5 65 33 58 76 17 207 -63 207 -34 0 -24 16 18 29 93 27 121 130 59
212 -45 57 -60 66 -93 51 -29 -13 -25 -32 6 -32 33 0 21 -17 -18 -25 -44 -8
-68 14 -58 55 9 34 27 51 79 71 37 14 61 15 143 9 54 -5 107 -11 119 -15 13
-4 25 -1 33 9 19 23 37 20 109 -14 35 -17 72 -30 82 -30 34 0 30 -18 -8 -37
-41 -22 -63 -64 -46 -90 17 -28 32 -26 49 6 27 53 100 50 93 -4 -3 -24 20 -75
33 -75 19 0 41 50 34 77 -10 41 -51 90 -93 113 -20 10 -47 30 -59 43 -29 32
-169 112 -219 126 -48 13 -124 14 -124 2 0 -15 19 -24 75 -36 27 -6 50 -17 50
-24 0 -8 -39 -13 -140 -15 -78 -2 -153 -8 -170 -15 -36 -15 -95 -70 -95 -88 0
-24 31 -77 58 -99 30 -25 17 -39 -28 -29 -38 8 -77 55 -86 103 -10 56 -23 74
-24 32 0 -19 -3 -58 -6 -87 -6 -51 -6 -52 27 -72 74 -45 216 -15 244 51 14 33
14 33 23 9 30 -81 -60 -151 -193 -151 -52 0 -100 18 -134 50 -21 21 -23 28
-17 82 5 41 4 58 -3 53 -18 -10 -13 33 9 74 36 72 142 149 240 177 56 15 89
15 260 1z m-425 -527 l40 -7 -26 -12 c-15 -8 -31 -23 -37 -35 -8 -19 -12 -15
-41 41 -38 77 -40 98 -3 54 19 -23 40 -36 67 -41z m4150 -931 c111 -113 215
-189 362 -262 49 -25 103 -57 120 -71 17 -14 32 -24 34 -22 2 3 5 -6 5 -18 2
-21 -10 -17 -150 53 -224 113 -322 185 -411 301 -57 76 -59 80 -38 80 10 0 45
-27 78 -61z m1415 -375 c0 -39 -91 -154 -182 -230 -220 -185 -395 -380 -460
-511 -29 -60 -33 -77 -33 -148 0 -70 5 -92 37 -171 21 -50 39 -101 40 -115 3
-23 -1 -24 -57 -29 -47 -4 -61 -9 -63 -23 -3 -15 5 -61 36 -206 5 -24 5 -24
-25 -6 -32 19 -85 65 -121 107 -22 24 -23 29 -11 62 9 25 10 41 2 58 -10 22
-11 22 -18 3 -16 -48 -132 -252 -148 -262 -11 -7 -104 82 -121 117 -7 14 -16
46 -19 73 -4 26 -16 65 -27 87 -11 21 -20 48 -20 59 0 11 -4 22 -9 26 -17 10
-28 -26 -23 -70 4 -42 4 -44 -38 -65 -23 -12 -85 -53 -138 -91 -52 -38 -98
-69 -103 -69 -12 0 -17 29 -30 170 -6 68 -14 131 -18 139 -13 23 -33 -52 -26
-93 l7 -36 -78 -35 c-43 -20 -93 -47 -111 -61 -30 -22 -33 -23 -33 -7 0 11 20
58 44 107 61 120 61 123 19 131 -41 7 -153 55 -153 65 0 3 33 12 73 18 81 12
217 59 217 74 0 5 -16 30 -35 55 -19 25 -35 50 -35 54 0 5 22 9 49 9 64 0 89
10 153 62 29 24 114 75 188 113 113 57 147 81 206 139 70 71 141 178 170 259
26 71 43 175 30 181 -6 2 -3 5 8 5 15 1 17 -4 12 -26 -6 -27 -6 -27 9 -9 8 11
15 15 15 9 0 -6 10 -14 23 -18 19 -6 19 -8 5 -12 -10 -2 -18 -9 -18 -14 0 -5
-8 -9 -17 -10 -15 0 -15 -2 2 -8 12 -5 30 -3 45 4 14 7 31 10 38 8 6 -3 12 0
12 6 0 6 7 11 16 11 8 0 12 -4 9 -10 -3 -5 -2 -10 3 -10 5 0 13 -10 16 -22 6
-21 7 -22 19 -6 9 11 18 14 27 8 12 -7 11 -12 -5 -29 -10 -12 -15 -24 -12 -28
4 -3 7 -1 7 5 0 7 7 12 15 12 8 0 24 5 35 12 22 14 27 11 32 -17 2 -17 -3 -20
-39 -23 -58 -4 -54 -22 5 -23 42 0 137 -26 104 -28 -10 -1 -10 -5 2 -17 22
-21 72 -15 68 9 -4 21 2 21 39 0 17 -10 27 -23 24 -31 -3 -9 1 -9 18 3 12 8
22 21 22 28 1 6 7 11 15 9 7 -2 16 1 19 6 3 5 44 40 91 76 127 100 137 109
161 160 23 47 39 59 39 30z"/>
<path d="M5524 8669 c-35 -44 -102 -89 -191 -130 -48 -22 -113 -52 -143 -66
-30 -15 -60 -26 -67 -26 -7 0 -10 -4 -7 -9 3 -4 1 -8 -4 -8 -5 0 -31 -12 -58
-27 -27 -15 -55 -28 -61 -29 -28 -4 -212 -137 -265 -191 -69 -71 -109 -129
-101 -149 3 -7 -2 -17 -11 -20 -9 -3 -16 -10 -16 -14 0 -5 -16 -32 -35 -61
-19 -30 -35 -58 -35 -63 0 -5 -9 -20 -21 -32 -11 -12 -22 -35 -24 -51 -10 -78
-102 -228 -161 -261 -11 -6 -15 -14 -11 -18 11 -11 85 28 142 75 60 49 90 60
260 96 271 56 376 101 490 207 131 122 190 242 236 475 35 179 48 220 85 268
30 40 29 72 -2 34z"/>
<path d="M3215 8565 c-15 -13 -32 -15 -68 -10 -54 7 -101 -4 -205 -47 -62 -26
-72 -33 -60 -44 7 -7 29 -16 48 -20 32 -6 33 -5 17 8 -18 13 -17 15 8 26 14 7
24 16 21 21 -8 12 73 41 114 41 43 0 55 -8 63 -41 9 -34 -9 -50 -98 -85 -63
-25 -90 -42 -80 -52 1 -2 11 1 22 6 10 6 53 22 96 37 93 33 126 65 103 100
-19 29 -12 35 35 35 21 0 54 7 73 16 33 16 36 16 75 -5 48 -24 74 -27 90 -7
17 21 -9 27 -129 32 -87 4 -109 2 -125 -11z"/>
<path d="M3019 8480 c-23 -26 -24 -30 -9 -30 25 0 65 34 56 48 -11 17 -18 14
-47 -18z"/>
<path d="M3317 8463 c-45 -32 -48 -69 -7 -91 41 -22 188 4 163 29 -7 7 -20 4
-41 -8 -24 -14 -37 -15 -59 -8 -54 20 -37 75 24 75 46 0 39 24 -8 28 -24 2
-45 -5 -72 -25z"/>
<path d="M2650 8330 c-77 -80 -92 -90 -123 -90 -19 0 -45 8 -58 19 -20 16 -24
28 -22 66 l2 46 -25 -26 c-21 -22 -24 -36 -22 -74 3 -41 7 -48 37 -63 37 -18
76 -14 49 6 -12 9 -4 11 36 13 35 2 55 8 63 20 7 9 13 13 13 7 1 -5 7 3 16 18
8 15 26 31 39 34 14 3 23 10 20 14 -6 10 47 0 63 -13 16 -12 -25 -50 -85 -76
-27 -13 -41 -25 -40 -36 1 -12 -10 -22 -33 -30 -26 -9 -37 -20 -44 -43 -5 -18
-13 -32 -17 -32 -5 0 -8 3 -8 8 5 31 -3 42 -31 42 -24 0 -30 -4 -31 -22 -1
-18 -3 -16 -10 10 -5 17 -15 32 -22 32 -7 0 -23 9 -34 19 -41 39 -46 -19 -7
-79 22 -34 26 -48 22 -91 -6 -64 -31 -98 -92 -127 -39 -19 -50 -21 -57 -10
-12 18 -11 55 1 79 14 25 26 24 34 -3 6 -23 6 -23 22 -3 22 30 14 59 -18 63
-56 7 -88 -102 -54 -182 17 -42 31 -50 75 -47 44 2 70 16 102 54 25 29 49 31
49 3 0 -14 45 -59 77 -75 12 -6 41 -11 66 -11 38 0 48 5 79 38 19 20 44 45 56
54 25 20 29 74 11 127 -13 36 -39 42 -40 9 0 -13 -4 -32 -9 -43 -7 -18 -9 -17
-20 12 -20 56 -80 50 -80 -8 0 -48 30 -66 50 -29 13 24 26 26 34 4 14 -36 -43
-82 -88 -70 -35 9 -56 54 -56 121 0 76 21 109 85 135 50 20 51 21 108 139 61
126 65 141 43 141 -9 0 -12 7 -9 20 11 43 -32 17 -117 -70z"/>
<path d="M2905 8349 c-19 -17 -35 -35 -35 -40 0 -13 53 -59 68 -59 10 0 12 8
7 29 -4 18 -1 39 6 53 31 56 9 65 -46 17z"/>
<path d="M3083 8317 c-45 -48 -35 -94 12 -63 17 11 25 26 25 46 0 38 -13 44
-37 17z"/>
<path d="M2261 8274 c-17 -21 -28 -40 -26 -42 8 -9 54 28 60 48 11 36 -1 33
-34 -6z"/>
<path d="M3432 8204 c-101 -27 -204 -93 -273 -176 -27 -33 -49 -63 -49 -69 0
-5 22 7 49 26 92 67 156 89 251 90 55 0 106 -7 147 -19 97 -30 144 -3 120 69
-15 46 -36 64 -90 80 -61 18 -86 18 -155 -1z"/>
<path d="M2258 8133 c-20 -21 -24 -68 -8 -78 13 -8 32 42 28 73 -3 24 -3 24
-20 5z"/>
<path d="M2832 8133 c-20 -8 -34 -53 -27 -85 8 -35 13 -35 49 8 25 30 27 38
18 59 -12 25 -17 28 -40 18z"/>
<path d="M3736 7841 c-24 -45 -82 -91 -117 -91 -16 0 -58 9 -92 21 -80 27
-222 30 -287 5 -91 -34 -168 -96 -216 -173 -85 -135 -145 -311 -179 -523 -17
-107 -18 -130 -7 -130 4 0 20 57 35 128 27 121 67 250 87 282 6 10 9 -7 9 -56
-1 -117 36 -217 114 -301 64 -70 122 -93 237 -93 84 0 102 3 157 29 130 62
214 189 237 362 8 55 -9 170 -30 211 -9 17 -13 32 -11 35 7 6 90 -54 100 -72
23 -41 19 -172 -9 -295 -4 -20 -3 -22 5 -9 17 27 61 209 61 254 l0 42 88 7
c48 4 94 12 102 17 11 7 1 8 -30 4 l-45 -7 53 53 c48 48 97 118 75 107 -91
-45 -113 -52 -155 -51 -54 1 -118 29 -167 74 l-33 31 20 21 c30 32 44 77 37
114 -7 41 -20 42 -39 4z m-430 -235 c28 -28 34 -41 34 -77 0 -110 -122 -189
-195 -126 -78 66 -7 237 99 237 19 0 39 -11 62 -34z m-146 -443 c33 -42 18
-107 -31 -134 -13 -7 -25 -3 -48 17 -25 21 -31 33 -31 67 0 75 66 105 110 50z
m412 -20 c26 -27 27 -30 13 -51 -17 -23 -50 -20 -41 4 3 8 -8 26 -24 41 -23
20 -27 29 -19 39 13 16 33 7 71 -33z m-53 -45 c27 -37 29 -44 18 -62 -7 -10
-37 -33 -66 -49 -73 -41 -155 -47 -245 -17 -36 12 -66 24 -66 27 0 3 7 2 16
-1 18 -7 57 21 48 35 -3 5 2 6 10 3 9 -3 16 -1 16 4 0 6 10 12 23 14 15 2 22
10 21 24 0 18 6 21 50 23 29 1 64 10 81 21 45 28 60 24 94 -22z"/>
<path d="M2396 7741 c-31 -34 -37 -88 -16 -150 10 -31 21 -69 23 -86 2 -18 5
-24 8 -15 3 8 14 38 24 65 26 72 31 167 10 188 -21 22 -28 21 -49 -2z"/>
<path d="M4215 5970 c-4 -6 13 -34 36 -62 72 -85 162 -111 230 -65 33 22 59
70 46 84 -4 3 -23 -1 -42 -10 -64 -31 -143 -18 -206 33 -40 32 -54 36 -64 20z"/>
<path d="M3900 5925 c-12 -14 -14 -41 -11 -124 8 -221 10 -204 -24 -220 -35
-16 -65 -40 -65 -53 0 -22 120 8 169 44 22 16 23 19 11 70 -7 29 -22 85 -33
123 -11 39 -23 94 -26 124 -6 50 -7 53 -21 36z"/>
<path d="M6690 5664 c-131 -20 -172 -47 -184 -123 -8 -54 6 -81 83 -154 87
-83 133 -102 251 -101 57 0 104 5 118 13 35 19 62 71 62 118 0 35 -7 50 -36
83 -45 50 -94 66 -152 51 -68 -19 -94 -79 -51 -122 13 -13 30 -19 47 -17 24 3
27 7 27 38 0 32 3 35 33 38 31 3 32 2 32 -37 0 -111 -140 -118 -252 -13 -35
32 -38 87 -7 126 43 55 182 70 277 30 73 -30 141 -120 142 -185 0 -85 -76
-185 -168 -219 -66 -25 -106 -25 -210 0 -102 24 -112 29 -188 96 -77 67 -129
162 -115 211 8 29 7 32 -18 43 -34 14 -97 1 -138 -27 -15 -11 -53 -28 -83 -38
-30 -10 -71 -26 -90 -35 -19 -10 -71 -32 -115 -50 -44 -17 -90 -36 -102 -42
-26 -13 -31 -53 -8 -62 18 -6 21 -77 5 -106 -8 -15 -5 -25 12 -45 13 -15 35
-50 50 -78 24 -45 28 -63 28 -138 0 -231 -124 -400 -327 -445 -70 -15 -113
-15 -199 2 -29 5 -32 3 -48 -39 -14 -37 -15 -49 -4 -72 11 -24 16 -26 48 -21
19 3 68 11 109 17 40 6 84 15 98 20 39 15 53 11 53 -15 0 -15 12 -33 34 -50
l35 -26 -21 -47 c-31 -71 -22 -134 29 -184 68 -69 146 -62 179 16 19 47 18 75
-3 75 -11 0 -24 -15 -35 -40 -13 -32 -22 -40 -42 -40 -74 0 -88 100 -25 167
35 36 87 63 121 63 10 0 29 -11 41 -24 72 -77 210 -75 342 5 97 59 120 146 55
211 -50 49 -94 26 -58 -31 9 -15 8 -28 -6 -64 -22 -59 -33 -66 -110 -80 -76
-13 -128 -1 -176 39 -38 32 -46 47 -64 118 -14 51 -13 67 4 171 19 114 35 160
64 184 13 11 28 5 93 -39 l78 -52 81 5 c44 2 90 10 102 16 29 16 118 14 151
-3 36 -19 99 -89 144 -159 41 -64 50 -66 131 -42 97 30 201 10 254 -48 44 -49
-2 -193 -78 -243 -34 -23 -48 -26 -91 -22 -65 7 -99 37 -101 92 -2 64 68 105
109 63 23 -23 9 -49 -22 -41 -33 8 -44 -19 -19 -47 36 -40 132 1 161 68 17 41
11 66 -24 93 -29 23 -118 28 -171 9 -26 -9 -34 -7 -51 10 -23 23 -37 25 -95
12 -48 -12 -62 -6 -74 28 -14 39 -79 108 -132 139 -41 24 -54 27 -140 26 -109
0 -152 -15 -201 -72 -30 -34 -31 -38 -27 -109 7 -106 39 -132 127 -102 39 14
39 20 1 47 -37 28 -40 70 -7 107 25 28 115 53 158 42 51 -13 108 -65 140 -129
29 -57 31 -68 26 -130 l-6 -67 50 -70 c27 -39 63 -95 80 -123 71 -121 137
-155 290 -145 102 7 131 17 238 91 94 64 118 68 178 27 56 -38 124 -46 205
-26 83 22 106 35 157 90 50 54 91 136 91 183 0 69 -52 122 -120 122 -18 0 -65
-13 -107 -30 -95 -38 -126 -38 -164 -1 -42 42 -36 52 20 33 46 -14 51 -14 76
2 15 10 36 33 47 52 24 41 46 47 141 42 125 -7 199 -61 218 -161 4 -23 8 -90
9 -149 0 -60 3 -108 6 -108 18 0 45 25 70 65 16 25 35 43 41 40 24 -8 69 44
117 136 48 91 49 95 59 220 14 170 7 193 -84 281 -76 74 -132 108 -177 108
-16 0 -57 -9 -92 -21 l-63 -20 -51 50 c-63 62 -130 93 -216 99 -138 10 -233
-32 -313 -136 -42 -54 -49 -71 -68 -165 -21 -104 -21 -107 -4 -182 14 -58 15
-79 6 -88 -9 -9 -21 -1 -51 33 -69 80 -90 149 -50 170 11 6 27 24 35 40 18 36
48 234 40 270 -3 14 -9 67 -15 119 -7 77 -6 100 7 132 21 53 14 141 -17 204
-34 72 -133 168 -194 188 -46 16 -183 21 -256 11z m-551 -270 c18 -8 47 -14
63 -14 41 0 123 -44 151 -82 28 -38 47 -89 47 -128 0 -61 -89 -117 -145 -92
-32 15 -33 49 -2 61 53 20 60 65 12 77 -75 19 -145 -30 -145 -101 0 -91 119
-155 227 -122 26 8 70 21 96 28 27 6 67 27 89 45 51 43 108 60 146 42 14 -7
37 -33 50 -56 l24 -43 -23 -25 -23 -24 27 -55 c29 -60 79 -103 145 -124 22 -8
48 -11 56 -8 23 9 20 44 -5 58 -18 9 -21 17 -16 57 3 26 9 57 12 69 6 17 1 25
-23 37 -29 15 -59 67 -48 84 3 6 18 13 33 17 16 3 49 20 76 37 45 29 48 29 71
14 41 -26 46 -127 15 -286 -26 -132 -107 -208 -210 -198 -61 6 -89 29 -158
130 -89 131 -154 154 -276 97 -86 -41 -141 -37 -229 17 -109 67 -137 94 -169
163 -39 87 -36 166 11 262 18 36 32 71 32 77 0 14 33 8 89 -14z m1496 -415
c27 -7 56 -28 92 -66 62 -64 79 -112 63 -173 -15 -55 -1 -75 73 -111 97 -46
167 -33 167 32 0 37 15 37 28 0 9 -26 7 -35 -18 -69 -16 -22 -33 -43 -39 -47
-6 -3 -11 -17 -11 -31 0 -13 -3 -24 -6 -24 -3 0 -29 20 -56 45 -50 45 -81 57
-172 70 -48 6 -48 7 -42 38 4 18 9 57 12 89 7 67 -15 116 -73 161 -31 23 -46
27 -103 27 -114 0 -159 -24 -200 -107 -50 -99 -31 -188 45 -213 33 -11 42 -9
100 19 75 37 105 71 105 117 0 43 -25 68 -59 59 -38 -10 -50 -23 -57 -64 -12
-64 -21 -80 -43 -74 -51 13 -28 148 29 178 73 38 161 5 180 -66 25 -92 -5
-134 -140 -198 -47 -22 -97 -48 -113 -58 -25 -16 -30 -17 -54 -3 -72 40 -98
149 -64 261 28 90 73 157 119 176 96 41 168 51 237 32z m438 -128 c32 -12 82
-66 104 -111 13 -28 16 -60 14 -158 -3 -164 -22 -212 -105 -254 -38 -19 -40
-20 -53 -2 -7 10 -13 35 -13 57 0 32 6 45 35 71 19 18 35 40 35 49 0 9 7 17
16 17 25 0 47 67 42 134 -4 55 -8 62 -51 102 -50 48 -75 53 -132 30 -29 -12
-35 -20 -35 -45 0 -23 5 -30 22 -33 38 -5 33 -28 -6 -28 -27 0 -40 6 -52 25
-16 24 -16 28 1 65 20 43 44 64 96 78 45 13 53 14 82 3z m-738 -446 c50 -105
128 -128 254 -76 107 45 151 40 151 -18 0 -31 -113 -146 -154 -157 -18 -4 -42
-2 -60 6 -17 7 -58 17 -91 22 -33 6 -70 12 -83 14 -30 6 -92 131 -92 186 0 33
26 78 45 78 2 0 16 -25 30 -55z m-1486 9 c21 -34 21 -38 5 -55 -9 -11 -30 -19
-46 -19 -24 0 -32 6 -44 36 -21 50 -11 74 31 74 27 0 37 -6 54 -36z m864 -56
c-7 -66 16 -119 63 -145 66 -37 151 -55 198 -42 43 12 126 87 126 114 0 15 38
35 66 35 24 0 18 -93 -10 -148 -27 -54 -73 -90 -156 -122 -102 -40 -188 -12
-253 85 -80 118 -95 177 -60 236 24 40 31 36 26 -13z"/>
<path d="M7112 5658 c3 -7 20 -21 39 -31 52 -29 85 -64 110 -118 20 -41 28
-49 48 -47 66 7 65 -163 -2 -239 -18 -20 -18 -23 -3 -45 9 -12 16 -33 16 -45
0 -19 -6 -23 -28 -23 -15 0 -33 -5 -40 -12 -14 -14 -16 -57 -2 -78 8 -12 15
-10 42 16 18 18 54 41 81 52 27 12 47 27 47 36 0 9 -4 16 -8 16 -5 0 -16 6
-25 13 -15 11 -15 16 -2 61 17 55 19 170 5 230 -6 26 -22 52 -49 77 -36 32
-46 53 -42 81 2 15 -57 46 -107 57 -68 14 -85 14 -80 -1z"/>
<path d="M5214 5386 c-83 -16 -111 -37 -142 -104 -24 -50 -27 -69 -27 -152 1
-82 5 -103 28 -150 41 -87 86 -132 167 -169 115 -53 220 -52 301 2 34 23 68
71 58 82 -4 3 -32 -8 -64 -25 -67 -35 -87 -36 -191 -10 -64 15 -84 25 -108 52
-69 80 -118 244 -85 285 12 14 15 8 20 -49 12 -142 104 -242 234 -255 44 -5
60 -2 89 17 70 43 87 121 37 171 -35 35 -64 37 -85 7 -22 -30 -20 -41 3 -26
49 31 84 -69 40 -113 -18 -18 -30 -21 -79 -17 -78 6 -121 38 -149 113 -31 83
-28 132 12 178 l32 37 126 -9 c69 -5 141 -16 161 -24 41 -17 137 -126 176
-200 22 -44 27 -65 27 -132 0 -75 -3 -85 -35 -139 -41 -68 -74 -96 -148 -125
-95 -38 -252 -23 -339 30 -56 35 -126 101 -113 109 6 4 -21 39 -62 83 -54 57
-88 83 -132 102 -112 49 -186 44 -286 -19 -30 -20 -75 -45 -100 -56 -60 -28
-70 -44 -70 -107 0 -64 15 -103 65 -169 41 -53 74 -119 75 -147 0 -26 -45 -67
-74 -67 -35 0 -53 22 -60 74 -13 83 -74 128 -158 118 -52 -6 -92 -46 -117
-118 -34 -98 -25 -160 29 -209 12 -11 26 -29 31 -40 5 -11 15 -28 21 -37 11
-15 5 -25 -40 -71 -80 -81 -91 -161 -30 -212 41 -34 84 -33 137 5 52 38 69 70
53 105 -14 30 -33 39 -66 31 -54 -13 -72 -60 -37 -95 17 -17 18 -20 4 -26 -28
-10 -63 33 -63 78 0 94 146 149 221 81 14 -13 16 -26 12 -72 -7 -73 -25 -107
-71 -136 -54 -34 -109 -49 -175 -49 -69 1 -101 19 -118 68 -7 19 -16 35 -19
35 -3 0 -12 -16 -19 -36 -12 -34 -11 -37 14 -64 29 -30 102 -50 187 -50 55 0
187 41 229 71 85 60 92 175 16 265 -23 27 -35 32 -89 38 -60 6 -89 18 -75 32
7 7 151 -9 177 -20 12 -5 16 4 18 44 l3 50 -84 0 c-78 0 -87 2 -126 31 -73 53
-100 151 -53 192 42 36 117 24 129 -20 7 -31 -9 -49 -27 -28 -7 8 -23 15 -35
15 -25 0 -50 -24 -41 -38 10 -16 108 -59 175 -78 64 -17 64 -17 107 5 53 28
69 52 78 113 7 45 5 48 -38 97 -79 89 -91 128 -72 230 16 82 35 109 102 140
54 26 148 28 223 5 45 -13 68 -30 160 -123 59 -60 136 -128 171 -152 34 -24
76 -54 94 -66 45 -32 150 -56 218 -50 94 8 211 84 261 169 105 182 85 299 -81
482 -129 141 -218 176 -377 146 -36 -7 -69 -9 -73 -5 -4 4 -1 10 5 12 7 3 23
13 35 23 47 38 -24 58 -128 36z m-44 -99 c0 -7 -14 -26 -31 -43 -31 -29 -31
-30 -27 -116 4 -74 9 -96 39 -158 20 -39 32 -73 27 -76 -56 -35 -131 163 -108
285 11 59 14 66 43 99 22 24 57 30 57 9z m-772 -1294 c-4 -22 -22 -20 -26 1
-2 10 3 16 13 16 10 0 15 -7 13 -17z"/>
<path d="M5393 5201 c-23 -11 -49 -31 -59 -45 -25 -39 -22 -101 6 -131 28 -29
84 -43 105 -25 23 19 18 40 -10 40 -29 0 -59 40 -51 68 9 28 78 56 118 48 91
-18 158 -111 158 -218 0 -32 -6 -73 -14 -91 -19 -47 -86 -100 -148 -119 -95
-30 -137 -30 -210 -5 -37 13 -65 20 -63 17 12 -19 141 -74 185 -78 60 -6 160
13 211 39 65 33 128 129 129 195 0 71 -122 251 -204 299 -51 30 -96 31 -153 6z"/>
<path d="M8160 5105 c0 -23 25 -73 42 -84 18 -11 18 -10 3 26 -16 38 -45 76
-45 58z"/>
<path d="M4787 4875 c-52 -18 -83 -49 -103 -101 -22 -57 -12 -135 23 -189 l27
-40 14 34 c11 28 11 43 1 78 -19 71 -7 117 45 173 62 66 61 70 -7 45z"/>
<path d="M4893 4765 c-37 -16 -53 -42 -53 -84 0 -34 39 -71 75 -71 12 0 34 9
49 21 21 16 26 29 26 64 0 35 -5 48 -26 64 -31 24 -30 24 -71 6z m42 -70 c0
-21 -5 -31 -19 -33 -30 -6 -42 14 -26 43 18 34 45 28 45 -10z"/>
<path d="M5103 4624 c-3 -8 -1 -26 5 -40 9 -18 19 -24 42 -24 36 0 37 4 8 47
-25 36 -45 42 -55 17z"/>
<path d="M8316 4599 c-3 -17 -6 -47 -6 -66 0 -66 -24 -129 -94 -247 -93 -156
-169 -216 -272 -216 -24 0 -34 -6 -43 -26 -18 -41 -97 -139 -143 -178 -47 -41
-115 -76 -145 -76 -50 0 -156 -42 -195 -78 -71 -64 -98 -116 -98 -190 0 -144
58 -237 192 -308 66 -34 82 -38 166 -42 88 -4 96 -3 157 27 51 26 70 41 85 71
17 33 28 90 17 90 -2 0 -43 -21 -92 -46 -85 -44 -93 -46 -147 -40 -32 3 -75
13 -95 21 -43 18 -105 74 -97 87 3 4 -2 8 -10 8 -19 0 -46 39 -55 82 -14 60 4
93 86 163 79 67 136 91 154 64 15 -24 10 -39 -20 -67 -46 -43 -54 -69 -53
-157 3 -121 22 -151 108 -169 23 -5 37 -2 57 14 33 26 35 50 4 50 -35 0 -47
19 -47 75 0 62 16 121 43 159 21 30 100 70 160 81 29 6 37 13 42 36 8 34 48
69 81 69 29 0 29 -3 3 -56 -15 -32 -18 -52 -13 -79 6 -31 13 -40 49 -55 23
-10 53 -33 66 -51 21 -30 24 -45 26 -164 1 -71 5 -143 8 -158 9 -49 -38 -117
-80 -117 -15 0 -33 -12 -50 -34 -22 -28 -33 -34 -79 -39 -125 -13 -215 -104
-176 -178 21 -38 110 -16 110 27 0 8 -10 14 -25 14 -36 0 -31 26 6 39 48 17
87 13 130 -11 45 -25 45 -25 59 -148 17 -147 49 -193 191 -274 l34 -20 -42 -6
c-54 -8 -73 -25 -73 -66 0 -27 5 -37 25 -46 49 -22 98 25 63 60 -17 17 -23 15
-36 -14 -13 -27 -32 -24 -32 5 0 28 19 38 82 44 56 5 57 5 63 -24 8 -37 -9
-90 -40 -119 -33 -31 -102 -38 -161 -15 -25 9 -48 15 -51 11 -14 -14 10 -35
58 -51 44 -15 60 -16 101 -6 67 15 68 15 68 -18 0 -36 -31 -61 -76 -61 -62 0
-114 -65 -114 -144 0 -57 30 -94 82 -103 32 -5 41 -1 68 25 33 33 38 58 17 87
-11 13 -21 16 -42 11 -21 -5 -25 -10 -16 -19 17 -17 14 -67 -4 -67 -22 0 -55
37 -55 61 0 12 9 37 20 55 17 27 29 34 68 40 32 5 56 16 76 36 26 27 28 33 22
82 -4 42 -2 60 15 92 14 28 19 50 15 76 -11 72 -26 89 -106 125 -86 39 -113
62 -130 106 -7 18 -19 46 -28 63 -14 28 -14 37 1 97 21 83 21 108 0 168 -14
37 -15 53 -7 67 18 27 44 27 44 0 0 -13 8 -33 18 -46 18 -23 18 -23 42 -4 l23
19 -18 46 c-17 45 -17 48 1 94 15 39 18 71 16 162 -2 84 1 116 10 122 10 7 10
14 0 41 -8 18 -21 57 -29 86 -15 50 -15 56 1 83 9 15 18 44 19 62 3 33 2 34
-32 31 -20 -1 -41 2 -48 7 -7 6 -22 7 -35 3 l-23 -7 20 23 c11 12 40 31 64 42
58 25 70 43 71 103 0 77 -10 85 -66 55 -25 -13 -56 -37 -67 -52 -27 -36 -37
-35 -37 3 0 26 -3 29 -20 24 -11 -4 -33 -4 -49 0 -34 7 -37 35 -4 35 14 0 39
15 60 35 20 20 61 50 91 67 62 35 96 93 86 145 -4 20 1 40 15 64 12 19 22 53
22 79 l2 45 6 -47 c12 -82 21 -65 21 38 0 119 -10 234 -20 234 -4 0 -10 -14
-14 -31z m-386 -766 c0 -26 -35 -80 -60 -93 -25 -14 -72 -10 -77 7 -5 14 54
82 81 93 35 14 56 11 56 -7z"/>
<path d="M4841 4495 c-7 -25 -12 -47 -10 -49 2 -1 23 -8 46 -14 52 -15 105
-59 168 -140 86 -108 85 -107 85 -212 0 -52 -4 -101 -8 -107 -5 -7 -33 -25
-63 -40 -50 -26 -57 -34 -93 -107 -30 -61 -40 -95 -44 -147 -5 -79 10 -147 42
-182 11 -13 28 -37 37 -53 9 -16 37 -40 61 -54 24 -14 61 -38 82 -55 37 -28
39 -29 52 -10 7 11 19 26 26 34 7 8 13 20 14 27 1 6 5 20 8 30 4 13 0 23 -12
29 -54 29 -92 58 -92 70 0 7 -8 11 -17 9 -22 -5 -33 2 -62 44 -18 26 -22 40
-16 70 13 70 75 161 174 255 l61 59 0 88 c0 102 -8 151 -24 148 -25 -5 -56 15
-77 48 -12 19 -44 52 -73 74 -67 50 -162 148 -153 157 4 4 27 2 50 -4 23 -6
43 -10 45 -8 2 1 0 14 -4 29 -6 25 -9 26 -73 26 -44 0 -74 5 -87 15 -27 21
-28 20 -43 -30z m387 -418 c2 -28 -1 -37 -12 -37 -12 0 -16 11 -16 41 0 52 24
48 28 -4z"/>
<path d="M4774 4350 c-18 -6 -53 -30 -78 -54 -46 -43 -46 -44 -46 -108 0 -85
23 -118 80 -118 49 0 80 35 80 92 0 26 5 41 15 45 21 7 32 -4 18 -18 -8 -8 -8
-20 -1 -40 27 -79 -122 -146 -196 -88 -30 23 -33 19 -10 -16 31 -48 124 -59
188 -22 58 33 81 69 81 127 0 59 -24 90 -70 90 -45 0 -69 -29 -62 -75 5 -30 3
-36 -11 -33 -26 5 -41 45 -31 81 15 54 51 80 108 81 63 1 99 -24 125 -88 18
-42 19 -52 7 -109 -7 -34 -19 -70 -28 -79 -8 -9 -47 -34 -86 -55 -66 -35 -78
-38 -149 -37 -70 1 -78 -1 -78 -18 0 -51 -70 -127 -154 -168 -60 -29 -172 -38
-246 -20 -44 11 -54 10 -67 -2 -13 -13 -13 -17 2 -31 40 -41 201 -60 290 -36
21 6 73 33 114 60 76 50 98 57 132 39 37 -20 23 -48 -31 -64 -63 -19 -164
-104 -148 -123 8 -10 7 -18 -4 -31 -47 -53 -62 -137 -34 -190 26 -49 145 -93
185 -67 20 12 1 25 -36 25 -68 0 -129 62 -121 124 l3 30 27 -40 c43 -61 89
-87 137 -79 33 5 42 3 47 -9 29 -77 -101 -124 -209 -76 -68 30 -92 70 -92 152
0 66 -1 68 -28 74 -16 3 -31 3 -34 0 -3 -3 -6 -45 -7 -93 -1 -78 2 -95 28
-146 23 -47 36 -62 72 -80 47 -23 61 -57 24 -57 -59 0 -127 73 -161 171 -17
51 -20 80 -17 147 3 59 1 82 -8 82 -26 0 -44 -204 -24 -276 22 -76 119 -171
224 -220 l84 -39 5 -45 c3 -25 9 -59 12 -76 9 -41 -16 -68 -56 -59 -22 5 -29
3 -29 -9 0 -20 26 -33 92 -47 57 -12 110 -39 172 -88 59 -47 66 -43 66 39 0
59 -2 68 -16 63 -18 -6 -68 38 -90 79 -20 38 -17 97 6 136 26 42 40 41 40 -3
0 -58 44 -145 74 -145 6 0 19 25 29 55 16 52 16 57 1 80 -26 39 -14 109 29
183 20 35 40 73 43 87 7 29 39 59 53 51 6 -4 0 -21 -14 -43 -26 -37 -35 -125
-15 -138 16 -10 55 23 95 80 20 30 41 55 46 55 15 0 30 39 23 65 -10 41 -55
58 -145 53 -44 -2 -79 0 -79 4 0 3 12 15 26 25 34 25 26 55 -29 112 -40 42
-124 91 -158 91 -21 0 -43 26 -34 40 4 6 38 26 76 46 39 19 72 41 75 49 3 7
-2 25 -11 39 -33 50 0 107 112 193 84 64 105 93 106 142 1 43 -43 136 -92 192
-57 67 -148 100 -217 79z m-30 -854 c39 -16 79 -70 102 -138 12 -37 19 -46 32
-41 16 6 16 5 1 -13 -9 -10 -21 -34 -27 -52 -20 -58 -69 -109 -138 -143 -54
-27 -71 -31 -111 -25 -54 7 -58 10 -50 31 5 11 21 15 59 15 68 1 126 27 166
76 44 53 49 91 22 145 -31 62 -48 78 -92 89 -51 14 -78 0 -78 -41 0 -26 -3
-30 -22 -27 -21 3 -23 9 -23 58 0 48 3 56 25 67 33 17 93 16 134 -1z"/>
<path d="M3365 4220 c9 -34 69 -178 114 -275 45 -94 167 -262 236 -322 26 -24
51 -43 55 -43 25 0 11 34 -40 93 -91 107 -239 326 -308 454 -35 65 -60 107
-57 93z"/>
<path d="M7815 4061 c-20 -19 -193 -106 -291 -146 -177 -72 -341 -202 -386
-305 -31 -70 -41 -155 -28 -225 15 -73 66 -182 98 -204 12 -9 53 -40 89 -69
88 -70 127 -89 236 -114 139 -30 225 -21 344 36 115 56 172 112 221 216 67
143 42 281 -62 345 -57 35 -103 38 -159 11 -46 -23 -66 -51 -84 -119 -11 -45
-11 -53 4 -69 10 -11 30 -18 55 -18 55 0 78 15 78 50 0 28 -3 30 -35 30 -40 0
-40 1 -19 46 31 65 96 32 133 -69 40 -107 -47 -269 -180 -337 -123 -64 -334
-17 -465 103 -77 70 -134 185 -134 272 0 57 3 66 59 151 79 121 147 172 289
218 75 25 260 168 251 194 -3 8 -8 9 -14 3z"/>
<path d="M6560 3980 c0 -11 4 -19 10 -17 5 1 27 -20 48 -48 27 -36 45 -50 62
-50 22 0 25 4 25 40 0 40 0 40 -36 37 -31 -3 -40 1 -59 27 -24 35 -50 41 -50
11z"/>
<path d="M6670 3979 c0 -11 5 -17 10 -14 6 3 10 13 10 21 0 8 -4 14 -10 14 -5
0 -10 -9 -10 -21z"/>
<path d="M7177 3946 c-26 -8 -76 -33 -111 -55 -121 -79 -227 -92 -287 -35
l-28 27 -11 -29 c-14 -36 -15 -52 -7 -86 7 -25 10 -26 27 -16 15 10 22 9 38
-5 10 -9 32 -22 49 -28 26 -8 38 -7 72 10 22 12 43 21 47 21 16 0 -11 -79 -41
-121 -39 -52 -53 -84 -66 -153 -12 -63 0 -106 48 -176 l38 -55 7 90 c10 116
20 144 73 203 28 32 46 62 51 88 4 21 18 64 31 94 45 103 110 150 251 185 52
13 99 28 103 32 4 4 -18 8 -49 8 -31 0 -86 4 -122 7 -44 5 -80 3 -113 -6z"/>
<path d="M5239 3737 c-42 -28 -82 -102 -74 -137 11 -44 46 -72 80 -66 16 4 39
7 50 9 23 2 53 88 54 154 1 65 -47 83 -110 40z"/>
<path d="M8290 3168 c-30 -48 -6 -120 34 -105 26 10 57 69 54 102 -3 26 -8 30
-35 33 -28 3 -36 -2 -53 -30z"/>
<path d="M8433 3090 c-33 -20 -73 -85 -73 -119 0 -18 -45 -39 -58 -26 -3 3 1
5 8 5 10 0 11 3 3 11 -15 15 -77 -13 -97 -43 -9 -14 -19 -44 -22 -69 -5 -39
-3 -47 22 -73 16 -15 41 -34 56 -42 14 -7 29 -23 33 -34 3 -11 10 -20 14 -20
9 0 28 43 33 74 2 11 9 21 17 24 11 4 12 -3 7 -31 l-7 -35 29 10 c37 14 60 5
73 -28 13 -37 3 -80 -26 -101 -35 -27 -37 -57 -3 -61 19 -2 37 6 63 30 31 28
37 41 42 88 5 51 3 59 -31 109 -34 51 -36 55 -21 77 19 29 19 47 0 84 -14 27
-20 30 -65 30 -54 0 -57 4 -36 55 22 51 79 72 120 42 15 -11 16 -17 5 -41 -10
-22 -10 -39 0 -89 18 -85 36 -117 66 -117 29 0 31 16 14 89 -7 30 -7 47 1 55
5 5 10 19 10 31 0 106 -93 167 -177 115z m-33 -202 c11 -18 20 -36 20 -39 0
-18 -109 -42 -130 -29 -12 7 -12 13 -1 37 8 16 16 23 18 16 3 -7 16 -13 30
-13 23 0 25 3 20 30 -9 42 17 40 43 -2z"/>
<path d="M4337 3004 c-2 -2 -18 -6 -36 -8 -17 -2 -34 -6 -38 -9 -10 -11 5 -35
33 -53 26 -17 28 -17 63 3 26 14 44 18 64 12 33 -9 35 5 3 26 -26 17 -82 36
-89 29z"/>
<path d="M7380 2988 c0 -8 10 -20 23 -27 12 -6 30 -25 39 -41 19 -33 54 -39
101 -17 33 15 34 25 5 36 -13 5 -48 18 -78 31 -81 32 -90 34 -90 18z"/>
<path d="M8193 2693 c-10 -26 19 -68 47 -69 14 0 54 -4 90 -8 81 -9 123 3 118
36 -4 33 -36 35 -48 4 -8 -22 -16 -26 -47 -26 -31 0 -45 7 -76 40 -39 42 -73
51 -84 23z"/>
<path d="M4264 2660 c-119 -28 -180 -185 -119 -307 33 -66 86 -101 163 -109
55 -6 59 -5 100 31 60 52 86 106 87 180 0 52 -5 68 -33 112 -51 79 -121 112
-198 93z m14 -107 c3 -27 -1 -35 -23 -45 -49 -22 -84 24 -49 63 11 12 28 19
43 17 21 -2 27 -9 29 -35z"/>
<path d="M8440 5433 c-44 -7 -90 -24 -90 -33 0 -5 12 -2 28 6 15 7 43 14 62
15 19 0 44 4 55 9 18 8 18 9 -5 8 -14 0 -36 -3 -50 -5z"/>
<path d="M2503 4254 c3 -16 1 -37 -4 -46 -7 -13 -6 -18 5 -18 7 0 16 6 19 13
7 18 -3 66 -16 74 -6 4 -8 -5 -4 -23z"/>
</g>
</svg>
