<?xml version="1.0" standalone="no"?>
<!DOCTYPE svg PUBLIC "-//W3C//DTD SVG 20010904//EN"
 "http://www.w3.org/TR/2001/REC-SVG-20010904/DTD/svg10.dtd">
<svg version="1.0" xmlns="http://www.w3.org/2000/svg"
 width="1024.000000pt" height="1024.000000pt" viewBox="0 0 1024.000000 1024.000000"
 preserveAspectRatio="xMidYMid meet">
<metadata>
Created by potrace 1.16, written by Peter Selinger 2001-2019
</metadata>
<g transform="translate(0.000000,1024.000000) scale(0.100000,-0.100000)"
fill="currentColor" stroke="currentColor">
<path d="M7440 9823 c-133 -88 -226 -194 -289 -326 -52 -109 -72 -204 -79
-364 -2 -73 -7 -133 -9 -133 -2 0 -21 14 -42 32 -21 17 -87 60 -147 95 -102
60 -168 93 -357 181 -56 26 -84 46 -98 69 -24 39 -32 40 -51 11 -14 -22 -15
-21 -33 26 -17 44 -17 51 -4 75 44 78 183 76 230 -4 26 -43 39 -45 39 -5 0 21
-10 41 -32 63 -18 18 -24 22 -13 9 l20 -25 -47 27 c-72 42 -103 48 -149 29
-68 -27 -90 -110 -48 -187 32 -60 18 -62 -35 -6 -48 52 -49 52 -43 108 l5 57
-15 -34 c-23 -55 -10 -96 52 -157 52 -52 53 -54 36 -75 l-16 -21 -79 32 c-67
26 -95 32 -177 34 -54 1 -100 -1 -101 -5 -4 -10 -97 22 -132 44 -14 10 -33 32
-42 49 l-17 33 35 -27 c46 -35 90 -46 243 -57 86 -7 149 -17 185 -31 l55 -20
-36 32 c-48 43 -59 67 -59 123 0 59 26 97 80 119 51 20 168 21 218 1 31 -13
34 -13 18 0 -33 25 -119 37 -181 26 -63 -12 -139 -43 -169 -69 -28 -25 -56
-91 -56 -134 l0 -36 -97 4 c-110 6 -169 23 -203 59 -13 13 -27 22 -31 19 -5
-3 -6 2 -3 10 3 9 1 16 -4 16 -6 0 -14 -9 -17 -21 -19 -58 40 -165 108 -198
23 -11 83 -32 132 -46 50 -14 110 -36 134 -47 40 -19 42 -22 23 -29 -69 -26
-312 -34 -427 -14 -19 3 -13 -1 15 -11 36 -12 75 -14 200 -10 85 3 174 8 198
12 26 4 42 3 42 -3 0 -14 -138 -26 -305 -27 -132 0 -143 1 -197 27 -59 27 -76
43 -35 32 12 -3 1 7 -25 22 -25 15 -85 62 -133 103 -183 159 -280 191 -475
156 -46 -8 -101 -27 -139 -47 -34 -19 -79 -43 -98 -53 -20 -11 -50 -22 -67
-25 l-30 -7 38 -24 c30 -18 60 -25 130 -31 181 -14 311 -72 395 -177 28 -36
91 -159 91 -179 0 -5 -29 -9 -64 -10 -35 -1 -90 -12 -122 -24 -137 -50 -208
-69 -254 -69 -27 0 -52 -4 -55 -10 -4 -6 34 -7 112 -2 214 13 303 8 368 -22
82 -37 185 -116 225 -173 19 -26 51 -66 70 -87 l35 -39 -40 21 c-44 22 -102
76 -152 139 -48 61 -148 133 -174 126 -15 -4 -20 -2 -15 5 5 8 1 10 -9 5 -10
-3 -20 -2 -24 3 -9 14 -263 -1 -346 -20 -80 -18 -159 -22 -135 -6 8 5 33 10
55 11 84 2 92 17 9 18 -115 1 -169 20 -225 78 -54 55 -66 76 -83 144 -11 40
-11 51 0 60 10 8 14 2 20 -28 22 -124 125 -218 247 -228 l52 -4 -46 8 c-147
28 -248 135 -237 252 6 55 43 105 85 115 30 8 29 22 -1 30 -83 20 -168 -120
-169 -277 -1 -64 3 -83 25 -120 48 -80 132 -140 252 -179 51 -16 171 -7 252
19 83 26 170 34 214 18 24 -8 45 -28 67 -62 39 -60 42 -80 11 -71 -65 19 -166
17 -263 -4 -293 -63 -303 -64 -363 -52 -105 22 -62 5 85 -34 154 -40 254 -49
368 -31 l50 7 -41 -19 c-50 -23 -131 -41 -187 -41 -55 0 -214 43 -277 75 -56
28 -150 55 -194 55 -46 0 -23 -12 71 -36 47 -13 89 -27 92 -32 7 -11 39 -29
156 -85 145 -71 183 -81 299 -75 l101 6 -55 -19 c-119 -39 -230 -19 -417 74
-131 66 -230 104 -240 93 -4 -3 -1 -6 6 -6 23 0 81 -32 75 -41 -3 -5 -10 -9
-15 -9 -6 0 -8 4 -4 9 8 14 -77 24 -156 19 -146 -11 -253 -103 -305 -263 l-14
-40 2 40 c1 22 0 58 -2 80 -3 39 -3 39 -10 -15 -12 -87 -12 -138 1 -120 9 12
10 12 5 -3 -3 -10 -6 -21 -6 -23 0 -3 -4 -2 -10 1 -5 3 -10 2 -10 -4 0 -6 -14
-18 -32 -27 -42 -22 -111 -14 -145 17 -26 24 -26 24 -14 1 22 -42 59 -57 141
-57 65 0 82 4 125 29 28 16 82 61 120 101 56 57 80 74 118 85 79 21 149 17
199 -13 45 -28 103 -76 97 -81 -2 -1 -25 -14 -50 -29 -70 -40 -120 -102 -152
-187 -61 -163 -141 -288 -210 -331 -83 -51 -196 -57 -260 -15 -18 12 -42 41
-54 66 -24 49 -30 32 -12 -33 34 -125 226 -210 364 -163 27 9 50 14 52 12 8
-8 -64 -60 -117 -85 -98 -46 -198 -27 -267 52 -35 40 -58 95 -77 187 -13 59
-14 61 -15 25 -1 -22 -8 -62 -16 -89 -8 -27 -15 -77 -16 -110 l-1 -61 -15 35
c-13 27 -16 68 -15 185 2 169 -13 247 -57 293 -38 40 -179 79 -232 65 -21 -5
-36 -6 -33 -2 7 12 73 29 112 29 47 0 101 -25 145 -68 49 -48 74 -88 104 -170
15 -40 22 -53 18 -32 -8 52 -57 150 -96 195 -43 48 -120 85 -179 85 -49 0
-135 -34 -126 -49 4 -5 1 -13 -5 -17 -8 -4 -9 -3 -5 4 14 23 -10 12 -36 -15
-30 -33 -39 -55 -28 -72 5 -10 14 -6 33 12 66 66 210 36 255 -53 26 -52 28
-104 6 -197 -17 -75 -12 -173 12 -232 43 -104 151 -209 280 -274 l51 -26 6
-60 c6 -70 52 -168 103 -221 19 -20 34 -39 34 -43 0 -12 -66 -37 -96 -37 -38
0 -88 27 -146 79 -28 25 -53 45 -56 43 -2 -2 -7 0 -10 4 -4 4 -1 4 5 0 17 -9
16 -7 -7 39 -11 22 -20 49 -20 62 0 12 -5 25 -12 29 -21 13 -1 -100 27 -157
15 -30 50 -76 79 -103 48 -47 50 -49 21 -42 -58 14 -114 47 -148 89 -46 56
-57 80 -74 151 -27 117 -96 170 -223 171 -76 0 -138 -11 -126 -22 3 -4 31 -10
61 -14 110 -15 166 -89 176 -234 9 -110 40 -195 104 -277 25 -32 44 -58 42
-58 -31 0 -132 -27 -167 -45 -135 -69 -196 -183 -159 -296 15 -43 33 -64 24
-28 -9 36 11 102 41 138 34 41 119 88 182 102 48 10 61 8 157 -21 80 -24 123
-32 186 -32 70 0 88 -3 121 -24 79 -50 137 -67 231 -66 81 0 87 -1 73 -17 -23
-26 -52 -102 -60 -156 -15 -113 -26 -143 -68 -181 -96 -87 -210 -87 -286 0
-26 30 -32 45 -32 82 0 51 20 96 52 118 12 9 23 23 24 31 2 13 -4 15 -29 9
-87 -18 -137 -101 -137 -226 0 -125 46 -219 143 -289 37 -27 38 -29 16 -30
-43 -2 94 -28 149 -29 65 0 95 12 195 79 43 29 80 51 82 49 3 -2 -19 -23 -48
-46 -28 -24 -63 -52 -77 -63 l-25 -20 25 12 c22 10 23 10 10 -4 -8 -8 -45 -35
-82 -60 -36 -25 -64 -47 -62 -50 10 -10 -84 -77 -152 -109 -60 -28 -82 -33
-166 -36 -82 -4 -110 0 -187 22 -111 32 -205 73 -250 111 -38 33 -71 101 -71
149 0 17 -7 41 -15 52 -12 18 -12 24 1 43 30 42 89 71 146 71 71 0 114 -13
237 -71 57 -27 106 -48 108 -46 6 7 -210 104 -257 117 -25 6 -54 21 -66 31
-12 11 -39 22 -60 25 -38 4 -37 4 11 -13 l50 -17 -62 -6 c-79 -9 -128 -40
-178 -116 -50 -75 -81 -168 -95 -288 -40 -332 152 -545 491 -546 253 0 450
124 609 385 69 113 156 298 192 407 21 64 42 111 59 127 25 25 106 57 117 46
3 -3 -2 -5 -10 -5 -15 0 -98 -84 -98 -99 0 -3 28 -4 62 -3 55 4 63 1 79 -20
33 -42 18 -122 -28 -159 -17 -13 -17 -13 -4 4 8 10 16 26 18 35 1 10 5 32 9
50 4 22 1 40 -10 57 -18 27 -40 31 -97 15 -34 -10 -38 -15 -59 -80 -12 -38
-21 -72 -20 -76 1 -4 -2 -10 -8 -13 -7 -5 -102 -197 -102 -207 0 -2 9 -4 20
-4 29 0 76 -26 84 -45 13 -34 5 -36 -29 -6 -20 17 -40 31 -45 31 -4 0 -15 3
-24 6 -11 4 -25 -14 -52 -68 -20 -40 -45 -84 -55 -97 -26 -33 -25 -36 20 -49
56 -17 79 -15 127 13 49 29 61 47 80 120 l13 50 -4 -54 c-4 -45 -10 -61 -37
-89 -36 -37 -97 -72 -125 -72 -16 0 -18 -8 -15 -59 3 -50 -1 -67 -23 -105 -27
-47 -102 -102 -127 -94 -7 3 11 17 38 32 67 36 97 88 97 164 0 43 -4 58 -19
69 -43 31 -58 27 -127 -38 -72 -67 -172 -140 -215 -158 -26 -11 -27 -15 -27
-84 0 -65 -3 -76 -30 -110 -36 -45 -96 -70 -152 -64 -39 5 -83 22 -83 33 0 2
10 -1 22 -7 13 -7 49 -12 80 -12 101 0 156 64 144 167 l-7 54 -52 -14 c-116
-31 -197 -36 -277 -20 -94 20 -90 20 -90 -7 0 -12 -9 -39 -20 -60 -26 -49 -25
-73 5 -102 17 -18 35 -25 64 -25 76 0 116 36 140 128 13 46 36 60 25 14 -23
-91 -84 -162 -141 -162 -47 0 -105 32 -119 66 l-14 33 -37 -15 c-45 -19 -92
-12 -132 22 -47 39 -48 71 -6 154 l36 72 -38 41 c-21 23 -49 59 -62 80 l-24
39 -43 -43 c-24 -24 -47 -57 -52 -78 -9 -31 -10 -32 -11 -10 -1 19 -9 30 -30
39 -36 14 -56 37 -66 70 l-7 25 19 -27 c21 -30 67 -69 80 -67 4 1 28 23 52 50
l43 48 -16 47 c-9 26 -16 65 -16 86 0 26 -5 41 -16 45 -25 9 -102 -33 -125
-69 -12 -18 -18 -24 -13 -13 4 11 8 32 8 47 1 15 5 23 9 19 5 -5 25 0 45 10
20 11 46 19 58 19 20 0 22 6 27 88 4 71 2 89 -11 100 -39 31 -108 1 -132 -58
-7 -17 -15 -29 -17 -26 -2 2 2 20 11 39 21 51 54 70 117 65 l52 -3 13 51 c33
129 118 249 199 280 l45 17 -51 23 c-28 13 -58 24 -67 24 -28 0 -160 -68 -176
-92 -9 -12 -16 -38 -16 -56 0 -27 -8 -42 -37 -68 -61 -56 -67 -47 -75 96 -10
205 -66 352 -187 498 -118 142 -220 212 -365 254 -107 30 -273 30 -391 -1
-224 -58 -429 -226 -563 -461 -117 -205 -136 -288 -136 -585 0 -131 5 -256 11
-290 52 -270 53 -314 9 -410 -47 -103 -105 -145 -199 -145 -137 0 -227 82
-227 209 0 41 43 84 74 75 18 -6 19 -5 7 10 -21 25 -57 19 -97 -16 -134 -118
-78 -320 116 -423 l64 -34 -96 -46 c-111 -54 -165 -60 -226 -26 l-37 22 28
-26 c15 -14 24 -25 19 -25 -5 0 -19 11 -32 25 -13 14 -21 25 -17 25 4 0 -3 18
-14 40 -13 25 -19 49 -15 64 3 14 2 27 -3 31 -15 9 -34 -73 -26 -114 28 -146
148 -212 321 -175 43 9 90 18 104 19 14 2 72 13 130 24 132 27 234 74 305 142
l54 51 8 -28 c4 -16 8 -74 8 -129 0 -91 -3 -106 -31 -165 -39 -82 -79 -128
-156 -180 -74 -49 -125 -54 -163 -15 -19 18 -25 35 -25 68 0 39 5 49 40 81
l40 36 -25 6 c-87 22 -154 -106 -111 -211 8 -18 12 -35 10 -38 -10 -9 -73 11
-104 33 -87 62 -88 189 -4 289 31 37 27 38 -34 7 -115 -59 -176 -195 -154
-340 19 -121 73 -203 170 -254 169 -90 415 -88 650 5 35 14 65 23 68 21 12
-13 34 -169 34 -243 0 -108 -14 -173 -56 -261 -39 -83 -78 -121 -176 -170 -95
-48 -195 -69 -261 -54 -70 15 -127 41 -171 80 -45 40 -59 67 -80 148 -21 79
-49 126 -92 153 -37 23 -91 27 -121 10 -16 -9 -16 -10 7 -11 69 -1 100 -61
100 -191 0 -92 16 -173 31 -163 5 3 6 -2 3 -10 -3 -8 5 -37 17 -65 33 -79 120
-148 224 -181 22 -7 70 -25 107 -41 80 -35 166 -46 227 -29 23 6 45 10 46 8 7
-6 -66 -143 -88 -166 -77 -83 -261 -109 -324 -46 -19 19 -22 28 -13 44 14 26
-1 26 -18 0 -21 -34 4 -70 69 -103 47 -23 69 -28 135 -28 136 -1 222 43 324
167 71 85 103 109 258 189 125 65 180 108 246 194 90 117 156 277 156 378 0
80 42 1 62 -118 11 -61 10 -80 -5 -137 -15 -60 -23 -73 -76 -122 -70 -65 -81
-84 -81 -142 0 -73 38 -133 167 -271 210 -221 262 -305 293 -466 25 -129 25
-198 0 -286 -11 -39 -25 -98 -31 -132 -13 -75 -3 -99 46 -109 30 -5 46 1 126
51 50 31 93 54 95 52 2 -2 -3 -23 -11 -48 -18 -56 -45 -240 -45 -312 0 -66 9
-78 85 -106 219 -82 830 -76 875 9 23 42 -94 312 -177 409 -42 50 -134 97
-224 116 -41 9 -78 20 -83 25 -14 14 12 40 39 40 66 0 71 30 18 112 -25 40
-50 64 -78 78 -55 27 -85 54 -85 79 0 13 -12 26 -33 37 -17 9 -47 27 -65 41
-45 34 -147 165 -185 238 -30 58 -32 66 -35 200 -3 166 -5 175 -37 214 l-26
30 95 66 c53 36 98 70 101 76 13 20 23 6 35 -53 23 -107 76 -150 295 -244 211
-90 304 -159 390 -288 75 -114 92 -157 100 -258 11 -137 31 -146 140 -64 33
25 63 46 68 46 4 0 7 -17 7 -37 1 -74 27 -167 54 -189 66 -58 275 -92 449 -74
132 13 202 31 297 76 96 45 112 59 103 93 -15 59 -174 278 -236 324 -65 49
-99 60 -202 66 -99 6 -100 6 -97 31 2 14 0 20 -5 14 -5 -7 -14 1 -24 23 -11
21 -12 30 -4 23 9 -8 14 -6 18 4 4 10 -6 23 -29 37 -19 12 -33 24 -30 26 12
12 57 -9 73 -33 16 -25 16 -27 -2 -40 -21 -15 -14 -30 10 -21 17 7 20 39 5 66
-10 20 -78 51 -110 51 -11 0 -29 9 -40 20 -22 22 -40 26 -40 10 0 -16 -22 -12
-44 9 -12 10 -55 33 -96 51 -185 78 -254 134 -297 242 -15 39 -40 86 -55 106
-15 19 -28 38 -28 41 0 3 44 38 97 76 53 39 127 101 166 138 l70 69 76 -11
c178 -26 386 -41 529 -40 l153 2 78 -89 c94 -108 213 -228 386 -394 175 -167
181 -175 195 -259 14 -83 53 -149 152 -259 113 -126 187 -311 203 -512 7 -87
3 -107 -49 -248 -21 -56 -25 -174 -7 -196 23 -28 78 -19 157 24 101 55 107 53
72 -20 -58 -123 -100 -396 -67 -436 22 -27 107 -60 215 -84 123 -28 421 -39
559 -21 201 26 305 55 305 86 0 44 -96 272 -153 362 -21 35 -57 79 -80 99 -45
38 -175 104 -245 125 -37 11 -43 16 -38 33 3 12 6 29 6 39 0 19 3 20 68 37 37
10 42 14 42 40 0 23 -11 37 -59 73 -66 51 -94 67 -113 67 -7 0 2 -9 20 -20 32
-20 41 -43 21 -56 -14 -8 -81 57 -75 73 3 7 1 13 -4 13 -6 0 -10 10 -10 23 0
13 -7 32 -16 43 -15 18 -15 18 -5 -3 19 -39 14 -63 -14 -63 -20 0 -29 10 -51
54 -14 29 -53 89 -86 132 -124 163 -149 246 -147 491 1 212 -6 232 -121 348
-43 44 -83 91 -88 105 -11 29 -45 428 -47 550 0 10 13 15 45 16 42 2 262 64
301 85 29 15 37 11 55 -27 22 -46 90 -97 117 -88 14 4 17 3 12 -6 -6 -9 1 -11
26 -6 33 6 33 5 7 -5 -37 -14 -37 -46 -1 -55 34 -9 58 7 58 40 -1 22 3 26 30
26 39 1 101 23 125 45 11 10 29 37 41 61 21 44 21 44 72 44 143 0 386 54 782
173 228 68 379 107 415 107 20 0 46 -24 117 -107 91 -105 93 -109 115 -198 31
-124 31 -263 1 -321 -25 -48 -68 -90 -137 -137 -26 -17 -57 -47 -68 -65 l-20
-32 37 -34 c20 -19 57 -42 82 -51 24 -10 41 -21 36 -25 -4 -4 -62 -17 -128
-30 -175 -33 -168 -30 -182 -81 -20 -76 -15 -222 12 -352 47 -227 179 -477
251 -477 48 0 169 98 292 235 80 89 118 155 141 245 14 56 23 74 42 83 13 7
31 27 39 44 12 27 21 33 48 33 24 0 42 8 60 29 29 31 72 140 72 183 0 15 5 30
10 33 18 11 11 58 -12 83 -17 18 -23 37 -24 75 -1 29 -11 88 -23 132 -13 44
-27 96 -32 116 -5 21 -17 40 -26 43 -15 6 -14 4 2 -14 18 -20 18 -22 1 -57
-10 -21 -31 -54 -47 -75 -16 -20 -32 -53 -34 -72 -5 -34 -3 -36 23 -36 15 0
41 -12 57 -26 32 -27 32 -27 -51 -3 -38 12 -45 10 -87 -15 -53 -30 -97 -89
-121 -159 -20 -59 -20 -88 -1 -132 17 -41 39 -53 62 -34 15 13 15 12 4 -9 -14
-26 -13 -25 -44 -11 -36 16 -52 54 -52 125 0 34 -3 60 -7 57 -5 -2 -8 0 -8 6
0 5 -19 20 -42 34 -24 13 -76 43 -116 66 -41 23 -105 50 -144 60 l-70 18 50 6
c92 11 226 -38 303 -110 29 -26 54 -43 56 -38 2 6 21 38 43 72 30 45 51 66 85
82 54 26 60 38 8 16 -44 -18 -108 -77 -129 -118 l-15 -28 -50 45 c-50 45 -119
77 -212 99 -27 6 -51 17 -54 24 -3 8 23 43 59 81 47 48 71 83 86 125 27 71 27
82 2 232 -11 66 -20 123 -20 126 0 3 -42 56 -94 118 -93 112 -149 206 -160
268 l-5 32 34 -38 c19 -21 35 -45 35 -53 0 -9 7 -21 15 -28 8 -7 15 -18 15
-24 0 -6 13 -25 28 -43 15 -17 50 -62 77 -98 28 -37 58 -76 68 -86 9 -10 17
-21 17 -24 0 -3 0 -16 0 -29 0 -13 15 -43 34 -66 39 -49 49 -88 47 -175 -2
-66 -22 -187 -29 -167 -2 6 -8 12 -13 12 -6 0 -8 -4 -4 -9 3 -5 1 -12 -5 -16
-13 -8 -13 -45 0 -45 6 0 8 -11 4 -27 -6 -22 -4 -25 10 -20 10 4 19 1 23 -9 3
-8 12 -13 19 -10 8 3 14 0 14 -6 0 -6 3 -8 6 -5 4 4 2 12 -3 19 -12 15 10 227
27 258 6 12 11 87 11 183 1 89 1 176 2 192 0 30 -45 109 -57 98 -3 -4 -6 1 -6
10 0 9 -5 17 -12 17 -7 0 -33 20 -58 44 -25 24 -61 58 -80 77 -19 18 -38 32
-42 31 -5 -1 -8 7 -8 18 0 11 -3 20 -7 20 -5 0 -24 25 -43 55 -39 61 -50 65
-122 41 -24 -8 -71 -22 -105 -31 -35 -10 -63 -21 -63 -26 0 -8 -69 -31 -104
-35 -11 -1 -25 -9 -32 -19 -7 -9 -17 -14 -23 -10 -6 3 -11 1 -11 -5 0 -6 -5
-8 -11 -4 -11 6 -78 -10 -112 -27 -9 -5 -41 -11 -70 -14 -28 -3 -60 -8 -69
-11 -9 -2 -53 -6 -97 -8 -68 -2 -84 1 -98 16 -9 10 -22 18 -30 18 -7 0 -13 5
-13 10 0 6 5 10 10 10 6 0 10 4 10 10 0 5 -7 7 -16 3 -14 -5 -16 -2 -10 20 4
19 0 33 -20 56 -34 40 -41 96 -20 157 l16 47 -23 -19 c-13 -10 -9 -6 7 10 17
16 40 44 53 62 51 77 39 74 -40 -8 -46 -49 -85 -88 -88 -88 -3 0 -5 9 -5 19 0
11 4 18 7 15 4 -2 10 0 14 6 3 5 1 10 -5 10 -6 0 -8 5 -5 10 4 6 11 7 17 4 7
-4 8 -2 4 5 -4 6 -12 8 -18 5 -8 -5 -9 -1 -3 12 4 10 7 28 7 39 -1 11 14 40
33 64 55 69 103 257 105 404 0 37 20 4 46 -76 17 -54 28 -115 31 -180 5 -86 4
-100 -13 -118 -19 -21 -19 -22 3 -15 12 4 87 -7 170 -23 266 -54 360 -64 613
-65 255 -2 272 -5 365 -65 52 -34 128 -146 155 -227 20 -58 21 -77 15 -241 -5
-140 -3 -194 9 -255 15 -78 65 -210 92 -244 8 -10 4 4 -9 31 -14 28 -37 88
-52 135 -29 90 -33 163 -25 415 3 98 1 117 -21 175 -32 84 -100 184 -147 215
-20 13 -65 36 -98 49 -59 24 -69 25 -280 24 -234 -1 -375 14 -636 67 -67 14
-122 25 -124 25 -2 0 -4 42 -4 93 0 101 -17 181 -56 266 -13 30 -31 81 -40
115 -32 126 -144 330 -231 423 -111 120 -121 139 -139 271 -26 203 -63 335
-181 642 -73 190 -108 302 -115 369 l-3 33 100 -1 c55 -1 109 -5 120 -8 24 -6
151 -158 223 -265 53 -78 60 -99 86 -248 17 -94 35 -125 92 -157 51 -29 224
-73 284 -73 67 0 147 43 173 93 22 43 22 42 73 21 60 -25 161 -21 227 9 100
46 179 137 193 223 4 29 19 57 49 90 42 49 95 142 95 166 0 7 -16 -16 -35 -51
-33 -61 -73 -117 -46 -64 6 12 11 32 11 45 0 22 0 22 -13 3 -20 -30 -65 -145
-72 -185 -24 -126 -167 -240 -302 -240 -74 0 -118 16 -187 69 -28 21 -77 53
-108 71 -67 37 -113 86 -141 149 -32 71 -86 251 -76 251 5 0 9 -4 9 -9 0 -5 7
-12 15 -15 12 -4 14 -2 6 11 -7 14 -2 26 24 55 62 68 67 159 13 228 -40 52
-127 118 -148 113 -11 -3 -20 -9 -20 -14 0 -23 -25 -1 -111 99 -192 223 -361
487 -393 612 -3 14 5 3 19 -25 28 -56 27 -52 -22 92 l-36 103 54 70 c29 38 57
70 62 70 12 0 66 62 84 96 12 24 4 64 -13 64 -3 0 -2 -4 1 -10 3 -5 1 -10 -5
-10 -12 0 -8 19 15 73 7 17 14 25 16 19 2 -7 5 12 6 41 2 62 20 118 32 98 6
-9 10 -7 14 8 3 12 1 19 -4 15 -5 -3 -9 -1 -9 4 0 12 100 42 141 42 58 0 110
-20 152 -59 39 -37 39 -37 24 -68 -18 -35 -34 -43 -82 -43 -24 0 -39 7 -49 22
-24 34 -20 50 10 42 24 -6 25 -5 15 15 -25 45 -81 6 -81 -57 0 -50 22 -79 84
-108 82 -38 177 -29 260 24 47 30 67 36 60 18 -9 -24 16 -66 77 -128 l62 -63
-48 -6 c-63 -7 -89 -37 -82 -94 8 -56 52 -95 110 -96 l42 0 -40 -15 c-22 -8
-46 -22 -52 -31 -12 -16 -13 -16 -13 1 0 9 -4 14 -10 11 -13 -8 -13 -38 1 -68
14 -31 64 -60 93 -55 20 4 25 -1 35 -41 6 -25 20 -57 30 -70 l18 -24 18 76 17
75 28 -16 c25 -15 30 -15 54 2 34 21 46 53 46 119 l1 52 20 -38 c11 -21 24
-57 29 -80 6 -34 8 -36 9 -13 1 30 -42 138 -68 170 -15 18 -15 19 3 12 65 -23
110 -26 203 -11 53 9 99 17 103 20 18 11 82 -18 104 -48 39 -52 50 -109 32
-171 -24 -80 -62 -102 -130 -76 -40 15 -32 -8 9 -26 46 -19 81 -17 130 5 52
24 78 53 111 125 58 127 25 282 -74 351 -37 26 -53 30 -107 30 l-63 0 29 33
c48 54 62 90 56 146 -6 65 -56 116 -113 116 l-37 0 34 -23 c45 -30 58 -67 35
-102 -52 -80 -162 -86 -249 -13 l-28 23 28 50 c25 44 28 60 28 136 l0 86 70
28 c38 15 120 45 180 67 241 86 295 128 369 280 48 99 68 184 81 349 8 92 2
129 -19 129 -13 0 -23 -19 -45 -89 -20 -62 -10 -57 13 7 13 35 27 66 31 70 14
13 -4 -194 -23 -269 -45 -170 -118 -272 -239 -332 -69 -35 -266 -103 -382
-132 -60 -15 -64 -15 -77 2 -33 42 -34 50 -8 61 43 20 227 80 269 88 22 4 35
9 28 11 -6 2 -39 -3 -73 -12 -34 -9 -64 -15 -66 -13 -2 2 6 46 16 98 11 52 19
113 18 135 -1 32 -2 34 -5 10 -7 -59 -24 -151 -39 -202 -14 -51 -15 -51 -76
-72 -70 -24 -78 -25 -78 -11 0 18 81 180 90 180 5 0 7 6 4 13 -2 7 6 25 18 39
13 14 24 31 26 39 2 8 7 16 12 19 8 5 30 77 29 95 0 6 -8 -8 -17 -30 -9 -23
-26 -54 -38 -70 -37 -52 -103 -183 -122 -243 l-19 -57 -13 55 c-7 30 -19 66
-26 80 l-14 25 7 -30 c4 -16 8 -46 8 -65 0 -28 -4 -35 -19 -35 -17 0 -20 8
-21 70 -1 39 -5 82 -8 97 -4 23 8 40 97 130 98 99 118 127 151 212 13 35 17
37 33 25 15 -13 16 -12 3 3 -18 23 -29 15 -54 -41 -32 -74 -91 -151 -171 -224
-75 -67 -75 -67 -89 -45 -8 13 -39 64 -70 114 -85 136 -101 177 -87 219 14 41
35 55 85 55 27 0 44 -8 66 -29 16 -16 29 -37 29 -46 0 -9 5 -13 10 -10 6 3 10
18 10 32 0 18 -20 46 -70 97 l-69 71 -70 0 c-55 0 -75 -4 -97 -21 -43 -31 -64
-66 -77 -122 l-12 -52 -30 37 c-30 38 -30 39 -30 163 1 115 3 133 33 220 41
119 99 218 174 296 32 33 58 66 58 72 0 17 -32 15 -60 -5z m50 2 c0 -3 -31
-35 -68 -72 -84 -83 -150 -209 -187 -358 -25 -96 -25 -105 -15 -226 14 -170
36 -242 130 -423 44 -85 80 -167 80 -182 0 -15 -9 -42 -21 -60 -21 -35 -37
-44 -36 -21 1 6 -20 55 -45 108 -57 116 -133 339 -149 433 -13 77 -7 311 9
361 6 17 22 61 37 99 31 81 10 76 -32 -8 -14 -28 -29 -53 -32 -56 -9 -6 -38
-69 -44 -95 -4 -18 -5 -18 -6 2 0 12 10 57 24 100 39 124 150 272 269 360 51
38 86 53 86 38z m-2200 -426 c98 -46 232 -167 295 -265 20 -31 40 -64 43 -72
11 -29 68 -73 132 -103 l65 -31 165 27 c91 15 167 28 170 29 3 0 6 -3 8 -9 4
-11 -195 -69 -295 -86 -94 -16 -211 19 -293 88 -35 29 -101 127 -145 214 -33
64 -117 154 -168 181 -67 34 -251 41 -367 14 -16 -4 -13 -1 10 10 52 24 114
33 225 31 85 -2 108 -6 155 -28z m1160 -116 c49 -113 100 -209 174 -327 72
-115 89 -172 84 -294 -3 -81 -8 -107 -32 -159 -16 -35 -36 -68 -44 -75 -12
-10 -14 -10 -8 0 10 16 1 15 -35 -3 -16 -9 -35 -13 -41 -9 -6 4 -17 -1 -25
-11 -9 -14 -13 -15 -13 -4 0 8 -5 57 -11 109 -6 52 -14 136 -19 185 -4 50 -13
128 -20 175 -6 47 -18 136 -26 198 -8 62 -13 116 -10 120 7 11 -14 95 -27 107
-7 7 -8 3 -3 -10 4 -11 10 -36 12 -55 l4 -35 -11 35 -12 35 -9 -35 c-9 -35
-33 -101 -48 -131 -21 -41 -54 -180 -56 -234 -1 -33 -5 -68 -9 -78 -4 -11 -3
-23 4 -30 14 -14 15 -41 1 -32 -6 4 -7 -2 -1 -18 6 -16 6 -28 0 -34 -7 -7 -3
-35 12 -84 27 -93 43 -125 84 -170 18 -20 34 -40 36 -45 2 -5 17 -19 33 -32
16 -12 26 -22 22 -22 -40 0 -184 128 -217 193 -34 65 -60 185 -60 277 0 137
39 259 120 380 25 36 64 131 87 208 7 24 21 3 64 -95z m-1120 29 c8 -10 23
-35 33 -57 l17 -40 -27 31 c-16 17 -47 43 -70 58 -24 14 -43 29 -43 32 0 12
75 -8 90 -24z m1390 -111 c86 -40 185 -131 242 -221 38 -60 62 -120 52 -129
-4 -3 -8 -1 -10 4 -9 23 -45 77 -50 73 -2 -3 0 -17 6 -32 5 -15 9 -57 9 -94
l-1 -67 -9 53 c-11 67 -29 109 -64 151 -37 43 -162 151 -176 151 -6 0 -3 -7 5
-16 36 -36 13 -25 -26 12 -24 23 -58 51 -76 63 l-33 23 6 -31 c3 -17 2 -31 -3
-31 -18 0 -63 59 -73 96 -6 21 -21 53 -33 69 -46 62 -64 68 234 -74z m-484 43
c57 -19 69 -28 60 -43 -5 -7 -16 -5 -34 7 -14 9 -28 15 -29 13 -6 -6 -63 21
-63 30 0 12 9 11 66 -7z m-157 -19 c43 -14 90 -34 103 -45 31 -26 17 -25 -35
2 -23 12 -76 32 -117 44 -41 13 -65 23 -53 23 12 1 58 -10 102 -24z m1443 -1
c28 -5 36 -11 35 -25 -1 -14 -9 -19 -29 -19 -38 0 -68 -32 -68 -73 0 -65 27
-134 98 -251 l72 -119 0 -77 c0 -87 -5 -110 -26 -110 -9 0 -14 11 -14 33 0 95
-50 275 -94 343 -20 30 -86 92 -86 80 0 -3 7 -26 16 -52 21 -61 12 -66 -20
-11 -29 50 -43 138 -32 212 6 40 12 49 39 60 36 16 56 17 109 9z m-2391 -30
c14 -7 32 -21 40 -30 11 -14 8 -14 -16 3 -17 12 -46 28 -65 37 -22 10 -25 13
-10 10 14 -4 37 -12 51 -20z m172 -23 c16 -14 33 -35 39 -46 6 -12 -1 -8 -18
10 -16 17 -45 43 -64 58 -25 21 -28 25 -10 17 14 -7 38 -24 53 -39z m178 -167
c47 -70 101 -110 185 -139 88 -30 270 -38 437 -20 47 6 57 4 57 -8 0 -12 -15
-17 -57 -21 -32 -4 -93 -11 -136 -16 -181 -22 -353 36 -474 162 -27 28 -71
108 -60 108 2 0 24 -29 48 -66z m1841 -23 c36 -43 44 -67 15 -43 -8 7 -17 9
-20 5 -4 -3 -7 -1 -7 5 0 6 -9 20 -21 31 -11 10 -24 36 -29 58 -8 38 -8 38 8
14 9 -14 34 -45 54 -70z m-532 -87 c18 -20 41 -57 51 -81 36 -84 18 -82 -38 5
-20 31 -75 94 -122 140 l-86 82 81 -55 c45 -30 96 -71 114 -91z m-1392 81 c0
-16 -2 -15 -8 5 -11 34 -11 60 0 35 5 -11 8 -29 8 -40z m20 -90 c0 -16 -2 -15
-8 5 -4 14 -8 34 -8 45 0 16 2 15 8 -5 4 -14 8 -34 8 -45z m42 -54 c73 -30
150 -90 150 -116 0 -7 24 -37 53 -67 38 -40 68 -60 112 -77 92 -33 94 -35 48
-39 -77 -6 -122 14 -191 84 -35 35 -65 64 -67 64 -2 0 -1 -9 2 -20 9 -35 136
-146 189 -164 60 -20 154 -21 202 0 20 8 55 17 77 19 l40 5 -54 -26 c-113 -53
-214 -63 -284 -27 -69 35 -204 192 -273 318 -24 44 -150 81 -244 72 -38 -4
-47 -3 -30 3 14 5 63 8 110 6 68 -3 100 -10 160 -35z m1676 -177 c6 -58 3 -82
-15 -133 -12 -34 -19 -66 -16 -72 4 -5 4 -9 1 -9 -3 0 -10 8 -15 18 -7 13 -5
37 6 78 12 45 14 91 11 189 -5 128 -5 129 8 65 7 -36 16 -97 20 -136z m364
102 c0 -51 -6 -43 -14 19 -5 36 -4 46 3 35 6 -8 11 -33 11 -54z m-2120 33 c42
-25 88 -67 101 -92 6 -10 -16 3 -49 28 -32 25 -81 54 -108 65 l-49 19 35 0
c19 1 51 -9 70 -20z m1714 -75 c5 -13 1 -15 -21 -9 -43 10 -52 25 -16 25 19 0
33 -6 37 -16z m-1750 -19 c11 -8 18 -17 15 -19 -2 -2 -15 4 -28 15 -27 22 -15
26 13 4z m-248 -12 c-4 -4 -26 -12 -49 -19 -23 -6 -71 -20 -107 -30 -93 -26
-192 -24 -258 5 -29 13 -51 25 -50 27 2 1 39 -8 83 -21 90 -26 160 -22 264 15
49 17 68 22 115 29 5 0 6 -2 2 -6z m1972 -18 c39 -17 43 -45 7 -45 -27 0 -32
-9 -14 -27 7 -7 -7 -5 -32 4 -77 27 -168 29 -224 4 -26 -12 -50 -19 -53 -16
-12 12 44 55 91 71 42 14 58 15 100 5 28 -6 52 -9 55 -7 2 3 -13 8 -34 12 -32
6 -35 8 -19 15 24 10 77 2 123 -16z m-113 -100 c-23 -8 -85 -10 -85 -3 0 4 21
8 48 7 26 0 43 -2 37 -4z m1390 -42 c-38 -34 -106 -74 -122 -73 -4 1 12 12 37
25 25 13 61 39 80 57 19 18 37 32 40 30 3 -2 -13 -20 -35 -39z m-724 -14 c78
-20 164 -106 157 -156 l-4 -28 -14 30 c-10 22 -14 26 -17 13 -4 -17 -33 -34
-33 -19 0 5 -8 8 -17 6 -10 -2 -30 -4 -44 -4 -14 -1 -42 -12 -61 -24 -40 -27
-88 -40 -88 -23 0 6 9 26 20 43 15 25 29 34 60 39 23 4 38 10 33 15 -14 14
-65 13 -106 0 -21 -7 -41 -10 -45 -7 -11 12 26 38 79 56 l53 18 -58 7 c-47 6
-60 4 -77 -11 -19 -17 -20 -17 -13 1 5 13 4 16 -4 11 -15 -9 -15 9 -1 36 10
18 17 20 77 13 37 -3 83 -11 103 -16z m-2656 -30 c-33 -10 -67 -18 -75 -16 -8
2 12 10 45 19 83 22 103 20 30 -3z m2063 -5 c17 -3 33 -12 36 -20 4 -10 -13
-12 -79 -11 -46 1 -82 3 -81 4 3 4 79 31 87 32 4 1 20 -2 37 -5z m-1614 -76
c15 -21 23 -38 18 -38 -14 0 -39 32 -52 65 -12 33 -8 29 34 -27z m2716 15 c-8
-4 -49 -18 -90 -34 -41 -15 -84 -30 -95 -35 -11 -4 -17 -4 -13 1 10 11 180 74
198 74 13 -1 13 -1 0 -6z m-2714 -230 c33 -35 59 -63 57 -63 -19 0 -86 62
-130 122 -30 40 -64 85 -76 99 -12 14 3 -2 33 -35 30 -34 82 -89 116 -123z
m805 67 c-14 -81 -16 -89 -19 -52 -3 37 24 161 32 151 2 -2 -4 -47 -13 -99z
m669 81 c-8 -5 -73 -11 -144 -13 -134 -4 -139 -3 -65 11 59 12 229 13 209 2z
m-488 -21 c24 0 23 -10 -6 -43 -20 -23 -25 -25 -30 -11 -3 8 -6 30 -6 47 0 24
3 28 12 19 7 -7 20 -12 30 -12z m840 -11 c38 -27 73 -84 82 -131 10 -56 -5
-46 -42 25 -17 34 -43 77 -58 95 -31 37 -25 41 18 11z m-2737 -27 c22 -12 36
-21 30 -21 -5 0 -21 6 -35 14 -14 8 -34 14 -45 13 -17 0 -17 -1 -2 -5 9 -2 17
-8 17 -13 0 -5 -15 -4 -32 1 -43 12 -110 12 -143 -1 -39 -15 -101 -69 -140
-123 -19 -26 -35 -50 -35 -55 0 -4 -9 -18 -20 -32 -16 -21 -14 -13 7 42 15 37
30 65 34 63 4 -3 10 6 13 19 9 37 56 87 101 108 55 26 192 20 250 -10z m1210
3 c55 0 114 3 130 8 26 6 25 5 -5 -7 -47 -19 -232 -20 -280 0 l-35 14 45 -8
c25 -4 90 -7 145 -7z m1212 1 c37 -8 112 -17 167 -21 54 -3 106 -10 116 -15
41 -22 80 -100 50 -100 -5 0 -10 -9 -10 -20 0 -32 -13 -23 -40 26 -38 73 -57
93 -88 92 -15 -1 -72 4 -127 11 -55 6 -144 14 -198 17 -54 3 -95 10 -91 15 8
14 145 11 221 -5z m-1188 -91 c59 -37 105 -98 144 -191 29 -70 32 -85 19 -82
-9 2 -32 32 -50 68 -18 36 -30 54 -27 40 12 -60 24 -154 20 -158 -2 -2 -7 9
-10 24 -52 231 -81 286 -158 300 -23 4 -45 7 -49 6 -17 -4 -7 17 10 21 27 8
60 -2 101 -28z m1001 6 c-8 -5 -42 -11 -75 -14 l-60 -6 60 13 c33 8 67 14 75
15 13 0 13 -1 0 -8z m1059 -101 c-12 -28 -24 -48 -27 -46 -2 3 6 30 19 60 13
30 25 51 27 46 2 -5 -7 -32 -19 -60z m-130 -17 c2 -2 -3 -3 -12 -3 -9 0 -29
11 -44 25 l-28 26 40 -23 c22 -12 42 -23 44 -25z m52 4 l27 -33 -33 10 c-20 6
-29 13 -22 18 6 4 0 9 -16 13 -33 9 -36 25 -4 25 13 0 33 -13 48 -33z m-1617
-5 c-2 -16 -9 -42 -15 -58 -7 -16 -13 -33 -13 -39 -6 -54 -58 -89 -110 -74
-17 5 -32 9 -33 9 -2 0 -3 8 -3 19 0 10 28 42 62 72 104 91 113 99 114 99 1 0
0 -13 -2 -28z m2022 -46 c3 -14 -1 -37 -10 -53 -8 -15 -15 -22 -16 -14 0 8 -8
4 -20 -10 -18 -23 -18 -22 1 19 20 40 20 44 5 82 -9 22 -16 44 -16 48 1 14 50
-50 56 -72z m-2911 54 c-4 -6 -34 -24 -68 -42 -78 -39 -159 -47 -238 -24 -55
16 -121 54 -74 42 100 -25 143 -27 228 -12 48 9 100 22 115 30 32 18 46 20 37
6z m1175 -20 c17 -9 56 -97 47 -106 -3 -3 -8 4 -12 15 l-6 20 -20 -20 c-28
-28 -63 -21 -67 13 -3 23 2 29 30 37 l33 11 -38 -6 c-33 -4 -38 -2 -47 21 -14
37 -18 31 -12 -20 5 -53 -7 -58 -43 -19 -14 15 -25 21 -25 14 0 -7 7 -18 17
-25 11 -8 14 -18 8 -31 -4 -10 -7 -22 -7 -26 3 -13 -22 -9 -46 8 -26 18 -29
52 -4 61 9 4 20 11 24 17 4 6 13 11 20 11 7 0 15 11 16 24 4 22 6 23 59 17 30
-4 63 -11 73 -16z m-1792 -28 c-14 -9 -37 -30 -49 -46 l-22 -29 24 13 c29 16
79 23 79 11 0 -5 -14 -14 -31 -22 -46 -19 -133 -107 -162 -165 -14 -28 -32
-56 -41 -63 -14 -12 -14 -8 0 40 22 73 52 147 69 173 19 28 126 105 145 106 9
0 4 -8 -12 -18z m2058 -46 c-25 -43 -115 -131 -124 -122 -2 3 10 17 28 32 17
15 50 57 73 92 45 71 65 69 23 -2z m1009 38 c11 -4 28 -6 38 -5 12 2 17 -5 17
-23 0 -31 -11 -33 -35 -6 -10 11 -24 20 -30 20 -7 0 -23 9 -36 20 l-24 20 25
-9 c14 -5 34 -13 45 -17z m125 -39 c44 -46 123 -71 175 -56 20 5 52 22 72 37
32 24 34 24 24 5 -14 -25 -77 -67 -116 -77 -27 -7 -130 20 -141 37 -3 5 -10 6
-16 3 -7 -4 -8 -2 -4 4 10 16 -6 15 -24 0 -12 -11 -12 -10 0 6 13 16 12 20 -8
36 -12 10 -22 23 -22 29 0 21 27 11 60 -24z m-1629 -27 c-4 -35 -6 -38 -9 -15
-3 26 3 57 10 57 2 0 1 -19 -1 -42z m549 35 c-1 -5 -8 -19 -16 -33 -8 -14 -13
-17 -10 -7 3 10 6 25 6 33 0 8 5 14 10 14 6 0 10 -3 10 -7z m-398 -85 l-20
-20 -17 25 c-19 29 -13 47 16 47 10 0 19 6 20 13 0 6 5 -1 11 -17 9 -23 7 -31
-10 -48z m423 31 c-21 -57 -50 -103 -87 -134 -41 -35 -48 -24 -9 17 16 18 47
61 67 95 20 35 38 63 40 63 2 0 -3 -19 -11 -41z m359 22 c8 -13 -33 -10 -43 3
-9 10 -6 12 14 8 14 -2 27 -7 29 -11z m606 -108 c0 -9 -81 42 -102 65 -16 17
-3 11 40 -17 34 -24 62 -45 62 -48z m-1773 -22 c21 -17 32 -31 26 -31 -20 0
-75 53 -89 87 -20 47 -16 54 6 11 11 -20 36 -50 57 -67z m480 67 c16 -13 5
-38 -21 -47 -15 -6 -25 -2 -39 16 -26 32 -15 57 21 48 15 -4 32 -11 39 -17z
m40 -25 c-3 -10 -5 -2 -5 17 0 19 2 27 5 18 2 -10 2 -26 0 -35z m-447 9 c56
-5 72 -19 35 -28 -33 -8 -106 15 -113 36 -4 10 0 11 14 5 11 -5 39 -10 64 -13z
m260 1 c0 -10 -7 -26 -14 -36 -12 -15 -14 -16 -20 -2 -3 8 -12 15 -21 15 -20
0 -19 10 3 26 25 19 52 17 52 -3z m1327 -70 c31 -27 81 -71 110 -100 31 -30
67 -55 86 -59 18 -4 27 -9 20 -11 -26 -9 -84 30 -180 121 -110 103 -127 126
-36 49z m-1260 18 c10 -15 9 -20 -1 -24 -20 -8 -40 9 -33 27 8 21 20 20 34 -3z
m1414 8 c11 -5 52 -19 92 -30 65 -18 67 -19 23 -14 -42 4 -166 52 -143 54 5 1
17 -4 28 -10z m444 -28 c66 -30 115 -96 115 -153 0 -18 -4 -16 -30 12 -17 18
-33 31 -35 28 -3 -3 4 -25 15 -51 25 -57 35 -125 21 -157 -9 -24 -10 -23 -10
11 -1 48 -25 115 -56 155 -33 43 -117 84 -173 84 -57 0 -45 16 19 25 49 7 50
8 26 20 -18 9 -38 10 -77 3 -84 -15 -91 -4 -10 19 94 27 144 28 195 4z m-3515
-32 c-19 -12 -60 -42 -90 -67 -53 -44 -54 -44 -20 -8 36 39 115 96 134 96 6 0
-5 -10 -24 -21z m1093 -42 c-2 -4 -8 -5 -13 -2 -5 3 -18 -3 -30 -15 -11 -11
-20 -15 -20 -9 0 5 -5 7 -10 4 -6 -4 -7 -12 -4 -18 4 -7 3 -9 -1 -4 -5 4 -18
-1 -29 -10 -12 -10 4 9 34 42 51 56 56 59 67 40 6 -11 9 -23 6 -28z m1790 -9
c1 -18 0 -57 -1 -87 l-2 -53 -35 31 c-20 17 -40 31 -44 31 -5 0 -11 7 -15 15
-10 26 12 16 49 -22 41 -42 46 -35 9 14 -25 33 -73 46 -75 21 -2 -24 3 -43 13
-53 8 -7 9 -6 4 3 -13 22 10 12 50 -22 l39 -34 -48 8 c-53 8 -84 30 -103 77
-29 67 28 113 96 78 31 -16 31 -16 24 9 -3 14 -3 30 1 36 12 20 37 -15 38 -52z
m-1732 2 c25 -45 83 -94 135 -116 19 -8 67 -19 107 -24 l72 -9 -81 3 c-118 5
-188 44 -243 136 -20 34 -26 50 -17 50 3 0 15 -18 27 -40z m-798 -39 c21 -5
41 -12 44 -15 3 -3 -68 -6 -159 -5 -146 0 -189 -4 -287 -27 -47 -10 -2 25 53
42 98 31 235 33 349 5z m1495 17 c19 -19 14 -28 -15 -28 -16 0 -63 -7 -106
-15 -95 -18 -87 -18 -87 -1 0 9 16 17 43 21 23 4 65 13 92 20 63 17 59 17 73
3z m1534 -3 c-34 -7 -74 -10 -90 -6 -27 5 -27 5 8 12 19 3 60 6 90 6 l55 1
-63 -13z m-409 -9 c23 -18 36 -65 26 -94 -7 -17 -6 -23 4 -20 6 3 14 18 17 34
l6 29 16 -30 c9 -17 15 -54 15 -85 0 -30 -2 -45 -4 -33 -6 31 -48 62 -95 69
-21 4 -38 11 -38 16 0 6 -7 7 -16 4 -12 -5 -11 0 5 22 29 41 48 55 56 43 3 -6
-6 -22 -21 -36 -27 -25 -18 -33 17 -15 20 11 26 54 11 78 -7 10 -15 8 -35 -8
l-27 -21 0 24 c0 39 28 50 63 23z m-2636 -68 c76 -9 91 -13 72 -21 -15 -5 -74
-4 -155 4 -113 11 -142 10 -217 -4 -92 -17 -168 -49 -231 -99 l-39 -32 24 33
c30 41 100 85 169 106 30 9 60 18 65 20 25 8 226 4 312 -7z m-683 -37 c-10
-17 -23 -31 -28 -31 -5 0 -7 -3 -3 -6 10 -10 -45 -55 -93 -77 -34 -15 -64 -20
-119 -19 -97 2 -111 17 -17 18 87 1 147 29 222 105 53 53 66 57 38 10z m1053
29 c-33 -10 -82 -14 -117 -10 -14 2 4 6 40 10 95 10 109 10 77 0z m1181 -126
c27 -72 64 -160 80 -195 71 -147 200 -327 397 -558 30 -35 52 -68 49 -73 -3
-4 -1 -8 5 -8 5 0 12 4 15 9 3 4 18 7 33 4 27 -3 27 -3 5 7 -22 9 -23 30 -1
30 5 0 33 -19 63 -42 85 -68 112 -126 93 -200 -10 -39 -11 -41 -18 -18 -4 14
-7 18 -8 9 -1 -9 -11 -19 -22 -22 -17 -4 -19 -3 -10 6 16 16 14 83 -4 116 -25
50 -71 81 -120 81 -24 0 -51 -3 -61 -7 -16 -6 -16 -7 2 -14 17 -7 17 -8 1 -8
-11 -1 -25 -17 -37 -43 l-20 -43 5 40 c5 36 4 37 -6 15 l-11 -25 -11 23 c-13
28 12 66 63 93 27 15 30 20 16 25 -23 9 -225 240 -290 333 -97 138 -216 391
-245 522 -6 25 -13 54 -17 65 -4 10 -4 17 -1 14 3 -3 28 -64 55 -136z m-2085
84 c-4 -7 -8 -18 -8 -24 0 -9 -38 -62 -72 -99 -7 -7 -9 -15 -5 -18 4 -2 2 -3
-5 -1 -6 1 -30 -20 -53 -47 -22 -27 -51 -54 -63 -61 -12 -6 2 13 31 43 30 30
81 91 114 137 32 45 62 82 64 82 3 0 2 -6 -3 -12z m1458 -86 c49 -51 49 -52
35 -81 -9 -16 -21 -35 -28 -43 -13 -13 -32 -55 -57 -128 -32 -88 -71 -358 -52
-345 5 2 11 34 15 70 15 147 46 148 65 2 15 -116 46 -259 71 -326 39 -108 76
-153 279 -344 34 -31 75 -80 92 -107 17 -28 34 -50 38 -50 7 0 26 -34 30 -55
1 -5 9 -14 17 -18 8 -5 12 -12 9 -18 -4 -5 -2 -9 4 -9 5 0 17 -7 25 -16 12
-12 16 -12 16 -2 0 11 2 11 9 0 6 -10 10 -10 21 3 11 13 10 15 -4 9 -11 -4
-16 -1 -16 11 0 10 5 13 12 9 6 -4 8 -3 5 3 -4 6 -9 25 -12 44 -3 19 -16 77
-30 129 -36 137 -30 163 9 40 18 -58 55 -163 83 -235 149 -381 198 -608 198
-920 0 -158 -4 -209 -23 -303 -12 -62 -28 -123 -34 -136 l-10 -24 -45 34 c-35
27 -54 34 -89 34 -73 0 -159 -58 -179 -120 -9 -29 -37 -25 -170 25 -186 70
-370 171 -590 323 -166 115 -337 276 -470 442 -53 67 -55 71 -41 92 l16 22 0
-27 c0 -16 7 -35 15 -43 8 -9 15 -11 15 -5 0 5 -5 13 -10 16 -11 7 -4 25 9 25
4 0 13 -10 19 -22 9 -18 11 -4 6 67 -6 120 -13 153 -33 166 -15 10 -15 10 0 6
13 -4 15 -1 12 14 -4 14 0 19 16 19 12 0 24 7 28 16 6 17 -33 64 -54 64 -17 0
-28 -49 -15 -70 7 -13 7 -17 -4 -17 -7 0 -11 5 -8 11 3 6 -2 2 -10 -8 -9 -11
-16 -28 -16 -38 0 -10 -3 -18 -7 -18 -5 0 -8 -18 -7 -40 0 -23 -3 -37 -9 -33
-7 4 -7 -1 -3 -13 17 -40 19 -57 8 -50 -8 5 -10 2 -6 -9 6 -14 7 -14 18 0 10
14 12 13 14 -9 3 -45 -16 -37 -54 21 -78 121 -86 163 -60 290 8 37 19 113 26
168 13 119 21 165 27 148 7 -19 79 -16 121 6 37 19 75 55 104 99 l15 23 7 -33
c14 -73 61 -180 89 -200 17 -12 27 -29 27 -44 0 -21 4 -25 23 -22 16 2 23 11
25 31 2 15 9 27 16 27 7 0 25 10 40 21 22 17 27 28 24 58 -2 25 -8 37 -20 39
-13 3 -18 -3 -18 -20 0 -13 -6 -33 -14 -43 -13 -18 -14 -18 -48 3 -44 27 -83
112 -93 197 -5 53 -3 67 23 125 17 36 42 76 56 89 51 48 70 171 41 267 -22 76
-68 111 -148 115 -26 2 -47 6 -47 11 0 4 5 8 10 8 6 0 10 6 10 14 0 8 6 21 13
28 25 24 39 60 33 82 -4 18 0 26 20 35 15 6 23 7 19 1 -3 -5 0 -10 7 -10 21 0
39 16 36 31 -2 9 7 15 23 17 19 2 28 -3 37 -22 13 -30 47 -41 105 -33 49 7 87
44 87 86 0 53 -48 69 -76 25 -22 -33 -5 -56 26 -36 11 7 20 8 20 4 0 -13 -32
-39 -56 -46 -25 -8 -74 9 -74 25 0 6 19 42 43 80 29 48 48 69 62 69 35 0 44
14 47 70 3 52 5 55 31 58 23 3 27 8 27 33 0 33 0 33 -33 18 -33 -15 -47 -49
-47 -114 0 -37 -4 -55 -12 -55 -10 0 -12 23 -10 90 3 76 2 90 -12 90 -21 0
-33 -25 -41 -85 -10 -72 -36 -125 -79 -162 -44 -39 -113 -76 -126 -68 -6 3
-10 1 -10 -4 0 -6 -10 -11 -22 -11 l-22 0 22 16 c12 8 27 12 32 9 6 -3 10 -2
10 4 0 5 -6 12 -12 14 -8 4 -7 6 4 6 17 1 54 56 64 96 3 14 10 25 15 25 5 0 8
3 8 8 -3 20 2 32 13 26 7 -4 8 -3 4 5 -4 6 -1 18 7 26 13 13 17 13 27 0 21
-25 33 -5 26 41 -3 26 -2 44 4 44 6 0 27 15 47 34 21 18 65 48 98 66 55 29 66
31 133 28 l72 -3 51 -53z m1596 42 c9 -24 -24 -46 -48 -33 -11 5 -19 16 -19
24 0 12 10 16 53 24 4 0 10 -6 14 -15z m159 -5 c12 -9 11 -39 -2 -81 -10 -33
-70 -12 -94 33 -16 29 2 23 38 -12 18 -17 32 -27 32 -21 0 6 -20 28 -45 48
-24 21 -41 42 -38 47 7 11 91 1 109 -14z m-1384 -19 c7 -11 18 -20 25 -20 6 0
14 -6 16 -12 3 -7 6 -3 6 10 1 21 21 33 21 12 0 -18 240 -497 292 -582 27 -46
42 -76 32 -67 -11 9 -26 14 -34 12 -12 -4 -12 -3 -1 5 15 11 -2 27 -18 18 -11
-7 9 -66 22 -66 4 0 6 -4 3 -9 -3 -5 7 -38 22 -73 46 -101 47 -116 15 -129
-39 -16 -197 -16 -215 -1 -8 6 -17 9 -21 6 -5 -5 -54 13 -99 37 -10 5 -24 9
-31 9 -14 0 -54 32 -119 93 -22 20 -44 37 -49 37 -5 0 -6 6 -3 14 3 7 -2 16
-10 19 -9 4 -16 12 -16 18 0 16 -62 85 -73 81 -5 -2 -7 4 -3 13 3 9 2 14 -3
10 -5 -3 -11 0 -13 6 -2 6 -3 -8 -3 -30 0 -22 3 -34 7 -28 6 9 8 9 8 0 0 -6
-4 -14 -9 -17 -4 -3 -6 -17 -4 -31 3 -14 10 -22 16 -18 6 3 7 1 3 -5 -10 -17
35 -104 74 -140 54 -50 132 -100 166 -105 17 -3 40 -9 50 -15 48 -24 274 -39
274 -18 0 6 5 5 11 -1 6 -6 26 -9 45 -6 40 7 87 -4 79 -17 -4 -6 7 -10 25 -10
45 0 33 -19 -25 -42 -72 -29 -266 -21 -380 16 -242 77 -390 280 -388 531 0 90
37 266 67 323 l13 25 -1 -30 c0 -17 -4 -29 -8 -26 -10 5 -10 -9 0 -22 16 -22
33 -12 53 33 45 101 63 131 100 171 43 46 63 51 81 21z m292 -40 c5 -17 4 -20
-2 -10 -5 8 -13 26 -16 40 -5 17 -4 20 2 10 5 -8 13 -26 16 -40z m925 15 c39
20 38 20 56 -15 16 -32 19 -77 6 -98 -6 -10 -12 -7 -25 13 -15 23 -16 34 -7
69 l10 41 -27 -33 c-15 -18 -31 -32 -36 -32 -5 0 -3 6 3 14 9 11 7 12 -11 9
-35 -6 -62 18 -53 47 l8 24 23 -27 c23 -27 25 -27 53 -12z m-3645 -96 c16 -32
16 -33 0 -14 -21 26 -44 80 -43 102 0 10 6 2 14 -18 7 -20 20 -51 29 -70z
m2175 36 c-33 -46 -49 -56 -49 -31 0 25 12 46 25 46 7 0 18 7 25 15 7 8 17 15
22 15 5 0 -5 -20 -23 -45z m400 -30 c0 -5 -6 1 -14 15 -8 14 -14 30 -14 35 0
6 6 -1 14 -15 8 -14 14 -29 14 -35z m-2769 -100 c33 -67 116 -151 203 -205 85
-52 96 -65 24 -29 -76 39 -143 96 -194 166 -57 77 -74 118 -72 177 1 40 2 39
10 -14 5 -30 18 -73 29 -95z m235 -37 c25 -22 45 -43 45 -48 0 -4 -22 2 -49
15 -38 19 -53 34 -70 68 -11 24 -21 54 -21 68 0 20 4 17 25 -20 14 -24 46 -62
70 -83z m2574 47 c0 -5 -8 6 -19 25 -11 19 -19 40 -19 45 0 6 8 -6 19 -25 11
-19 19 -39 19 -45z m-2249 10 c0 -7 -51 -31 -80 -39 -14 -3 -2 5 25 18 59 29
55 27 55 21z m2462 -399 c59 -87 155 -214 197 -261 l36 -40 -34 30 c-45 41
-193 238 -253 338 -53 90 -158 291 -158 304 0 4 38 -63 85 -151 47 -87 104
-186 127 -220z m-2088 162 c-7 -12 -18 -24 -64 -78 -33 -39 -11 0 28 48 33 40
52 56 36 30z m-204 -14 c0 -15 -108 -137 -132 -150 -36 -19 -112 -18 -154 2
-19 9 -48 33 -65 53 l-29 36 117 6 c96 4 129 10 178 31 62 27 85 32 85 22z
m-869 -102 c14 -20 29 -48 32 -61 6 -26 4 -24 -40 34 -42 56 -46 65 -31 65 7
0 25 -17 39 -38z m859 -14 c-68 -61 -96 -72 -177 -73 -70 0 -72 -1 -51 -16 47
-36 142 -28 223 20 19 11 37 17 39 12 3 -4 -8 -15 -25 -25 -16 -9 -29 -21 -29
-25 0 -5 -23 -18 -50 -30 -75 -32 -143 -16 -204 48 -16 17 -33 28 -37 25 -9
-5 -39 35 -39 53 0 7 19 -1 46 -20 40 -28 54 -32 107 -32 59 1 67 4 146 57 47
32 87 55 90 52 4 -3 -14 -24 -39 -46z m-783 -3 c43 -42 45 -47 41 -94 -1 -27
0 -47 4 -45 6 4 17 -70 19 -126 0 -14 6 -31 11 -38 6 -7 8 -15 5 -18 -5 -6 41
-63 73 -90 108 -92 222 -158 320 -184 65 -17 106 -40 90 -50 -21 -13 8 -23 85
-31 l70 -7 -86 2 c-82 2 -90 5 -213 64 -143 69 -181 96 -278 197 -99 102 -128
175 -128 319 0 69 -14 96 -64 127 -23 14 -26 19 -12 19 10 0 39 -20 63 -45z
m1554 -1 c-5 -21 -9 -30 -10 -19 -1 24 10 67 15 62 3 -2 0 -22 -5 -43z m217
-181 c57 -78 31 -223 -69 -391 -77 -127 -94 -148 -150 -171 -44 -19 -54 -21
-80 -9 -24 11 -29 19 -29 49 0 46 17 67 59 71 25 2 36 9 42 26 6 14 5 21 -1
17 -13 -8 12 60 56 152 33 68 39 90 42 166 4 75 8 90 26 103 26 19 86 12 104
-13z m-265 -50 c-25 -111 -51 -169 -99 -220 l-45 -48 50 95 c27 52 59 128 71
168 26 91 43 95 23 5z m-675 -9 c-41 -22 -179 -76 -184 -72 -4 5 185 86 201
87 6 0 -2 -6 -17 -15z m-635 -128 c22 -15 30 -16 42 -6 8 7 12 17 8 23 -4 7 0
8 11 4 10 -4 23 -7 29 -8 7 0 3 -4 -8 -9 -16 -7 -13 -9 15 -8 19 0 69 -5 110
-11 41 -5 101 -13 133 -16 39 -5 57 -11 57 -21 0 -24 -47 -27 -153 -10 -56 9
-118 18 -137 21 l-35 5 34 -16 c101 -46 269 -61 451 -40 96 11 85 -7 -18 -29
-93 -19 -241 -19 -317 0 -94 24 -233 97 -292 155 -29 28 -53 56 -53 62 0 6 21
-9 48 -34 26 -24 60 -53 75 -62z m313 89 c-11 -8 -24 -15 -30 -15 -5 0 -1 7
10 15 10 8 24 14 29 14 6 0 1 -6 -9 -14z m-286 -60 c5 3 10 -1 13 -9 3 -8 -1
-17 -9 -20 -8 -3 -14 1 -14 10 0 8 -4 13 -9 10 -4 -3 -23 14 -42 37 l-34 42
44 -37 c24 -21 47 -35 51 -33z m3313 16 c37 -14 77 -62 77 -91 l0 -25 -20 25
c-11 14 -20 19 -20 12 0 -7 -4 -11 -9 -7 -5 3 -12 -4 -16 -15 -3 -11 -11 -21
-16 -21 -13 -2 -22 -5 -42 -13 -20 -9 -71 19 -62 34 4 6 22 10 41 10 19 0 34
3 34 8 -1 14 -27 42 -33 35 -4 -3 -7 5 -7 19 0 40 22 48 73 29z m-183 -60 c0
-18 -17 -20 -36 -6 -18 14 -18 14 9 15 15 0 27 -4 27 -9z m-1859 -89 c-12 -22
-41 -47 -63 -55 -27 -10 -22 3 19 45 36 37 62 43 44 10z m2107 15 c7 -8 7 -17
-2 -30 -20 -26 -36 -20 -36 13 0 32 19 40 38 17z m-246 -104 c-31 -25 0 -27
44 -4 43 23 44 24 27 44 -18 21 -18 21 8 2 l26 -19 -21 -17 c-21 -17 -21 -17
9 -25 17 -5 51 -8 77 -9 25 0 44 -4 41 -9 -7 -11 -122 -1 -135 12 -7 7 -22 5
-46 -5 -33 -14 -36 -13 -55 6 l-21 21 22 23 c12 13 23 36 23 53 1 22 3 18 9
-16 6 -36 5 -48 -8 -57z m-130 58 c9 -11 12 -23 7 -28 -4 -4 7 -24 26 -44 19
-20 32 -38 30 -41 -2 -2 4 -4 15 -4 10 0 16 4 14 8 -3 4 5 4 18 -1 15 -6 31
-5 42 1 13 7 21 6 29 -2 9 -10 9 -11 0 -6 -15 8 -43 -3 -43 -19 0 -23 33 -120
46 -136 8 -8 18 -33 23 -55 9 -38 9 -37 10 24 1 72 11 81 72 65 27 -7 39 -7
42 1 2 6 6 -32 10 -84 10 -160 21 -193 80 -245 28 -26 63 -49 79 -52 16 -3 27
-7 25 -9 -7 -7 -171 17 -202 30 -44 19 -74 71 -90 158 -15 84 -18 59 -6 -55 7
-65 13 -81 35 -102 26 -24 105 -65 125 -65 6 0 38 -9 72 -21 75 -26 135 -20
182 19 68 58 68 58 56 23 -23 -65 -120 -109 -214 -97 -76 10 -205 52 -247 81
-51 35 -66 68 -78 174 -6 50 -16 103 -22 118 -23 54 -137 219 -199 288 l-62
69 49 12 c27 6 51 12 54 13 3 0 13 -8 22 -18z m-4438 -66 c147 -38 245 -102
356 -229 139 -161 196 -305 207 -521 3 -66 3 -117 0 -114 -4 3 -11 49 -17 103
-8 70 -24 135 -56 223 -71 200 -96 239 -229 353 -58 49 -88 69 -96 64 -5 -3
-9 -1 -9 3 0 5 -39 29 -87 53 l-86 45 -131 0 c-125 -1 -136 -2 -241 -39 -127
-44 -186 -72 -270 -129 -195 -132 -318 -336 -371 -613 -21 -110 -13 -388 16
-589 33 -231 34 -273 11 -336 -28 -73 -79 -131 -143 -163 -62 -31 -105 -33
-186 -7 -71 22 -130 67 -161 122 -28 49 -22 116 12 152 12 13 16 15 8 5 -19
-24 -17 -118 3 -157 45 -87 125 -127 240 -119 91 6 139 40 186 132 45 89 50
165 21 330 -44 243 -50 513 -15 679 19 92 55 182 123 302 96 172 295 352 454
412 136 51 345 68 461 38z m1401 3 c38 -12 32 -13 -90 -18 -142 -6 -176 -17
-252 -82 -22 -19 -29 -22 -18 -9 35 40 109 89 160 104 61 19 147 21 200 5z
m3313 5 c-10 -2 -26 -2 -35 0 -10 3 -2 5 17 5 19 0 27 -2 18 -5z m-2167 -37
c-14 -16 -81 -50 -87 -44 -3 4 84 57 95 58 2 0 -2 -6 -8 -14z m-1091 -70 c89
-23 123 -35 99 -35 -20 -1 -79 12 -130 28 -52 16 -103 31 -114 34 -12 3 -14 5
-5 6 8 0 76 -15 150 -33z m684 -48 c-50 -52 -122 -155 -162 -233 -27 -52 -28
-22 -2 49 16 41 43 77 108 145 48 50 91 91 97 91 5 0 -13 -24 -41 -52z m-298
-43 c74 -18 102 -21 135 -14 44 10 63 4 39 -11 -8 -6 -50 -10 -92 -10 -86 0
-180 31 -235 77 l-28 24 44 -22 c24 -11 86 -31 137 -44z m-1869 30 c37 -8 101
-25 141 -39 40 -14 70 -21 67 -15 -4 5 -1 9 6 9 14 0 169 -157 169 -171 0 -19
-23 -8 -88 43 -222 170 -465 190 -742 59 -36 -17 -75 -32 -87 -34 -12 -2 -30
-10 -40 -19 -29 -24 -43 -31 -38 -16 15 36 188 139 290 171 92 29 219 34 322
12z m53 -95 c108 -35 172 -71 238 -135 48 -47 61 -66 56 -80 -6 -14 -4 -16 6
-10 9 5 11 4 6 -4 -4 -6 1 -23 12 -39 36 -51 93 -223 97 -292 l4 -65 -13 45
c-24 82 -81 204 -131 280 -72 110 -140 172 -243 222 -83 40 -92 42 -197 46
-144 5 -210 -8 -323 -64 -70 -35 -110 -64 -165 -118 -59 -58 -133 -161 -150
-210 -3 -6 -7 -9 -10 -6 -8 8 16 97 36 135 67 126 286 274 462 311 84 18 234
11 315 -16z m-668 13 c-6 -2 -10 -8 -7 -13 3 -5 -30 -40 -72 -79 -83 -74 -90
-86 -147 -223 -65 -156 -81 -241 -81 -431 0 -159 -1 -165 -13 -110 -7 32 -13
112 -14 178 -2 133 18 234 73 368 63 153 199 319 259 316 10 0 11 -2 2 -6z
m2723 -45 c-15 -24 -57 -106 -95 -184 l-69 -141 -59 -31 c-33 -18 -70 -32 -83
-31 -18 0 -14 4 17 15 61 22 119 77 140 131 41 107 147 283 171 283 2 0 -8
-19 -22 -42z m-1995 -88 c30 -16 64 -35 75 -44 30 -23 -2 -20 -35 4 -16 11
-59 34 -97 50 -48 22 -58 29 -33 24 19 -4 60 -19 90 -34z m1523 0 c-13 -5 -32
-24 -43 -42 -23 -38 -27 -30 -5 12 15 29 28 38 55 39 8 0 5 -4 -7 -9z m-83
-57 c-26 -41 -30 -56 -30 -117 0 -70 23 -144 49 -160 6 -4 16 -17 22 -29 6
-13 -6 -5 -29 19 -78 80 -80 231 -4 317 26 29 23 19 -8 -30z m655 -3 c-9 -16
-18 -30 -21 -30 -2 0 2 14 11 30 9 17 18 30 21 30 2 0 -2 -13 -11 -30z m2935
-94 c0 -17 -61 -39 -92 -33 -22 4 -22 4 2 6 14 0 39 10 55 20 37 24 35 24 35
7z m-2558 -76 c-6 -16 -11 -20 -16 -11 -4 6 -2 19 5 27 16 20 21 12 11 -16z
m-88 -47 c-41 -56 -44 -59 -44 -39 0 14 55 76 68 76 2 0 -9 -17 -24 -37z
m-1559 3 c19 -8 35 -20 35 -25 0 -16 -7 -14 -48 14 -42 28 -37 32 13 11z
m-1465 -62 c-101 -106 -152 -211 -180 -366 -7 -34 -18 -153 -25 -263 l-14
-200 4 210 c5 215 16 300 54 412 42 124 140 260 188 259 19 0 16 -7 -27 -52z
m1426 48 c12 -8 12 -40 0 -60 -11 -19 -44 -14 -56 9 -6 11 -21 24 -33 28 -19
7 -16 10 23 19 25 5 47 10 50 11 3 0 10 -3 16 -7z m1464 -2 c0 -5 -12 -10 -27
-9 -25 0 -26 1 -8 9 27 12 35 12 35 0z m32 -54 c-16 -34 -72 -100 -72 -84 0 8
11 29 24 47 14 19 28 47 32 64 5 26 8 28 16 13 7 -12 7 -25 0 -40z m-2150 17
c8 -10 18 -26 21 -36 11 -30 -15 -14 -35 21 -19 34 -11 43 14 15z m485 -85
c-2 -13 -4 -5 -4 17 -1 22 1 32 4 23 2 -10 2 -28 0 -40z m1728 -113 c86 -204
410 -533 750 -762 194 -131 381 -229 558 -293 113 -42 140 -62 101 -77 -25
-10 -237 66 -369 132 -273 137 -518 315 -745 544 -156 157 -255 282 -312 395
-32 64 -48 143 -25 130 6 -4 4 2 -6 13 -15 17 -16 24 -5 48 12 26 12 25 24
-32 7 -32 20 -76 29 -98z m213 30 c131 -192 328 -395 512 -525 259 -184 463
-298 688 -384 67 -26 122 -50 122 -53 0 -13 -112 7 -205 37 -244 78 -629 328
-867 563 -100 100 -267 307 -303 377 -18 34 -29 99 -15 83 4 -4 34 -48 68 -98z
m-1869 39 c10 -9 -35 -3 -49 6 -11 8 -7 9 15 4 17 -4 32 -8 34 -10z m-184 -97
c-7 -24 -11 -55 -8 -70 3 -17 -4 -45 -21 -79 -29 -57 -32 -95 -14 -163 9 -35
9 -58 0 -102 -8 -41 -9 -69 -2 -95 8 -29 5 -83 -16 -240 -17 -131 -28 -278
-32 -413 -4 -125 -9 -192 -13 -165 -6 43 -6 43 -8 10 -2 -19 -4 -44 -7 -55
-23 -119 -32 -170 -29 -175 12 -20 18 -111 16 -267 -2 -100 0 -191 4 -202 4
-15 21 -23 63 -31 93 -19 158 -71 198 -158 10 -23 24 -42 30 -42 7 0 12 -6 11
-12 -1 -33 4 -48 16 -48 20 1 66 74 77 126 17 78 18 79 41 49 18 -22 21 -35
15 -80 -3 -30 -18 -90 -31 -135 -49 -154 -207 -346 -355 -431 -33 -19 -60 -39
-60 -44 0 -6 -37 -18 -82 -27 -45 -10 -96 -27 -113 -39 -16 -12 -27 -19 -23
-14 9 10 -9 45 -24 45 -7 0 -7 -4 1 -14 10 -12 7 -15 -16 -21 -15 -3 -39 -20
-52 -37 -23 -29 -24 -30 -4 -24 12 4 24 2 28 -4 3 -5 -1 -10 -9 -10 -9 0 -16
-4 -16 -10 0 -5 -6 -7 -14 -4 -7 3 -16 -1 -19 -9 -4 -10 1 -13 20 -9 18 3 24
1 19 -7 -11 -17 -40 -13 -59 9 -16 20 -16 21 0 27 15 6 15 8 -6 13 -13 3 -31
17 -40 30 -15 24 -15 24 2 11 10 -8 20 -11 24 -8 3 4 -6 12 -21 18 -14 7 -28
21 -32 31 -4 13 -12 18 -25 15 -12 -3 -19 0 -19 9 0 8 -8 14 -17 14 -10 0 -27
7 -37 15 -26 19 -36 4 -29 -42 8 -46 -11 -42 -27 6 -19 59 -1 99 75 165 35 31
66 52 70 47 3 -6 -1 -18 -10 -28 -8 -10 -16 -22 -18 -28 -1 -5 -18 -24 -37
-42 -19 -18 -29 -33 -22 -33 6 0 12 5 12 10 0 6 5 10 11 10 6 0 8 -7 5 -16 -5
-14 -4 -15 9 -4 12 10 15 10 15 0 0 -8 2 -11 5 -8 9 8 -6 38 -16 32 -5 -3 -9
0 -9 6 0 6 16 18 36 26 40 17 58 12 25 -6 -12 -6 -21 -16 -21 -23 0 -27 26
-68 46 -73 33 -8 79 0 77 13 -2 7 4 10 12 7 8 -4 15 -12 15 -20 0 -21 37 -17
53 6 8 11 16 18 18 15 8 -8 161 36 176 51 8 8 20 14 28 14 11 0 31 30 23 34
-31 18 -66 24 -111 19 -49 -5 -59 -3 -91 22 -20 15 -36 33 -36 39 0 6 -13 38
-30 69 -16 32 -30 65 -30 73 0 8 -7 28 -15 44 -8 16 -18 46 -21 67 -5 36 -26
63 -47 63 -5 0 -7 -16 -4 -35 3 -21 2 -35 -4 -35 -6 0 -9 -6 -7 -12 3 -7 0
-18 -6 -24 -8 -8 -16 9 -31 60 -23 78 -53 141 -140 286 -161 270 -262 553
-287 805 -12 126 0 295 33 448 26 124 34 148 86 252 120 240 268 382 524 504
112 54 259 99 326 100 l41 1 -13 -43z m1605 -91 c18 -39 20 -50 10 -85 -10
-37 -75 -129 -92 -130 -17 -2 -6 19 31 56 22 22 43 51 46 66 10 38 -3 95 -26
118 -14 14 -15 19 -5 19 8 0 24 -20 36 -44z m2266 -245 c36 -79 39 -93 39
-176 0 -82 -3 -96 -34 -158 -24 -47 -54 -86 -96 -125 -57 -53 -61 -59 -54 -87
5 -16 6 -54 2 -84 -5 -42 -3 -52 6 -46 7 4 30 -1 51 -10 28 -13 44 -29 58 -59
23 -50 36 -110 22 -101 -6 3 -10 12 -10 18 0 17 -62 16 -67 0 -3 -8 5 -13 22
-13 17 0 25 -5 22 -12 -2 -8 -22 -13 -49 -13 -54 0 -69 -12 -98 -72 l-21 -46
-30 37 c-35 41 -50 44 -77 16 -18 -19 -21 -19 -48 -5 -16 8 -23 15 -16 15 6 0
12 5 12 10 0 7 -7 7 -21 0 -27 -15 -36 -5 -15 16 24 23 13 29 -18 9 -25 -17
-26 -17 -26 7 0 13 7 34 16 46 16 23 55 49 53 35 -8 -45 20 -73 72 -73 32 0
41 4 48 22 10 28 2 66 -10 46 -12 -19 -51 -18 -65 1 -10 12 -7 24 12 57 13 22
24 52 24 67 0 14 7 32 15 40 12 13 12 16 1 20 -19 8 -26 -2 -26 -35 0 -53 -26
-94 -83 -132 -74 -49 -95 -99 -78 -184 6 -31 20 -70 32 -87 17 -26 16 -25 -11
5 -38 43 -60 92 -60 136 0 39 -17 55 -23 22 -3 -18 -5 -17 -6 7 -1 43 41 127
79 157 23 18 42 24 67 22 38 -3 36 3 -18 58 -93 92 -30 238 102 238 30 0 93
-34 118 -63 11 -14 17 -12 53 21 66 60 115 144 134 229 24 109 15 165 -40 268
-25 47 -46 88 -46 92 1 21 52 -59 86 -136z m-2032 107 c8 -13 8 -23 0 -35 -16
-26 -29 -26 -59 0 -26 22 -27 24 -10 41 21 21 54 18 69 -6z m-3350 -92 c9 -38
15 -71 13 -73 -5 -4 -37 118 -37 138 0 26 9 1 24 -65z m5378 -154 c-2 -78 -23
-152 -60 -206 -38 -56 -57 -60 -48 -10 16 91 36 285 37 354 l1 75 35 -73 c31
-63 36 -83 35 -140z m-1412 8 c208 -166 453 -317 655 -405 118 -51 138 -62 90
-51 -105 26 -212 46 -223 41 -6 -2 -25 0 -40 6 -15 6 -42 11 -59 11 -18 0 -33
4 -33 10 0 5 -4 6 -10 3 -5 -3 -10 -1 -10 4 0 6 -4 10 -8 9 -25 -8 -283 165
-397 266 -72 64 -120 129 -111 153 3 8 -3 26 -14 40 -11 14 -20 31 -20 38 0 7
-10 25 -22 41 -12 16 3 6 33 -22 30 -28 106 -93 169 -144z m-295 -25 c138
-134 139 -136 85 -109 -36 17 -80 53 -127 103 -40 42 -73 79 -73 83 0 4 -15
24 -32 44 -64 73 7 14 147 -121z m1777 123 c48 -63 58 -94 59 -176 1 -101 -8
-146 -33 -169 -11 -10 -23 -17 -26 -16 -16 4 -17 41 -4 86 20 69 12 197 -16
260 -24 55 -15 61 20 15z m-2141 -106 c62 -75 188 -199 318 -312 35 -30 69
-60 76 -67 6 -6 25 -20 41 -30 16 -10 63 -44 105 -75 42 -31 93 -64 115 -73
21 -8 44 -22 50 -30 11 -14 96 -67 244 -151 36 -20 112 -64 169 -96 57 -32
130 -69 162 -83 54 -22 112 -55 97 -55 -12 0 -272 107 -319 131 -51 25 -243
137 -374 217 -203 125 -509 373 -626 509 -96 112 -129 156 -129 174 0 10 2 19
4 19 2 0 32 -35 67 -78z m-1824 6 c-2 -13 -4 -5 -4 17 -1 22 1 32 4 23 2 -10
2 -28 0 -40z m-1416 -170 c9 -83 9 -109 -6 -179 -14 -70 -47 -159 -59 -159 -2
0 7 30 21 67 30 83 39 196 25 299 -7 43 -14 102 -16 129 l-5 50 14 -55 c8 -30
19 -99 26 -152z m2964 41 c-24 -185 -32 -359 -23 -501 9 -149 41 -382 64 -472
9 -32 17 -71 20 -85 2 -14 10 -53 18 -86 13 -56 13 -61 -5 -76 -28 -25 -222
-104 -351 -143 -156 -47 -283 -60 -598 -60 -272 0 -487 18 -598 50 -46 14 -46
14 -7 9 22 -3 83 -12 135 -20 387 -59 857 -33 1145 64 189 63 264 104 251 136
-8 21 -73 366 -84 445 -5 36 -10 55 -11 42 -1 -14 -5 -21 -12 -16 -6 3 -9 15
-6 25 3 11 2 19 -1 19 -4 0 -7 12 -8 28 0 15 -6 79 -13 142 -13 116 -11 209
11 393 10 88 20 116 30 86 2 -6 14 23 28 65 13 42 25 74 27 73 1 -2 -4 -55
-12 -118z m2525 40 c18 -76 8 -184 -23 -252 -27 -59 -112 -177 -127 -177 -5 0
2 -20 16 -43 46 -83 51 -204 11 -244 -13 -13 -14 -3 -10 79 6 104 -2 117 -12
19 -6 -61 -19 -111 -29 -111 -3 0 0 14 6 30 5 17 8 59 6 94 -4 74 -38 129 -94
152 -29 12 -34 19 -34 49 0 29 4 35 20 35 12 0 35 -7 52 -16 17 -9 33 -12 37
-7 3 5 25 33 48 63 23 30 53 78 66 105 30 59 48 170 40 239 -8 64 11 54 27
-15z m-4063 -81 c-2 -13 -4 -5 -4 17 -1 22 1 32 4 23 2 -10 2 -28 0 -40z
m1749 5 c21 -27 44 -52 51 -56 21 -13 43 -64 43 -99 0 -42 20 -82 44 -86 15
-3 16 -1 7 15 -7 14 -6 30 3 57 15 43 25 36 46 -29 16 -51 47 -95 67 -95 11 0
13 6 8 23 -11 34 -11 70 0 73 6 2 19 -8 29 -23 14 -19 19 -40 17 -84 -2 -66
12 -105 62 -170 28 -37 31 -46 16 -42 -11 3 -38 28 -60 57 -74 93 -147 117
-234 77 -84 -38 -119 -120 -95 -225 14 -62 23 -80 78 -145 33 -38 64 -63 110
-84 58 -27 70 -29 151 -25 l87 4 -50 -44 c-75 -64 -94 -90 -107 -147 -6 -27
-18 -62 -25 -76 -12 -25 -71 -82 -110 -106 -18 -12 -18 -13 5 -33 13 -11 31
-20 41 -20 35 0 113 100 150 192 30 73 84 145 138 181 30 20 42 35 42 53 0 33
-32 44 -124 44 -41 0 -93 7 -116 15 -62 22 -126 78 -141 123 -21 67 -53 88
-38 25 11 -52 4 -52 -22 -1 -30 56 -33 168 -6 195 16 16 17 16 17 -5 0 -28 3
-28 38 8 39 38 67 38 100 -2 83 -98 87 -101 126 -100 l38 1 -27 -21 c-16 -12
-47 -23 -74 -26 -43 -4 -52 -1 -84 28 l-37 32 0 -32 c0 -23 9 -40 32 -62 29
-27 37 -30 86 -26 44 4 59 11 90 41 22 22 51 39 72 43 60 10 61 11 50 40 -6
15 -28 49 -50 77 -25 31 -40 60 -40 78 l0 28 43 -19 c23 -11 53 -20 67 -20 20
0 22 -2 10 -10 -8 -5 -10 -10 -4 -10 6 0 22 -10 36 -22 48 -43 144 -116 198
-153 30 -20 64 -45 75 -55 11 -10 54 -36 95 -57 179 -93 289 -187 310 -265 9
-32 7 -45 -21 -107 -30 -65 -34 -69 -63 -68 -23 2 -31 -2 -30 -15 1 -10 -4
-14 -13 -11 -7 3 -12 8 -9 11 8 7 -53 91 -75 103 -11 6 -18 13 -15 16 9 9 -63
55 -77 50 -7 -2 -37 7 -67 20 -73 33 -200 42 -250 19 l-35 -16 75 4 c41 3 64
2 51 -2 l-24 -8 24 -15 c25 -17 109 -30 109 -17 0 4 16 0 35 -8 46 -19 45 -10
-2 15 -61 32 -28 24 51 -13 107 -49 151 -93 175 -175 40 -133 75 -396 91 -683
11 -189 23 -286 38 -314 6 -11 43 -50 82 -89 114 -111 117 -123 111 -355 -6
-182 42 -327 157 -480 31 -41 60 -81 65 -88 16 -21 -1 -27 -23 -7 -12 11 -29
16 -45 13 -14 -3 -25 -1 -25 3 0 9 -148 99 -162 99 -5 0 -8 -19 -8 -42 l-1
-43 -15 28 c-8 15 -19 27 -24 27 -15 0 -12 -8 10 -30 25 -25 25 -63 0 -119
-11 -24 -20 -44 -20 -46 0 -1 11 -15 24 -30 20 -23 22 -32 14 -50 -27 -60 -86
20 -113 155 -6 26 -7 26 -14 0 -14 -46 -2 -207 19 -252 11 -24 20 -51 20 -62
0 -14 5 -17 23 -13 21 6 21 6 -3 -13 -46 -36 -60 -35 -102 8 l-40 40 26 65
c31 78 35 179 10 307 -32 173 -89 289 -205 419 -87 97 -113 146 -134 248 -14
68 -66 193 -80 193 -2 0 0 -14 5 -31 8 -27 -3 -19 -93 63 -277 254 -435 426
-582 633 -43 61 -102 142 -131 180 -45 60 -124 188 -124 201 0 26 69 -40 70
-66 0 -8 15 -27 34 -42 l33 -27 -3 25 c-1 15 3 24 12 24 8 0 14 9 14 21 0 15
-5 19 -15 15 -11 -4 -19 3 -25 20 -13 33 -13 34 6 27 15 -5 16 -2 9 23 -5 16
-9 47 -10 69 0 22 -4 46 -8 52 -5 7 -4 20 1 29 11 20 0 84 -20 113 -16 22 -16
22 -22 3 -9 -28 -3 -82 9 -82 5 0 3 -5 -5 -10 -8 -5 -10 -10 -4 -10 14 0 18
-109 4 -130 -7 -10 -8 -4 -4 20 3 22 -10 106 -35 225 -60 282 -66 332 -66 615
0 245 1 256 22 290 39 62 66 81 129 89 7 0 29 -20 50 -46z m-1719 -10 c-3 -10
-5 -2 -5 17 0 19 2 27 5 18 2 -10 2 -26 0 -35z m4084 -9 c12 -25 18 -48 15
-51 -5 -5 -46 79 -46 93 0 16 14 -3 31 -42z m-2931 -44 c22 -78 3 -134 -62
-183 -45 -33 -65 -38 -118 -28 l-45 9 56 1 c48 1 63 6 97 34 66 53 74 84 42
168 -20 55 -17 85 7 53 7 -10 18 -34 23 -54z m-1069 -21 c14 -35 67 -63 107
-57 39 6 41 1 6 -12 -53 -20 -136 50 -133 112 1 20 2 20 6 3 2 -11 9 -32 14
-46z m-124 -1 c-2 -13 -4 -5 -4 17 -1 22 1 32 4 23 2 -10 2 -28 0 -40z m27
-33 c-4 -47 -5 -85 -3 -85 3 0 22 9 44 20 21 11 41 17 44 14 9 -8 -50 -53 -74
-56 -25 -4 -32 -58 -41 -361 -6 -216 -6 -219 13 -206 29 17 86 4 118 -29 15
-15 39 -53 52 -84 20 -46 31 -58 54 -63 34 -8 36 -14 9 -48 -28 -36 -25 -45
18 -49 31 -3 40 -8 53 -38 9 -19 19 -68 22 -108 5 -65 4 -73 -11 -70 -14 3
-18 17 -20 81 -3 70 -5 79 -28 94 -35 23 -165 22 -216 0 -46 -21 -48 -21 -48
-2 0 23 31 34 104 36 37 1 69 5 71 9 11 17 17 93 8 87 -6 -4 -20 18 -32 52
-25 70 -42 87 -101 100 -67 16 -70 15 -70 -22 0 -32 1 -33 34 -29 28 3 37 -1
51 -22 23 -34 16 -61 -15 -61 -21 0 -25 5 -25 27 0 15 -3 28 -7 28 -39 1 -38
4 -37 -132 0 -73 3 -151 7 -173 7 -37 10 -40 44 -43 32 -3 36 -1 31 17 -5 21
-23 29 -23 11 0 -5 -7 -10 -15 -10 -18 0 -20 31 -3 48 31 31 106 -6 94 -46 -4
-12 -15 -22 -24 -23 -36 -1 36 -21 133 -36 110 -18 589 -25 678 -10 43 7 47
11 47 36 0 41 -55 111 -89 111 -37 0 -71 -26 -71 -55 0 -19 6 -24 33 -27 27
-2 33 -8 35 -30 2 -16 -1 -28 -7 -28 -6 0 -11 4 -11 10 0 5 -16 16 -35 24 -37
16 -38 18 -35 104 2 60 -31 141 -73 180 l-24 23 -28 -63 c-15 -34 -33 -98 -40
-143 -8 -62 -15 -81 -28 -83 -15 -3 -17 2 -11 37 8 48 -3 52 -55 20 -32 -19
-33 -22 -29 -70 6 -54 -9 -63 -25 -15 -19 56 20 117 88 140 24 9 41 21 43 33
2 10 22 60 45 111 l40 93 23 -28 c43 -54 87 -135 93 -171 6 -36 7 -37 48 -34
37 3 45 -1 83 -39 46 -47 64 -82 55 -110 -6 -16 -2 -18 27 -13 177 29 420 95
499 135 l36 18 -9 57 c-12 76 -6 114 9 59 21 -73 22 -113 4 -129 -26 -23 -130
-62 -268 -99 -264 -72 -375 -87 -648 -87 -237 0 -387 12 -520 41 -144 32 -132
17 -140 171 -8 175 11 800 30 953 8 66 15 123 15 128 0 4 2 7 5 7 3 0 2 -38
-1 -85z m2454 13 c48 -35 99 -71 112 -81 25 -18 25 -18 -4 -1 -16 9 -50 28
-75 41 -45 24 -143 103 -128 103 4 0 47 -28 95 -62z m-1029 8 c-2 -2 -20 -1
-39 2 l-35 6 35 6 c30 4 51 -3 39 -14z m-1344 -16 c-3 -5 -17 -10 -31 -10 -13
0 -24 5 -24 10 0 6 14 10 31 10 17 0 28 -4 24 -10z m-118 -57 c-3 -10 -5 -2
-5 17 0 19 2 27 5 18 2 -10 2 -26 0 -35z m1453 18 c0 -17 -4 -18 -42 -9 -65
14 -70 28 -10 28 44 0 52 -3 52 -19z m-1463 -113 c-2 -13 -4 -3 -4 22 0 25 2
35 4 23 2 -13 2 -33 0 -45z m199 19 c-9 -22 -34 -50 -65 -72 -28 -20 -51 -39
-51 -42 0 -3 8 -12 18 -19 14 -11 11 -11 -20 0 -21 7 -40 15 -43 18 -3 3 10
17 30 32 24 19 35 35 36 54 0 27 0 27 10 4 12 -31 27 -25 64 25 17 22 31 39
33 38 2 -2 -4 -19 -12 -38z m1171 7 c12 -11 27 -14 50 -11 28 5 34 3 31 -11
-7 -36 -76 -23 -98 18 -13 24 -4 26 17 4z m-1385 -304 c-8 -162 -9 -176 -10
-84 -2 112 10 350 15 304 2 -14 -1 -113 -5 -220z m1463 230 c-3 -5 -23 -10
-43 -9 -33 1 -34 2 -12 9 36 12 62 12 55 0z m1323 -180 c135 -83 68 -70 -83
17 -80 46 -225 141 -225 147 0 6 235 -119 308 -164z m1360 138 c16 -16 15 -44
-3 -62 -29 -29 -64 9 -50 54 7 22 35 26 53 8z m-3348 -17 c-16 -31 -58 -60
-79 -54 -11 3 -28 14 -38 26 -18 21 -18 21 7 4 37 -25 66 -21 92 13 25 34 34
39 18 11z m2706 -3 c4 -6 -5 -21 -22 -35 -94 -76 -116 -113 -122 -209 -7 -109
30 -188 103 -220 22 -10 25 -13 10 -14 -30 0 -83 36 -105 72 -11 18 -27 66
-36 106 -28 128 3 230 90 286 43 28 71 33 82 14z m-2036 -18 c0 -11 -7 -20
-16 -20 -8 0 -12 5 -9 10 8 13 -11 13 -36 0 -36 -20 -11 -100 31 -100 11 0 24
-9 30 -20 10 -18 8 -20 -17 -20 -64 0 -97 62 -73 134 11 33 15 36 51 36 32 0
39 -3 39 -20z m-3400 -31 c17 -13 18 -17 5 -10 -33 17 -51 31 -40 31 6 0 21
-10 35 -21z m2050 -41 c30 -49 27 -111 -6 -137 -31 -25 -74 -28 -74 -6 0 9 9
15 24 15 35 0 56 26 56 69 0 44 -14 61 -52 61 -18 0 -28 5 -28 15 0 10 10 15
30 15 23 0 35 -7 50 -32z m-1572 -5 c-6 -8 -24 -21 -40 -29 -28 -14 -28 -14
-16 5 6 11 15 18 19 15 4 -2 9 2 12 9 3 8 12 14 21 14 12 0 13 -3 4 -14z m162
-59 c7 -36 10 -97 8 -136 -5 -59 -13 -86 -54 -165 -52 -100 -102 -156 -173
-192 -22 -12 -50 -21 -62 -21 -15 0 1 15 53 48 87 58 138 113 181 201 28 58
31 74 32 155 0 50 -4 113 -8 140 -13 74 9 47 23 -30z m257 -96 c-2 -35 -3 -9
-3 57 0 66 1 94 3 63 2 -32 2 -86 0 -120z m5170 110 c-13 -29 -38 -72 -55 -94
-30 -41 -92 -93 -92 -77 0 4 28 42 61 83 33 41 70 92 82 112 31 52 33 39 4
-24z m-3358 5 c44 -51 62 -98 54 -135 -8 -37 -37 -88 -49 -88 -7 0 -14 -6 -17
-12 -2 -8 -16 -1 -35 21 -28 29 -32 40 -32 90 0 44 4 60 19 73 16 13 22 14 30
4 19 -23 24 -75 11 -121 -7 -25 -10 -48 -6 -52 10 -10 34 27 46 70 19 65 -28
155 -83 161 -15 2 -25 1 -22 -2 2 -3 -5 -21 -16 -39 -13 -20 -22 -51 -22 -74
0 -41 20 -99 34 -99 14 0 10 -13 -11 -40 l-19 -25 5 36 c4 26 0 45 -15 70 -37
60 -25 111 42 187 11 12 26 22 33 22 7 0 31 -21 53 -47z m2369 -35 c18 -18 15
-56 -5 -67 -22 -12 -73 16 -73 39 0 22 20 40 45 40 12 0 26 -5 33 -12z m-4823
-28 c4 -6 -7 -10 -24 -10 -17 0 -31 5 -31 10 0 6 11 10 24 10 14 0 28 -4 31
-10z m5590 -50 c-9 -17 -20 -28 -25 -25 -5 3 -16 -7 -24 -22 l-15 -28 -1 32
c0 25 7 36 35 53 19 12 36 29 36 38 1 16 2 16 6 0 2 -9 -3 -31 -12 -48z
m-2457 40 c12 0 22 -4 22 -10 0 -5 -18 -10 -40 -10 -32 0 -46 -6 -65 -27 -34
-40 -42 -21 -9 22 21 27 33 35 48 31 12 -3 31 -6 44 -6z m2375 -38 c3 -4 0
-31 -5 -60 -6 -31 -14 -48 -18 -41 -4 6 -3 27 2 46 5 19 7 41 4 49 -6 14 9 20
17 6z m-274 -66 c29 -10 31 -13 17 -25 -13 -11 -16 -11 -16 -1 0 8 -3 10 -6 7
-9 -8 -44 11 -44 23 0 12 6 12 49 -4z m-3354 -88 c25 -28 45 -55 45 -60 0 -5
-15 10 -33 34 -45 58 -91 88 -138 88 -22 0 -39 4 -39 9 0 5 8 7 19 4 10 -3 22
0 25 6 10 16 70 -24 121 -81z m1285 72 c0 -10 -14 -14 -82 -25 -40 -6 -78 -44
-78 -76 0 -17 -5 -18 -38 -13 -29 4 -41 2 -52 -11 -12 -15 -12 -23 4 -64 22
-59 23 -65 11 -70 -15 -6 -55 70 -55 105 0 36 39 69 71 61 15 -4 26 5 44 33
23 37 52 52 115 63 46 8 60 7 60 -3z m2269 -43 c-9 -32 -12 -35 -28 -25 -18
11 -17 13 8 39 14 15 27 26 28 25 1 -1 -2 -19 -8 -39z m-3019 -62 c-1 -19 -2
-19 -20 4 -26 30 -26 45 0 29 11 -7 20 -22 20 -33z m768 13 c3 -14 -4 -18 -32
-18 -38 0 -66 -21 -66 -51 0 -24 -17 -25 -25 0 -7 24 9 67 32 80 28 17 87 9
91 -11z m2296 -78 c-10 -28 -29 -60 -42 -73 l-24 -22 14 30 c43 94 60 126 65
121 3 -3 -3 -28 -13 -56z m-214 -20 c0 -5 -18 -22 -40 -36 -22 -15 -37 -32
-34 -38 3 -6 -2 -2 -10 8 -9 11 -16 22 -16 25 0 5 71 41 98 50 1 1 2 -3 2 -9z
m-5607 -120 c4 -52 3 -77 -3 -65 -8 19 -14 163 -6 154 2 -2 6 -42 9 -89z
m3183 75 c-11 -8 -22 -12 -25 -9 -6 6 19 24 34 24 6 -1 1 -7 -9 -15z m323 -25
c14 -7 20 -27 26 -76 4 -37 9 -74 13 -82 3 -10 0 -13 -9 -10 -8 3 -17 26 -21
54 -14 96 -13 94 -70 94 -28 0 -77 -7 -107 -15 -31 -7 -74 -18 -96 -22 l-40
-9 -3 -112 c-1 -62 -6 -112 -11 -112 -23 0 -29 172 -7 224 13 32 46 53 64 42
5 -3 40 1 78 9 135 27 158 29 183 15z m-1532 -172 c-2 -35 -3 -9 -3 57 0 66 1
94 3 63 2 -32 2 -86 0 -120z m3906 120 c-42 -79 -97 -160 -101 -149 -2 7 8 29
23 49 15 20 40 58 57 85 34 54 48 63 21 15z m-3499 -19 c14 -11 26 -25 26 -31
0 -6 -12 1 -26 15 -14 14 -35 28 -47 30 -22 4 -22 4 -1 6 12 0 33 -8 48 -20z
m2919 -174 c1 -98 -20 -167 -74 -235 -36 -46 -125 -117 -135 -107 -2 2 13 16
35 32 82 56 141 182 141 300 0 44 -5 73 -25 163 -4 15 -2 21 5 17 5 -3 10 2
11 12 1 10 10 -9 21 -42 13 -39 21 -88 21 -140z m259 170 c-2 -14 -6 -25 -8
-25 -2 0 -4 11 -4 25 0 14 4 25 9 25 4 0 6 -11 3 -25z m217 -49 c1 -42 -5 -29
-12 24 -4 30 -3 38 3 25 5 -11 9 -33 9 -49z m-114 4 c25 0 38 7 53 27 l20 28
5 -25 c3 -14 10 -52 16 -85 5 -33 17 -91 25 -130 23 -104 20 -180 -8 -241 -35
-76 -64 -94 -148 -94 -51 0 -69 3 -66 13 3 7 31 14 74 17 38 3 62 8 54 11 -8
4 -2 5 14 3 16 -2 27 -1 23 2 -3 4 3 25 15 47 23 45 21 112 -5 197 l-14 45 5
-62 c4 -53 2 -63 -11 -63 -8 0 -18 -6 -20 -12 -3 -8 -6 -6 -6 5 -1 18 -21 23
-36 8 -10 -10 -46 -15 -77 -13 -28 3 -22 44 19 145 20 51 36 100 36 110 -3 30
49 18 58 -13 7 -23 7 -23 8 6 1 34 -12 44 -54 44 -20 0 -25 -7 -34 -49 -12
-57 -93 -230 -99 -213 -2 7 1 27 7 45 11 32 11 32 -7 9 l-17 -22 -13 21 c-12
19 -9 26 37 74 53 56 66 91 60 168 l-4 45 28 -24 c18 -15 41 -24 62 -24z
m-5376 14 c10 -9 -65 -3 -78 5 -10 6 1 8 30 4 24 -3 46 -7 48 -9z m3151 0 c33
-20 64 -69 56 -90 -9 -23 -21 -16 -35 21 -7 20 -24 43 -37 52 -21 13 -29 14
-49 3 -24 -13 -35 -50 -15 -50 6 0 10 -18 10 -41 0 -48 -22 -50 -30 -3 -4 20
-11 28 -23 26 -21 -3 -21 -1 -3 42 23 56 72 71 126 40z m-674 -221 c-3 -7 -15
-13 -27 -13 -16 0 -19 3 -11 13 6 7 13 52 17 101 3 49 9 94 13 100 8 12 15
-180 8 -201z m4302 123 c-2 -2 -46 -13 -98 -26 -52 -12 -149 -40 -215 -60
-393 -124 -638 -182 -872 -206 l-63 -6 0 56 c0 53 2 56 28 62 117 26 202 49
322 86 19 6 44 13 55 14 11 2 36 5 56 8 20 3 48 10 62 15 14 5 27 7 30 4 10
-9 296 53 326 72 6 3 34 8 63 11 28 3 57 9 63 14 5 4 56 7 112 5 89 -2 101 0
97 14 -3 9 4 -1 16 -22 12 -22 20 -40 18 -41z m-6244 39 c-4 -8 -10 -15 -15
-15 -5 0 -9 -7 -9 -14 0 -56 -240 -148 -379 -145 -108 2 -123 14 -27 22 165
13 314 65 396 136 41 35 41 35 34 16z m1392 -3 c17 -11 31 -43 39 -91 6 -34 4
-42 -6 -39 -8 3 -16 25 -19 51 -3 25 -14 55 -24 66 -19 20 -12 28 10 13z m902
-109 c11 -19 10 -23 -2 -23 -21 0 -24 8 -30 80 l-6 65 13 -50 c7 -27 19 -60
25 -72z m-659 -47 c1 -6 -2 -6 -8 0 -6 5 -12 41 -15 79 l-6 70 14 -70 c8 -38
15 -74 15 -79z m3071 134 c0 -5 -16 -27 -35 -49 -19 -21 -35 -43 -35 -49 0 -6
-8 -16 -19 -21 -46 -25 -68 -181 -35 -259 8 -20 10 -32 4 -26 -6 6 -18 29 -25
50 -8 22 -17 38 -22 38 -4 -1 -19 -5 -33 -9 -24 -7 -24 -7 -5 9 11 8 26 16 33
16 8 0 12 15 12 43 0 56 37 129 103 206 57 65 57 65 57 51z m-5337 -150 c82
-38 188 -54 307 -46 52 4 106 9 120 12 l25 4 -25 -12 c-16 -7 -79 -12 -175
-12 -132 -1 -158 2 -217 22 -77 27 -135 66 -169 114 -22 31 -20 30 25 -10 26
-24 75 -57 109 -72z m736 -192 c1 -118 -19 -218 -59 -298 -17 -33 -32 -60 -34
-60 -2 0 11 35 30 78 41 96 58 205 51 332 -3 55 -2 85 3 70 4 -14 8 -69 9
-122z m4278 95 c-49 -93 -138 -163 -209 -163 -27 0 -28 2 -27 48 0 38 2 43 9
25 5 -13 14 -23 20 -23 6 0 8 4 5 10 -3 6 1 7 10 4 35 -14 177 74 191 118 3
11 8 17 11 15 2 -3 -2 -18 -10 -34z m443 -37 c0 -15 -18 -31 -26 -23 -7 7 7
37 17 37 5 0 9 -6 9 -14z m-3208 -51 c4 5 75 -3 208 -24 36 -6 139 -13 230
-16 91 -3 239 -10 330 -16 91 -6 251 -11 355 -11 162 0 196 -3 228 -18 21 -11
35 -13 32 -7 -3 7 4 -1 17 -17 13 -16 42 -53 66 -82 23 -29 42 -56 42 -60 0
-4 -107 -4 -237 -1 -332 8 -463 27 -928 138 -274 65 -360 93 -370 116 -4 12
-3 13 8 5 8 -7 16 -10 19 -7z m-2326 -229 c13 -28 24 -60 23 -71 0 -11 -9 4
-20 34 -10 30 -26 62 -34 71 -17 19 -20 34 -4 24 6 -3 22 -30 35 -58z m1234
-124 c-10 -14 -11 -13 -6 8 3 14 7 54 8 90 l2 65 3 -73 c2 -42 -1 -79 -7 -90z
m1783 137 c20 -5 37 -12 37 -14 0 -9 -96 -102 -150 -146 -104 -85 -211 -150
-316 -195 -114 -48 -133 -52 -114 -29 7 8 16 13 20 10 4 -2 6 8 5 23 -1 29 21
62 43 62 8 0 25 9 39 20 14 11 32 20 39 20 8 0 14 6 14 13 0 7 45 39 100 72
55 33 100 63 100 67 0 5 8 8 17 8 9 0 14 3 10 6 -9 9 35 54 54 54 10 0 21 5
25 12 5 7 3 8 -6 3 -10 -6 -12 -4 -7 8 3 9 1 18 -6 21 -15 7 46 -3 96 -15z
m-1726 -76 c-3 -10 -5 -2 -5 17 0 19 2 27 5 18 2 -10 2 -26 0 -35z m-422 -42
c-51 -75 -197 -206 -265 -239 -80 -40 -199 -66 -260 -57 -115 16 -213 64 -241
117 -9 19 -5 17 22 -9 137 -129 395 -102 593 61 38 31 83 76 100 99 57 79 105
105 51 28z m380 -103 c-68 -136 -180 -244 -305 -295 -33 -13 -34 -13 -15 2 11
9 43 28 70 42 28 14 68 40 91 58 47 39 135 162 160 225 10 24 19 39 22 32 2
-6 -9 -35 -23 -64z m1579 -215 c20 -46 47 -98 60 -116 30 -40 106 -95 124 -91
7 1 8 0 2 -3 -5 -2 -8 -8 -5 -12 2 -5 -4 -25 -15 -46 -22 -43 -19 -96 8 -150
l14 -30 -32 30 c-18 17 -30 24 -26 18 17 -30 -11 -9 -33 24 -17 26 -20 38 -11
41 8 3 2 13 -16 28 -25 20 -27 25 -14 35 12 9 11 10 -7 6 -13 -3 -23 -1 -23 4
0 5 -13 21 -30 35 -16 15 -32 35 -36 46 -3 10 -9 16 -14 13 -5 -3 -12 0 -16 6
-5 8 -3 9 6 4 10 -6 11 -2 6 19 -3 14 -1 36 5 48 l12 22 18 -23 c11 -13 19
-29 19 -37 0 -8 4 -14 9 -14 16 0 3 47 -43 152 -25 58 -46 109 -46 114 0 4 11
-3 25 -16 13 -12 40 -60 59 -107z m4885 73 c-9 -8 -10 -7 -5 7 3 10 7 24 7 30
1 7 3 4 6 -7 3 -10 -1 -23 -8 -30z m-7662 -60 c59 -62 180 -110 318 -126 l80
-9 -80 4 c-44 2 -107 11 -140 20 -77 20 -189 94 -210 137 -13 27 -13 29 -1 13
8 -11 23 -28 33 -39z m2193 -81 c32 -19 60 -35 63 -35 6 0 283 -150 338 -183
116 -70 172 -133 244 -277 21 -41 46 -86 57 -99 14 -19 16 -26 6 -33 -7 -4 -8
-8 -3 -8 6 0 16 5 23 12 16 16 16 -4 0 -21 -11 -12 -9 -13 7 -7 17 5 17 3 -4
-14 -32 -28 -40 -19 -106 109 -122 237 -225 325 -546 466 -151 66 -209 121
-209 196 0 18 6 14 36 -25 21 -25 63 -62 94 -81z m5481 87 c29 -42 40 -68 32
-76 -5 -4 -73 98 -73 110 0 14 19 -2 41 -34z m-623 -2 c3 0 3 -3 0 -6 -7 -6
-78 22 -78 31 0 3 16 -2 36 -10 20 -8 39 -15 42 -15z m582 -30 c20 -20 30 -97
11 -85 -5 3 -12 1 -16 -5 -9 -14 -88 -13 -103 2 -17 17 -15 45 5 79 21 36 72
40 103 9z m-430 -30 c22 -11 40 -23 40 -25 0 -5 -79 32 -89 41 -11 10 14 2 49
-16z m-195 -26 c-27 -13 -56 -24 -63 -24 -7 0 -26 -7 -42 -15 -28 -15 -30 -14
-30 4 0 27 13 34 95 47 96 16 97 16 40 -12z m-159 -39 c-9 -13 -16 -35 -16
-47 0 -23 -20 -63 -20 -42 0 6 -11 12 -25 12 -17 0 -27 -8 -35 -27 -9 -23 -9
-21 -5 14 14 101 23 113 89 114 28 1 28 1 12 -24z m-5036 -63 l35 -17 6 -122
c6 -114 9 -127 43 -195 19 -40 53 -101 75 -135 l40 -63 -30 15 c-16 9 -29 12
-30 8 0 -5 -2 -35 -5 -68 -2 -33 -6 -89 -8 -125 -2 -36 -8 -81 -15 -100 -6
-19 -11 -52 -11 -72 0 -32 -5 -40 -30 -53 -17 -9 -35 -13 -40 -10 -6 3 -10 2
-10 -3 0 -19 -26 -20 -27 -1 -1 10 2 19 8 19 5 0 9 5 9 11 0 8 -4 8 -15 -1
-15 -13 -39 -5 -29 11 3 5 10 7 15 4 5 -3 6 1 3 9 -3 9 -1 16 5 16 6 0 11 4
11 10 0 5 -7 7 -15 4 -8 -4 -15 -1 -15 5 0 6 8 11 18 11 16 1 16 2 0 13 -9 7
-22 41 -29 75 -7 34 -16 62 -19 62 -4 0 -7 19 -8 43 -1 23 -4 53 -7 67 -3 14
-8 45 -12 70 -3 25 -11 54 -17 65 -5 11 -11 22 -12 25 -4 20 -48 106 -55 108
-4 2 -5 10 -2 18 3 8 1 14 -5 14 -6 0 -18 21 -28 48 -10 26 -23 50 -28 54 -6
4 -4 14 6 25 22 24 37 65 40 108 2 31 7 36 43 49 55 20 103 19 145 -2z m-486
-69 c12 -29 -5 -27 -37 5 l-32 33 32 -11 c17 -6 34 -18 37 -27z m1767 -19 c65
-26 98 -49 87 -60 -4 -3 -20 4 -37 16 -16 13 -51 29 -78 36 -26 7 -41 13 -33
13 13 1 13 2 0 11 -25 16 -7 11 61 -16z m4534 -24 c-21 -24 -83 -26 -130 -6
-28 12 -25 13 35 9 48 -4 70 -1 85 10 27 20 33 12 10 -13z m-4539 -25 c16 -12
16 -14 3 -15 -9 0 -22 7 -29 15 -16 19 0 19 26 0z m3754 -66 c22 -156 106
-360 195 -478 47 -61 48 -64 29 -78 -40 -29 -64 -27 -100 8 -47 46 -140 238
-169 349 l-6 25 20 -23 c12 -13 26 -42 32 -64 6 -22 21 -64 34 -92 12 -28 26
-62 30 -76 13 -45 46 -101 55 -95 4 3 16 -2 25 -11 15 -15 16 -13 14 35 -2 42
-9 59 -36 90 -18 22 -51 71 -73 110 -33 59 -44 91 -60 187 -24 141 -26 194 -4
194 1 0 7 -36 14 -81z m-3890 31 c0 -13 -1 -13 -10 0 -5 8 -10 22 -10 30 0 13
1 13 10 0 5 -8 10 -22 10 -30z m-2475 0 c-3 -5 -16 -15 -28 -21 -22 -12 -22
-12 -3 10 19 21 43 30 31 11z m2698 0 c-65 -13 -83 -27 -110 -87 -21 -46 -24
-63 -18 -109 6 -46 11 -58 42 -81 38 -30 59 -36 115 -37 52 -1 36 -16 -18 -16
-57 0 -127 44 -143 91 -23 65 -7 154 37 203 23 25 70 45 107 45 25 -1 23 -3
-12 -9z m146 -5 c11 -12 -7 -11 -49 1 l-45 14 45 -6 c24 -3 46 -7 49 -9z
m-1876 -18 c7 3 9 3 5 -2 -4 -4 5 -24 19 -44 l27 -36 -37 34 c-20 19 -37 42
-36 50 0 11 2 12 6 3 2 -6 10 -9 16 -5z m1847 -26 c14 -28 14 -29 -22 -51 -33
-20 -68 -13 -68 15 0 7 -6 15 -12 18 -10 3 -10 7 1 20 20 25 87 23 101 -2z
m4131 -109 c-26 -89 -101 -192 -232 -316 -85 -82 -94 -87 -106 -70 -12 16 -8
23 39 63 112 97 245 245 278 312 24 46 32 50 21 11z m-5828 -72 c8 -9 22 -37
32 -62 11 -26 22 -45 25 -43 3 2 6 -7 7 -18 4 -62 38 -243 46 -248 5 -4 4 -9
-2 -13 -6 -4 -11 -15 -11 -24 0 -11 3 -13 8 -5 5 8 12 7 27 -4 15 -12 16 -14
3 -10 -23 8 -42 -18 -34 -48 6 -24 26 -36 26 -15 0 6 5 10 10 10 6 0 3 -11 -5
-24 -16 -23 -15 -24 4 -19 17 4 20 1 17 -23 -1 -16 2 -36 8 -44 10 -13 9 -13
-8 0 -18 14 -19 13 -14 -2 9 -23 -17 -31 -34 -10 -43 52 -46 64 -30 117 31
104 -3 312 -73 450 -25 50 -38 81 -30 70 9 -11 21 -27 28 -35z m2011 36 c27
-8 66 -27 88 -43 57 -39 218 -254 218 -290 0 -28 -27 -10 -57 40 -46 76 -181
227 -203 227 -11 0 -23 6 -27 13 -11 18 -65 39 -138 53 l-60 12 66 1 c36 1 87
-5 113 -13z m-164 -50 c0 -18 -2 -18 -14 -6 -8 8 -17 26 -21 40 -8 25 -8 25
14 6 11 -11 21 -28 21 -40z m195 -52 c8 -4 22 -19 31 -35 13 -26 13 -29 -1
-29 -9 0 -14 -3 -12 -7 4 -6 -31 -8 -64 -4 -3 1 -6 19 -7 41 -2 34 0 40 17 40
11 0 27 -3 36 -6z m-537 -32 c2 -7 0 -11 -5 -10 -15 5 -190 -115 -209 -144
-26 -39 -34 -35 -34 18 0 27 4 43 10 39 6 -3 10 -15 10 -26 0 -26 5 -24 43 15
96 101 172 146 185 108z m-1093 -69 c51 -54 63 -94 15 -48 -29 28 -75 95 -65
95 3 0 25 -21 50 -47z m1065 -65 c0 -52 19 -107 41 -119 30 -15 17 -22 -15 -8
-28 13 -32 23 -40 107 -3 30 -1 52 4 52 6 0 10 -15 10 -32z m-982 -52 c-59
-16 -94 -39 -118 -78 -36 -60 -35 -100 7 -180 2 -5 2 -8 -1 -8 -12 0 -46 81
-46 110 0 83 89 166 180 168 14 0 5 -5 -22 -12z m140 -18 c15 -13 52 -91 52
-110 0 -6 -12 12 -27 42 -19 38 -39 61 -63 73 -34 18 -34 19 -5 12 16 -4 36
-11 43 -17z m1702 -37 c0 -10 -6 -23 -12 -28 -30 -23 -181 -84 -233 -94 -51
-9 -58 -8 -70 8 -13 17 -8 19 59 35 81 19 174 57 213 88 28 22 43 19 43 -9z
m-1742 -13 c29 -32 29 -33 8 -57 -26 -29 -60 -26 -88 7 -13 16 -29 27 -36 24
-15 -5 -15 3 -2 29 16 29 89 27 118 -3z m162 -69 c0 -6 -10 -9 -22 -7 -17 2
-22 9 -21 25 1 11 -4 27 -12 33 -8 7 -15 18 -15 24 1 14 70 -60 70 -75z m769
24 c12 -14 19 -28 16 -31 -7 -7 -57 30 -63 46 -7 22 27 12 47 -15z m-754 -53
c4 -6 -12 -10 -42 -9 -39 1 -43 3 -23 9 36 11 58 11 65 0z m2715 -1 c0 -5 4
-8 9 -4 5 3 18 -5 28 -18 10 -12 26 -21 36 -19 23 5 22 -15 -2 -28 -26 -13
-34 -13 -25 2 5 8 -2 9 -24 5 -18 -4 -39 -4 -47 -1 -15 6 -21 55 -8 67 10 11
33 8 33 -4z m-3141 -101 c8 -21 5 -24 -33 -30 -22 -4 -78 -26 -123 -47 -46
-22 -83 -39 -83 -37 0 2 30 23 68 48 150 99 157 102 171 66z m3365 -15 c78
-32 94 -44 127 -93 19 -29 28 -36 33 -25 8 21 89 20 110 -1 24 -24 13 -30 -54
-29 l-61 0 6 -37 c13 -73 -28 -138 -85 -138 -15 0 -45 -16 -74 -40 -39 -33
-56 -40 -91 -40 -48 0 -95 20 -144 63 -43 37 -71 33 -191 -25 -55 -27 -82 -36
-72 -25 27 30 202 128 214 121 8 -5 9 -1 4 12 -43 111 9 244 109 279 47 17 86
11 169 -22z m-319 -3 c-4 -11 -2 -20 4 -20 6 0 11 -8 11 -17 0 -16 -1 -16 -16
-1 -14 14 -13 58 2 58 3 0 2 -9 -1 -20z m-2964 -26 c23 -21 83 -21 114 0 14 9
25 14 25 11 0 -12 -67 -45 -92 -45 -24 0 -97 49 -74 50 5 0 17 -7 27 -16z
m274 -35 l-8 -24 -8 24 c-10 27 -2 48 13 33 6 -6 7 -20 3 -33z m-605 -2 c0 -7
-9 -23 -20 -37 l-20 -25 0 33 c0 20 4 31 10 27 6 -3 10 1 10 10 0 9 5 13 10
10 6 -3 10 -12 10 -18z m533 -1 c4 -10 0 -12 -14 -9 -27 7 -34 23 -11 23 11 0
22 -6 25 -14z m380 -81 c43 -54 123 -212 134 -265 8 -45 -12 -32 -28 18 -30
92 -152 292 -179 292 -5 0 -14 10 -21 21 l-11 21 32 -18 c18 -11 51 -41 73
-69z m2918 69 c12 -14 11 -16 -5 -13 -11 2 -21 10 -24 17 -5 17 13 15 29 -4z
m-3886 -32 c2 -32 -5 -48 -14 -33 -8 13 -2 75 7 66 3 -3 6 -17 7 -33z m853
-31 c35 -33 35 -32 26 -55 -13 -33 -110 -10 -133 31 -15 28 5 53 42 53 22 0
43 -10 65 -29z m-619 -105 c-6 -53 -9 -112 -7 -131 3 -24 0 -35 -9 -35 -20 0
-15 107 13 243 12 60 14 16 3 -77z m3709 -87 c187 -74 267 -165 357 -406 20
-52 21 -62 9 -67 -9 -3 -17 2 -21 12 -22 66 -81 194 -107 232 -69 102 -165
174 -326 244 -70 30 8 17 88 -15z m-98 -42 c0 -15 -3 -16 -20 -7 -28 15 -42
44 -27 59 9 9 16 6 29 -11 10 -13 18 -31 18 -41z m-680 17 c0 -8 -4 -14 -10
-14 -5 0 -10 9 -10 21 0 11 5 17 10 14 6 -3 10 -13 10 -21z m614 -9 c20 -31
21 -65 1 -65 -22 0 -68 25 -85 45 -12 15 -12 19 5 31 29 21 61 17 79 -11z
m227 -81 c56 -51 192 -295 149 -269 -5 3 -10 1 -10 -4 0 -6 4 -11 8 -11 5 0 9
-7 9 -16 0 -15 -1 -15 -12 0 -7 9 -22 16 -33 16 -15 0 -20 5 -16 15 4 10 0 15
-11 15 -15 0 -33 14 -119 94 -17 16 -48 40 -68 53 -20 14 -39 31 -42 39 -6 16
9 60 27 82 15 19 92 10 118 -14z m-3681 -18 c231 -66 635 -66 762 0 27 14 29
13 38 -11 6 -15 10 -32 10 -40 0 -17 -105 -41 -221 -50 -154 -12 -460 23 -515
60 -24 16 -119 45 -147 45 -10 0 -21 -9 -24 -20 -9 -33 -23 -23 -23 16 0 29 3
34 18 30 9 -3 55 -16 102 -30z m3039 -56 c-11 -36 -23 -109 -26 -163 -5 -83
-8 -97 -22 -95 -33 7 -9 209 36 306 26 54 34 21 12 -48z m-30 -284 c86 -45
353 -86 555 -86 138 0 323 26 393 55 20 8 40 15 45 15 14 0 27 -43 18 -60 -12
-23 -103 -47 -243 -65 -188 -25 -356 -9 -502 46 -65 24 -222 69 -242 69 -7 0
-13 -12 -13 -26 l0 -25 -30 21 c-28 20 -38 48 -23 63 9 9 10 9 42 -7z"/>
<path d="M6452 9040 c0 -19 2 -27 5 -17 2 9 2 25 0 35 -3 9 -5 1 -5 -18z"/>
<path d="M6562 9227 c5 -12 22 -32 37 -44 33 -26 222 -126 228 -120 7 8 -59
57 -111 84 -28 14 -77 43 -108 64 -47 31 -55 34 -46 16z"/>
<path d="M7402 9060 c0 -19 2 -27 5 -17 2 9 2 25 0 35 -3 9 -5 1 -5 -18z"/>
<path d="M5400 6963 l-35 -16 35 -12 c20 -7 45 -26 58 -46 13 -19 26 -32 30
-29 4 3 6 8 5 12 -2 4 9 15 25 25 33 21 42 33 42 56 0 29 -27 19 -40 -15 l-11
-33 -33 38 c-18 20 -35 37 -37 36 -2 0 -20 -8 -39 -16z"/>
<path d="M5568 6699 c-19 -11 -38 -68 -38 -117 0 -29 2 -32 20 -22 17 9 19 17
13 55 -6 44 -5 45 32 61 29 12 35 18 24 25 -18 11 -30 11 -51 -2z"/>
<path d="M5461 6444 c-52 -53 -63 -74 -35 -74 29 0 54 20 75 61 32 64 17 69
-40 13z"/>
<path d="M5452 6278 c-23 -11 -40 -53 -27 -66 3 -4 35 -5 70 -4 54 3 65 1 77
-17 8 -12 18 -18 21 -14 16 15 5 57 -22 84 -32 31 -76 37 -119 17z"/>
<path d="M5244 6071 c-67 -31 -100 -66 -110 -117 -8 -46 10 -88 66 -148 44
-48 45 -49 45 -117 0 -38 3 -69 7 -69 14 0 39 61 44 108 5 41 1 54 -26 96 -29
45 -30 49 -13 61 10 7 15 16 11 20 -12 12 -46 -5 -51 -25 -9 -34 -27 -22 -27
18 0 47 26 89 84 138 25 21 46 44 46 51 0 18 -6 16 -76 -16z"/>
<path d="M5312 5978 c-15 -15 -15 -45 0 -50 9 -3 9 -12 -1 -37 -11 -25 -11
-35 -2 -44 10 -9 18 -5 38 17 21 24 24 37 20 69 -7 50 -30 70 -55 45z"/>
<path d="M5212 5693 c5 -25 28 -28 28 -4 0 12 -6 21 -16 21 -9 0 -14 -7 -12
-17z"/>
<path d="M6111 4977 c-1 -4 9 -47 21 -95 13 -48 24 -78 25 -67 2 11 -8 54 -21
95 -13 41 -24 71 -25 67z"/>
<path d="M6439 7299 c-5 -31 -7 -51 -3 -41 4 8 12 5 25 -10 l20 -23 -17 35
c-17 36 -23 46 -25 39z"/>
<path d="M6566 6995 c11 -50 24 -69 37 -55 9 10 9 14 0 17 -7 3 -13 10 -13 17
0 7 -7 21 -15 32 -14 18 -15 17 -9 -11z"/>
<path d="M5269 6541 c-22 -21 -39 -46 -39 -55 0 -21 6 -20 41 5 16 11 33 17
39 14 5 -3 15 -3 21 1 8 4 7 9 -2 15 -11 7 -11 9 1 9 13 0 13 1 0 10 -13 8
-12 10 3 10 9 0 17 7 17 15 0 28 -42 15 -81 -24z"/>
<path d="M2342 5124 c-62 -31 -129 -104 -94 -104 4 0 5 -21 3 -46 -2 -29 3
-60 14 -84 10 -22 15 -49 12 -62 -4 -13 -36 -49 -72 -81 -54 -48 -66 -55 -72
-41 -3 9 1 37 11 63 28 80 14 116 -18 44 -9 -21 -28 -58 -41 -82 -27 -47 -33
-117 -14 -152 14 -27 30 -13 61 49 25 52 66 94 118 122 59 31 173 124 207 169
18 23 40 67 49 98 17 59 43 93 71 93 13 0 7 -10 -20 -38 -20 -21 -37 -43 -37
-50 0 -22 41 -12 68 17 37 41 74 49 101 22 36 -36 22 -96 -24 -103 -16 -2 -19
2 -17 20 5 34 -14 26 -32 -13 -20 -42 -15 -55 22 -55 63 0 122 63 122 131 0
29 -6 43 -31 63 -26 22 -40 26 -97 26 -93 0 -119 -18 -167 -115 -36 -73 -100
-155 -122 -155 -15 0 -54 77 -55 110 -1 36 24 76 54 86 20 6 21 7 4 19 -17 13
-17 14 3 24 40 22 52 14 49 -31 -3 -39 -6 -44 -38 -54 -23 -8 -36 -19 -38 -33
-3 -17 2 -21 27 -21 24 0 36 8 56 38 28 43 40 90 31 127 -8 32 -28 32 -94 -1z
m-227 -430 c-4 -43 -21 -66 -31 -40 -7 18 13 76 26 76 5 0 7 -16 5 -36z"/>
<path d="M2165 4930 c-9 -27 1 -39 25 -33 24 6 27 38 4 47 -22 8 -22 8 -29
-14z"/>
<path d="M2557 4794 c-16 -14 -32 -37 -38 -51 -14 -37 -10 -113 9 -162 14 -36
23 -46 50 -53 30 -8 33 -12 30 -41 -3 -28 -7 -32 -35 -35 -18 -2 -33 -5 -33
-6 0 -2 7 -17 16 -35 9 -19 13 -42 10 -57 -12 -45 -54 -129 -85 -168 -33 -41
-34 -45 -25 -70 10 -26 22 -19 35 21 6 20 31 57 54 82 50 54 70 92 81 146 4
22 13 54 21 72 21 52 16 71 -39 129 -49 52 -52 59 -53 106 0 64 16 71 40 18
22 -49 40 -60 94 -60 57 0 91 32 101 95 9 58 5 72 -21 80 -33 11 -109 -43
-109 -77 0 -23 16 -23 47 2 32 25 43 25 43 2 0 -26 -21 -50 -51 -57 -41 -10
-78 28 -87 89 -4 27 -12 51 -17 53 -6 2 -23 -9 -38 -23z"/>
<path d="M2264 4744 c-17 -8 -50 -33 -74 -56 -36 -35 -41 -45 -38 -74 4 -31
-1 -39 -44 -75 -45 -38 -76 -83 -92 -136 -12 -37 11 -26 43 21 26 38 51 58
145 119 35 22 66 56 66 71 0 13 -4 14 -24 4 -14 -6 -32 -8 -40 -5 -50 20 39
84 99 73 40 -8 91 -62 124 -130 32 -66 27 -193 -13 -280 -72 -161 -75 -329 -6
-426 12 -17 44 -42 71 -55 l49 -25 -25 -57 c-32 -71 -35 -74 -35 -34 0 18 -5
41 -10 52 -14 25 -184 139 -208 139 -24 0 -42 -19 -42 -46 0 -38 -19 -37 -26
1 -8 46 11 93 43 101 13 4 43 -1 65 -10 23 -9 44 -13 47 -11 3 3 5 21 5 39 0
42 -28 85 -65 99 -15 6 -29 20 -31 31 -4 25 -26 33 -34 11 -4 -10 2 -29 15
-46 12 -16 17 -29 12 -29 -9 0 -20 13 -71 80 -17 22 -19 23 -25 7 -19 -46 41
-107 104 -107 20 0 34 -7 41 -19 14 -27 13 -36 -4 -22 -25 21 -87 9 -109 -21
-33 -44 -35 -125 -4 -191 31 -68 67 -95 103 -79 37 18 51 55 30 87 -23 35 -45
33 -44 -6 1 -37 -21 -56 -39 -33 -13 18 -1 65 23 85 30 25 110 -25 155 -97 21
-34 21 -36 4 -110 -11 -50 -14 -92 -10 -125 6 -43 4 -51 -15 -67 -21 -17 -22
-21 -9 -48 9 -18 22 -29 34 -29 26 0 43 62 45 170 1 63 4 74 10 51 5 -16 28
-49 51 -72 32 -33 54 -46 93 -54 63 -14 108 -48 135 -103 41 -84 21 -135 -59
-157 -36 -10 -45 -9 -61 6 -26 23 -44 81 -30 98 24 29 -26 36 -52 8 -15 -17
-15 -22 4 -73 28 -76 51 -93 117 -86 69 7 112 33 136 81 49 99 -53 250 -184
271 -33 6 -55 18 -82 45 -52 52 -51 86 3 145 23 25 38 45 33 45 -21 0 76 84
119 102 52 23 107 78 107 108 0 21 -15 27 -25 10 -4 -6 -30 -24 -58 -40 -39
-23 -65 -30 -104 -30 -47 0 -58 4 -93 36 -48 43 -80 123 -80 197 0 39 10 78
37 143 37 86 38 93 38 209 0 106 -3 127 -26 182 -56 133 -129 180 -215 137z"/>
<path d="M2119 4461 c-17 -18 -29 -35 -25 -38 4 -4 24 -6 45 -5 32 2 43 -2 65
-28 22 -27 26 -41 26 -94 0 -87 -15 -106 -86 -106 -59 0 -69 -13 -34 -45 15
-14 30 -16 66 -12 84 9 134 70 134 162 0 109 -45 182 -117 192 -38 5 -45 2
-74 -26z"/>
<path d="M2555 4056 c-20 -109 -12 -150 32 -167 34 -13 40 -12 63 11 22 22 25
37 11 59 -8 12 -13 11 -30 -10 -33 -40 -46 -14 -46 96 0 51 -3 96 -6 100 -4 3
-15 -37 -24 -89z"/>
<path d="M2628 4039 c-31 -17 -22 -39 16 -39 35 0 63 21 51 40 -8 13 -45 13
-67 -1z"/>
<path d="M2626 3659 c-2 -8 -7 -26 -10 -41 -6 -24 -11 -28 -41 -28 -24 0 -35
-5 -35 -15 0 -16 42 -30 64 -22 8 3 26 -3 39 -14 14 -10 32 -19 40 -19 20 0
57 47 57 71 0 28 -16 31 -30 4 -7 -14 -19 -25 -27 -25 -7 0 -16 -1 -19 -2 -3
-2 -7 17 -9 41 -4 46 -21 76 -29 50z"/>
<path d="M2523 3355 c-30 -13 -33 -18 -33 -56 l0 -41 29 31 c16 17 38 31 49
31 28 0 52 -37 52 -77 0 -26 4 -33 20 -33 28 0 54 43 46 76 -4 15 -20 39 -36
55 -32 33 -74 37 -127 14z"/>
<path d="M2721 3086 c-18 -21 -5 -36 29 -36 20 0 33 -7 41 -21 7 -15 14 -18
21 -11 7 7 5 21 -9 44 -21 37 -62 49 -82 24z"/>
<path d="M2823 2630 c-34 -14 -28 -21 7 -9 17 6 30 13 30 15 0 6 -12 4 -37 -6z"/>
<path d="M6477 4663 c-8 -10 -18 -31 -22 -48 l-6 -30 17 30 c9 17 23 38 32 48
8 9 11 17 5 17 -5 0 -17 -8 -26 -17z"/>
<path d="M6501 4596 c-8 -9 -11 -19 -7 -23 9 -9 29 13 24 27 -2 8 -8 7 -17 -4z"/>
<path d="M6610 4594 c0 -9 41 -74 46 -74 2 0 -5 18 -16 40 -19 37 -30 49 -30
34z"/>
<path d="M6641 4461 c26 -35 29 -37 29 -17 0 7 -12 21 -26 31 l-26 17 23 -31z"/>
<path d="M6700 4370 c-11 -7 -7 -10 17 -10 17 0 39 -7 47 -16 9 -8 16 -11 16
-6 0 24 -57 47 -80 32z"/>
<path d="M6640 4349 c0 -24 61 -89 84 -89 8 0 20 9 26 19 8 17 6 20 -19 26
-17 3 -40 19 -53 36 -27 34 -38 37 -38 8z"/>
<path d="M5271 4211 c-20 -20 -38 -67 -29 -76 3 -3 19 13 37 36 23 27 30 44
23 51 -7 7 -17 3 -31 -11z"/>
<path d="M5165 4149 c-4 -5 0 -18 8 -27 8 -9 17 -24 19 -32 4 -11 9 -7 19 14
12 25 11 30 -6 42 -23 17 -32 18 -40 3z"/>
<path d="M4852 3918 c-28 -28 -4 -91 38 -99 58 -11 145 46 119 77 -16 20 -32
17 -47 -6 -8 -13 -23 -20 -41 -20 -25 0 -31 5 -36 30 -7 33 -14 37 -33 18z"/>
<path d="M4737 3774 c-13 -14 -7 -51 14 -78 21 -26 53 -34 64 -16 10 17 25 11
25 -10 0 -24 9 -25 36 -6 31 24 7 50 -50 54 -25 2 -46 6 -46 10 -1 15 -36 53
-43 46z"/>
<path d="M5125 3723 c-94 -102 92 -361 314 -439 169 -60 333 -2 355 126 17
104 -62 210 -159 210 -108 0 -162 -112 -81 -165 29 -19 61 -8 71 26 9 27 1 33
-24 19 -26 -13 -41 -6 -41 21 0 26 61 53 102 44 36 -8 68 -57 68 -103 0 -98
-84 -136 -235 -107 -182 35 -317 178 -318 338 0 66 -12 72 -52 30z"/>
<path d="M4781 3611 c-41 -41 -17 -112 51 -147 24 -12 47 -14 113 -9 l83 7 30
-64 c42 -87 85 -143 138 -181 50 -35 48 -37 -38 -51 -20 -4 -51 -20 -68 -36
-31 -29 -32 -33 -28 -95 3 -51 9 -70 28 -91 56 -59 133 -72 175 -29 65 65 -14
168 -96 125 -10 -6 -19 -17 -19 -25 0 -20 19 -19 26 0 4 8 10 15 15 15 15 0
40 -47 33 -64 -9 -22 -66 -21 -87 2 -19 21 -22 74 -6 104 14 26 85 58 132 58
24 0 37 5 37 14 0 9 14 6 53 -12 42 -21 73 -27 167 -32 146 -8 211 -38 195
-90 -7 -21 -16 -22 -57 -5 -11 4 -20 0 -28 -15 -18 -34 1 -47 57 -41 38 5 50
11 60 31 21 42 15 77 -19 116 -42 48 -83 64 -162 64 -77 0 -187 33 -296 89
-97 49 -159 122 -184 215 l-18 64 -91 -4 c-109 -6 -138 5 -148 55 -10 48 -23
57 -48 32z m549 -427 c0 -10 -36 16 -60 42 -23 26 -22 25 18 -5 23 -18 42 -35
42 -37z m76 -42 c-5 -4 -66 26 -66 33 0 3 16 -3 35 -12 19 -9 33 -18 31 -21z"/>
<path d="M4823 3413 c-23 -9 -15 -72 11 -98 21 -21 29 -23 51 -15 26 10 26 9
20 -19 -7 -34 17 -98 40 -107 26 -10 30 4 12 41 -25 53 -21 84 15 122 29 30
31 35 17 48 -14 14 -18 14 -41 -5 -26 -20 -45 -25 -82 -22 -14 2 -17 8 -14 32
4 29 -2 34 -29 23z"/>
<path d="M5491 3053 c-58 -70 -35 -137 55 -162 19 -5 46 -24 61 -41 24 -30 30
-32 72 -27 36 4 52 13 78 41 29 32 43 66 27 66 -3 0 -19 -13 -34 -30 -38 -41
-86 -41 -121 -1 -15 17 -39 33 -55 37 -40 9 -64 32 -64 61 0 30 25 40 49 19
23 -21 28 -20 34 4 3 14 -4 28 -25 45 -16 14 -33 25 -38 25 -5 0 -22 -17 -39
-37z"/>
<path d="M5260 2880 c0 -5 -8 -7 -17 -4 -11 4 -14 2 -8 -3 6 -4 17 -21 25 -37
8 -16 35 -40 59 -53 24 -13 39 -23 33 -23 -22 0 -12 -30 11 -35 23 -5 53 -2
61 6 7 7 -93 111 -121 126 -19 10 -23 9 -23 -3 0 -8 -5 -14 -10 -14 -6 0 -8
11 -4 25 3 14 3 25 0 25 -3 0 -6 -4 -6 -10z"/>
<path d="M5436 2721 c-4 -6 -18 -11 -32 -11 -32 0 -30 -10 6 -45 32 -31 41
-56 13 -34 -16 11 -16 11 -5 -1 7 -8 18 -15 25 -15 6 0 16 -17 22 -37 6 -21
18 -47 28 -58 9 -11 14 -20 11 -20 -2 0 6 -19 19 -42 14 -24 30 -65 36 -93 7
-27 16 -54 20 -60 5 -5 11 -23 15 -39 9 -35 52 -101 120 -181 28 -33 53 -62
56 -65 13 -11 52 -71 54 -83 3 -18 36 -80 54 -100 8 -9 12 -20 9 -23 -3 -4 -1
-16 4 -27 6 -11 12 -29 14 -41 19 -134 26 -151 39 -91 7 30 9 97 6 170 -6 112
-8 124 -39 180 -34 62 -63 103 -100 142 -12 12 -21 25 -21 28 0 4 -19 23 -41
43 -52 46 -65 76 -80 186 l-12 88 -61 59 c-33 32 -63 59 -68 59 -4 0 -8 7 -8
15 0 8 -4 15 -10 15 -5 0 -10 7 -10 15 0 8 -4 15 -9 15 -5 0 -18 14 -29 31
-12 19 -22 27 -26 20z"/>
<path d="M6229 1534 c-80 -24 -134 -107 -123 -186 12 -78 25 -107 68 -146 75
-69 152 -74 221 -13 23 20 46 31 65 31 23 0 33 7 45 30 46 88 -16 211 -132
262 -82 37 -92 38 -144 22z m164 -69 c31 -31 37 -61 22 -105 -8 -24 -19 -36
-33 -38 -12 -2 -23 1 -23 7 -1 6 -2 17 -3 24 -1 6 -9 11 -19 9 -19 -3 -58 15
-69 32 -12 18 -9 84 5 89 6 3 31 6 53 6 31 1 47 -5 67 -24z"/>
<path d="M7977 8920 c3 -58 7 -107 9 -109 7 -8 2 124 -6 169 -5 30 -6 10 -3
-60z"/>
<path d="M8422 8893 c-53 -163 -139 -258 -282 -314 -25 -10 -40 -18 -33 -19
29 -1 122 43 165 78 75 59 121 128 157 237 18 53 31 101 29 106 -2 6 -18 -34
-36 -88z"/>
<path d="M4289 8485 c-55 -20 -114 -52 -128 -69 -8 -9 12 -1 43 18 77 46 139
60 250 54 50 -3 80 -2 66 3 -41 12 -192 9 -231 -6z"/>
<path d="M4081 8337 c-14 -18 -41 -83 -41 -99 1 -7 9 9 20 35 10 27 24 55 30
63 7 8 10 14 7 14 -2 0 -10 -6 -16 -13z"/>
<path d="M4069 8235 c-11 -25 -19 -54 -17 -64 2 -10 12 10 24 45 11 35 19 64
17 64 -2 0 -13 -20 -24 -45z"/>
<path d="M6995 7775 c-22 -8 -41 -15 -42 -15 -1 0 -10 -14 -19 -31 -19 -39 -8
-54 30 -39 39 14 122 12 154 -4 43 -23 99 -87 137 -156 l35 -65 0 60 c-1 36
-7 75 -18 97 -16 34 -110 126 -150 147 -34 17 -87 20 -127 6z"/>
<path d="M6680 7657 c0 -10 6 -33 14 -51 11 -26 11 -37 3 -46 -9 -9 -1 -22 36
-55 26 -24 47 -46 47 -49 0 -3 -16 -6 -35 -6 -44 0 -47 -24 -7 -47 19 -11 41
-44 69 -102 63 -131 130 -170 265 -156 58 6 114 -9 148 -40 13 -12 15 -5 12
68 -1 45 -7 101 -12 124 -6 23 -7 49 -4 58 8 19 -21 98 -42 115 -20 17 -18 3
5 -28 10 -15 21 -43 25 -62 7 -40 9 -41 -55 59 -45 71 -80 89 -205 105 -86 11
-97 15 -130 46 l-37 35 6 -32 c4 -18 3 -33 -1 -33 -15 1 -61 46 -81 80 -14 23
-21 29 -21 17z m304 -206 c-48 -29 -77 -77 -82 -136 -4 -47 -1 -55 27 -87 23
-26 45 -39 81 -48 62 -15 90 -8 134 30 37 33 46 27 46 -28 l0 -27 -87 3 c-49
2 -105 8 -126 13 -41 11 -98 62 -123 111 -23 44 -23 128 -1 161 16 25 23 27
90 27 l72 0 -31 -19z m156 -82 c7 -11 9 -23 6 -26 -10 -11 -56 16 -56 32 0 22
38 18 50 -6z m-50 -79 c0 -17 -43 -29 -58 -17 -11 9 -11 12 5 18 27 11 53 10
53 -1z"/>
<path d="M7791 7392 c0 -13 -5 -21 -10 -18 -21 13 -64 -170 -52 -224 7 -32 8
-29 13 30 3 37 17 93 32 129 15 34 25 73 23 85 -4 20 -4 20 -6 -2z"/>
<path d="M7741 7100 c0 -8 4 -24 9 -35 5 -13 9 -14 9 -5 0 8 -4 24 -9 35 -5
13 -9 14 -9 5z"/>
<path d="M7776 6990 c3 -14 11 -32 16 -40 6 -10 7 -7 2 10 -3 14 -11 32 -16
40 -6 10 -7 7 -2 -10z"/>
<path d="M7801 6925 c0 -5 6 -21 14 -35 8 -14 14 -20 14 -15 0 6 -6 21 -14 35
-8 14 -14 21 -14 15z"/>
<path d="M7830 6854 c0 -11 69 -124 76 -124 3 0 -7 21 -22 48 -38 66 -54 88
-54 76z"/>
<path d="M7963 6652 c33 -40 73 -74 112 -95 17 -8 46 -31 65 -51 31 -33 35
-43 40 -114 l7 -77 1 65 c3 89 -17 124 -98 177 -35 24 -84 62 -109 85 -35 34
-39 36 -18 10z"/>
<path d="M7531 6434 c-14 -18 -21 -41 -21 -71 0 -37 5 -50 31 -74 31 -29 83
-49 130 -49 14 0 41 -11 60 -24 40 -29 109 -67 109 -62 0 3 -6 11 -12 18 -7 8
-22 25 -33 38 l-20 25 21 -17 c11 -10 26 -18 33 -18 7 0 10 -4 7 -9 -3 -5 1
-14 9 -21 25 -21 29 13 7 62 -11 23 -22 56 -26 72 -11 46 -67 96 -108 96 -40
0 -76 -23 -89 -57 -8 -22 -5 -30 23 -54 29 -27 30 -29 9 -29 -27 0 -90 26
-113 47 -23 21 -24 100 -2 131 21 31 10 28 -15 -4z"/>
<path d="M7283 6250 c27 -101 54 -154 104 -204 52 -52 72 -56 33 -6 -11 14
-20 31 -20 38 0 6 -4 12 -8 12 -4 0 -16 22 -26 49 -16 44 -93 147 -83 111z"/>
<path d="M7555 5909 c12 -27 67 -62 113 -71 77 -15 183 4 221 40 11 10 7 12
-20 7 -19 -4 -52 -10 -74 -14 -58 -10 -177 6 -192 26 -7 9 -16 14 -19 10 -4
-4 -13 -2 -21 5 -10 8 -12 8 -8 -3z"/>
<path d="M3895 5510 c22 -10 56 -21 75 -24 19 -3 4 5 -35 18 -82 29 -95 31
-40 6z"/>
<path d="M3291 4733 c-17 -20 -35 -49 -40 -64 -13 -39 14 -89 62 -112 37 -19
38 -19 83 5 41 20 49 30 65 78 10 30 18 56 19 57 0 1 -13 4 -29 8 -17 3 -48
20 -70 36 -23 16 -45 29 -50 29 -5 0 -23 -17 -40 -37z"/>
<path d="M8640 3028 c0 -45 -24 -91 -56 -110 -29 -17 -33 -24 -28 -46 11 -46
26 -61 19 -21 -5 32 -1 40 35 76 32 33 40 48 40 77 0 20 -2 36 -5 36 -3 0 -5
-6 -5 -12z"/>
</g>
</svg>
