<?xml version="1.0" standalone="no"?>
<!DOCTYPE svg PUBLIC "-//W3C//DTD SVG 20010904//EN"
 "http://www.w3.org/TR/2001/REC-SVG-20010904/DTD/svg10.dtd">
<svg version="1.0" xmlns="http://www.w3.org/2000/svg"
 width="1024.000000pt" height="1024.000000pt" viewBox="0 0 1024.000000 1024.000000"
 preserveAspectRatio="xMidYMid meet">
<metadata>
Created by potrace 1.16, written by Peter Selinger 2001-2019
</metadata>
<g transform="translate(0.000000,1024.000000) scale(0.100000,-0.100000)"
fill="currentColor" stroke="currentColor">
<path d="M4491 10073 c-16 -31 -33 -106 -40 -178 l-7 -70 -18 43 c-21 49 -33
53 -42 15 -3 -16 -12 -50 -20 -77 -8 -27 -14 -75 -14 -105 0 -31 -7 -83 -15
-116 -8 -33 -14 -86 -15 -118 0 -64 17 -147 31 -147 24 0 3 -22 -50 -55 -33
-19 -62 -41 -64 -48 -3 -6 -6 0 -6 16 -1 39 -21 34 -21 -5 0 -18 -11 -55 -24
-83 l-24 -50 -1 35 c0 19 8 67 19 105 10 39 16 72 14 74 -9 9 -22 -16 -38 -71
-9 -31 -21 -60 -26 -63 -16 -10 -11 54 6 81 19 28 9 48 -10 21 -18 -24 -24
-22 -33 13 -4 17 -12 31 -18 31 -5 1 -30 -35 -55 -79 -71 -126 -69 -125 -107
-110 -18 7 -35 10 -38 6 -3 -3 -14 -28 -24 -57 -15 -44 -20 -49 -30 -37 -11
12 -10 26 0 68 7 29 13 54 14 55 0 1 26 -5 58 -12 31 -7 57 -9 57 -5 0 10 -18
16 -72 26 -42 7 -52 17 -62 56 -4 19 -11 26 -21 22 -8 -4 -15 -2 -15 2 0 5
-11 22 -23 38 -18 23 -36 31 -78 38 -169 27 -227 20 -302 -37 -46 -35 -72 -87
-79 -160 -2 -18 -8 -29 -15 -28 -7 2 -13 -3 -13 -11 0 -8 -6 -16 -14 -19 -22
-9 -39 41 -44 133 l-5 85 -14 -40 c-8 -22 -13 -70 -12 -107 1 -40 -3 -73 -10
-81 -9 -12 -7 -13 12 -10 15 3 30 -4 46 -21 29 -31 34 -65 13 -88 -8 -10 -10
-18 -5 -18 6 0 16 7 23 15 15 18 91 20 107 4 16 -16 5 -70 -19 -91 -17 -15
-19 -25 -13 -68 8 -61 -4 -65 -77 -20 -56 35 -58 35 -58 15 0 -8 -5 -15 -12
-15 -6 0 -4 -8 6 -19 13 -14 16 -33 14 -77 -3 -65 -2 -64 -113 -79 l-50 -7 53
-49 53 -48 -53 0 c-36 1 -75 -8 -117 -25 -35 -14 -79 -28 -97 -32 -19 -3 -34
-11 -34 -17 0 -17 81 -87 139 -120 l54 -30 -42 -13 c-57 -17 -171 -66 -171
-73 0 -4 18 -17 40 -31 49 -30 52 -44 5 -24 -52 21 -132 18 -189 -9 l-49 -23
-34 67 c-37 74 -89 127 -134 136 -22 4 -29 11 -29 29 0 27 -27 57 -43 47 -8
-5 -6 -9 6 -11 29 -6 21 -61 -18 -120 -39 -58 -46 -63 -38 -29 8 30 3 24 -111
-126 -53 -71 -94 -132 -91 -137 3 -4 -13 -32 -35 -61 -22 -30 -40 -58 -41 -64
-1 -5 -2 -23 -4 -40 -1 -16 -9 -45 -16 -62 -11 -25 -17 -30 -29 -23 -11 7 -15
27 -15 72 0 58 5 71 50 151 54 94 82 119 39 35 -26 -51 -56 -139 -50 -145 2
-2 9 11 15 29 25 68 55 125 106 208 28 47 60 101 69 120 l17 35 -29 -32 c-16
-18 -31 -33 -35 -33 -3 0 -5 40 -5 88 2 98 -16 150 -63 185 -26 19 -28 19 -57
2 -17 -10 -40 -35 -51 -56 -20 -36 -24 -37 -49 -28 -34 14 -119 13 -153 -2
-51 -20 -59 -94 -23 -196 15 -41 15 -41 -20 -88 -20 -26 -36 -57 -36 -69 0
-68 168 -128 215 -76 21 23 53 26 61 6 3 -7 -2 -39 -11 -70 -19 -66 -13 -126
16 -152 34 -31 66 -9 135 94 34 51 64 97 66 103 4 13 109 -35 133 -61 10 -11
14 -20 9 -20 -5 0 -11 -11 -12 -25 -2 -29 24 -35 31 -7 4 13 5 11 6 -5 0 -13
-4 -23 -11 -23 -6 0 -9 -3 -6 -6 4 -3 15 -1 26 5 15 8 21 7 25 -3 4 -10 -22
-16 -112 -24 -143 -14 -199 -34 -262 -90 -57 -51 -85 -113 -74 -169 18 -97 98
-198 219 -279 45 -29 103 -78 129 -109 54 -61 124 -110 237 -164 70 -34 82
-36 170 -36 69 0 108 5 143 19 l49 18 34 -33 c36 -35 44 -59 20 -59 -8 0 -17
-4 -20 -8 -9 -15 55 -92 93 -112 20 -10 29 -19 20 -20 -9 0 -36 15 -60 33 -91
70 -261 100 -378 68 -87 -25 -180 -143 -196 -252 -7 -50 15 -172 39 -216 l16
-28 -6 30 c-4 17 19 -22 51 -85 31 -63 76 -144 100 -180 55 -82 159 -181 224
-214 27 -14 52 -30 56 -36 4 -6 10 -8 14 -6 4 3 38 -7 77 -21 81 -30 236 -42
324 -24 97 19 158 39 187 60 15 11 40 23 55 26 l26 7 -10 -44 c-5 -24 -7 -82
-4 -131 l7 -88 -44 -19 c-74 -33 -219 -53 -326 -45 -314 22 -566 184 -774 496
-84 126 -138 239 -174 364 -16 58 -21 67 -17 35 8 -60 56 -206 93 -278 85
-168 236 -351 376 -455 175 -130 334 -182 560 -181 131 0 233 18 281 49 18 12
23 11 37 -2 15 -15 23 -14 94 20 43 19 95 42 116 51 l37 15 0 -62 c1 -57 9
-111 25 -162 5 -16 -10 -33 -76 -85 -97 -78 -102 -87 -134 -224 l-6 -29 -23
22 c-14 13 -37 22 -62 23 -37 1 -38 1 -6 5 31 4 33 7 30 36 -2 24 -8 33 -25
35 -12 2 -27 10 -34 18 -9 11 -8 19 7 36 l19 21 -48 -6 c-38 -5 -57 -2 -90 15
-29 14 -62 21 -105 22 -50 1 -63 4 -68 18 -8 25 -52 34 -83 17 -30 -17 -41
-52 -29 -94 6 -23 3 -41 -13 -76 -20 -45 -22 -46 -49 -36 -19 7 -35 25 -47 51
-46 103 -110 154 -240 191 -52 15 -78 29 -90 46 -30 44 -88 101 -123 119 -89
45 -200 48 -305 8 l-55 -21 -46 43 c-84 78 -179 103 -285 76 -35 -9 -79 -26
-97 -36 -29 -18 -39 -19 -78 -9 -82 21 -228 -2 -320 -49 -66 -34 -151 -118
-180 -177 -23 -49 -30 -55 -58 -55 -47 0 -131 -25 -179 -53 -60 -36 -159 -143
-190 -207 -15 -30 -32 -78 -39 -106 -10 -43 -18 -55 -46 -70 -47 -25 -118
-107 -152 -174 -50 -98 -65 -261 -36 -385 15 -60 15 -60 -17 -124 -28 -58 -31
-73 -32 -160 0 -87 3 -100 27 -143 27 -44 27 -48 14 -86 -38 -107 -27 -223 29
-317 38 -63 75 -98 128 -122 20 -9 37 -23 37 -30 0 -7 9 -36 20 -66 30 -80 79
-131 166 -173 61 -29 78 -43 94 -75 29 -55 74 -104 144 -153 87 -62 163 -88
250 -85 68 2 73 0 106 -31 78 -74 181 -90 289 -46 l59 24 69 -20 c138 -39 269
-5 387 102 45 42 60 50 93 50 84 0 186 86 199 169 5 31 12 40 38 49 85 31 160
141 173 254 3 29 15 64 25 78 37 47 50 95 60 210 16 185 14 248 -10 303 -13
30 -21 67 -21 96 2 82 -53 177 -133 227 -26 16 -47 43 -68 84 -50 98 -102 148
-183 171 -35 10 -77 -5 -77 -27 0 -8 -3 -14 -7 -12 -5 2 -38 19 -75 37 -105
51 -175 43 -242 -28 -22 -23 -39 -31 -65 -31 -116 0 -216 -88 -236 -206 -4
-30 -19 -55 -50 -88 -63 -65 -69 -125 -30 -275 29 -115 75 -155 193 -166 83
-8 102 1 102 47 0 21 11 39 40 67 43 41 51 75 26 120 -17 32 -1 60 52 91 20
12 42 30 49 40 10 14 22 16 61 12 27 -2 58 0 68 6 16 9 21 3 41 -46 12 -32 42
-75 68 -102 l45 -46 -12 -56 c-10 -49 -9 -65 6 -113 10 -31 16 -58 14 -59 -71
-44 -117 -110 -118 -168 0 -17 -15 -44 -39 -71 -21 -25 -41 -57 -45 -71 -5
-22 -12 -26 -44 -26 -55 0 -131 -25 -184 -60 -45 -30 -46 -30 -84 -14 -49 21
-126 21 -182 0 l-44 -16 -25 31 c-33 39 -93 69 -137 69 -29 0 -39 7 -70 49
-40 56 -104 98 -166 109 -41 7 -43 9 -61 66 -22 72 -76 153 -124 185 -35 24
-36 26 -30 70 8 58 -10 170 -37 233 l-20 48 42 85 c37 73 43 94 45 155 l3 71
54 57 c66 70 91 110 114 184 17 57 18 58 73 74 79 23 108 40 171 99 48 46 62
53 110 59 61 8 154 54 194 95 l27 28 62 -14 c80 -19 186 -12 254 17 l52 22 35
-27 c54 -41 128 -65 200 -65 62 0 64 -1 89 -38 32 -45 80 -78 127 -87 28 -5
39 -14 54 -46 22 -48 79 -89 135 -96 36 -5 42 -10 52 -42 19 -58 55 -98 116
-127 52 -24 56 -28 39 -38 -11 -6 -28 -19 -38 -29 -24 -23 -11 -48 42 -82 22
-14 40 -30 40 -37 0 -6 -11 -26 -25 -44 -30 -39 -75 -132 -75 -154 0 -8 17
-35 38 -59 l38 -44 -13 -50 c-11 -45 -11 -54 7 -95 11 -24 20 -64 20 -89 0
-52 21 -76 99 -113 46 -21 52 -27 58 -63 9 -59 53 -103 124 -124 l60 -18 -80
-63 c-77 -60 -152 -145 -199 -223 l-21 -35 30 -37 30 -37 -37 -37 c-33 -33
-48 -39 -127 -54 -123 -24 -242 -32 -299 -21 -47 9 -48 9 -48 -17 0 -27 28
-81 63 -118 16 -18 17 -24 6 -27 -208 -75 -284 -111 -334 -163 -63 -64 -60
-107 7 -118 111 -17 139 -35 104 -64 -19 -16 -54 -91 -78 -166 -11 -33 -22
-106 -25 -162 -5 -92 -4 -103 12 -109 10 -4 27 -2 38 5 18 12 19 11 13 -26 -3
-21 -9 -88 -12 -148 -7 -118 2 -154 47 -198 13 -12 19 -32 19 -61 0 -82 44
-196 101 -261 36 -41 46 -43 51 -12 3 19 7 17 31 -21 44 -68 93 -117 137 -137
38 -17 41 -17 59 -1 14 12 21 14 26 6 11 -17 126 -70 153 -70 12 0 22 -5 22
-10 0 -15 -47 -57 -81 -72 -32 -14 -36 -23 -14 -32 12 -4 13 -10 4 -29 -9 -20
-21 -26 -61 -30 -101 -12 -197 -92 -213 -177 -26 -136 8 -232 105 -296 51 -34
145 -39 167 -9 7 11 12 28 9 38 -3 14 3 17 35 17 22 0 56 7 76 15 20 8 37 14
37 13 12 -23 89 -118 96 -118 4 0 33 -23 63 -50 30 -28 71 -57 91 -65 46 -19
109 -19 146 0 25 13 30 22 30 50 0 27 4 35 18 35 41 0 114 34 151 70 l40 39
54 -27 c29 -15 68 -44 87 -65 92 -105 241 -101 244 7 1 34 6 41 56 74 43 29
62 51 88 101 30 59 38 66 87 87 106 42 193 131 223 224 7 19 10 70 9 112 -3
65 -7 83 -30 115 l-27 38 25 8 c14 5 25 12 25 17 0 10 -140 140 -151 140 -7 0
-2 58 6 68 1 2 19 -5 39 -15 29 -13 39 -15 45 -5 6 10 18 10 50 3 34 -7 43 -6
48 5 3 8 0 21 -7 29 -7 9 -11 17 -9 20 3 2 43 -9 89 -24 223 -74 254 -81 263
-58 4 10 36 16 110 20 57 4 113 9 123 13 18 5 18 5 2 -6 -22 -14 -23 -30 -3
-30 19 0 94 37 118 58 16 15 17 14 11 -1 -3 -9 -10 -17 -15 -17 -5 0 -9 -7 -9
-16 0 -9 6 -14 13 -12 6 3 36 13 66 23 37 12 69 32 100 64 25 25 40 38 32 29
-7 -10 -10 -18 -5 -18 4 0 3 -5 -4 -12 -18 -18 -15 -31 6 -26 19 5 47 -20 47
-42 0 -8 11 -17 25 -21 23 -6 23 -7 3 -8 -28 -1 -38 -17 -18 -29 22 -12 10
-21 -104 -78 -51 -25 -91 -50 -88 -57 2 -6 18 -15 36 -19 l32 -9 -29 -24 c-40
-34 -67 -92 -52 -110 9 -11 6 -22 -15 -49 -36 -47 -65 -127 -65 -177 0 -74 21
-120 86 -189 33 -36 64 -78 68 -94 4 -16 22 -44 41 -63 27 -27 41 -33 74 -33
47 0 91 34 91 69 0 14 9 21 33 26 17 4 52 18 76 31 42 23 61 24 61 3 0 -20 65
-101 92 -115 22 -11 28 -22 28 -48 0 -33 26 -66 63 -79 35 -13 108 14 141 51
42 47 160 161 166 162 3 0 15 -16 27 -35 25 -38 77 -69 136 -79 32 -6 37 -10
37 -35 0 -57 73 -80 135 -42 50 31 125 102 152 143 20 33 27 37 39 27 9 -7 45
-13 82 -13 54 -1 68 -4 74 -18 9 -22 48 -32 94 -24 43 9 108 65 135 118 42 83
33 249 -17 315 -14 19 -48 48 -75 65 -37 23 -49 36 -49 55 0 13 -13 43 -28 66
-32 49 -52 91 -52 113 0 21 99 110 156 140 27 14 61 37 78 51 27 22 31 23 36
8 5 -15 7 -15 19 -2 7 9 21 37 32 64 14 35 19 40 15 18 -2 -16 -8 -38 -11 -47
-5 -12 -2 -18 8 -18 22 0 82 71 106 125 21 48 51 186 51 236 0 18 5 29 13 29
8 0 22 9 32 20 14 15 22 17 37 9 11 -6 47 -11 80 -11 73 0 149 35 210 96 36
36 51 44 95 49 88 10 175 67 225 148 17 29 46 58 74 74 40 24 124 115 124 135
0 5 15 14 34 20 58 19 121 74 149 132 50 100 96 213 106 260 6 26 30 75 55
110 79 115 119 242 115 373 -2 66 1 86 19 115 50 82 76 205 61 283 -4 26 -20
73 -35 104 -26 56 -26 60 -15 144 21 163 10 246 -41 317 -29 41 -31 49 -29
126 2 99 -19 211 -54 283 -26 52 -106 133 -131 133 -7 0 -18 19 -24 43 -27
105 -63 171 -130 238 -55 55 -70 77 -93 140 -40 110 -112 207 -181 246 -9 5
-23 35 -31 67 -8 32 -27 77 -41 101 -25 43 -98 118 -123 126 -8 3 -17 29 -22
59 -11 68 -54 153 -96 190 -26 23 -33 37 -33 64 0 42 -26 124 -47 148 -10 11
-14 29 -10 50 2 18 0 61 -5 96 -9 56 -7 70 11 112 12 27 25 76 29 110 10 68
16 75 107 119 152 75 251 64 243 -27 -2 -29 -10 -41 -37 -59 -39 -26 -31 -28
59 -8 52 11 71 21 97 48 55 61 53 169 -5 246 l-25 34 57 -6 c106 -11 234 -88
287 -173 12 -20 24 -32 28 -29 3 4 11 30 17 58 l11 52 27 -58 c60 -125 58
-252 -4 -384 -38 -82 -72 -129 -114 -154 -23 -14 -26 -19 -12 -19 10 0 34 9
52 21 40 25 43 19 9 -25 -38 -50 -55 -100 -55 -166 0 -99 36 -161 129 -221 35
-22 57 -29 95 -29 72 0 90 14 44 33 -40 17 -61 47 -56 80 4 31 46 33 130 6 66
-21 70 -21 112 -5 25 9 63 31 87 49 23 18 51 39 62 47 l21 15 -19 -34 c-40
-69 -104 -129 -158 -149 l-52 -20 35 -14 35 -15 55 60 c123 135 133 153 196
362 32 107 47 245 26 245 -9 0 -13 -16 -14 -62 -1 -20 -6 -28 -18 -28 -25 0
-39 -21 -29 -45 7 -18 8 -17 8 7 1 41 31 25 31 -16 0 -51 -35 -163 -64 -205
-47 -68 -147 -156 -200 -176 l-49 -19 -73 25 c-61 21 -78 24 -106 15 -48 -16
-51 -61 -6 -112 l33 -37 -40 7 c-79 15 -161 80 -192 153 -21 51 -16 131 11
188 13 28 48 78 79 113 62 71 118 173 136 245 22 90 51 272 51 317 0 60 -35
132 -104 213 -31 37 -56 69 -56 72 0 11 37 -14 88 -60 62 -56 188 -225 168
-225 -3 0 -13 15 -22 33 -26 48 -27 19 -3 -48 11 -33 25 -87 30 -120 5 -33 13
-82 19 -110 12 -60 15 -154 6 -183 -4 -11 -2 -23 3 -27 7 -3 8 0 5 10 -4 11
-2 14 9 9 12 -4 18 5 25 38 7 30 10 35 11 17 2 -43 -19 -90 -71 -164 l-49 -70
55 57 c39 41 62 76 78 120 22 61 23 62 26 29 3 -25 6 -31 13 -20 5 8 9 9 9 3
0 -5 -9 -20 -20 -32 -11 -12 -20 -28 -20 -37 0 -9 -6 -26 -14 -38 -13 -19 -13
-25 0 -41 8 -11 14 -16 14 -10 0 5 5 1 11 -9 14 -24 3 -40 -21 -27 -13 7 -19
6 -24 -5 -3 -8 -2 -14 2 -14 22 4 24 -3 4 -17 -15 -10 -21 -22 -17 -32 3 -9
-3 -24 -17 -37 -13 -11 -34 -34 -48 -49 l-25 -30 33 23 c35 25 104 106 127
151 8 15 10 32 5 40 -4 7 -3 24 3 39 17 40 26 46 23 17 -5 -42 14 -15 21 30 3
21 11 42 16 46 6 4 11 58 12 130 1 68 3 125 4 127 0 2 7 -2 15 -8 8 -6 19 -10
26 -9 7 2 14 -6 16 -16 8 -50 15 -65 28 -60 8 3 12 13 9 25 -4 12 1 25 12 32
16 12 16 17 0 69 -9 31 -27 68 -40 83 -14 14 -25 31 -25 38 0 7 8 3 17 -8 14
-18 15 -18 9 -2 -3 10 -6 21 -6 23 0 2 -7 4 -15 4 -8 0 -12 6 -9 14 3 8 -13
43 -36 78 -23 35 -39 54 -35 43 15 -43 43 -160 39 -164 -10 -11 -32 11 -38 39
-9 49 -95 186 -153 246 -59 62 -78 71 -38 19 25 -34 21 -32 -69 29 -99 66
-206 111 -339 143 -86 21 -300 24 -319 5 -9 -9 -2 -12 32 -12 62 0 234 -26
255 -38 31 -17 -65 -24 -161 -11 -49 6 -120 9 -159 5 -119 -11 -276 -67 -332
-119 -32 -29 -39 -14 -13 27 36 59 140 145 225 187 131 64 184 74 395 74 163
0 194 -3 264 -23 278 -80 469 -243 587 -498 21 -46 46 -111 54 -146 21 -80 63
-268 65 -288 3 -27 18 34 19 76 2 72 -80 306 -152 434 -31 57 -100 149 -155
210 -18 19 -32 38 -32 43 0 4 -5 5 -12 1 -7 -4 -8 -3 -4 4 4 8 0 12 -11 12
-10 0 -29 9 -43 20 -27 21 -24 25 12 11 13 -5 28 -10 33 -12 6 -2 20 -16 33
-31 15 -17 29 -25 40 -22 14 5 15 4 2 -5 -8 -6 -10 -11 -5 -11 6 0 16 5 23 12
10 10 19 6 42 -17 73 -74 93 -91 82 -69 -21 39 -165 164 -242 209 -66 38 -164
81 -322 139 -70 26 -61 40 20 32 146 -15 362 -68 427 -105 52 -30 74 -34 42
-8 -111 92 -396 167 -639 167 -99 0 -284 -22 -373 -45 -83 -21 -254 -106 -326
-160 -108 -84 -241 -249 -284 -353 l-24 -57 5 93 c13 275 12 270 40 334 88
201 258 370 549 543 83 50 162 99 177 111 47 37 78 93 78 141 0 41 2 44 23 38
82 -25 137 -107 137 -204 -1 -102 -56 -185 -165 -246 -72 -40 -82 -50 -54 -52
11 -1 19 5 19 14 0 9 6 13 15 9 8 -3 15 -2 15 3 0 10 137 54 225 72 88 19 293
16 400 -6 122 -24 239 -25 261 -4 20 20 15 37 -31 114 -20 32 -33 60 -30 63 3
3 42 -8 86 -25 45 -18 78 -28 73 -23 -13 13 -141 60 -164 60 -24 0 -26 -22 -4
-41 19 -16 64 -102 64 -123 0 -33 -111 -33 -305 -1 -113 19 -304 15 -413 -9
l-63 -14 16 22 c73 99 87 222 36 312 -31 54 -71 80 -137 91 -34 6 -35 5 -23
-20 30 -65 -24 -143 -150 -216 -39 -23 -102 -59 -140 -81 -158 -91 -305 -215
-398 -337 -46 -60 -61 -73 -84 -73 -44 0 -75 -16 -118 -60 -49 -51 -130 -207
-165 -319 -22 -71 -34 -91 -67 -119 -21 -18 -50 -52 -64 -75 -56 -97 -72 -296
-35 -443 l21 -80 -26 -57 c-40 -92 -32 -148 36 -254 l42 -64 1 -107 c1 -124
15 -160 95 -246 38 -41 50 -63 60 -109 28 -129 136 -284 223 -320 28 -12 37
-22 42 -50 10 -52 74 -144 150 -214 37 -35 70 -63 74 -63 5 0 13 -26 20 -59
19 -89 66 -174 127 -228 42 -38 55 -56 60 -88 9 -53 43 -161 62 -200 9 -16 29
-47 46 -69 29 -37 31 -42 32 -145 1 -93 5 -114 29 -167 l27 -60 -25 -76 c-27
-80 -33 -159 -17 -215 6 -21 6 -35 0 -39 -22 -13 -69 -127 -79 -189 -9 -56
-16 -71 -45 -96 -39 -34 -58 -89 -53 -151 2 -37 0 -41 -32 -55 -62 -26 -126
-102 -139 -166 -5 -24 -14 -33 -44 -43 -45 -16 -85 -46 -108 -81 -13 -19 -26
-26 -57 -27 -45 -2 -111 -42 -137 -83 l-17 -25 -48 81 c-26 44 -66 102 -89
127 -23 26 -41 50 -41 53 0 4 19 12 43 18 63 17 97 47 97 88 0 18 -6 38 -14
44 -8 7 -54 23 -103 36 -48 13 -140 45 -203 71 -63 25 -142 57 -175 70 l-60
25 45 -6 c25 -3 55 -13 67 -21 31 -19 36 -18 23 9 l-11 22 20 -23 c11 -12 21
-28 24 -35 2 -6 8 -8 13 -4 5 5 -1 26 -14 47 -12 21 -22 41 -22 44 0 4 14 6
30 6 40 0 46 18 25 79 -18 55 -158 284 -208 341 l-31 35 40 6 c87 13 184 73
184 113 0 14 13 28 38 41 31 17 37 25 36 52 -2 28 2 32 34 38 49 9 112 42 112
59 0 38 -22 122 -37 138 -9 10 -14 19 -12 21 2 1 22 11 44 21 22 9 51 25 65
34 14 9 37 15 53 13 18 -2 29 3 34 15 10 25 -43 177 -83 235 -19 28 -34 53
-34 55 0 2 9 4 20 4 27 0 68 20 74 37 4 10 -26 49 -80 106 -121 128 -134 151
-149 253 -14 94 -31 127 -116 220 -62 68 -66 78 -74 195 -4 52 -11 109 -17
127 -16 54 -65 101 -149 143 -77 38 -78 39 -72 72 4 27 -2 42 -40 93 -91 120
-196 195 -315 224 -45 12 -47 14 -56 71 -6 33 -36 86 -84 147 -10 13 -36 29
-57 36 -39 13 -65 44 -65 78 0 9 23 29 54 47 30 17 66 45 79 63 30 40 50 107
45 157 -3 34 -1 36 27 39 17 2 58 -1 90 -7 33 -5 64 -5 69 -1 12 12 -53 147
-81 169 -23 19 -22 19 57 31 44 7 103 10 129 6 l50 -6 -11 37 c-15 54 -34 88
-74 133 l-34 38 52 31 c29 17 67 42 83 56 40 33 29 49 -71 100 l-79 40 55 6
c67 7 184 63 263 124 110 87 202 233 253 400 24 82 27 105 27 255 1 191 -15
274 -86 450 -66 165 -120 251 -226 359 -51 53 -73 72 -50 44 152 -182 219
-296 283 -480 49 -141 66 -235 66 -355 0 -119 -12 -206 -41 -292 -58 -173
-152 -304 -279 -391 -80 -54 -198 -99 -246 -93 l-29 3 43 30 c59 42 54 66 -18
83 -129 31 -129 31 -125 55 3 12 14 61 26 109 25 105 23 120 -21 108 -18 -5
-39 -15 -47 -22 -14 -11 -15 -9 -10 17 3 17 9 59 13 94 l6 63 -33 -7 c-19 -4
-44 -9 -57 -12 l-23 -5 27 58 c35 78 65 184 58 206 -5 17 -7 16 -33 -3 -15
-11 -63 -31 -107 -44 -43 -13 -87 -26 -96 -30 -15 -6 -18 -1 -18 31 0 41 9 43
12 2 1 -16 7 -24 15 -21 7 3 10 9 7 14 -3 5 0 8 7 7 7 -2 16 13 22 35 11 44 0
227 -14 227 -5 0 -9 7 -9 15 0 8 5 15 10 15 6 0 10 -7 10 -15 0 -8 5 -15 10
-15 6 0 10 18 10 40 0 30 3 38 14 34 9 -3 17 3 21 18 4 13 24 39 45 58 21 19
45 50 54 68 9 18 28 38 41 44 14 6 25 17 25 23 0 19 47 24 70 8 15 -11 35 -13
75 -8 47 6 55 5 55 -9 0 -12 10 -16 40 -16 22 0 40 5 40 10 0 6 -4 10 -9 10
-29 0 -19 86 11 96 19 6 19 7 -3 30 -12 13 -18 24 -12 24 13 0 80 -79 112
-133 38 -62 72 -136 102 -222 32 -89 37 -85 13 9 -28 110 -108 248 -196 341
-84 89 -143 132 -223 163 -42 16 -64 18 -142 12 -115 -9 -198 -45 -276 -122
-79 -76 -97 -139 -98 -342 l0 -151 -19 52 c-10 29 -34 76 -53 105 -20 29 -41
65 -48 81 -14 31 -34 35 -44 10 -5 -14 -16 2 -46 62 l-39 80 11 75 c12 72 48
161 92 225 16 23 17 27 4 16 -10 -8 -34 -40 -54 -72 -20 -33 -37 -59 -39 -59
-2 0 -10 15 -18 34 -18 42 -48 61 -75 46 -30 -15 -33 -13 -26 20 8 36 -9 91
-35 115 -18 16 -18 20 -5 46 8 15 15 33 15 39 0 15 -117 12 -183 -5 -32 -8
-60 -15 -62 -15 -2 0 3 22 10 50 7 27 10 52 5 55 -4 3 -32 -8 -62 -23 l-54
-27 1 107 c0 139 -7 147 -78 82 -57 -52 -165 -130 -170 -123 -11 12 37 199 59
232 41 62 17 57 -43 -8 -30 -33 -52 -51 -49 -40 3 11 10 66 15 122 18 195 83
260 234 232 129 -23 215 -90 275 -211 51 -102 61 -148 62 -261 0 -69 3 -89 15
-93 30 -12 66 7 100 54 77 105 94 250 50 425 -31 122 -60 180 -129 257 -123
138 -279 217 -464 236 -102 11 -252 -31 -349 -98 -46 -31 -47 -31 -34 23 13
56 1 65 -48 39 -52 -26 -121 -97 -152 -156 -13 -24 -26 -44 -29 -44 -8 1 -79
160 -91 203 -11 40 -23 47 -38 20z m820 -18 c72 -15 159 -48 159 -60 0 -4 -30
-3 -67 1 -155 17 -230 3 -386 -71 -104 -50 -143 -82 -195 -161 -18 -27 -38
-49 -45 -49 -7 0 -13 -10 -15 -23 -2 -15 -9 -22 -17 -18 -7 2 -26 -8 -42 -24
-15 -16 -31 -30 -34 -30 -10 0 18 140 40 204 12 33 21 64 21 70 -1 22 -49 -81
-70 -152 -25 -84 -50 -98 -50 -29 0 49 52 175 96 232 28 37 98 95 116 95 18 0
6 -18 -42 -67 -42 -43 -49 -55 -45 -79 3 -16 0 -64 -8 -107 -15 -89 -11 -88
27 4 55 134 177 229 336 263 86 19 134 19 221 1z m-757 -121 c41 -105 41 -104
21 -104 -8 0 -15 8 -15 17 0 9 -3 13 -7 9 -9 -8 -9 -13 -11 -80 -2 -38 -5 -47
-17 -42 -10 4 -15 -1 -16 -17 0 -17 -5 -13 -20 18 -13 28 -19 63 -19 114 0 84
30 225 41 195 4 -10 23 -60 43 -110z m1025 -3 c65 -42 86 -68 30 -37 -24 14
-84 33 -132 42 -86 17 -101 29 -42 36 47 5 91 -7 144 -41z m0 -46 c68 -24 143
-85 173 -141 28 -53 63 -185 73 -274 5 -52 4 -50 -25 40 -16 52 -37 119 -46
148 -8 28 -19 52 -23 52 -7 0 -27 14 -81 58 -44 35 -133 72 -200 83 -52 8 -75
6 -148 -12 -48 -12 -107 -31 -131 -41 -55 -23 -66 -14 -23 21 31 27 157 76
217 85 53 8 169 -2 214 -19z m-1116 -178 c19 -59 32 -107 29 -107 -3 0 -17 10
-31 22 -14 13 -19 14 -9 4 14 -16 14 -22 2 -53 -8 -19 -12 -44 -9 -56 6 -22 6
-22 -10 -2 -56 69 -78 178 -55 276 7 30 15 58 18 63 8 14 27 -30 65 -147z
m1257 -116 c0 -17 -11 -3 -44 54 -17 29 -17 29 13 -5 17 -19 31 -41 31 -49z
m-1321 -91 c28 -54 35 -77 24 -73 -13 5 -14 3 -3 -16 17 -33 4 -38 -25 -11
l-25 23 -1 -44 -1 -44 -13 35 c-19 49 -18 210 1 210 2 0 21 -36 43 -80z m555
-197 c-11 -172 -13 -178 -45 -197 -26 -15 -30 -15 -35 -2 -3 9 1 37 10 63 23
68 20 72 -15 20 -20 -30 -38 -47 -51 -47 -19 0 -19 2 -6 23 8 12 27 45 43 72
30 53 94 145 101 145 2 0 1 -35 -2 -77z m-298 5 c-9 -91 -39 -238 -46 -233 -4
3 -15 -13 -25 -35 -20 -45 -45 -72 -45 -49 0 15 31 130 61 223 10 33 19 64 19
68 0 5 -33 -19 -72 -51 -72 -59 -130 -126 -162 -189 -19 -36 -30 -42 -22 -12
19 66 19 67 3 45 -8 -11 -28 -61 -45 -110 -33 -95 -42 -83 -17 23 16 69 51
142 87 184 26 30 252 197 267 198 2 0 1 -28 -3 -62z m178 20 c-15 -23 -39 -59
-53 -79 -15 -20 -33 -56 -41 -80 l-15 -44 -5 50 -5 50 -24 -24 -24 -24 7 29
c4 16 15 37 24 48 14 15 152 116 160 116 1 0 -10 -19 -24 -42z m267 -59 c-16
-47 -21 -54 -43 -51 -13 2 -36 -6 -50 -18 -56 -44 -39 -16 32 53 41 39 76 72
77 71 2 0 -5 -25 -16 -55z m-1501 19 c66 -34 85 -67 85 -143 0 -35 -3 -67 -7
-70 -4 -4 -26 8 -50 27 -106 86 -128 85 -128 -8 0 -61 -8 -65 -66 -38 -45 22
-84 69 -84 103 0 38 42 91 98 123 57 34 94 35 152 6z m768 -55 c-4 -77 -28
-86 -28 -10 0 29 3 57 7 60 17 18 24 2 21 -50z m-268 -115 c12 -115 12 -128
-3 -143 -10 -9 -17 -25 -17 -35 0 -10 -4 -21 -9 -24 -12 -8 -21 55 -21 149 l0
80 -27 -40 c-45 -66 -104 -187 -113 -230 -7 -36 -8 -33 -9 30 -1 87 21 143
109 279 51 79 65 95 71 80 4 -11 12 -76 19 -146z m1236 27 c-2 -33 -9 -71 -14
-85 -8 -20 -11 -11 -16 52 l-8 77 -93 -75 c-51 -41 -112 -99 -136 -130 -23
-30 -50 -59 -59 -64 -16 -9 -17 -6 -8 28 14 56 56 111 132 172 37 30 95 78
129 106 l62 51 8 -36 c5 -20 6 -63 3 -96z m-1018 38 c-1 -38 -4 -56 -6 -40 -2
15 -7 27 -11 27 -35 0 -111 -167 -152 -335 -16 -65 -17 -67 -18 -29 -2 68 36
249 65 314 24 55 91 130 115 130 5 0 8 -30 7 -67z m-660 -139 c58 -52 72 -71
72 -94 0 -16 -4 -32 -10 -35 -5 -3 -10 2 -10 12 0 10 -11 23 -25 30 -29 13
-30 12 -14 -71 17 -93 5 -97 -29 -8 -29 73 -77 162 -88 162 -3 0 3 -17 12 -37
12 -28 16 -64 16 -133 -1 -55 4 -119 13 -153 20 -77 19 -94 -4 -100 -22 -5
-44 37 -60 113 -10 48 -14 373 -5 403 5 16 7 16 32 -4 15 -11 60 -50 100 -85z
m1782 32 c0 -7 -5 -26 -10 -42 -9 -26 -15 -30 -55 -32 -42 -1 -45 0 -35 18 10
19 77 70 92 70 5 0 8 -6 8 -14z m-1631 -67 c31 -31 40 -62 21 -74 -6 -3 -13 1
-16 9 -11 28 -36 19 -34 -11 1 -16 2 -39 1 -53 -2 -35 -17 -8 -26 47 -6 36 8
113 20 113 2 0 17 -14 34 -31z m1861 12 c0 -11 -44 -65 -79 -98 -27 -26 -40
-31 -21 -8 7 8 9 15 5 15 -4 0 0 11 9 25 16 24 15 25 -9 31 -13 3 -46 -1 -72
-10 -56 -19 -53 -19 -53 -1 0 9 23 22 63 34 65 21 157 28 157 12z m25 -111
c18 -36 18 -56 0 -95 l-15 -30 5 35 c6 44 -6 65 -34 57 -24 -6 -25 0 -11 37
13 34 36 33 55 -4z m-992 -27 c15 -36 57 -237 57 -275 0 -10 -4 -18 -9 -18 -8
0 -21 57 -40 187 -5 34 -17 76 -26 93 l-17 32 -33 -32 c-18 -18 -50 -58 -72
-89 -68 -101 -169 -229 -214 -272 -15 -15 -31 -43 -34 -63 -4 -20 -11 -36 -17
-36 -5 0 -6 -5 -3 -10 4 -6 11 -8 16 -5 5 4 6 -2 2 -12 -6 -16 -5 -16 10 -4
16 12 17 12 11 -5 -6 -15 -4 -17 6 -7 10 9 18 9 34 1 21 -11 21 -11 2 11 -20
22 -9 30 13 9 9 -8 11 -8 8 -2 -4 7 0 14 8 17 22 9 7 -22 -28 -60 -17 -18 -35
-29 -40 -26 -6 3 -7 2 -4 -3 5 -8 -33 -76 -62 -110 -5 -7 -9 -14 -8 -16 3 -5
-36 40 -68 79 -23 28 -24 33 -10 46 10 10 11 17 3 19 -8 3 -8 10 2 27 6 13 7
21 2 17 -6 -3 -14 -1 -18 5 -9 14 45 3 61 -12 7 -7 3 -8 -10 -3 -16 5 -18 4
-8 -6 7 -7 17 -9 25 -4 7 5 19 9 27 11 7 1 19 7 25 14 8 9 8 10 -1 5 -23 -13
-14 29 20 93 53 101 205 319 266 382 71 73 100 78 124 22z m642 -33 c155 -48
262 -135 325 -261 33 -65 27 -72 -7 -9 -24 43 -47 46 -51 5 -21 -217 -81 -235
-305 -91 -103 66 -188 100 -231 92 -20 -4 -36 -10 -36 -14 0 -4 18 -15 40 -24
35 -15 40 -20 38 -46 -2 -29 -3 -29 -38 -19 -53 14 -197 3 -252 -21 -125 -55
-261 -171 -316 -271 -34 -61 -20 -50 27 23 57 88 137 159 235 206 176 85 263
79 457 -32 184 -105 241 -130 312 -135 82 -7 129 12 156 64 11 21 20 32 21 25
0 -7 -9 -30 -19 -51 -25 -48 -66 -66 -151 -66 -74 1 -112 17 -265 115 -148 94
-272 131 -372 109 l-58 -12 35 -8 c19 -4 38 -5 43 -2 4 3 16 -4 26 -16 10 -11
20 -19 22 -17 2 2 10 -2 17 -10 10 -11 10 -14 0 -15 -7 0 1 -7 17 -14 l30 -14
-26 -1 c-43 0 -178 -75 -257 -141 -107 -90 -246 -282 -367 -506 -32 -60 -25
-58 -225 -68 -274 -15 -500 -84 -667 -203 -71 -51 -104 -58 -42 -9 l32 25 -36
47 c-20 26 -34 53 -30 59 4 6 -1 4 -12 -4 -35 -29 -48 -80 -51 -200 -4 -197
-22 -370 -42 -409 -26 -51 -86 -90 -148 -97 -55 -7 -144 13 -179 40 -18 14
-15 14 25 0 25 -9 72 -16 106 -17 72 -1 138 30 166 79 25 42 51 242 53 404 2
184 20 224 148 309 98 66 190 98 352 120 58 8 58 9 15 10 -117 2 -279 -50
-397 -130 -24 -15 -43 -24 -43 -19 0 6 4 10 8 10 12 0 12 42 1 57 -6 6 -7 18
-3 25 10 17 -27 -13 -94 -77 -100 -94 -133 -195 -131 -399 1 -143 -12 -212
-51 -254 -19 -20 -76 -39 -87 -28 -4 3 1 6 11 6 9 0 30 7 46 15 48 25 60 84
58 270 -1 139 2 170 21 232 50 167 235 323 477 402 146 47 195 54 242 31 36
-18 40 -23 45 -70 4 -29 14 -66 24 -83 45 -78 319 -153 365 -99 8 9 28 40 44
67 26 45 29 60 30 143 0 51 -1 90 -4 87 -3 -2 -15 17 -27 43 -12 26 -41 64
-63 84 -23 21 -42 46 -42 56 0 40 54 123 118 184 148 139 303 233 427 259 68
14 297 18 335 6 20 -6 21 -6 8 3 -37 23 -125 31 -229 20 -57 -5 -114 -13 -126
-16 -15 -4 -23 -2 -23 6 0 18 78 214 94 235 19 26 86 34 246 30 104 -2 151 -8
205 -25z m-1908 -35 c61 -18 81 -38 63 -60 -12 -14 -15 -14 -34 3 -25 23 -80
52 -98 52 -7 0 4 -10 25 -23 31 -17 45 -36 67 -87 39 -92 44 -119 22 -116 -9
2 -20 -2 -25 -8 -19 -28 -79 85 -101 188 -13 66 -13 66 8 66 12 0 45 -7 73
-15z m393 -18 c0 -7 -7 -23 -16 -35 -19 -27 -18 -27 39 -2 41 18 241 42 227
27 -3 -3 -51 -21 -107 -41 -56 -19 -131 -52 -167 -73 l-65 -38 -2 -65 c0 -36
-4 -76 -8 -90 -6 -21 -10 -15 -23 40 -15 60 -16 62 -17 25 0 -22 3 -57 8 -77
5 -21 5 -35 0 -33 -15 10 -29 79 -29 146 0 54 5 72 28 110 28 43 107 119 124
119 4 0 8 -6 8 -13z m1965 -20 c8 -13 16 -36 19 -53 2 -16 1 -22 -1 -14 -10
29 -26 40 -59 40 -39 0 -43 12 -12 34 30 21 35 20 53 -7z m-2506 -47 c34 -17
61 -35 61 -40 0 -5 -6 -7 -13 -5 -17 7 -9 -81 11 -115 12 -20 10 -20 -11 5
-14 17 -31 44 -38 60 -7 17 -28 51 -47 78 -18 26 -32 47 -29 47 3 0 32 -14 66
-30z m21 -205 l65 -66 -50 16 c-28 9 -63 20 -80 25 -84 23 -147 52 -153 69 -3
9 33 15 118 19 31 2 43 -6 100 -63z m3264 24 c-8 -14 -24 -10 -24 6 0 9 6 12
15 9 8 -4 12 -10 9 -15z m-3464 -89 c-38 -12 -109 -12 -90 0 8 5 38 9 65 9 40
-1 45 -3 25 -9z m169 -30 c51 -6 112 -19 136 -29 53 -23 69 -44 24 -31 -18 5
-66 12 -108 16 l-76 7 33 -33 c17 -18 32 -36 32 -42 0 -5 -22 -6 -50 -2 -62 8
-66 -7 -17 -62 29 -34 30 -36 7 -24 -14 7 -49 33 -79 57 -66 53 -121 83 -156
83 -34 0 -31 -11 10 -39 31 -21 45 -41 30 -41 -26 0 -190 108 -180 118 3 4 70
11 148 18 78 6 144 12 147 13 3 0 47 -4 99 -9z m-1154 -44 c31 -31 47 -91 44
-167 -3 -74 -16 -86 -24 -22 -12 94 -20 101 -23 21 -4 -116 -33 -97 -48 31 -7
62 -19 85 -30 57 -7 -18 -34 -10 -34 10 0 18 28 64 49 82 22 18 39 15 66 -12z
m3825 -58 c0 -24 -5 -50 -10 -58 -7 -11 -10 2 -10 43 0 31 4 57 10 57 6 0 10
-19 10 -42z m-3985 -12 c42 -18 85 -59 85 -81 0 -13 -8 -11 -43 10 -50 28 -88
35 -42 6 29 -17 84 -75 134 -142 l25 -32 -37 7 c-23 4 -37 3 -37 -3 0 -18
-123 -102 -167 -114 -24 -6 -43 -15 -43 -20 0 -5 10 -7 23 -3 12 3 29 6 38 6
9 0 44 18 79 41 59 38 77 45 62 24 -10 -15 -94 -80 -119 -93 -31 -17 -83 -15
-122 6 -40 20 -63 52 -43 59 6 3 10 9 7 14 -7 11 35 69 49 69 6 0 20 -7 30
-15 18 -14 17 -15 -18 -30 -55 -23 -36 -30 26 -10 59 20 188 82 188 91 0 3 -6
4 -14 1 -8 -3 -31 7 -53 23 -52 40 -66 39 -59 -5 6 -34 5 -35 -28 -35 -61 0
-106 67 -106 161 0 40 13 56 57 69 44 13 90 11 128 -4z m532 -49 c28 -16 54
-50 85 -112 32 -63 42 -95 30 -95 -5 0 -12 12 -15 28 -12 58 -70 136 -122 164
-41 23 -45 28 -25 27 14 0 35 -5 47 -12z m620 -28 c15 -6 23 -13 16 -16 -7 -2
-10 -10 -7 -18 3 -7 -3 -18 -13 -23 -21 -11 -185 -22 -213 -15 -17 5 -18 7 -4
20 17 18 139 62 171 63 12 0 34 -5 50 -11z m799 -45 c13 -3 24 -12 24 -19 0
-15 -46 -66 -53 -59 -3 3 -5 -5 -6 -18 -2 -57 -14 -118 -23 -118 -5 0 -7 -4
-4 -9 6 -9 -193 -66 -202 -57 -3 3 0 6 6 6 6 0 9 6 6 13 -2 7 7 18 23 25 19 7
20 9 6 6 -13 -3 -23 -1 -23 5 0 16 37 23 59 12 25 -14 42 -14 18 0 -10 6 -14
15 -10 22 4 7 7 21 8 32 0 11 6 19 13 18 22 -5 12 24 -15 42 -23 15 -34 16
-82 6 -31 -6 -103 -20 -161 -31 -157 -29 -250 -52 -250 -61 0 -5 6 -10 13 -10
6 -1 -10 -5 -38 -9 -27 -4 -58 -10 -67 -14 -15 -7 -18 -3 -18 18 0 49 55 65
376 112 l191 27 31 -21 c41 -30 49 -28 66 13 8 19 18 35 21 35 3 0 3 -5 -1
-12 -4 -7 -3 -8 4 -4 6 4 9 13 6 20 -7 19 21 27 52 16 17 -7 23 -7 19 0 -3 6
-12 10 -20 10 -8 0 -17 5 -21 12 -5 8 -2 9 10 5 10 -4 29 -10 42 -13z m-1541
-31 c-9 -15 -27 -43 -40 -61 -13 -18 -26 -38 -28 -45 -2 -7 -8 -8 -13 -4 -10
9 17 62 58 111 35 42 47 42 23 -1z m1769 -6 c35 -23 51 -77 36 -122 -14 -43
-44 -65 -89 -65 -24 0 -32 -3 -25 -10 17 -17 70 0 100 31 21 22 28 41 32 84 4
52 6 55 32 55 42 0 120 -58 147 -109 17 -32 23 -61 23 -107 0 -63 -11 -81 -44
-68 -9 3 -27 -12 -47 -41 -37 -51 -91 -85 -137 -85 -110 0 -202 77 -202 169 0
37 27 101 42 101 6 0 0 13 -15 28 -39 41 -51 83 -37 127 7 21 21 40 33 44 26
10 117 -10 151 -32z m-1666 6 c23 -32 58 -113 43 -98 -20 20 -80 125 -71 125
5 0 17 -12 28 -27z m-2 -64 c25 -38 59 -79 76 -92 27 -22 28 -25 14 -40 -9 -8
-16 -21 -16 -27 0 -8 -7 -9 -17 -5 -45 19 -150 57 -170 62 -42 10 -44 26 -8
72 19 24 40 58 47 77 6 18 15 31 20 28 5 -3 29 -37 54 -75z m2902 46 c96 -20
176 -51 225 -89 60 -46 142 -150 181 -231 33 -68 44 -101 122 -367 20 -70 45
-141 55 -158 22 -36 47 -38 134 -11 69 22 128 16 202 -20 168 -82 225 -411
118 -691 -56 -149 -172 -366 -254 -478 -128 -175 -352 -409 -451 -472 -235
-150 -420 -191 -860 -192 -255 0 -270 1 -390 28 -158 35 -273 84 -372 159
-124 93 -202 221 -215 352 -4 40 2 67 26 134 21 55 30 94 26 112 -7 29 -139
163 -222 222 -47 34 -144 149 -173 206 -32 62 -60 168 -60 226 0 78 30 195 69
274 38 75 108 133 183 152 74 19 298 17 361 -4 47 -15 48 -15 73 10 22 22 32
25 73 21 60 -6 122 -47 217 -143 84 -87 137 -164 177 -259 26 -62 31 -89 38
-211 4 -77 8 -148 8 -157 2 -39 18 -15 28 41 35 185 176 312 365 328 56 5 79
1 145 -21 81 -29 111 -47 131 -81 10 -17 11 -17 12 -3 0 23 -52 60 -126 91
-191 80 -251 116 -318 188 -88 95 -138 172 -176 270 -54 141 -59 220 -17 267
11 12 28 21 36 20 12 -2 17 10 22 52 8 69 59 199 106 267 31 47 90 95 163 133
91 49 215 61 338 35z m-2520 -31 c28 -8 24 -26 -9 -35 -22 -6 -22 -7 -3 -8 12
-1 51 10 88 24 63 24 118 26 131 4 7 -10 -27 -29 -52 -29 -11 0 -29 -9 -41
-20 -19 -18 -30 -20 -85 -14 -34 4 -70 11 -80 16 -12 6 -23 6 -31 -1 -6 -6
-23 -8 -37 -5 l-24 6 24 -22 c13 -11 54 -37 90 -57 77 -42 103 -62 95 -74 -11
-19 -44 -7 -123 46 -45 30 -84 55 -86 55 -3 0 0 -11 5 -25 5 -14 6 -25 2 -26
-4 0 -17 -2 -28 -5 -26 -4 -38 25 -17 44 14 14 18 42 5 42 -16 0 -42 -75 -38
-111 6 -55 41 -125 73 -145 15 -10 43 -31 60 -48 30 -28 32 -31 17 -47 -16
-17 -19 -17 -78 13 -33 16 -85 48 -115 71 -34 25 -52 34 -48 23 4 -10 3 -15
-3 -11 -5 3 -23 -20 -40 -52 -16 -32 -40 -70 -52 -85 -26 -33 -17 -49 12 -23
18 16 20 16 20 2 0 -10 -5 -17 -11 -17 -28 0 3 -25 65 -51 90 -38 171 -51 213
-34 33 14 39 29 45 115 3 31 7 36 43 46 36 10 42 16 63 70 13 32 26 83 29 111
5 43 9 53 25 53 42 0 33 -68 -24 -193 -27 -59 -35 -68 -68 -78 -36 -11 -38
-13 -43 -66 -6 -58 -23 -85 -69 -109 -35 -18 -38 -18 -38 3 0 16 -1 16 -16 1
-19 -18 -39 -13 -221 63 -97 40 -96 33 -22 179 26 52 76 151 109 220 34 69 67
131 73 139 33 39 146 63 215 45z m3272 -36 c-7 -12 -20 -32 -30 -43 -10 -11
-23 -37 -30 -57 -6 -21 -13 -38 -16 -38 -2 0 -4 21 -4 47 0 41 4 50 42 85 45
41 57 43 38 6z m-3876 -30 c-21 -34 -94 -129 -94 -122 0 18 76 134 88 134 8 0
10 -5 6 -12z m708 -44 c11 -7 10 -62 0 -68 -11 -7 -82 58 -82 74 0 9 11 10 37
5 21 -4 41 -9 45 -11z m3232 -18 c6 -26 5 -27 -8 -13 -9 9 -13 23 -10 32 8 19
9 18 18 -19z m-3866 4 c29 -24 25 -52 -10 -64 -33 -12 -65 8 -47 30 6 7 8 18
4 24 -8 13 2 30 18 30 7 -1 22 -9 35 -20z m118 -45 c20 -8 33 -19 29 -25 -3
-5 1 -10 9 -10 9 0 16 -9 16 -20 0 -11 -5 -20 -11 -20 -6 0 -19 -10 -29 -22
-10 -13 -22 -20 -26 -15 -4 4 -2 13 4 19 9 9 3 17 -26 33 -41 23 -55 60 -25
68 10 3 19 5 21 6 1 0 19 -6 38 -14z m4005 -43 c-5 -10 -29 -32 -53 -48 -23
-16 -53 -40 -65 -54 l-23 -25 2 49 3 49 60 22 c78 29 89 30 76 7z m-4345 -141
c-26 -39 -49 -71 -52 -71 -7 0 0 12 50 87 22 34 42 60 44 58 2 -2 -17 -35 -42
-74z m1063 35 c106 -20 112 -35 13 -33 -44 1 -78 5 -76 9 3 4 -2 8 -11 8 -35
0 -6 -25 53 -44 34 -12 69 -28 78 -38 15 -15 15 -19 -9 -50 -56 -74 -96 -205
-68 -222 16 -10 25 -291 11 -341 -19 -68 -49 -95 -105 -95 -41 0 -50 5 -90 45
-25 24 -45 39 -45 32 0 -7 -7 -4 -14 6 -11 14 -16 15 -22 6 -5 -9 -10 -7 -16
7 -5 13 -7 6 -3 -21 l5 -40 -14 37 c-27 69 -39 217 -27 313 15 112 37 167 104
268 30 45 64 101 75 124 23 44 36 53 67 47 11 -3 53 -11 94 -18z m3277 -125
c-7 -10 -96 -43 -96 -35 0 6 81 43 93 44 5 0 6 -4 3 -9z m-4113 -26 c38 -9 66
-19 64 -21 -2 -3 -34 0 -70 6 -37 6 -86 7 -109 4 -76 -12 -186 -79 -150 -92
10 -3 9 -8 -3 -22 -16 -18 -16 -22 0 -65 37 -96 182 -207 300 -231 31 -6 35
-9 17 -12 -18 -3 -22 -8 -16 -25 12 -42 108 -128 204 -183 112 -63 92 -74 -26
-14 -83 42 -260 183 -282 225 -6 13 -36 40 -65 59 -28 19 -70 53 -92 75 -21
23 -43 41 -48 41 -4 0 6 -27 24 -61 28 -51 46 -70 118 -121 47 -33 113 -86
146 -118 69 -66 140 -116 223 -157 52 -25 67 -28 164 -28 117 0 124 -9 14 -19
-135 -13 -272 51 -420 197 -49 48 -124 112 -166 142 -107 74 -180 178 -180
255 0 43 34 104 75 135 72 56 145 64 278 30z m73 -129 l34 -35 -25 -53 c-14
-29 -25 -70 -25 -91 0 -21 -6 -40 -13 -43 -19 -7 -96 23 -134 52 -44 34 -93
101 -93 128 0 39 79 74 169 75 49 1 57 -2 87 -33z m38 -126 c-8 -35 -12 -70
-9 -77 2 -8 0 -11 -5 -8 -16 10 -12 81 7 120 9 19 18 33 19 32 2 -2 -4 -32
-12 -67z m188 19 c15 -8 18 -17 13 -37 -9 -41 -88 -233 -93 -228 -2 3 1 28 7
57 14 64 10 71 -13 21 -15 -32 -23 -39 -48 -40 l-30 -1 7 47 c4 26 12 53 18
60 5 7 13 30 16 50 5 26 12 38 26 41 11 2 26 12 33 22 15 22 34 24 64 8z m78
-31 c-1 -7 -11 -74 -24 -148 -15 -89 -25 -126 -29 -110 -16 71 -17 101 -3 129
9 16 18 48 22 72 8 58 11 69 24 69 5 0 10 -6 10 -12z m-230 -53 c0 -8 -4 -15
-10 -15 -5 0 -10 7 -10 15 0 8 5 15 10 15 6 0 10 -7 10 -15z m-194 -35 c32
-12 85 -22 116 -23 32 -1 58 -6 58 -11 0 -16 -146 1 -194 23 -25 11 -46 22
-46 25 0 8 1 8 66 -14z m4329 -10 l70 -18 -62 -1 c-34 0 -68 -3 -76 -7 -8 -3
-21 5 -31 20 -16 25 -16 26 6 25 13 0 55 -9 93 -19z m1084 -17 c-6 -15 -14
-32 -18 -38 -5 -5 -27 -67 -49 -137 -24 -73 -58 -156 -81 -195 -23 -36 -41
-72 -41 -79 0 -6 -7 -17 -16 -24 -8 -8 -14 -9 -13 -4 11 60 -25 1 -47 -75 -16
-57 -18 -61 -27 -40 -28 74 36 332 116 467 63 107 110 150 164 151 20 1 22 -2
12 -26z m-998 -154 c75 -32 103 -48 95 -56 -2 -3 -40 11 -84 31 -44 20 -87 36
-96 36 -10 0 -14 5 -11 10 9 15 15 13 96 -21z m1884 -163 c38 -12 63 -31 129
-99 44 -47 97 -111 116 -143 33 -54 35 -65 38 -158 3 -72 -1 -117 -13 -163
-19 -70 -82 -175 -114 -193 -27 -14 -26 -8 3 43 61 108 79 262 43 378 -35 112
-137 252 -230 314 -56 38 -48 43 28 21z m-1948 -35 c32 -2 137 -131 120 -147
-13 -13 -44 9 -77 54 -19 26 -47 59 -63 74 -20 19 -23 25 -10 23 10 -2 23 -4
30 -4z m1888 -73 c74 -48 96 -69 139 -133 42 -64 30 -68 -26 -9 -86 91 -218
144 -356 144 -65 0 -61 9 16 32 91 28 146 20 227 -34z m511 -41 c6 2 17 -3 24
-12 7 -8 17 -15 22 -15 6 0 5 7 -2 15 -7 9 -10 18 -7 21 9 10 61 -64 64 -93 3
-15 10 -37 17 -48 11 -16 11 -23 1 -32 -10 -9 -17 -8 -29 6 -9 10 -16 25 -16
34 0 9 -7 17 -15 17 -8 0 -15 -5 -15 -11 0 -5 5 -7 12 -3 8 5 9 2 5 -9 -3 -10
-2 -17 3 -17 10 0 40 -127 39 -167 0 -15 -7 2 -14 38 -17 83 -65 198 -112 263
-25 36 -29 45 -12 30 13 -12 29 -20 35 -17z m-1632 -218 c23 -66 26 -167 6
-154 -20 13 -40 -16 -34 -49 5 -36 -18 -91 -38 -91 -14 0 -13 -41 3 -110 14
-66 9 -73 -16 -23 -63 121 -91 332 -61 461 19 79 48 140 84 176 l27 26 6 -95
c4 -52 14 -116 23 -141z m883 218 c36 -20 72 -76 79 -124 13 -86 -25 -150
-101 -169 -25 -6 -27 -5 -20 12 30 66 -10 134 -81 134 -58 0 -158 -33 -224
-73 -160 -98 -186 -114 -202 -120 -38 -14 -15 13 35 41 28 16 88 57 132 91 94
72 172 101 274 101 59 0 70 -3 101 -30 19 -16 36 -27 38 -25 10 9 -51 117 -74
132 -19 12 -39 14 -91 10 -70 -7 -76 4 -13 21 49 14 121 14 147 -1z m-5682
-64 c-27 -14 -59 -33 -70 -42 l-20 -16 20 24 c26 32 75 61 100 60 13 0 2 -9
-30 -26z m6587 -97 c4 -17 1 -25 -6 -23 -6 2 -10 16 -8 30 1 14 -2 28 -8 32
-5 3 -10 14 -10 23 0 23 25 -25 32 -62z m-2627 -5 c4 -15 3 -21 -3 -17 -5 3
-12 17 -15 32 -5 30 8 20 18 -15z m-3435 -1 c7 -13 7 -20 1 -20 -6 0 -15 9
-21 20 -7 13 -7 20 -1 20 6 0 15 -9 21 -20z m-661 -32 c-7 -12 -13 -57 -13
-99 -1 -42 -4 -72 -8 -65 -14 20 -8 115 8 156 9 23 19 39 21 36 3 -2 -1 -15
-8 -28z m421 -103 c19 -1 45 -7 57 -13 29 -16 105 -15 123 1 13 10 13 10 3 -2
-7 -8 -13 -22 -13 -30 0 -12 3 -12 18 1 9 9 23 13 30 11 6 -3 12 0 12 5 0 6
-6 13 -12 16 -7 4 -3 4 9 2 16 -3 20 0 16 13 -5 13 -2 13 16 -3 26 -23 15 -38
-28 -40 -42 -1 -39 -21 7 -46 20 -11 51 -32 67 -46 l30 -27 -30 18 -30 18 30
-32 c17 -18 46 -42 65 -54 19 -12 48 -34 64 -50 16 -16 52 -44 80 -63 28 -19
45 -34 38 -34 -24 0 -11 -30 16 -36 45 -10 112 -36 112 -44 0 -4 -7 -14 -17
-21 -22 -19 -92 -166 -99 -210 -6 -33 -10 -37 -60 -53 -168 -53 -304 -42 -470
40 -143 70 -253 163 -311 264 -25 44 -29 58 -21 74 6 11 11 65 12 121 l1 101
50 58 c27 32 59 62 70 67 11 5 45 6 75 2 30 -4 71 -7 90 -8z m4966 -42 c-16
-89 -28 -116 -69 -155 -42 -39 -115 -83 -124 -75 -2 3 9 19 26 36 17 17 25 31
18 31 -7 0 -8 3 -2 8 6 4 10 13 11 20 2 28 5 32 22 32 14 0 14 2 3 9 -11 7 -1
22 45 70 32 33 63 61 68 61 4 0 5 -17 2 -37z m1243 -77 c-9 -8 -10 -7 -5 7 3
10 7 31 8 45 1 22 2 21 5 -7 3 -19 -1 -38 -8 -45z m-1282 -207 c-3 -38 -15
-85 -27 -108 -20 -41 -40 -54 -40 -27 0 8 -6 16 -14 19 -12 5 -11 15 4 64 10
32 16 69 15 83 -2 16 6 33 23 48 23 22 26 23 35 6 5 -9 7 -47 4 -85z m-1537
-15 c21 -63 16 -85 -148 -586 -86 -266 -87 -268 -115 -268 -36 0 -81 -24 -101
-52 -25 -35 -19 -54 6 -22 12 16 27 32 33 36 35 25 205 -15 245 -57 22 -23 22
-27 11 -67 -18 -61 -33 -74 -123 -104 -61 -20 -81 -31 -88 -50 -9 -24 -50 -41
-69 -30 -6 4 -15 -12 -21 -36 -6 -24 -13 -50 -15 -58 -2 -8 -11 -41 -20 -72
l-16 -58 -32 23 c-18 13 -47 30 -64 37 -18 7 -33 15 -33 18 0 2 14 50 30 106
17 56 44 148 61 206 50 169 94 305 149 460 29 80 66 187 83 239 17 52 32 90
34 84 2 -5 -13 -61 -32 -124 -48 -150 -54 -208 -27 -232 26 -24 39 -16 52 33
6 22 33 90 61 152 108 238 140 361 115 442 -13 43 10 24 24 -20z m1020 2 c0
-7 14 -33 31 -56 45 -62 99 -153 99 -166 0 -8 -11 -9 -35 -4 -27 6 -33 5 -26
-3 5 -7 16 -38 24 -70 9 -32 27 -75 42 -95 22 -31 19 -29 -19 11 -25 27 -43
53 -40 58 3 5 1 8 -4 7 -12 -4 -64 60 -100 122 -32 54 -36 136 -9 188 17 31
37 36 37 8z m1840 -9 c0 -3 -8 -4 -17 -3 -10 2 -17 6 -15 9 1 4 2 12 2 18 0 6
7 4 15 -5 8 -8 15 -17 15 -19z m-2725 -79 c17 -23 35 -53 42 -67 16 -35 16
-91 1 -93 -7 0 -17 -2 -23 -3 -16 -4 -24 -5 -31 -4 -4 0 -10 -5 -15 -12 -4 -7
-17 -13 -28 -14 -16 -1 -18 2 -10 17 7 13 6 27 -5 50 -20 39 -20 78 -1 104 19
25 19 45 0 38 -10 -4 -15 0 -15 13 0 11 3 22 6 26 12 11 49 -15 79 -55z m1454
-70 c6 -27 11 -61 11 -77 0 -34 -28 -129 -45 -154 -11 -16 -12 -12 -8 25 4 34
-1 54 -21 92 -14 27 -26 55 -26 62 0 7 12 40 27 74 23 55 28 60 39 45 7 -9 18
-39 23 -67z m-4288 5 c-14 -16 -19 -33 -15 -46 3 -11 2 -17 -3 -14 -5 3 -25
-23 -44 -58 -18 -35 -35 -62 -37 -61 -8 8 61 153 84 177 35 36 42 37 15 2z
m68 -155 c-11 -40 -23 -118 -27 -173 l-8 -100 -8 85 c-5 57 -4 100 3 128 13
47 48 132 55 132 2 0 -5 -33 -15 -72z m2902 26 c124 -37 227 -115 303 -231 31
-46 30 -87 -2 -97 -9 -3 -69 -53 -132 -111 -63 -57 -120 -105 -126 -105 -7 0
-15 7 -18 16 -4 10 -2 13 6 8 8 -5 9 -2 5 10 -8 20 11 60 49 105 29 35 18 39
-35 12 -20 -10 -49 -22 -66 -27 -21 -6 -43 -28 -72 -71 -23 -35 -43 -59 -46
-55 -2 4 -2 1 -1 -5 3 -12 -33 -83 -42 -83 -2 0 -1 8 2 18 3 9 -2 6 -11 -8
-34 -53 -4 59 42 156 33 69 42 100 37 117 -5 12 -7 25 -6 30 1 4 -5 7 -14 7
-12 0 -14 7 -9 33 10 46 29 79 75 132 52 60 51 67 -3 19 -58 -51 -119 -143
-153 -226 -17 -41 -35 -70 -46 -74 -10 -3 -15 -11 -12 -17 4 -7 -1 -5 -11 4
-16 16 -16 20 0 70 9 30 28 73 40 96 13 23 29 59 35 80 31 93 108 213 138 213
10 0 43 -7 73 -16z m1424 -84 c38 -76 59 -256 36 -314 -6 -15 -9 -10 -19 23
-10 33 -17 41 -36 41 -24 0 -36 19 -51 80 -3 14 -13 42 -22 63 -14 33 -15 47
-4 105 19 100 18 99 47 71 14 -13 36 -44 49 -69z m-526 -97 c35 -40 58 -73 52
-73 -6 0 -8 -7 -4 -15 4 -13 -1 -15 -36 -9 -32 5 -41 3 -41 -8 0 -18 103 -123
184 -187 44 -35 33 -41 -22 -12 -101 53 -199 159 -230 250 -13 37 -16 119 -6
146 8 19 1 25 103 -92z m-5396 -93 c65 -24 119 -69 185 -153 56 -72 70 -93 54
-83 -6 4 -17 -2 -24 -14 -17 -26 -43 -26 -62 2 -9 12 -18 19 -22 16 -3 -4 -21
2 -40 13 -19 10 -49 19 -68 19 -65 0 -179 51 -241 108 -36 33 -54 57 -49 62
19 19 120 49 166 49 26 1 71 -8 101 -19z m1840 -103 c2 -48 0 -82 -4 -75 -13
20 -21 125 -13 160 9 40 12 28 17 -85z m4213 66 c67 -68 114 -207 114 -343 0
-85 -15 -109 -24 -38 -10 77 -35 148 -52 148 -9 0 -12 -4 -9 -10 3 -5 -1 -10
-9 -10 -13 0 -15 10 -12 55 2 30 0 52 -5 49 -5 -3 -9 -15 -9 -27 -1 -20 -2
-20 -11 -4 -6 9 -14 15 -19 12 -4 -3 -11 3 -14 12 -6 15 -8 15 -17 3 -7 -10
-7 -6 -2 15 4 17 8 63 8 103 0 48 3 72 11 72 7 0 29 -17 50 -37z m-6339 -27
c28 -16 66 -43 84 -62 29 -30 31 -34 13 -39 -10 -4 -27 -11 -37 -16 -9 -5 -71
-14 -138 -19 -111 -9 -170 -26 -152 -43 3 -4 -3 -7 -15 -7 -13 0 -22 -6 -22
-15 0 -8 -4 -15 -10 -15 -5 0 -19 -9 -30 -20 -12 -12 -25 -18 -30 -15 -5 3
-11 -4 -15 -14 -3 -11 -15 -23 -26 -26 -10 -4 -19 -11 -19 -16 0 -6 -4 -7 -10
-4 -5 3 -10 2 -10 -4 0 -5 -11 -22 -25 -37 -14 -15 -25 -35 -25 -45 0 -11 -4
-19 -10 -19 -5 0 -10 -6 -10 -13 0 -7 -32 -30 -70 -50 -79 -41 -88 -44 -70
-22 18 21 -3 19 -32 -4 -14 -12 -33 -18 -45 -15 -11 3 -26 -1 -34 -9 -8 -7
-19 -12 -25 -10 -6 2 -16 -14 -23 -37 -11 -38 -38 -63 -60 -58 -6 2 -18 -11
-28 -29 -10 -17 -28 -49 -39 -70 -24 -42 -54 -173 -54 -233 0 -22 -4 -42 -10
-45 -5 -3 -26 -30 -45 -59 -28 -42 -40 -53 -55 -49 -11 3 -20 9 -20 14 0 4
-11 19 -24 34 l-23 25 -7 -40 c-3 -23 -13 -43 -21 -46 -10 -4 -15 -20 -15 -43
0 -46 26 -173 46 -219 8 -19 12 -37 9 -40 -6 -6 -3 -10 -43 54 -125 199 -103
494 49 646 26 26 53 48 59 48 5 0 10 -21 11 -47 l1 -48 9 40 c51 218 75 269
165 362 71 72 141 109 227 119 l57 7 -5 -89 -5 -89 14 77 c23 128 43 173 103
239 99 107 206 151 353 146 71 -3 93 -8 137 -31z m765 -21 c70 -24 148 -112
183 -207 15 -40 32 -79 38 -85 11 -15 -11 -17 -61 -7 -25 5 -31 12 -37 40 -3
19 -10 32 -14 30 -5 -3 -16 3 -26 14 -10 11 -24 20 -32 20 -7 0 -13 4 -13 9 0
10 -53 8 -87 -3 -34 -11 -99 11 -134 47 -18 17 -30 26 -25 20 4 -7 3 -13 -2
-13 -9 0 -92 103 -92 114 0 5 70 31 105 40 35 9 149 -2 197 -19z m4403 -12
c71 -28 165 -106 165 -138 0 -11 -12 -14 -47 -12 -64 2 -116 -24 -235 -122
-54 -43 -120 -93 -146 -109 l-49 -30 4 33 c2 19 -1 36 -6 39 -6 4 -6 18 0 38
11 40 5 47 -24 21 -59 -52 -217 -146 -217 -129 0 2 46 44 103 92 56 49 161
146 234 216 73 70 136 128 140 128 4 0 39 -12 78 -27z m-2798 -96 c17 -28 38
-80 47 -115 14 -55 14 -66 2 -84 -13 -19 -14 -19 -19 -1 -3 10 -9 45 -12 78
-7 60 -29 120 -61 163 -13 17 -13 21 -3 17 8 -3 29 -29 46 -58z m1643 38 c-23
-24 -173 -89 -192 -83 -5 2 27 17 71 33 44 16 93 39 108 52 37 30 42 29 13 -2z
m-1405 -87 c19 -40 37 -86 41 -103 l7 -30 -31 29 c-17 16 -42 57 -56 92 -30
75 -31 84 -11 84 10 0 29 -28 50 -72z m1135 27 c-19 -19 -38 -35 -43 -35 -6 0
6 16 26 35 20 19 39 35 43 35 5 0 -7 -16 -26 -35z m-341 -22 c-5 -14 -9 -39
-9 -56 0 -40 -9 -53 -43 -66 -24 -9 -27 -8 -27 9 0 34 71 165 80 150 5 -7 4
-24 -1 -37z m2411 -8 c19 -10 46 -22 60 -27 18 -6 14 -7 -17 -3 -27 3 -43 1
-43 -5 0 -27 63 -130 100 -164 44 -39 132 -86 163 -86 10 0 15 -5 12 -10 -8
-13 -78 -2 -132 21 -68 29 -126 91 -172 182 -23 45 -44 98 -48 117 l-6 35 24
-21 c13 -12 40 -30 59 -39z m-3585 -7 c8 -28 15 -56 15 -61 0 -18 34 -82 51
-97 9 -8 20 -26 23 -40 5 -17 -25 8 -99 85 -102 107 -105 109 -105 77 0 -17 4
-32 8 -32 7 0 36 -81 38 -105 0 -5 4 -21 8 -34 10 -28 -5 -41 -49 -41 -28 0
-103 38 -80 41 6 1 -1 4 -15 8 -39 12 -42 3 -13 -35 16 -21 23 -38 17 -42
-107 -72 -135 -61 -114 46 13 73 34 117 64 138 15 11 52 38 83 62 31 23 63 42
71 42 7 0 25 9 39 20 14 11 29 20 34 20 5 0 15 -23 24 -52z m1534 -28 c-30
-15 -80 -42 -112 -60 -77 -43 -91 -27 -27 28 28 24 50 39 50 33 0 -5 -6 -11
-12 -14 -7 -2 -10 -8 -6 -12 3 -3 19 3 35 15 16 11 40 22 54 23 13 1 30 7 37
14 8 7 19 10 25 6 6 -3 -13 -18 -44 -33z m-2679 -6 c30 -14 70 -39 89 -57 67
-63 98 -172 70 -244 -11 -27 -11 -27 -19 -6 -5 12 -19 24 -32 28 -52 15 -90
41 -103 72 -7 17 -31 56 -52 85 -34 46 -73 127 -73 152 0 12 59 -3 120 -30z
m4259 -88 c1 -83 -5 -67 -12 29 -4 50 -3 71 2 55 5 -14 9 -52 10 -84z m-1885
39 c4 -19 3 -25 -3 -15 -4 8 -11 29 -15 45 -4 19 -3 25 3 15 4 -8 11 -28 15
-45z m-1993 18 c8 -22 7 -30 -7 -40 -33 -24 -59 -12 -32 15 9 9 8 12 -5 12
-25 0 -24 -60 1 -61 11 0 12 -2 4 -6 -20 -8 -52 27 -52 57 0 34 17 50 52 50
22 0 31 -6 39 -27z m5065 -15 c80 -74 158 -270 152 -381 l-3 -52 -18 49 c-9
28 -26 59 -36 70 -10 12 -26 57 -36 101 -9 44 -24 91 -32 105 l-14 25 5 -32
c3 -19 1 -35 -6 -39 -7 -4 -8 -3 -4 4 4 7 2 12 -3 12 -6 0 -11 8 -12 18 0 13
-2 12 -9 -5 -13 -32 -17 -29 -14 12 2 20 0 34 -4 31 -5 -3 -12 24 -18 60 -5
35 -6 64 -2 64 5 0 29 -19 54 -42z m-4926 -4 c14 -1 35 -15 48 -30 27 -31 21
-45 -8 -19 -19 17 -20 17 -20 1 0 -16 -3 -15 -30 4 -16 12 -46 24 -66 27 -34
6 -36 7 -18 20 12 9 29 11 44 7 14 -3 36 -8 50 -10z m1569 -26 c35 -30 38 -38
15 -38 -8 0 -13 4 -10 9 3 5 -11 23 -32 41 -20 17 -30 28 -21 23 9 -4 30 -20
48 -35z m357 -25 c-11 -11 -19 6 -11 24 8 17 8 17 12 0 3 -10 2 -21 -1 -24z
m521 0 c-9 -15 -44 -46 -81 -68 -61 -37 -88 -63 -49 -48 12 5 14 3 8 -7 -6
-10 -4 -12 9 -7 13 5 17 3 13 -7 -4 -11 -1 -13 11 -9 15 6 16 5 2 -12 -13 -17
-13 -18 0 -10 8 4 23 15 33 23 34 29 18 -8 -20 -47 -21 -21 -52 -58 -68 -82
-32 -45 -77 -75 -96 -64 -6 4 10 21 38 39 28 18 52 43 58 60 8 25 6 31 -19 53
-24 20 -36 24 -65 19 -59 -9 -85 -36 -91 -92 l-5 -49 -30 33 c-16 18 -47 50
-67 70 l-37 38 90 28 c50 16 134 51 187 79 156 81 187 96 190 92 2 -2 -3 -16
-11 -32z m-2441 -26 c16 -17 21 -25 12 -18 -15 11 -20 10 -34 -4 -15 -15 -18
-15 -40 6 -13 12 -24 33 -24 45 0 21 3 22 29 13 15 -5 41 -24 57 -42z m959 45
c14 -10 20 -56 6 -48 -6 4 -11 5 -11 2 0 -3 13 -12 29 -21 16 -8 39 -31 52
-51 19 -32 21 -42 12 -76 -7 -25 -7 -41 -1 -45 12 -7 28 15 28 39 0 13 6 15
28 10 15 -4 38 -7 52 -7 22 0 26 5 30 40 5 35 7 28 18 -50 40 -302 40 -533 -2
-805 -14 -91 -26 -180 -26 -197 0 -48 -14 -40 -35 20 -15 46 -16 62 -7 117 7
36 16 130 22 209 6 79 13 147 16 152 8 13 -11 42 -30 45 -12 2 -17 -7 -18 -34
-1 -21 -5 52 -8 161 l-5 199 -39 13 c-21 8 -60 33 -85 58 -25 24 -59 52 -76
62 -38 22 -85 66 -85 78 0 5 11 2 25 -7 29 -19 39 -20 29 -3 -5 6 7 0 25 -16
44 -37 77 -44 101 -22 26 23 25 46 -1 79 -17 21 -29 26 -67 26 -50 0 -66 -6
-75 -30 -4 -10 -6 -8 -6 7 -1 12 -4 29 -7 37 -10 26 -33 -1 -28 -32 3 -21 2
-23 -6 -12 -25 38 1 73 72 95 51 16 60 17 73 7z m930 -48 c33 5 47 3 69 -15
32 -25 29 -33 -8 -19 -25 9 -29 7 -44 -22 -25 -45 -70 -96 -93 -103 -11 -4
-17 -10 -14 -15 4 -6 -16 -20 -29 -20 -2 0 -31 34 -65 75 -34 42 -66 73 -71
70 -6 -4 -10 -2 -10 4 0 6 35 30 77 55 l77 45 34 -31 c31 -26 40 -29 77 -24z
m-1752 11 c1 -5 -7 -11 -18 -13 -11 -2 -35 -15 -52 -29 -31 -22 -42 -22 -25 2
28 40 90 66 95 40z m-301 -35 c24 0 23 -8 -4 -30 -13 -10 -20 -22 -16 -26 4
-4 14 -1 23 6 17 14 16 14 34 -55 22 -82 8 -95 -29 -27 -10 20 -19 32 -20 26
0 -17 18 -106 26 -129 7 -18 6 -18 -9 -6 -31 25 -11 -26 27 -67 l21 -24 -30 4
c-25 2 -35 12 -57 56 -33 66 -63 190 -54 226 9 37 45 71 59 57 6 -6 19 -11 29
-11z m1404 9 c21 -34 269 -124 363 -131 l35 -3 -41 -28 c-40 -28 -42 -28 -73
-12 -17 9 -38 14 -45 11 -20 -7 -29 -72 -17 -113 10 -33 10 -35 -11 -28 -58
17 -94 16 -145 -3 -57 -22 -56 -23 -66 36 l-6 34 34 -21 c18 -12 43 -21 55
-21 30 0 71 43 71 75 0 36 -50 85 -87 85 -26 1 -26 1 -8 12 11 6 22 12 24 14
5 4 -48 51 -81 71 -28 17 -37 33 -19 33 6 0 13 -5 17 -11z m2541 -104 c94
-101 131 -164 140 -236 8 -69 -10 -58 -32 18 -9 32 -26 70 -36 85 -20 28 -80
60 -140 74 -19 4 -36 8 -39 9 -49 14 -60 19 -60 27 0 6 23 8 55 6 30 -1 55 0
55 3 0 7 -27 34 -55 55 -19 15 -19 15 8 9 36 -7 35 11 -3 30 -16 9 -30 20 -30
26 0 22 62 -25 137 -106z m-5522 -1 c-64 -181 -149 -272 -302 -325 -51 -17
-53 -17 -53 0 0 24 11 31 93 65 37 16 85 41 106 56 48 35 126 151 151 227 29
85 30 86 36 81 2 -3 -11 -50 -31 -104z m1704 54 c30 -26 50 -52 50 -65 1 -13
9 -24 22 -28 16 -5 19 -12 14 -35 -5 -23 -2 -31 17 -41 41 -21 60 -47 49 -67
-21 -39 -35 -44 -105 -31 l-66 11 -19 67 c-44 147 -53 231 -26 231 8 0 37 -19
64 -42z m169 36 c29 -8 28 -28 -3 -48 -14 -9 -23 -21 -21 -25 3 -5 -4 -17 -17
-27 l-22 -19 19 23 c17 19 17 22 3 22 -30 0 -32 -1 -29 -16 2 -8 -2 -14 -8
-14 -17 0 -11 40 11 76 21 35 28 38 67 28z m60 -6 c-2 -6 -10 -14 -16 -16 -7
-2 -10 2 -6 12 7 18 28 22 22 4z m-1614 -39 c-16 -17 -54 -46 -84 -66 -30 -20
-68 -48 -85 -64 -41 -38 -107 -70 -157 -77 l-42 -5 22 34 c12 20 30 35 44 37
73 8 232 91 298 155 36 35 39 23 4 -14z m2382 22 c-18 -7 -18 -8 -2 -14 11 -4
16 -13 12 -22 -3 -8 -1 -15 4 -15 6 0 10 -4 10 -10 0 -5 -7 -10 -15 -10 -8 0
-15 5 -15 11 0 5 -5 7 -12 3 -6 -4 -8 -3 -5 3 4 5 -2 19 -13 31 -21 23 -14 30
30 31 22 0 22 -1 6 -8z m1121 -19 c-15 -10 -24 -22 -20 -27 5 -4 2 -5 -6 0
-12 7 -10 12 8 27 13 10 28 18 35 18 6 0 -1 -8 -17 -18z m-3117 -7 c-14 -8
-47 -22 -75 -31 -27 -9 -54 -20 -60 -24 -5 -4 -36 -17 -68 -29 -59 -21 -174
-27 -242 -12 -28 6 -29 8 -10 18 11 6 70 13 130 16 91 4 128 11 215 40 111 38
151 45 110 22z m1816 -37 c58 -37 112 -101 120 -143 5 -26 9 -33 15 -23 6 9 9
5 9 -14 0 -33 -21 -88 -27 -71 -3 10 -9 9 -26 -1 -12 -7 -74 -21 -137 -30 -63
-9 -161 -28 -218 -42 -96 -24 -105 -24 -134 -10 -49 25 -57 18 -13 -10 22 -13
49 -23 60 -20 11 2 56 14 100 25 44 12 149 28 234 37 l154 15 24 -23 c38 -35
53 -72 53 -130 0 -108 -59 -164 -237 -228 -175 -63 -219 -73 -291 -67 -46 3
-61 2 -53 -6 6 -6 48 -11 99 -11 78 0 101 6 222 48 74 26 142 49 151 52 30 10
63 -52 67 -127 4 -62 2 -68 -28 -102 -79 -90 -349 -173 -444 -137 -42 16 -31
-9 11 -27 25 -10 53 -13 85 -10 51 6 59 0 31 -25 -56 -49 -189 -78 -264 -58
-66 18 -128 85 -190 203 -135 260 -124 230 -124 336 0 182 46 350 114 419 61
60 330 181 461 206 56 10 137 -2 176 -26z m-1068 5 c17 -15 42 -95 42 -133 0
-18 -43 5 -60 33 -16 25 -19 27 -23 11 -3 -11 -5 9 -6 44 -1 68 9 77 47 45z
m-783 -49 c28 -9 100 -19 160 -23 l110 -6 -40 -19 c-65 -30 -149 -27 -220 9
-32 17 -61 36 -63 43 -5 15 -7 15 53 -4z m1346 -4 c29 -16 23 -27 -11 -22 -43
6 -78 -5 -106 -35 -28 -30 -33 -10 -6 24 29 37 86 52 123 33z m1418 -12 c14
-38 3 -50 -30 -33 -26 14 -30 14 -49 -5 -31 -31 -26 -71 15 -110 31 -30 34
-36 20 -46 -9 -7 -15 -16 -14 -20 6 -37 -14 -44 -47 -16 -35 29 -44 56 -37
111 6 54 29 86 88 122 38 24 44 24 54 -3z m244 -8 c4 0 6 5 5 12 -6 24 28 18
65 -13 20 -17 37 -34 37 -39 0 -5 -17 -2 -37 7 -23 9 -62 15 -98 14 l-59 -2
24 26 c21 22 25 23 40 10 9 -8 20 -15 23 -15z m2478 20 c10 -6 26 -25 35 -43
38 -74 169 -198 274 -260 54 -32 28 -37 -37 -7 -125 56 -251 183 -292 293 -12
30 -9 32 20 17z m-2174 -33 c22 -20 21 -52 -2 -43 -8 3 -16 -1 -18 -8 -3 -8
-17 -13 -31 -13 -21 0 -27 5 -32 35 -11 60 32 75 83 29z m-902 7 c12 -12 13
-19 4 -30 -6 -8 -17 -14 -25 -14 -17 0 -44 28 -44 46 0 19 45 18 65 -2z m1051
1 c-3 -9 -15 -48 -27 -88 -21 -69 -48 -121 -36 -67 4 14 11 50 18 80 6 30 16
63 21 73 11 21 32 23 24 2z m-661 -25 c16 -30 15 -32 -15 -70 -36 -46 -45 -48
-77 -18 -21 20 -32 59 -15 57 41 -7 101 29 87 51 -4 6 -4 10 -1 10 3 0 13 -14
21 -30z m1970 -39 c82 -41 151 -104 267 -244 50 -62 114 -135 141 -164 47 -49
54 -73 21 -73 -8 0 -13 4 -9 9 3 6 -11 22 -30 38 -20 15 -59 57 -87 93 -104
132 -173 210 -186 210 -7 0 -15 7 -18 15 -4 8 -10 15 -15 15 -4 0 -19 10 -33
23 -13 12 -63 43 -110 67 -47 25 -86 48 -86 51 0 13 83 -10 145 -40z m-1595
-28 c63 -31 157 -76 209 -100 153 -72 221 -123 307 -228 81 -99 84 -105 84
-195 0 -44 9 -123 20 -175 l21 -94 -34 -73 c-73 -157 -160 -226 -297 -236 -61
-4 -76 -1 -125 22 -46 23 -86 61 -73 70 2 1 23 14 48 28 49 28 87 65 77 74 -4
4 -23 -6 -43 -21 -20 -15 -92 -54 -160 -85 -138 -64 -180 -89 -152 -89 12 -1
16 -6 11 -18 -5 -15 -3 -14 11 2 16 20 17 20 14 -5 -3 -23 -8 -25 -60 -28 -65
-3 -98 10 -159 65 -89 81 -112 183 -59 266 32 51 155 138 259 184 29 13 52 25
50 27 -4 3 -79 -9 -196 -33 -24 -4 -43 -4 -43 0 0 5 -35 8 -77 7 l-78 -2 75
-5 75 -6 -40 -12 c-143 -42 -214 -8 -254 120 -21 71 -20 108 7 162 42 85 73
97 267 107 177 8 201 11 212 23 5 4 -10 5 -32 1 -60 -11 -277 -14 -297 -4 -14
7 -18 21 -18 64 0 69 17 111 71 169 67 72 100 86 189 80 65 -5 91 -14 190 -62z
m3099 -62 c52 -97 93 -288 73 -340 -7 -20 -14 -1 -43 110 -18 74 -35 126 -37
115 -3 -12 -11 -2 -28 34 -14 31 -32 54 -44 57 -17 4 -20 14 -20 57 0 28 -3
62 -6 76 -6 23 -3 22 34 -14 22 -21 54 -64 71 -95z m-3677 54 c-4 -65 -16 -62
-37 8 -13 44 -13 46 8 49 32 6 32 5 29 -57z m-2270 -10 c30 -16 65 -25 95 -26
l48 -1 -30 -13 c-65 -30 -140 -8 -185 55 -26 37 -25 46 3 26 12 -9 43 -27 69
-41z m3968 -21 c105 -31 213 -90 263 -143 39 -42 57 -71 44 -71 -1 0 -29 20
-62 44 -32 25 -62 43 -67 40 -4 -3 -18 2 -30 10 -42 27 -259 96 -329 104 -38
5 -93 5 -122 1 -114 -16 -102 -5 28 26 72 18 196 12 275 -11z m-1776 -15 c27
-6 61 -27 87 -51 24 -22 54 -47 67 -55 27 -19 32 -49 5 -32 -15 8 -27 2 -71
-40 -82 -77 -174 -99 -224 -54 -10 9 -18 26 -18 39 0 21 2 20 34 -12 24 -24
43 -34 65 -34 70 0 128 103 85 151 -26 29 -68 49 -103 49 -59 0 -81 23 -38 40
30 12 60 12 111 -1z m2127 -31 c61 -28 137 -99 194 -183 61 -88 36 -86 -51 4
-96 100 -153 144 -242 183 l-67 29 55 -4 c31 -2 80 -15 111 -29z m-3576 4 c33
-10 60 -22 60 -28 0 -5 -16 -18 -36 -28 -44 -24 -97 -16 -136 20 -16 14 -23
23 -16 20 7 -4 17 3 23 14 13 24 28 25 105 2z m-2140 -191 c-15 -47 -110 -182
-132 -189 -22 -7 -15 43 12 79 64 89 120 215 127 283 1 12 4 -12 5 -53 3 -48
-1 -89 -12 -120z m1528 151 c27 -29 102 -62 157 -69 68 -8 50 -25 -27 -26 -78
0 -129 27 -159 85 -12 24 -12 28 -1 28 8 0 21 -8 30 -18z m2046 -18 c36 -30
39 -52 10 -83 -32 -34 -70 -25 -93 23 l-19 39 27 24 c34 29 38 29 75 -3z
m-1570 -17 c0 -12 -6 -38 -14 -57 l-13 -35 0 45 c0 25 2 53 4 63 7 23 24 11
23 -16z m3067 -5 c-3 -5 -47 -9 -98 -9 -63 -1 -83 1 -63 7 41 10 167 12 161 2z
m299 -52 c86 -25 63 -33 -79 -26 -145 7 -226 21 -226 39 0 13 249 2 305 -13z
m1440 -31 c8 -36 78 -132 132 -180 22 -20 71 -54 108 -75 38 -21 63 -40 57
-42 -33 -11 -178 64 -233 121 -37 38 -88 140 -96 193 -6 35 -5 38 10 26 9 -7
19 -27 22 -43z m-4667 -6 c-28 -31 -36 -52 -48 -138 -12 -81 -47 -230 -60
-254 -5 -11 -10 -40 -10 -65 0 -25 -4 -46 -10 -46 -15 0 -40 98 -40 159 -1 43
-3 52 -11 38 -6 -9 -10 -61 -10 -114 0 -58 -4 -91 -9 -83 -6 10 -10 7 -15 -13
-5 -20 1 -41 24 -82 17 -30 31 -57 31 -61 0 -3 -14 5 -31 17 -41 29 -66 72
-80 136 -14 61 -25 60 -35 -2 -5 -39 -3 -51 20 -85 14 -22 24 -40 21 -40 -11
0 -84 62 -89 76 -8 20 19 88 54 139 25 36 60 113 60 131 0 2 -10 3 -23 2 -30
-3 -87 21 -87 36 0 7 26 27 58 46 31 19 97 72 146 118 78 74 130 110 160 112
6 0 -2 -12 -16 -27z m-392 -45 c28 -29 66 -65 84 -81 46 -38 32 -44 -34 -14
-57 26 -116 92 -116 129 0 28 10 22 66 -34z m5747 -8 c50 -55 76 -109 93 -198
25 -127 -1 -328 -52 -407 -14 -22 -22 -31 -18 -20 4 11 16 45 27 75 48 128 13
402 -54 427 -21 8 -29 8 -29 0 0 -5 -3 -7 -7 -4 -3 4 -7 28 -9 54 -1 26 -5 62
-9 80 -8 46 13 43 58 -7z m-5333 5 c0 -8 -4 -15 -9 -15 -13 0 -22 16 -14 24
11 11 23 6 23 -9z m3949 -64 c41 -49 102 -87 121 -76 6 3 10 1 10 -4 0 -6 -21
-11 -48 -11 -41 0 -52 4 -78 33 -35 38 -68 85 -77 110 -11 30 26 3 72 -52z
m-2579 -11 l98 0 -5 -64 c-4 -48 0 -81 16 -135 20 -66 26 -74 69 -101 50 -32
107 -39 170 -21 30 9 32 8 32 -17 0 -15 -16 -51 -37 -80 -84 -122 -40 -260
115 -359 29 -19 50 -38 47 -44 -4 -5 -11 -7 -16 -3 -19 11 -59 11 -66 0 -3 -6
-3 -8 2 -4 4 4 13 4 19 -1 30 -23 209 -53 241 -41 27 10 69 84 61 106 -3 9 -1
12 4 9 6 -3 10 -1 10 4 0 6 -4 11 -9 11 -4 0 -6 11 -3 25 6 35 15 31 35 -13
14 -31 19 -100 28 -377 10 -290 7 -700 -4 -712 -8 -7 -75 64 -79 83 -2 10 -13
20 -25 22 -15 2 -23 12 -27 35 -6 32 -65 98 -99 110 -10 4 -16 11 -13 16 3 5
-3 20 -13 32 l-19 24 -24 -21 c-12 -12 -37 -29 -55 -38 -17 -8 -41 -28 -52
-42 l-21 -27 0 25 c0 33 42 71 112 102 49 22 58 30 63 58 8 42 -5 75 -45 116
-26 26 -40 32 -75 32 -42 0 -43 1 -54 44 -7 28 -22 53 -42 70 -17 14 -35 41
-40 59 -5 21 -19 38 -34 45 -14 6 -25 18 -25 25 0 19 -40 53 -70 60 -20 5 -28
16 -38 51 -10 37 -17 47 -46 57 -27 10 -36 19 -41 46 -7 39 -57 82 -112 98
-32 9 -39 15 -41 40 -2 19 -18 45 -46 71 -41 40 -42 42 -39 100 2 32 15 146
28 252 14 106 25 222 25 258 l0 67 21 -27 c20 -25 24 -26 119 -26z m2256 5
c40 -23 71 -52 63 -59 -2 -2 -47 19 -99 46 -90 46 -93 48 -50 42 25 -3 63 -16
86 -29z m-311 -44 l30 -23 -85 7 c-47 3 -119 15 -160 26 l-75 19 130 -3 c120
-2 133 -4 160 -26z m-4418 -27 c82 -41 159 -103 130 -104 -9 0 -41 14 -71 30
l-53 30 -54 -26 c-30 -15 -57 -32 -60 -37 -4 -6 -19 -1 -37 12 -17 11 -33 21
-36 21 -4 0 -23 7 -43 15 l-36 15 29 31 c64 69 116 72 231 13z m-1230 -137
c-3 -51 -13 -84 -37 -132 -31 -61 -50 -81 -50 -53 0 6 12 40 26 76 15 38 30
104 37 161 10 90 11 94 20 56 5 -22 7 -71 4 -108z m1422 123 c82 -41 158 -177
168 -300 5 -54 3 -71 -5 -66 -7 4 -12 18 -12 30 0 13 -14 52 -31 87 -18 35
-39 79 -48 97 -9 18 -17 28 -19 22 -3 -7 -9 -7 -19 1 -12 10 -16 10 -23 -2 -8
-11 -12 -11 -24 6 -9 11 -16 24 -16 29 0 5 -16 31 -35 57 -19 27 -35 51 -35
54 0 13 65 3 99 -15z m860 -92 c0 -61 -3 -86 -9 -73 -13 29 -12 -2 1 -48 5
-20 7 -43 3 -49 -12 -19 -35 113 -29 165 6 49 21 97 30 97 3 0 5 -42 4 -92z
m41 2 c0 -40 -4 -70 -10 -70 -11 0 -11 5 -11 75 0 63 0 65 11 65 6 0 10 -30
10 -70z m4059 23 c48 -58 119 -243 93 -243 -17 0 -98 40 -82 40 40 1 41 15 8
86 -17 38 -42 86 -55 106 -27 44 -28 48 -9 48 8 0 28 -17 45 -37z m-5397 10
c24 -9 59 -27 78 -41 32 -22 33 -24 9 -18 -14 3 -29 3 -33 -1 -4 -4 -12 -8
-19 -9 -58 -12 -115 -44 -142 -81 -16 -22 -49 -51 -73 -64 -23 -13 -45 -32
-48 -41 -3 -10 -10 -18 -16 -18 -5 0 -8 -17 -6 -37 4 -53 -15 -53 -29 -1 -57
210 98 382 279 311z m6185 -35 c6 -7 18 -38 27 -68 31 -101 49 -140 62 -140 7
0 22 -15 33 -34 12 -19 37 -46 57 -61 49 -38 35 -42 -26 -9 -95 51 -155 145
-179 277 -6 35 -5 47 4 47 7 0 17 -6 22 -12z m-4837 -134 c0 -8 -5 -24 -10
-34 -7 -13 -7 -21 0 -25 12 -7 13 -25 2 -25 -10 0 -28 36 -36 70 -4 22 -1 26
19 28 17 1 25 -3 25 -14z m-2746 -194 l46 -60 -29 0 c-37 0 -43 -10 -46 -75
-2 -29 -6 -58 -10 -64 -3 -6 4 -28 17 -49 20 -33 14 -30 -54 31 -42 38 -82 82
-88 97 -20 47 -8 195 19 258 l24 52 38 -65 c21 -36 59 -93 83 -125z m2076 151
c54 -57 82 -121 79 -179 -2 -32 3 -58 16 -82 11 -22 20 -63 23 -112 4 -66 2
-81 -18 -113 -21 -33 -78 -85 -94 -85 -4 0 5 15 20 33 68 80 81 167 38 247
-21 39 -24 51 -15 69 21 37 3 115 -36 161 -19 22 -38 38 -42 35 -4 -2 -13 11
-19 30 -14 47 1 46 48 -4z m-1774 -58 c52 -81 75 -154 81 -255 7 -101 1 -108
-70 -90 -38 9 -39 10 -12 11 17 1 36 5 44 10 19 12 10 77 -26 191 -17 52 -37
116 -46 143 -8 26 -13 47 -11 47 2 0 20 -26 40 -57z m6493 18 l35 -18 -30 -16
c-37 -19 -152 -49 -167 -44 -16 6 58 37 108 46 l40 7 -31 6 c-18 4 -31 13 -31
22 0 21 33 20 76 -3z m-5703 -18 c3 -16 10 -43 16 -62 9 -27 8 -37 -4 -45 -9
-7 -13 -23 -11 -45 4 -32 3 -33 -21 -27 -15 4 -26 2 -26 -4 0 -5 4 -10 8 -10
4 0 8 -8 9 -17 6 -61 23 -117 40 -135 13 -12 48 -25 93 -34 81 -15 89 -19 72
-36 -8 -8 -19 -7 -44 3 -17 7 -47 12 -65 10 -28 -2 -41 4 -73 36 -21 22 -41
53 -45 69 -3 16 -15 59 -27 97 -18 59 -19 73 -8 115 11 47 53 112 70 112 5 0
12 -12 16 -27z m529 2 c-52 -42 -115 -43 -121 -1 -2 14 3 16 24 12 15 -4 47
-2 72 3 25 5 47 9 50 10 3 0 -8 -11 -25 -24z m1139 -42 c21 -42 21 -48 -10
-68 -35 -23 -44 -9 -44 73 0 61 1 62 19 45 10 -10 26 -32 35 -50z m-1284 38
c0 -24 -44 -77 -69 -84 -13 -3 -28 4 -43 21 -18 20 -19 24 -5 19 33 -12 79 5
96 34 19 34 21 35 21 10z m2270 4 c15 -18 8 -19 -55 -8 -31 5 -35 8 -20 14 32
12 62 10 75 -6z m4491 -49 c14 -31 19 -64 18 -141 0 -132 -22 -308 -43 -340
-22 -33 -26 -32 -16 8 5 17 11 105 14 195 5 160 5 163 -19 188 -23 24 -23 27
-9 66 8 22 14 49 14 60 0 29 19 12 41 -36z m-6545 -8 c13 -40 35 -71 87 -125
39 -40 68 -75 66 -77 -3 -3 -34 17 -70 43 -52 39 -72 61 -99 114 -29 55 -32
67 -21 81 7 9 15 16 16 16 2 0 11 -24 21 -52z m2148 -7 c3 -5 -5 -11 -18 -13
-17 -4 -23 -1 -19 9 6 15 29 18 37 4z m-2484 -52 c0 -18 -5 -29 -11 -27 -6 2
-10 7 -10 11 1 4 1 19 1 33 0 14 4 23 10 19 6 -3 10 -20 10 -36z m2420 31
c-13 -9 -13 -10 0 -10 13 0 13 -1 0 -10 -19 -12 -110 -13 -129 -1 -28 18 1 31
72 31 50 0 67 -3 57 -10z m3959 -82 c6 -29 13 -74 16 -99 6 -47 52 -152 99
-228 22 -35 24 -40 8 -32 -27 14 -98 94 -117 131 -37 73 -55 143 -55 222 0 75
1 78 19 68 13 -6 23 -28 30 -62z m-1026 38 c26 -24 44 -83 34 -110 -3 -8 -30
-22 -58 -30 -60 -18 -123 -21 -114 -6 3 6 22 10 41 10 33 0 104 23 104 34 0 2
-14 27 -31 55 -42 67 -27 95 24 47z m-4237 -49 c11 -54 41 -103 86 -141 25
-21 37 -36 27 -36 -28 0 -119 52 -139 80 -20 28 -26 82 -14 128 8 30 30 13 40
-31z m309 33 c7 -23 -2 -60 -15 -60 -5 0 -14 8 -19 18 -9 15 -10 13 -11 -10 0
-34 13 -42 40 -26 17 11 22 11 29 -1 16 -25 1 -51 -29 -51 -32 0 -45 13 -54
55 -12 58 43 127 59 75z m-1435 -52 c26 -43 25 -64 -5 -93 -28 -29 -57 -35
-33 -7 26 28 30 58 14 96 -19 45 -2 47 24 4z m2562 -10 c21 -12 18 -13 -44
-19 -38 -3 -70 -8 -73 -11 -3 -3 23 -19 57 -36 72 -36 55 -42 -45 -16 -84 22
-101 32 -86 50 9 12 7 14 -17 14 -39 0 -19 16 36 29 55 12 140 7 172 -11z
m-2116 -93 c-8 -47 19 -167 50 -227 9 -17 11 -27 5 -23 -17 10 -56 92 -75 154
-15 51 -14 86 6 124 15 30 21 19 14 -28z m1062 -2 c-2 -9 -12 -17 -22 -19 -11
-1 -24 -10 -29 -19 -12 -21 -37 -2 -37 29 1 20 1 20 15 2 13 -18 14 -17 21 8
12 50 62 50 52 -1z m1988 8 c-3 -5 -16 -11 -28 -14 -22 -6 -22 -5 -4 8 22 17
40 20 32 6z m-4918 -54 c37 -38 96 -152 87 -167 -3 -6 -24 -10 -47 -10 l-41 0
7 -42 c9 -59 53 -118 110 -149 l48 -26 -38 -6 c-30 -5 -46 -2 -71 16 -77 52
-133 171 -133 282 0 63 20 135 38 135 4 0 23 -15 40 -33z m2613 -48 c15 -31
29 -41 67 -54 l47 -15 -43 4 c-82 8 -158 67 -146 113 6 21 7 21 31 6 13 -9 33
-33 44 -54z m4068 62 c11 -7 8 -13 -14 -27 -30 -20 -139 -32 -148 -16 -4 5 21
19 56 30 69 24 86 26 106 13z m-1619 -219 c9 -132 21 -202 42 -226 4 -6 8 -19
8 -29 0 -10 8 -32 17 -48 13 -23 24 -29 43 -27 20 2 26 10 31 38 4 19 7 -84 8
-230 1 -188 -4 -309 -16 -417 -9 -84 -13 -156 -10 -160 9 -8 212 84 228 104 8
9 10 34 6 73 -6 51 -4 60 12 65 9 3 43 20 74 39 63 38 62 39 72 -55 8 -79 -5
-118 -65 -183 -56 -61 -148 -119 -273 -171 -123 -52 -277 -99 -289 -87 -4 4 1
41 11 82 10 41 21 101 25 133 4 32 10 56 13 54 6 -7 38 25 52 52 18 32 14 89
-6 95 -17 5 -18 41 -19 562 0 486 2 552 14 518 7 -22 18 -104 22 -182z m-2141
191 c9 -17 10 -17 16 0 11 26 26 20 21 -8 -5 -27 3 -32 23 -12 10 10 15 9 25
-5 14 -19 42 -25 30 -7 -7 12 63 4 101 -12 18 -7 18 -8 -5 -8 -19 -1 -21 -4
-12 -13 19 -19 15 -25 -40 -57 -29 -17 -47 -31 -40 -31 8 0 12 -6 9 -12 -2 -7
0 -21 5 -31 5 -10 11 -28 13 -39 6 -27 34 -58 54 -58 9 0 23 -5 31 -11 32 -23
-46 3 -126 41 -120 57 -165 117 -140 185 8 22 15 34 15 28 1 -14 31 -18 31 -4
0 5 -6 14 -14 20 -16 14 -28 51 -16 51 5 0 13 -8 19 -17z m1238 2 c12 -8 23
-24 25 -35 2 -12 8 -20 13 -18 6 1 12 -11 15 -28 4 -23 1 -30 -15 -35 -23 -6
-45 12 -45 35 0 19 -9 20 -32 2 -22 -16 -23 -26 -3 -26 18 0 20 -24 3 -38 -7
-6 -32 -18 -55 -27 -42 -17 -43 -17 -72 7 -18 14 -28 29 -25 39 3 12 -3 18
-21 21 -14 3 -25 1 -25 -5 0 -8 -4 -7 -11 0 -14 14 32 78 76 105 38 23 141 25
172 3z m-3637 -64 c42 -33 102 -144 98 -180 -4 -35 -48 -44 -48 -10 0 13 -19
54 -42 92 -35 59 -49 73 -95 94 -57 27 -67 38 -28 31 14 -3 22 -1 18 5 -12 19
63 -5 97 -32z m4263 12 c-13 -2 -33 -2 -45 0 -13 2 -3 4 22 4 25 0 35 -2 23
-4z m3042 -200 c2 -87 8 -172 13 -190 6 -18 13 -63 16 -100 l6 -68 -16 35
c-46 100 -67 194 -68 310 -1 94 2 121 17 148 10 19 21 31 24 28 3 -3 7 -76 8
-163z m-1290 127 c-33 -16 -76 -28 -95 -28 -34 0 -34 0 11 13 26 7 57 20 70
29 13 9 35 16 49 15 19 0 12 -7 -35 -29z m1830 -32 c28 -94 14 -191 -42 -303
-29 -56 -90 -141 -123 -170 l-23 -20 21 40 c11 22 34 53 51 70 21 19 39 52 52
95 25 79 38 228 20 239 -9 6 -9 15 -1 35 5 15 10 39 10 52 0 39 18 19 35 -38z
m-5195 32 c-5 -9 -16 -22 -24 -30 -31 -25 -17 -32 58 -28 54 2 80 8 95 22 20
18 20 18 14 -20 -7 -48 -46 -102 -79 -110 -37 -10 -73 11 -90 52 -8 20 -27 46
-42 59 l-26 22 29 26 c34 29 79 34 65 7z m-910 -38 c0 -63 -22 -134 -55 -182
-53 -76 -71 -44 -26 47 11 22 26 63 32 90 24 100 49 123 49 45z m1620 18 c21
-22 37 -30 63 -30 45 0 51 -10 33 -55 -17 -39 -35 -50 -70 -41 -44 11 -110
156 -71 156 9 0 30 -13 45 -30z m-1137 -44 c36 -61 40 -64 90 -73 l52 -10 -43
-2 c-43 -1 -107 24 -130 51 -14 18 -27 98 -16 98 5 0 26 -29 47 -64z m3471 23
c-8 -14 42 -29 94 -29 36 0 43 3 32 11 -12 8 -12 10 4 7 37 -6 21 -23 -24 -26
-53 -4 -122 14 -155 40 -37 29 -30 38 15 21 22 -9 37 -20 34 -24z m-4354 12
c0 -5 -9 -12 -19 -16 -18 -5 -41 -74 -41 -120 0 -8 -4 -15 -9 -15 -5 0 -15
-15 -21 -34 -6 -19 -17 -39 -25 -46 -11 -9 -12 0 -8 52 6 81 28 143 60 168 27
21 63 27 63 11z m2400 -21 c12 -8 10 -10 -10 -9 -14 0 -43 4 -65 8 l-40 9 50
1 c28 0 57 -4 65 -9z m1719 -98 c19 -14 31 -21 27 -14 -4 6 3 16 16 23 22 12
22 12 7 -12 -25 -38 -49 -34 -104 16 -48 44 -48 45 -15 29 19 -9 50 -28 69
-42z m-1592 2 c27 -36 9 -45 -41 -19 -31 17 -60 20 -52 6 7 -11 -124 -24 -158
-15 -38 9 -20 27 21 19 50 -9 93 2 86 22 -10 24 126 12 144 -13z m2123 -84
c57 -84 137 -236 129 -244 -2 -3 -28 1 -58 6 -51 11 -52 12 -30 24 21 11 14
12 -56 11 l-80 -2 -3 31 -3 30 -33 -31 c-40 -37 -120 -65 -187 -65 -47 0 -49
1 -49 29 0 28 1 28 45 23 70 -7 107 36 70 84 -8 10 -15 22 -15 26 0 3 36 6 80
5 53 -1 80 -6 80 -13 0 -6 8 -15 18 -18 9 -4 29 -13 43 -21 17 -9 35 -12 54
-7 44 12 42 31 -5 38 -35 6 -49 16 -91 68 -27 33 -49 64 -49 68 0 10 56 1 81
-12 31 -17 31 -11 -2 38 -18 26 -26 41 -17 34 9 -8 44 -54 78 -102z m-5784 45
c63 -19 109 -61 140 -130 13 -31 24 -60 24 -65 0 -20 -46 12 -59 41 -42 95
-137 142 -271 134 l-75 -5 60 19 c74 24 117 25 181 6z m3149 -261 c-43 -335
-71 -592 -85 -799 -7 -88 -13 -162 -15 -164 -9 -8 -158 70 -241 127 -94 64
-176 142 -214 205 -19 32 -22 49 -18 107 2 38 6 71 9 75 6 6 93 -39 121 -62
15 -13 15 -18 2 -50 -13 -30 -13 -38 -1 -56 21 -32 186 -130 192 -115 2 7 14
108 25 223 33 342 72 623 91 655 5 10 8 -3 9 -37 0 -68 18 -70 75 -9 32 33 45
57 55 97 15 71 19 83 25 77 3 -3 -10 -126 -30 -274z m-958 250 c3 -9 1 -19 -6
-23 -6 -4 -9 -14 -6 -23 4 -11 -15 -29 -70 -63 -47 -29 -74 -52 -71 -60 7 -19
-21 -27 -46 -14 -23 13 -39 2 -18 -12 8 -5 35 -8 59 -6 34 4 49 12 68 35 14
19 30 29 38 25 8 -3 15 -1 15 4 0 6 23 22 52 38 l51 28 24 -29 c28 -36 28 -35
-2 -64 -24 -22 -25 -22 -60 -5 -20 9 -39 14 -42 11 -4 -3 -2 -6 3 -6 5 0 20
-9 34 -20 l25 -19 -29 -30 c-32 -34 -36 -69 -12 -106 15 -23 63 -59 90 -68 5
-2 1 -18 -10 -36 -16 -26 -23 -31 -44 -26 -74 18 -156 111 -170 193 l-7 47 -8
-34 c-9 -37 5 -36 -144 -13 l-45 7 49 59 c61 76 83 95 178 159 42 28 77 55 77
59 0 15 21 8 27 -8z m3433 -41 c43 -46 43 -46 20 -55 -29 -11 -59 -1 -85 26
-11 12 -28 25 -38 29 -27 10 -20 26 16 36 17 5 35 10 38 10 4 1 26 -20 49 -46z
m-2408 -12 c-4 -42 4 -53 35 -45 15 4 19 11 15 26 -3 13 -1 19 5 15 6 -4 8 4
5 21 -5 26 -4 26 14 11 10 -9 29 -20 42 -24 15 -4 25 -17 29 -36 6 -29 44 -59
77 -59 8 0 17 -13 21 -30 6 -27 39 -57 56 -53 4 1 9 -11 13 -28 8 -42 40 -84
75 -98 27 -12 29 -17 33 -77 3 -54 8 -69 31 -92 27 -27 57 -31 132 -20 13 2
21 -4 23 -17 5 -25 41 -65 59 -65 8 0 13 -11 13 -28 0 -31 25 -72 44 -72 7 0
21 9 31 20 10 11 21 18 23 15 3 -3 -5 -16 -18 -30 -22 -23 -22 -25 -6 -50 9
-14 20 -25 25 -25 4 0 6 -12 3 -26 -3 -17 -14 -29 -33 -36 -15 -5 -30 -15 -33
-23 -2 -7 -21 -21 -40 -30 -38 -18 -46 -44 -22 -65 8 -6 16 -26 18 -43 2 -18
8 -31 13 -30 6 1 22 4 37 8 23 6 28 3 34 -19 9 -37 42 -33 93 10 42 36 42 36
57 16 l14 -21 44 30 c25 16 46 33 49 37 2 4 2 0 0 -8 -3 -8 -7 -31 -10 -50 -3
-19 -12 -47 -19 -62 -19 -37 -17 -61 6 -90 26 -34 61 -39 150 -22 54 10 112
33 207 81 72 37 129 71 127 75 -3 4 2 5 11 2 11 -5 14 -2 9 12 -5 16 -4 16 5
4 10 -14 16 -7 12 13 -1 5 4 5 10 2 7 -5 7 -11 1 -17 -6 -6 -8 -17 -5 -26 4
-10 2 -13 -5 -8 -8 5 -10 2 -5 -10 5 -13 10 -9 23 18 18 37 60 85 60 68 0 -25
-94 -201 -139 -260 -70 -92 -206 -220 -281 -264 -134 -79 -343 -154 -494 -177
-98 -16 -339 -5 -441 20 -247 60 -473 185 -620 343 -42 45 -90 105 -107 132
l-30 50 73 -65 c41 -35 92 -73 114 -83 36 -16 40 -16 51 -2 10 15 12 14 17 -4
3 -13 13 -20 29 -20 13 0 18 3 12 8 -19 11 -21 55 -4 59 12 4 12 3 1 -5 -8 -6
-9 -12 -3 -16 6 -3 14 -1 17 5 4 5 14 8 22 5 8 -3 20 -3 26 1 6 3 27 7 46 7
35 1 36 2 39 46 2 25 -1 126 -8 225 -12 195 -2 368 41 665 11 74 24 171 30
215 10 79 16 105 21 105 2 0 2 -17 0 -39z m-2227 -3 c-4 -13 -12 -37 -18 -55
-8 -23 -8 -42 1 -69 17 -55 6 -55 -19 0 -22 50 -20 82 7 124 8 12 19 22 25 22
6 0 8 -9 4 -22z m2694 -22 c15 -8 33 -22 40 -30 11 -14 11 -16 -5 -16 -30 0
-104 34 -104 48 0 16 35 15 69 -2z m-2235 -43 c-18 -83 -27 -106 -57 -145 -34
-44 -90 -88 -113 -88 -22 0 -6 25 56 87 44 44 60 67 65 98 7 39 30 75 47 75 4
0 6 -12 2 -27z m5608 -41 l17 -57 -25 -20 c-21 -17 -25 -31 -30 -90 -10 -135
-22 -147 -44 -44 -11 50 -11 77 -2 131 12 69 48 155 60 144 3 -4 14 -32 24
-64z m-7613 20 c21 -50 76 -99 167 -146 49 -25 100 -56 114 -67 l25 -21 -49 6
c-59 7 -143 44 -196 86 -38 30 -72 87 -85 143 -9 35 9 35 24 -1z m828 -12 c39
-17 67 -52 137 -167 12 -21 1 -15 -60 32 -51 40 -75 49 -121 48 -7 -1 -17 17
-23 38 -6 21 -15 41 -20 44 -6 3 -10 10 -10 16 0 15 52 10 97 -11z m5107 -44
c24 -81 20 -110 -19 -170 -36 -54 -66 -80 -122 -109 -45 -24 -51 -22 -62 21
-15 50 -15 50 17 56 15 4 41 17 57 30 l30 24 -18 66 c-10 37 -15 71 -12 77 6
9 94 58 107 59 4 0 14 -24 22 -54z m-4457 28 c9 -24 -7 -33 -87 -44 -83 -11
-130 -27 -130 -43 0 -5 -9 -2 -20 8 -26 23 -13 40 55 71 62 29 172 34 182 8z
m1622 -5 c-8 -15 -8 -19 0 -15 16 10 13 -7 -5 -30 -14 -17 -15 -17 -10 -1 4
11 2 16 -5 12 -6 -4 -8 -14 -5 -22 6 -16 -21 -67 -61 -116 -13 -16 -23 -37
-23 -48 0 -19 -1 -19 -25 -3 -14 9 -35 30 -47 46 l-21 30 84 84 c57 57 91 84
107 84 20 0 21 -2 11 -21z m2495 -94 l59 -79 -27 -23 c-15 -13 -31 -23 -35
-23 -8 0 -24 48 -36 110 -4 19 -16 52 -26 72 -11 21 -19 41 -19 45 1 9 6 3 84
-102z m-2700 72 c-3 -8 -19 -24 -37 -37 l-32 -23 34 37 c38 40 43 43 35 23z
m426 -93 c-32 -93 -64 -227 -75 -305 -5 -37 -2 -50 15 -71 20 -26 27 -68 12
-68 -4 0 -29 14 -55 30 -26 17 -52 30 -57 30 -14 0 -13 5 14 58 13 26 56 131
96 235 40 103 75 186 77 184 1 -2 -11 -44 -27 -93z m-2174 70 c39 -16 114 -80
114 -98 0 -5 -8 -2 -17 6 -53 44 -130 58 -206 37 -34 -9 -36 -12 -26 -32 8
-15 -1 -10 -26 15 -24 23 -36 42 -32 52 13 34 130 46 193 20z m3348 -12 c3 -5
3 -25 -1 -46 -5 -31 -8 -35 -21 -24 -13 11 -15 10 -9 -5 5 -13 3 -17 -5 -15
-7 3 -17 19 -23 36 -11 38 -24 43 -17 7 2 -14 1 -25 -3 -25 -8 0 -44 42 -45
52 -1 19 113 37 124 20z m3627 -112 c-13 -105 -56 -221 -107 -293 -19 -26 -41
-65 -50 -86 -8 -21 -29 -48 -47 -61 l-32 -23 31 34 c32 36 59 88 49 97 -3 3
-5 0 -5 -6 0 -12 -50 -62 -63 -62 -4 0 -18 -9 -30 -21 -12 -11 -31 -25 -42
-30 -15 -8 -14 -5 5 13 14 13 64 63 110 111 66 69 81 90 70 97 -12 8 -12 11 2
27 27 30 69 135 75 188 6 48 5 49 -13 34 -46 -38 -45 -29 1 23 27 31 51 55 53
53 2 -2 -1 -44 -7 -95z m-3733 43 c11 -10 23 -29 27 -43 6 -20 5 -23 -6 -12
-7 6 -26 12 -42 12 -27 0 -28 -2 -22 -32 4 -18 14 -39 23 -45 13 -11 13 -13 1
-13 -19 0 -89 65 -89 84 0 17 55 66 75 66 7 0 22 -8 33 -17z m-2592 -60 c-4
-38 -16 -86 -26 -108 -24 -49 -90 -95 -137 -95 -31 0 -33 2 -23 20 6 11 21 22
34 26 41 10 95 76 121 149 14 37 25 70 25 71 0 2 3 4 6 4 4 0 4 -30 0 -67z
m2380 36 c4 -8 1 -8 -14 0 -12 6 -24 16 -28 22 -4 8 -1 8 14 0 12 -6 24 -16
28 -22z m-1676 6 c0 -2 -13 -11 -29 -20 -27 -13 -31 -13 -45 1 -23 22 -21 24
29 24 25 0 45 -2 45 -5z m2854 -228 l24 -77 -28 -20 c-16 -11 -30 -20 -33 -20
-2 0 -7 62 -10 138 -3 75 -9 148 -11 162 -6 26 19 -52 58 -183z m-2383 101
l57 -57 -36 -18 c-35 -17 -37 -21 -36 -64 0 -31 7 -56 23 -77 25 -35 87 -72
122 -72 20 0 21 -4 16 -45 -2 -26 -7 -48 -10 -51 -3 -3 -33 2 -67 12 -100 28
-142 79 -181 220 -27 102 -27 115 7 185 24 50 29 57 38 42 5 -10 35 -44 67
-75z m4535 46 c4 -28 2 -54 -5 -67 -14 -26 -31 -168 -24 -200 4 -20 3 -20 -10
3 -39 67 -47 233 -14 284 26 40 45 33 53 -20z m-3238 20 c43 -30 18 -79 -27
-54 -33 17 -27 -20 7 -53 31 -30 63 -35 82 -12 7 8 18 15 24 15 6 -1 0 -10
-13 -20 -34 -29 -85 -26 -110 6 -24 31 -30 119 -8 127 19 8 21 8 45 -9z
m-1739 2 c-2 -2 -19 -11 -36 -20 -28 -14 -33 -14 -33 -2 0 8 8 17 18 19 22 6
57 8 51 3z m3167 -41 c24 -65 22 -90 -19 -180 -56 -126 -128 -194 -216 -207
-20 -3 -25 3 -37 41 -7 25 -11 48 -9 52 3 4 20 10 39 13 62 12 116 73 116 131
0 14 -11 37 -25 51 -14 14 -25 27 -25 29 0 1 19 14 43 28 23 14 55 39 71 56
17 17 33 31 37 31 4 0 15 -20 25 -45z m-5434 23 c7 -7 31 -26 53 -42 22 -16
56 -44 76 -63 74 -70 239 -115 344 -94 27 5 51 8 53 7 1 -2 -23 -16 -55 -31
-95 -44 -209 -35 -312 27 -92 55 -181 148 -181 190 0 21 4 22 22 6z m6226 -78
c64 -23 158 -55 207 -72 86 -29 125 -51 113 -63 -3 -3 -28 -8 -56 -12 -53 -6
-155 20 -347 87 -44 16 -114 38 -155 51 -89 26 -103 36 -64 44 16 4 34 9 39
11 33 13 156 -9 263 -46z m-4897 -49 c-74 -115 -195 -197 -304 -208 -59 -5
-173 11 -180 25 -2 4 14 23 36 42 33 29 39 31 33 14 -5 -18 -2 -22 25 -28 66
-13 125 -6 174 19 66 35 156 107 202 159 47 55 55 42 14 -23z m2969 62 c0 -16
-35 -43 -57 -43 -39 0 -23 32 22 43 31 7 35 7 35 0z m-1970 -24 c-19 -5 -78
-15 -130 -23 -52 -8 -107 -20 -122 -28 -27 -15 -25 -15 50 -21 96 -8 234 -28
228 -34 -2 -2 -28 -7 -57 -9 -98 -9 -213 -43 -306 -90 -91 -45 -146 -86 -94
-69 14 4 21 3 18 -2 -9 -15 70 -5 138 17 33 10 89 24 125 30 36 6 78 13 94 16
19 4 26 3 22 -5 -4 -6 -17 -11 -29 -11 -22 0 -177 -89 -177 -102 0 -5 19 -8
43 -8 23 0 49 -5 57 -10 12 -8 9 -12 -17 -22 -18 -7 -33 -16 -33 -20 0 -4 -33
-23 -72 -41 -64 -29 -116 -67 -92 -67 4 0 -1 -7 -12 -16 -16 -13 -16 -15 -2
-10 10 3 20 1 23 -4 4 -6 0 -10 -7 -10 -9 0 -9 -3 2 -10 8 -5 22 -7 32 -4 35
11 24 -13 -22 -51 -27 -22 -49 -44 -50 -48 0 -5 -6 -14 -12 -21 -54 -55 -177
-216 -200 -261 -12 -22 -31 -53 -44 -68 -21 -25 -24 -26 -24 -9 0 11 16 53 35
93 39 81 45 110 20 89 -10 -8 -15 -9 -15 -2 0 6 26 37 58 68 31 31 44 47 28
35 -20 -15 -33 -18 -41 -11 -6 5 -15 7 -19 3 -4 -4 -4 1 -1 12 9 27 -23 -11
-75 -90 -22 -33 -46 -69 -54 -80 -15 -19 -15 -19 -16 7 0 15 9 50 19 78 11 27
16 48 12 45 -7 -4 -18 -27 -56 -122 -21 -51 -55 -209 -55 -255 0 -21 -4 -38
-10 -38 -14 0 -12 70 4 170 15 93 83 268 142 366 19 31 32 59 30 61 -5 6 -81
-39 -114 -66 -31 -27 -93 -162 -100 -217 -7 -63 -22 -65 -22 -2 0 65 33 204
61 261 25 49 123 189 188 266 42 50 43 53 13 31 -27 -20 -48 -25 -140 -30 -60
-4 -115 -10 -123 -15 -8 -5 -6 0 4 12 26 29 120 77 229 117 146 54 167 64 164
82 -1 8 -9 20 -17 25 -8 5 -10 9 -4 9 5 0 -1 7 -13 16 -13 9 -26 13 -30 9 -4
-4 -1 -10 6 -12 6 -3 9 -10 6 -15 -4 -7 -2 -8 4 -4 7 4 12 1 12 -8 0 -24 -13
-19 -49 18 -21 21 -30 39 -26 47 5 7 4 10 -2 6 -6 -4 -14 0 -17 9 -5 13 2 14
52 9 53 -7 236 13 322 34 19 5 94 9 165 9 95 0 120 -2 95 -9z m2019 -23 c10
-12 5 -16 -25 -26 -20 -7 -54 -30 -75 -52 -33 -34 -39 -37 -39 -20 0 27 47 81
85 98 38 17 40 17 54 0z m1673 -7 c2 -6 16 -12 31 -12 15 -1 27 -6 27 -10 0
-5 6 -7 12 -5 7 3 24 -6 38 -19 14 -13 43 -28 65 -33 22 -6 56 -15 75 -20 19
-5 46 -12 59 -16 l24 -6 -22 -13 c-23 -12 -22 -12 28 -49 104 -77 191 -200
238 -336 22 -64 30 -140 16 -140 -8 0 -34 54 -78 157 -28 66 -187 277 -226
300 -16 10 -29 20 -29 24 0 4 -7 10 -16 13 -12 5 -11 0 4 -22 11 -15 24 -37
31 -49 10 -20 8 -20 -47 8 -31 16 -62 29 -67 29 -22 0 -219 106 -223 119 -4
12 7 13 57 8 33 -4 61 -5 61 -2 0 3 -17 13 -37 24 -21 11 -46 29 -55 40 -17
20 -17 21 6 21 14 0 26 -5 28 -11z m-1619 -44 c1 -5 -12 -17 -29 -25 -17 -8
-35 -24 -40 -35 -6 -13 -21 -21 -41 -23 -23 -2 -30 -7 -26 -18 3 -8 -1 -14
-11 -14 -9 0 -16 -6 -16 -12 -1 -7 -7 -2 -14 11 -12 22 -11 27 17 53 18 15 37
28 44 28 6 0 16 6 20 13 19 32 90 48 96 22z m-219 -9 c12 5 15 2 10 -10 -9
-23 -31 -20 -45 7 -11 19 -10 20 3 9 9 -7 23 -10 32 -6z m-3293 -44 c-66 -84
-160 -132 -257 -132 -59 0 -100 15 -149 54 -44 35 -24 43 48 18 34 -12 73 -22
86 -22 48 0 187 51 241 89 30 21 57 36 59 35 2 -2 -11 -21 -28 -42z m6270 -29
c18 -87 12 -102 -43 -103 -39 0 -64 -32 -79 -101 -27 -120 -44 -106 -44 35 0
101 1 104 35 155 33 48 81 90 105 91 6 0 18 -35 26 -77z m-2756 28 c-9 -16
-97 -72 -103 -66 -6 6 -9 4 47 44 43 31 68 40 56 22z m65 -40 c0 -12 -125 -90
-158 -97 -30 -7 -28 -5 39 49 26 20 49 34 51 31 3 -2 11 2 18 11 13 16 50 21
50 6z m1566 -69 c32 -17 75 -41 94 -53 l35 -21 -35 30 c-19 17 -32 33 -29 36
11 12 95 -52 124 -95 16 -24 42 -60 57 -79 61 -78 144 -303 111 -299 -5 0 -39
48 -78 107 -38 58 -76 108 -84 110 -10 3 -12 0 -8 -12 4 -9 2 -16 -3 -16 -6 0
-10 3 -10 8 0 4 -9 13 -20 19 -16 11 -18 10 -14 -1 3 -8 0 -17 -5 -21 -6 -3
-9 -11 -6 -16 4 -5 8 -17 10 -27 2 -10 15 -36 29 -57 14 -21 35 -65 45 -99 40
-131 37 -155 -13 -95 -14 17 -30 28 -36 24 -17 -10 -44 11 -66 52 -20 37 -22
69 -3 57 30 -18 -15 61 -82 143 -33 40 -59 78 -59 84 0 6 17 0 38 -12 20 -13
46 -28 57 -33 11 -6 23 -15 27 -21 5 -6 8 -5 8 3 0 9 7 11 23 7 21 -6 21 -6 3
9 -16 13 -22 13 -28 3 -6 -9 -8 -9 -8 1 0 7 -5 10 -12 6 -7 -5 -8 -3 -3 5 4 7
17 10 29 7 17 -4 22 -1 22 14 0 11 -4 20 -8 20 -4 0 -8 -4 -8 -10 0 -5 -5 -10
-10 -10 -7 0 -7 7 1 21 8 15 8 19 0 15 -14 -9 -100 80 -113 116 -5 14 -34 47
-64 73 -30 26 -52 51 -49 55 7 11 63 -9 141 -48z m924 -87 c0 -19 -4 -35 -9
-35 -15 0 -99 -92 -112 -122 -16 -40 -29 -34 -29 12 0 72 62 158 125 173 11 2
21 5 23 6 1 0 2 -15 2 -34z m705 -42 c-31 -74 -103 -145 -179 -177 -68 -28
-86 -20 -30 15 27 17 86 68 131 115 44 46 84 84 87 84 4 0 -1 -17 -9 -37z
m-3416 -68 c-8 -7 -25 -16 -39 -19 l-25 -7 24 18 c14 10 30 23 35 30 7 7 12 7
15 1 2 -5 -3 -16 -10 -23z m2534 -17 c-5 -46 -7 -48 -37 -48 -19 -1 -44 -12
-66 -30 -41 -36 -46 -37 -53 -8 -7 25 28 78 69 105 19 12 83 33 91 29 0 -1 -1
-22 -4 -48z m-1005 -47 c27 -28 99 -226 91 -249 -7 -19 -47 49 -95 158 -24 57
-44 106 -44 111 0 18 23 8 48 -20z m1816 -23 c-60 -107 -197 -165 -339 -143
-64 9 -45 26 35 32 84 5 247 68 279 107 16 19 35 21 25 4z m-1200 -14 c39 -15
182 -259 212 -361 17 -59 15 -162 -4 -213 -8 -21 -11 -11 -17 55 -7 88 -28
166 -55 205 -10 14 -44 79 -76 145 -95 195 -90 180 -60 169z m-4084 -78 c0 -8
-25 -36 -56 -62 -32 -28 -66 -69 -81 -98 -50 -99 -108 -157 -93 -93 10 41 33
102 56 150 32 67 174 150 174 103z m800 -66 c8 0 26 -9 38 -18 l24 -19 -51 1
c-55 1 -88 23 -77 51 5 15 8 15 28 1 12 -9 29 -16 38 -16z m4256 -55 c-36 -46
-95 -76 -165 -81 -41 -3 -50 -2 -35 5 36 16 38 31 8 62 l-28 29 55 1 c30 0 83
6 119 13 36 7 67 11 69 10 2 -2 -8 -19 -23 -39z m-1259 -102 c37 -70 78 -181
70 -189 -14 -14 -117 178 -117 217 0 44 14 35 47 -28z m1046 -18 c37 0 67 -3
67 -6 0 -19 -71 -97 -110 -121 -87 -53 -248 -61 -351 -17 -48 21 -98 62 -54
45 120 -48 225 -48 343 -2 71 29 91 46 52 46 -43 0 -101 45 -83 64 3 3 19 2
37 -2 17 -4 61 -7 99 -7z m-634 -245 c0 -58 -4 -137 -9 -175 -9 -73 -58 -241
-66 -232 -3 3 4 61 16 129 12 68 24 194 27 283 6 142 8 157 19 130 8 -18 13
-72 13 -135z m-4609 68 c-19 -51 -57 -117 -89 -158 l-21 -25 0 25 c0 49 31
123 72 175 50 60 65 53 38 -17z m4998 -33 c2 -1 -20 -21 -48 -43 -31 -24 -70
-45 -100 -52 -59 -14 -140 -6 -140 14 0 11 15 12 64 9 60 -5 66 -4 91 21 18
18 24 33 20 45 -5 18 -2 19 52 14 32 -3 59 -7 61 -8z m-5284 -52 c-3 -21 -13
-71 -21 -112 -12 -55 -14 -107 -10 -195 4 -109 4 -118 -9 -89 -29 68 -37 162
-21 254 13 77 48 179 61 179 3 0 2 -17 0 -37z m318 -180 l-17 -36 -3 28 c-2
15 2 32 10 36 25 16 28 9 10 -28z m-221 -143 c17 -122 48 -207 101 -283 34
-48 14 -53 -31 -8 -65 65 -100 150 -113 270 -9 88 -8 102 6 116 9 9 17 24 18
33 0 9 3 1 5 -18 1 -19 8 -69 14 -110z m4644 8 c-11 -80 -30 -113 -95 -168
-34 -27 -63 -50 -67 -50 -3 0 19 27 49 61 70 79 85 103 99 161 17 63 23 61 14
-4z m-4499 -170 c4 -15 10 -25 14 -23 5 3 6 -5 3 -17 -3 -13 -2 -20 2 -16 4 4
14 0 22 -10 9 -10 12 -11 7 -2 -9 18 47 -28 60 -50 5 -8 32 -39 59 -67 55 -58
50 -65 -21 -29 -105 54 -193 205 -191 330 l0 51 19 -70 c11 -38 22 -82 26 -97z
m2658 87 c-18 -27 -63 -59 -72 -51 -3 3 0 6 6 6 7 0 11 3 10 8 -4 14 23 52 38
52 8 0 12 4 9 10 -3 6 1 7 9 4 14 -5 14 -8 0 -29z m-300 -16 c-3 -5 1 -9 9 -9
15 0 32 -29 22 -38 -2 -3 -58 -7 -123 -10 -97 -4 -124 -2 -150 12 -38 20 -42
29 -6 16 42 -16 125 -11 173 10 23 11 48 17 54 13 6 -4 8 0 4 10 -4 11 -2 14
8 10 8 -3 12 -9 9 -14z m1936 -70 c-20 -65 -29 -80 -84 -132 -62 -61 -104 -93
-110 -86 -10 10 26 84 60 125 22 25 59 73 83 107 25 34 42 54 38 45 -4 -12 -2
-15 9 -11 7 3 14 15 15 27 0 11 3 16 5 9 3 -6 -5 -44 -16 -84z m-2526 37 l16
-25 -30 11 c-25 8 -28 13 -19 24 15 18 14 18 33 -10z m175 13 c24 -5 55 -11
70 -13 28 -3 134 -55 114 -56 -6 0 -42 11 -80 24 -37 14 -90 31 -118 39 -58
17 -50 21 14 6z m-1685 -268 c18 -15 21 -31 6 -31 -17 0 -80 93 -80 119 0 22
4 19 29 -24 16 -28 36 -57 45 -64z m1437 73 c18 -19 27 -32 18 -29 -14 5 -65
65 -56 65 2 0 19 -16 38 -36z m-1355 -171 c-11 -29 -24 -12 -15 19 5 18 10 58
11 88 2 47 2 44 5 -19 2 -41 2 -80 -1 -88z m2409 127 c-3 -5 -33 -10 -66 -10
-38 0 -58 4 -54 10 3 6 33 10 66 10 38 0 58 -4 54 -10z m189 -50 c6 0 17 5 24
12 8 8 12 8 12 1 0 -15 76 -11 92 5 9 9 17 4 35 -20 13 -18 23 -38 23 -45 0
-24 35 -13 62 19 l27 33 16 -22 c20 -28 45 -30 45 -3 0 16 4 18 18 11 44 -22
69 -31 87 -30 11 1 28 -2 37 -5 13 -6 17 -2 20 18 l3 26 63 -40 c67 -43 82
-44 82 -4 0 13 2 24 5 24 3 0 27 -16 54 -35 52 -38 81 -43 104 -21 10 10 18
11 24 5 6 -6 21 -9 34 -7 20 2 23 8 21 31 -3 34 8 34 60 0 22 -15 51 -28 64
-28 14 -1 30 -10 38 -20 12 -17 14 -17 33 2 12 12 24 31 28 43 l7 22 22 -21
c12 -12 25 -21 29 -21 12 0 7 38 -5 43 -9 3 -6 7 6 12 13 6 23 3 32 -11 16
-23 21 -28 54 -53 l25 -20 -37 9 c-21 4 -38 6 -38 4 0 -2 19 -13 43 -25 23
-12 43 -22 44 -23 1 0 4 -13 8 -29 7 -25 5 -27 -26 -27 -40 0 -108 -29 -129
-55 -8 -10 -10 -16 -5 -14 6 3 31 15 57 27 129 61 247 -4 273 -150 l7 -37 -30
11 c-23 9 -40 9 -71 -1 -57 -17 -74 -47 -69 -120 4 -55 3 -59 -26 -77 -63 -40
-72 -44 -101 -44 -29 0 -105 18 -105 24 0 2 7 19 15 39 38 92 38 235 -1 295
-23 34 -27 21 -8 -24 12 -29 15 -61 12 -129 -3 -76 -9 -101 -36 -160 -30 -64
-75 -125 -93 -125 -3 0 4 21 17 47 34 65 33 145 -1 178 -48 48 -193 25 -217
-34 -7 -17 -7 -53 -1 -103 l8 -78 -33 0 c-48 0 -93 22 -130 64 -37 43 -37 37
-16 118 13 48 15 82 9 143 -4 44 -8 90 -9 102 -1 11 -4 19 -8 16 -5 -2 -8 0
-8 6 0 27 118 89 209 110 l36 9 -34 1 c-53 2 -138 -30 -181 -66 l-39 -33 -14
21 c-9 11 -33 32 -54 46 l-38 26 36 -39 c48 -51 65 -86 79 -164 9 -47 9 -80 0
-128 -14 -79 -31 -115 -78 -164 -39 -41 -59 -50 -42 -19 16 31 12 128 -6 157
-45 68 -168 72 -236 7 -26 -25 -28 -32 -28 -110 0 -46 -4 -83 -9 -83 -20 0
-80 81 -100 134 -39 106 -23 228 45 326 25 37 30 48 16 41 -29 -16 -73 -79
-87 -125 -21 -70 -29 -170 -15 -197 11 -20 10 -25 -15 -45 -26 -20 -103 -50
-111 -42 -2 2 5 28 16 56 44 115 11 181 -93 190 -99 8 -147 -42 -147 -154 l0
-58 -50 49 c-63 62 -85 116 -77 191 10 94 38 137 130 197 45 30 110 69 145 87
35 19 82 50 105 71 l42 37 3 -29 c2 -16 9 -29 16 -29z m-1367 -45 c35 -22 63
-46 63 -52 0 -15 44 -28 65 -19 8 3 15 16 16 28 0 13 3 17 6 9 3 -7 14 -22 24
-32 25 -25 25 -110 0 -165 -35 -78 -129 -161 -203 -179 -22 -6 -26 -3 -32 26
-3 17 -6 43 -6 58 0 14 -7 39 -15 54 -8 15 -12 34 -9 42 8 21 -13 53 -46 70
-38 19 -38 10 -2 -30 53 -56 69 -212 31 -295 -30 -67 -108 -140 -149 -140 -6
0 -10 25 -10 60 0 112 -49 156 -167 148 -53 -3 -68 -9 -90 -31 -30 -29 -36
-79 -19 -146 l8 -34 -33 20 c-22 13 -45 42 -64 79 -25 50 -30 70 -29 134 0 41
3 89 7 105 5 20 4 25 -2 16 -7 -11 -12 -7 -25 17 -16 30 -61 72 -78 72 -5 0 7
-21 27 -47 41 -53 42 -58 49 -177 4 -62 11 -100 26 -129 l21 -40 -33 -35 c-64
-67 -185 -104 -222 -66 -19 18 -20 34 -5 83 16 55 1 102 -41 123 -68 34 -171
13 -203 -41 -21 -36 -21 -53 2 -119 10 -28 15 -52 12 -52 -13 0 -70 58 -93 96
-82 131 -74 288 18 345 42 25 39 37 -4 15 -67 -35 -99 -111 -88 -211 13 -116
15 -108 -29 -121 -56 -17 -121 -17 -155 1 -24 12 -30 25 -40 72 -6 32 -15 68
-20 80 -14 33 -64 55 -105 47 -24 -4 -35 -2 -35 5 0 20 37 85 62 108 62 58
206 86 248 48 11 -10 20 -13 20 -7 0 6 -11 19 -25 28 -39 25 -34 67 13 100 20
16 42 34 49 42 9 11 16 7 38 -22 l27 -36 45 31 c24 17 47 28 51 24 3 -3 6 -23
7 -43 0 -35 1 -37 31 -35 18 2 53 12 78 23 39 16 46 17 46 4 0 -28 30 -26 81
7 l52 33 23 -27 c13 -15 27 -27 32 -27 12 0 122 60 151 82 33 25 39 23 43 -14
3 -37 27 -48 51 -24 8 8 28 14 43 13 21 -1 31 4 39 21 13 29 26 28 59 -7 33
-35 61 -44 76 -26 9 10 4 19 -20 36 l-31 23 23 10 c33 13 90 7 103 -11 16 -21
55 -8 55 19 0 16 4 19 23 14 62 -19 90 -19 99 -2 11 20 6 22 85 -29z m1263
-361 c26 -26 36 -71 17 -71 -9 0 -13 6 -10 14 10 26 -10 12 -63 -44 l-53 -58
-1 42 c0 32 -6 46 -25 61 -13 11 -21 22 -18 26 3 3 1 6 -7 6 -17 0 7 29 35 41
31 14 105 3 125 -17z m-2850 -29 c17 -9 30 -24 30 -34 0 -11 3 -26 6 -34 8
-22 -52 -63 -70 -47 -32 25 -29 -25 3 -65 15 -19 15 -19 -2 -5 -57 44 -80 171
-34 190 31 12 34 12 67 -5z m4410 -10 c17 -20 8 -106 -14 -140 -22 -34 -29
-28 -14 12 9 25 9 35 -2 48 -10 13 -15 13 -21 3 -7 -10 -9 -10 -9 1 0 7 -6 11
-15 8 -8 -4 -17 -1 -21 5 -4 7 -9 6 -15 -3 -6 -9 -9 -2 -9 23 0 25 6 40 18 47
26 16 88 13 102 -4z m-3175 -49 c40 -17 46 -27 13 -19 -19 4 -20 3 -8 -6 10
-7 11 -11 3 -11 -7 0 -13 -5 -13 -11 0 -5 4 -8 9 -5 4 3 6 -6 3 -19 -2 -14 -9
-25 -14 -25 -5 0 -6 -4 -3 -10 3 -5 -2 -21 -12 -35 -13 -17 -28 -24 -51 -25
-23 0 -31 4 -26 12 4 7 3 8 -4 4 -6 -4 -25 8 -42 25 -84 88 20 177 145 125z
m2137 -16 c23 -28 23 -64 1 -86 -10 -9 -27 -33 -38 -52 -12 -21 -29 -37 -43
-39 -25 -3 -84 26 -76 38 2 4 -3 6 -12 5 -8 -1 -20 -9 -25 -17 -6 -9 -9 11 -9
57 0 55 4 74 18 86 48 43 152 47 184 8z m553 -10 c33 -36 8 -137 -36 -143 -8
-2 -20 -6 -27 -11 -16 -10 -13 -13 -62 63 -22 34 -45 59 -50 56 -6 -3 -10 -1
-10 5 0 5 15 19 33 30 44 27 127 27 152 0z m-3282 -22 c9 -5 17 -19 16 -31 -1
-21 -1 -21 -9 3 -8 25 -8 25 -9 -4 -1 -16 -10 -49 -22 -73 -17 -35 -28 -45
-60 -53 -22 -6 -48 -8 -59 -5 -37 12 -55 130 -24 155 32 28 122 32 167 8z
m3701 -108 c-21 -21 -89 -46 -79 -29 4 5 14 9 23 9 9 0 28 9 42 20 33 25 40
25 14 0z m-3142 -124 c41 -18 82 -9 106 21 6 9 12 12 12 6 0 -14 -31 -39 -58
-46 -38 -9 -86 11 -122 50 -29 31 -30 33 -5 11 17 -15 47 -34 67 -42z m2134 8
c-19 -28 -71 -54 -110 -54 -25 0 -56 23 -56 41 0 6 7 3 16 -5 25 -26 96 -21
128 9 14 13 26 30 26 36 0 7 3 9 6 6 4 -4 -1 -18 -10 -33z m-2746 -44 c47 -24
66 -25 103 -5 15 8 25 10 21 4 -11 -19 -58 -30 -97 -23 -38 6 -117 64 -117 86
0 5 11 -3 26 -17 14 -14 43 -34 64 -45z m3274 39 c-18 -20 -65 -49 -80 -49 -6
0 86 67 95 69 2 1 -4 -8 -15 -20z"/>
<path d="M4417 9765 c6 -40 10 -52 17 -44 2 2 -3 22 -10 44 l-13 40 6 -40z"/>
<path d="M5003 8760 c-12 -5 -32 -28 -44 -51 -16 -33 -23 -39 -31 -28 -7 11
-11 11 -15 2 -6 -15 -33 -17 -33 -3 0 6 4 10 10 10 5 0 14 9 20 20 14 27 -7
23 -31 -5 -13 -16 -15 -23 -6 -34 10 -12 9 -14 -5 -8 -10 4 -18 2 -18 -5 0 -7
12 -8 33 -4 17 4 73 9 123 13 126 8 207 -13 324 -83 52 -32 95 -51 105 -48 26
11 19 69 -15 107 -35 40 -132 94 -204 113 -57 15 -179 17 -213 4z"/>
<path d="M5509 8663 c18 -24 35 -43 38 -43 7 0 -34 55 -54 71 -10 8 -3 -5 16
-28z"/>
<path d="M5555 8602 c4 -8 11 -26 15 -40 7 -22 8 -23 9 -6 1 11 -6 29 -15 40
-8 10 -12 13 -9 6z"/>
<path d="M4844 8556 c-56 -11 -179 -64 -170 -73 2 -3 23 5 46 17 66 34 130 50
151 40 23 -13 38 -13 19 0 -11 7 -6 10 20 11 19 0 44 4 55 9 31 13 -47 11
-121 -4z"/>
<path d="M5345 8496 c45 -40 106 -72 147 -80 45 -8 78 18 78 62 l0 27 -20 -32
c-16 -27 -26 -33 -55 -33 -33 0 -91 25 -155 66 -19 12 -18 10 5 -10z"/>
<path d="M4440 8030 c-15 -55 -7 -63 9 -9 7 22 10 43 7 46 -2 3 -10 -14 -16
-37z"/>
<path d="M3194 8369 c29 -23 47 -19 26 6 -7 8 -22 15 -33 15 -18 0 -17 -2 7
-21z"/>
<path d="M4087 8064 c-15 -8 -31 -13 -35 -10 -4 3 -14 1 -22 -4 -11 -7 -8 -11
13 -21 35 -16 77 1 77 31 0 11 -1 20 -2 20 -2 -1 -15 -8 -31 -16z"/>
<path d="M4310 8019 c-27 -5 -30 -7 -10 -8 45 -3 56 -16 43 -52 -14 -37 -8
-55 13 -38 17 14 18 70 2 90 -10 11 -23 13 -48 8z"/>
<path d="M4176 7873 c-14 -85 -3 -113 13 -32 6 31 9 36 10 17 1 -17 10 -34 26
-44 35 -23 49 -13 22 17 -12 15 -32 39 -43 53 l-21 27 -7 -38z"/>
<path d="M4041 7861 c-19 -12 -7 -57 19 -71 24 -13 60 3 60 26 0 44 -42 68
-79 45z m59 -21 c0 -14 -33 -21 -44 -10 -8 8 -7 13 3 19 15 10 41 4 41 -9z"/>
<path d="M5239 7833 c-44 -22 -127 -76 -94 -61 24 10 133 60 160 73 24 11 26
14 9 14 -11 1 -45 -11 -75 -26z"/>
<path d="M5273 7816 c-99 -32 -183 -114 -209 -204 -18 -62 -13 -166 10 -211
13 -23 14 -18 14 61 0 101 22 159 81 210 111 98 264 101 423 7 184 -108 252
-304 161 -470 -45 -84 -185 -183 -298 -210 -47 -11 -103 -39 -79 -39 26 0 144
45 199 76 121 67 228 179 241 253 11 57 -10 180 -46 265 -39 94 -129 196 -212
241 -46 26 -65 30 -148 32 -60 2 -110 -2 -137 -11z"/>
<path d="M5310 7611 c-81 -26 -142 -85 -161 -153 -39 -145 36 -309 173 -377
143 -72 300 -5 344 144 48 165 -104 377 -280 391 -28 2 -62 0 -76 -5z m-48
-118 c41 -37 9 -123 -46 -123 -49 0 -71 69 -36 113 24 31 55 35 82 10z m88
-109 c0 -8 -7 -14 -15 -14 -15 0 -21 21 -9 33 10 9 24 -2 24 -19z m310 -69
c22 -26 8 -50 -29 -48 -27 1 -31 -2 -25 -15 20 -47 16 -70 -20 -109 -35 -40
-87 -63 -141 -63 -20 0 -29 7 -38 29 -10 26 -12 28 -23 13 -10 -14 -11 -13 -7
10 4 22 15 30 54 43 53 18 109 59 109 80 0 18 40 66 50 60 5 -3 11 -1 15 5 9
15 41 12 55 -5z"/>
<path d="M3982 7080 c-72 -15 -143 -60 -194 -124 -57 -71 -85 -170 -73 -262
11 -87 72 -198 152 -276 91 -87 153 -118 235 -117 95 1 120 17 28 18 -140 2
-251 81 -302 216 -32 85 -33 258 -2 326 71 152 232 214 379 146 33 -15 63 -33
67 -40 5 -8 8 -7 8 4 0 21 -45 62 -97 88 -49 25 -139 34 -201 21z"/>
<path d="M4083 6934 c-23 -8 -61 -33 -85 -55 -24 -22 -32 -33 -18 -25 13 9 30
16 36 16 22 0 52 -35 59 -67 5 -26 2 -37 -19 -58 -45 -45 -109 -25 -109 34 0
25 -3 29 -9 17 -14 -25 -11 -137 6 -182 47 -135 158 -223 279 -224 64 0 109
16 161 55 82 63 102 200 46 313 -73 146 -223 222 -347 176z m67 -204 c0 -21
-15 -27 -25 -10 -7 12 2 30 16 30 5 0 9 -9 9 -20z m285 -94 c24 -17 13 -46
-18 -46 -30 0 -50 22 -41 44 7 20 34 21 59 2z m-45 -128 c-1 -42 -78 -88 -147
-88 -58 0 -91 9 -73 20 6 4 12 23 13 43 2 33 5 37 30 37 37 0 88 22 111 49
l19 21 24 -34 c12 -19 23 -41 23 -48z"/>
<path d="M5913 6795 c-45 -19 -41 -23 12 -17 28 3 50 0 60 -8 46 -38 -21 -247
-115 -355 -129 -149 -294 -237 -487 -260 -86 -11 -120 -29 -183 -98 -67 -73
-169 -137 -278 -174 -106 -36 -271 -38 -380 -5 -79 25 -79 25 -55 88 12 31
-15 5 -41 -39 -27 -48 -43 -102 -26 -92 5 3 10 12 10 19 0 31 22 33 98 9 57
-18 113 -27 212 -33 86 -5 175 -17 245 -34 61 -14 139 -26 175 -26 146 0 359
85 470 187 62 57 118 154 164 281 18 51 46 99 91 157 88 112 135 232 135 342
0 41 3 53 16 53 8 0 12 5 9 10 -9 15 -95 11 -132 -5z m-313 -740 c0 -16 -37
-92 -49 -102 -9 -7 -12 -13 -7 -13 5 0 34 21 65 48 50 42 53 44 32 14 -28 -40
-108 -101 -176 -135 -68 -34 -240 -76 -196 -48 10 6 1 11 -28 16 -22 4 -43 11
-46 16 -12 19 16 48 53 54 104 15 183 46 259 100 72 51 93 62 93 50z"/>
<path d="M5205 6710 c-22 -27 -51 -63 -65 -81 -14 -18 -48 -42 -76 -55 -43
-19 -65 -22 -133 -19 -45 1 -84 -1 -87 -6 -3 -5 -13 -6 -22 -1 -9 4 -24 7 -32
6 -8 -1 -23 -2 -32 -3 -12 -1 -18 -9 -18 -26 0 -28 12 -32 30 -10 20 25 93 18
172 -15 88 -38 131 -38 183 -3 51 34 51 34 59 105 4 43 14 73 36 105 17 25 30
47 28 48 -2 2 -21 -18 -43 -45z"/>
<path d="M5277 6749 c-26 -15 -70 -108 -73 -159 -6 -77 -55 -124 -147 -141
-55 -10 -59 -9 -87 15 -27 22 -104 46 -151 46 -21 0 -38 -28 -23 -39 5 -3 15
-13 22 -22 11 -14 9 -16 -15 -11 -16 2 -48 18 -73 34 l-45 29 31 -29 c17 -17
50 -40 74 -52 37 -19 52 -21 108 -15 45 5 61 10 51 16 -9 6 4 7 36 3 76 -9
155 17 199 67 20 21 36 44 36 49 0 6 17 27 38 48 20 20 43 44 50 54 16 21 34
80 22 73 -5 -3 -12 6 -16 20 -7 28 -11 29 -37 14z"/>
<path d="M4437 6454 c-80 -74 -86 -79 -67 -69 28 15 140 108 140 117 0 15 -10
8 -73 -48z"/>
<path d="M2995 7698 c-30 -36 -38 -52 -86 -183 -28 -77 -33 -103 -33 -180 1
-59 7 -108 18 -143 23 -69 28 -63 10 13 -18 78 -18 133 2 209 30 118 139 286
185 286 26 0 25 -5 -21 -62 -110 -138 -128 -388 -35 -482 44 -44 63 8 47 131
-7 51 -7 96 -1 128 13 72 56 177 89 224 16 22 26 42 21 45 -25 16 -107 37
-127 33 -13 -2 -24 0 -24 4 0 18 -19 8 -45 -23z"/>
<path d="M2934 7104 c17 -34 75 -89 85 -79 3 4 -3 11 -13 17 -22 12 -45 35
-69 68 -17 25 -17 25 -3 -6z"/>
<path d="M6017 5179 c-20 -12 -52 -77 -43 -87 3 -3 6 -2 6 2 0 4 11 -2 25 -12
29 -23 70 -17 114 16 33 24 35 35 14 61 -21 26 -88 37 -116 20z m89 -23 c16
-12 17 -17 6 -28 -11 -11 -15 -10 -23 5 -13 22 -37 22 -61 0 -26 -23 -34 -9
-9 16 24 24 59 27 87 7z m-16 -55 c0 -12 -39 -21 -58 -13 -13 5 -10 8 13 13
44 10 45 10 45 0z"/>
<path d="M5925 5115 c-28 -27 -32 -61 -10 -89 19 -25 22 -21 29 36 4 26 9 55
12 63 9 22 -4 18 -31 -10z"/>
<path d="M3726 5094 c-14 -36 3 -46 30 -19 13 12 12 15 -5 24 -15 8 -20 7 -25
-5z"/>
<path d="M5650 2338 c0 -4 -6 -8 -14 -8 -8 0 -17 -4 -20 -9 -7 -10 75 8 88 20
5 4 -5 7 -23 7 -17 -1 -31 -5 -31 -10z"/>
<path d="M3500 3591 c0 -32 78 -53 88 -24 2 9 -5 11 -27 7 -18 -4 -31 -2 -31
4 0 5 -7 12 -15 16 -8 3 -15 2 -15 -3z"/>
<path d="M4668 3728 c-16 -5 -28 -14 -28 -20 0 -11 49 -2 63 12 14 13 -6 18
-35 8z"/>
<path d="M4490 3531 c0 -9 24 -21 42 -21 5 0 8 5 6 12 -5 13 -48 22 -48 9z"/>
<path d="M4343 2102 c-9 -5 -8 -11 0 -22 13 -17 37 -24 37 -12 0 17 -26 41
-37 34z"/>
<path d="M4980 3051 c0 -5 12 -8 26 -8 18 0 22 2 13 8 -18 11 -39 11 -39 0z"/>
<path d="M3278 9403 c-14 -16 -33 -41 -42 -58 -17 -30 -17 -30 1 -5 10 13 31
39 47 57 34 40 30 44 -6 6z"/>
<path d="M3979 9284 c-12 -14 -11 -16 5 -13 11 2 21 10 24 17 5 17 -13 15 -29
-4z"/>
<path d="M6316 8780 c-27 -11 -54 -24 -60 -31 -6 -6 7 -3 29 6 22 9 65 22 95
30 48 12 51 13 20 14 -19 0 -57 -9 -84 -19z"/>
<path d="M7046 8018 c-3 -7 -7 -51 -10 -98 -3 -47 -8 -96 -11 -110 -2 -14 2
-6 9 17 16 46 33 203 22 203 -4 0 -8 -6 -10 -12z"/>
<path d="M9528 7680 c74 -76 106 -146 110 -240 4 -99 -20 -143 -97 -182 -62
-32 -96 -35 -148 -13 -55 23 -50 11 9 -23 134 -75 280 -327 303 -522 8 -72 47
-153 80 -168 32 -15 90 -15 115 -2 30 16 72 100 64 130 -5 22 -8 18 -20 -30
-18 -68 -50 -100 -103 -100 -28 0 -45 7 -69 31 -35 35 -46 64 -61 166 -13 88
-32 146 -79 238 -43 86 -84 149 -130 197 -37 39 -36 53 6 63 40 9 103 56 125
93 65 111 2 305 -126 393 -23 16 -16 6 21 -31z"/>
<path d="M6879 7574 c-38 -42 -134 -112 -195 -144 -33 -18 -48 -30 -36 -30 42
0 199 110 242 170 26 37 22 39 -11 4z"/>
<path d="M9968 6538 c-7 -110 -58 -197 -139 -238 -48 -25 -126 -35 -163 -21
-16 7 -30 10 -32 8 -2 -1 6 -39 17 -82 31 -119 10 -215 -72 -329 -43 -61 -57
-67 -39 -20 17 43 1 22 -40 -53 -30 -55 -48 -75 -100 -110 -87 -59 -160 -84
-256 -90 -86 -6 -108 3 -82 34 11 14 8 13 -15 -2 -15 -10 -26 -23 -24 -29 6
-19 116 -29 187 -16 157 27 342 178 431 350 31 61 34 71 34 165 0 55 -4 111
-8 125 -8 25 -7 26 31 22 147 -14 268 106 279 279 3 43 4 79 1 79 -3 0 -8 -33
-10 -72z"/>
<path d="M9330 6359 c0 -18 2 -19 15 -9 15 12 12 30 -6 30 -5 0 -9 -10 -9 -21z"/>
<path d="M9199 6108 c-7 -18 -14 -39 -16 -47 -1 -8 -7 -18 -15 -22 -7 -4 -10
-10 -7 -13 12 -12 50 44 54 78 1 20 2 36 0 36 -1 0 -9 -15 -16 -32z"/>
</g>
</svg>
