<?xml version="1.0" standalone="no"?>
<!DOCTYPE svg PUBLIC "-//W3C//DTD SVG 20010904//EN"
 "http://www.w3.org/TR/2001/REC-SVG-20010904/DTD/svg10.dtd">
<svg version="1.0" xmlns="http://www.w3.org/2000/svg"
 width="1024.000000pt" height="1024.000000pt" viewBox="0 0 1024.000000 1024.000000"
 preserveAspectRatio="xMidYMid meet">
<metadata>
Created by potrace 1.16, written by Peter Selinger 2001-2019
</metadata>
<g transform="translate(0.000000,1024.000000) scale(0.100000,-0.100000)"
fill="currentColor" stroke="currentColor">
<path d="M7857 9930 c-46 -29 -58 -105 -33 -227 7 -37 22 -156 32 -264 16
-186 17 -203 0 -323 -32 -243 -69 -353 -169 -500 -132 -195 -300 -310 -682
-466 -265 -108 -333 -138 -376 -166 l-36 -22 -17 36 c-30 62 -89 133 -134 159
-24 14 -75 34 -114 44 -148 39 -289 18 -515 -78 -8 -3 -13 2 -13 11 0 30 -40
97 -84 141 -57 56 -168 117 -286 157 -89 30 -104 32 -240 33 -165 0 -212 -10
-345 -78 -59 -31 -102 -63 -162 -123 -46 -46 -83 -89 -83 -96 0 -8 -6 -22 -13
-31 -11 -17 -16 -16 -72 12 -97 49 -175 64 -287 58 -120 -6 -183 -32 -256
-107 -63 -64 -153 -199 -174 -260 -2 -7 -45 7 -103 33 -55 25 -166 65 -246 91
-206 65 -445 156 -524 200 -36 21 -83 55 -103 77 -20 21 -42 39 -48 39 -21 0
-154 144 -204 220 -64 97 -124 251 -151 385 -18 89 -19 111 -9 130 7 13 10 34
7 47 -11 42 13 278 37 357 13 42 35 117 50 166 48 158 35 260 -37 306 -73 46
-248 2 -424 -107 -157 -98 -295 -260 -407 -477 -133 -261 -212 -696 -186
-1024 14 -175 52 -419 85 -548 57 -218 119 -332 356 -652 165 -224 531 -548
722 -641 l77 -37 -6 -40 c-4 -22 -7 -41 -8 -42 -2 -2 -36 9 -77 24 -69 25 -86
27 -244 27 -159 1 -176 -1 -260 -27 -178 -55 -298 -127 -548 -328 -203 -163
-489 -218 -691 -133 -140 59 -155 60 -184 16 -39 -60 -1 -299 73 -449 71 -144
172 -240 320 -306 91 -39 168 -57 295 -66 l115 -8 40 -38 c50 -48 204 -150
270 -179 224 -100 486 -132 701 -85 132 28 289 89 351 135 l32 24 3 -97 3 -98
-44 -73 c-137 -230 -263 -616 -291 -891 -13 -131 -13 -399 0 -516 20 -174 64
-349 132 -520 89 -225 187 -365 319 -455 33 -23 59 -49 62 -62 5 -23 99 -291
219 -620 36 -98 81 -204 101 -236 30 -48 35 -65 31 -94 -7 -43 14 -88 55 -117
28 -20 29 -25 33 -108 5 -106 34 -189 83 -235 34 -32 34 -32 16 -53 -11 -11
-27 -47 -36 -79 -22 -75 -15 -140 22 -209 33 -61 109 -113 213 -147 60 -20 78
-21 245 -15 191 8 218 13 365 75 80 33 110 55 152 110 41 55 50 103 33 184
-17 82 -51 142 -105 189 -37 31 -40 37 -30 61 5 15 10 38 10 51 0 23 2 23 128
27 114 3 132 6 180 30 78 40 120 78 140 125 l17 43 115 0 c206 0 529 58 579
103 l24 22 -8 -30 c-4 -16 -13 -66 -20 -110 -6 -44 -24 -109 -39 -144 -27 -62
-31 -118 -13 -161 4 -10 -6 -23 -31 -41 -25 -17 -49 -49 -75 -100 -47 -94 -57
-170 -32 -255 14 -51 27 -69 90 -132 41 -40 93 -80 117 -91 131 -56 426 -87
588 -62 145 23 264 101 317 209 38 78 45 207 14 277 -21 48 -21 48 -2 69 32
34 51 102 51 182 0 69 2 74 29 93 38 27 62 81 60 133 -1 35 10 65 58 158 33
63 65 130 71 148 7 21 21 36 39 42 103 37 225 129 267 203 22 39 98 251 110
307 3 15 22 36 48 52 58 37 173 149 231 225 58 76 122 188 154 268 32 80 81
283 89 364 8 95 9 96 46 68 151 -113 351 -165 592 -154 270 12 450 104 559
283 51 86 70 161 71 279 0 153 -34 248 -138 386 -31 41 -56 77 -56 81 0 4 28
5 63 1 86 -8 156 14 252 79 81 54 114 91 117 130 2 29 -69 126 -111 151 -20
12 -28 23 -24 30 5 7 26 39 48 72 56 86 83 169 91 277 8 114 -6 156 -59 182
-35 16 -38 16 -94 -5 -84 -31 -180 -55 -244 -62 l-56 -5 -6 62 c-3 35 -13 82
-23 105 -17 44 -65 91 -92 91 -41 0 -124 -54 -217 -138 -65 -59 -133 -110
-194 -144 -159 -90 -251 -211 -286 -376 -17 -84 -19 -195 -5 -273 26 -138 128
-270 255 -328 138 -63 148 -75 142 -156 -6 -94 -55 -134 -195 -161 -122 -23
-251 -1 -353 61 -31 19 -67 38 -80 44 -22 8 -26 19 -38 97 -36 240 -146 551
-265 747 l-36 59 20 71 c34 129 43 226 42 444 l-1 211 84 -39 c108 -51 210
-76 332 -84 223 -15 405 28 603 141 117 67 286 195 322 245 16 21 31 28 75 33
118 14 308 99 411 183 54 44 129 144 176 233 41 77 63 158 71 260 5 61 3 81
-12 110 -24 46 -47 48 -170 14 -89 -24 -109 -26 -223 -21 -190 7 -289 46 -508
194 -98 67 -235 137 -327 168 -27 9 -94 23 -150 31 -183 28 -360 0 -513 -81
-47 -25 -86 -44 -87 -43 -1 2 -7 13 -13 24 -14 27 3 44 118 108 301 171 555
396 714 636 183 275 222 359 311 665 61 212 79 341 79 565 0 339 -62 642 -184
895 -109 226 -317 436 -527 532 -62 29 -176 41 -206 23z m-5549 -65 c-54 -20
-164 -86 -254 -153 -190 -140 -342 -372 -434 -659 -27 -85 -43 -121 -60 -132
l-23 -16 6 42 c21 129 135 393 224 518 67 93 162 196 233 250 95 73 280 165
330 164 8 0 -2 -7 -22 -14z m5908 -82 c132 -99 240 -229 333 -404 47 -89 96
-208 87 -216 -14 -14 -39 22 -71 100 -46 117 -89 194 -166 298 -85 115 -142
173 -229 237 -91 67 -105 79 -64 59 17 -9 66 -42 110 -74z m-202 43 c33 -14
103 -101 140 -173 23 -46 21 -93 -4 -93 -25 0 -52 30 -97 105 -20 33 -50 79
-66 102 -17 24 -27 49 -24 57 8 19 9 19 51 2z m-5671 -58 c9 -13 0 -34 -39
-99 -67 -114 -130 -179 -172 -179 -38 0 -59 32 -48 76 8 30 119 150 180 196
43 31 63 33 79 6z m77 -379 c-18 -72 -34 -165 -37 -221 -6 -94 -7 -98 -29 -98
-26 0 -26 -6 2 168 13 80 81 289 91 278 2 -2 -10 -59 -27 -127z m5499 -27 c5
-31 12 -87 16 -123 6 -62 5 -67 -16 -72 -20 -5 -21 -3 -15 41 5 44 -5 192 -18
257 -5 24 -3 23 9 -8 8 -21 19 -64 24 -95z m-5829 16 c-1 -29 -8 -82 -16 -118
-8 -36 -15 -73 -15 -82 0 -20 -29 -32 -43 -18 -7 7 -3 15 12 26 20 14 21 17 7
30 -20 20 -20 45 0 38 20 -8 19 16 -1 31 -21 15 -13 64 16 113 28 46 40 40 40
-20z m6455 -241 c97 -19 111 -25 122 -47 21 -46 62 -333 71 -503 10 -192 2
-277 -48 -514 -31 -144 -88 -355 -114 -416 l-12 -31 -44 70 c-73 116 -187 252
-345 410 -127 127 -173 165 -299 249 -81 54 -170 106 -196 115 l-48 16 61 80
c91 119 133 218 166 387 22 109 32 143 44 145 9 2 65 9 124 17 l108 13 -74 1
c-41 0 -71 4 -67 8 4 4 44 13 89 20 111 16 323 7 462 -20z m-6165 -107 c0 -5
-12 -10 -26 -10 -14 0 -23 4 -19 10 3 6 15 10 26 10 10 0 19 -4 19 -10z m-190
-20 c-19 -4 -75 -10 -125 -13 l-90 -5 70 13 c80 14 207 19 145 5z m200 -92
c37 -235 131 -437 265 -568 25 -24 45 -50 45 -56 0 -7 -39 -31 -86 -54 -76
-37 -106 -60 -268 -214 -100 -95 -210 -192 -244 -215 -34 -23 -108 -79 -164
-124 -103 -82 -253 -187 -268 -187 -19 0 -90 212 -135 400 -60 256 -68 427
-36 764 11 109 21 199 23 201 2 1 62 19 133 40 140 40 336 69 550 83 72 5 139
9 151 10 18 2 22 -7 34 -80z m5316 -483 c92 -47 284 -190 399 -299 63 -59 115
-112 115 -119 0 -6 -9 -1 -20 11 -24 26 -35 28 -26 6 3 -8 -28 14 -69 50 -41
36 -100 84 -132 108 -32 23 -80 61 -108 84 -76 62 -196 140 -237 155 -20 7
-35 16 -32 21 10 16 61 8 110 -17z m-2341 -15 c108 -24 195 -64 275 -125 74
-57 109 -102 121 -156 10 -44 3 -61 -32 -80 -15 -7 -17 -6 -13 6 12 30 -17
104 -53 135 -19 17 -39 27 -45 24 -7 -4 -8 -2 -4 4 4 7 1 12 -8 12 -8 0 -19 6
-23 13 -14 23 -126 86 -193 108 -36 12 -99 24 -142 26 -82 6 -183 -12 -171
-30 3 -6 1 -7 -5 -3 -15 9 -113 -25 -185 -64 -57 -31 -178 -137 -145 -126 9 3
18 0 20 -6 3 -7 26 -12 52 -12 26 -1 42 -2 37 -4 -5 -2 -7 -11 -4 -19 5 -12 2
-15 -10 -10 -9 3 -16 2 -14 -2 1 -5 -16 -26 -39 -47 -23 -22 -43 -45 -45 -53
-6 -17 -119 65 -119 86 0 27 49 110 90 151 162 162 408 226 655 172z m2268
-11 c23 -12 60 -34 82 -49 22 -15 56 -38 77 -51 106 -70 238 -182 332 -281
102 -108 105 -112 92 -137 -54 -104 -265 -318 -427 -434 -86 -61 -261 -155
-392 -211 -117 -50 -296 -111 -303 -103 -3 2 -16 80 -29 173 -43 296 -31 500
44 722 59 178 29 149 -44 -43 -57 -149 -71 -492 -29 -722 9 -48 17 -95 18
-103 1 -9 5 -20 9 -27 4 -6 0 -14 -8 -17 -20 -7 -26 10 -56 154 -21 101 -24
141 -24 335 1 240 7 277 75 455 l31 78 162 81 c89 44 198 107 242 140 44 32
86 60 93 60 7 1 32 -9 55 -20z m-2383 -143 c116 -10 246 -61 260 -101 11 -30
-23 -27 -84 8 -27 15 -57 27 -68 27 -10 0 -17 3 -15 8 5 7 -253 7 -288 -1 -27
-6 -52 -15 -107 -39 -27 -12 -51 -18 -55 -15 -3 4 2 7 13 7 18 1 18 1 1 14
-12 9 -14 16 -8 21 6 3 11 2 11 -3 0 -9 36 -6 70 4 13 5 13 6 0 14 -13 8 -12
10 3 10 11 0 15 4 11 11 -5 8 1 10 19 5 14 -3 29 -2 32 4 3 5 -2 10 -12 10
-17 1 -17 1 0 11 10 6 29 8 42 5 13 -3 27 -2 30 4 4 6 29 8 63 4 31 -3 68 -7
82 -8z m-2407 -74 c56 -37 132 -81 169 -97 76 -33 70 -21 99 -208 18 -116 6
-434 -21 -567 -23 -114 -45 -207 -60 -245 l-9 -24 -98 33 c-111 38 -182 69
-233 101 -147 92 -179 113 -205 137 -16 16 -33 28 -37 28 -4 0 -13 6 -20 13
-7 6 -38 31 -69 55 -62 46 -225 211 -254 255 l-18 28 39 32 c21 18 61 52 89
77 27 25 88 72 135 105 92 64 201 147 294 222 84 69 91 76 77 81 -18 6 -135
-76 -235 -164 -97 -86 -148 -127 -243 -195 -34 -24 -87 -66 -117 -93 -31 -27
-60 -46 -64 -42 -7 8 12 26 92 86 26 19 72 62 104 95 140 146 249 244 324 291
42 27 125 63 146 63 8 1 59 -30 115 -67z m3500 -30 c134 -48 213 -167 224
-338 9 -133 -27 -277 -76 -304 -28 -15 -31 -13 -31 18 0 75 -134 263 -216 302
-37 19 -57 22 -108 18 -35 -3 -72 -10 -82 -16 -16 -10 -11 -11 28 -12 26 0 58
-4 73 -10 45 -17 122 -98 145 -153 31 -71 23 -161 -19 -228 -29 -47 -29 -48
-9 -66 50 -45 63 -124 28 -180 -24 -40 -34 -44 -14 -5 7 15 14 45 14 67 0 39
-29 117 -47 128 -4 3 -32 -1 -61 -8 -77 -20 -134 -26 -129 -12 2 6 32 16 68
24 96 19 116 30 138 77 42 88 39 155 -9 228 -83 125 -224 150 -314 55 -32 -34
-37 -36 -31 -16 32 105 132 172 255 173 106 1 180 -51 256 -181 20 -35 41 -66
46 -69 5 -3 8 24 6 62 l-3 67 -60 49 c-140 113 -169 123 -330 122 -102 -1
-132 -5 -198 -28 -97 -33 -125 -33 -73 -2 46 29 193 79 207 71 5 -4 9 -1 9 5
0 18 30 23 48 7 9 -8 46 -18 82 -22 36 -4 74 -12 85 -18 11 -6 33 -12 50 -13
16 -1 37 -11 46 -23 9 -11 19 -17 23 -14 3 3 14 -2 24 -13 20 -22 67 -51 58
-36 -3 6 -3 18 1 28 6 16 7 16 20 -2 12 -16 13 -16 13 -1 0 16 -37 39 -50 32
-3 -2 -6 11 -7 28 -1 27 0 29 7 11 10 -24 28 -39 37 -30 8 8 -18 86 -28 86 -5
0 -6 -8 -3 -17 3 -10 -1 -8 -8 5 -8 12 -18 19 -23 15 -4 -4 -5 -3 -2 4 12 19
-11 66 -29 59 -8 -3 -12 -2 -9 4 9 15 -26 28 -111 39 -121 17 -263 -8 -379
-66 -55 -28 -148 -91 -153 -105 -2 -4 -10 -8 -18 -8 -8 0 -14 -5 -14 -11 0 -9
-37 -4 -49 7 -9 8 73 75 143 118 84 51 212 104 282 116 77 14 211 5 277 -18z
m-1987 7 c155 -28 394 -196 343 -243 -9 -8 -10 -8 -5 2 10 17 -23 15 -70 -4
-40 -17 -122 -20 -137 -5 -4 4 9 16 30 25 21 10 48 22 60 28 17 8 26 8 38 -2
8 -7 15 -9 15 -5 0 4 7 2 15 -5 9 -7 15 -8 15 -2 0 13 -16 23 -165 108 -102
58 -253 68 -349 24 -72 -32 -158 -119 -194 -194 -34 -71 -75 -201 -69 -219 2
-6 21 15 44 46 81 113 175 165 280 154 101 -11 178 -78 208 -184 10 -33 10
-42 2 -29 -64 98 -136 120 -233 71 -61 -32 -99 -80 -124 -163 -23 -74 -24
-103 -6 -153 12 -34 11 -38 -11 -55 -37 -28 -66 -91 -59 -129 9 -46 57 -116
109 -159 36 -30 57 -38 100 -43 57 -6 93 7 145 51 12 11 22 15 22 9 0 -16 -43
-49 -79 -62 -83 -28 -165 -3 -241 72 -85 84 -97 160 -41 249 26 41 28 49 23
125 -4 75 -2 87 25 145 37 78 74 123 124 148 42 22 117 26 152 9 15 -7 12 -1
-11 20 -29 28 -39 31 -95 31 -91 0 -154 -34 -226 -122 -69 -84 -111 -162 -111
-205 0 -43 -20 -43 -55 -1 -27 31 -27 36 -23 128 l5 95 -71 33 c-39 17 -93 39
-120 46 l-49 15 6 -51 c4 -28 5 -49 3 -47 -7 8 -46 173 -41 177 6 6 102 -32
189 -75 41 -21 70 -42 73 -54 8 -30 19 -23 32 24 23 78 95 200 153 259 100
104 228 144 374 117z m2688 -51 c-3 -13 -14 -39 -24 -58 -10 -19 -25 -69 -34
-110 -55 -258 -50 -566 14 -810 10 -41 17 -76 15 -78 -2 -2 -6 5 -9 16 -6 18
-11 19 -40 11 -74 -20 -226 -36 -236 -25 -17 22 -51 240 -57 367 -10 215 19
375 94 525 l35 71 116 56 c65 30 121 56 125 56 5 1 5 -9 1 -21z m-1499 -8 c20
-8 25 -14 17 -22 -7 -7 -18 -3 -39 17 -15 15 -23 25 -17 22 6 -4 24 -11 39
-17z m41 -45 c4 -8 12 -15 20 -15 15 0 19 -12 7 -23 -7 -8 -53 31 -53 45 0 14
20 9 26 -7z m-2442 -37 c26 -41 56 -220 56 -331 0 -190 -33 -426 -80 -581 -17
-54 -25 -66 -42 -66 -16 0 -19 4 -14 23 24 76 68 331 76 432 16 196 12 308
-13 433 -17 85 -20 112 -10 112 7 0 19 -10 27 -22z m2211 -14 c287 -77 526
-332 570 -608 57 -356 -179 -694 -539 -770 -56 -12 -64 -11 -62 2 2 9 23 20
52 28 146 38 274 103 335 171 62 68 126 167 152 233 32 82 59 223 52 275 -2
22 -7 62 -10 90 -8 63 -15 71 -15 16 0 -23 -4 -40 -9 -37 -5 3 -11 -1 -15 -9
-3 -8 -14 -15 -24 -15 -11 0 -25 -6 -32 -14 -13 -17 -43 -134 -36 -144 11 -18
-40 -57 -93 -72 -24 -6 -27 -13 -36 -80 l-10 -74 -60 -21 c-50 -18 -131 -55
-205 -94 -8 -4 -16 -20 -18 -36 -3 -20 0 -25 10 -20 10 6 10 5 2 -4 -9 -10
-22 -7 -60 12 -45 23 -101 32 -177 28 -17 -1 -44 -16 -72 -42 l-44 -40 -20 39
c-17 34 -28 41 -86 60 -82 27 -195 99 -195 123 0 32 -41 98 -73 118 -51 31
-83 72 -101 128 -22 65 -71 135 -94 131 -42 -8 -37 -156 9 -283 52 -143 140
-256 261 -338 88 -59 142 -83 251 -112 83 -22 89 -38 6 -19 -300 70 -533 314
-564 590 -9 72 9 214 36 293 39 113 157 286 245 360 77 64 236 129 384 155 48
9 225 -4 285 -20z m-2020 -37 c66 -23 130 -51 141 -62 67 -67 78 -433 20 -678
-33 -139 -76 -272 -84 -260 -8 13 -264 54 -274 45 -4 -4 -9 -20 -12 -36 -3
-16 -11 -34 -17 -40 -9 -8 -10 -6 -5 9 15 41 65 243 80 320 45 238 52 480 17
635 -26 116 -26 124 -3 115 9 -3 71 -25 137 -48z m3406 -1 c-17 -25 -35 -56
-40 -69 -7 -19 -15 -24 -30 -20 -12 3 -21 12 -21 20 0 11 -7 14 -27 8 -26 -6
-27 -5 -11 11 18 18 137 92 151 93 4 1 -6 -19 -22 -43z m-2311 -13 c50 -22 55
-46 8 -35 -99 22 -390 -39 -444 -93 -14 -14 -24 -19 -24 -11 0 22 42 53 132
96 121 57 254 75 328 43z m4085 -316 c14 -24 25 -50 25 -58 0 -46 -135 -276
-249 -424 -134 -175 -412 -405 -636 -525 -44 -23 -98 -53 -120 -65 l-40 -23
-45 21 c-24 12 -45 27 -47 32 -2 6 25 21 59 35 240 95 550 344 765 614 114
142 157 210 214 338 24 54 45 98 46 98 1 0 14 -20 28 -43z m-2350 -37 c22 -5
48 -19 58 -31 23 -29 22 -106 -2 -138 -16 -21 -24 -23 -81 -19 -46 3 -66 9
-76 23 -18 25 -11 30 18 12 31 -20 92 -25 112 -8 16 14 22 74 10 106 -16 40
-118 60 -160 30 -12 -8 -25 -11 -29 -7 -3 4 -5 1 -3 -7 2 -7 -3 -16 -9 -18
-22 -8 -14 17 13 42 29 27 77 32 149 15z m-1879 -14 c10 -8 16 -17 13 -20 -3
-4 -17 2 -30 13 -27 23 -13 28 17 7z m-98 -27 c59 -12 124 -63 152 -120 32
-62 23 -69 -13 -9 -40 66 -107 112 -162 112 -52 0 -70 -22 -70 -83 0 -58 19
-79 71 -79 33 0 84 -18 84 -29 0 -3 -33 -4 -72 -1 -72 5 -73 6 -90 40 -27 53
-24 125 7 155 28 29 27 29 93 14z m-2473 -89 c-19 -21 -35 -26 -35 -12 0 5 10
14 23 20 31 15 32 14 12 -8z m39 -45 c4 -14 43 -80 88 -148 65 -96 116 -155
243 -283 88 -88 203 -192 255 -230 127 -94 263 -185 328 -219 l53 -29 -34 -34
-35 -34 -59 31 c-233 124 -619 505 -808 796 -87 133 -90 141 -76 159 20 23 38
19 45 -9z m2502 -101 c-11 -8 -28 -14 -38 -14 -28 0 -96 -37 -108 -59 -5 -11
-10 -34 -10 -51 0 -64 94 -110 153 -76 33 18 46 16 22 -4 -18 -15 -94 -25
-127 -16 -53 13 -87 115 -54 162 17 23 74 50 129 59 20 3 37 11 37 17 0 6 3 8
7 4 5 -4 -1 -14 -11 -22z m1927 -16 c9 -5 24 -20 33 -33 14 -21 14 -30 4 -55
-7 -17 -22 -37 -34 -45 -22 -16 -103 -20 -124 -6 -7 4 10 6 40 3 49 -3 55 -1
82 26 22 24 27 37 22 56 -6 25 -50 56 -80 56 -8 0 -18 4 -21 10 -7 11 49 3 78
-12z m-172 -208 c57 -25 131 -25 188 0 56 26 64 19 14 -11 -53 -33 -164 -33
-217 0 -32 20 -43 31 -32 31 2 0 23 -9 47 -20z m1039 -129 c-1 -13 -29 45 -29
59 0 8 6 0 14 -19 8 -18 15 -36 15 -40z m-228 -82 c6 -4 6 -9 1 -12 -5 -3 -19
14 -31 39 -28 57 -28 72 0 19 11 -22 25 -43 30 -46z m327 -111 c23 -40 32 -62
20 -48 -22 25 -73 120 -65 120 2 0 23 -33 45 -72z m-1902 51 c34 -13 43 -26
43 -62 0 -18 -11 -39 -29 -58 -25 -24 -37 -29 -81 -29 -70 0 -103 31 -98 92 2
34 8 45 28 55 31 16 99 17 137 2z m637 -81 c-3 -35 -19 -90 -34 -123 -15 -33
-39 -85 -53 -116 -34 -74 -85 -153 -139 -214 -24 -27 -55 -68 -68 -90 -13 -22
-45 -63 -70 -90 -53 -57 -65 -76 -90 -149 -18 -54 -113 -189 -136 -194 -33 -8
-24 31 24 102 27 41 58 98 67 126 11 32 42 82 79 129 34 42 78 101 98 131 19
31 60 80 89 110 78 78 100 128 98 223 l-1 76 63 70 c35 39 68 71 72 71 4 0 5
-28 1 -62z m-1408 17 c8 -13 13 -29 9 -35 -12 -19 23 -94 60 -130 51 -49 45
-16 -11 60 -25 34 -43 65 -39 68 3 3 30 -19 60 -48 53 -52 80 -105 69 -135 -3
-7 36 -50 91 -101 99 -93 158 -168 190 -244 10 -25 39 -77 64 -117 25 -40 62
-100 81 -133 18 -34 49 -79 68 -101 34 -39 37 -69 8 -69 -8 0 -27 17 -42 38
-15 20 -40 51 -54 67 -15 17 -34 51 -44 77 -9 26 -34 73 -55 105 -20 32 -53
87 -71 122 -26 49 -71 100 -180 208 -80 78 -155 150 -167 158 -39 28 -71 95
-78 168 -6 58 -5 67 9 67 8 0 23 -11 32 -25z m-1187 -80 c-12 -19 -23 -35 -25
-35 -6 0 14 40 29 58 18 23 16 12 -4 -23z m-319 -29 c-11 -18 -30 -42 -42 -52
-11 -10 -4 5 16 34 43 59 55 68 26 18z m2288 -2 c20 -4 23 -9 17 -32 -9 -37
-20 -42 -96 -42 -60 0 -68 2 -83 25 -12 18 -14 30 -7 43 8 15 20 17 78 15 37
-2 79 -6 91 -9z m1842 -100 c0 -9 -35 16 -80 57 l-45 41 63 -47 c34 -25 62
-48 62 -51z m-3870 49 c-48 -55 -152 -153 -162 -153 -6 0 8 15 30 33 23 17 64
58 92 90 29 31 54 57 58 57 3 0 -5 -12 -18 -27z m2487 -56 c-13 -18 -36 -56
-51 -84 -14 -29 -30 -53 -35 -53 -4 0 -29 -18 -55 -41 l-46 -41 0 32 c0 42 15
67 50 85 16 9 38 32 49 53 11 20 39 57 63 81 39 39 43 41 46 22 2 -12 -7 -36
-21 -54z m2422 17 c58 -8 133 -22 166 -30 69 -18 239 -104 329 -168 249 -177
560 -241 787 -162 96 33 100 33 53 -5 -91 -72 -170 -94 -329 -92 -85 1 -142 7
-196 21 -90 24 -204 79 -254 123 l-36 32 -124 -13 c-137 -14 -143 -13 -172 43
-13 27 -13 31 1 45 15 15 19 15 45 -1 31 -18 67 -21 120 -11 l32 7 -37 25
c-64 43 -176 89 -284 115 -173 42 -222 49 -324 46 -91 -4 -95 -3 -64 10 76 32
146 36 287 15z m-2956 -8 c81 13 82 12 127 -14 82 -51 114 -132 90 -232 -16
-68 -43 -96 -112 -120 -57 -20 -184 -28 -174 -11 3 4 -5 6 -17 4 -32 -5 -83
30 -105 74 -42 82 -36 174 15 241 32 42 87 78 91 59 2 -10 18 -11 85 -1z
m2247 -44 c-17 -7 -56 -19 -86 -27 -47 -12 -59 -12 -92 1 l-37 14 36 -5 c25
-4 43 0 60 12 49 36 60 39 106 28 l45 -10 -32 -13z m-877 -23 c39 -21 45 -39
21 -63 -22 -22 -29 -20 -44 12 -12 25 -15 31 -19 47 -3 12 -43 -18 -51 -38
l-9 -22 0 22 c-2 45 53 67 102 42z m-1997 -41 c21 -18 52 -56 70 -84 20 -31
53 -64 85 -85 57 -36 129 -135 129 -176 0 -49 -51 -13 -85 60 -14 30 -30 45
-74 65 -48 23 -60 35 -84 82 -15 30 -45 73 -67 95 -67 68 -45 105 26 43z
m1807 -30 c-10 -112 75 -193 202 -193 42 0 70 6 95 21 34 20 35 22 35 81 0 68
10 64 20 -8 13 -96 -47 -209 -111 -209 -65 0 -154 33 -200 73 -56 49 -74 88
-74 161 0 44 24 126 36 126 1 0 0 -24 -3 -52z m-2465 31 c31 -11 49 -40 37
-59 -8 -13 -35 -13 -35 0 0 6 -16 18 -35 27 -34 16 -36 16 -65 -5 -28 -21 -38
-20 -22 4 12 18 56 44 73 44 9 0 30 -5 47 -11z m-1112 -17 c5 1 32 -8 59 -21
28 -12 57 -23 65 -24 26 -2 71 13 66 22 -3 5 1 14 9 21 13 11 14 10 9 -3 -5
-14 -2 -14 19 -4 14 6 23 16 20 21 -4 5 0 6 7 1 18 -11 -20 -39 -88 -65 -65
-25 -69 -25 -123 -1 -24 11 -62 27 -84 36 -39 17 -39 18 -15 25 14 4 30 3 36
-2 7 -5 16 -8 20 -6z m3043 -55 c-69 -65 -78 -77 -88 -125 -15 -72 -15 -72 19
-60 17 5 38 7 48 3 15 -6 15 -8 -6 -25 -12 -10 -47 -26 -76 -34 -41 -12 -66
-29 -110 -73 -52 -53 -106 -132 -106 -156 0 -5 8 -3 18 5 20 19 97 58 112 58
44 0 -50 -83 -163 -145 -93 -50 -113 -36 -53 38 18 23 48 72 66 110 25 52 53
86 121 151 78 73 89 87 89 117 1 45 30 108 66 140 52 46 89 68 114 68 22 1 15
-8 -51 -72z m-1769 -9 c37 -66 38 -112 5 -178 -44 -88 -150 -141 -250 -125
-79 11 -135 81 -135 164 l0 36 20 -43 c32 -70 97 -88 193 -52 107 40 162 143
123 233 -5 10 -4 17 3 17 6 0 24 -24 41 -52z m-1587 -51 c24 -10 6 -12 -105
-12 -125 0 -139 -2 -228 -34 -117 -42 -225 -94 -321 -156 -41 -26 -91 -55
-112 -64 l-37 -16 85 0 84 0 49 49 c38 36 55 47 70 42 38 -12 38 -60 1 -71
-11 -4 -38 -31 -60 -61 -22 -30 -47 -54 -57 -54 -9 0 -41 9 -71 20 -59 23 -77
20 -121 -16 -61 -52 -325 -172 -428 -195 -141 -31 -297 8 -451 114 -56 38 -39
47 26 13 108 -54 240 -74 372 -56 86 12 219 54 275 88 17 11 60 37 96 59 36
22 78 43 94 47 21 5 26 10 17 15 -16 10 38 55 174 144 140 91 258 138 397 157
75 10 211 3 251 -13z m4422 -87 c-10 -11 -20 -18 -23 -15 -7 6 18 35 31 35 5
0 2 -9 -8 -20z m65 -22 c0 -16 -3 -18 -13 -9 -8 6 -16 9 -18 7 -2 -2 -5 6 -5
20 -2 20 1 22 17 13 10 -5 19 -19 19 -31z m-125 -128 c28 -31 88 -60 124 -60
20 0 37 9 55 31 14 17 26 35 26 40 0 6 5 7 10 4 21 -13 10 -66 -19 -96 -25
-24 -38 -29 -78 -29 -54 0 -115 30 -145 71 -25 33 -33 96 -17 134 l13 30 6
-52 c3 -30 13 -60 25 -73z m-3300 80 c22 -25 13 -52 -17 -48 -15 2 -24 11 -26
26 -4 26 -27 29 -41 5 -6 -10 -11 -14 -11 -9 0 18 33 46 55 46 12 0 30 -9 40
-20z m1148 -7 c18 -9 54 -33 82 -53 27 -21 60 -41 73 -45 21 -6 42 -32 97
-119 38 -59 67 -94 91 -107 32 -17 31 -39 -2 -39 -48 0 -310 141 -299 161 11
16 38 9 104 -26 36 -19 68 -32 73 -29 12 7 -52 93 -82 112 -14 8 -62 39 -107
68 -46 30 -89 54 -96 54 -30 0 -77 23 -77 37 0 13 9 15 56 9 31 -3 70 -14 87
-23z m-1062 -73 c17 -56 -9 -121 -64 -161 -56 -41 -99 -39 -143 5 -39 39 -47
72 -9 36 33 -31 74 -30 124 3 52 34 75 78 68 129 -6 48 9 40 24 -12z m1615
-63 c8 -24 7 -40 -4 -69 -18 -46 -36 -48 -57 -8 -20 39 -19 54 8 95 24 38 35
34 53 -18z m4274 -25 c-14 -58 -80 -190 -128 -255 -95 -132 -329 -264 -515
-292 -41 -6 -56 -16 -115 -74 -115 -115 -340 -253 -502 -307 -78 -27 -97 -29
-220 -28 -117 0 -152 5 -265 33 -128 32 -228 65 -252 84 -27 20 -12 153 25
225 22 42 46 41 108 -4 48 -34 114 -68 121 -61 2 2 -4 18 -13 36 -9 17 -17 53
-17 79 -2 46 -1 47 28 46 17 -1 66 -11 110 -23 94 -25 255 -40 255 -23 0 6 -4
13 -8 16 -5 3 -30 41 -55 85 -54 93 -60 132 -22 157 23 15 31 15 106 -1 45 -9
143 -36 217 -61 149 -48 167 -52 137 -26 -43 36 -67 81 -60 111 11 51 27 56
100 32 94 -30 193 -44 335 -45 174 -1 247 18 390 104 89 53 186 147 220 213
29 55 37 46 20 -21z m-1392 51 c-15 -2 -42 -2 -60 0 -18 2 -6 4 27 4 33 0 48
-2 33 -4z m-174 -23 c-38 -10 -87 -25 -108 -34 -45 -19 -60 -20 -31 -4 31 18
157 57 185 57 14 0 -7 -8 -46 -19z m-7188 -381 c55 -90 148 -188 227 -236 67
-42 166 -67 226 -59 26 4 102 13 170 21 68 8 146 21 175 29 28 8 102 20 164
27 132 14 147 8 146 -60 -2 -49 -37 -98 -89 -122 -28 -12 -34 -18 -19 -18 25
-1 234 74 335 121 81 38 137 52 155 40 43 -29 41 -93 -8 -209 -16 -41 -28 -77
-25 -80 3 -3 54 27 112 67 108 73 200 120 234 120 39 0 59 -56 37 -102 -18
-35 -16 -47 4 -23 7 8 17 15 23 15 5 0 3 -8 -6 -18 -38 -42 -11 -42 76 -1 37
17 75 29 85 27 18 -3 17 -8 -10 -103 -26 -90 -35 -126 -37 -147 -1 -4 -12 -19
-26 -33 -14 -14 -21 -25 -15 -25 6 0 21 10 34 23 13 13 27 22 32 20 6 -2 20 6
32 17 12 11 24 20 27 20 20 -1 24 1 21 13 -1 6 -1 8 2 4 2 -4 10 -3 18 4 8 6
11 15 8 20 -3 5 2 6 11 3 14 -6 14 -8 -2 -26 -24 -26 -163 -102 -248 -134
-162 -61 -418 -82 -590 -49 -136 26 -432 182 -519 274 -24 25 -38 31 -70 31
-51 0 -261 43 -343 71 -197 65 -349 251 -394 481 -19 97 -26 180 -9 111 4 -18
29 -69 56 -114z m4686 63 c40 -34 58 -94 58 -190 0 -115 -15 -184 -47 -223
-43 -51 -172 -105 -188 -79 -10 17 13 37 85 73 87 44 110 87 109 201 -1 93
-11 142 -24 114 -9 -23 -72 -24 -102 -3 -30 21 -44 67 -29 96 19 39 99 45 138
11z m-340 1 c25 -29 29 -53 13 -82 -22 -43 -70 -55 -99 -25 -20 20 -12 34 14
27 11 -3 32 2 46 12 33 21 18 35 -38 35 -29 0 -41 -6 -57 -29 -31 -43 -45
-121 -32 -178 24 -115 60 -159 154 -193 34 -13 68 -28 75 -33 20 -16 14 -37
-12 -37 -20 0 -24 -6 -30 -41 -4 -24 -2 -46 4 -54 12 -14 3 -92 -11 -101 -13
-7 -49 71 -49 106 0 17 7 45 16 61 8 17 14 32 12 32 -128 63 -160 91 -189 165
-44 116 -25 257 45 327 32 31 113 36 138 8z m-2282 -67 c39 -18 15 -14 -60 10
-41 13 -42 14 -10 10 19 -2 51 -11 70 -20z m3929 -241 c116 -45 181 -98 226
-185 13 -25 19 -66 23 -145 4 -92 1 -123 -17 -188 -34 -125 -74 -201 -141
-271 -100 -105 -226 -154 -365 -143 -138 11 -236 60 -282 142 -34 60 -28 70
16 26 53 -53 142 -81 265 -83 70 -1 103 3 142 19 164 65 252 196 262 388 8
164 -41 291 -152 398 -40 37 -64 67 -55 67 8 0 44 -11 78 -25z m-44 -35 c27
-30 25 -97 -4 -121 -42 -35 -103 -24 -127 23 -19 37 -10 82 19 103 31 22 90
19 112 -5z m-2893 -40 c-27 -25 -29 -30 -13 -30 50 0 91 -41 91 -91 0 -11 -13
-34 -29 -50 -40 -40 -83 -39 -121 1 l-28 30 -22 -35 c-34 -55 -56 -203 -43
-292 19 -129 86 -239 190 -307 59 -39 153 -59 259 -54 80 3 100 8 160 38 49
25 79 48 103 80 36 48 36 30 0 -42 -63 -125 -320 -191 -502 -129 -74 25 -166
89 -223 154 -75 86 -116 219 -118 382 -1 94 1 104 32 166 33 68 90 123 172
165 30 15 105 42 120 43 3 0 -10 -13 -28 -29z m2470 -137 c39 -35 11 -103 -43
-103 -29 0 -59 31 -59 60 0 50 64 78 102 43z m-1967 -18 c29 -28 31 -42 10
-72 -23 -33 -63 -38 -91 -12 -30 28 -30 56 -2 86 28 30 53 29 83 -2z m1093
-30 c2 -28 -3 -68 -10 -90 -14 -42 -38 -59 -38 -27 0 10 -9 27 -21 38 -17 15
-20 27 -16 61 6 54 23 75 56 71 24 -3 26 -8 29 -53z m2039 -277 c-6 -164 -41
-377 -79 -495 -33 -101 -145 -317 -212 -408 -197 -268 -584 -558 -934 -700
-436 -176 -807 -234 -1252 -195 -318 28 -702 148 -1031 321 -171 90 -188 101
-394 254 -248 185 -385 350 -484 585 -72 172 -143 434 -140 523 l1 32 8 -30
c4 -16 15 -64 25 -105 24 -106 91 -310 132 -404 117 -270 355 -512 713 -726
152 -91 346 -190 373 -190 13 0 28 -5 35 -12 9 -9 15 -9 23 -1 8 8 0 13 -30
18 -24 4 -38 11 -35 17 4 6 -1 8 -14 4 -34 -11 -78 20 -111 77 -30 53 -35 87
-12 95 8 3 10 -4 5 -22 -4 -16 -1 -32 7 -42 7 -9 14 -23 15 -31 4 -22 21 -37
21 -18 0 8 -4 15 -9 15 -4 0 -7 3 -7 8 4 23 -2 42 -12 36 -8 -4 -9 3 -4 24 3
16 2 33 -4 36 -15 10 -43 -5 -37 -21 3 -8 1 -11 -4 -8 -13 8 -13 56 0 75 9 13
11 13 21 0 9 -13 10 -12 5 3 -4 14 2 22 27 32 30 13 33 12 54 -13 12 -15 20
-33 18 -40 -3 -7 -1 -11 4 -8 10 7 64 -49 67 -69 2 -11 -4 -13 -19 -10 -12 3
-35 7 -52 9 -16 2 -34 4 -39 5 -4 0 -5 13 -2 27 5 17 3 23 -4 19 -14 -9 -13 8
3 25 10 12 10 13 -2 3 -7 -6 -19 -10 -25 -9 -6 2 -8 1 -3 -1 4 -3 7 -17 7 -31
1 -30 42 -67 66 -58 8 3 14 -1 14 -10 0 -12 6 -15 23 -10 12 4 29 8 37 10 8 2
14 10 14 18 -1 12 10 8 40 -12 36 -25 201 -96 261 -113 11 -4 -9 -4 -45 -1
-50 4 -69 11 -85 29 -30 31 -59 39 -101 25 -28 -9 -34 -16 -29 -31 5 -15 1
-19 -17 -20 -17 -1 -19 -2 -5 -6 10 -2 16 -11 15 -20 -3 -17 63 -47 152 -69
72 -18 91 -17 60 2 l-25 15 25 -7 c33 -9 35 -11 22 -27 -9 -10 -9 -14 1 -15 6
0 48 -11 92 -22 93 -25 183 -45 240 -54 31 -5 37 -4 25 5 -13 9 -12 10 3 5 10
-3 25 -6 33 -6 9 0 13 -4 10 -9 -14 -23 308 -29 544 -10 198 15 481 66 371 66
-17 0 -31 -4 -31 -9 0 -4 -5 -8 -11 -8 -6 0 -9 6 -6 14 4 11 -2 13 -26 9 -21
-3 -29 -1 -22 5 6 6 24 12 40 13 17 2 39 9 50 16 11 7 37 13 58 13 33 0 37 -2
28 -14 -13 -16 4 -26 42 -26 18 0 19 2 7 11 -11 8 -8 9 15 4 20 -3 38 0 50 9
11 9 29 16 40 16 17 0 18 2 5 10 -11 8 -8 9 12 4 20 -4 57 6 130 36 104 42
133 58 88 46 -25 -6 -25 -6 -2 5 27 14 29 45 4 53 -19 6 -27 36 -10 36 5 0 6
9 3 20 -4 12 -1 27 5 35 9 11 9 15 1 15 -6 0 -11 -4 -11 -10 0 -5 -8 -10 -17
-10 -14 0 -15 -2 -4 -9 11 -7 9 -10 -8 -16 -11 -3 -21 -11 -21 -16 0 -6 4 -8
9 -5 5 3 14 -1 20 -8 14 -17 1 -28 -19 -16 -7 4 -19 6 -26 3 -7 -2 -20 0 -30
5 -15 8 -15 11 5 31 13 13 29 20 37 17 7 -3 13 -1 11 3 -1 5 15 21 36 35 37
25 57 27 57 5 0 -6 -4 -8 -9 -5 -4 3 -13 -6 -19 -19 -8 -18 -8 -25 -1 -25 6 0
9 -6 6 -14 -3 -8 4 -18 18 -24 20 -9 23 -9 18 3 -3 8 -10 12 -15 9 -6 -4 -8
-1 -6 7 3 8 11 13 17 11 9 -2 9 3 1 18 -6 11 -8 25 -5 31 4 5 2 16 -5 24 -9
11 -7 16 9 25 20 10 105 108 126 145 10 17 13 17 43 1 17 -9 36 -25 42 -35 10
-19 14 -71 6 -71 -2 0 -11 -3 -20 -6 -9 -3 -16 -1 -16 4 0 6 8 13 18 15 9 3 6
4 -8 3 -14 -1 -30 -5 -37 -9 -6 -4 -14 -3 -18 3 -3 5 -11 10 -16 10 -6 0 -8
-4 -5 -9 3 -4 -2 -8 -12 -8 -40 0 -53 -4 -47 -13 4 -6 1 -9 -6 -8 -7 2 -13 -2
-14 -9 0 -7 -6 -18 -12 -24 -19 -19 -16 -34 4 -18 11 9 14 10 9 2 -9 -16 11
-53 29 -53 7 0 16 6 18 13 3 6 6 2 6 -10 1 -13 5 -23 10 -23 5 0 12 -7 15 -16
3 -9 2 -12 -4 -9 -6 4 -9 3 -8 -2 3 -9 -5 -13 -29 -13 -15 0 -15 1 2 13 12 9
14 16 7 21 -6 3 -16 -3 -22 -14 -9 -17 -7 -22 12 -30 21 -8 21 -9 3 -10 -11
-1 -15 -4 -8 -7 7 -2 28 7 46 21 19 14 37 26 42 26 18 0 197 121 295 199 180
143 372 357 472 526 43 72 91 192 85 209 -4 9 -20 11 -59 6 -56 -8 -85 -2
-136 24 -21 11 -29 21 -25 31 6 17 26 14 78 -13 31 -16 125 -24 125 -11 0 4 9
5 20 2 31 -8 25 21 -11 51 -24 21 -41 26 -82 26 l-51 0 21 22 c19 19 26 20 48
10 15 -7 31 -10 36 -7 14 9 49 -14 58 -38 7 -17 10 -12 20 33 7 30 15 63 18
73 4 16 1 16 -35 -3 -33 -17 -63 -21 -183 -25 -79 -3 -160 -6 -179 -7 -25 -2
-35 1 -38 13 -6 30 46 40 199 37 144 -3 144 -3 196 27 57 32 58 35 68 161 8
103 26 234 33 234 3 0 2 -69 -1 -152z m-2372 97 c37 -15 54 -40 38 -56 -5 -5
-24 -1 -48 11 -65 33 -136 4 -150 -61 -9 -39 -23 -45 -31 -14 -7 27 10 77 32
96 17 14 83 38 107 39 10 0 33 -7 52 -15z m473 1 c50 -27 78 -100 48 -125 -12
-10 -16 -6 -25 25 -5 20 -18 45 -27 55 -23 26 -91 25 -124 -1 -31 -24 -50 -25
-50 -2 0 44 124 78 178 48z m3180 -39 c40 -43 52 -190 20 -251 -9 -16 -7 -18
13 -13 13 3 76 15 139 27 144 25 214 44 245 64 60 40 100 4 99 -88 -2 -125
-62 -281 -138 -359 l-43 -45 31 -17 c62 -35 136 -119 136 -154 0 -5 -13 3 -29
17 -72 68 -166 122 -211 122 -11 0 -20 5 -20 10 0 6 11 10 24 10 13 0 26 7 30
15 3 8 1 15 -4 15 -21 0 -8 20 48 77 46 47 64 75 90 143 19 47 40 97 48 112
19 35 18 94 -1 102 -8 3 -15 2 -15 -3 0 -9 -75 -46 -112 -55 -16 -4 -28 -11
-28 -17 0 -7 -4 -8 -12 -2 -8 5 -65 6 -133 3 -102 -6 -108 -7 -42 -8 103 -3
101 -22 -2 -22 -64 0 -80 -3 -85 -16 -9 -24 2 -31 17 -10 10 13 24 16 62 14
47 -3 48 -4 25 -15 -27 -13 -22 -16 25 -14 26 1 27 -1 10 -8 l-20 -10 20 -1
c16 -1 14 -4 -8 -12 -21 -7 -32 -7 -40 1 -6 6 -21 11 -33 11 -13 0 -26 5 -29
10 -4 7 -13 6 -27 -1 -15 -8 -19 -8 -14 0 10 15 -27 14 -42 -1 -9 -9 -12 -9
-12 0 0 6 -8 9 -17 6 -15 -5 -15 -4 -3 4 8 6 17 9 21 6 4 -2 19 0 34 6 22 8
25 13 15 25 -6 8 -9 19 -5 25 3 5 2 10 -3 10 -5 0 -14 -11 -21 -24 -7 -13 -25
-29 -38 -35 -14 -7 -23 -14 -20 -18 7 -6 -60 -63 -74 -63 -14 0 -30 40 -24 60
3 11 17 28 31 39 44 35 71 111 39 111 -13 0 -91 -32 -152 -62 -17 -9 -28 -7
-50 7 -23 15 -26 16 -15 2 16 -19 6 -41 -14 -33 -8 3 -13 0 -11 -7 1 -7 -6
-11 -15 -11 -10 1 -18 -2 -18 -6 0 -4 -14 -13 -31 -19 -26 -9 -30 -8 -25 5 9
23 -82 -43 -137 -100 -52 -53 -87 -120 -106 -206 -22 -98 -22 -96 -34 -74 -17
31 -10 134 14 199 42 116 126 203 256 267 37 18 92 56 122 84 86 78 241 194
260 194 10 0 27 -10 39 -23z m-1910 -71 c2 -15 -10 -55 -26 -90 -64 -137 -223
-210 -384 -177 -62 13 -144 62 -153 91 -3 10 -2 27 3 37 6 10 18 37 27 61 10
23 20 42 22 42 12 0 83 -42 83 -49 0 -19 -14 -19 -27 -1 -20 29 -61 26 -69 -4
-8 -34 0 -43 47 -58 44 -13 59 -4 59 37 0 18 7 20 75 20 62 1 75 -2 75 -15 0
-9 6 -25 14 -35 13 -18 14 -18 42 -1 l28 19 -30 27 -31 27 28 15 c18 11 26 12
23 4 -7 -18 40 -58 59 -50 32 12 9 72 -33 86 -10 3 -10 9 -2 25 l12 21 57 -28
c57 -27 58 -27 66 -7 4 11 3 25 -4 33 -10 12 -8 13 12 6 16 -6 25 -19 27 -36z
m-894 18 c28 -11 17 -24 -18 -24 -53 0 -51 -15 6 -48 48 -26 101 -72 85 -72
-4 0 -27 13 -53 30 -26 16 -69 37 -95 45 -27 9 -49 23 -49 30 0 30 82 55 124
39z m-1224 -24 c30 -16 25 -25 -35 -54 -30 -15 -70 -46 -90 -68 -19 -23 -37
-39 -40 -36 -7 7 72 108 91 115 25 9 15 30 -17 37 -19 3 -28 10 -23 17 8 13
83 6 114 -11z m-830 -15 c0 -8 -9 -15 -20 -15 -29 0 -47 -42 -32 -75 14 -30
40 -32 75 -5 29 23 50 25 65 7 8 -9 5 -19 -8 -37 -26 -33 -25 -56 3 -64 23 -6
57 23 57 50 0 8 10 14 26 14 l25 0 -20 -26 c-36 -46 -19 -75 41 -66 29 4 30 6
26 47 l-5 42 48 20 48 21 26 -28 c28 -30 54 -30 56 -1 1 18 4 10 13 -32 4 -15
11 -25 16 -22 6 3 10 1 10 -6 0 -7 -21 -33 -48 -59 -139 -134 -394 -94 -504
79 -40 63 -39 64 29 137 32 35 73 46 73 19z m3503 -56 c-22 -38 -52 -60 -128
-94 -55 -24 -230 -58 -247 -48 -29 17 31 41 167 69 81 16 193 67 202 91 3 7 9
13 15 13 5 0 1 -14 -9 -31z m-4153 -95 c30 -8 72 -14 95 -14 55 0 154 -25 172
-43 12 -12 13 -19 3 -36 -14 -28 -36 -36 -140 -50 -76 -11 -94 -10 -166 7 -88
21 -113 32 -134 56 -15 20 -3 20 41 2 51 -20 151 -28 262 -20 96 7 99 7 72 22
-15 8 -67 18 -115 21 -63 6 -98 14 -130 32 -45 25 -71 59 -34 45 11 -4 44 -14
74 -22z m-345 -84 c-4 -28 -15 -74 -26 -102 -10 -29 -15 -54 -11 -57 9 -7 62
-89 62 -96 0 -3 -10 -5 -22 -5 -15 0 -29 11 -40 30 -9 17 -21 30 -27 30 -14 0
-31 -58 -38 -127 -4 -45 -10 -63 -20 -63 -15 0 -49 -68 -59 -118 -5 -24 -1
-33 23 -50 16 -11 35 -32 43 -46 7 -14 20 -26 27 -26 16 0 133 56 148 71 17
17 25 9 25 -25 0 -31 -4 -36 -42 -50 -24 -9 -73 -27 -110 -40 -61 -23 -71 -23
-70 -6 0 3 -8 16 -17 29 l-18 24 -7 -39 c-13 -72 -26 -103 -42 -97 -8 3 -14 0
-14 -6 0 -34 192 11 323 77 4 2 7 -8 7 -22 0 -17 -18 -44 -57 -84 -91 -93
-141 -156 -163 -207 -34 -80 -61 -196 -67 -285 -5 -84 -5 -86 28 -135 27 -39
49 -58 104 -86 61 -31 70 -39 67 -60 -2 -13 -5 -25 -6 -26 -5 -5 -128 64 -161
90 -58 46 -58 45 -19 -131 44 -202 149 -412 268 -536 49 -51 86 -119 73 -132
-11 -11 -159 141 -204 210 -116 176 -216 486 -248 768 -50 447 32 892 237
1296 24 45 46 82 51 82 5 0 6 -23 2 -50z m650 -80 c16 -18 16 -20 2 -20 -9 0
-24 -14 -32 -31 l-17 -31 34 7 c86 20 138 -5 138 -64 0 -28 -24 -70 -47 -84
-8 -5 -30 -22 -49 -39 -28 -25 -34 -37 -34 -72 l-1 -41 -20 25 c-16 18 -20 33
-15 60 5 33 18 49 84 102 23 19 30 72 11 83 -6 4 -35 4 -65 0 -46 -5 -56 -11
-69 -35 -14 -26 -75 -58 -115 -59 -8 0 -39 -6 -68 -13 -46 -10 -54 -10 -69 4
-15 15 -13 17 23 23 21 3 55 12 74 20 19 7 54 18 77 24 38 10 44 16 61 64 27
70 12 72 -82 9 -85 -57 -115 -68 -206 -76 -59 -5 -63 -4 -45 9 20 16 78 35
105 35 9 0 56 23 105 51 129 75 186 87 220 49z m2040 -6 c137 -18 297 -57 395
-96 319 -126 471 -307 473 -563 1 -88 0 -92 -37 -149 -60 -94 -126 -150 -250
-210 -179 -89 -318 -115 -731 -141 -574 -36 -819 -10 -1072 111 -101 48 -182
119 -208 180 -21 50 -29 177 -16 254 20 121 108 265 215 351 114 92 366 198
570 240 229 47 430 54 661 23z m665 -60 c21 -54 4 -74 -26 -29 -16 25 -13 55
6 55 6 0 15 -12 20 -26z m814 -9 c11 -9 37 -27 56 -40 82 -57 82 -57 70 -65
-8 -5 -10 -15 -5 -26 4 -11 11 -34 15 -51 12 -52 -11 -40 -43 20 -19 37 -40
61 -67 76 -51 28 -53 13 -10 -62 41 -74 41 -114 -1 -64 -44 52 -101 159 -106
198 l-6 42 38 -6 c20 -3 47 -13 59 -22z m-2737 -77 c-4 -38 -26 -68 -49 -68
-14 0 -9 48 6 57 7 4 18 18 25 31 18 33 23 27 18 -20z m2646 -56 c22 -38 17
-87 -12 -123 -18 -22 -18 -22 -13 35 4 48 1 62 -17 86 -26 37 -26 42 1 38 12
-2 30 -18 41 -36z m516 -53 c42 -77 99 -228 151 -394 95 -307 133 -785 82
-1041 -27 -135 -46 -193 -102 -304 -93 -185 -212 -321 -377 -430 -88 -59 -218
-118 -231 -106 -2 3 0 17 5 32 7 22 24 34 77 56 194 79 370 260 471 485 46
100 52 123 35 123 -5 0 1 10 13 23 28 27 93 235 105 330 5 48 -18 77 -62 77
-25 -1 -37 -10 -64 -45 -18 -25 -57 -63 -87 -85 -30 -22 -55 -48 -55 -57 0
-20 -75 -156 -95 -173 -13 -10 -15 -9 -15 12 0 13 9 49 20 81 26 74 26 77 -10
67 -16 -5 -49 -10 -72 -11 -38 -3 -43 -1 -40 16 5 30 42 65 68 65 72 0 127 23
194 81 82 70 102 101 129 200 35 126 12 197 -118 359 -42 52 -105 126 -142
163 -65 67 -66 68 -107 61 -34 -5 -42 -4 -42 9 0 20 27 47 48 47 12 0 13 3 5
11 -6 6 -9 18 -6 25 4 11 15 7 46 -16 23 -17 53 -30 70 -30 36 0 116 20 122
30 3 5 -9 18 -26 31 -22 15 -57 25 -122 33 l-92 11 24 24 c21 21 29 23 85 17
33 -4 76 -12 94 -17 18 -6 36 -8 39 -5 14 14 2 70 -34 155 l-39 91 -17 -53
c-9 -30 -17 -63 -17 -75 0 -55 -29 -70 -46 -23 -10 24 -6 40 27 117 21 48 40
97 43 108 7 27 16 17 65 -75z m-658 21 c33 -18 49 -64 49 -144 0 -42 5 -107
12 -145 9 -54 9 -81 -1 -125 -18 -83 -36 -85 -27 -3 8 77 -2 107 -58 180 -33
43 -47 87 -28 87 5 0 19 -15 32 -32 l24 -33 7 35 c12 55 -5 119 -37 145 -39
31 -19 59 27 35z m-3101 -59 c0 -11 -11 -28 -24 -39 -16 -12 -30 -39 -38 -72
-20 -78 -38 -77 -38 2 0 83 27 128 78 128 15 0 22 -6 22 -19z m63 -3 c8 -11 6
-36 -6 -86 -25 -105 -23 -114 18 -69 20 20 40 37 45 37 20 0 9 -35 -21 -66
-24 -25 -32 -44 -36 -81 -7 -77 -12 -93 -40 -119 -19 -18 -27 -38 -33 -81 l-7
-58 -2 55 -2 55 -22 -27 c-27 -33 -37 -35 -37 -8 0 10 25 44 55 74 60 59 62
67 41 157 -17 73 -2 242 22 237 8 -2 20 -10 25 -20z m5302 -257 c-6 -5 -37
-18 -70 -30 -44 -17 -71 -21 -105 -16 -78 11 -82 26 -5 19 56 -5 81 -2 125 14
66 24 67 24 55 13z m-274 -112 c6 -12 37 -58 69 -102 32 -45 75 -122 96 -172
32 -77 37 -101 37 -166 0 -82 -20 -157 -60 -226 -14 -24 -26 -43 -28 -43 -1 0
9 28 24 63 60 144 16 372 -100 512 -41 49 -89 137 -89 163 0 18 36 -3 51 -29z
m-2268 -302 c-2 -30 -30 -77 -47 -77 -8 0 -8 2 0 8 6 4 15 18 19 32 7 22 6 23
-8 12 -9 -8 -24 -12 -34 -9 -14 4 -13 5 5 6 30 1 28 21 -3 21 -27 0 -32 9 -13
28 9 9 15 7 25 -6 13 -16 14 -15 8 5 -5 19 -3 21 22 14 22 -6 28 -13 26 -34z
m-137 -7 c-1 -33 -21 -42 -23 -10 -1 11 3 20 8 20 6 0 7 5 4 10 -3 6 -2 10 3
10 5 0 9 -13 8 -30z m-3281 -184 c-63 -233 -89 -507 -66 -714 10 -92 76 -390
132 -590 11 -40 44 -128 74 -195 30 -68 55 -129 55 -135 0 -17 11 -15 45 8 50
33 86 27 134 -25 22 -24 41 -49 41 -55 0 -12 60 -40 84 -40 8 0 21 20 31 48 9
26 23 60 31 75 20 40 18 52 -10 70 -13 9 -37 42 -52 72 l-27 56 21 52 c12 29
22 58 22 65 0 15 22 16 38 0 15 -15 15 -50 0 -82 -23 -52 47 -186 97 -186 13
0 35 -4 50 -10 40 -15 123 -98 135 -136 11 -33 32 -44 45 -24 9 15 81 31 108
25 28 -7 57 -61 57 -105 0 -40 -18 -47 -31 -13 -20 50 -26 58 -47 61 -11 2
-30 -6 -42 -18 -24 -24 -61 -40 -95 -40 -20 0 -27 10 -45 65 -22 67 -64 115
-101 115 -21 0 -24 -12 -9 -40 12 -22 3 -50 -15 -50 -8 0 -23 14 -35 30 -26
36 -36 32 -50 -20 -7 -28 -7 -45 1 -64 7 -14 10 -29 6 -32 -3 -3 -46 7 -96 22
-87 26 -93 30 -122 75 -17 26 -38 49 -47 51 -20 5 -99 -20 -107 -33 -8 -11 44
-128 96 -218 37 -64 43 -91 19 -91 -13 0 -95 157 -114 220 -10 30 -24 69 -32
87 -8 17 -14 34 -14 38 0 3 -29 83 -65 176 -96 251 -158 482 -191 716 -33 238
-1 565 82 836 37 118 44 81 9 -47z m3885 22 c41 -157 53 -313 47 -608 -6 -299
-19 -424 -66 -630 -32 -145 -154 -545 -203 -669 -37 -96 -117 -251 -128 -251
-23 0 -15 27 39 136 32 66 62 130 66 144 8 25 7 25 -13 6 -20 -18 -60 -18
-106 0 -8 3 -29 -16 -50 -44 -34 -47 -38 -50 -96 -56 -33 -4 -79 -14 -103 -22
l-42 -14 48 44 c54 50 61 88 26 137 -27 39 -45 37 -59 -7 -9 -28 -17 -34 -33
-32 -23 3 -24 8 -13 75 l8 42 -33 -9 c-53 -16 -94 -50 -144 -123 -46 -67 -48
-69 -81 -62 -26 4 -34 2 -34 -8 0 -8 -6 -20 -14 -26 -12 -10 -15 -6 -21 19 -9
42 -29 47 -75 21 -21 -12 -41 -18 -43 -14 -15 25 42 87 90 99 13 4 44 -1 69
-11 42 -16 46 -16 64 0 10 9 30 40 43 70 31 63 63 90 134 111 44 13 56 21 67
47 8 18 21 41 29 51 11 15 12 27 5 48 -15 43 -2 93 33 122 52 44 73 26 38 -30
-21 -35 -21 -37 -5 -65 23 -39 14 -78 -30 -130 l-34 -41 36 -40 c44 -49 73
-111 74 -155 0 -55 42 -39 89 36 18 27 40 52 49 56 22 8 130 -35 136 -55 2 -8
4 -4 5 10 1 14 13 57 27 95 53 148 139 460 174 629 28 135 54 539 45 711 -7
149 -27 325 -46 389 -10 35 -5 95 7 83 3 -3 14 -38 24 -79z m-853 65 c-4 -3
-1 -13 6 -21 10 -13 9 -14 -13 -3 l-25 12 24 -21 c17 -15 21 -24 14 -31 -17
-17 -54 7 -46 29 5 14 3 15 -8 5 -7 -7 -22 -13 -33 -13 -15 0 -7 8 24 25 44
23 70 32 57 18z m-222 -83 c-3 -5 -11 -10 -17 -10 -5 0 -26 -8 -45 -17 -31
-14 -34 -18 -19 -29 15 -10 13 -12 -13 -16 -17 -2 -28 -1 -25 4 3 4 -3 8 -13
9 -16 0 -16 1 2 9 16 7 14 9 -15 9 -19 0 -52 -3 -73 -8 -20 -5 -39 -5 -42 -1
-2 4 21 10 53 14 43 5 180 34 210 45 2 1 0 -3 -3 -9z m-1290 -40 c4 -7 -3 -8
-22 -4 -38 9 -42 14 -10 14 14 0 29 -5 32 -10z m320 -35 l160 -12 -185 2
c-102 1 -186 6 -187 11 -1 5 -12 12 -25 16 -13 4 0 5 27 1 28 -3 122 -11 210
-18z m682 19 c-3 -3 -22 -6 -43 -6 -20 0 -32 -3 -25 -7 6 -4 -66 -8 -161 -8
l-173 0 145 8 c80 5 152 10 160 13 24 6 104 7 97 0z m253 -24 c0 -5 -12 -10
-27 -10 -22 0 -25 2 -13 10 20 13 40 13 40 0z m-2065 -52 c36 -82 117 -197
177 -253 89 -82 242 -154 478 -224 122 -36 141 -49 122 -78 -6 -9 -25 -6 -77
12 -39 12 -115 37 -170 54 -212 67 -405 185 -490 301 -37 50 -67 124 -80 193
-10 53 16 50 40 -5z m2155 11 c0 -14 -27 -10 -33 5 -4 10 0 12 14 9 10 -3 19
-9 19 -14z m316 -8 c-9 -10 -16 -22 -15 -27 4 -21 -2 -35 -11 -29 -5 3 -8 0
-5 -7 8 -20 -87 -139 -178 -224 -66 -61 -104 -87 -192 -129 -101 -49 -293
-111 -410 -131 -22 -4 -46 -14 -53 -23 -8 -9 -11 -10 -7 -3 3 6 1 12 -4 12 -6
0 -11 -4 -11 -10 0 -16 -20 -12 -27 5 -9 25 24 42 117 60 310 61 535 193 691
402 22 29 44 63 50 77 6 13 21 29 33 34 33 16 41 14 22 -7z m-1296 -317 c58
-12 49 -54 -13 -54 -42 0 -66 16 -60 40 6 21 21 24 73 14z m-185 -105 c-77
-48 -94 -68 -137 -159 -33 -70 -41 -99 -46 -163 -4 -66 -2 -81 14 -98 32 -35
101 -70 175 -89 40 -10 77 -24 83 -30 8 -9 6 -11 -9 -7 -11 3 -55 11 -97 18
-85 13 -131 36 -174 88 -25 31 -29 43 -29 100 0 83 22 148 77 233 59 89 118
137 168 138 21 0 17 -5 -25 -31z m1818 2 c28 -16 64 -32 80 -35 36 -9 34 -18
-10 -44 -52 -28 -121 -102 -125 -131 -5 -37 -25 -36 -33 1 -5 19 -30 55 -63
90 l-55 58 31 0 c46 0 60 -8 84 -51 12 -21 24 -39 27 -38 3 0 19 17 36 36 20
25 26 38 17 41 -7 2 -26 15 -43 29 -27 23 -29 27 -14 43 8 9 12 20 8 23 -14
15 9 6 60 -22z m-1410 -13 c15 -6 27 -14 27 -18 0 -8 -96 23 -108 34 -8 9 41
-1 81 -16z m-1223 -47 c-5 -11 -10 -34 -10 -51 0 -17 -7 -41 -15 -54 -15 -23
-14 -26 18 -60 28 -29 36 -33 41 -21 3 9 10 14 15 11 6 -4 5 -17 -1 -34 l-11
-28 -54 52 c-29 28 -61 51 -70 50 -9 0 -18 5 -20 12 -3 7 4 12 15 12 22 0 62
43 62 66 0 20 22 64 32 64 5 0 4 -9 -2 -19z m872 -68 c22 -44 120 -68 171 -42
39 20 67 52 68 78 2 25 2 25 6 3 12 -63 -55 -122 -138 -122 -74 0 -131 56
-128 127 2 26 2 26 6 3 2 -14 9 -35 15 -47z m-27 -88 c31 -34 98 -65 138 -65
49 0 131 32 159 63 l29 30 27 -20 c18 -13 28 -31 30 -52 2 -23 7 -31 18 -27
12 4 12 1 1 -27 -12 -28 -21 -34 -76 -46 -63 -15 -65 -15 -147 16 -6 2 -19
-12 -29 -32 -23 -41 -26 -42 -50 -15 -14 16 -31 20 -79 20 -90 1 -139 26 -155
80 -16 53 -2 92 37 107 37 14 61 6 97 -32z m535 -58 c31 -150 -73 -267 -236
-267 -42 0 -66 -13 -42 -23 7 -3 4 -6 -7 -6 -11 0 -26 3 -34 8 -26 17 5 38 63
44 112 11 184 64 212 152 14 43 15 63 7 104 -6 28 -7 51 -2 51 4 0 5 10 2 23
-4 21 -3 21 10 -3 8 -14 20 -51 27 -83z m791 12 c12 -19 11 -46 -1 -70 -13
-23 -57 -25 -85 -5 -17 12 -18 17 -6 39 7 14 11 30 7 35 -3 6 0 12 6 15 23 9
70 0 79 -14z m-2711 -29 c11 -11 20 -25 20 -32 0 -20 -32 -48 -57 -48 -43 0
-52 77 -11 93 22 9 27 8 48 -13z m2430 5 c0 -9 -7 -18 -16 -22 -18 -7 -39 11
-30 26 11 17 46 13 46 -4z m-2153 -93 c21 -13 26 -58 8 -76 -19 -19 -29 -20
-56 -6 -24 13 -25 58 -1 76 20 15 32 17 49 6z m3121 -138 c4 -25 -20 -47 -42
-38 -16 6 -22 45 -9 58 14 14 48 1 51 -20z m-1939 -60 c10 -9 -95 -3 -109 6
-9 6 6 7 45 3 33 -3 62 -7 64 -9z m150 -28 c8 -10 8 -16 -3 -25 -10 -9 -16 -8
-26 3 -12 15 -6 36 9 36 5 0 14 -6 20 -14z m-81 -24 c3 -17 -2 -22 -17 -22
-14 0 -21 6 -21 18 0 38 33 41 38 4z m30 -44 c-2 -6 -10 -14 -16 -16 -7 -2
-10 2 -6 12 7 18 28 22 22 4z m38 -53 c18 -14 17 -14 -11 -5 -16 5 -39 11 -50
13 -13 3 -9 5 11 6 16 0 39 -6 50 -14z m-124 -15 c-34 -15 -47 -29 -62 -64
-30 -67 -14 -120 46 -151 18 -9 23 -15 12 -15 -29 0 -75 48 -82 84 -13 67 52
167 107 165 16 0 10 -6 -21 -19z m318 -7 c14 -9 30 -24 36 -32 10 -13 20 -13
75 -2 36 7 72 9 81 6 9 -4 33 3 55 15 21 12 31 19 23 17 -58 -16 -65 -17 -35
-2 17 8 43 14 58 15 33 0 94 -29 120 -58 17 -19 21 -19 52 -6 64 26 82 -4 45
-73 -27 -50 -25 -69 6 -90 24 -15 26 -20 20 -66 -4 -27 -11 -56 -16 -65 -5
-10 -24 -56 -42 -103 -21 -54 -38 -84 -45 -82 -7 3 -13 1 -13 -4 0 -15 -73
-52 -162 -83 -46 -16 -121 -43 -168 -59 -129 -46 -124 -49 -117 67 5 87 4 94
-8 67 -17 -36 -19 -24 -4 28 6 21 7 52 4 69 -9 39 -71 108 -99 108 -19 1 -18
2 6 16 43 23 64 106 51 204 -15 114 14 156 77 113z m-610 -36 c27 -19 57 -22
62 -7 2 6 27 8 66 4 47 -5 62 -10 58 -21 -11 -26 -18 -142 -12 -175 7 -37 40
-80 70 -92 18 -6 17 -8 -10 -25 -60 -36 -71 -62 -79 -174 -4 -64 -3 -112 4
-129 6 -17 7 -29 1 -33 -6 -4 -10 -2 -10 3 0 5 -24 12 -52 16 -63 8 -188 54
-205 76 -7 8 -22 34 -33 57 -12 22 -27 44 -35 47 -8 3 -15 13 -15 21 0 10 -5
13 -12 9 -7 -4 -8 -3 -4 5 4 7 -10 33 -36 63 -23 28 -48 62 -55 76 -18 34 -17
99 2 110 14 7 14 13 0 52 -9 25 -25 60 -36 79 -11 18 -18 35 -16 37 2 2 19 -7
37 -21 38 -28 70 -33 70 -10 0 8 14 24 32 35 41 25 171 23 208 -3z m481 -115
c-5 -10 -18 -25 -27 -33 -11 -9 -9 -2 6 19 26 35 36 42 21 14z m2001 -144
c-26 -59 -62 -100 -126 -142 -71 -47 -80 -46 -19 3 44 35 128 119 131 131 0 3
5 18 11 33 6 16 12 34 12 40 1 7 3 4 6 -5 2 -9 -4 -36 -15 -60z m-2074 20 c18
-18 14 -46 -8 -53 -11 -3 -20 -11 -20 -16 0 -5 -5 -9 -11 -9 -5 0 -8 4 -4 9 3
6 -10 13 -30 17 -26 4 -35 11 -35 25 0 33 82 53 108 27z m96 -101 c23 -19 30
-33 33 -74 7 -71 -11 -116 -64 -163 -43 -37 -69 -48 -46 -18 13 16 26 101 15
94 -4 -3 -14 -34 -22 -69 -16 -79 -35 -95 -83 -71 -96 50 -148 123 -150 212 0
39 4 49 33 75 35 31 54 32 117 6 29 -12 36 -11 70 9 48 27 61 27 97 -1z m-817
-10 c1 -9 -2 -15 -7 -12 -5 3 -3 -16 5 -42 8 -26 15 -50 14 -53 0 -4 -59 119
-59 124 0 0 10 1 23 1 15 0 24 -6 24 -18z m-249 -180 c2 -15 -1 -27 -5 -27
-15 0 -33 23 -33 43 0 30 34 16 38 -16z m-169 -12 c27 -13 60 -39 74 -56 24
-31 24 -34 11 -72 -14 -38 -13 -41 15 -83 24 -38 28 -50 23 -96 -5 -61 -24
-103 -52 -118 -18 -9 -17 -6 5 26 18 27 25 50 25 85 0 26 3 49 8 52 4 2 2 3
-4 1 -7 -1 -28 6 -49 17 l-36 20 -30 -26 c-30 -25 -44 -29 -84 -26 -15 1 -17
0 -7 -7 11 -7 7 -11 -14 -16 -35 -9 -78 21 -82 58 -2 14 -8 24 -13 21 -17 -11
-9 -61 19 -116 28 -56 74 -90 128 -93 26 -1 33 -23 9 -32 -21 -8 -101 33 -125
64 -12 14 -28 51 -37 81 l-17 56 -94 2 c-54 1 -99 7 -108 14 -11 9 -14 8 -14
-9 0 -26 45 -62 79 -62 14 0 33 -5 41 -10 11 -7 2 -10 -31 -10 -58 0 -110 32
-123 78 -24 84 65 125 190 87 64 -19 64 -19 64 13 0 56 20 100 65 141 54 49
91 53 164 16z m397 -83 c18 -12 34 -49 34 -78 0 -37 -64 -97 -126 -118 -26 -9
-70 -15 -98 -15 l-51 2 55 9 c92 16 140 37 161 72 10 17 19 40 19 51 0 19 -1
19 -18 -2 -36 -46 -144 -77 -213 -61 -38 9 -50 17 -60 40 -10 25 -9 30 12 48
13 10 38 20 54 20 17 1 53 9 80 19 52 19 132 26 151 13z m209 -33 c78 -20 186
-35 191 -28 5 9 66 -10 76 -24 3 -6 12 -12 20 -13 7 -2 31 -10 53 -17 64 -24
201 -30 337 -17 68 7 134 17 148 23 14 6 31 9 38 8 7 -1 76 19 153 45 77 25
142 44 145 42 7 -8 -187 -95 -246 -112 -263 -71 -595 -55 -856 42 -44 16 -100
37 -126 46 -25 9 -52 23 -58 31 -10 12 -4 12 36 -1 27 -8 67 -20 89 -25z
m1738 7 c58 -24 117 -111 117 -173 0 -7 5 -13 10 -13 6 0 10 4 10 9 0 15 129
42 168 35 20 -3 54 -17 76 -31 35 -22 38 -28 33 -58 -8 -47 -32 -81 -75 -101
-44 -21 -146 -31 -156 -15 -4 6 -16 11 -27 11 -10 0 -19 2 -19 4 0 2 -3 13 -7
23 -6 17 -5 17 13 1 31 -27 100 -39 132 -22 15 8 32 14 39 14 19 0 53 51 53
79 l-1 26 -27 -31 c-24 -28 -35 -32 -93 -37 -83 -7 -109 -1 -109 27 -1 23 -26
63 -36 54 -3 -4 -1 -15 5 -26 15 -29 14 -42 -4 -36 -8 4 -15 1 -15 -5 0 -15
-77 -62 -125 -76 -39 -12 -40 -14 -43 -59 -2 -31 2 -56 13 -72 15 -23 45 -33
45 -15 0 4 17 20 39 34 24 16 49 46 66 79 25 49 28 34 5 -27 -22 -57 -106
-115 -167 -115 -39 0 -43 2 -43 25 0 14 -4 25 -10 25 -5 0 -10 -6 -10 -14 0
-24 -21 -30 -38 -11 -16 16 -16 17 6 6 18 -10 22 -9 22 3 0 7 9 33 20 57 24
53 26 117 5 125 -8 4 -15 13 -15 21 0 10 -6 12 -22 7 -13 -4 -25 -9 -28 -13
-12 -15 -30 -9 -36 13 -6 24 -7 24 -113 19 -97 -4 -111 -2 -145 17 -41 25 -63
56 -44 62 6 2 20 -4 30 -14 10 -10 25 -18 34 -18 13 0 13 2 2 14 -14 13 -72
46 -82 46 -3 0 -3 -6 0 -13 3 -8 -2 -20 -11 -27 -18 -15 -20 -51 -3 -70 7 -8
2 -5 -12 8 -21 19 -25 31 -25 83 0 52 3 64 24 80 28 23 79 24 128 4 20 -8 63
-22 97 -31 76 -20 86 -28 86 -73 l0 -36 19 24 c15 19 16 29 8 51 -12 32 5 60
66 106 68 51 117 63 170 40z m-1826 -356 c5 -51 3 -59 -22 -86 l-26 -29 7 30
c9 34 9 72 0 165 l-6 65 21 -44 c12 -24 23 -70 26 -101z m409 85 c-11 -8 -27
-15 -35 -15 -10 1 -7 6 9 15 33 19 50 18 26 0z m1155 -39 c-2 -36 3 -50 33
-89 29 -37 32 -46 19 -51 -9 -4 -18 -4 -21 -1 -3 3 1 5 9 6 8 0 4 4 -8 9 -28
11 -56 100 -47 148 9 45 19 31 15 -22z m-2451 -23 c0 -26 -2 -44 -4 -42 -8 9
-13 98 -5 93 5 -3 9 -26 9 -51z m395 40 c-4 -10 -10 -28 -12 -40 -7 -30 -27
-29 -41 2 -17 36 -15 43 11 48 45 9 49 8 42 -10z m-339 -240 c-5 -5 -36 50
-36 64 0 4 9 -7 21 -26 11 -18 18 -35 15 -38z m2939 -51 c-15 -16 -16 -15 -4
12 7 15 15 23 17 16 3 -7 -3 -19 -13 -28z m-991 -9 c-92 -91 -107 -236 -38
-348 l25 -40 -35 37 c-19 20 -40 55 -46 79 -25 93 19 237 87 283 50 34 51 33
7 -11z m-983 -100 c20 -74 5 -128 -52 -185 -60 -60 -76 -59 -20 0 63 65 74
130 41 222 -19 53 -19 54 0 30 10 -14 24 -44 31 -67z m1976 -98 c9 -111 -33
-205 -121 -268 -26 -18 -23 -12 20 41 66 81 89 152 82 253 -4 51 -3 67 4 54 6
-10 13 -46 15 -80z m-2942 -53 c10 -41 82 -108 148 -138 48 -22 83 -29 157
-34 57 -4 102 -2 112 4 9 6 20 7 24 3 37 -37 -191 -35 -288 2 -120 46 -164
101 -173 212 -4 60 -4 61 5 19 5 -25 12 -55 15 -68z m695 -154 c-51 -23 -210
-38 -210 -20 0 6 34 13 78 17 42 3 93 10 112 14 59 15 67 11 20 -11z m1505
-94 c50 -14 107 -28 128 -31 58 -8 54 -23 -5 -17 -57 6 -244 51 -268 65 -32
18 58 8 145 -17z m579 5 c-3 -6 -30 -22 -58 -35 -45 -21 -65 -24 -174 -24 -68
0 -121 4 -118 8 3 5 62 12 131 16 85 4 140 12 172 25 27 10 49 19 51 20 2 1 0
-4 -4 -10z"/>
<path d="M4687 8066 c-3 -8 -2 -18 3 -21 13 -8 20 9 11 24 -6 10 -10 9 -14 -3z"/>
<path d="M5470 8165 c0 -16 16 -20 24 -6 3 5 -1 11 -9 15 -9 3 -15 0 -15 -9z"/>
<path d="M5104 7869 c-42 -12 -76 -49 -90 -95 -9 -33 -16 -39 -56 -51 -63 -18
-113 -77 -128 -149 -12 -55 -50 -100 -76 -90 -6 2 -11 -3 -10 -12 0 -10 -6
-17 -14 -16 -18 1 -22 -16 -23 -111 0 -38 -2 -58 -4 -42 -5 35 -23 25 -23 -13
0 -18 14 -45 40 -76 22 -27 40 -57 40 -67 0 -29 77 -114 113 -126 46 -14 80
-17 96 -7 10 7 12 5 6 -4 -5 -8 -3 -11 6 -8 8 3 25 1 39 -4 14 -6 36 -12 49
-14 28 -6 43 -20 65 -62 20 -39 34 -37 109 14 32 22 61 34 83 34 26 0 32 4 28
15 -5 11 1 15 20 15 14 0 28 0 31 0 3 0 26 10 52 21 71 30 110 64 138 120 14
27 32 49 40 49 20 0 58 76 50 101 -4 10 -11 19 -16 19 -5 0 -9 24 -9 53 -1 60
-8 71 -71 114 -43 30 -46 35 -46 76 0 82 -63 157 -147 174 -32 7 -40 14 -51
47 -19 55 -50 83 -107 95 -57 13 -91 13 -134 0z m154 -39 c81 -37 90 -108 31
-258 -28 -70 -30 -86 -20 -105 9 -17 9 -30 1 -52 -6 -17 -14 -25 -18 -19 -22
34 -80 42 -126 19 -16 -9 -30 -14 -31 -13 0 2 -9 16 -19 31 -15 25 -16 33 -5
58 12 30 2 65 -42 151 -5 10 -9 25 -9 33 0 14 -3 14 -30 0 -17 -9 -28 -20 -25
-25 4 -6 -3 -24 -15 -40 -16 -22 -27 -29 -41 -25 -14 5 -22 0 -29 -20 -18 -46
-13 -55 29 -55 46 0 151 -65 177 -109 16 -28 17 -28 35 -10 24 24 86 25 111 2
18 -16 21 -14 70 35 42 43 60 53 106 63 70 14 89 31 74 65 -18 38 -93 114
-113 114 -12 0 -19 7 -19 20 0 58 131 -18 159 -93 14 -37 14 -84 -1 -93 -7 -4
11 -18 45 -36 62 -31 92 -66 82 -96 -13 -44 -67 -103 -115 -127 -53 -27 -123
-34 -115 -12 4 8 -7 13 -32 15 -20 1 -40 7 -44 14 -4 6 -18 9 -32 6 -16 -3
-24 -1 -21 6 3 7 0 30 -5 51 l-9 40 0 -51 c1 -73 -8 -91 -49 -105 -43 -14
-115 4 -106 27 3 8 0 14 -6 14 -6 0 -13 -11 -17 -24 -13 -53 -130 -62 -215
-18 -55 29 -120 101 -138 154 -13 35 19 84 74 115 36 20 41 27 46 73 4 32 17
63 34 85 26 34 90 75 118 75 8 0 17 14 21 31 9 45 43 87 79 98 52 15 109 12
155 -9z m138 -615 c34 -17 68 -19 95 -5 16 9 19 7 19 -10 0 -32 -25 -82 -57
-116 -43 -46 -89 -67 -134 -61 -33 4 -38 2 -43 -19 -4 -14 -25 -34 -52 -50
l-45 -27 -24 23 c-13 12 -33 45 -45 72 -19 45 -20 56 -10 94 15 53 23 60 81
68 l46 7 23 -44 c23 -44 23 -45 6 -83 -10 -22 -30 -51 -44 -67 l-26 -27 -29
27 c-24 22 -27 24 -19 7 21 -40 38 -47 71 -30 17 9 36 26 42 39 16 30 28 37
66 37 17 0 43 4 56 9 36 14 97 78 97 101 0 17 -7 20 -46 20 -59 0 -124 19
-124 37 0 18 60 17 96 -2z m-521 -54 c10 -45 46 -77 107 -95 31 -9 63 -16 71
-16 17 0 43 -28 34 -36 -9 -9 -154 46 -184 69 -35 28 -68 107 -44 107 5 0 12
-13 16 -29z"/>
<path d="M5120 7299 c0 -22 32 -49 59 -49 30 0 61 18 61 35 0 12 -4 12 -26 0
-28 -14 -71 -5 -86 18 -5 8 -8 7 -8 -4z"/>
<path d="M4930 7240 c18 -11 84 -11 120 0 17 6 0 8 -55 9 -55 0 -75 -2 -65 -9z"/>
<path d="M5173 6743 c9 -2 25 -2 35 0 9 3 1 5 -18 5 -19 0 -27 -2 -17 -5z"/>
<path d="M5807 6688 c-26 -40 -35 -78 -19 -78 9 0 62 93 62 109 0 22 -16 10
-43 -31z"/>
<path d="M5002 6417 c-7 -16 -9 -40 -6 -55 3 -15 7 -37 10 -49 4 -20 77 -83
96 -83 5 0 -5 15 -22 33 -39 40 -51 68 -60 132 -6 49 -6 50 -18 22z"/>
<path d="M5177 6417 c-32 -12 -63 -30 -69 -40 -15 -27 8 -47 51 -45 l36 1 -32
4 c-18 2 -33 8 -33 14 0 12 36 12 59 -1 11 -6 30 -6 50 0 37 10 42 -3 9 -24
-59 -36 -139 -20 -159 31 -11 30 -43 27 -47 -4 -2 -17 1 -20 15 -17 14 4 23
-4 36 -30 15 -32 21 -36 56 -36 50 0 104 23 129 55 23 29 47 25 56 -11 4 -13
10 -24 15 -24 16 0 28 101 15 134 -7 18 -39 22 -49 6 -3 -5 -2 -10 4 -10 6 0
7 -7 4 -17 -4 -11 -3 -14 5 -9 8 5 12 -1 11 -16 0 -13 -3 -17 -6 -10 -2 6 -10
12 -17 12 -6 0 -26 14 -44 30 -18 17 -34 30 -35 29 -1 0 -28 -10 -60 -22z m69
-22 c16 -13 17 -16 4 -25 -14 -10 -78 -5 -90 7 -7 7 31 33 50 33 9 0 25 -7 36
-15z"/>
<path d="M5265 6293 c-31 -21 -36 -28 -22 -31 20 -4 43 12 58 40 13 23 11 23
-36 -9z"/>
<path d="M5168 6234 c-18 -10 -19 -12 -3 -17 26 -10 83 -8 90 3 3 6 -2 10 -12
10 -14 0 -15 2 -5 9 21 13 -45 8 -70 -5z"/>
<path d="M5351 5679 l-25 -10 20 -20 c19 -19 33 -22 77 -17 23 2 22 10 -6 36
-26 24 -31 25 -66 11z"/>
<path d="M5357 5153 c-10 -10 -8 -55 2 -49 5 3 11 17 13 31 5 24 -2 32 -15 18z"/>
<path d="M6456 3681 c4 -16 2 -21 -5 -17 -7 5 -9 1 -4 -11 3 -10 3 -15 -2 -11
-4 4 -14 1 -21 -7 -19 -18 -18 -31 1 -15 12 10 18 10 30 0 10 -9 15 -9 15 -1
0 6 6 11 14 11 10 0 12 7 8 22 l-5 22 -10 -22 c-6 -12 -14 -22 -20 -22 -6 0
-6 4 0 13 14 18 24 49 14 42 -5 -3 -12 1 -15 7 -3 7 -3 2 0 -11z"/>
<path d="M4243 3430 c3 -11 1 -18 -4 -14 -5 3 -9 -1 -9 -9 0 -11 6 -12 34 -3
34 10 34 10 14 28 -28 24 -42 23 -35 -2z"/>
<path d="M6700 4816 c0 -20 19 -31 32 -18 7 7 3 14 -11 21 -17 10 -21 9 -21
-3z"/>
<path d="M6440 4715 c0 -35 0 -35 44 -35 53 0 63 11 40 45 -12 19 -25 25 -50
25 -32 0 -34 -2 -34 -35z"/>
<path d="M4155 4701 c-7 -24 2 -61 16 -61 5 0 6 12 3 26 -5 19 -4 25 5 20 6
-4 11 -14 11 -22 0 -17 10 -17 33 0 20 15 22 26 5 26 -6 0 -20 7 -30 17 -14
13 -18 13 -18 2 0 -12 -2 -12 -9 0 -7 11 -10 9 -16 -8z"/>
<path d="M2777 3789 c-27 -4 -51 -9 -53 -11 -8 -8 37 -68 51 -68 12 0 62 78
53 84 -2 1 -25 -1 -51 -5z"/>
<path d="M2630 3761 c0 -5 7 -14 15 -21 8 -7 20 -30 27 -53 11 -38 11 -41 -16
-62 l-28 -22 22 -21 c28 -26 20 -68 -9 -52 -10 5 -21 6 -25 3 -17 -18 0 -313
19 -313 8 0 12 34 13 110 1 105 6 134 48 269 18 57 18 95 -1 130 -17 34 -65
57 -65 32z"/>
<path d="M5985 4061 c-118 -69 -207 -196 -189 -269 12 -48 51 -74 118 -80 82
-7 146 18 200 79 71 79 88 154 54 242 -24 61 -105 73 -183 28z m-41 -200 c-2
-2 13 -12 32 -23 20 -11 38 -17 41 -14 3 2 16 1 28 -4 20 -8 25 -5 31 13 5 12
7 26 6 30 -1 5 2 6 7 2 23 -14 -16 -68 -69 -95 -73 -37 -150 -38 -169 -1 -8
15 -5 24 16 45 14 14 22 26 18 26 -4 0 -3 6 3 13 6 6 22 12 35 12 14 0 24 -2
21 -4z"/>
<path d="M4428 4026 c-45 -33 -61 -136 -33 -204 34 -80 141 -152 227 -152 56
0 118 38 139 84 21 49 17 75 -23 132 -77 109 -249 187 -310 140z m183 -217
c36 -32 79 -51 97 -45 10 3 4 -5 -11 -19 -34 -30 -95 -34 -157 -9 -36 14 -39
19 -34 43 4 14 11 32 17 39 15 19 61 14 88 -9z"/>
<path d="M5773 3543 c9 -2 17 -9 17 -15 0 -6 -10 -8 -25 -4 -35 9 -75 -3 -68
-20 8 -21 -24 -28 -42 -10 -20 20 -23 20 -41 2 -15 -16 -18 -35 -8 -60 9 -23
23 -20 17 3 -3 13 2 21 16 26 21 6 91 -9 126 -28 19 -10 19 -10 0 -18 -18 -7
-18 -8 -2 -8 10 -1 20 5 23 13 7 17 56 36 93 36 19 0 22 -3 12 -9 -8 -5 -19
-7 -26 -5 -6 3 -17 -1 -23 -9 -15 -18 26 -12 135 19 97 27 141 48 124 58 -6 4
-11 2 -11 -5 0 -10 -3 -10 -12 -1 -7 7 -17 12 -22 12 -6 0 -4 -5 4 -10 13 -8
13 -10 -2 -10 -9 0 -19 4 -23 9 -5 10 -51 9 -61 -1 -3 -3 -23 -4 -45 -1 -34 5
-38 3 -33 -11 5 -12 0 -16 -17 -16 -43 0 -99 12 -99 21 0 5 18 6 40 3 48 -8
57 13 10 22 -16 4 -27 10 -24 15 3 5 -7 8 -23 8 -17 -1 -21 -3 -10 -6z m7 -73
c9 -16 8 -20 -5 -20 -8 0 -15 9 -15 20 0 11 2 20 5 20 2 0 9 -9 15 -20z"/>
<path d="M4410 3509 c-28 -4 -35 -7 -17 -7 15 -1 27 -6 27 -12 0 -5 7 -10 15
-10 8 0 15 -5 15 -11 0 -7 -9 -9 -21 -6 -15 4 -19 3 -12 -4 11 -11 63 -2 63
10 0 4 -12 12 -27 19 l-28 12 28 -5 c15 -3 27 -1 27 4 0 14 -21 17 -70 10z"/>
<path d="M5464 3509 c-8 -14 5 -26 39 -34 24 -6 27 -5 27 19 0 22 -4 26 -29
26 -17 0 -33 -5 -37 -11z"/>
<path d="M5693 3423 c9 -2 25 -2 35 0 9 3 1 5 -18 5 -19 0 -27 -2 -17 -5z"/>
<path d="M7535 3924 c-4 -22 -8 -44 -10 -50 -2 -6 -31 -14 -65 -17 -34 -3 -64
-8 -68 -11 -6 -7 77 -96 90 -96 4 0 8 6 8 12 0 7 8 32 18 55 18 45 45 56 70
31 16 -16 15 -11 -4 48 -23 67 -31 73 -39 28z"/>
<path d="M7551 3792 c-22 -42 -23 -89 -2 -137 15 -35 25 -46 37 -41 8 3 22 6
31 6 25 0 11 43 -17 50 -21 5 -22 7 -7 13 23 9 22 54 -3 95 -23 37 -26 38 -39
14z"/>
<path d="M7622 3538 c6 -18 28 -21 28 -4 0 9 -7 16 -16 16 -9 0 -14 -5 -12
-12z"/>
<path d="M7667 3414 c-4 -4 -7 -45 -7 -91 0 -47 -5 -93 -11 -105 -13 -24 -12
-24 25 -34 l29 -7 -5 112 c-4 103 -14 142 -31 125z"/>
<path d="M4871 1583 c-1 -7 17 -26 39 -42 35 -25 38 -30 20 -33 -20 -3 -20 -4
5 -41 14 -20 23 -43 19 -50 -4 -6 -4 -9 1 -5 4 4 14 0 22 -10 13 -15 14 -13 9
22 -3 21 -13 47 -22 57 -9 10 -13 22 -10 28 4 6 -11 21 -33 35 -21 14 -41 31
-44 38 -4 10 -6 10 -6 1z"/>
</g>
</svg>
