<?xml version="1.0" standalone="no"?>
<!DOCTYPE svg PUBLIC "-//W3C//DTD SVG 20010904//EN"
 "http://www.w3.org/TR/2001/REC-SVG-20010904/DTD/svg10.dtd">
<svg version="1.0" xmlns="http://www.w3.org/2000/svg"
 width="1024.000000pt" height="1024.000000pt" viewBox="0 0 1024.000000 1024.000000"
 preserveAspectRatio="xMidYMid meet">
<metadata>
Created by potrace 1.16, written by Peter Selinger 2001-2019
</metadata>
<g transform="translate(0.000000,1024.000000) scale(0.100000,-0.100000)"
fill="currentColor" stroke="currentColor">
<path d="M8020 9841 c-37 -12 -129 -60 -175 -91 -77 -53 -211 -119 -310 -154
-147 -51 -158 -54 -395 -86 -132 -19 -283 -51 -375 -82 -154 -51 -253 -110
-660 -391 -49 -34 -113 -77 -142 -95 l-52 -33 -88 35 c-149 59 -351 117 -458
131 -75 10 -82 13 -105 50 -40 65 -133 99 -213 77 -53 -15 -71 -7 -112 54 -61
88 -163 139 -240 120 -21 -5 -31 -1 -52 24 -64 77 -185 98 -263 46 -42 -28
-80 -79 -80 -107 0 -12 -12 -18 -46 -22 -68 -7 -141 -84 -148 -155 -3 -24 -7
-26 -43 -24 -74 6 -182 -57 -204 -118 -8 -20 -24 -30 -87 -49 -193 -60 -438
-173 -596 -276 -47 -30 -90 -55 -96 -55 -16 0 -114 51 -261 135 -258 149 -451
236 -600 272 -85 20 -343 24 -639 9 -173 -8 -325 0 -445 24 -27 6 -117 19
-199 31 -231 31 -290 16 -350 -91 -29 -51 -31 -62 -29 -140 3 -125 18 -207 69
-354 49 -144 69 -252 79 -426 14 -239 68 -423 146 -494 28 -27 39 -45 39 -66
0 -17 11 -82 24 -145 39 -184 132 -342 289 -491 159 -151 282 -220 487 -272
90 -22 127 -26 255 -27 83 0 164 3 181 7 l31 7 17 -122 c15 -112 58 -296 86
-374 10 -27 8 -38 -18 -90 -17 -32 -41 -68 -54 -80 -41 -38 -155 -84 -210 -85
-58 0 -69 -14 -39 -55 38 -53 37 -77 -6 -112 -44 -36 -88 -51 -154 -51 -61 0
-76 -17 -61 -69 26 -86 140 -173 244 -187 48 -7 48 -7 31 -26 -32 -36 -107
-82 -142 -88 -43 -7 -49 -27 -20 -63 36 -46 115 -81 181 -80 32 1 58 -2 58 -5
0 -4 -22 -47 -48 -97 -35 -65 -59 -98 -89 -120 -23 -16 -42 -38 -42 -47 -1
-26 53 -82 101 -106 104 -51 157 -65 222 -60 l62 5 70 -70 c100 -101 181 -159
321 -230 116 -58 124 -64 119 -87 -17 -76 -18 -159 -2 -212 15 -54 15 -57 -8
-114 -59 -146 -73 -275 -47 -426 l14 -78 -28 -22 c-54 -42 -120 -170 -145
-281 -5 -23 -14 -108 -19 -189 -10 -140 -10 -150 13 -240 24 -96 69 -197 112
-255 14 -18 24 -45 24 -65 0 -67 30 -227 56 -303 24 -70 26 -87 21 -169 -9
-139 -82 -365 -119 -366 -33 0 -54 -47 -78 -169 -28 -146 -24 -215 17 -303 24
-52 28 -70 22 -103 -10 -53 5 -97 39 -117 39 -22 128 -41 163 -34 22 4 38 0
60 -17 29 -21 41 -22 231 -24 202 -3 235 0 383 32 134 29 332 141 392 223 15
20 65 77 111 126 45 49 95 110 109 136 l26 47 90 -3 c50 -2 93 -8 96 -13 3 -5
30 -16 60 -25 69 -20 209 -21 361 -1 203 25 327 72 463 174 65 49 70 51 130
50 34 0 94 -6 132 -12 l70 -12 -8 -60 c-7 -51 -12 -63 -35 -76 -32 -18 -44
-52 -68 -193 -24 -139 -10 -237 51 -362 35 -72 61 -108 123 -172 88 -90 105
-97 277 -107 50 -3 108 -12 130 -20 47 -17 232 -20 285 -5 19 6 84 15 143 20
69 7 144 22 205 41 87 28 102 37 147 83 116 121 156 176 219 305 72 145 85
190 68 234 -10 26 -6 40 32 121 24 50 46 99 49 109 4 9 15 17 26 17 10 0 52
11 92 25 40 13 75 23 77 20 2 -2 -1 -27 -7 -55 -14 -67 -13 -176 2 -220 19
-52 75 -134 107 -155 23 -16 28 -24 23 -47 -13 -67 75 -115 195 -105 49 4 78
0 121 -15 51 -18 72 -19 239 -13 146 5 200 11 271 30 137 37 176 60 284 165
119 114 149 154 217 286 53 104 71 174 52 197 -8 9 -7 27 3 62 7 28 17 85 20
127 l7 78 35 9 c74 21 90 69 58 175 -17 57 -18 56 66 162 56 70 69 100 69 154
0 28 10 56 36 96 20 31 42 75 49 98 17 53 28 333 14 338 -8 3 -7 17 1 48 33
123 3 477 -56 658 -37 111 -168 358 -209 392 -8 7 -15 16 -15 20 0 4 28 26 63
48 86 56 143 120 183 207 19 41 34 78 34 83 0 5 7 16 16 23 14 11 19 10 34 -9
25 -30 32 -28 55 15 60 111 110 142 103 64 -3 -31 0 -36 19 -39 16 -2 30 8 52
38 48 66 73 144 78 245 6 96 -4 163 -38 275 -27 89 -45 92 -83 13 -15 -32 -41
-73 -58 -92 -33 -37 -36 -36 -64 27 -8 19 -39 73 -68 120 -69 112 -116 206
-116 232 0 18 3 19 20 8 15 -10 22 -10 31 -1 27 27 -43 146 -167 283 -42 47
-94 112 -115 145 -51 79 -59 89 -70 78 -5 -5 -26 -56 -47 -114 -33 -96 -36
-113 -37 -214 0 -103 2 -115 35 -195 20 -47 62 -127 94 -178 32 -51 56 -95 53
-98 -3 -3 -32 16 -64 42 -94 77 -170 107 -283 112 -131 5 -191 -17 -276 -103
-66 -67 -100 -137 -111 -225 l-5 -45 -123 61 c-149 73 -318 125 -520 159 -82
14 -153 25 -158 25 -4 0 10 31 30 69 l38 69 70 4 c134 9 229 90 210 178 -6 25
-11 30 -36 30 -21 0 -42 12 -72 39 l-41 39 39 11 c44 12 135 95 135 123 0 11
-10 20 -27 23 -78 16 -226 116 -209 143 3 5 34 12 70 14 79 7 115 30 156 101
33 58 41 138 17 171 -13 18 -15 17 -41 -9 -23 -23 -33 -26 -64 -22 -42 7 -82
46 -82 81 0 33 -7 36 -51 21 -35 -13 -44 -12 -82 4 -52 22 -133 110 -170 184
-15 29 -39 100 -54 159 l-28 107 19 83 c12 55 20 142 23 259 l5 176 97 -5 c53
-2 119 0 146 6 92 19 239 64 286 88 58 29 181 127 233 184 44 49 147 259 164
335 16 71 32 252 32 361 0 51 4 96 10 99 6 3 8 16 5 28 -3 12 4 49 16 82 17
48 23 90 26 212 5 136 3 163 -20 270 -66 305 -66 294 -40 584 16 189 16 201
-2 304 -10 59 -28 125 -39 148 -33 64 -91 95 -146 78z m89 -56 c36 -31 45 -57
67 -198 15 -94 16 -120 5 -200 -25 -177 -26 -359 -2 -492 11 -66 28 -145 37
-175 9 -31 18 -114 21 -188 5 -109 2 -145 -12 -200 -23 -83 -66 -182 -100
-226 -14 -18 -25 -38 -25 -45 0 -22 24 -6 49 32 13 20 26 35 29 33 12 -12 -20
-386 -39 -456 -24 -91 -79 -204 -134 -279 -51 -69 -161 -160 -241 -200 -144
-71 -374 -110 -478 -81 -41 11 -46 16 -51 49 -4 20 -11 58 -17 84 -6 26 -8 51
-5 54 3 3 21 0 39 -7 18 -6 74 -14 123 -17 106 -6 239 21 305 62 22 14 43 25
47 25 9 0 43 32 43 41 0 4 -15 5 -32 3 -18 -3 -57 -2 -86 1 -46 6 -51 9 -41
22 8 9 9 17 3 21 -6 4 -14 15 -17 26 -4 10 -13 16 -21 13 -8 -3 -20 0 -26 8
-6 7 -30 22 -53 33 -24 11 -58 34 -77 52 -19 18 -39 29 -48 25 -12 -4 -13 -3
-2 10 11 13 8 19 -14 40 -15 14 -31 25 -36 25 -10 0 -21 47 -25 109 -1 25 -6
59 -10 74 -4 16 -3 38 2 50 24 50 36 83 38 97 4 34 19 64 44 90 24 26 46 83
58 155 3 17 9 32 14 35 5 3 9 29 10 58 2 38 6 52 17 52 10 0 12 4 4 13 -5 6
-13 57 -16 112 -4 55 -10 124 -14 153 -5 31 -5 55 1 59 5 3 6 40 4 82 -5 62
-2 79 11 95 9 10 16 20 15 22 -8 11 -1 24 12 24 8 0 25 11 36 24 12 14 34 30
50 36 16 7 29 16 29 20 0 4 14 13 30 20 17 7 30 19 30 26 0 8 7 14 15 14 9 0
26 9 38 21 12 12 38 33 57 47 19 14 48 39 64 54 16 15 40 28 53 28 19 0 24 4
19 15 -3 10 1 18 12 22 9 4 22 12 27 19 21 25 52 23 66 -5 13 -26 13 -26 17
-3 4 27 22 29 22 3 0 -11 4 -23 10 -26 5 -3 7 0 4 9 -3 8 0 24 6 37 15 28 -6
233 -28 267 -16 25 -40 29 -48 7 -4 -8 -10 -13 -14 -10 -4 3 -13 -2 -20 -10
-8 -9 -21 -13 -36 -9 -13 4 -24 2 -24 -4 0 -18 -93 -103 -154 -139 -33 -20
-142 -73 -243 -119 -208 -93 -286 -140 -370 -223 -74 -74 -102 -127 -147 -276
-71 -235 -169 -393 -284 -459 -9 -6 -54 33 -139 118 -68 70 -142 138 -163 152
l-39 26 57 56 c66 66 112 139 166 267 101 238 180 335 341 417 128 65 194 85
445 133 141 27 295 93 525 225 55 31 107 60 115 63 34 12 70 6 99 -18z m-3553
-360 c29 -15 56 -36 62 -51 17 -35 15 -37 -9 -13 -11 11 -26 18 -32 16 -12 -4
-12 -13 -2 -83 6 -35 3 -44 -22 -70 -15 -16 -39 -36 -51 -44 -24 -15 -24 -15
-6 -53 13 -27 23 -36 33 -32 9 4 28 9 44 12 15 3 27 9 27 14 0 4 8 15 17 25
18 18 38 78 50 147 6 43 29 57 87 57 75 0 196 -134 157 -173 -18 -18 -13 -29
9 -17 12 6 33 10 48 8 24 -3 21 -6 -31 -32 -34 -16 -63 -38 -69 -52 -6 -13
-15 -24 -20 -24 -11 0 -11 1 18 64 22 48 24 61 14 90 -12 39 -54 81 -69 71 -6
-3 -11 -19 -11 -35 0 -32 -17 -77 -37 -98 -22 -23 -35 -52 -23 -52 5 0 10 -4
10 -10 0 -5 -22 -10 -50 -10 -47 0 -50 2 -50 25 0 14 -4 25 -10 25 -5 0 -10
-11 -10 -25 0 -24 -25 -36 -32 -15 -4 14 -64 -4 -61 -19 2 -6 -7 -11 -20 -11
-18 0 -26 11 -46 68 -34 95 -83 154 -112 136 -5 -3 9 -26 31 -51 35 -41 70
-119 70 -160 0 -19 -50 -29 -61 -12 -8 12 -10 12 -18 0 -6 -9 -11 -10 -15 -2
-4 6 -2 11 3 11 6 0 11 8 11 18 1 16 1 16 11 -1 14 -24 29 -12 29 22 0 20 -6
30 -20 34 -15 4 -20 0 -20 -13 0 -10 -3 -20 -7 -22 -15 -6 -42 -68 -32 -73 5
-4 9 -1 9 4 0 6 10 9 23 7 12 -3 24 -5 27 -5 2 -1 -12 -12 -32 -26 -45 -30
-67 -31 -96 -5 -12 11 -24 20 -28 20 -18 0 -67 47 -84 80 -25 50 -25 86 0 128
28 46 76 73 124 70 38 -2 39 -1 52 41 15 50 46 88 89 107 44 20 75 17 131 -11z
m2319 -40 c-129 -74 -221 -179 -337 -385 -65 -116 -124 -187 -180 -220 -91
-51 -96 -51 -262 33 l-148 75 77 54 c43 29 126 87 184 127 294 207 411 274
566 324 161 52 200 49 100 -8z m-2047 -201 c-2 -15 -9 -29 -17 -32 -10 -3 -11
2 -5 19 4 13 7 33 6 43 -1 13 2 16 9 9 6 -6 9 -23 7 -39z m319 -14 c16 0 39
-14 64 -39 34 -34 39 -45 39 -85 0 -33 -6 -52 -20 -66 -28 -28 -44 -25 -24 5
19 29 12 76 -18 118 -24 34 -62 34 -64 0 -1 -12 -14 -38 -30 -57 -24 -29 -34
-34 -54 -29 -14 4 -39 7 -57 7 -41 1 -46 8 -38 45 10 48 122 120 163 106 8 -3
25 -5 39 -5z m-1076 -71 c45 -15 139 -107 139 -135 0 -30 -47 -84 -73 -85
l-22 0 22 -11 c15 -7 21 -18 18 -32 -2 -12 -4 -24 -4 -28 -1 -3 -12 -20 -27
-37 -59 -70 -106 -232 -108 -371 -1 -86 -4 -99 -28 -135 -37 -54 -164 -151
-241 -183 -140 -59 -289 -22 -354 88 -41 67 -41 93 -4 131 54 54 141 33 124
-29 -17 -67 109 -80 187 -20 41 32 111 120 133 168 17 37 20 60 17 135 -8 201
-7 211 19 239 41 43 91 51 173 26 39 -12 72 -19 75 -16 8 8 -58 45 -102 57
-27 8 -54 8 -83 1 -53 -12 -56 -7 -50 83 5 81 27 113 99 142 30 12 54 23 55
23 1 0 16 -5 35 -11z m-3081 -30 c208 -33 368 -49 505 -49 168 0 360 -23 456
-53 181 -57 291 -150 454 -382 71 -101 209 -235 273 -265 28 -14 52 -28 52
-32 0 -4 -28 -40 -61 -80 -63 -74 -179 -243 -179 -259 0 -37 -135 32 -228 117
-86 78 -122 125 -221 289 -108 180 -190 258 -346 330 -109 51 -166 67 -355 99
-222 37 -377 83 -450 132 -36 25 -53 17 -28 -13 18 -22 140 -80 210 -99 32 -9
55 -20 53 -24 -3 -5 -15 -6 -28 -3 -22 5 -22 5 -2 -10 11 -8 24 -13 29 -10 5
4 6 1 2 -5 -4 -7 -3 -12 2 -12 5 0 9 -10 8 -22 -1 -14 5 -23 14 -23 8 0 19 -6
23 -13 5 -7 18 -10 31 -6 18 4 33 -3 60 -29 20 -19 56 -45 81 -57 25 -12 43
-26 40 -31 -4 -5 7 -6 25 -3 23 5 30 3 30 -10 0 -16 25 -22 80 -18 36 2 111
-30 105 -46 -3 -7 0 -10 5 -7 13 8 60 -24 60 -41 0 -8 5 -14 11 -14 6 0 9 -7
5 -15 -3 -8 -2 -15 3 -15 14 0 20 -37 8 -49 -6 -6 -7 -11 -2 -11 6 0 5 -4 -2
-8 -8 -5 -9 -13 -3 -22 8 -13 10 -12 10 3 0 9 5 17 11 17 8 0 9 -13 5 -40 -5
-32 -3 -42 9 -47 9 -3 14 -12 10 -21 -3 -8 2 -23 11 -33 14 -15 14 -19 3 -19
-9 0 -10 -3 -3 -8 11 -7 29 -60 26 -74 -1 -4 5 -5 13 -2 8 4 15 1 15 -6 0 -15
46 -60 61 -60 6 0 7 -5 3 -12 -4 -6 -1 -16 7 -22 18 -13 44 -74 36 -83 -4 -3
3 -17 14 -31 13 -17 16 -29 10 -35 -7 -7 -4 -19 8 -36 10 -14 21 -38 25 -53 3
-15 12 -33 19 -40 6 -7 13 -22 15 -33 2 -11 11 -36 21 -55 10 -19 21 -52 25
-72 4 -21 10 -38 14 -38 8 0 32 -48 32 -63 0 -6 7 -15 16 -22 13 -9 18 -30 19
-82 2 -74 10 -98 27 -87 6 4 8 -1 3 -15 -4 -13 -1 -28 6 -37 6 -8 9 -17 5 -21
-3 -3 -6 -1 -6 5 0 7 -4 12 -9 12 -4 0 -7 -12 -5 -26 2 -25 -32 -112 -49 -125
-5 -3 -8 -24 -9 -47 0 -23 -3 -41 -7 -40 -24 3 -41 -4 -41 -17 0 -18 -39 -35
-82 -35 -23 0 -29 -4 -24 -15 7 -18 -15 -20 -33 -2 -11 10 -13 10 -7 0 5 -9
-1 -13 -21 -14 -15 0 -22 -3 -14 -6 11 -5 11 -7 0 -14 -22 -14 100 -10 156 5
28 7 69 23 93 35 l44 22 -8 -118 c-4 -68 -12 -121 -18 -125 -46 -30 -246 -37
-377 -13 -176 33 -309 90 -440 189 -203 154 -334 351 -395 596 -35 140 -30
202 11 132 18 -29 92 -82 116 -82 8 0 -9 16 -36 35 -28 20 -66 52 -85 73 -19
21 -47 43 -62 49 -17 8 -37 32 -54 65 -49 97 -74 220 -89 438 -11 151 -30 245
-79 391 -72 217 -87 373 -43 459 52 102 105 111 377 69z m3889 -55 c109 -36
177 -78 251 -154 72 -73 138 -180 178 -292 26 -69 27 -82 27 -253 -1 -200 -4
-215 -75 -353 -46 -88 -123 -174 -133 -148 -4 10 -1 16 7 16 17 0 48 35 39 43
-3 4 2 7 12 7 10 0 15 3 12 7 -4 3 4 20 17 37 98 129 127 307 87 541 -22 133
-81 262 -129 280 -20 7 -42 -13 -42 -38 0 -18 -10 -11 -57 34 -184 179 -416
219 -631 110 -70 -36 -174 -128 -207 -185 -122 -209 -83 -480 94 -655 76 -75
155 -121 256 -149 39 -11 102 -34 140 -52 39 -18 85 -38 104 -45 l33 -12 -67
-13 c-207 -39 -449 51 -595 221 -63 73 -66 78 -94 150 -80 204 -78 418 6 582
70 139 223 275 363 322 124 41 278 41 404 -1z m-2749 15 c170 -21 399 -119
701 -300 91 -54 171 -99 176 -99 6 0 16 -7 23 -15 11 -13 8 -13 -17 -4 -17 5
-117 52 -222 104 -106 52 -195 95 -199 95 -11 0 43 -52 84 -81 23 -15 83 -50
135 -77 52 -28 94 -56 94 -63 0 -11 -20 -14 -87 -13 -56 0 -88 -3 -88 -10 0
-6 -4 -5 -8 2 -13 20 -120 23 -139 4 -14 -14 -14 -17 3 -23 11 -4 14 -8 7 -8
-22 -2 -43 11 -36 22 3 6 1 7 -5 3 -7 -4 -22 3 -34 15 -13 12 -17 18 -9 14 10
-5 12 -4 7 4 -4 6 -11 9 -16 6 -5 -3 -60 42 -122 101 -62 59 -135 124 -161
145 -81 65 -205 126 -306 152 -57 15 -87 27 -75 30 36 9 209 7 294 -4z m3150
-104 c37 -19 88 -88 171 -230 69 -119 149 -207 206 -226 49 -16 121 21 147 75
21 42 33 121 15 96 -8 -11 -9 -8 -6 13 4 23 0 30 -20 38 -56 21 -121 4 -143
-37 -15 -26 -8 -103 10 -114 6 -4 12 -11 11 -16 0 -11 46 -6 74 8 14 7 13 3
-5 -11 -18 -15 -37 -20 -65 -19 -71 5 -105 90 -70 175 21 50 42 72 90 94 115
53 303 -19 364 -140 27 -51 45 -152 37 -204 -16 -103 -84 -201 -165 -234 -94
-39 -266 -32 -386 17 -38 16 -86 34 -107 41 -31 11 -34 14 -22 27 12 12 23 9
82 -18 152 -73 271 -88 394 -50 81 25 124 67 143 141 27 99 12 222 -34 273
-18 20 -73 51 -69 39 1 -4 -6 -21 -17 -36 -15 -24 -16 -33 -7 -48 16 -25 15
-102 -2 -142 -18 -43 -90 -102 -126 -103 -35 0 -30 21 11 42 40 20 36 24 -8 8
-21 -7 -63 -14 -93 -15 -43 -1 -50 -3 -30 -9 21 -7 22 -8 5 -9 -16 -1 -17 -3
-5 -10 8 -6 18 -7 22 -5 5 3 7 0 6 -7 -2 -9 17 -16 56 -22 55 -8 62 -6 105 20
25 16 59 47 76 70 37 51 55 54 55 9 0 -67 -73 -138 -153 -149 -107 -15 -283
45 -375 126 l-22 21 21 22 c20 21 23 22 45 7 13 -8 24 -13 24 -10 0 3 -26 42
-58 87 -72 101 -192 318 -192 348 0 15 -9 26 -26 32 -15 6 -22 14 -18 22 5 8
0 9 -14 6 -29 -8 -28 0 1 12 31 12 34 12 67 -5z m-1527 -21 c-24 -14 -43 -31
-43 -37 -1 -7 -19 -30 -40 -52 -51 -51 -30 -58 45 -16 58 33 75 37 75 21 0
-18 -81 -69 -137 -87 -45 -14 -58 -15 -74 -4 -17 10 -25 10 -42 -3 -52 -36
-71 -55 -64 -63 5 -4 59 -11 120 -14 62 -3 124 -12 140 -19 34 -16 37 -45 5
-37 -13 3 -65 9 -117 13 -69 5 -92 4 -87 -5 5 -7 -4 -11 -26 -11 -18 0 -49 -4
-68 -9 -76 -20 -90 -21 -90 -11 0 6 4 9 9 5 5 -3 17 2 25 11 17 16 21 35 9 33
-5 -1 -13 -1 -20 0 -17 1 -4 31 13 31 8 0 14 8 14 19 0 10 11 26 25 35 26 17
33 36 14 36 -13 0 -33 -20 -42 -42 -3 -10 -15 -18 -26 -18 -15 0 -19 -4 -14
-17 6 -15 5 -16 -9 -3 -14 14 -14 16 6 27 11 7 17 12 11 13 -27 0 -205 -122
-205 -141 0 -6 9 -9 20 -6 11 3 23 1 26 -4 3 -5 10 -6 16 -3 7 4 8 2 4 -5 -5
-7 -13 -9 -20 -4 -7 4 -4 1 6 -9 18 -17 50 -15 78 6 8 6 4 -2 -10 -18 -28 -31
-93 -80 -72 -54 14 18 10 22 -32 32 -15 4 -35 13 -43 21 -20 20 -56 1 -111
-59 -48 -52 -50 -56 -22 -49 11 3 17 10 13 16 -3 6 -1 7 5 3 7 -4 12 -1 12 8
0 9 5 16 10 16 16 0 -7 -37 -30 -50 -10 -5 -26 -7 -35 -4 -12 5 -36 -13 -85
-64 -81 -85 -206 -250 -202 -268 1 -7 -2 -15 -8 -19 -5 -3 -10 -12 -10 -18 0
-7 4 -6 10 3 6 9 10 10 10 3 0 -7 -6 -16 -14 -20 -17 -10 -145 -157 -205 -235
-24 -32 -45 -58 -47 -58 -14 0 112 230 192 350 251 379 650 691 1062 830 107
36 130 38 75 4z m1420 -19 c23 -32 17 -32 -13 0 -13 14 -19 25 -14 25 5 0 17
-12 27 -25z m-277 -55 c99 -49 184 -127 221 -202 30 -60 73 -235 54 -224 -4 3
-8 -34 -7 -83 1 -85 0 -91 -43 -175 -33 -66 -59 -100 -105 -142 -33 -30 -66
-52 -74 -49 -7 2 -11 1 -8 -4 7 -10 -52 -37 -116 -52 -46 -11 -75 -9 -208 10
-136 20 -231 74 -306 175 -84 111 -114 197 -114 326 0 137 49 251 147 340 107
98 201 131 359 127 110 -2 113 -3 200 -47z m1184 -55 c16 -9 19 -14 9 -15 -8
0 -24 7 -35 15 -24 18 -7 19 26 0z m-130 -181 c0 -8 -4 -12 -10 -9 -5 3 -10
13 -10 21 0 8 5 12 10 9 6 -3 10 -13 10 -21z m397 4 c13 -12 23 -25 23 -30 0
-8 -10 -2 -44 29 -8 7 -17 9 -21 5 -5 -4 -5 -1 -1 6 10 17 16 15 43 -10z
m-2612 -33 c73 -11 85 -15 85 -30 0 -17 6 -17 -89 -5 -70 9 -121 30 -121 49 0
5 19 5 43 0 23 -5 60 -11 82 -14z m2638 -117 c177 -100 364 -241 440 -331 90
-106 172 -246 155 -263 -3 -2 -17 17 -31 43 -30 55 -184 209 -307 308 -120 97
-204 150 -365 230 -133 67 -140 72 -143 102 l-3 32 90 -40 c50 -22 124 -58
164 -81z m-2782 88 c81 -34 124 -101 117 -184 -4 -47 -10 -60 -37 -84 -35 -31
-90 -38 -111 -13 -21 25 -4 44 42 47 36 2 45 8 56 31 16 33 9 70 -18 97 -29
29 -139 28 -217 -2 -63 -23 -123 -75 -123 -104 0 -16 2 -17 10 -4 8 13 10 13
10 -2 0 -9 5 -20 12 -24 8 -5 9 -2 5 10 -4 9 -3 15 2 12 5 -3 6 -26 3 -51 -12
-114 92 -225 212 -225 35 0 44 -3 42 -16 -1 -8 -9 -19 -16 -24 -28 -17 -1 -21
74 -11 80 11 231 65 304 107 52 31 64 26 23 -9 -40 -33 -164 -84 -280 -114
-201 -52 -378 -3 -461 128 -42 64 -54 132 -39 221 14 90 50 145 119 182 30 16
68 33 84 37 53 12 152 10 187 -5z m-516 -142 c-9 -14 -23 -28 -31 -31 -18 -7
-33 5 -19 15 6 4 11 14 13 22 2 8 13 23 25 35 21 19 22 19 25 2 2 -10 -4 -29
-13 -43z m85 -24 c0 -16 -25 -17 -40 -2 -13 14 -12 15 3 9 9 -3 17 -2 17 4 0
6 5 7 10 4 6 -3 10 -10 10 -15z m4 -92 c-4 -29 -7 -63 -6 -76 1 -13 -2 -21 -7
-18 -13 8 -72 -14 -101 -37 -14 -11 -17 -17 -8 -14 12 4 15 2 11 -9 -3 -7 -8
-14 -13 -14 -4 0 -20 -12 -36 -26 -50 -44 -119 -89 -132 -86 -7 2 -11 -3 -10
-10 2 -7 -3 -12 -10 -10 -6 1 -11 -4 -10 -10 2 -7 -3 -12 -10 -10 -17 3 -221
-209 -325 -338 -46 -58 -89 -104 -94 -103 -6 1 -14 -4 -17 -13 -4 -10 -2 -13
6 -8 13 8 5 -8 -27 -51 -12 -16 -34 -52 -48 -80 -30 -59 -32 -57 -12 10 9 27
18 76 21 109 6 66 16 84 130 237 144 194 390 417 611 554 49 30 90 55 91 55 2
0 0 -24 -4 -52z m-228 31 c10 -17 -13 -36 -27 -22 -12 12 -4 33 11 33 5 0 12
-5 16 -11z m1227 -327 c51 -75 108 -130 186 -185 51 -35 85 -67 72 -67 -6 0
-13 5 -16 10 -10 16 -25 11 -18 -6 9 -23 -69 18 -130 69 -88 73 -187 233 -187
302 l0 30 21 -40 c12 -22 44 -73 72 -113z m1355 123 c497 -52 934 -237 1231
-519 197 -188 382 -505 406 -696 l5 -45 -15 52 c-55 196 -260 521 -417 664
-159 144 -305 238 -505 324 -129 55 -195 73 -118 33 22 -11 52 -33 68 -48 15
-15 47 -37 72 -49 46 -23 65 -41 44 -41 -6 0 -52 19 -103 41 -98 45 -367 117
-532 144 -103 17 -134 33 -134 70 0 30 -16 42 -72 50 -26 4 -55 13 -65 21 -22
17 -31 17 135 -1z m-2362 -56 c-13 -29 -15 -30 -16 -11 0 27 22 72 27 56 2 -6
-3 -26 -11 -45z m934 -89 c22 -44 20 -60 -10 -60 -10 0 -31 -7 -47 -14 -15 -8
-95 -36 -178 -61 -82 -26 -195 -63 -250 -83 -120 -43 -399 -184 -501 -253 -83
-55 -232 -178 -281 -230 -17 -19 -46 -47 -64 -64 -45 -42 -89 -105 -89 -126 0
-10 -5 -21 -12 -25 -7 -4 -8 -3 -4 4 16 27 -12 10 -35 -20 -126 -168 -269
-489 -269 -604 0 -35 -3 -45 -10 -34 -20 30 -11 155 16 242 83 262 244 527
436 720 160 160 338 283 594 411 217 109 328 147 681 236 2 1 12 -17 23 -39z
m-1164 -65 c20 -14 33 -25 28 -25 -17 0 -94 35 -94 43 0 14 30 6 66 -18z m-84
-45 c2 -36 0 -45 -14 -48 -15 -3 -18 4 -18 41 0 27 5 47 13 50 16 6 15 8 19
-43z m2650 40 c291 -21 633 -113 881 -236 203 -101 326 -206 476 -404 142
-189 230 -381 311 -680 74 -273 101 -336 191 -434 51 -56 87 -71 187 -79 l32
-2 -20 -39 c-24 -43 -17 -62 10 -29 l18 23 26 -21 c23 -18 37 -21 92 -17 63 4
64 4 64 -22 0 -37 -53 -116 -91 -136 -21 -10 -59 -17 -105 -17 -64 -1 -76 1
-98 23 -40 36 -33 5 17 -75 47 -77 136 -147 213 -167 24 -7 44 -15 44 -19 0
-4 -21 -21 -46 -38 -50 -33 -114 -47 -164 -36 l-33 7 34 -37 c64 -71 94 -96
141 -118 26 -12 47 -28 48 -35 1 -50 -82 -102 -175 -110 l-65 -5 15 36 c18 44
19 57 2 57 -7 0 -30 -39 -52 -87 -66 -146 -200 -314 -352 -441 -176 -147 -534
-306 -829 -367 -239 -50 -524 -95 -603 -95 l-35 0 49 33 c27 17 63 40 82 50
18 9 33 22 33 27 0 21 -58 -5 -163 -73 -123 -78 -161 -96 -301 -144 -235 -80
-493 -92 -751 -36 -38 8 -141 44 -228 80 -86 35 -163 63 -169 61 -13 -5 92
-70 131 -83 145 -46 -471 -47 -814 -1 -104 14 -255 42 -335 62 -142 35 -363
115 -471 169 -228 115 -439 326 -516 515 -12 32 -28 102 -35 156 -6 55 -13
100 -14 102 -1 2 -17 -4 -35 -13 -57 -30 -167 -18 -212 22 -16 15 -13 18 40
54 32 20 68 48 80 61 28 31 124 188 114 188 -10 0 -47 -41 -54 -61 -6 -18 -48
-29 -107 -29 -68 0 -210 120 -210 178 0 5 28 12 63 14 71 6 128 32 171 77 l29
30 -16 48 c-17 51 -12 63 29 63 12 0 62 20 111 45 66 33 97 55 116 83 34 49
73 145 104 257 56 203 126 392 198 535 51 102 158 258 247 360 138 159 347
319 547 420 219 109 591 227 808 255 49 6 54 5 105 -33 117 -87 282 -142 431
-142 26 0 47 -2 47 -5 0 -3 -11 -27 -24 -53 -13 -26 -32 -73 -41 -104 -18 -55
-18 -58 0 -105 10 -26 32 -62 50 -80 79 -79 251 -64 313 27 46 68 15 210 -68
303 l-30 34 43 17 c71 27 192 112 247 174 69 78 66 77 272 62z m1538 -124 c0
-39 -7 -31 -19 24 -9 40 -8 43 5 26 8 -11 14 -33 14 -50z m-4040 -7 c0 -25 -4
-38 -10 -34 -6 4 -25 -3 -43 -13 -17 -11 -61 -28 -96 -37 -62 -16 -81 -24
-170 -73 l-42 -23 3 -57 c2 -42 7 -57 17 -57 18 0 52 -55 55 -90 4 -36 -1 -31
-25 25 -22 52 -39 65 -39 30 0 -10 -4 -29 -9 -42 -29 -75 -45 -108 -53 -108
-20 0 -6 -30 15 -31 20 -1 20 -2 2 -6 -25 -6 -48 -30 -107 -113 -26 -36 -62
-81 -80 -100 -30 -32 -33 -40 -31 -90 2 -50 0 -53 -13 -36 -8 11 -14 30 -14
43 0 20 -5 23 -34 23 -34 0 -35 -2 -42 -46 -9 -59 3 -141 25 -179 22 -39 36
-89 21 -80 -6 3 -19 24 -30 46 -11 21 -24 39 -29 39 -15 0 -23 -57 -21 -153 3
-135 1 -231 -6 -224 -13 13 -33 220 -34 342 0 207 35 372 119 558 46 102 49
86 6 -32 -23 -62 -15 -67 30 -21 39 40 40 43 41 115 1 70 13 105 35 105 5 0 9
-17 9 -39 0 -68 -20 -145 -49 -192 -27 -45 -28 -47 -16 -110 l11 -64 29 45
c16 25 48 72 72 104 49 68 53 81 21 72 -72 -20 -70 -20 -66 5 3 21 9 24 53 26
82 3 109 54 106 197 -2 76 -13 100 -44 90 -14 -4 -18 -2 -15 7 3 8 18 16 34
19 24 5 29 10 29 33 -1 30 19 36 33 11 8 -14 13 -14 32 -4 17 9 20 14 9 20 -9
6 -4 10 17 15 40 8 87 20 171 45 53 15 78 28 95 50 13 16 24 29 26 29 1 1 2
-17 2 -40z m2044 -36 c-20 -15 -86 -35 -92 -28 -3 2 7 10 22 16 14 7 26 15 26
19 0 3 14 6 31 6 28 0 30 -1 13 -13z m1346 -18 c39 -19 70 -38 70 -40 0 -5
-139 62 -149 71 -13 12 18 0 79 -31z m-1642 -12 c-21 -2 -57 -2 -80 0 -24 2
-7 4 37 4 44 0 63 -2 43 -4z m-1732 -38 c3 -17 1 -24 -6 -20 -5 3 -10 18 -10
32 0 32 9 25 16 -12z m1814 -4 c-19 -4 -60 -4 -90 0 -48 5 -44 6 35 6 59 1 78
-2 55 -6z m-1961 -46 c36 -31 45 -54 32 -86 -8 -23 -9 -23 -25 16 -25 62 -31
69 -67 82 l-34 12 32 0 c20 1 43 -8 62 -24z m2018 -69 c55 -121 47 -215 -16
-203 -14 3 -37 0 -50 -8 l-24 -12 22 -12 c12 -7 43 -15 69 -18 43 -5 51 -2 80
25 46 43 45 110 -2 205 -41 82 -28 84 22 4 43 -70 55 -151 27 -193 -37 -57
-165 -83 -238 -48 -40 19 -87 87 -87 125 0 38 25 105 63 167 29 49 34 53 65
50 31 -3 35 -8 69 -82z m1719 43 c4 -8 1 -8 -14 0 -12 6 -24 16 -28 22 -4 8
-1 8 14 0 12 -6 24 -16 28 -22z m-4413 -549 c-5 -28 -8 -31 -13 -15 -4 11 -2
28 4 37 14 24 17 17 9 -22z m4985 -287 c-3 -25 -4 -24 -14 14 -7 24 -8 40 -3
37 5 -3 10 1 10 8 1 7 4 3 6 -9 2 -13 3 -35 1 -50z m1724 -1061 c21 -31 74
-97 118 -147 85 -93 124 -150 136 -199 7 -27 5 -29 -20 -22 -30 7 -30 7 -12
-59 17 -63 56 -140 116 -231 27 -39 62 -100 78 -137 17 -37 36 -67 43 -67 18
0 94 84 109 120 7 17 17 30 22 30 17 0 49 -95 58 -172 6 -48 5 -101 -1 -140
-12 -72 -52 -168 -81 -195 -19 -17 -20 -17 -13 18 6 31 4 37 -14 42 -33 8 -84
-24 -110 -71 -21 -39 -26 -43 -50 -37 -35 9 -37 12 -18 33 37 41 65 158 49
202 -8 21 -12 13 -26 -52 -9 -43 -30 -103 -46 -135 -15 -32 -49 -101 -74 -154
-51 -107 -117 -179 -209 -225 l-50 -26 -26 34 c-14 18 -44 52 -65 76 -32 35
-37 45 -25 53 8 5 21 9 30 9 31 0 138 81 175 132 48 64 94 193 94 260 0 39 -3
49 -14 45 -21 -8 -79 10 -109 33 -14 11 -35 40 -47 64 -30 63 -92 124 -157
153 -48 22 -65 25 -128 21 -125 -8 -197 -67 -229 -188 -8 -30 -18 -65 -23 -77
l-8 -22 -50 27 c-61 33 -75 59 -75 142 0 54 5 74 30 116 62 110 175 175 304
175 127 0 206 -40 316 -160 78 -85 106 -108 118 -97 2 3 -3 18 -13 33 -10 15
-19 45 -20 67 -1 31 -19 71 -74 161 -110 184 -137 272 -122 396 9 68 58 229
70 229 3 0 23 -26 43 -58z m-6761 -653 c12 -52 39 -119 69 -177 28 -51 50 -94
50 -96 0 -2 -14 -9 -31 -15 -39 -13 -89 -14 -109 -1 -12 7 -7 12 20 24 l35 15
-68 1 c-72 0 -126 20 -161 58 -18 21 -17 22 36 74 33 32 69 83 93 130 22 42
41 75 43 74 1 -2 12 -41 23 -87z m5564 -118 c161 -39 401 -133 469 -184 17
-13 67 -45 111 -72 44 -26 97 -66 117 -89 32 -35 37 -38 38 -20 0 12 7 27 15
34 14 11 14 10 5 -14 -14 -37 -13 -39 11 -65 18 -19 19 -25 8 -37 -12 -12 -21
-6 -59 38 -98 113 -115 130 -142 144 -25 13 -42 4 -18 -11 5 -3 26 -30 45 -60
24 -35 41 -52 51 -48 9 3 14 -2 14 -15 0 -14 -7 -19 -26 -19 -32 0 -44 -12
-54 -55 -8 -32 -8 -32 -9 -5 -1 16 -5 26 -11 22 -6 -4 -9 6 -8 27 3 31 1 33
-30 33 -18 0 -37 6 -41 14 -5 7 -17 14 -27 15 -22 1 -84 37 -84 48 0 4 14 8
30 8 28 0 30 2 20 21 -7 11 -9 27 -6 34 2 7 -2 16 -10 19 -30 11 -36 6 -21
-18 15 -22 15 -25 -2 -40 -25 -22 -31 -20 -42 14 -6 17 -18 30 -26 30 -8 0
-11 -4 -8 -10 3 -5 0 -10 -7 -11 -10 0 -10 -2 0 -6 6 -2 12 -11 12 -19 0 -11
-11 -10 -57 7 -32 11 -66 25 -76 30 -30 16 -31 4 -4 -53 32 -68 88 -135 155
-189 29 -23 51 -43 48 -46 -5 -5 -83 42 -113 69 -12 11 -34 21 -48 21 -22 0
-23 1 -9 12 15 10 14 15 -13 46 -60 70 -104 147 -106 186 -1 32 -8 43 -42 68
-22 17 -46 43 -53 57 -7 15 -21 30 -32 33 -23 7 -26 21 -7 28 6 3 -4 6 -24 6
-36 1 -89 21 -89 34 0 13 73 7 155 -12z m1027 -13 c55 -16 131 -87 156 -145
25 -59 76 -109 122 -120 25 -7 38 -17 44 -36 8 -23 2 -43 -42 -132 -45 -89
-61 -111 -105 -145 -29 -22 -73 -47 -97 -55 l-44 -15 -39 37 c-62 61 -91 117
-88 174 3 70 -27 156 -68 196 -21 20 -56 40 -87 49 -51 15 -52 15 -44 47 4 18
12 42 18 54 15 27 69 73 107 89 38 17 116 18 167 2z m-1230 -73 c2 -14 -46
-29 -68 -21 -18 7 -18 8 1 22 22 16 65 15 67 -1z m-91 -158 c210 -209 413
-587 499 -927 81 -324 88 -579 24 -940 -59 -330 -202 -640 -382 -826 -64 -67
-183 -154 -209 -154 -20 0 -15 38 5 44 25 8 223 206 278 277 103 135 170 275
209 439 70 294 69 288 69 550 1 241 -3 281 -40 470 -25 126 -92 365 -128 457
-95 247 -294 531 -469 673 -31 25 -56 49 -57 53 0 4 10 11 23 16 25 10 71 -24
178 -132z m180 -21 c51 -64 59 -88 12 -39 -86 90 -94 100 -87 117 7 17 8 17
17 0 6 -11 32 -46 58 -78z m-383 28 c248 -210 473 -617 556 -1004 46 -217 59
-345 53 -533 -5 -172 -35 -379 -59 -402 -7 -7 -8 -3 -3 12 5 17 3 22 -8 17
-20 -7 -39 -52 -32 -75 4 -11 2 -19 -4 -19 -6 0 -11 -7 -11 -16 0 -8 4 -12 10
-9 6 4 7 -1 3 -11 -4 -11 -2 -15 4 -11 6 4 13 21 17 38 3 18 9 30 12 27 8 -8
-17 -98 -27 -98 -5 0 -9 6 -9 13 0 6 -4 18 -9 26 -8 12 -12 12 -26 -2 -15 -16
-15 -17 2 -17 15 -1 16 -2 3 -9 -22 -13 -49 -17 -49 -8 0 4 -7 15 -15 23 -26
25 -46 111 -68 292 -12 94 -25 172 -28 172 -4 0 -12 -37 -19 -82 -6 -46 -18
-108 -25 -138 l-14 -55 -1 91 c-1 50 -8 113 -16 140 -11 37 -12 59 -5 85 33
113 -27 294 -123 375 -28 24 -38 26 -88 21 l-56 -5 -7 87 c-8 113 -48 198
-144 301 l-69 75 64 78 c73 90 120 178 157 295 43 138 33 238 -34 333 -18 25
-20 49 -4 49 3 0 36 -25 72 -56z m1305 -13 c28 -19 54 -46 67 -70 21 -42 28
-121 10 -121 -5 0 -10 14 -10 31 0 56 -45 110 -128 153 -33 17 -35 36 -3 36 9
0 38 -13 64 -29z m-1352 -104 c19 -102 -41 -284 -137 -418 -63 -87 -208 -237
-279 -288 -39 -28 -43 -29 -32 -9 7 13 50 61 97 108 254 255 303 334 317 507
4 54 3 84 -3 80 -6 -3 -10 21 -10 62 l1 68 18 -29 c10 -17 22 -53 28 -81z
m1409 -127 c31 -16 45 -33 70 -87 122 -258 167 -447 177 -743 6 -195 -8 -323
-52 -481 -54 -190 -117 -319 -198 -402 -58 -60 -79 -48 -23 13 42 46 67 93
105 198 61 166 86 381 86 752 0 227 -2 251 -23 325 -57 193 -110 320 -166 394
-41 55 -36 62 24 31z m-270 -70 c0 -16 -3 -30 -7 -30 -5 0 -8 14 -8 30 0 17 3
30 8 30 4 0 7 -13 7 -30z m140 10 c-13 -8 -12 -10 4 -10 11 0 17 -3 14 -6 -4
-3 -33 -2 -65 2 -43 5 -53 9 -38 15 31 12 104 11 85 -1z m-5565 -170 c59 -255
304 -497 697 -688 79 -39 171 -80 205 -92 l61 -22 -13 -45 c-8 -25 -16 -47
-18 -50 -15 -14 -350 140 -466 214 -212 135 -378 314 -481 521 -51 101 -60
163 -34 226 22 52 22 52 49 -64z m5425 79 c0 -28 -15 -23 -16 6 -1 14 2 22 7
19 5 -3 9 -14 9 -25z m-5320 -154 l24 -75 53 0 c54 0 72 -15 30 -25 -12 -3
-40 -4 -62 -2 -36 4 -43 9 -72 57 -32 54 -50 120 -38 140 13 22 41 -19 65 -95z
m5826 3 c106 -126 156 -195 208 -287 86 -151 116 -234 162 -439 4 -20 2 -23
-15 -17 -13 4 -28 -3 -48 -22 -16 -15 -38 -33 -48 -39 -18 -11 -17 -12 15 -21
42 -11 49 -33 42 -123 -6 -81 -24 -118 -60 -126 -79 -17 -81 -19 -95 -106 -4
-29 -2 -38 9 -38 11 0 14 -19 14 -92 -1 -182 -30 -280 -114 -375 -34 -38 -105
-93 -121 -93 -2 0 0 12 6 27 14 37 4 67 -26 81 -89 41 -175 -25 -175 -134 0
-60 30 -113 83 -148 40 -26 47 -27 142 -24 77 2 104 7 117 20 15 15 88 42 95
35 1 -2 -18 -29 -42 -60 -50 -63 -53 -69 -28 -65 14 2 20 -10 32 -66 15 -69
15 -69 -10 -89 -20 -16 -35 -19 -97 -15 -79 5 -93 -8 -31 -29 l34 -11 -3 -64
c-1 -34 -7 -85 -13 -111 -14 -59 -41 -78 -184 -131 -151 -56 -156 -58 -187
-84 -16 -13 -30 -23 -31 -21 -2 2 -20 31 -41 64 -21 33 -63 80 -92 105 -56 46
-156 100 -186 100 -12 0 -18 8 -18 23 1 20 2 21 14 5 43 -57 84 20 72 135 -6
54 -4 69 13 97 20 34 19 53 -6 82 -13 15 -9 23 40 81 58 68 124 174 162 262
22 50 26 53 69 59 48 7 96 38 163 104 31 31 47 61 66 117 14 41 23 75 19 75
-4 0 -2 4 4 8 15 9 54 99 46 106 -8 9 -24 7 -19 -1 3 -5 -2 -15 -11 -23 -14
-13 -15 -12 -8 5 5 11 11 28 13 37 3 10 10 15 16 11 5 -3 7 -1 4 4 -4 6 4 43
18 83 13 39 36 124 51 188 61 270 35 649 -62 922 -19 52 -34 96 -34 98 0 8 14
-6 76 -80z m-2886 61 c12 -8 10 -9 -7 -4 -12 3 -24 1 -28 -5 -3 -5 -12 -10
-18 -10 -7 0 -3 7 7 15 23 18 26 18 46 4z m-2330 -53 c0 -9 -39 -13 -51 -5
-10 6 -4 9 19 9 17 0 32 -2 32 -4z m409 -35 c102 -17 240 -35 306 -41 66 -6
162 -15 214 -21 52 -5 134 -7 182 -3 65 5 93 3 104 -6 27 -23 254 -2 605 54
195 32 169 10 -42 -34 -78 -17 -179 -41 -223 -54 -89 -27 -125 -33 -268 -42
-85 -6 -97 -5 -91 9 5 14 -19 15 -208 14 -218 -2 -465 18 -593 48 -74 17 -202
62 -233 83 -13 8 -40 19 -60 23 -86 19 134 -3 307 -30z m-765 -94 c9 -38 16
-82 16 -99 0 -25 3 -29 18 -22 9 4 50 9 90 12 39 2 72 7 72 11 0 3 11 19 24
34 14 16 22 35 19 43 -3 8 0 14 5 14 21 0 20 -17 -4 -64 l-25 -48 46 -49 c25
-26 50 -60 57 -74 12 -27 38 -34 38 -10 0 28 17 15 18 -14 1 -57 64 -153 111
-169 l30 -11 12 57 c17 77 42 126 93 176 37 38 117 81 101 56 -4 -6 -12 -10
-18 -10 -26 0 -107 -104 -133 -170 -31 -80 -28 -109 6 -59 39 58 103 119 124
119 15 0 9 -10 -29 -47 -50 -50 -79 -103 -90 -165 -4 -21 -13 -42 -20 -48 -11
-9 -12 -3 -8 30 3 22 2 40 -3 41 -5 0 -28 1 -51 3 -50 3 -66 15 -101 75 -35
61 -134 186 -174 219 -28 24 -40 27 -103 26 -54 0 -81 -5 -108 -21 l-35 -21 9
28 c13 36 8 102 -8 108 -10 3 -13 -13 -13 -57 0 -76 -16 -88 -24 -18 -4 29
-13 66 -21 81 -14 26 -13 27 6 21 27 -9 48 19 49 64 0 47 6 37 24 -42z m-373
-49 c12 -24 33 -58 46 -76 l25 -34 -30 -28 c-34 -30 -79 -115 -108 -200 -18
-53 -18 -54 -25 -25 -13 56 -9 181 7 236 20 68 56 169 60 169 2 0 13 -19 25
-42z m732 -3 c7 3 18 1 26 -4 12 -8 13 -14 3 -36 -7 -14 -12 -43 -12 -63 0
-20 -5 -44 -10 -52 -7 -10 -10 7 -10 57 0 39 -4 75 -10 78 -5 3 -10 14 -9 23
0 10 3 12 5 5 3 -7 11 -10 17 -8z m3108 2 c-6 -8 -9 -17 -6 -20 3 -4 2 -5 -1
-2 -10 7 -49 -24 -49 -39 0 -16 -102 -101 -180 -151 -89 -57 -257 -142 -395
-200 -74 -32 -153 -65 -175 -76 -219 -100 -440 -161 -625 -170 -54 -3 -54 -3
-61 28 l-6 31 156 31 c478 96 984 308 1296 543 53 40 64 46 46 25z m-3758
-177 c-8 -21 -8 -41 -1 -66 10 -38 1 -61 -47 -114 -13 -14 -30 -52 -40 -85
-14 -52 -25 -68 -85 -125 -75 -71 -88 -95 -101 -185 -4 -33 -11 -75 -15 -93
-4 -23 -2 -38 8 -50 21 -24 69 -168 62 -186 -3 -8 -14 -18 -25 -21 -14 -5 -18
-12 -13 -29 5 -22 12 -55 13 -68 1 -3 14 -9 29 -13 18 -4 28 -13 29 -26 2 -19
1 -19 -29 -2 -16 10 -36 31 -45 46 -24 47 -38 28 -38 -52 0 -65 -1 -70 -12
-44 -55 129 -57 393 -5 565 27 92 90 208 111 208 17 0 48 64 65 132 20 84 76
208 107 236 30 29 48 14 32 -28z m3799 -6 c-28 -19 -28 -32 0 -36 19 -2 24
-11 30 -54 4 -28 19 -75 33 -105 13 -30 25 -65 25 -79 1 -69 53 -201 115 -291
36 -52 37 -56 33 -124 -6 -82 -46 -179 -99 -239 -33 -38 -117 -86 -151 -86
-15 0 -15 -3 -3 -27 9 -18 11 -29 5 -31 -13 -5 -41 18 -35 28 2 4 -6 12 -19
18 -32 15 -40 45 -22 84 26 59 27 73 4 118 -43 85 -113 95 -182 25 -50 -49
-70 -100 -74 -186 -5 -90 14 -142 74 -208 50 -56 105 -87 195 -110 64 -16 89
-17 189 -9 149 11 180 20 265 76 38 26 74 47 79 47 4 0 16 -27 26 -59 12 -36
32 -73 53 -95 62 -66 67 -78 67 -171 0 -49 -7 -109 -15 -138 -17 -56 -74 -160
-100 -182 -8 -7 -15 -17 -15 -23 0 -5 9 -2 20 8 11 10 22 16 25 13 9 -9 25
-119 25 -171 0 -26 -6 -63 -14 -82 -19 -44 -86 -92 -158 -112 -66 -18 -77 -36
-20 -32 36 3 37 2 34 -26 -3 -36 -64 -164 -119 -255 -35 -57 -48 -69 -109
-100 -59 -30 -118 -56 -147 -63 -4 -1 -16 21 -27 50 -33 94 -64 145 -117 193
-64 58 -124 94 -183 109 -74 19 -71 16 -54 58 32 76 -25 215 -115 277 -45 32
-50 32 -98 4 -100 -57 -147 -129 -148 -229 l0 -65 -85 0 c-70 1 -94 -4 -133
-23 -60 -30 -137 -98 -162 -145 -23 -42 -33 -41 -59 4 -18 31 -19 39 -7 134 7
56 18 139 26 186 8 47 23 148 35 225 22 151 44 236 91 358 51 129 77 167 209
300 70 70 121 127 115 127 -7 0 -61 -45 -122 -99 -116 -104 -171 -176 -225
-292 -33 -72 -47 -85 -49 -46 0 12 -4 63 -8 112 -13 157 26 341 100 474 17 31
56 92 86 136 l54 80 -69 -71 c-80 -82 -138 -181 -181 -310 -41 -123 -48 -239
-27 -453 16 -160 16 -165 -5 -280 -12 -64 -24 -150 -28 -191 -6 -73 -7 -75
-36 -81 -56 -12 -300 -9 -400 6 -319 45 -636 161 -951 346 -195 115 -411 301
-559 484 -43 53 -80 93 -83 90 -9 -9 129 -208 187 -269 53 -56 54 -58 21 -41
-116 59 -286 197 -378 305 -89 106 -210 305 -267 439 -51 119 -69 137 -36 36
11 -33 19 -60 18 -60 -1 0 -11 -5 -22 -11 -21 -12 -23 -37 -10 -124 6 -38 4
-48 -13 -63 -19 -18 -22 -18 -56 -2 -54 26 -123 108 -141 168 -8 28 -15 85
-15 127 l0 76 61 89 c61 91 139 265 159 361 18 83 20 84 101 15 147 -124 339
-234 550 -315 l95 -37 12 -86 c17 -129 81 -251 176 -333 58 -51 138 -99 174
-106 45 -8 112 -41 112 -54 0 -13 -7 -13 -70 6 -72 21 -110 12 -154 -36 -53
-59 -49 -117 11 -181 21 -23 23 -30 13 -49 -22 -41 -3 -88 58 -149 64 -64 106
-81 196 -81 66 0 87 9 138 58 l37 35 35 -31 c87 -76 279 -49 360 51 28 35 31
46 32 110 0 40 5 82 12 94 7 12 12 40 12 61 0 33 -6 45 -36 72 -20 17 -47 35
-60 40 -13 5 -24 13 -24 18 0 5 39 28 86 51 158 79 264 209 300 371 14 60 19
70 38 70 82 1 504 114 704 189 293 110 487 208 702 355 52 35 97 63 99 60 3
-2 -5 -11 -17 -20z m-2012 -32 c170 -56 322 -167 389 -283 58 -102 78 -287 41
-385 -6 -16 -11 -30 -11 -32 1 -1 -10 -23 -23 -50 -44 -88 -184 -199 -306
-245 -171 -63 -407 -74 -525 -25 -33 14 -80 28 -104 32 -33 5 -65 22 -119 64
-100 76 -155 139 -199 230 -36 72 -38 81 -38 171 0 122 26 203 96 296 84 111
212 197 359 242 66 20 91 23 210 19 118 -3 147 -7 230 -34z m-667 -12 c-3 -11
-9 -20 -13 -20 -5 0 -6 9 -3 20 3 11 9 20 13 20 5 0 6 -9 3 -20z m3052 -22 c7
-18 16 -69 20 -113 10 -123 7 -118 79 -110 58 6 65 4 93 -19 17 -14 48 -61 69
-103 34 -68 39 -85 38 -143 -1 -71 -19 -140 -36 -140 -7 0 -7 10 -2 28 5 15 9
54 9 87 0 48 -7 75 -36 136 -42 88 -73 109 -162 109 -50 0 -55 2 -65 28 -6 15
-14 50 -18 77 -7 51 -12 195 -6 195 2 0 9 -15 17 -32z m2067 -384 c4 -16 11
-90 14 -164 5 -109 3 -147 -10 -199 -16 -63 -53 -137 -64 -127 -2 3 1 12 7 20
18 21 51 165 51 222 1 105 -12 260 -23 273 -10 11 -9 13 2 9 8 -2 18 -18 23
-34z m-2155 -76 c18 -23 26 -72 24 -148 -2 -70 -1 -76 21 -85 70 -30 -16 -212
-110 -231 -22 -5 -32 -3 -32 6 0 7 -19 -5 -42 -27 -48 -43 -100 -68 -123 -60
-26 10 -5 36 49 62 68 32 97 64 142 155 40 82 60 191 45 245 -8 30 -7 32 18
28 16 -3 21 -1 14 4 -15 11 -35 63 -24 63 5 0 13 -6 18 -12z m332 -237 l-1
-36 -13 35 c-19 50 -19 66 0 50 9 -7 15 -28 14 -49z m57 7 c14 -28 16 -52 10
-173 -10 -190 -9 -195 13 -219 57 -60 67 -286 16 -351 -12 -16 -12 -12 2 20
10 26 17 70 17 125 1 79 -2 91 -36 161 l-37 76 0 135 c0 75 -3 163 -7 197 -3
33 -4 61 -1 61 4 0 14 -14 23 -32z m-805 -34 c11 -13 9 -14 -16 -8 -23 6 -27
4 -22 -9 3 -9 -1 -18 -10 -21 -9 -4 -14 -9 -11 -11 3 -3 -12 -23 -34 -45 -21
-23 -38 -47 -38 -55 0 -8 -4 -15 -9 -15 -5 0 -7 -18 -6 -40 2 -22 -1 -38 -5
-35 -4 3 -11 -7 -15 -22 -11 -44 -25 -7 -25 67 0 52 6 75 28 115 43 79 128
121 163 79z m-3509 -61 c22 -25 51 -84 44 -90 -3 -3 -14 5 -24 17 -19 23 -19
23 -20 -49 -2 -81 -27 -152 -60 -170 -27 -14 -63 -14 -59 0 1 6 -15 12 -36 14
-20 2 -45 8 -55 14 -12 7 1 8 43 4 51 -4 64 -2 88 17 15 12 27 28 27 35 0 8 8
19 18 24 10 6 12 11 4 11 -7 0 -10 5 -7 10 4 6 9 8 13 6 15 -9 12 95 -3 123
-8 17 -15 35 -15 41 0 16 25 12 42 -7z m-223 -93 c17 -22 30 -40 27 -40 -9 0
-66 62 -66 71 0 15 6 10 39 -31z m6306 -60 c-3 -117 -25 -150 -25 -38 0 67 11
128 24 128 2 0 3 -41 1 -90z m-6349 43 c-4 -9 -2 -11 6 -7 6 4 17 -1 25 -11 7
-11 13 -15 13 -9 0 10 20 -17 20 -28 0 -4 -8 -5 -17 -1 -15 5 -14 3 2 -10 15
-11 22 -12 27 -4 5 8 8 5 8 -8 0 -16 2 -17 9 -5 6 8 8 17 6 21 -3 3 10 3 28 0
35 -7 49 -37 22 -47 -32 -13 -91 15 -143 68 -29 29 -52 55 -52 59 0 3 12 4 26
1 17 -3 23 -9 20 -19z m5867 -20 c-7 -2 -13 -10 -13 -16 -1 -7 -17 -30 -37
-52 -38 -42 -36 -36 11 33 16 23 34 42 40 41 7 0 6 -3 -1 -6z m-5337 -274 c79
-89 207 -204 273 -247 30 -19 93 -54 140 -77 47 -24 122 -69 166 -100 88 -64
277 -194 303 -210 32 -19 65 -45 57 -45 -5 0 -17 8 -28 18 -19 16 -20 16 -14
0 4 -12 2 -15 -8 -11 -8 3 -13 9 -10 13 3 5 -4 15 -16 24 -17 11 -27 12 -46 3
-24 -10 -24 -11 -4 -22 19 -10 20 -12 5 -40 -9 -17 -20 -61 -24 -98 -5 -45
-15 -76 -27 -90 -11 -12 -27 -34 -36 -49 -17 -27 -17 -28 5 -25 15 3 24 12 26
26 2 12 8 19 13 16 5 -3 6 1 3 10 -4 10 -1 14 7 12 8 -2 11 -2 7 0 -14 8 -8
23 9 23 9 0 36 20 60 45 23 25 47 45 53 45 5 0 10 8 10 17 0 9 3 13 7 10 3 -4
18 3 31 15 l25 23 -17 -32 c-24 -48 -272 -345 -326 -391 -37 -31 -71 -44 -86
-31 -12 10 -13 9 -8 -6 5 -13 4 -16 -4 -11 -6 4 -21 2 -33 -5 -12 -6 -87 -14
-166 -18 -125 -7 -147 -10 -173 -29 -16 -12 -32 -22 -35 -22 -3 0 -5 32 -5 71
0 102 -16 152 -66 207 -31 36 -57 53 -98 67 l-55 19 6 56 c3 30 0 80 -6 111
-13 64 -72 165 -102 174 -32 10 -105 -32 -153 -88 -55 -66 -76 -107 -76 -152
l0 -35 -51 0 c-66 0 -82 -10 -126 -78 -50 -77 -53 -51 -10 80 70 210 79 331
34 468 -35 108 -54 214 -63 359 l-7 115 45 -37 c120 -98 253 -106 365 -21 39
29 73 91 73 131 0 24 7 18 49 -47 26 -41 75 -105 107 -141z m745 123 c-16 -21
-32 -51 -35 -67 -10 -54 -31 -46 -29 13 1 27 9 43 32 64 48 43 69 36 32 -10z
m299 -1 c5 -11 10 -28 10 -38 -1 -16 -3 -15 -20 6 -21 25 -26 51 -10 51 5 0
14 -9 20 -19z m222 -47 c-6 -47 14 -81 50 -90 l30 -6 -26 -27 c-26 -27 -36
-81 -16 -81 6 0 10 -5 10 -11 0 -6 -15 -9 -36 -7 -35 3 -35 4 -63 87 l-28 83
41 44 c23 24 41 43 41 44 1 0 -1 -16 -3 -36z m-212 -49 c0 -1 -9 -37 -20 -81
-25 -98 -42 -116 -112 -121 -45 -3 -49 -2 -28 7 39 17 80 61 80 87 0 16 -10
30 -29 41 -39 22 -48 62 -15 62 16 0 28 10 39 30 l16 30 34 -26 c19 -14 35
-27 35 -29z m4095 35 c-3 -5 -13 -6 -21 -3 -12 4 -13 8 -3 14 15 9 32 2 24
-11z m639 -41 c-9 -19 -30 -53 -46 -76 -21 -29 -28 -47 -23 -62 9 -29 -13 -27
-26 3 -10 21 -4 33 42 103 53 78 88 99 53 32z m-1492 -11 c-7 -7 -12 -16 -12
-20 0 -13 17 -9 34 8 9 8 16 13 16 9 0 -11 -29 -75 -43 -96 -14 -19 -15 -18
-13 13 1 18 7 33 13 33 6 0 15 3 19 8 4 4 1 7 -7 7 -8 0 -20 5 -27 12 -9 9 -7
14 6 24 22 17 30 18 14 2z m-3202 -63 c0 -36 -49 -152 -67 -159 -12 -5 -13 -3
-6 6 6 7 15 38 21 68 13 70 29 110 42 110 5 0 10 -11 10 -25z m-155 -19 c0
-11 -6 -21 -12 -23 -7 -3 -13 2 -13 11 0 10 -9 16 -26 16 -15 0 -23 4 -19 11
4 5 21 9 38 7 24 -2 32 -8 32 -22z m439 -3 c4 -9 3 -20 -2 -25 -11 -11 -36 17
-27 32 9 15 22 12 29 -7z m-592 -9 c6 -5 -23 -88 -34 -99 -4 -4 -14 7 -22 24
-21 40 -7 81 27 81 13 0 26 -2 29 -6z m4929 -117 c-16 -16 -26 0 -10 19 9 11
15 12 17 4 2 -6 -1 -17 -7 -23z m-21 -26 c0 -5 -12 -16 -26 -26 -32 -21 -87
-38 -79 -24 4 5 12 9 18 9 7 0 28 11 47 25 41 28 40 28 40 16z m-1616 -135
c-3 -8 0 -17 6 -21 13 -8 -15 -45 -34 -45 -6 0 0 7 12 16 12 8 19 20 16 26 -4
6 -16 -1 -30 -17 -33 -38 -30 -17 2 23 29 35 36 39 28 18z m581 -231 c48 -69
57 -129 25 -165 -18 -21 -20 -21 -14 -5 14 38 16 83 4 102 -9 15 -10 12 -5
-19 5 -34 4 -37 -27 -47 -18 -5 -44 -11 -58 -13 -31 -4 -54 -49 -59 -122 -1
-4 -16 6 -33 24 -18 17 -45 38 -60 46 -16 8 -28 22 -29 32 -2 35 3 68 17 97 8
17 12 22 10 13 -13 -46 -18 -121 -9 -115 6 4 13 19 16 34 4 16 18 42 31 58 20
24 27 27 35 16 6 -9 10 2 12 37 3 39 1 48 -8 40 -7 -6 -13 -7 -13 -4 0 4 -12
-6 -26 -21 -22 -25 -24 -25 -14 -4 7 12 32 42 57 66 l45 43 33 -19 c18 -11 50
-44 70 -74z m-4827 -12 c29 -43 49 -102 57 -171 7 -61 7 -62 -27 -95 -41 -38
-143 -97 -169 -97 -27 0 -70 91 -76 160 -5 51 -3 59 28 100 39 50 133 130 154
130 7 0 22 -12 33 -27z m3040 -140 c38 -38 44 -55 49 -128 l5 -76 -44 -43
c-23 -24 -50 -45 -58 -48 -11 -3 -12 -10 -5 -26 l10 -21 53 26 c70 33 95 71
89 136 -3 29 -1 43 4 35 12 -19 11 -106 -2 -130 -6 -11 -35 -31 -65 -44 -29
-13 -71 -40 -93 -60 -22 -19 -44 -33 -49 -30 -26 16 -82 116 -89 161 -18 102
21 176 122 235 60 35 52 34 73 13z m-3304 -102 c25 -10 72 -118 68 -158 -2
-23 -9 -33 -24 -35 -29 -4 -55 -55 -68 -131 -16 -93 -16 -102 -4 -100 6 1 11
-4 11 -12 0 -11 -7 -9 -28 6 -32 23 -89 25 -128 5 -34 -18 -87 -76 -96 -106
l-7 -22 -14 21 c-22 31 -46 159 -39 205 14 91 38 202 47 219 7 15 12 16 24 6
8 -6 14 -17 14 -25 0 -13 30 -34 48 -34 5 0 17 21 27 46 24 64 84 124 121 123
16 0 37 -4 48 -8z m4561 -80 c-3 -6 -14 -11 -23 -11 -15 1 -15 2 2 15 21 16
32 13 21 -4z m1345 -17 c0 -8 -13 -44 -30 -80 -81 -179 -214 -347 -336 -424
-78 -49 -96 -56 -197 -81 -146 -35 -174 -18 -33 20 237 65 456 256 523 458 14
43 33 86 41 96 8 9 10 17 5 17 -6 0 -16 -6 -22 -14 -13 -16 -64 -28 -54 -14 8
14 86 48 95 42 4 -3 8 -12 8 -20z m-3645 -2 c-6 -5 -32 -24 -60 -44 -97 -69
-174 -99 -311 -122 -167 -27 -180 -28 -167 -15 7 7 21 13 30 14 191 17 288 48
425 135 35 22 70 40 78 40 8 0 10 -3 5 -8z m-1816 -17 c30 -15 81 -70 81 -86
0 -5 -15 7 -32 27 -18 21 -46 46 -63 56 -36 21 -26 24 14 3z m-49 -16 c21 -12
45 -36 54 -55 27 -58 19 -68 -22 -25 -45 48 -93 60 -166 41 -28 -7 -60 -17
-71 -23 -19 -10 -18 -10 5 -19 30 -11 16 -27 -33 -35 -30 -4 -38 -2 -44 13 -3
11 -11 22 -17 26 -6 4 1 11 16 17 15 6 45 21 66 35 78 49 154 58 212 25z
m2670 -77 c19 -9 46 -36 61 -62 28 -46 38 -100 18 -100 -5 0 -7 -5 -3 -11 4
-7 0 -9 -12 -5 -19 6 -22 2 -49 -69 -10 -24 -13 -125 -4 -119 10 6 20 -61 13
-79 -5 -13 -10 -14 -25 -6 -11 5 -17 14 -14 20 4 5 3 8 -2 7 -4 -1 -18 3 -31
11 -95 52 -270 -50 -306 -180 -9 -32 -21 -61 -27 -64 -5 -4 -7 -11 -4 -16 9
-14 -8 -11 -32 6 -32 22 -80 104 -97 165 -27 99 -29 185 -7 303 27 143 36 157
61 90 7 -21 26 -50 43 -65 21 -20 25 -28 13 -28 -9 0 -29 19 -46 42 -19 25
-30 35 -30 24 0 -9 21 -39 46 -66 46 -49 72 -64 61 -35 -10 26 61 151 105 187
80 63 199 85 268 50z m-1916 -90 c-10 -15 -49 -64 -88 -110 -39 -46 -88 -104
-110 -130 -60 -73 -168 -147 -281 -191 -97 -38 -230 -70 -242 -57 -4 3 3 6 15
6 38 0 214 61 301 104 98 47 139 85 236 215 84 114 178 217 183 201 2 -6 -4
-23 -14 -38z m2100 -41 c-58 -50 -72 -56 -61 -26 6 15 93 75 110 75 5 0 -17
-22 -49 -49z m395 3 c50 -45 80 -90 96 -144 6 -22 2 -20 -31 15 -22 23 -54 53
-72 68 -27 22 -62 79 -62 102 0 14 23 1 69 -41z m-249 -33 c17 -33 -16 -61
-81 -70 -31 -4 -64 -5 -73 -1 -14 5 -13 9 11 32 60 56 124 73 143 39z m-2722
-38 c-10 -2 -26 -2 -35 0 -10 3 -2 5 17 5 19 0 27 -2 18 -5z m-861 -81 c-10
-10 -17 -24 -17 -30 0 -7 -9 -21 -20 -32 -12 -12 -20 -15 -20 -7 0 18 49 87
62 87 6 0 4 -8 -5 -18z m283 -32 c-12 -23 -25 -38 -30 -35 -5 3 -15 -3 -22
-15 -19 -29 -42 -27 -27 3 24 47 61 87 80 87 19 0 19 -1 -1 -40z m4010 35 c0
-26 -50 -139 -98 -223 -79 -139 -164 -233 -245 -271 -84 -40 -141 -57 -212
-66 -74 -9 -67 2 14 21 142 33 254 106 344 227 61 82 170 267 162 275 -3 3
-23 -4 -44 -16 -57 -32 -64 -26 -9 8 25 16 49 34 53 39 6 11 35 15 35 6z"/>
<path d="M1650 8430 c0 -5 7 -10 15 -10 8 0 15 5 15 10 0 6 -7 10 -15 10 -8 0
-15 -4 -15 -10z"/>
<path d="M5890 8560 c-8 -5 -10 -10 -4 -10 12 0 3 -80 -12 -102 -5 -8 -1 -5 9
5 9 11 17 24 18 31 3 36 6 86 5 86 -1 0 -8 -5 -16 -10z"/>
<path d="M3590 8817 c-23 -11 -39 -37 -22 -37 10 1 56 40 51 44 -2 2 -15 -1
-29 -7z"/>
<path d="M3430 8610 c0 -22 1 -23 24 -14 18 7 10 34 -10 34 -8 0 -14 -9 -14
-20z"/>
<path d="M4545 8804 c-103 -33 -211 -130 -256 -230 -87 -192 -15 -429 166
-546 133 -87 297 -102 427 -41 126 60 193 135 228 258 63 220 -36 443 -237
537 -59 28 -79 32 -172 35 -77 2 -120 -2 -156 -13z m22 -153 c46 -22 73 -62
73 -112 0 -23 4 -30 15 -25 37 14 61 -66 29 -98 -18 -18 -17 -18 -38 -10 -10
4 -16 18 -16 35 l0 28 -44 -43 c-68 -68 -160 -75 -211 -14 -20 24 -25 40 -25
86 0 72 33 125 93 153 53 23 72 23 124 0z m-87 -350 c5 -10 5 -23 -1 -32 -8
-12 -12 -11 -24 5 -20 26 -20 57 0 50 9 -4 20 -14 25 -23z"/>
<path d="M5112 8558 c3 -7 13 -37 22 -65 19 -56 30 -71 20 -25 -18 79 -26 102
-35 102 -6 0 -9 -6 -7 -12z"/>
<path d="M6002 7589 c-59 -23 -122 -79 -122 -109 0 -18 4 -17 46 10 97 61 256
67 367 12 35 -18 84 -50 109 -72 45 -39 68 -50 68 -31 0 5 -19 35 -43 67 -91
123 -281 178 -425 123z"/>
<path d="M3408 7481 c-84 -27 -141 -64 -191 -123 -89 -106 -92 -147 -4 -61 41
41 85 73 132 95 63 30 81 33 181 36 97 4 117 1 162 -18 28 -12 56 -20 62 -18
19 6 -28 56 -73 80 -59 31 -191 35 -269 9z"/>
<path d="M6065 6919 c-54 -22 -110 -60 -137 -93 -31 -37 -19 -38 25 -3 64 52
90 67 164 92 60 21 64 24 33 24 -19 0 -57 -9 -85 -20z"/>
<path d="M6128 6841 c-83 -27 -138 -63 -199 -129 -106 -114 -154 -250 -153
-437 0 -131 19 -224 61 -308 23 -46 92 -131 100 -124 2 2 -12 27 -30 55 -19
27 -39 64 -45 82 -11 31 -11 31 31 -12 50 -51 95 -75 173 -89 67 -12 119 -6
195 22 111 42 192 125 241 248 19 47 23 75 23 177 0 119 0 121 -37 195 -42 84
-104 161 -152 186 -56 30 -4 25 74 -7 179 -74 266 -170 311 -340 17 -68 21
-102 16 -170 -3 -47 -10 -98 -17 -114 -6 -16 -8 -31 -6 -34 11 -10 196 150
196 170 0 14 -29 9 -69 -12 l-39 -19 1 107 c1 59 -1 119 -6 134 -7 26 -6 27
40 27 61 -1 95 12 122 46 20 27 45 95 36 103 -2 3 -20 -9 -40 -27 -19 -17 -47
-34 -61 -37 -41 -10 -154 30 -154 55 0 4 20 8 44 8 77 0 154 58 172 130 9 33
-3 41 -21 16 -20 -28 -72 -59 -113 -67 -35 -6 -133 13 -172 34 -13 7 -45 28
-70 46 -26 18 -78 48 -115 66 -61 28 -80 32 -174 35 -84 2 -118 -1 -163 -16z
m-138 -276 c39 -20 58 -81 40 -125 -34 -82 -134 -109 -184 -49 -31 37 -33 76
-7 128 30 58 91 77 151 46z m108 -138 c5 -23 -15 -47 -39 -47 -25 0 -31 14
-19 45 7 19 16 26 32 23 13 -2 24 -11 26 -21z m257 -314 c25 -16 45 -31 45
-35 0 -3 -10 -15 -23 -25 -13 -10 -22 -23 -20 -29 4 -13 -45 -52 -107 -85 -38
-20 -59 -23 -132 -23 -75 1 -92 4 -123 25 -19 13 -35 31 -35 39 0 8 16 31 36
51 35 36 37 36 97 32 40 -4 80 0 113 10 37 11 55 12 62 5 13 -13 72 -18 72 -6
0 4 -5 8 -11 8 -5 0 -8 4 -4 9 3 5 -4 12 -15 16 -20 6 -29 35 -10 35 5 0 30
-12 55 -27z"/>
<path d="M3560 6832 c0 -4 26 -16 57 -26 84 -25 172 -70 220 -110 45 -39 55
-44 47 -22 -7 19 -97 87 -150 114 -22 11 -68 28 -101 36 -70 18 -73 19 -73 8z"/>
<path d="M3354 6720 c-121 -32 -210 -86 -326 -202 -58 -58 -100 -78 -161 -78
-53 0 -100 15 -147 47 -45 30 -50 14 -11 -36 33 -42 88 -69 161 -80 l45 -7
-30 -28 c-65 -61 -163 -75 -227 -31 -43 29 -48 30 -48 11 0 -26 50 -74 95 -92
44 -16 106 -16 148 1 15 6 17 0 17 -65 0 -40 7 -99 16 -132 8 -33 13 -63 10
-65 -3 -3 -25 -1 -48 5 -63 16 -66 0 -6 -41 29 -20 79 -56 110 -79 32 -23 60
-39 64 -36 3 3 -2 21 -12 40 -61 117 -59 289 5 433 48 109 176 235 292 289 80
38 87 32 22 -23 -81 -67 -120 -137 -144 -256 -16 -79 -18 -109 -10 -163 34
-244 212 -414 436 -415 164 -2 270 57 373 209 11 17 12 15 8 -16 -5 -40 -34
-109 -66 -157 -12 -18 -17 -33 -11 -33 6 0 29 27 50 60 56 87 83 196 83 335
-2 429 -314 703 -688 605z m141 -252 c37 -33 50 -98 29 -144 -19 -41 -65 -81
-102 -91 -33 -8 -91 22 -110 57 -8 15 -11 45 -9 74 4 43 10 55 45 88 50 46
104 52 147 16z m89 -163 c8 -22 -3 -43 -26 -51 -30 -9 -44 10 -30 41 13 28 46
34 56 10z m286 -340 c16 -30 7 -90 -17 -118 -10 -11 -42 -36 -72 -55 -87 -56
-211 -56 -323 -1 -50 25 -54 36 -27 66 46 48 87 62 172 56 93 -5 160 13 202
57 30 32 46 31 65 -5z"/>
<path d="M4801 6245 c-79 -13 -257 -62 -250 -70 2 -2 56 10 119 27 189 49 386
50 569 2 9 -2 0 3 -19 12 -47 22 -189 44 -270 43 -36 -1 -103 -7 -149 -14z"/>
<path d="M4880 6098 c-199 -20 -448 -134 -600 -275 -112 -103 -194 -225 -236
-349 -20 -61 -24 -92 -24 -192 l0 -119 -51 -43 c-44 -37 -49 -44 -34 -53 12
-6 20 -6 25 3 4 6 27 16 50 21 l44 10 61 -63 c74 -77 179 -132 284 -150 l70
-12 36 -73 c130 -264 464 -355 713 -194 74 48 139 132 179 231 l28 71 55 15
c188 52 296 118 371 225 32 44 48 59 66 59 28 0 63 16 63 29 0 5 -14 18 -32
28 -32 19 -32 19 -33 103 -3 164 -63 292 -204 430 -85 83 -217 176 -304 215
-155 68 -355 100 -527 83z m317 -42 c159 -34 286 -100 446 -234 132 -110 201
-209 233 -334 60 -234 -97 -450 -373 -512 -40 -9 -98 -16 -129 -16 -84 0 -249
29 -326 57 l-68 24 -97 -37 c-278 -104 -448 -116 -608 -40 -168 79 -258 254
-225 438 28 161 186 382 355 498 120 82 304 151 455 169 93 12 247 6 337 -13z
m-254 -1246 c13 -13 30 -19 43 -16 11 3 31 -2 43 -10 17 -12 26 -13 34 -5 6 6
16 11 22 11 5 0 3 -5 -5 -11 -12 -8 -11 -9 5 -6 11 2 19 8 18 15 -2 8 4 9 22
2 18 -7 24 -6 22 3 -1 7 6 12 16 12 58 0 -45 -71 -155 -107 -61 -20 -72 -20
-135 -9 -41 7 -93 25 -127 45 l-58 33 26 17 c30 19 125 44 174 45 20 1 41 -7
55 -19z m352 -90 l-19 -21 -8 20 c-7 20 -20 25 -58 22 -8 0 3 8 25 19 39 19
40 19 59 0 19 -19 19 -20 1 -40z m-600 0 c37 -17 103 -39 146 -50 73 -19 85
-19 166 -7 79 13 92 13 123 -2 67 -31 60 -47 -33 -82 -84 -32 -216 -32 -300 1
-72 27 -173 95 -205 138 l-25 32 31 0 c16 0 60 -14 97 -30z"/>
<path d="M5279 5684 c-29 -18 -59 -72 -59 -104 0 -40 42 -129 82 -174 87 -100
202 -121 269 -50 21 22 24 35 23 97 0 46 -6 83 -16 103 -22 41 -84 100 -128
121 -51 24 -138 28 -171 7z"/>
<path d="M4530 5634 c-45 -19 -116 -88 -143 -139 -25 -48 -29 -137 -7 -179 66
-128 259 -74 333 93 11 25 22 73 25 108 5 61 4 63 -31 98 -31 31 -40 35 -88
35 -30 -1 -70 -8 -89 -16z"/>
<path d="M5841 5456 c4 -4 2 -26 -3 -49 -5 -23 -12 -53 -14 -67 -3 -14 -18
-48 -34 -76 -16 -29 -27 -54 -24 -56 4 -5 -51 -58 -104 -100 -33 -27 -138 -67
-209 -80 -78 -14 -198 0 -323 37 -96 29 -167 32 -218 9 -21 -9 -50 -22 -67
-29 -16 -8 -39 -17 -50 -21 -12 -4 -15 -8 -8 -11 16 -6 126 26 134 39 10 16
102 12 138 -7 49 -25 220 -55 314 -55 150 0 292 54 385 147 72 71 95 127 99
230 1 56 -1 84 -10 89 -7 4 -9 4 -6 0z"/>
<path d="M6580 5838 c-87 -55 -154 -77 -264 -87 l-91 -8 100 -2 c103 -1 173
12 235 44 53 27 120 75 120 85 0 20 -37 8 -100 -32z"/>
<path d="M3110 5653 c0 -5 16 -21 35 -36 81 -64 242 -91 374 -63 80 17 124 40
49 25 -70 -13 -199 -10 -263 6 -33 9 -87 29 -119 45 -61 31 -76 35 -76 23z"/>
<path d="M5134 4389 c-17 -5 -89 -15 -160 -23 l-129 -14 94 -1 c87 -1 193 17
231 40 19 11 5 10 -36 -2z"/>
<path d="M2305 7113 c-4 -16 -9 -47 -12 -70 -4 -37 -3 -43 13 -43 40 0 47 14
39 79 -7 66 -27 82 -40 34z"/>
<path d="M7807 4843 c-12 -11 -7 -43 6 -43 7 0 22 7 33 15 16 13 17 16 4 25
-17 11 -34 13 -43 3z"/>
<path d="M8146 4707 c33 -28 44 -33 44 -19 0 8 -25 23 -65 41 -5 2 4 -8 21
-22z"/>
<path d="M8747 2089 c3 -11 12 -19 20 -19 8 0 27 -14 43 -32 36 -39 46 -33 21
13 -16 28 -24 34 -47 31 -20 -2 -25 0 -16 6 11 7 9 10 -6 14 -15 4 -18 1 -15
-13z"/>
<path d="M4431 3700 c-24 -5 -48 -7 -54 -3 -6 3 -7 1 -4 -4 4 -7 -11 -13 -38
-17 -134 -21 -282 -159 -334 -314 -27 -79 -27 -179 -1 -263 20 -67 82 -179
105 -192 8 -4 12 -14 8 -23 -8 -21 20 -48 102 -99 123 -76 290 -93 484 -49
164 37 220 68 318 176 50 56 67 82 83 136 43 139 16 318 -59 386 -31 28 -34
16 -15 -50 20 -67 23 -199 7 -229 -9 -16 -11 -2 -11 67 2 78 -1 92 -30 150
-114 228 -357 371 -561 328z m219 -64 c106 -39 215 -138 267 -244 26 -53 28
-66 28 -173 0 -113 -1 -116 -38 -191 -106 -216 -376 -306 -607 -202 -34 15
-70 40 -81 56 -12 16 -37 36 -57 46 -44 21 -116 124 -137 196 -19 62 -19 155
-1 222 57 215 252 335 506 312 41 -3 95 -14 120 -22z"/>
<path d="M4588 3587 c27 -29 28 -49 2 -65 -12 -7 -20 -23 -20 -40 0 -15 -11
-40 -25 -56 -31 -36 -31 -37 0 -64 30 -27 33 -62 5 -69 -11 -3 -20 -13 -20
-22 0 -67 -132 -135 -257 -133 l-63 1 0 -54 c0 -46 4 -59 31 -90 17 -19 37
-35 43 -35 7 0 27 -7 45 -16 18 -9 68 -18 114 -21 45 -2 87 -6 94 -8 16 -5 -6
-63 -27 -69 -35 -9 83 -5 129 5 65 14 120 55 176 131 155 213 91 479 -143 597
-34 17 -71 31 -83 31 l-22 0 21 -23z m-323 -467 c18 -8 17 -9 -7 -9 -16 -1
-28 -6 -28 -13 0 -6 -3 -9 -6 -5 -8 8 3 37 13 36 4 0 17 -4 28 -9z"/>
<path d="M4090 3043 c1 -12 60 -88 60 -77 0 11 -48 84 -55 84 -3 0 -5 -3 -5
-7z"/>
<path d="M3941 3443 c-46 -92 -57 -286 -21 -392 12 -36 28 -74 36 -85 14 -20
14 -20 14 -1 0 11 -12 54 -27 95 -37 106 -37 234 -1 340 15 41 25 77 23 78 -2
2 -13 -14 -24 -35z"/>
<path d="M3192 1788 c-7 -7 -12 -25 -12 -40 0 -31 -18 -52 -93 -106 -47 -34
-66 -69 -41 -79 17 -6 74 38 69 54 -4 12 49 63 66 63 17 0 9 -19 -17 -39 -32
-25 -19 -28 16 -5 41 27 50 45 50 95 0 51 -18 77 -38 57z"/>
</g>
</svg>
