<?xml version="1.0" standalone="no"?>
<!DOCTYPE svg PUBLIC "-//W3C//DTD SVG 20010904//EN"
 "http://www.w3.org/TR/2001/REC-SVG-20010904/DTD/svg10.dtd">
<svg version="1.0" xmlns="http://www.w3.org/2000/svg"
 width="1024.000000pt" height="1024.000000pt" viewBox="0 0 1024.000000 1024.000000"
 preserveAspectRatio="xMidYMid meet">
<metadata>
Created by potrace 1.16, written by Peter Selinger 2001-2019
</metadata>
<g transform="translate(0.000000,1024.000000) scale(0.100000,-0.100000)"
fill="currentColor" stroke="currentColor">
<path d="M2908 9753 c12 -2 32 -2 45 0 12 2 2 4 -23 4 -25 0 -35 -2 -22 -4z"/>
<path d="M3018 9753 c12 -2 32 -2 45 0 12 2 2 4 -23 4 -25 0 -35 -2 -22 -4z"/>
<path d="M3380 9689 c121 -55 213 -104 252 -136 26 -21 47 -41 48 -44 0 -3 18
-26 41 -50 50 -54 142 -240 169 -341 10 -40 19 -64 19 -54 2 42 -33 155 -74
241 -55 118 -117 200 -196 260 -66 50 -202 119 -254 129 -29 6 -29 6 -5 -5z"/>
<path d="M2448 9629 c-21 -11 -38 -22 -38 -24 0 -5 79 32 89 41 12 11 -18 1
-51 -17z"/>
<path d="M2975 9634 c-87 -13 -247 -49 -312 -70 -228 -74 -434 -210 -570 -374
-100 -120 -231 -431 -279 -660 -24 -114 -25 -375 -1 -475 23 -101 79 -268 119
-355 73 -157 242 -334 395 -413 170 -88 488 -174 681 -184 87 -5 102 -8 100
-22 -2 -9 -19 -24 -38 -34 -29 -15 -49 -17 -120 -12 -379 29 -672 115 -858
252 -20 15 -40 22 -51 18 -34 -10 -143 122 -205 250 -49 101 -104 260 -94 271
3 2 12 -23 21 -55 24 -86 57 -171 67 -171 10 0 0 43 -37 155 -16 50 -38 137
-47 195 -17 100 -38 208 -56 295 -24 109 12 360 80 552 22 65 46 136 51 158
36 144 258 413 460 557 89 64 113 84 64 54 -138 -85 -304 -239 -412 -381 -144
-191 -252 -491 -284 -789 -17 -169 2 -320 76 -582 51 -184 118 -328 194 -416
111 -129 268 -242 419 -300 150 -59 450 -108 673 -111 60 -1 109 -4 109 -7 0
-3 -11 -26 -24 -52 -13 -27 -20 -48 -17 -48 3 0 76 9 161 20 329 43 666 45
895 5 108 -19 370 -95 467 -137 39 -16 72 -27 75 -25 2 3 -11 10 -29 17 -27
10 -29 14 -13 17 26 5 86 21 150 41 28 8 105 42 172 74 111 54 260 107 251 90
-2 -4 -17 -33 -32 -66 l-29 -59 19 -44 c22 -53 87 -105 133 -107 16 -1 29 -3
28 -6 -1 -3 13 -26 31 -52 17 -26 32 -51 32 -56 0 -28 -66 -57 -180 -78 -99
-18 -166 -18 -237 2 -121 33 -233 47 -249 31 -3 -3 -17 -2 -30 3 -21 8 -24 7
-24 -14 0 -27 25 -53 35 -36 3 5 3 15 -1 22 -4 7 -3 8 4 4 15 -9 16 -46 1 -46
-6 0 -26 12 -45 27 -29 22 -33 28 -20 35 9 5 16 16 16 24 0 8 -4 13 -9 10 -5
-3 -55 -12 -112 -20 -203 -29 -764 -190 -886 -255 -10 -5 -65 -32 -123 -59
-58 -28 -152 -82 -210 -120 -58 -38 -118 -76 -135 -86 -16 -9 -41 -23 -55 -32
-14 -9 2 10 35 41 l60 57 -101 -71 c-56 -39 -105 -78 -108 -87 -13 -33 7 -33
62 3 31 20 92 59 134 86 l77 49 146 -138 c80 -76 145 -141 145 -145 0 -3 -18
-14 -39 -24 -22 -10 -50 -28 -62 -42 -23 -23 -23 -25 -7 -68 l17 -45 -64 -37
c-68 -39 -76 -51 -64 -95 4 -15 4 -30 1 -32 -4 -2 -51 -14 -106 -25 -184 -40
-274 -81 -309 -140 -24 -41 -31 -132 -18 -220 l12 -74 -30 -27 c-16 -15 -39
-46 -51 -69 -12 -24 -35 -50 -52 -59 -65 -36 -108 -73 -113 -97 -3 -14 -7 -36
-10 -50 -4 -19 -22 -32 -79 -59 -41 -18 -79 -43 -85 -54 -6 -11 -11 -43 -11
-70 0 -39 -8 -62 -35 -108 -46 -76 -60 -124 -60 -209 0 -74 19 -145 62 -230
34 -70 58 -92 138 -130 79 -38 100 -57 151 -134 27 -42 32 -56 22 -63 -30 -19
-152 -50 -288 -73 -345 -59 -607 -6 -880 178 -41 28 -65 37 -96 37 -38 0 -43
-3 -53 -31 -17 -50 6 -90 91 -152 166 -122 378 -230 528 -268 214 -56 616 -23
926 76 60 19 110 33 111 31 1 -1 16 -74 33 -161 17 -88 36 -182 44 -210 l13
-51 -76 -71 c-91 -84 -147 -177 -188 -308 -25 -84 -27 -102 -27 -270 0 -204
11 -257 86 -415 72 -149 244 -294 475 -398 130 -59 362 -109 456 -98 105 12
11 -39 -153 -84 -105 -28 -230 -24 -325 11 -51 18 -83 22 -215 23 -143 1 -159
-1 -202 -22 -31 -16 -51 -34 -63 -57 -9 -19 -22 -35 -29 -35 -31 0 -86 -92
-86 -145 0 -21 4 -25 31 -25 29 0 31 -2 25 -27 -15 -61 -19 -203 -6 -234 12
-28 14 -29 23 -12 30 57 57 87 99 108 l46 25 46 -21 c44 -19 46 -22 46 -62 0
-44 42 -147 59 -147 6 0 13 12 17 28 3 15 12 43 19 62 l13 35 78 -3 c111 -4
209 11 279 43 33 16 99 41 147 56 47 15 150 51 227 79 l141 52 36 -31 c53 -47
126 -80 223 -101 63 -14 97 -17 119 -10 41 11 47 0 26 -45 -18 -39 -77 -90
-93 -81 -5 3 -12 -1 -15 -10 -8 -20 -51 -15 -51 6 -1 35 -45 59 -45 25 0 -43
74 -70 121 -44 11 6 30 12 42 14 19 4 18 1 -10 -25 -64 -58 -147 -51 -172 13
-13 36 -13 39 10 63 19 21 30 25 58 20 31 -5 32 -4 15 9 -45 34 -121 6 -142
-53 -13 -37 5 -89 39 -115 33 -24 113 -26 157 -3 66 34 132 133 145 218 7 45
2 48 -93 72 -102 26 -184 92 -163 131 8 13 17 9 63 -26 68 -52 160 -94 223
-103 26 -4 47 -10 47 -13 0 -3 -11 -14 -25 -25 -32 -25 -33 -81 -4 -190 17
-62 28 -84 55 -107 62 -55 134 -51 173 9 9 14 11 21 3 16 -8 -5 -12 2 -13 26
l-1 33 -8 -28 c-13 -43 -29 -57 -65 -57 -40 0 -85 34 -85 63 l0 22 18 -21 c24
-31 60 -47 88 -40 19 5 24 13 24 37 0 19 -6 32 -17 36 -10 4 -22 13 -26 21 -6
9 -18 12 -35 8 -20 -5 -23 -4 -12 4 21 14 91 13 88 -1 -2 -6 5 -13 15 -14 25
-5 16 17 -14 32 -35 18 -69 16 -108 -8 -18 -11 -34 -19 -36 -17 -7 8 -25 48
-25 54 0 4 7 -1 15 -12 14 -18 14 -17 5 9 -5 16 -10 42 -10 59 0 25 3 29 17
23 86 -32 210 -31 289 4 93 42 145 111 143 193 l-1 43 -12 -58 c-19 -89 -73
-145 -149 -153 -18 -3 -40 -7 -49 -10 -38 -12 -37 9 1 36 21 16 52 45 67 66
28 36 29 43 33 161 2 70 -1 136 -7 153 -10 27 -9 30 11 30 12 0 46 -7 75 -14
29 -8 101 -20 161 -26 122 -14 236 -4 344 30 80 26 87 25 87 -6 0 -15 9 -41
20 -59 28 -45 62 -60 202 -90 22 -4 30 -14 38 -45 9 -34 8 -45 -11 -82 -12
-24 -48 -71 -80 -105 -61 -66 -86 -123 -74 -170 3 -14 12 -77 19 -141 13 -106
38 -192 57 -192 4 0 10 19 13 43 4 23 15 56 25 73 15 25 27 31 85 41 36 6 97
27 134 46 l68 34 60 -62 c37 -39 87 -78 136 -104 65 -36 78 -47 83 -74 9 -42
45 -127 54 -127 4 0 20 42 37 93 27 84 34 96 86 145 31 29 60 61 63 71 5 16
17 17 113 13 106 -4 107 -4 134 -35 15 -18 38 -51 50 -75 13 -25 29 -41 38
-40 21 4 32 73 25 151 -4 40 -1 89 6 121 13 58 7 112 -16 142 -12 16 -12 12 1
-25 18 -53 10 -141 -10 -107 -56 96 -128 116 -155 43 -6 -16 -11 -44 -11 -64
0 -36 0 -36 -37 -29 -21 3 -43 6 -48 6 -6 0 -17 16 -23 35 -15 39 -99 166
-119 178 -7 4 -13 16 -13 26 0 24 49 47 126 60 93 15 162 -5 241 -70 30 -25
29 -23 -5 10 -43 40 -132 81 -175 81 -12 0 -56 11 -99 26 -61 20 -86 35 -126
75 -48 48 -82 115 -82 161 0 12 20 27 66 48 83 37 243 143 311 204 l53 48 57
-35 c163 -98 361 -165 588 -198 219 -33 441 -8 710 78 231 74 456 237 635 459
102 127 191 315 227 479 48 222 13 621 -77 858 -28 76 -36 68 -10 -9 48 -138
90 -344 71 -344 -6 0 -11 4 -11 8 0 4 -15 6 -34 4 -30 -4 -34 -1 -45 30 l-11
33 21 -27 c40 -54 80 8 45 70 -7 13 -31 32 -54 42 l-42 19 -2 -47 c-1 -44 -2
-44 -5 -9 -2 20 -8 37 -13 37 -4 0 -6 8 -3 19 5 19 15 18 91 -4 26 -9 26 -7 8
42 -8 21 -20 57 -26 81 -10 40 -30 58 -30 28 0 -8 -9 -24 -20 -37 -21 -24 -21
-23 0 19 23 47 20 57 -24 93 -15 13 -26 15 -47 7 -19 -6 -34 -6 -46 1 -15 8
-10 10 24 11 41 0 43 1 54 42 9 37 8 46 -10 77 -12 20 -43 73 -69 118 -26 46
-49 83 -52 83 -3 0 -14 -13 -25 -29 -11 -17 -28 -32 -38 -35 -16 -4 -15 0 7
23 35 36 33 84 -1 89 -24 4 -32 22 -10 22 16 1 -32 40 -49 40 -8 0 -14 -1 -14
-2 0 -2 -7 -21 -15 -43 -9 -27 -14 -33 -15 -18 0 28 18 76 33 85 7 4 3 19 -15
45 -14 21 -42 68 -64 105 -34 61 -54 83 -54 60 0 -9 -53 -42 -67 -42 -4 0 7
12 25 26 17 14 32 32 32 40 0 7 -14 43 -32 78 l-31 64 -26 -16 -26 -16 21 21
c18 18 21 30 17 75 l-3 53 22 -65 c32 -90 100 -211 213 -375 164 -239 210
-308 249 -373 40 -66 58 -84 30 -29 -34 64 -112 185 -230 353 -146 208 -209
313 -241 405 -30 87 -41 169 -23 169 7 0 40 26 74 58 37 33 100 77 155 106
134 70 179 71 389 10 24 -7 24 -7 7 25 -9 18 -32 50 -51 71 -40 44 -43 41 64
61 38 7 110 10 182 7 66 -3 120 -2 120 2 0 16 -92 91 -137 112 -27 13 -49 23
-51 24 -2 1 17 28 42 59 46 55 97 146 110 195 4 14 -11 -12 -33 -57 -46 -92
-129 -189 -181 -211 -19 -8 -73 -16 -120 -17 -83 -2 -84 -2 -40 10 82 22 134
52 208 120 100 92 157 209 142 290 -7 39 -7 39 -18 15 -6 -14 -11 -18 -12 -10
0 10 -4 8 -13 -6 -72 -127 -154 -196 -247 -208 -27 -4 -52 -11 -55 -16 -3 -5
-26 -12 -51 -16 -25 -3 -50 -12 -57 -19 -27 -26 -59 -35 -127 -35 -59 0 -72 3
-76 18 -3 9 -10 25 -15 35 -7 13 -5 17 6 17 8 0 15 7 15 15 0 8 5 15 12 15 6
0 9 3 6 6 -4 3 -16 0 -28 -6 -21 -11 -21 -11 -4 14 16 26 15 25 -46 -9 -34
-19 -76 -47 -92 -60 -37 -31 -56 -32 -34 -3 83 115 88 125 82 174 -3 26 -9 50
-14 53 -4 3 -9 15 -9 26 -1 11 -2 29 -2 40 -2 35 2 55 11 55 5 0 7 4 4 9 -4 5
0 12 6 14 10 4 10 8 -1 15 -11 8 -11 10 0 15 10 4 9 6 -4 6 -9 1 -45 -10 -79
-24 -74 -30 -93 -32 -80 -8 20 36 164 112 249 132 29 7 51 17 48 21 -3 5 4 6
15 3 11 -3 28 -2 37 3 28 12 54 16 109 14 116 -2 197 45 293 173 24 31 49 57
57 57 10 0 12 9 8 33 -12 71 -26 123 -40 145 -8 12 -10 22 -5 22 16 0 80 -84
117 -152 34 -63 45 -73 22 -21 -23 53 -86 138 -137 187 -29 26 -54 46 -57 44
-2 -3 1 -19 7 -37 7 -19 10 -66 7 -110 -5 -93 -32 -152 -100 -221 -60 -61
-125 -86 -276 -106 -191 -25 -312 -74 -425 -173 l-37 -33 -1 68 c-1 70 -15
154 -18 106 -1 -32 -34 -90 -76 -137 l-37 -40 32 55 c17 30 45 84 62 120 25
55 31 62 38 45 6 -14 9 -15 9 -4 1 8 -5 23 -12 33 -13 17 -16 12 -41 -49 -15
-37 -47 -101 -71 -143 -25 -42 -57 -107 -71 -144 -14 -38 -29 -68 -34 -68 -4
0 -13 20 -20 45 -7 25 -17 48 -21 51 -5 3 -18 -16 -29 -41 -27 -62 -25 -71 4
-16 l23 44 16 -69 c22 -90 21 -122 -2 -69 -17 38 -18 39 -29 18 -26 -48 -34
-121 -22 -194 7 -39 10 -73 7 -75 -3 -3 -13 21 -22 53 -13 42 -16 80 -12 138
4 60 2 74 -5 55 -17 -41 -22 -262 -8 -332 16 -82 105 -256 170 -331 42 -49 54
-73 80 -160 62 -207 106 -295 300 -607 155 -249 243 -426 277 -562 24 -90 27
-122 26 -258 0 -220 -44 -413 -125 -557 -95 -169 -403 -385 -630 -442 -107
-27 -269 -44 -353 -36 -213 20 -428 123 -540 259 -37 45 -37 46 -29 103 8 52
12 59 42 74 19 8 37 20 40 25 4 5 21 18 37 28 25 16 28 16 16 3 -7 -9 -10 -17
-7 -17 12 0 70 32 103 56 28 21 31 27 23 54 -5 17 -8 54 -8 83 1 50 1 51 10
18 l9 -33 33 50 c18 28 40 68 49 89 38 91 65 171 72 213 l7 44 -38 -29 c-42
-31 -32 -11 18 37 32 30 39 78 11 78 -15 0 -15 1 0 18 25 27 21 31 -20 26
l-38 -4 40 13 40 13 3 94 c3 112 -26 310 -63 429 -22 67 -31 84 -52 92 -43 16
-147 27 -165 18 -17 -9 -68 -110 -68 -136 0 -8 -6 -13 -12 -10 -7 2 -28 -9
-46 -24 -55 -48 -79 -49 -124 -1 -23 25 -38 51 -38 67 0 14 2 25 5 25 2 0 16
-20 30 -44 35 -60 48 -70 75 -56 21 11 21 12 -14 51 -25 27 -36 49 -36 70 0
18 -10 43 -24 60 l-24 28 -12 -30 c-15 -35 -19 -112 -8 -149 6 -20 4 -26 -10
-27 -14 -1 -17 8 -17 54 0 47 -4 58 -24 72 -58 40 -81 69 -81 105 0 35 21 66
45 66 7 0 25 20 40 46 14 25 37 50 51 56 13 6 24 20 24 31 0 17 -5 19 -42 13
-24 -4 -49 -14 -55 -23 -15 -20 -26 -13 -17 10 6 16 61 37 95 37 9 0 22 7 29
15 12 14 40 21 40 10 0 -2 -6 -22 -14 -42 -32 -87 -40 -125 -30 -140 18 -29
29 -18 32 30 4 67 22 59 22 -10 0 -82 8 -103 36 -103 21 0 24 5 24 39 0 21 3
52 6 68 5 27 3 31 -25 36 -26 6 -31 11 -31 35 0 46 34 79 103 101 33 10 63 23
65 29 6 18 -59 81 -166 162 -107 80 -382 230 -423 230 l-21 0 21 -32 c11 -18
25 -34 32 -37 7 -2 9 1 5 8 -4 6 9 2 29 -10 41 -25 55 -47 54 -86 -1 -38 -23
-96 -38 -101 -10 -3 -10 0 -3 14 28 53 22 144 -9 144 -11 0 -8 -38 6 -90 6
-24 6 -24 -9 -6 -9 11 -16 27 -16 36 0 46 -140 217 -200 243 -8 4 -45 26 -81
50 l-67 43 24 27 c13 16 24 38 23 50 0 15 -2 17 -6 7 -4 -8 -18 -27 -33 -43
-22 -24 -30 -26 -50 -18 -17 7 -20 10 -8 10 29 1 51 46 45 92 -8 61 -21 68
-57 34 -29 -27 -30 -28 -30 -7 0 14 11 27 30 37 37 19 38 25 4 25 -15 0 -38
-12 -56 -31 -24 -24 -33 -28 -40 -17 -7 9 -8 7 -3 -7 3 -11 8 -39 10 -61 5
-61 40 -121 91 -157 l46 -32 -41 -3 c-44 -3 -58 -22 -16 -22 17 0 23 -4 19
-15 -11 -27 -66 -5 -116 45 l-47 48 16 51 c16 48 16 52 -2 64 -17 13 -17 14 3
19 17 5 20 12 18 42 -3 35 -20 66 -37 66 -13 0 -40 -31 -34 -40 3 -5 1 -11 -5
-15 -6 -3 -10 4 -10 16 0 22 -1 22 -13 4 -13 -17 -14 -15 -21 16 -7 33 -8 33
-17 10 -6 -16 -15 -22 -28 -18 -11 2 -33 -4 -50 -14 -40 -24 -40 -24 -52 11
-15 41 -44 41 -35 0 21 -101 21 -96 3 -82 -20 17 -37 8 -32 -18 2 -11 0 -20
-5 -20 -5 0 -16 -7 -25 -16 -12 -13 -14 -28 -9 -73 6 -59 -13 -131 -35 -131
-14 0 -14 4 1 52 10 34 9 40 -7 52 -12 8 -16 20 -13 34 4 13 -1 31 -13 46
l-19 24 37 9 c47 11 75 49 81 112 l4 50 113 35 c62 20 123 36 134 36 13 0 41
-20 68 -47 25 -27 41 -38 35 -26 -19 35 -84 83 -114 83 -15 0 -51 -9 -80 -19
-29 -11 -75 -25 -101 -32 -56 -14 -77 -39 -77 -92 0 -51 -30 -80 -106 -102
-78 -23 -111 -48 -125 -96 -7 -21 -16 -39 -21 -39 -21 0 -131 97 -190 167
-104 124 -102 122 -109 194 -4 42 -17 89 -36 131 -31 66 -142 229 -195 285
l-30 31 30 30 c24 24 44 31 106 41 42 6 95 11 117 11 104 0 456 52 549 81 120
38 335 142 416 202 l61 44 105 -46 c57 -26 156 -76 218 -112 137 -77 130 -74
130 -57 0 33 -196 231 -307 311 -45 32 -52 51 -29 82 13 18 18 16 87 -47 41
-36 148 -140 239 -232 90 -91 169 -165 175 -163 16 6 12 42 -5 42 -8 0 -24 10
-35 23 -147 172 -347 361 -425 402 -15 8 -59 34 -98 58 -146 87 -432 220 -514
237 -16 3 -28 12 -28 21 0 13 8 15 43 9 80 -14 334 -123 482 -208 95 -55 94
-56 102 79 5 71 9 94 20 94 7 0 16 -7 20 -16 5 -14 -9 -119 -24 -173 -4 -15
-2 -22 4 -18 5 3 30 7 56 8 26 2 47 6 47 11 0 4 -18 18 -40 30 -42 24 -52 47
-22 49 10 0 12 3 5 6 -8 2 -13 22 -13 45 l0 40 38 -6 c38 -7 285 -125 357
-172 42 -27 39 -26 -65 12 -75 28 -70 27 -70 15 0 -5 44 -26 98 -47 107 -41
240 -104 283 -134 15 -11 30 -20 33 -20 15 0 200 -162 313 -274 100 -98 125
-118 135 -107 9 8 9 11 1 9 -6 -2 -69 53 -140 122 -170 165 -214 202 -367 305
-199 133 -445 264 -582 309 -99 33 -298 79 -429 100 -226 36 -219 36 -232 18
-21 -26 -15 -35 17 -30 24 4 30 1 25 -9 -3 -8 -5 -17 -5 -19 0 -2 -20 -4 -45
-4 -31 0 -55 -8 -81 -25 -42 -28 -107 -35 -98 -10 4 8 10 12 15 9 6 -3 27 -3
48 1 31 5 37 10 36 28 -1 17 -9 23 -31 25 -60 6 -179 34 -210 48 -39 19 -65
47 -93 99 -48 90 -13 120 135 116 64 -2 75 1 102 24 31 26 52 78 51 125 0 16
-5 8 -13 -23 -7 -27 -21 -56 -31 -65 -10 -9 -15 -12 -11 -6 3 7 12 42 20 78
14 66 8 88 -17 67 -8 -6 -18 -6 -27 -1 -8 6 -47 10 -86 10 -66 0 -77 3 -124
35 -29 19 -56 35 -61 35 -5 0 -9 4 -9 10 0 5 -30 9 -67 9 -68 -1 -115 11 -127
30 -4 6 -13 8 -21 4 -8 -3 -15 0 -15 7 0 6 5 8 10 5 6 -3 10 5 10 19 0 43 47
60 168 60 57 1 93 4 80 8 -13 3 -67 6 -120 7 -82 1 -96 3 -92 16 4 10 0 15
-12 15 -16 0 -17 2 -4 11 11 8 -13 9 -85 6 -82 -5 -91 -4 -50 4 61 12 208 4
290 -16 74 -17 169 -56 196 -79 11 -9 38 -24 60 -32 22 -9 53 -33 69 -52 17
-20 30 -32 30 -26 0 5 -5 15 -12 22 -19 19 -6 21 41 5 24 -8 52 -13 62 -10 13
4 16 0 12 -12 -10 -28 -46 -62 -61 -56 -8 3 -12 0 -9 -7 5 -14 31 -13 64 4 28
14 68 90 82 156 22 107 9 204 -36 275 -15 23 -27 45 -26 48 1 4 -3 6 -10 6
-42 -1 -60 4 -51 13 14 14 91 2 110 -17 8 -8 14 -21 14 -29 0 -8 7 -14 15 -14
19 0 43 -38 61 -97 48 -154 -24 -362 -134 -393 -48 -13 -48 -13 -68 8 -17 16
-18 16 -10 -3 5 -11 12 -33 16 -50 4 -16 19 -56 34 -89 14 -32 26 -70 26 -84
0 -24 2 -24 48 -18 26 4 90 9 142 12 110 6 140 11 140 23 0 4 -16 25 -35 45
-31 33 -33 39 -20 52 9 9 20 12 27 7 7 -4 29 -13 48 -19 22 -6 34 -16 32 -25
-2 -7 -4 -22 -5 -31 -1 -10 -7 -18 -14 -18 -20 0 -15 -19 5 -19 9 0 52 -3 95
-7 42 -4 77 -4 77 0 0 30 -118 168 -180 211 -23 16 -51 47 -62 68 -19 38 -19
46 -8 216 11 153 11 192 -4 299 -21 158 -21 158 1 141 15 -13 16 -11 9 16 -5
20 -4 27 3 20 32 -31 38 -343 11 -512 -6 -32 -10 -80 -10 -106 0 -49 1 -49
113 -165 61 -65 123 -133 136 -153 l24 -35 111 -12 c61 -7 146 -17 189 -24 53
-8 80 -9 85 -2 4 6 58 18 120 27 85 13 129 25 180 51 102 51 136 85 42 41
-126 -58 -184 -69 -345 -61 -202 9 -362 46 -418 96 -25 23 -29 31 -20 41 10
10 31 8 102 -10 307 -75 446 -70 631 24 221 113 486 468 549 736 29 120 61
392 61 510 0 115 -29 270 -84 448 -19 63 -32 119 -29 124 3 6 2 7 -4 4 -5 -3
-27 15 -48 40 -37 44 -163 135 -208 149 -21 7 -21 7 3 16 24 9 25 10 5 24 -32
24 -85 34 -175 34 -149 0 -318 -61 -339 -122 -14 -39 -14 -41 1 -32 7 4 8 3 4
-5 -4 -7 -13 -10 -19 -8 -10 3 -47 -27 -47 -39 0 -3 7 -3 16 0 14 5 15 4 4 -9
-7 -8 -16 -12 -21 -9 -5 3 -8 2 -7 -3 4 -10 -27 -54 -34 -48 -2 3 -5 -1 -5 -8
0 -6 -26 -54 -57 -106 -31 -52 -58 -103 -62 -113 -3 -10 -10 -16 -15 -13 -5 3
-6 -1 -3 -9 4 -10 1 -16 -9 -16 -9 0 -17 8 -19 18 -3 12 -17 -3 -45 -48 -23
-36 -46 -70 -51 -76 -5 -5 -26 -32 -46 -60 -48 -62 -105 -124 -116 -124 -12 0
3 47 28 92 11 20 41 108 67 197 64 224 153 437 211 504 11 12 21 27 24 32 2 6
22 25 45 44 22 18 42 37 45 42 7 10 78 51 140 80 39 18 58 20 135 16 51 -3 77
-1 60 3 -65 17 -172 11 -238 -13 -187 -68 -292 -182 -458 -494 -30 -57 -57
-103 -60 -103 -4 0 -12 21 -18 46 -13 50 -58 104 -88 104 -59 0 -126 -95 -157
-225 -8 -33 -19 -78 -24 -100 -9 -40 -11 -39 -27 10 -2 8 -15 15 -27 14 -13 0
-17 -3 -10 -6 21 -8 14 -28 -19 -52 -33 -25 -50 -23 -24 2 8 9 15 28 14 44 0
27 -1 27 -9 6 -10 -24 -30 -23 -62 4 -9 8 -21 12 -26 9 -4 -3 -16 4 -25 15
-13 15 -15 24 -7 39 15 28 12 37 -4 14 -16 -21 -32 -14 -22 11 9 23 49 15 61
-12 5 -13 17 -23 26 -23 14 0 12 6 -9 30 -15 17 -36 30 -48 30 -12 0 -26 10
-32 23 -10 21 -11 20 -11 -10 -1 -26 -5 -33 -21 -33 -11 0 -25 9 -32 20 -7 11
-20 20 -28 20 -9 0 -25 7 -36 15 -10 8 -30 15 -44 16 -21 1 -20 2 8 9 40 9 46
15 61 59 18 56 14 96 -16 132 l-27 32 -75 -6 c-78 -6 -205 -41 -180 -49 7 -2
43 6 79 19 38 13 89 23 122 23 51 0 60 -3 74 -25 20 -31 22 -91 3 -131 -12
-25 -20 -29 -64 -33 -40 -2 -46 -5 -30 -12 21 -10 20 -10 -66 8 -22 4 -29 2
-29 -11 0 -9 -7 -16 -16 -16 -8 0 -12 -5 -9 -10 8 -14 -21 -24 -42 -15 -12 5
-14 9 -5 12 30 11 9 33 -45 48 -32 9 -65 19 -73 21 -8 3 -64 15 -125 27 -92
18 -146 22 -335 23 -259 0 -270 1 -270 13 0 5 39 14 88 21 121 16 125 18 61
19 -72 1 -127 24 -139 57 -15 38 -13 44 18 44 l27 1 -25 14 c-14 8 -34 14 -45
15 -18 0 -18 1 -3 16 26 26 79 10 167 -50 74 -50 79 -53 93 -36 12 13 39 19
119 25 151 11 210 7 327 -20 58 -14 107 -23 109 -21 2 2 0 19 -6 37 -7 26 -9
28 -10 12 -1 -29 -9 -29 -44 0 l-28 22 45 60 c36 47 96 174 96 201 0 2 -11 4
-24 4 -13 0 -68 11 -122 26 -55 14 -151 29 -214 34 -115 8 -209 33 -218 58 -2
8 10 12 42 12 55 0 68 16 34 44 -14 12 -28 35 -31 51 l-6 30 11 -27 c8 -17 25
-32 52 -42 54 -19 171 -36 238 -34 l53 2 -47 3 c-37 3 -48 8 -49 21 0 10 -3
12 -6 5 -9 -23 -23 -14 -24 15 -1 20 -2 22 -6 7 -8 -33 -19 -37 -56 -22 -66
28 -70 70 -20 197 14 36 32 78 41 95 14 28 16 28 23 10 6 -16 8 -16 8 -3 1 9
7 18 14 21 8 3 5 7 -7 13 -16 6 -37 -10 -114 -92 -94 -98 -122 -141 -122 -187
0 -19 -7 -26 -30 -31 -36 -7 -120 -62 -121 -79 -4 -42 6 -94 32 -179 36 -119
38 -195 4 -236 -1 -1 -30 14 -63 34 -81 48 -129 54 -166 22 -30 -26 -38 -77
-17 -116 16 -30 14 -42 -7 -42 -24 0 -42 19 -35 36 8 22 -50 17 -77 -6 -14
-13 -37 -20 -62 -20 -21 0 -38 -4 -38 -10 0 -5 -13 -10 -28 -10 -35 0 -50 -12
-92 -73 l-34 -48 -23 23 -22 23 16 140 c13 113 13 148 4 184 -24 84 -87 119
-152 84 l-37 -20 -10 41 -11 41 5 -50 c12 -117 74 -263 179 -418 34 -52 66
-103 69 -114 6 -20 -16 -78 -26 -68 -9 10 -88 12 -88 3 0 -5 -10 -4 -22 3 -18
10 -20 9 -15 -4 4 -11 2 -14 -9 -10 -22 8 -17 -12 12 -46 14 -17 28 -49 31
-71 6 -39 5 -40 -18 -32 -32 12 -96 105 -175 254 -68 128 -82 172 -135 403
-35 153 -133 448 -174 523 -66 121 -253 262 -405 305 -63 18 -142 27 -185 21z
m2064 -271 c-8 -10 -32 -38 -53 -62 -21 -24 -44 -57 -52 -75 -7 -17 -13 -24
-14 -16 0 8 8 27 18 41 23 35 104 129 110 129 3 0 -1 -8 -9 -17z m-2658 -96
c9 -7 18 -18 21 -26 3 -12 9 -10 26 7 19 19 27 21 79 13 l58 -9 -48 -1 c-30
-1 -46 -5 -42 -11 4 -6 43 -10 93 -9 48 1 103 -2 122 -7 34 -7 34 -8 10 -15
-23 -6 -22 -7 8 -8 18 -1 42 -6 53 -12 12 -6 41 -13 66 -15 88 -9 81 -25 -19
-50 -40 -9 -80 -25 -90 -34 -26 -24 -14 -48 20 -43 27 4 27 4 -6 -17 -18 -13
-31 -25 -28 -27 3 -3 78 -6 168 -8 165 -2 213 -9 201 -28 -4 -6 4 -8 23 -4 16
3 23 4 17 1 -18 -8 -16 -24 3 -24 10 0 14 -6 10 -15 -3 -8 -1 -15 5 -15 6 0 8
-4 4 -9 -3 -5 5 -13 17 -16 11 -4 32 -18 45 -31 13 -13 28 -24 32 -24 5 0 14
-13 20 -30 5 -16 15 -30 20 -30 6 0 11 -6 11 -13 0 -8 11 -24 25 -37 14 -13
25 -30 25 -37 0 -8 7 -16 15 -19 8 -4 20 -26 27 -51 6 -25 17 -47 24 -50 8 -3
11 -10 7 -16 -4 -6 2 -8 18 -4 22 5 22 5 6 -7 -15 -12 -16 -14 -2 -20 8 -3 15
0 15 6 0 7 6 6 16 -3 8 -7 13 -21 11 -31 -4 -15 -1 -18 15 -12 15 4 18 3 13
-7 -6 -9 -4 -11 8 -6 11 4 14 2 11 -7 -3 -8 4 -16 17 -19 13 -4 20 -9 17 -13
-4 -3 -31 8 -59 26 -61 37 -217 80 -294 80 -36 0 -60 -6 -75 -18 l-22 -18 37
-39 c45 -49 67 -89 59 -109 -6 -17 12 -56 35 -73 11 -8 -3 -7 -44 3 -33 8
-106 17 -162 21 -111 7 -153 -3 -272 -64 -60 -31 -73 -48 -42 -58 30 -9 26
-40 -12 -110 -27 -49 -42 -65 -83 -85 -117 -59 -142 -96 -79 -119 63 -22 85
-99 61 -205 -15 -62 -15 -75 -1 -129 9 -33 25 -76 37 -96 26 -44 119 -161 128
-161 3 0 35 -28 70 -61 l65 -62 -65 7 c-100 11 -364 82 -447 121 -131 60 -232
145 -347 288 -86 108 -153 269 -197 477 -33 151 -32 368 0 495 35 134 77 246
140 375 54 109 137 238 154 239 5 1 5 -3 2 -9 -3 -5 -4 -10 -2 -10 3 0 14 16
26 36 12 19 26 32 31 29 6 -4 9 -2 8 3 -9 30 94 71 104 42 2 -5 13 -7 26 -3
17 4 22 11 19 24 -6 22 10 24 34 6z m2402 -197 c-4 -14 5 -35 28 -63 37 -46
35 -26 26 -227 -1 -25 1 -57 6 -72 5 -20 4 -28 -5 -28 -15 0 -17 130 -4 192
11 50 3 76 -39 129 -38 48 -41 59 -23 77 16 16 17 15 11 -8z m-1571 -174 c7 4
8 2 4 -4 -12 -19 -36 -15 -29 5 4 11 8 13 11 5 2 -7 9 -9 14 -6z m2165 -23
c-15 -16 -17 -16 -17 -1 0 9 6 18 13 21 20 7 22 -2 4 -20z m-1277 -23 c26 -26
34 -61 25 -108 -4 -20 -7 -83 -6 -139 1 -57 -1 -103 -3 -103 -13 0 -25 45 -41
155 -10 66 -24 137 -31 159 -8 21 -14 42 -14 47 0 17 50 9 70 -11z m880 -17
c35 -40 82 -132 74 -145 -6 -9 -36 -11 -57 -2 -11 4 -12 14 -7 44 7 40 3 50
-46 118 -27 36 1 25 36 -15z m331 -2 c-41 -32 -81 -53 -81 -43 0 12 71 61 90
61 10 0 7 -6 -9 -18z m-93 -65 c20 -24 48 -103 39 -112 -2 -3 -36 3 -75 13
-67 16 -70 18 -60 37 17 31 59 86 67 86 4 0 17 -11 29 -24z m-854 -248 c3 -13
1 -27 -4 -32 -13 -13 -40 11 -40 35 0 27 36 24 44 -3z m1940 -11 c13 -13 29
-47 36 -75 l12 -52 -50 -45 c-28 -25 -64 -70 -82 -101 -17 -31 -34 -54 -36
-51 -3 3 2 29 10 58 8 30 18 92 21 139 12 139 38 178 89 127z m-1674 -47 c12
-7 12 -12 0 -34 -16 -31 -22 -32 -44 -7 -30 34 4 67 44 41z m500 -5 c19 -23 4
-45 -29 -45 -30 0 -45 19 -35 45 8 19 48 19 64 0z m-330 -6 c11 -8 12 -12 3
-16 -7 -2 -13 -13 -13 -23 0 -11 -9 -24 -19 -30 -26 -14 -29 -13 -41 10 -8 16
-7 26 7 45 19 26 39 31 63 14z m-418 -32 c25 -39 -9 -67 -56 -46 -27 12 -31
24 -20 54 5 13 14 15 37 11 17 -4 35 -12 39 -19z m148 4 c0 -22 -21 -33 -40
-21 -18 11 -4 40 20 40 13 0 20 -7 20 -19z m158 -9 c2 -14 -2 -22 -11 -22 -19
0 -40 26 -32 40 11 18 40 6 43 -18z m236 12 c8 -20 -1 -34 -20 -34 -8 0 -14
-6 -14 -12 0 -7 -7 -2 -16 10 -9 13 -13 29 -10 37 7 20 52 19 60 -1z m373 1
c3 -9 -3 -25 -13 -36 l-19 -21 -17 23 c-14 16 -16 25 -7 35 15 19 48 18 56 -1z
m51 -2 c-3 -15 16 -48 34 -61 19 -14 25 -57 8 -67 -5 -3 -10 -1 -10 4 0 6 -9
11 -21 11 -18 0 -20 4 -15 25 5 20 3 25 -14 25 -21 0 -29 33 -10 45 6 4 8 11
5 16 -4 5 1 9 9 9 9 0 15 -3 14 -7z m-338 -27 c0 -7 -9 -25 -21 -40 -17 -21
-24 -24 -35 -15 -18 15 -18 34 2 53 19 20 54 21 54 2z m208 -21 c7 -14 17 -22
24 -20 8 3 22 -1 33 -9 20 -15 20 -15 -1 -37 l-22 -21 -11 21 c-7 11 -20 21
-30 21 -21 0 -31 19 -31 56 0 29 23 23 38 -11z m-68 -2 c25 -32 22 -44 -14
-56 -39 -13 -76 5 -76 37 0 48 57 60 90 19z m-300 -16 c0 -24 -13 -57 -21 -57
-14 0 -30 50 -24 71 5 15 10 17 26 9 10 -6 19 -16 19 -23z m580 22 c0 -11 -27
-29 -33 -22 -14 14 -6 32 13 30 11 -1 20 -4 20 -8z m-970 -38 c0 -10 -7 -24
-15 -31 -21 -17 -39 1 -30 29 8 27 45 28 45 2z m105 0 c0 -8 -8 -19 -17 -25
-22 -13 -44 5 -34 29 7 20 51 16 51 -4z m326 -34 c-8 -8 -11 -4 -11 14 0 33
14 47 18 19 2 -12 -1 -27 -7 -33z m661 36 c10 -9 18 -30 18 -49 0 -27 -5 -35
-24 -40 -47 -11 -95 41 -81 87 8 24 61 26 87 2z m-824 -41 c13 -17 17 -53 5
-50 -5 1 -19 -2 -32 -6 -18 -6 -21 -10 -10 -17 11 -7 9 -9 -8 -9 -35 0 -54 11
-64 38 -14 37 23 75 66 66 16 -3 36 -13 43 -22z m1028 2 c18 -12 23 -22 18
-38 -4 -11 -8 -23 -10 -25 -5 -5 -64 59 -64 70 0 14 28 10 56 -7z m-118 -17
c3 -14 -1 -18 -20 -15 -12 2 -24 11 -26 21 -3 14 1 18 20 15 12 -2 24 -11 26
-21z m1680 8 c36 -3 134 -36 142 -47 3 -4 19 -7 35 -7 32 1 159 -24 188 -36
10 -4 16 -14 13 -21 -3 -8 -2 -14 3 -14 16 0 43 -186 43 -293 -1 -59 -4 -112
-8 -118 -3 -6 -7 -52 -9 -102 -4 -166 -59 -333 -162 -495 -175 -275 -394 -451
-602 -483 -89 -13 -147 -7 -263 28 l-86 26 76 37 c105 51 247 178 286 255 31
60 58 92 121 141 l39 31 -32 32 c-58 58 -62 69 -62 162 0 48 -5 110 -12 138
-6 28 -9 53 -6 57 3 3 20 6 37 6 17 1 31 4 31 7 0 10 -147 73 -247 107 l-93
31 31 44 c17 24 52 63 78 86 43 40 45 44 28 57 -29 23 -152 39 -235 32 -59 -6
-74 -4 -70 6 3 7 13 37 22 66 10 28 22 50 27 47 5 -4 6 1 3 9 -4 10 -1 16 8
16 15 0 48 30 45 40 -3 10 28 45 42 48 8 2 25 12 39 23 14 10 30 19 38 19 7 0
14 5 16 12 2 6 19 11 38 10 21 0 29 2 21 7 -8 5 5 12 36 20 26 7 57 17 68 22
18 8 241 4 333 -6z m-2347 -16 c6 -12 7 -25 2 -30 -13 -13 -53 2 -53 20 0 36
33 43 51 10z m-1788 -20 c84 -13 132 -26 165 -45 88 -51 177 -112 203 -140 37
-41 102 -139 134 -204 15 -30 43 -71 61 -91 39 -40 38 -69 -2 -69 -45 0 -93
28 -156 92 -37 36 -82 71 -108 81 -138 57 -125 46 -209 178 -26 41 -65 89 -85
106 -53 43 -163 95 -216 101 -34 4 -40 7 -25 12 25 9 85 4 238 -21z m1127 23
c0 -5 -6 -16 -13 -26 -16 -21 -47 -12 -47 15 0 14 7 19 30 19 17 0 30 -4 30
-8z m220 -24 c0 -17 -28 -38 -49 -38 -16 0 -21 6 -21 24 0 13 5 26 12 28 19 7
58 -3 58 -14z m1304 16 c20 -8 21 -38 1 -54 -19 -15 -35 -5 -35 24 0 33 8 40
34 30z m-1416 -37 c4 -20 -20 -47 -42 -47 -19 0 -22 40 -4 58 17 17 42 11 46
-11z m855 9 c7 -17 -19 -56 -37 -56 -15 0 -39 47 -31 61 9 14 62 11 68 -5z
m457 -30 c0 -30 -24 -40 -45 -20 -18 18 -19 36 -3 52 17 17 48 -4 48 -32z
m-80 -21 c0 -25 -25 -35 -48 -19 -27 18 -28 32 -4 55 16 17 18 17 35 -3 9 -11
17 -26 17 -33z m-800 30 c16 -20 6 -45 -19 -45 -15 0 -19 7 -19 30 1 32 18 39
38 15z m511 -12 c6 -17 3 -25 -15 -37 -22 -14 -24 -13 -36 9 -7 13 -10 31 -6
40 8 23 47 15 57 -12z m-2501 7 c-12 -8 -12 -10 -1 -10 8 0 11 -3 7 -7 -4 -5
-9 -6 -11 -3 -2 3 -13 -7 -24 -22 -12 -15 -30 -30 -41 -33 -11 -4 -17 -11 -14
-17 4 -7 2 -8 -4 -4 -7 4 -12 13 -12 21 0 7 -12 23 -26 34 l-26 20 29 6 c15 3
42 10 58 14 17 5 41 9 55 10 20 1 22 -1 10 -9z m3763 -12 c-6 -7 -25 -49 -43
-93 -53 -134 -109 -223 -204 -322 -22 -24 -44 -43 -49 -43 -6 0 11 22 35 48
53 56 81 100 141 215 65 123 120 217 125 212 3 -3 0 -10 -5 -17z m-1508 -9 c5
-6 5 -13 -2 -20 -7 -7 -21 -3 -47 15 l-37 25 38 -6 c21 -3 42 -10 48 -14z
m745 -14 c14 -17 6 -45 -13 -45 -8 0 -22 9 -31 19 -17 18 -17 20 1 30 24 14
28 14 43 -4z m-1503 -49 c18 -9 51 -16 75 -17 l43 -1 -33 -11 c-23 -7 -48 -7
-87 2 -58 13 -79 29 -69 55 6 15 9 15 23 3 9 -8 30 -22 48 -31z m708 19 c0
-11 -8 -21 -17 -23 -14 -3 -18 3 -18 23 0 20 4 26 18 23 9 -2 17 -12 17 -23z
m513 -8 c2 -12 -3 -17 -17 -17 -12 0 -21 6 -21 13 0 31 32 34 38 4z m477 17
c8 -4 23 -20 31 -36 12 -24 13 -31 2 -42 -11 -11 -20 -7 -52 20 -51 44 -39 80
19 58z m-1422 -25 c14 -22 2 -49 -22 -49 -22 0 -26 4 -34 41 -6 23 -4 26 20
25 14 -1 30 -8 36 -17z m597 -6 c14 -7 31 -13 38 -13 22 0 12 -36 -20 -73 -27
-29 -36 -34 -50 -26 -18 10 -22 1 -20 -40 1 -27 -25 12 -42 63 -21 65 -20 81
6 98 23 16 45 13 88 -9z m-435 1 c9 -9 14 -23 10 -32 -5 -13 5 -14 72 -6 109
11 191 10 205 -4 10 -10 5 -11 -20 -6 -21 4 -65 -2 -121 -16 l-90 -23 -50 24
c-29 13 -51 30 -51 39 0 9 -5 21 -12 28 -9 9 -6 12 14 12 15 0 34 -7 43 -16z
m963 -1 c2 -7 -4 -16 -12 -19 -19 -7 -49 14 -40 28 8 13 46 6 52 -9z m215 -42
c31 -53 -7 -106 -59 -83 -20 10 -24 19 -24 56 0 41 2 45 28 49 15 2 29 5 32 6
3 0 13 -12 23 -28z m-475 4 c68 -6 152 -87 152 -148 0 -41 -24 -80 -58 -94
-32 -13 -34 -16 -18 -25 20 -11 85 -13 116 -3 29 9 25 49 -10 112 -16 29 -30
55 -30 58 0 9 77 -80 89 -102 19 -38 13 -69 -20 -97 -17 -14 -42 -26 -56 -26
-20 0 -24 -4 -18 -17 33 -81 29 -132 -12 -175 -30 -32 -92 -39 -113 -13 -11
13 -7 15 28 15 32 0 45 6 61 26 26 34 27 69 1 127 -32 73 -68 90 -137 65 -40
-15 -46 -48 -9 -48 42 0 73 -17 95 -53 28 -46 27 -51 -14 -83 -29 -22 -41 -25
-71 -19 -23 4 -38 13 -41 25 -3 10 -12 21 -20 24 -12 5 -14 1 -8 -16 4 -13 9
-35 12 -50 3 -16 13 -28 26 -32 51 -13 -40 -47 -103 -38 -20 3 -47 19 -71 43
-22 22 -57 46 -79 55 -22 9 -54 32 -71 52 -29 33 -31 39 -26 89 3 30 10 60 16
67 8 9 -1 15 -34 24 -34 9 -52 22 -75 53 -33 47 -37 73 -16 124 19 45 38 47
25 3 -14 -52 -11 -74 17 -107 21 -25 33 -31 66 -31 21 0 49 5 61 12 21 11 21
12 -13 23 -18 6 -43 23 -54 38 -17 24 -18 29 -6 54 l14 28 5 -35 c8 -47 56
-72 122 -65 44 5 48 3 73 -30 43 -56 79 -70 145 -55 106 24 151 41 162 61 12
22 15 19 -67 78 -41 30 -41 30 -37 6 4 -20 0 -25 -33 -34 -22 -6 -44 -11 -50
-11 -7 0 -14 -7 -18 -15 -8 -21 -21 -19 -23 5 -1 10 -12 32 -24 49 -25 34 -21
69 12 102 16 16 28 19 57 14 20 -3 56 -8 80 -10z m312 2 c0 -21 -12 -28 -27
-16 -19 16 -16 29 7 29 11 0 20 -6 20 -13z m-120 -104 c0 -13 -19 2 -31 25
-23 46 -22 48 5 13 14 -19 26 -36 26 -38z m79 58 c16 -9 30 -81 14 -81 -14 0
-53 44 -53 60 0 29 12 35 39 21z m331 -86 c0 -8 -4 -15 -10 -15 -5 0 -10 7
-10 15 0 8 5 15 10 15 6 0 10 -7 10 -15z m-3494 -27 c-1 -24 4 -25 58 -15 l29
6 -6 -57 c-3 -31 -3 -51 0 -44 9 23 23 12 19 -15 -2 -16 -1 -20 1 -10 2 9 8
17 12 17 3 0 7 -8 8 -17 8 -84 22 -173 29 -184 12 -20 13 -109 2 -109 -6 0 -5
-6 2 -15 7 -8 9 -23 4 -37 -6 -21 -5 -22 12 -8 10 8 16 10 12 6 -4 -5 -2 -16
5 -25 10 -14 10 -14 -4 -4 -22 17 -33 3 -11 -14 15 -13 15 -13 -6 -3 -13 6
-26 19 -29 28 -4 9 -14 22 -23 29 -10 7 -28 36 -41 65 -20 44 -24 70 -25 153
-1 144 0 141 -44 189 -41 44 -50 70 -27 79 21 9 24 8 23 -15z m3324 -28 c0
-29 -30 -38 -46 -15 -21 28 -17 35 16 35 23 0 30 -4 30 -20z m158 3 c43 -7 41
-26 -2 -21 -25 3 -37 -1 -45 -14 -17 -27 -26 -22 -29 18 -2 34 0 36 20 29 13
-4 38 -9 56 -12z m727 -211 c39 -11 97 -32 129 -45 l60 -25 -40 -7 c-78 -12
-145 -37 -206 -77 -99 -64 -135 -77 -213 -78 -70 -1 -132 -10 -170 -26 -17 -7
-18 -6 -8 8 7 8 10 18 6 21 -3 4 -1 7 5 7 7 0 25 14 42 31 28 30 29 33 12 45
-9 7 -28 14 -41 14 -13 0 -21 3 -18 7 4 3 2 12 -5 20 -9 11 -7 15 10 20 20 5
26 15 23 35 -1 9 50 45 91 63 46 21 228 14 323 -13z m-780 4 c19 -8 35 -17 35
-20 0 -7 -63 15 -74 25 -14 13 0 11 39 -5z m-1637 -180 c-2 -1 -21 -15 -42
-31 -22 -16 -36 -22 -31 -14 5 8 4 11 -1 6 -5 -5 -9 -14 -9 -20 -1 -7 -12 -34
-25 -62 -45 -96 -36 -236 20 -314 41 -57 100 -85 175 -85 143 0 236 116 235
293 -1 99 -32 171 -94 219 l-30 23 35 -6 c18 -3 38 -10 44 -16 5 -5 16 -9 25
-9 23 0 55 -37 82 -95 18 -41 22 -68 23 -145 0 -206 -78 -295 -274 -307 -108
-7 -149 4 -243 66 -116 75 -138 130 -102 252 34 117 130 248 170 232 8 -3 14
-2 13 3 -3 18 1 23 16 17 9 -3 15 -6 13 -7z m1182 -5 c40 -11 3 -19 -60 -13
-40 4 -50 7 -35 13 24 9 61 9 95 0z m1440 -31 c0 -19 -18 -19 -23 -1 -3 14 -1
18 9 14 8 -3 14 -9 14 -13z m-2384 -35 c57 -39 53 -125 -5 -125 -82 0 -106
133 -26 139 6 1 20 -6 31 -14z m-2561 -175 c30 -33 139 -99 242 -146 54 -25
85 -43 68 -39 -46 9 -170 70 -244 120 -68 44 -112 85 -94 85 5 0 18 -9 28 -20z
m3849 -41 c28 -33 32 -50 16 -80 -14 -26 -55 -24 -74 3 -22 31 -21 84 2 97 25
15 28 14 56 -20z m679 25 c3 -3 3 -12 0 -20 -4 -11 -9 -12 -19 -3 -8 6 -11 15
-8 20 6 10 18 12 27 3z m401 -100 c-3 -33 -52 -147 -76 -174 -40 -46 -139
-116 -176 -126 -9 -2 -37 -9 -62 -15 -25 -6 -57 -14 -72 -19 -16 -5 -28 -4
-28 1 0 14 37 29 57 22 15 -5 16 -3 6 8 -15 16 -17 33 -3 24 6 -3 10 1 10 10
0 9 5 13 10 10 6 -3 10 -1 10 4 0 6 5 11 11 11 13 0 38 29 39 44 0 4 -7 5 -16
2 -9 -3 -12 -2 -9 4 4 6 13 9 20 8 8 -2 21 6 30 17 16 19 16 19 10 1 -4 -15 1
-12 22 10 15 16 28 32 28 35 0 14 75 77 113 96 23 11 38 24 34 29 -4 4 2 2 12
-6 18 -14 19 -13 13 11 -5 18 -3 26 6 26 9 0 12 -12 11 -33z m-2588 -30 c20
-14 40 -16 104 -11 65 5 79 4 84 -9 12 -32 5 -44 -40 -64 -66 -28 -111 -26
-167 10 -50 31 -61 61 -29 79 22 13 19 14 48 -5z m2279 -74 c17 -11 26 -20 22
-20 -11 0 -67 29 -67 35 0 10 16 4 45 -15z m-3915 -35 l95 -14 -85 6 c-94 5
-189 20 -135 21 17 0 73 -6 125 -13z m2624 -171 c27 -10 18 -21 -14 -16 -16 2
-27 8 -24 13 6 11 16 11 38 3z m606 -90 c0 -3 -13 -10 -30 -15 -16 -6 -28 -15
-25 -19 3 -5 -3 -7 -12 -5 -10 1 -25 -1 -34 -6 -10 -5 -21 -3 -27 3 -19 19
-14 28 16 29 15 0 36 4 47 9 23 10 65 13 65 4z m-631 -226 c-15 -29 -59 -74
-59 -61 0 6 7 16 16 24 8 7 22 26 30 42 9 16 18 27 21 24 2 -3 -1 -16 -8 -29z
m-75 -71 c-9 -25 -101 -56 -231 -78 -114 -19 -138 -20 -201 -9 -39 6 -76 18
-83 26 -6 8 -18 14 -27 14 -8 0 -13 3 -9 6 3 3 38 -3 79 -14 54 -15 93 -19
153 -15 96 5 231 35 283 62 45 24 42 24 36 8z m-1874 -484 c101 -103 102 -104
25 -36 -96 86 -152 143 -139 143 5 0 56 -48 114 -107z m3048 -100 c-59 -99
-144 -166 -313 -248 -148 -72 -247 -111 -150 -59 28 15 61 35 74 45 13 11 29
19 36 19 18 0 95 51 95 63 0 5 7 6 16 3 41 -16 210 136 249 224 13 30 21 38
23 26 2 -9 -11 -42 -30 -73z m-1 -60 c-4 -3 0 -15 10 -25 9 -10 12 -18 7 -19
-5 0 -17 -2 -27 -4 -9 -2 -15 1 -11 6 3 5 11 7 17 3 7 -3 4 1 -5 9 -13 10 -15
16 -6 25 7 7 14 12 17 12 2 0 1 -3 -2 -7z m-1614 -187 c115 -94 301 -119 394
-53 37 26 84 83 120 145 37 62 39 45 4 -32 -64 -142 -106 -169 -266 -170 -93
-1 -104 1 -167 32 -74 36 -156 120 -176 181 -19 54 -13 51 18 -11 17 -31 49
-72 73 -92z m136 64 c7 0 9 5 5 13 -6 9 -4 9 7 1 20 -15 91 -34 125 -34 31 1
64 20 64 39 0 13 2 14 34 1 34 -12 36 -62 5 -88 -12 -9 -30 -26 -41 -37 -15
-16 -32 -20 -81 -19 -67 1 -160 24 -192 48 -19 14 -18 14 12 12 l32 -2 -39 36
c-26 24 -40 46 -40 61 0 46 18 48 59 7 21 -21 44 -38 50 -38z m1672 -3 c70
-35 197 -137 171 -137 -7 0 -12 5 -12 10 0 6 -5 10 -11 10 -6 0 -30 14 -55 31
-24 16 -73 44 -109 60 -50 24 -62 34 -58 47 6 15 4 15 -10 4 -16 -14 -42 -8
-33 7 9 14 43 5 117 -32z m-2651 -307 c0 -5 7 -10 16 -10 9 0 12 -5 8 -11 -5
-9 1 -10 22 -5 39 10 77 8 84 -4 3 -5 46 -19 95 -30 50 -12 93 -24 98 -29 4
-4 -6 -41 -23 -82 -51 -120 -61 -153 -59 -179 2 -14 -3 -49 -10 -78 -11 -42
-19 -55 -40 -63 -14 -6 -35 -18 -45 -27 -16 -15 -20 -15 -24 -2 -3 8 -16 23
-30 35 -13 11 -46 41 -72 67 -27 25 -83 63 -126 85 -67 33 -87 38 -143 37
-168 -2 -286 -122 -298 -305 -6 -84 3 -103 37 -69 11 11 23 19 26 18 4 -2 12
6 18 17 29 54 58 96 63 91 3 -3 -2 -17 -11 -30 -18 -28 -56 -181 -56 -226 0
-48 19 -45 76 11 61 60 67 52 29 -35 -26 -58 -34 -136 -14 -136 6 0 29 15 52
33 39 32 127 80 127 70 0 -2 -11 -19 -25 -38 -47 -60 -54 -133 -13 -119 18 5
19 4 5 -23 -20 -37 -86 -105 -97 -98 -4 3 -11 -2 -14 -11 -3 -8 -2 -12 4 -9 6
3 10 0 10 -7 0 -7 -11 -18 -25 -25 -15 -6 -25 -7 -25 -1 0 5 -5 6 -10 3 -6 -4
-8 -10 -5 -15 3 -5 -8 -16 -24 -25 -35 -17 -45 -19 -36 -5 3 6 -1 10 -9 10
-10 0 -13 -6 -9 -17 3 -10 3 -15 -1 -11 -5 4 -17 -2 -29 -13 -11 -10 -32 -18
-46 -18 -21 1 -22 2 -6 6 11 3 28 11 38 18 16 11 16 13 2 18 -8 4 -15 2 -15
-3 0 -6 -5 -10 -11 -10 -6 0 -9 6 -6 13 2 6 -4 28 -15 47 -10 19 -18 40 -18
47 0 7 -9 30 -20 51 -17 32 -19 46 -11 78 5 21 9 32 10 23 1 -9 11 -24 23 -35
21 -19 21 -19 13 1 -4 11 -21 54 -38 95 -25 63 -30 89 -30 160 -1 204 23 337
78 435 19 33 37 59 40 58 15 -7 25 1 56 45 66 93 144 180 151 170 4 -8 24 -2
60 15 29 15 73 33 98 41 53 17 150 20 150 6z m962 -25 c8 -37 -1 -69 -28 -101
-23 -28 -23 -28 -24 -6 0 12 7 34 16 47 25 39 15 69 -26 76 -33 6 -33 6 11 8
42 1 47 -1 51 -24z m-294 -12 c-10 -2 -28 -2 -40 0 -13 2 -5 4 17 4 22 1 32
-1 23 -4z m-1488 -7 c0 -1 -22 -17 -48 -33 -36 -22 -56 -44 -75 -84 -27 -52
-37 -47 -16 8 15 40 48 73 94 94 43 20 45 21 45 15z m1951 -28 c52 -55 163
-215 192 -276 27 -57 31 -79 33 -157 1 -49 0 -73 -3 -53 -7 64 -58 72 -97 16
-9 -12 -16 -33 -16 -46 0 -30 35 -98 55 -105 8 -4 15 -16 15 -28 0 -18 -7 -12
-34 27 -19 27 -47 62 -63 77 -20 20 -23 26 -9 21 16 -6 18 -3 14 28 -3 33 0
37 50 68 48 30 53 37 47 59 -3 14 -6 31 -7 37 -1 6 -11 9 -22 6 -21 -4 -21 -4
-1 11 16 13 18 18 7 41 -7 16 -17 24 -26 20 -17 -6 -79 33 -72 45 4 6 -47 7
-91 2 -15 -1 -5 -43 15 -58 9 -7 29 -13 44 -13 39 0 78 -40 78 -79 0 -20 -11
-43 -31 -66 -17 -19 -31 -47 -31 -60 0 -31 -16 -32 -27 -2 -7 18 -3 29 25 57
26 28 34 44 34 73 0 31 -5 39 -32 53 l-32 17 -39 -47 c-22 -25 -46 -46 -56
-46 -9 0 -29 12 -46 26 -19 16 -23 23 -12 20 10 -3 25 -6 33 -6 9 0 12 -4 9
-10 -3 -5 0 -10 9 -10 16 0 70 59 62 68 -3 3 -24 -3 -45 -13 -51 -22 -67 -16
-91 37 -19 43 -19 43 2 59 15 12 19 23 16 44 -5 24 -4 25 10 12 15 -16 13 -27
-12 -62 -13 -18 -13 -24 1 -52 18 -37 32 -40 74 -16 37 22 37 42 -1 75 -37 32
-38 47 -4 79 l26 24 -18 -38 c-16 -33 -16 -39 -4 -47 24 -16 56 -11 84 11 26
20 37 14 14 -9 -9 -9 -8 -12 6 -12 10 0 20 10 23 21 6 20 8 19 22 -12 10 -22
24 -35 39 -37 23 -3 23 -3 8 26 -8 16 -26 43 -39 58 -13 16 -32 45 -42 64 -9
19 -31 50 -48 68 -17 17 -28 32 -24 32 3 0 16 -10 28 -22z m-2155 -153 c39
-173 89 -259 169 -285 37 -12 94 -10 130 5 17 8 18 7 7 -7 -20 -25 -103 -31
-151 -12 -66 26 -126 102 -155 194 -29 91 -42 172 -31 197 8 17 8 17 12 -2 2
-11 11 -51 19 -90z m5272 28 c-46 -95 -78 -213 -79 -302 -1 -64 -2 -65 -9 -21
-15 91 27 278 80 354 47 69 51 55 8 -31z m-3488 -39 c-101 -57 -135 -109 -154
-235 -16 -109 -26 -137 -55 -163 -26 -23 -26 -19 -4 25 11 20 19 65 21 110 4
73 3 76 -25 100 -28 24 -29 25 -11 43 11 13 18 15 18 7 0 -7 11 -26 24 -42
l24 -28 6 44 c10 61 71 129 134 149 68 20 72 19 22 -10z m-130 -13 c0 -14 -66
-52 -143 -84 -110 -44 -217 -130 -217 -175 0 -9 35 -55 76 -101 83 -91 101
-124 115 -209 10 -66 1 -226 -15 -247 -8 -12 -11 21 -11 127 0 176 -8 196
-125 326 -45 51 -78 92 -72 92 5 0 10 11 10 24 0 35 34 79 91 115 50 32 187
94 249 112 17 6 32 14 32 19 0 6 2 10 5 10 3 0 5 -4 5 -9z m-1342 -64 c36 -39
52 -89 41 -130 -5 -20 -15 -39 -21 -43 -8 -5 -9 -1 -4 12 5 10 10 37 12 59 l3
40 -8 -37 c-7 -33 -39 -84 -47 -75 -2 1 4 23 12 47 24 70 -2 130 -56 130 -33
0 -53 -21 -48 -52 2 -19 10 -23 43 -26 22 -1 35 1 29 5 -6 4 -13 19 -17 31 -5
23 -5 23 13 7 22 -20 36 -73 22 -87 -5 -5 -24 -10 -42 -10 -41 -1 -80 39 -80
82 0 62 103 95 148 47z m549 -8 c63 -23 174 -94 179 -114 3 -11 21 -29 41 -40
21 -12 45 -38 59 -63 12 -24 29 -51 37 -60 8 -9 18 -27 22 -40 6 -22 4 -22
-57 -21 -57 1 -74 -4 -178 -53 -106 -51 -232 -138 -284 -196 -53 -61 -33 18
37 142 28 50 71 110 96 134 53 50 135 91 200 101 l46 7 -47 8 c-38 6 -58 3
-106 -17 -81 -32 -198 -112 -230 -156 -15 -21 -44 -57 -65 -82 -37 -43 -38
-43 -32 -14 20 85 129 295 154 295 5 0 35 16 67 35 62 37 109 44 188 26 27 -7
35 -6 28 1 -17 17 -146 25 -184 12 -18 -7 -50 -13 -71 -13 -81 -2 -200 -84
-250 -174 l-18 -32 5 57 c8 105 86 211 179 247 57 22 140 27 184 10z m614
-207 c-18 -2 -37 0 -42 5 -5 5 11 6 34 3 41 -4 41 -5 8 -8z m4935 -48 c19 -15
39 -35 44 -44 8 -15 4 -15 -46 -6 -38 6 -89 6 -162 -2 -108 -11 -145 -9 -77 4
37 7 75 34 75 54 0 6 5 10 12 10 6 0 8 3 5 7 -4 3 0 14 9 24 15 17 18 17 60
-2 25 -10 61 -31 80 -45z m-6096 -51 c0 -61 -1 -64 -47 -113 -58 -60 -96 -72
-136 -40 -15 12 -27 31 -27 43 0 21 1 21 13 -2 28 -55 116 -38 149 29 10 20
18 58 18 87 0 28 3 59 6 68 12 30 24 -6 24 -72z m2218 -91 c23 -28 78 -79 122
-113 44 -34 78 -64 76 -66 -9 -10 -76 19 -113 48 -31 25 -44 30 -73 25 -19 -3
-40 -2 -46 2 -26 18 -44 59 -44 104 0 42 -3 48 -25 54 -22 5 -25 12 -25 48 l0
41 43 -46 c23 -25 61 -69 85 -97z m3586 99 c-24 -23 -62 -45 -95 -56 -30 -10
-61 -23 -69 -29 -8 -7 -62 -36 -120 -65 -58 -29 -116 -61 -130 -71 -14 -9 -36
-23 -50 -30 -22 -11 -21 -8 9 23 22 24 61 46 117 68 63 24 84 37 84 51 0 10
-7 18 -17 18 -53 0 40 29 176 56 19 3 39 11 45 16 18 15 81 57 86 57 3 0 -13
-17 -36 -38z m-4021 -18 c-6 -15 -6 -15 -27 -7 -19 7 -21 25 -4 42 9 9 14 7
24 -5 6 -10 10 -23 7 -30z m-1860 7 c5 -4 7 -18 5 -31 -4 -24 -4 -24 -16 4
-10 24 -17 27 -56 27 -25 0 -48 5 -51 10 -7 12 105 2 118 -10z m2109 5 c41
-10 43 -43 8 -193 -10 -46 -16 -54 -47 -67 -23 -10 -40 -12 -47 -6 -6 5 -33
15 -59 21 -33 9 -65 29 -109 67 -57 52 -59 55 -30 48 38 -8 72 1 72 20 0 22
16 26 47 11 30 -15 128 -55 154 -63 13 -4 17 6 23 52 7 60 -6 100 -29 91 -7
-2 -21 5 -32 16 -18 20 -18 21 2 15 11 -3 32 -9 47 -12z m2856 -188 c24 -55
11 -54 -17 1 -22 43 -41 129 -40 175 0 20 7 2 18 -48 10 -44 27 -102 39 -128z
m-3239 172 c-22 -14 -33 -10 -19 6 7 8 17 12 22 9 6 -4 5 -10 -3 -15z m153
-71 c-15 -15 -92 -23 -92 -9 0 6 14 11 31 11 25 0 33 6 42 30 l12 31 8 -26 c6
-17 5 -31 -1 -37z m1100 -100 c-9 -11 -29 -18 -49 -18 -19 0 -48 -7 -64 -16
-17 -8 -36 -13 -42 -11 -7 2 1 10 16 18 18 8 30 23 34 41 7 35 23 37 23 3 0
-27 18 -32 51 -15 12 7 19 21 19 39 0 15 3 50 7 77 l8 49 6 -75 c5 -60 3 -79
-9 -92z m-1704 145 c-10 -2 -28 -2 -40 0 -13 2 -5 4 17 4 22 1 32 -1 23 -4z
m-266 -33 c28 -38 34 -93 12 -115 -15 -15 -28 -17 -81 -12 -59 6 -113 -5 -113
-23 0 -11 -131 -86 -175 -100 -22 -7 -51 -17 -64 -22 l-23 -9 25 30 c13 16 41
60 62 98 56 99 70 115 138 150 54 27 71 31 131 30 61 -2 71 -5 88 -27z m-1323
-15 c-8 -8 -27 -16 -44 -19 -27 -6 -27 -5 5 7 20 8 37 22 39 33 3 13 5 15 9 6
2 -8 -2 -20 -9 -27z m6165 20 c28 -19 81 -95 66 -95 -6 0 -27 7 -48 16 -20 9
-48 16 -62 16 -23 -2 -23 -1 -5 7 11 5 15 10 9 10 -5 1 -19 7 -29 15 -18 13
-17 14 11 29 36 20 30 20 58 2z m-5754 -101 c-10 -79 -7 -262 6 -374 3 -27 2
-30 -5 -14 -18 41 -31 257 -21 355 9 92 18 134 27 126 2 -3 -1 -44 -7 -93z
m1520 70 c45 -17 88 -42 118 -69 44 -40 46 -45 45 -91 -1 -44 2 -52 33 -77
l34 -29 0 62 c0 59 1 61 23 55 33 -10 45 -25 20 -25 -33 0 -18 -38 34 -84 52
-47 94 -128 73 -141 -6 -4 -10 1 -10 10 0 22 -28 75 -40 75 -11 0 -40 -65 -40
-90 0 -10 16 -27 35 -39 19 -11 35 -25 35 -31 0 -5 4 -10 9 -10 17 0 54 129
47 163 -4 23 -3 28 4 17 15 -24 12 -65 -11 -122 -25 -66 -45 -89 -55 -65 -3 9
-21 26 -40 38 -30 18 -34 26 -34 62 0 25 9 56 21 76 15 26 17 36 8 42 -7 4
-18 5 -25 2 -6 -2 -15 1 -19 8 -6 8 -11 5 -20 -10 -11 -22 -11 -22 -51 13 -21
19 -44 40 -51 45 -8 8 -9 20 -1 47 9 33 7 39 -19 66 -15 17 -50 41 -78 53 -67
31 -143 75 -128 75 6 0 44 -12 83 -26z m-172 -49 c54 -58 61 -78 38 -110 -12
-17 -11 -22 6 -46 27 -36 17 -79 -28 -119 -49 -43 -63 -40 -57 13 3 23 0 55
-6 71 -10 24 -15 27 -39 22 -62 -15 -65 -11 -47 59 6 25 5 28 -6 18 -7 -7 -20
-13 -28 -13 -11 0 -9 5 7 16 30 21 28 50 -8 86 -35 35 -35 32 -13 53 13 14 28
16 72 12 52 -5 60 -10 109 -62z m4320 28 c-10 -2 -28 -2 -40 0 -13 2 -5 4 17
4 22 1 32 -1 23 -4z m-6436 -49 c-12 -8 -22 -25 -22 -37 0 -16 -3 -18 -12 -9
-9 9 -6 17 12 37 13 14 28 25 34 25 6 0 0 -7 -12 -16z m293 -43 c14 -23 -15
-18 -30 5 -16 25 -16 25 4 15 11 -6 22 -15 26 -20z m3192 -48 c-9 -9 -37 29
-37 50 0 19 3 17 21 -12 11 -18 18 -35 16 -38z m-208 -5 c-12 -29 -25 -63 -30
-75 -5 -13 -13 -23 -19 -23 -12 0 -12 2 0 34 l10 26 -40 -20 c-43 -22 -244
-74 -262 -68 -6 2 28 14 76 25 116 29 195 65 193 90 -1 11 6 19 19 21 12 2 30
12 40 23 30 33 35 21 13 -33z m778 32 c90 -43 203 -209 203 -299 0 -61 -45
-154 -101 -208 -63 -60 -182 -114 -261 -118 l-63 -4 65 10 c95 15 171 53 230
115 65 69 83 111 84 199 0 57 -4 79 -27 122 -29 57 -139 180 -172 194 -11 4
-15 8 -9 8 5 1 29 -8 51 -19z m-3894 -14 c-4 -19 1 -28 25 -40 30 -15 32 -15
63 12 18 15 29 20 24 12 -5 -8 -17 -21 -27 -28 -10 -7 -18 -19 -18 -27 0 -7
-16 -26 -35 -42 -23 -20 -37 -41 -43 -68 -8 -38 -10 -40 -43 -37 -39 4 -69 18
-69 33 0 6 10 3 22 -5 33 -23 57 -20 68 10 13 34 14 34 -17 35 l-28 1 26 7
c14 3 40 18 59 33 29 23 32 29 21 42 -21 25 -36 19 -49 -18 -14 -38 -45 -52
-64 -28 -11 13 -10 15 5 9 20 -8 57 24 57 50 0 9 -8 25 -17 36 -17 19 -17 19
3 13 15 -4 24 -2 28 9 8 23 14 18 9 -9z m3808 -13 c47 -25 139 -119 139 -142
0 -6 -15 -11 -33 -11 -19 0 -36 -3 -40 -6 -10 -10 15 -54 32 -54 11 0 12 -3 3
-12 -15 -15 -47 13 -56 48 -8 29 9 64 29 64 8 0 15 4 15 8 0 11 -57 63 -109
101 -54 38 -45 40 20 4z m-3856 -43 c-3 -5 -17 -10 -30 -10 -13 0 -27 -4 -30
-10 -3 -5 -11 -10 -17 -10 -24 0 16 29 45 33 18 2 33 5 35 5 2 1 0 -2 -3 -8z
m2635 -260 c-24 -110 -48 -165 -92 -206 l-32 -29 22 28 c11 16 26 54 33 85 6
31 17 71 24 87 32 74 45 129 39 160 -3 18 0 59 8 92 l13 58 3 -91 c2 -64 -3
-120 -18 -184z m-1519 216 c-14 -36 -22 -33 -9 5 6 16 12 28 14 26 3 -2 0 -16
-5 -31z m1454 -12 l17 -26 -31 23 c-35 26 -37 29 -17 29 7 0 21 -12 31 -26z
m945 -61 c0 -8 -6 -15 -12 -17 -7 -2 -28 -8 -46 -14 -28 -9 -32 -9 -22 3 7 8
20 17 31 20 12 4 19 16 19 33 1 26 1 26 15 8 8 -11 15 -26 15 -33z m-2219 -58
c11 -4 19 -15 19 -28 0 -34 -31 -139 -57 -192 -13 -28 -25 -59 -27 -70 -1 -10
-8 -21 -14 -23 -7 -2 -12 -11 -12 -19 0 -21 -97 -111 -183 -170 -98 -67 -98
-67 -90 -47 4 11 3 15 -5 10 -6 -3 -14 3 -17 15 -4 12 -20 44 -36 71 -16 27
-29 53 -29 58 0 5 23 33 50 61 28 28 50 55 50 60 0 5 4 9 9 9 9 0 130 109 198
179 24 24 60 71 81 105 l37 61 3 -37 c2 -26 9 -39 23 -43z m1488 27 c20 -21
52 -67 71 -101 51 -93 102 -146 173 -180 126 -61 267 -77 408 -45 100 23 107
12 8 -14 -147 -39 -295 -27 -429 34 -86 39 -115 67 -194 188 -41 63 -87 123
-102 135 l-27 21 28 0 c19 0 39 -12 64 -38z m-2436 1 c3 -5 -28 -8 -69 -9 -41
0 -68 3 -62 8 16 10 125 10 131 1z m3267 -58 c13 -14 20 -28 16 -32 -5 -5 -15
2 -23 15 -9 12 -22 22 -29 22 -8 0 -14 5 -14 10 0 18 26 10 50 -15z m200 -73
c0 -2 -20 13 -45 34 -25 20 -45 41 -45 47 0 6 20 -9 45 -33 25 -24 45 -46 45
-48z m180 50 c0 -4 -5 -14 -10 -22 -8 -12 -10 -11 -10 6 0 11 -6 26 -12 33
-11 11 -9 11 10 2 12 -6 22 -15 22 -19z m-3624 -6 c-23 -7 -44 -22 -49 -34 -5
-11 -16 -23 -23 -26 -12 -4 -11 0 1 24 18 35 35 45 77 47 33 1 33 1 -6 -11z
m2774 -36 c10 -6 11 -10 3 -10 -52 0 53 -60 110 -62 21 -1 33 -6 31 -12 -5
-13 52 -86 67 -86 16 0 10 37 -12 75 -12 20 -19 38 -16 41 3 3 15 -14 28 -38
27 -55 23 -52 51 -38 18 9 17 7 -6 -12 -17 -15 -26 -30 -22 -36 10 -16 -23
-15 -54 2 -13 8 -29 29 -35 47 -9 27 -19 35 -48 41 -20 4 -61 22 -91 39 -45
25 -53 33 -43 44 14 17 18 17 37 5z m560 -5 c40 -20 40 -43 1 -37 -46 7 -100
-16 -122 -52 l-19 -31 0 28 c0 18 -4 26 -11 21 -8 -4 -10 -26 -6 -60 6 -58 3
-62 -28 -36 -34 28 -37 51 -15 96 37 76 128 108 200 71z m-3116 -15 c17 -6 27
-6 32 1 12 20 66 0 110 -41 26 -24 53 -40 68 -40 13 0 29 -7 37 -16 14 -17 20
-17 -93 1 -21 3 -51 17 -68 31 -47 40 -36 21 31 -53 59 -65 84 -109 145 -253
15 -36 35 -76 46 -89 10 -13 16 -26 14 -29 -3 -2 -50 24 -105 58 -112 70 -217
166 -273 250 -20 30 -46 65 -57 77 -28 30 -26 45 8 82 30 32 60 39 105 21z
m2830 -35 c11 -8 18 -17 15 -19 -2 -2 -15 4 -28 15 -27 22 -15 26 13 4z m281
-57 c-4 -13 -17 -33 -30 -44 -30 -28 -23 -34 39 -35 l51 -1 -70 -18 c-75 -19
-95 -17 -95 9 0 34 64 111 92 111 15 0 18 -5 13 -22z m-3495 4 c0 -6 -45 -33
-102 -60 -5 -2 -8 1 -8 8 0 6 24 22 53 35 62 28 57 27 57 17z m1343 -68 c95
-48 187 -105 187 -116 0 -5 -7 -20 -16 -33 -20 -30 -15 -32 16 -5 13 11 27 20
32 20 29 0 -27 -67 -80 -96 -26 -14 -36 -22 -22 -18 41 10 240 17 240 8 0 -5
-25 -36 -55 -68 -30 -33 -55 -61 -55 -63 0 -6 61 38 82 59 10 10 27 18 38 18
21 0 60 -36 60 -56 0 -17 -96 -60 -166 -74 -62 -13 -150 -47 -142 -56 3 -2 16
0 29 6 35 15 239 68 276 71 30 3 35 0 59 -46 85 -159 84 -156 84 -218 0 -52 4
-66 33 -103 35 -48 58 -59 132 -69 73 -10 153 -43 172 -71 15 -23 14 -27 -16
-75 -39 -63 -39 -69 0 -30 37 38 47 38 59 5 21 -53 13 -78 -35 -114 -50 -38
-55 -44 -24 -35 19 6 21 4 15 -16 -18 -68 -19 -66 8 -71 17 -4 26 0 29 11 3
10 5 8 6 -6 1 -21 11 -28 34 -24 4 0 7 -5 7 -13 0 -8 4 -16 8 -18 5 -1 28 -32
53 -68 l44 -65 -1 -135 c0 -74 -6 -155 -12 -180 -14 -58 -7 -65 9 -9 7 25 13
102 13 174 l1 131 62 -81 c61 -78 62 -81 63 -142 0 -35 -3 -63 -8 -63 -4 0
-16 -15 -26 -34 -13 -25 -23 -32 -37 -29 -16 4 -19 0 -19 -26 0 -30 -22 -44
-33 -21 -3 6 -4 5 -3 -1 2 -14 -20 -38 -90 -94 -58 -48 -87 -75 -77 -75 3 0 4
-3 1 -6 -4 -3 -16 0 -28 6 -15 8 -20 8 -16 1 4 -7 -1 -11 -13 -11 -11 0 -26
-6 -33 -13 -17 -16 -75 -43 -113 -53 -34 -8 -71 -31 -68 -42 1 -4 -7 -10 -19
-15 -16 -5 -19 -4 -14 8 3 8 0 15 -5 15 -7 0 -9 -11 -7 -25 3 -14 1 -25 -3
-25 -5 0 -9 12 -9 26 0 14 -6 38 -14 52 -8 15 -17 35 -20 45 -8 26 -29 20 -48
-13 -16 -28 -19 -29 -45 -18 -105 45 -232 158 -293 258 -24 39 -45 69 -47 66
-6 -5 17 -77 29 -90 4 -6 8 -19 8 -31 0 -11 14 -47 30 -79 17 -32 28 -61 25
-64 -3 -3 -5 0 -5 6 0 6 -6 9 -13 6 -8 -3 -19 5 -26 18 -6 13 -9 15 -7 5 5
-15 2 -16 -14 -7 -10 5 -48 10 -84 10 -51 0 -66 -3 -66 -14 0 -8 -11 -16 -25
-18 -26 -3 -26 -3 -4 -16 15 -10 19 -10 14 -1 -5 8 -4 10 4 5 6 -4 9 -11 6
-16 -8 -13 36 -71 48 -63 6 3 7 1 3 -5 -4 -7 -2 -12 4 -12 6 0 9 -4 5 -9 -3
-6 31 -39 76 -75 44 -36 78 -66 74 -66 -4 0 -43 26 -87 57 -113 81 -325 314
-435 478 -46 69 -119 210 -104 200 17 -10 13 4 -10 38 l-21 32 29 -32 c48 -54
95 -80 157 -85 35 -3 55 -1 53 5 -2 6 -35 28 -75 51 -72 40 -93 61 -30 31 32
-15 32 -15 9 2 -54 41 -134 120 -165 163 -33 46 -33 47 -10 42 13 -2 24 -9 24
-15 0 -7 5 -6 13 2 10 11 10 14 0 18 -7 3 -13 10 -13 17 0 7 -8 21 -18 32 -27
29 -45 81 -39 111 6 29 -20 122 -38 136 -9 8 39 4 125 -10 32 -5 33 -4 15 9
-11 8 -40 21 -64 28 -74 24 -229 155 -208 177 4 3 22 -8 41 -26 l33 -32 -34
67 c-25 51 -33 79 -31 109 3 38 5 41 45 50 57 14 64 25 17 26 -37 0 -36 1 36
28 47 17 76 34 78 44 2 12 -3 17 -18 17 -12 0 -18 -4 -15 -10 4 -6 -1 -7 -11
-3 -11 4 -13 8 -6 11 7 2 12 9 12 15 1 17 30 49 70 77 31 21 59 48 91 88 5 7
7 17 3 24 -4 6 -3 8 3 5 15 -9 57 39 48 54 -5 7 -4 10 3 5 6 -3 17 3 25 14 7
11 17 17 20 13 4 -3 7 -1 7 6 0 6 11 16 25 21 14 5 25 14 25 19 0 5 18 39 41
77 23 37 46 80 51 96 5 15 16 28 24 28 8 0 47 -16 87 -36z m-1045 -40 c15 -25
47 -71 71 -102 74 -93 222 -402 194 -402 -13 0 -100 59 -156 106 -71 59 -160
164 -198 233 -15 26 -31 73 -36 104 -9 54 -9 59 15 82 15 15 36 25 54 25 24 0
34 -8 56 -46z m3542 -68 c0 -38 -31 -83 -48 -72 -9 5 -5 17 13 40 17 22 22 39
18 55 -4 17 -3 22 5 17 7 -4 12 -22 12 -40z m-80 -66 c0 -39 76 -31 97 10 11
22 13 22 19 6 10 -25 -16 -47 -62 -53 -38 -5 -40 -6 -36 -39 6 -48 -3 -77 -34
-107 -24 -24 -34 -27 -96 -27 -38 0 -78 5 -88 10 -16 8 -18 8 -14 -5 4 -8 1
-15 -5 -15 -6 0 -11 4 -11 9 0 5 -16 30 -35 55 -19 25 -30 48 -25 51 6 3 10 2
10 -3 0 -20 57 -71 94 -82 21 -7 61 -10 89 -7 69 6 99 40 95 105 l-3 46 -58
12 c-72 14 -90 28 -23 19 53 -8 71 4 59 40 -5 17 -4 18 11 6 9 -7 16 -21 16
-31z m-1954 -114 c69 -83 93 -123 149 -249 62 -138 95 -169 229 -221 174 -68
198 -107 195 -310 l-2 -131 35 -70 c38 -75 120 -194 199 -288 50 -60 66 -96
28 -61 -62 56 -211 257 -270 365 -8 15 -15 81 -19 169 -5 122 -10 152 -28 187
-26 50 -81 89 -177 127 -125 49 -137 62 -215 223 -38 79 -98 184 -132 234 -35
49 -71 104 -81 122 l-18 32 28 -34 c15 -18 51 -61 79 -95z m-1642 62 c36 -80
127 -224 172 -271 22 -23 46 -50 54 -61 14 -18 13 -18 -20 -11 -53 11 -166 71
-211 112 -55 50 -88 109 -101 183 -10 61 -10 64 13 81 44 34 67 25 93 -33z
m2696 -37 c-6 -22 -17 -47 -26 -56 -13 -12 -13 -17 -2 -28 7 -8 19 -12 26 -9
23 7 52 -29 52 -64 0 -23 -7 -38 -22 -48 -35 -25 -50 -19 -23 9 27 26 32 64
13 83 -18 18 -28 15 -28 -10 0 -30 -38 -68 -69 -68 -25 1 -25 1 5 14 39 17 48
30 40 62 -4 16 -19 30 -41 40 -36 15 -56 11 -91 -16 -20 -15 -21 -18 -8 -50
14 -32 13 -35 -14 -64 -57 -63 -64 -74 -57 -95 4 -13 21 -25 46 -32 35 -11 41
-10 54 7 12 16 14 16 15 3 0 -31 -27 -43 -68 -31 -20 7 -43 16 -51 21 -21 14
-17 65 7 89 53 53 63 102 26 133 -20 16 -17 29 6 29 35 0 67 21 101 66 18 24
39 44 47 44 9 0 5 -10 -12 -31 -27 -32 -33 -49 -17 -49 5 0 16 -3 25 -6 11 -4
22 9 42 50 30 64 40 67 24 7z m-576 -78 c-14 -27 -29 -41 -54 -49 -23 -8 -36
-19 -38 -33 -3 -21 -76 -71 -103 -71 -8 1 6 11 30 22 33 16 48 31 59 60 11 27
21 38 35 38 38 0 67 39 68 89 1 46 1 46 11 14 8 -25 7 -39 -8 -70z m1327 21
c19 -23 85 -18 103 8 17 24 30 20 20 -5 -9 -23 -81 -42 -110 -28 -32 14 -58
57 -49 78 6 15 9 13 16 -10 4 -16 13 -35 20 -43z m-4832 -26 c49 -42 48 -63
-1 -45 -30 11 -81 58 -102 95 -7 12 -5 14 9 8 13 -5 16 -2 11 11 -5 11 1 8 16
-8 13 -13 43 -41 67 -61z m4384 68 c58 -25 77 -51 77 -106 0 -28 -5 -50 -10
-50 -7 0 -8 13 -4 35 5 29 2 38 -21 59 -14 13 -47 32 -72 40 -45 15 -48 15
-100 -9 -29 -14 -53 -30 -53 -35 0 -18 -16 -10 -17 8 -1 11 17 25 55 44 65 30
99 34 145 14z m-1008 -97 c-29 -54 -60 -81 -114 -95 -57 -14 -94 -7 -105 21
-5 14 -3 16 11 9 32 -15 87 -8 135 16 l47 23 -18 26 c-33 48 -34 56 -4 29 36
-34 43 -35 43 -4 0 13 3 33 8 43 6 15 7 14 10 -9 2 -15 -4 -41 -13 -59z m625
-129 c42 0 79 -35 86 -81 5 -32 10 -39 23 -33 32 13 64 17 58 6 -4 -5 -29 -15
-57 -22 -47 -11 -64 -30 -40 -45 6 -3 10 -15 10 -26 0 -21 12 -24 41 -9 32 18
22 -7 -11 -27 -35 -20 -37 -33 -10 -58 11 -10 19 -28 19 -39 -2 -20 -2 -20 -6
2 -2 12 -14 27 -26 34 -32 16 -38 30 -22 48 22 24 -2 73 -30 64 -11 -3 -40 -9
-63 -13 -31 -6 -55 -19 -80 -45 l-37 -36 20 -36 c11 -21 33 -43 50 -50 25 -11
26 -13 9 -14 -27 0 -84 63 -84 93 0 28 26 67 45 67 7 0 15 5 17 11 2 5 24 13
48 16 46 6 84 29 74 44 -3 5 1 9 9 9 33 0 36 64 5 97 -27 29 -55 29 -86 1
l-25 -23 6 25 c4 14 7 48 8 75 l1 50 11 -42 c9 -38 13 -43 37 -43z m-3733 -13
c6 2 17 -5 23 -16 6 -12 7 -21 4 -21 -16 0 -94 42 -94 51 0 5 12 3 28 -4 15
-8 32 -12 39 -10z m3537 -97 c14 0 26 -4 26 -10 0 -32 -87 4 -119 49 -35 49
-24 51 23 5 29 -30 52 -44 70 -44z m-3330 51 c80 -24 123 -29 166 -20 25 5 56
11 70 14 42 7 307 7 331 0 22 -7 22 -8 -7 -20 -41 -17 -142 -33 -254 -41 -105
-7 -293 9 -298 26 -2 5 -9 10 -15 10 -6 0 -19 7 -29 17 -10 9 -18 11 -18 5 0
-7 -7 -9 -17 -5 -15 6 -15 7 3 14 26 10 33 10 68 0z m1044 -141 c0 -14 -6 -4
-13 25 -7 28 -13 61 -13 75 0 14 6 4 13 -25 7 -27 13 -61 13 -75z m1792 73
c21 -16 46 -43 54 -61 23 -47 19 -53 -7 -10 -25 40 -61 72 -99 87 -18 8 -19
10 -5 10 11 1 36 -11 57 -26z m2445 -18 c-68 -55 -145 -140 -145 -159 0 -8 -8
-21 -18 -28 -21 -16 -62 -80 -62 -98 0 -19 30 -50 49 -50 26 0 69 -43 78 -77
l8 -32 48 21 c26 11 47 27 47 34 0 8 5 14 10 14 6 0 10 -14 10 -30 0 -17 7
-42 16 -56 l17 -24 36 26 36 27 -26 -29 c-15 -16 -30 -43 -34 -61 -3 -17 -13
-37 -21 -44 -12 -9 -11 -5 1 25 15 36 15 38 -7 65 -13 16 -27 36 -33 44 -9 15
-13 15 -42 1 -18 -9 -44 -27 -59 -41 -23 -21 -25 -29 -20 -68 6 -37 4 -45 -13
-54 -11 -6 -26 -11 -33 -10 -7 0 -3 5 10 11 15 8 22 20 22 40 0 23 -9 34 -51
59 -59 37 -59 50 1 19 50 -25 60 -18 60 43 0 41 -35 87 -66 87 -28 0 -54 31
-54 63 0 34 33 93 61 107 10 6 19 20 19 32 0 29 142 165 175 167 6 0 -3 -11
-20 -24z m-1585 -47 c0 -21 -3 -29 -10 -22 -5 5 -7 19 -4 32 9 31 14 27 14
-10z m711 -2 c151 -27 318 -125 450 -264 122 -128 174 -237 220 -460 53 -258
-16 -550 -194 -819 -36 -54 -77 -109 -92 -123 -15 -14 6 24 48 87 90 135 114
183 161 328 26 81 32 111 23 117 -9 5 -7 11 7 21 60 44 42 382 -28 541 -14 31
-27 56 -29 56 -2 0 -1 -19 4 -42 15 -78 11 -163 -8 -180 -40 -33 -96 -58 -132
-58 -60 0 -68 -13 -74 -120 -5 -83 -9 -97 -27 -110 -12 -8 -40 -33 -62 -55
l-39 -40 6 -70 c8 -86 33 -131 89 -156 48 -22 32 -26 -19 -5 -37 16 -61 53
-81 131 -21 79 -18 102 23 151 21 24 45 46 54 49 24 8 29 27 38 134 9 102 14
111 72 111 40 0 119 31 138 54 14 17 18 109 7 144 -7 20 -13 22 -79 21 -40 -1
-85 4 -102 11 -40 17 -15 25 32 9 34 -11 38 -10 55 11 12 14 16 30 12 44 -10
33 -10 38 3 43 6 2 14 -9 18 -26 4 -17 8 -31 10 -31 15 0 35 15 35 26 0 19
-52 124 -62 124 -4 0 -8 -20 -8 -44 0 -50 -14 -60 -82 -58 -21 1 -38 -3 -38
-8 0 -40 -93 -67 -120 -35 -18 22 -8 26 29 12 30 -11 34 -10 52 13 40 51 41
58 12 73 -46 24 -75 15 -100 -29 -28 -49 -28 -50 3 -79 26 -24 29 -55 7 -62
-12 -4 -63 85 -63 109 0 8 12 31 26 52 l26 38 -22 48 c-14 31 -20 57 -16 73 5
23 10 25 82 25 42 1 78 3 81 5 2 3 -19 21 -46 40 -130 93 -340 168 -476 169
l-50 0 45 8 c70 11 99 10 181 -4z m-831 -48 c0 -12 -14 -10 -28 4 -19 19 -14
29 8 16 11 -7 20 -16 20 -20z m-2194 -110 c9 -38 14 -71 11 -74 -5 -6 -34 97
-42 151 -8 59 11 11 31 -77z m2148 75 c26 4 35 2 25 -4 -30 -19 -147 0 -133
22 3 5 19 2 36 -7 21 -11 45 -14 72 -11z m3356 -40 c0 -21 -3 -24 -9 -14 -5 8
-7 20 -4 28 8 21 13 15 13 -14z m-3301 -70 c2 -2 0 -3 -6 -3 -6 0 -21 9 -34
21 l-24 20 30 -17 c17 -10 32 -19 34 -21z m1808 -109 c-26 -20 -44 -41 -40
-47 3 -6 1 -7 -6 -3 -7 4 -11 12 -9 16 4 12 80 69 92 70 5 0 -12 -16 -37 -36z
m-3892 -242 l28 -72 -18 -77 c-10 -43 -18 -90 -18 -106 0 -22 -2 -25 -9 -12
-6 10 -4 44 6 94 22 109 21 125 -20 227 -35 85 -64 177 -63 199 0 6 15 -33 33
-85 18 -52 45 -128 61 -168z m-432 190 c-11 -9 -37 -29 -56 -44 -19 -15 -56
-59 -82 -98 -49 -74 -72 -96 -34 -32 46 76 91 132 131 161 44 32 79 43 41 13z
m2252 -36 c17 -12 18 -18 7 -55 -7 -22 -18 -41 -25 -42 -7 0 11 -9 39 -20 28
-11 60 -29 70 -41 15 -16 8 -14 -37 11 -31 17 -63 31 -72 31 -21 0 -21 4 -1
35 23 35 15 78 -16 86 -21 6 -22 7 -4 8 11 1 29 -5 39 -13z m3615 4 c0 -5 -9
-10 -20 -10 -11 0 -20 5 -20 10 0 6 9 10 20 10 11 0 20 -4 20 -10z m26 -97
c-2 -3 -9 5 -16 16 -6 12 -18 21 -27 21 -14 0 -14 2 2 14 18 13 21 11 32 -16
8 -17 11 -33 9 -35z m-2886 -54 c9 -32 18 -42 55 -58 37 -16 45 -25 50 -54 4
-20 4 -45 0 -56 -4 -12 -2 -21 4 -21 6 0 20 -19 32 -42 12 -24 32 -54 45 -67
13 -13 24 -33 24 -43 0 -51 -76 -118 -134 -118 -38 0 -32 -16 17 -45 30 -17
58 -25 90 -25 26 0 47 -4 47 -9 0 -19 -17 -20 -71 -6 -30 8 -57 15 -61 15 -5
0 -8 -25 -8 -56 0 -40 4 -55 13 -52 6 3 13 17 15 31 2 15 7 27 11 27 4 0 5
-17 2 -37 -5 -32 -11 -38 -34 -41 -15 -2 -27 -8 -27 -13 0 -5 -7 -5 -17 1 -10
5 -43 16 -73 24 l-55 14 78 -6 77 -5 0 30 c0 62 -14 97 -55 139 -23 24 -50 44
-61 44 -10 0 -28 8 -39 16 -19 15 -19 15 7 9 23 -6 35 1 82 47 48 47 56 60 57
94 2 30 3 32 6 12 5 -30 10 -33 32 -19 35 23 -46 111 -102 111 -13 0 -28 -5
-35 -12 -6 -6 -14 -9 -18 -6 -7 8 49 38 71 38 8 0 15 8 14 18 -1 39 -17 57
-60 68 -35 10 -39 12 -16 13 23 1 27 5 27 30 0 15 -10 41 -22 57 l-22 29 22
-19 c12 -11 27 -36 32 -57z m-3229 -135 c-5 -16 -10 -21 -10 -12 -1 18 10 51
15 45 2 -1 -1 -16 -5 -33z m6070 -54 c28 -28 43 -47 33 -44 -22 8 -94 74 -94
86 0 15 10 8 61 -42z m136 -32 c-2 -13 -4 -5 -4 17 -1 22 1 32 4 23 2 -10 2
-28 0 -40z m-5974 7 c21 -20 27 -34 26 -63 l-1 -37 -8 39 c-10 53 -33 69 -90
62 l-45 -5 40 13 c22 8 42 14 45 15 3 1 18 -10 33 -24z m2936 -74 c1 -35 -5
-22 -12 24 -5 28 -4 34 3 20 5 -11 9 -31 9 -44z m2876 40 c-6 -6 -33 -6 -65
-2 l-55 9 65 1 c39 1 60 -3 55 -8z m147 -5 c18 11 2 -85 -27 -171 -32 -91 -75
-188 -82 -182 -2 3 7 28 22 56 25 51 47 122 64 215 8 45 7 51 -17 73 l-26 24
28 -11 c15 -5 33 -7 38 -4z m-1708 -97 c-3 -5 -24 -19 -47 -30 l-42 -21 38 32
c21 18 36 38 33 45 -2 7 -2 16 2 19 8 9 24 -33 16 -45z m-4214 -106 c-14 -66
-56 -113 -98 -113 -17 0 -33 4 -36 9 -3 4 5 6 17 4 29 -6 75 31 93 73 8 19 14
59 15 91 1 56 1 57 11 23 7 -24 6 -51 -2 -87z m3710 93 c0 -9 -40 -13 -46 -5
-3 5 6 9 20 9 14 0 26 -2 26 -4z m5 -342 c24 -4 41 -2 52 7 14 12 16 12 11 -1
-3 -10 -18 -15 -47 -14 -50 1 -92 21 -84 41 4 11 9 10 20 -6 7 -11 29 -23 48
-27z m1685 -21 c6 -58 -6 -62 -16 -5 -4 20 -12 43 -17 51 -9 10 -7 13 8 10 16
-3 21 -15 25 -56z m-192 -59 c12 -8 22 -26 22 -38 0 -25 -17 -36 -53 -35 l-22
0 21 9 c31 12 39 30 21 48 -13 12 -23 13 -49 5 -18 -5 -32 -15 -30 -21 1 -7
-2 -12 -8 -12 -22 0 -8 27 23 43 41 20 48 20 75 1z m-3676 -66 c-13 -13 -24 5
-16 27 7 16 8 16 17 0 6 -11 6 -20 -1 -27z m-6 -52 c2 -23 0 -25 -12 -15 -8 6
-14 17 -14 24 0 8 -6 16 -12 19 -7 2 -2 4 11 2 18 -2 25 -10 27 -30z m34 9 c0
-14 -4 -25 -9 -25 -5 0 -8 11 -8 25 0 14 3 25 8 25 5 0 9 -11 9 -25z m2764
-62 c-3 -18 -11 -36 -17 -40 -7 -4 -8 0 -4 11 4 10 7 39 8 64 0 40 2 44 10 23
5 -13 7 -39 3 -58z m-2654 21 c0 -2 -11 -4 -25 -4 -14 0 -25 4 -25 9 0 4 11 6
25 3 14 -2 25 -6 25 -8z m-110 -2 c0 -4 -8 -17 -18 -30 l-17 -22 -11 28 c-11
28 -10 29 17 30 16 0 29 -2 29 -6z m3197 -20 c26 5 60 11 75 14 20 5 27 2 33
-15 7 -24 11 -25 45 -6 19 10 21 15 10 18 -41 14 -42 16 -5 14 55 -3 57 -27 2
-52 -45 -21 -65 -21 -82 1 -6 8 -22 12 -40 10 -16 -2 -41 -4 -54 -5 -17 -1
-22 -5 -17 -17 5 -13 4 -14 -7 -6 -16 14 -27 6 -27 -19 0 -12 -5 -16 -14 -13
-8 3 -17 1 -21 -5 -3 -6 -11 -11 -16 -11 -6 0 1 14 16 32 21 25 25 38 21 62
l-6 30 19 -20 c17 -19 25 -20 68 -12z m-3253 -8 c9 -24 7 -27 -9 -10 -17 17
-19 26 -6 26 5 0 12 -7 15 -16z m21 -86 c4 -24 13 -62 22 -85 10 -28 13 -57 9
-83 -6 -37 -5 -40 21 -45 16 -4 46 -13 69 -21 39 -14 44 -13 98 12 32 14 59
24 62 21 3 -2 -7 -30 -23 -61 -27 -56 -53 -74 -53 -36 0 22 -5 23 -67 11 -24
-5 -40 -4 -37 0 3 5 12 9 20 9 8 0 14 4 14 9 0 9 -121 50 -132 44 -4 -2 -2
-15 4 -28 8 -18 8 -28 -1 -39 -10 -12 -6 -15 20 -21 l33 -7 -34 -18 -35 -18
49 -7 c60 -9 172 -1 190 14 19 16 26 -6 26 -80 0 -50 -3 -61 -23 -73 -83 -55
-259 -68 -382 -28 -38 12 -79 29 -90 38 -20 16 -20 16 3 9 18 -5 22 -2 22 16
0 41 24 100 48 120 21 16 22 19 7 19 -10 0 -16 2 -13 5 3 3 31 -1 64 -10 81
-21 87 -19 29 11 l-50 25 58 -5 c40 -3 57 -1 57 7 0 15 -112 17 -122 2 -5 -6
-8 -6 -8 2 0 14 27 43 40 43 22 0 34 50 35 140 0 74 4 102 18 123 26 40 44 34
52 -15z m-135 -145 c-1 -27 -27 -56 -45 -50 -22 9 -19 32 8 50 29 21 37 21 37
0z m-70 -78 l85 4 -75 -12 c-41 -7 -75 -16 -74 -22 0 -5 15 -20 34 -32 37 -26
33 -30 -8 -9 -30 15 -59 47 -81 86 l-14 25 25 -22 c22 -21 32 -22 108 -18z
m-193 -69 c8 -8 -18 -55 -51 -95 -26 -31 -36 -52 -36 -77 0 -77 89 -190 191
-241 43 -22 43 -23 14 -23 -68 0 -146 30 -215 83 -90 69 -104 94 -105 182 0
112 11 135 80 167 28 13 52 17 80 13 21 -3 41 -7 42 -9z m838 -16 c146 -25
307 -23 404 4 70 19 53 3 -19 -19 -117 -36 -361 -30 -512 12 -58 16 -82 39
-30 30 15 -2 86 -15 157 -27z m-1989 -40 c15 -6 25 -12 23 -14 -10 -8 -159
-14 -154 -5 4 5 0 9 -7 10 -7 1 -2 5 12 9 36 12 95 12 126 0z m3324 -96 c0
-21 92 -114 129 -133 20 -11 56 -25 81 -32 l45 -13 -55 -8 c-30 -5 -63 -10
-72 -11 -10 -1 -18 -5 -18 -9 0 -4 -13 -2 -30 3 -16 6 -45 9 -65 6 -19 -3 -37
-1 -40 3 -7 11 23 40 41 40 17 0 19 30 2 31 -7 0 -3 5 9 11 22 10 22 11 -13
60 -19 28 -34 58 -34 68 0 10 -2 27 -5 37 -3 10 1 5 9 -12 8 -16 15 -35 16
-41z m-3188 28 c9 -9 9 -12 -1 -12 -27 0 -159 -69 -219 -115 -63 -47 -63 -48
-78 -26 -8 11 -24 21 -35 21 -10 0 -19 3 -19 8 0 14 59 96 87 119 27 22 34 24
141 20 69 -2 117 -8 124 -15z m181 -71 c22 -5 50 -20 64 -33 22 -21 24 -29 21
-85 -5 -75 -26 -109 -88 -140 -48 -25 -129 -31 -174 -13 -23 8 -26 15 -26 58
0 48 -21 92 -43 92 -7 0 -24 -6 -38 -14 l-27 -14 9 32 c12 41 38 76 79 104 27
18 46 22 109 22 42 0 93 -4 114 -9z m1457 -137 c-15 -38 -45 -74 -87 -102 -32
-22 -42 -24 -97 -17 -33 4 -71 8 -83 8 -37 3 -10 17 59 32 73 15 153 52 182
84 26 29 38 26 26 -5z m1562 -66 c-8 -8 4 -20 50 -47 83 -48 123 -110 122
-190 0 -37 -7 -70 -21 -97 -20 -38 -60 -74 -82 -74 -5 0 -15 26 -21 57 -16 74
-29 101 -52 109 -44 14 -98 -59 -98 -132 0 -32 -2 -35 -12 -23 -7 8 -30 28
-51 43 -59 43 -82 96 -82 190 1 76 2 79 33 107 18 16 37 27 42 24 6 -4 10 -1
10 4 0 7 26 11 66 11 45 0 70 5 80 15 9 8 18 15 22 15 3 0 1 -5 -6 -12z m-391
-29 c20 -20 21 -29 16 -98 -9 -125 -26 -153 -102 -172 -16 -4 -44 -12 -61 -17
l-31 -10 1 72 c1 98 -19 131 -75 123 -35 -5 -39 -3 -39 17 0 27 42 69 90 90
20 9 66 15 108 16 60 0 75 -3 93 -21z m-1328 -235 c12 -13 -14 -44 -36 -44
-24 0 -47 17 -47 34 0 6 5 5 12 -2 17 -17 48 -15 48 3 0 15 12 20 23 9z"/>
<path d="M5187 7864 c-20 -14 -37 -28 -37 -33 0 -10 74 -51 92 -51 8 0 25 11
38 25 26 27 21 38 -28 67 -28 17 -30 16 -65 -8z"/>
<path d="M5307 7781 c-32 -54 -20 -97 30 -107 35 -7 56 13 29 28 -23 13 -20
26 7 30 17 2 23 11 25 34 3 26 -1 33 -20 38 -41 11 -53 7 -71 -23z"/>
<path d="M5124 7775 c-18 -47 41 -135 90 -135 27 0 66 -27 66 -45 0 -23 50
-55 86 -55 l33 0 -13 38 c-13 37 -38 56 -88 67 -20 4 -30 15 -43 48 -16 42
-30 54 -117 95 -5 2 -11 -4 -14 -13z"/>
<path d="M5428 7703 c-31 -8 -19 -37 23 -57 40 -18 41 -18 60 1 16 16 17 22 7
36 -14 18 -61 29 -90 20z"/>
<path d="M3497 5086 c-19 -20 -71 -125 -65 -132 3 -2 20 24 38 58 18 35 38 66
44 70 6 4 8 10 4 13 -3 3 -13 -1 -21 -9z"/>
<path d="M5470 4652 c0 -21 7 -48 16 -60 16 -23 16 -23 30 -3 13 18 12 24 -12
61 -15 22 -28 40 -30 40 -2 0 -4 -17 -4 -38z"/>
<path d="M5137 4622 c-38 -17 -38 -18 -20 -35 21 -18 125 -57 154 -57 50 0 33
65 -24 90 -50 23 -61 23 -110 2z"/>
<path d="M4512 4662 c-9 -6 -2 -20 26 -50 47 -50 82 -56 82 -14 1 26 1 26 16
-8 8 -19 14 -47 11 -63 -3 -24 -1 -26 17 -21 48 14 46 47 -6 106 -45 50 -110
73 -146 50z"/>
<path d="M4554 4549 c-3 -6 0 -15 7 -20 11 -7 11 -13 -4 -38 -20 -34 -21 -41
-5 -41 21 0 78 51 78 70 0 21 -4 25 -42 34 -16 3 -30 1 -34 -5z"/>
<path d="M4630 4471 c0 -5 7 -25 15 -45 9 -21 13 -47 9 -62 -10 -40 26 -27 50
17 17 32 18 40 7 68 -11 26 -19 31 -47 31 -19 0 -34 -4 -34 -9z"/>
<path d="M5050 2947 c-20 -15 -70 -81 -70 -92 0 -4 14 10 31 31 16 22 37 45
46 51 9 7 15 15 12 17 -2 2 -11 -1 -19 -7z"/>
<path d="M3830 2461 c0 -5 6 -14 14 -20 12 -10 13 -8 9 8 -5 21 -23 30 -23 12z"/>
<path d="M4128 2063 c-10 -12 -9 -14 7 -11 10 1 20 -3 23 -11 3 -9 0 -11 -8
-6 -9 5 -11 4 -6 -4 4 -6 11 -9 16 -6 5 3 11 1 15 -5 11 -17 34 -11 32 9 0 11
-15 25 -34 34 -29 13 -34 13 -45 0z"/>
<path d="M4830 1995 c-19 -7 -28 -14 -20 -14 8 0 29 6 45 14 39 17 21 18 -25
0z"/>
<path d="M6744 3065 c-7 -18 36 -105 52 -105 7 0 9 18 6 53 -2 28 -5 53 -6 53
0 1 -11 5 -24 8 -16 5 -24 3 -28 -9z"/>
<path d="M6858 3073 c-26 -4 -28 -7 -28 -57 0 -51 1 -53 41 -73 23 -12 48 -19
55 -16 18 7 19 124 2 141 -12 12 -20 13 -70 5z"/>
<path d="M6970 2986 c0 -51 -18 -84 -49 -89 -21 -3 -23 -5 -9 -11 10 -4 29 -2
45 6 25 12 28 19 29 66 1 29 -3 55 -7 58 -5 3 -9 -11 -9 -30z"/>
<path d="M7033 2793 c-24 -9 -13 -23 17 -23 20 0 30 5 30 15 0 15 -22 19 -47
8z"/>
<path d="M6265 2669 c8 -37 21 -56 31 -46 10 10 -9 70 -25 75 -10 3 -11 -3 -6
-29z"/>
<path d="M6298 2474 c-7 -10 -35 -40 -61 -67 -49 -52 -49 -60 1 -73 64 -17
152 37 152 94 0 51 -64 82 -92 46z"/>
<path d="M4750 1700 c-1 -3 -3 -36 -4 -75 -2 -38 -6 -89 -10 -112 -6 -30 -4
-43 4 -43 6 0 8 5 5 10 -3 6 -2 10 4 10 17 0 23 66 13 142 -5 40 -10 71 -12
68z"/>
<path d="M5468 9049 c27 -31 28 -63 1 -131 -11 -29 -16 -48 -11 -43 16 17 42
94 42 123 0 19 -10 37 -27 53 l-28 24 23 -26z"/>
<path d="M5422 8818 c-12 -23 -21 -43 -19 -45 2 -1 14 15 26 38 13 22 21 42
19 44 -2 2 -13 -15 -26 -37z"/>
<path d="M7616 8739 c86 -92 133 -175 186 -324 15 -44 28 -73 28 -64 0 25 -45
149 -78 215 -48 95 -103 164 -192 238 -13 12 12 -18 56 -65z"/>
<path d="M7858 8135 c4 -49 7 -157 6 -240 -1 -112 1 -133 6 -85 12 100 10 215
-5 320 l-13 95 6 -90z"/>
<path d="M7852 7710 c-1 -19 -4 -53 -7 -75 l-5 -40 11 40 c5 22 8 56 6 75 l-4
35 -1 -35z"/>
<path d="M7816 7484 c-4 -20 -5 -38 -3 -40 3 -3 8 11 11 32 4 20 5 38 3 40 -3
3 -8 -11 -11 -32z"/>
<path d="M7772 7333 c-12 -37 -20 -69 -18 -71 2 -2 14 27 26 63 12 36 20 68
18 70 -2 3 -14 -26 -26 -62z"/>
<path d="M1042 7327 c-1 -38 1 -47 8 -32 11 26 12 72 2 79 -5 3 -9 -18 -10
-47z"/>
<path d="M1006 7183 c9 -51 14 -54 14 -10 0 20 -5 39 -11 42 -7 5 -8 -5 -3
-32z"/>
<path d="M7691 7133 c-44 -84 -148 -238 -220 -327 -66 -82 -166 -159 -277
-214 -73 -37 -110 -47 -239 -66 -16 -3 4 -3 45 -1 194 8 410 161 577 406 72
107 158 257 151 264 -2 2 -19 -26 -37 -62z"/>
<path d="M1501 7181 c-8 -5 5 -7 35 -4 27 3 51 7 53 9 9 8 -75 3 -88 -5z"/>
<path d="M1500 7159 c-13 -9 -13 -10 2 -6 9 3 19 0 21 -7 4 -10 -3 -12 -29 -9
-32 4 -39 -2 -35 -29 0 -4 -6 -5 -14 -2 -10 4 -15 0 -15 -10 0 -15 3 -15 28
-2 16 8 42 16 58 18 29 3 45 23 37 46 -6 15 -33 15 -53 1z"/>
<path d="M1337 7074 c-26 -13 -71 -28 -100 -33 l-52 -9 49 -1 c51 -1 123 26
146 55 15 17 16 17 -43 -12z"/>
<path d="M1130 7005 c6 -8 18 -11 26 -8 8 3 14 0 14 -6 0 -14 89 -15 110 -1
11 7 -1 10 -40 10 -30 0 -70 4 -88 10 -28 8 -32 7 -22 -5z"/>
<path d="M1709 6940 c-6 -60 -4 -70 8 -66 17 7 17 -6 1 -23 -11 -10 -10 -11 4
-6 14 6 17 15 13 48 -5 42 -24 74 -26 47z"/>
<path d="M3465 6899 c-139 -8 -400 -39 -530 -64 -90 -17 -137 -19 -95 -4 20 7
18 8 -12 3 -58 -8 -139 -34 -133 -43 5 -10 -25 -24 -33 -16 -3 3 1 5 8 5 7 0
11 2 8 5 -8 9 -38 -6 -32 -16 3 -5 -6 -14 -20 -20 -23 -11 -44 -44 -33 -55 2
-2 21 8 43 22 46 32 90 45 256 78 169 34 172 34 164 -5 -3 -17 -6 -35 -6 -40
0 -5 -8 -9 -17 -9 -61 0 -411 -95 -498 -135 -27 -12 -81 -34 -120 -48 -332
-119 -439 -170 -458 -219 -4 -10 -7 -10 -16 2 -5 8 -7 19 -4 25 3 5 0 5 -7 -2
-15 -14 -7 -43 12 -43 7 0 74 25 148 56 292 121 440 177 580 219 130 38 371
98 376 92 1 -1 5 -29 9 -63 l7 -61 -52 -7 c-74 -10 -101 -22 -93 -42 5 -12 14
-15 42 -10 20 3 53 9 73 12 l37 6 15 -53 c9 -29 13 -56 9 -59 -5 -3 -48 -21
-98 -40 -294 -108 -643 -286 -730 -371 -26 -26 -28 -30 -14 -44 14 -14 19 -13
50 7 63 43 263 156 356 202 108 53 393 170 399 163 3 -3 -32 -26 -78 -52 -135
-77 -189 -116 -265 -191 -68 -66 -90 -104 -60 -104 6 0 46 19 87 41 87 47 223
103 364 149 l100 33 28 -32 c16 -18 26 -36 23 -42 -4 -5 22 9 57 31 93 60 338
182 479 239 153 61 388 134 497 155 45 9 117 23 160 31 44 8 109 15 145 15 63
0 97 13 60 24 -46 12 -277 17 -373 6 -389 -41 -773 -123 -1079 -228 -149 -52
-214 -59 -127 -15 174 88 590 201 976 264 142 24 424 32 543 16 47 -6 57 -5
57 8 0 10 10 15 26 15 21 0 25 -4 21 -19 -3 -12 1 -22 10 -25 23 -9 25 -8 21
16 -2 13 -15 28 -30 36 -27 13 -295 95 -428 130 -233 63 -499 86 -805 71z
m742 -113 c160 -21 294 -49 368 -77 78 -29 56 -35 -58 -15 -269 46 -605 76
-857 76 -220 -1 -323 -10 -561 -50 -196 -33 -223 -35 -166 -15 89 33 302 68
592 99 89 9 565 -4 682 -18z m-2107 -391 c-14 -8 -34 -14 -45 -14 -13 0 -8 5
15 14 46 18 61 18 30 0z m1170 -238 c-1 -13 -26 16 -41 48 -7 13 -1 10 15 -8
14 -15 26 -33 26 -40z m-290 -6 c0 -5 -15 -14 -32 -21 -18 -7 -86 -38 -151
-68 -65 -30 -120 -52 -123 -49 -7 7 13 18 161 89 120 57 145 66 145 49z"/>
<path d="M2915 6855 c-27 -7 -41 -13 -30 -14 11 0 45 6 75 14 30 7 44 13 30
13 -14 0 -47 -6 -75 -13z"/>
<path d="M2555 6760 c-35 -14 -48 -37 -42 -75 3 -19 2 -35 -4 -35 -5 0 -9 7
-9 15 0 8 -12 18 -27 21 -21 6 -30 2 -41 -14 -8 -12 -19 -22 -25 -22 -6 0 -25
-13 -42 -30 -21 -20 -37 -28 -51 -24 -20 5 -20 7 9 35 39 40 28 48 -13 10 -23
-20 -31 -35 -26 -46 9 -25 86 -14 134 19 30 21 50 26 98 26 36 1 67 6 78 15
17 13 18 15 3 15 -9 0 -17 6 -17 13 -1 6 -7 1 -14 -12 -13 -24 -14 -24 -25 -3
-19 36 -13 61 22 82 33 20 29 25 -8 10z"/>
<path d="M1574 6728 c-14 -22 -4 -78 19 -115 32 -51 49 -63 75 -56 25 6 29 18
7 27 -8 3 -15 12 -15 21 0 8 -7 15 -15 15 -8 0 -15 7 -15 15 0 9 -11 33 -24
54 -14 21 -22 42 -19 45 4 3 4 6 0 6 -3 0 -9 -5 -13 -12z"/>
<path d="M4706 6725 c10 -8 26 -14 34 -14 9 0 4 6 -10 14 -33 19 -49 19 -24 0z"/>
<path d="M1700 6556 c0 -28 14 -35 23 -12 3 8 -1 20 -9 26 -12 10 -14 8 -14
-14z"/>
<path d="M6065 6510 c-49 -4 -92 -6 -95 -4 -4 1 -6 -12 -6 -31 0 -19 4 -31 10
-28 5 4 7 -1 3 -10 -4 -11 -1 -17 9 -17 8 0 14 6 13 13 -4 29 2 48 12 42 6 -4
8 -13 5 -21 -8 -22 23 -44 63 -44 36 0 319 -49 406 -70 76 -18 77 -17 45 53
-34 74 -39 98 -23 104 16 6 52 -75 60 -134 3 -24 10 -46 15 -49 5 -4 7 9 3 30
-6 32 -5 36 14 36 45 0 251 -33 324 -51 42 -11 85 -19 95 -17 26 6 -147 44
-283 63 -171 23 -161 19 -181 70 -9 25 -15 48 -12 50 12 12 431 -60 547 -95
19 -5 36 -8 39 -6 8 8 -167 55 -298 80 -211 41 -526 55 -765 36z"/>
<path d="M7240 6348 c41 -19 109 -55 150 -81 85 -52 230 -131 245 -132 6 0 9
-7 7 -14 -1 -7 2 -10 7 -7 5 4 41 -10 80 -31 39 -20 74 -33 78 -30 3 4 4 9 1
12 -27 27 -567 300 -613 310 -16 4 4 -9 45 -27z"/>
<path d="M7260 6215 c116 -50 216 -100 243 -123 9 -8 17 -25 18 -36 0 -12 3
-15 6 -8 6 16 23 15 23 -1 0 -19 33 -47 53 -47 11 0 17 -8 17 -22 0 -18 15
-31 60 -56 32 -18 63 -31 67 -30 4 2 26 -17 48 -40 33 -36 47 -44 85 -47 l45
-5 -40 11 c-38 9 -59 22 -61 37 0 4 -4 15 -9 25 -6 15 -10 16 -16 5 -6 -10
-11 -9 -23 7 -9 11 -16 28 -16 39 0 15 -6 17 -27 13 -20 -4 -38 3 -65 21 -30
22 -38 33 -38 60 0 19 -4 31 -10 27 -13 -8 -50 13 -50 29 0 8 -17 22 -37 32
-146 69 -237 109 -291 130 -105 40 -93 26 18 -21z"/>
<path d="M7011 6216 c2 -2 22 -6 44 -10 29 -5 36 -4 25 3 -13 10 -79 16 -69 7z"/>
<path d="M6705 6133 c-22 -3 -44 -9 -50 -15 -7 -8 -5 -9 8 -4 10 3 48 6 83 6
41 0 63 4 59 10 -6 10 -23 10 -100 3z"/>
<path d="M7634 6065 c11 -8 27 -15 35 -15 13 1 12 4 -3 15 -11 8 -27 15 -35
15 -13 -1 -12 -4 3 -15z"/>
<path d="M7690 6013 c1 -5 6 -18 14 -31 11 -21 14 -22 26 -7 7 8 11 16 9 18
-37 21 -49 26 -49 20z"/>
<path d="M7829 5941 c9 -6 10 -10 2 -14 -7 -3 -7 -4 1 -3 7 2 22 -4 33 -13 14
-11 12 -7 -4 12 -14 15 -29 27 -35 27 -6 0 -5 -4 3 -9z"/>
<path d="M1150 5746 c0 -25 6 -39 22 -50 32 -22 42 -20 18 4 -11 11 -20 31
-20 44 0 14 -4 28 -10 31 -6 4 -10 -8 -10 -29z"/>
<path d="M9451 5680 c0 -8 6 -42 13 -75 8 -33 14 -49 15 -35 0 14 -6 48 -13
75 -8 28 -14 43 -15 35z"/>
<path d="M2322 5569 c2 -6 8 -10 13 -10 5 0 11 4 13 10 2 6 -4 11 -13 11 -9 0
-15 -5 -13 -11z"/>
<path d="M2309 5513 c12 -24 31 -39 31 -25 0 5 -10 17 -21 28 -22 19 -22 19
-10 -3z"/>
<path d="M9482 5330 c0 -19 2 -27 5 -17 2 9 2 25 0 35 -3 9 -5 1 -5 -18z"/>
<path d="M7098 5063 c-12 -12 -19 -26 -15 -29 4 -4 9 1 13 10 3 9 10 13 15 10
5 -3 9 0 9 5 0 6 7 11 15 11 8 0 15 4 15 8 0 17 -30 8 -52 -15z"/>
<path d="M7607 4936 c-9 -23 -69 -64 -102 -69 -43 -7 -85 -25 -85 -36 0 -5 10
-8 23 -5 12 3 40 8 62 11 62 9 92 29 105 68 11 35 9 62 -3 31z"/>
<path d="M1122 4890 c-7 -11 -8 -20 -3 -20 5 0 13 -10 16 -21 4 -12 28 -48 54
-79 25 -32 59 -83 75 -114 16 -31 32 -54 34 -51 4 4 -123 271 -136 285 -3 3
-7 -1 -9 -7 -8 -21 -22 -15 -16 7 3 11 4 20 2 20 -2 0 -10 -9 -17 -20z"/>
<path d="M6237 4870 c10 -11 24 -20 33 -20 11 1 8 6 -9 20 -30 26 -46 26 -24
0z"/>
<path d="M6085 4870 c-18 -8 -17 -9 8 -9 16 -1 26 3 22 9 -3 6 -7 10 -8 9 -1
0 -11 -4 -22 -9z"/>
<path d="M6295 4645 c-3 -8 -7 -22 -10 -30 -5 -17 51 -74 74 -75 12 0 12 2 0
18 -24 30 -39 61 -39 82 0 23 -18 27 -25 5z"/>
<path d="M1101 4577 c14 -7 34 -18 43 -26 14 -12 16 -12 10 3 -4 10 -18 22
-31 27 -35 13 -53 10 -22 -4z"/>
<path d="M1320 4564 c0 -6 5 -15 12 -22 9 -9 9 -12 -2 -12 -22 0 24 -38 73
-60 51 -23 93 -25 138 -5 34 14 34 14 7 15 -16 0 -28 4 -28 8 0 5 -14 9 -32
10 -17 0 -35 7 -40 14 -6 11 -10 11 -17 -1 -10 -16 -41 -3 -83 37 -16 14 -28
21 -28 16z"/>
<path d="M6820 4481 c127 -45 167 -66 283 -142 250 -166 411 -381 523 -699 19
-52 31 -79 28 -60 -9 52 -79 224 -130 316 -150 276 -409 496 -700 594 -126 43
-129 36 -4 -9z"/>
<path d="M1234 4456 c4 -15 2 -26 -4 -26 -17 0 -11 -29 15 -70 17 -27 30 -38
40 -33 10 3 15 1 13 -8 -2 -7 6 -15 17 -17 20 -4 20 -4 1 17 -11 12 -24 20
-30 18 -14 -5 -46 42 -46 68 0 17 2 17 10 5 9 -13 10 -13 10 0 0 13 1 13 10 0
7 -10 10 -11 10 -2 0 7 -7 15 -15 18 -8 4 -15 14 -15 24 0 11 -5 22 -11 26 -9
5 -10 -1 -5 -20z"/>
<path d="M1739 4357 c26 -28 31 -32 31 -19 0 4 -13 16 -28 26 l-27 19 24 -26z"/>
<path d="M1547 4295 c3 -9 2 -15 -3 -14 -20 3 -35 -2 -30 -10 4 -5 -3 -7 -14
-4 -11 3 -27 0 -35 -7 -8 -6 -19 -9 -25 -5 -5 3 -10 2 -10 -4 0 -6 19 -15 43
-22 23 -6 53 -15 67 -19 24 -7 25 -6 22 31 -2 22 0 39 5 39 5 0 18 7 29 15 18
13 17 14 -18 15 -30 0 -36 -3 -31 -15z"/>
<path d="M1595 4269 c-4 -6 -4 -13 -1 -16 3 -4 6 0 6 7 0 9 12 11 46 7 29 -3
41 -1 33 4 -20 12 -76 11 -84 -2z"/>
<path d="M7323 4011 c8 -32 -9 -47 -23 -20 -7 13 -14 26 -17 28 -7 9 -73 -63
-73 -80 0 -24 64 -32 101 -13 33 17 49 42 49 78 0 20 -5 26 -21 26 -16 0 -20
-5 -16 -19z"/>
<path d="M7375 3990 c-9 -27 1 -40 31 -40 26 0 30 11 14 41 -14 25 -37 24 -45
-1z"/>
<path d="M7308 3906 c-41 -23 -52 -50 -46 -113 2 -32 -1 -40 -24 -52 -24 -14
-28 -14 -47 3 -12 11 -21 25 -21 31 0 26 -28 38 -61 26 -37 -13 -46 -9 -26 11
8 7 16 35 19 61 6 47 5 48 -14 30 -49 -44 -63 -122 -30 -163 21 -26 42 -20 42
12 0 20 2 19 30 -8 17 -16 37 -41 46 -56 17 -33 66 -38 96 -11 16 14 18 14 18
0 0 -39 -35 -51 -97 -31 -22 6 -14 -19 17 -55 l28 -33 35 26 c52 40 61 75 38
144 -10 32 -21 78 -24 104 l-4 47 54 12 c29 7 61 18 71 25 30 23 -58 15 -100
-10z"/>
<path d="M7450 3923 c0 -7 9 -35 20 -63 21 -53 18 -70 -15 -104 -13 -13 -9
-16 40 -27 30 -7 57 -10 60 -7 8 8 -64 171 -86 193 -10 11 -19 14 -19 8z"/>
<path d="M7420 3901 c0 -5 -25 -17 -55 -26 l-55 -18 5 -36 c3 -20 8 -51 11
-68 6 -42 28 -43 82 -4 50 37 58 60 35 103 -9 18 -16 39 -15 46 2 6 0 12 -3
12 -3 0 -5 -4 -5 -9z"/>
<path d="M6990 3795 c-18 -22 -3 -71 32 -100 34 -29 44 -31 52 -9 9 22 9 22
-24 29 -28 6 -30 10 -30 51 0 46 -9 54 -30 29z"/>
<path d="M7664 3514 c3 -17 12 -82 22 -145 13 -87 15 -148 10 -254 -10 -224
-53 -386 -146 -548 -40 -69 -56 -107 -46 -107 11 0 126 240 151 313 35 106 55
244 55 386 0 119 -20 294 -40 356 l-10 30 4 -31z"/>
<path d="M1079 3493 c-9 -21 -19 -56 -23 -77 -8 -40 -55 -96 -81 -96 -8 0 -17
-4 -20 -10 -4 -6 5 -9 19 -8 15 1 26 6 26 9 0 4 10 9 23 11 12 2 21 9 19 16
-1 8 2 11 7 8 14 -9 24 12 28 54 4 46 24 110 35 110 4 0 8 5 8 10 0 24 -27 7
-41 -27z"/>
<path d="M1683 3463 c10 -10 25 -27 33 -38 13 -18 13 -16 0 11 -8 17 -23 35
-33 38 -17 7 -17 6 0 -11z"/>
<path d="M1619 3444 c15 -20 18 -31 11 -44 -7 -13 -6 -21 2 -26 7 -5 2 -15
-17 -30 -28 -22 -28 -23 -11 -48 24 -38 36 -32 36 18 0 34 6 52 25 72 l25 27
-27 29 c-15 15 -35 28 -46 28 -18 0 -18 -1 2 -26z"/>
<path d="M9054 3428 c18 -49 17 -52 -2 -29 -11 13 -24 21 -31 17 -16 -10 -14
-26 4 -26 9 0 22 -15 30 -32 l14 -33 2 30 c3 46 0 69 -13 80 -8 7 -9 5 -4 -7z"/>
<path d="M1681 3353 c-7 -25 -19 -59 -27 -75 -9 -17 -11 -28 -4 -28 14 0 40
63 46 111 6 53 -1 49 -15 -8z"/>
<path d="M1590 3361 c-7 -15 -7 -21 0 -21 12 0 25 28 17 36 -3 3 -10 -4 -17
-15z"/>
<path d="M914 3244 c-24 -12 -37 -29 -53 -71 -11 -30 -21 -64 -21 -75 0 -22
-13 -36 -55 -59 -36 -20 -79 -17 -106 7 -14 13 -27 15 -56 10 -21 -4 -47 -9
-58 -11 -11 -1 -19 -8 -17 -14 1 -6 -4 -14 -12 -17 -9 -3 -12 -12 -9 -21 5
-12 3 -14 -6 -8 -10 6 -11 3 -2 -13 15 -28 31 -36 43 -24 7 7 5 10 -7 9 -10
-1 -20 3 -22 8 -3 11 62 41 85 39 6 -1 12 2 12 7 0 20 74 8 107 -17 18 -14 50
-27 71 -30 26 -3 31 -2 17 4 -17 8 -15 9 13 15 17 4 39 4 47 2 48 -15 48 -16
37 -27 -8 -8 -16 -8 -29 3 -17 13 -17 13 -4 -4 8 -10 20 -16 27 -13 17 6 39
-20 25 -29 -7 -4 -6 -15 4 -34 8 -16 11 -32 7 -36 -4 -4 13 -5 38 -2 25 3 52
2 60 -3 13 -9 13 -10 0 -11 -8 -1 -19 -1 -24 0 -5 1 -4 -4 3 -12 9 -12 46 -14
181 -14 157 0 195 6 137 21 -22 5 -149 64 -197 92 -14 7 -35 14 -47 14 -18 0
-23 6 -23 25 0 25 -25 36 -32 13 -7 -20 -51 114 -56 168 -4 49 -2 53 27 75 29
22 31 25 15 36 -24 17 -82 16 -120 -3z m-74 -206 c-12 -10 -29 -18 -38 -18
-12 0 -9 5 8 17 14 9 29 24 34 32 8 13 10 13 14 1 3 -7 -5 -22 -18 -32z"/>
<path d="M1604 3225 c-12 -18 -14 -35 -9 -62 7 -40 75 -158 75 -132 0 9 -9 28
-21 43 -14 18 -19 37 -17 63 3 32 8 41 38 55 19 9 29 18 23 19 -7 1 -17 3 -23
4 -5 1 -19 3 -31 4 -14 1 -19 6 -15 16 8 23 -2 18 -20 -10z"/>
<path d="M1027 3172 c-16 -3 -17 -10 -12 -45 11 -73 66 -105 153 -92 l47 7
-50 15 c-59 18 -82 36 -104 83 -11 25 -21 34 -34 32z"/>
<path d="M678 2970 c42 -49 66 -70 80 -70 11 0 7 9 -13 30 -16 16 -31 28 -33
25 -3 -3 -11 4 -19 15 -8 11 -18 20 -24 20 -5 0 -1 -9 9 -20z"/>
<path d="M1884 2906 c-3 -8 -4 -23 -2 -33 3 -11 6 -6 9 15 6 34 2 42 -7 18z"/>
<path d="M1343 2740 c21 -18 49 -55 62 -81 14 -26 30 -51 37 -55 10 -6 10 -5
0 8 -7 9 -12 20 -11 24 2 5 -3 28 -10 52 -12 44 -36 66 -86 78 l-29 7 37 -33z"/>
<path d="M1140 2735 l-45 -24 48 -1 c85 0 130 -38 163 -139 20 -63 41 -85 103
-107 25 -9 66 -25 90 -36 l44 -18 -6 -85 c-4 -50 -2 -85 3 -85 5 0 16 -13 25
-29 11 -22 24 -31 57 -37 50 -10 59 -11 74 -13 6 0 17 -19 24 -41 19 -59 35
-67 37 -19 3 37 30 79 53 79 6 0 10 7 10 16 0 9 -5 12 -12 8 -7 -4 -8 -3 -4 5
12 18 -13 41 -45 41 -56 0 -104 68 -138 197 -11 39 -16 44 -89 78 -91 43 -116
65 -147 125 -30 58 -60 85 -110 99 -58 16 -84 13 -135 -14z"/>
<path d="M8072 2654 c3 -33 34 -53 33 -20 -1 12 -5 27 -9 34 -13 21 -26 13
-24 -14z"/>
<path d="M1868 2608 c-21 -6 -38 -14 -38 -20 0 -5 -4 -7 -9 -4 -5 4 -34 -16
-64 -44 -63 -57 -92 -116 -77 -155 5 -14 11 -25 14 -25 2 0 14 16 27 36 42 68
60 80 154 104 151 38 256 16 341 -70 58 -59 84 -90 84 -101 0 -6 4 -8 9 -5 5
3 12 -2 16 -12 7 -16 8 -15 15 3 8 19 9 19 9 -3 1 -13 5 -21 10 -17 5 3 -8 45
-30 93 -45 100 -94 150 -191 201 -55 28 -69 31 -147 30 -47 -1 -103 -6 -123
-11z"/>
<path d="M1037 2594 c-8 -8 39 -54 54 -54 6 0 7 -4 4 -10 -6 -9 21 -68 36 -80
4 -3 10 -20 14 -37 3 -18 13 -36 20 -40 13 -8 15 -12 15 -33 0 -5 7 -10 15
-10 12 0 11 6 -5 33 -11 19 -23 56 -26 83 -8 59 -25 90 -56 99 -13 4 -32 18
-44 31 -11 14 -23 21 -27 18z"/>
<path d="M8200 2530 c0 -5 12 -10 26 -10 14 0 23 4 19 10 -3 6 -15 10 -26 10
-10 0 -19 -4 -19 -10z"/>
<path d="M1327 2450 c-2 -10 0 -23 7 -30 8 -8 7 -13 -4 -20 -13 -8 -12 -10 3
-10 23 0 17 -22 -7 -26 -29 -4 -31 -14 -3 -14 18 0 28 7 33 23 4 12 6 22 4 22
-2 0 2 10 8 21 10 19 8 24 -12 38 -22 14 -24 14 -29 -4z"/>
<path d="M1106 2399 c-8 -42 0 -50 9 -9 4 17 5 34 2 36 -2 3 -7 -10 -11 -27z"/>
<path d="M1411 2400 c13 -17 35 -48 47 -68 13 -20 21 -28 17 -17 -4 11 -13 35
-20 54 -7 19 -25 41 -40 49 l-28 14 24 -32z"/>
<path d="M1445 2278 l24 -52 -23 -31 c-19 -24 -32 -30 -62 -31 -22 -1 -52 5
-67 13 -15 8 -32 11 -36 8 -5 -3 -12 1 -14 7 -3 8 -6 6 -6 -4 -1 -22 -4 -22
-42 -3 -16 9 -34 13 -39 10 -6 -3 -10 -1 -10 4 0 12 -22 11 -31 -2 -3 -4 -34
-22 -69 -40 -78 -39 -101 -76 -99 -157 1 -42 3 -48 8 -25 3 17 14 46 25 65 21
40 104 119 126 121 66 6 89 6 117 2 18 -3 30 -9 27 -14 -3 -5 3 -9 12 -9 10 0
35 -12 55 -26 35 -24 41 -25 74 -14 48 16 75 60 73 122 0 26 -4 45 -9 42 -4
-2 -15 9 -24 25 -27 53 -35 44 -10 -11z"/>
<path d="M1110 2275 c0 -8 7 -15 16 -15 14 0 14 -3 4 -15 -7 -9 -11 -17 -8
-20 7 -7 48 7 48 16 0 5 -7 5 -17 2 -11 -4 -14 -3 -9 5 4 7 1 15 -8 18 -9 3
-13 10 -10 15 3 5 0 9 -5 9 -6 0 -11 -7 -11 -15z"/>
<path d="M2633 2262 c-8 -5 -8 -12 2 -25 12 -17 13 -16 11 7 0 15 -1 26 -1 26
0 0 -5 -4 -12 -8z"/>
<path d="M2413 2227 c0 -7 11 -13 24 -13 27 -2 27 -1 -3 14 -15 8 -21 8 -21
-1z"/>
<path d="M2160 2079 c0 -4 -9 -11 -21 -14 -19 -6 -20 -7 -2 -20 13 -10 22 -10
31 -3 7 6 10 13 7 16 -3 3 0 10 5 17 7 8 5 12 -5 12 -8 0 -15 -4 -15 -8z"/>
<path d="M2330 2043 c0 -12 5 -25 10 -28 13 -8 13 15 0 35 -8 12 -10 11 -10
-7z"/>
<path d="M2421 2034 c-17 -21 -18 -29 -8 -51 11 -25 11 -25 20 -5 11 25 58 37
86 23 11 -6 31 -11 46 -11 32 0 105 22 105 32 0 5 5 8 11 8 8 0 8 -5 -1 -15
-7 -8 -18 -15 -26 -15 -7 0 -15 -4 -19 -10 -3 -5 6 -5 24 1 32 11 44 29 32 48
-6 9 -16 8 -44 -4 -48 -20 -83 -19 -136 5 -56 26 -65 25 -90 -6z"/>
<path d="M1485 1982 c-11 -2 -35 -16 -54 -31 -19 -14 -44 -32 -55 -39 -20 -13
-20 -13 4 -7 70 19 147 17 195 -4 45 -20 49 -20 66 -5 11 10 25 14 36 10 13
-5 14 -9 5 -15 -7 -4 2 -7 22 -7 28 1 32 4 26 17 -13 24 -32 36 -65 42 -16 3
-59 14 -95 24 -36 11 -74 17 -85 15z"/>
<path d="M2209 1963 c-6 -7 -7 -13 -2 -13 5 0 17 6 27 13 16 12 17 14 2 14 -9
0 -21 -6 -27 -14z"/>
<path d="M2175 1899 c-33 -10 -96 -26 -140 -35 -44 -9 -90 -22 -102 -30 -36
-23 -189 -19 -238 6 -22 11 -50 20 -62 20 -13 0 -39 6 -57 14 -56 23 -113 29
-168 16 -49 -12 -115 -49 -130 -73 -6 -9 -8 -9 -8 1 0 6 -3 12 -7 12 -5 0 -9
-23 -10 -50 -1 -28 2 -50 7 -50 4 0 15 -2 22 -5 9 -4 20 8 31 34 19 43 39 53
129 71 50 10 61 9 96 -9 22 -11 42 -26 45 -33 4 -10 7 -10 14 -1 7 9 16 6 38
-13 16 -13 35 -22 42 -19 8 2 11 0 8 -5 -9 -15 55 -12 110 5 27 8 51 12 53 10
2 -2 -1 -20 -8 -40 -22 -66 2 -123 58 -140 23 -7 23 -7 7 26 -26 49 -15 107
26 141 46 39 263 119 334 123 22 2 46 3 53 4 9 1 10 6 4 17 -14 24 -77 25
-147 3z"/>
<path d="M980 1877 c27 -46 48 -61 26 -19 -15 30 -15 30 9 28 13 -2 22 1 19 5
-3 5 -15 7 -27 5 -12 -2 -28 1 -35 7 -8 6 -4 -6 8 -26z"/>
<path d="M1263 1892 c-7 -4 -10 -17 -6 -30 3 -12 9 -19 14 -17 4 3 6 12 2 20
-3 11 2 15 18 16 13 0 33 4 44 9 16 7 11 9 -20 9 -22 0 -45 -3 -52 -7z"/>
<path d="M1860 1891 c0 -14 57 -24 77 -13 10 6 32 8 48 5 23 -3 27 -2 15 6
-18 13 -140 15 -140 2z"/>
<path d="M1010 1873 c0 -5 14 -22 30 -38 26 -25 33 -27 40 -15 10 16 -16 53
-32 44 -5 -3 -15 0 -23 6 -8 7 -15 8 -15 3z"/>
<path d="M2104 1807 c-45 -26 -122 -88 -128 -102 -11 -31 14 -59 30 -33 4 6 3
8 -4 4 -6 -3 -4 7 4 23 16 31 107 106 139 114 l20 5 -20 1 c-11 0 -29 -5 -41
-12z"/>
<path d="M1010 1741 c0 -31 44 -85 85 -105 22 -11 61 -20 87 -20 27 -1 48 -4
48 -7 0 -7 40 -22 53 -20 4 1 7 -4 7 -9 0 -22 45 -8 72 22 15 17 28 35 28 38
0 4 -26 6 -57 5 -100 -5 -267 50 -295 95 -16 25 -28 26 -28 1z"/>
<path d="M2426 1731 c-10 -15 31 -99 54 -111 13 -7 33 -9 48 -4 27 7 27 8 -8
15 -27 5 -19 7 32 6 52 -1 71 3 87 18 12 10 21 21 21 24 0 3 -25 4 -55 3 -48
-3 -62 0 -104 27 -50 32 -66 37 -75 22z"/>
<path d="M1090 1613 c8 -3 24 -10 35 -15 20 -9 20 -9 1 6 -11 9 -27 16 -35 15
-14 0 -14 -1 -1 -6z"/>
<path d="M2121 1564 c-6 -15 -9 -29 -6 -33 8 -7 35 28 35 46 0 22 -16 15 -29
-13z"/>
<path d="M6966 1325 c25 -19 65 -19 90 1 18 15 18 15 -3 5 -27 -14 -70 -14
-78 -1 -3 6 -11 10 -18 10 -6 0 -2 -7 9 -15z"/>
<path d="M7151 1306 c2 -2 27 -6 54 -10 36 -5 46 -4 35 3 -13 10 -99 16 -89 7z"/>
<path d="M7946 1245 c-11 -8 -15 -15 -10 -15 6 0 19 7 30 15 10 8 15 14 9 14
-5 0 -19 -6 -29 -14z"/>
<path d="M8060 1250 c20 -13 43 -13 35 0 -3 6 -16 10 -28 10 -18 0 -19 -2 -7
-10z"/>
<path d="M7881 1086 c-8 -10 -9 -16 -1 -21 5 -3 13 1 16 10 9 22 -1 29 -15 11z"/>
<path d="M7805 1053 c-27 -9 -57 -18 -65 -21 -8 -3 6 -9 33 -13 50 -8 112 12
104 34 -5 16 -17 16 -72 0z"/>
<path d="M7376 1039 c6 -11 64 -42 69 -37 2 2 -14 13 -36 25 -21 12 -37 17
-33 12z"/>
<path d="M7553 983 c15 -2 37 -2 50 0 12 2 0 4 -28 4 -27 0 -38 -2 -22 -4z"/>
</g>
</svg>
