<?xml version="1.0" standalone="no"?>
<!DOCTYPE svg PUBLIC "-//W3C//DTD SVG 20010904//EN"
 "http://www.w3.org/TR/2001/REC-SVG-20010904/DTD/svg10.dtd">
<svg version="1.0" xmlns="http://www.w3.org/2000/svg"
 width="1024.000000pt" height="1024.000000pt" viewBox="0 0 1024.000000 1024.000000"
 preserveAspectRatio="xMidYMid meet">
<metadata>
Created by potrace 1.16, written by Peter Selinger 2001-2019
</metadata>
<g transform="translate(0.000000,1024.000000) scale(0.100000,-0.100000)"
fill="currentColor" stroke="currentColor">
<path d="M4296 10117 c-15 -19 -26 -39 -26 -46 0 -7 -7 -26 -17 -44 -13 -27
-14 -30 -1 -19 13 11 16 0 22 -85 19 -272 78 -660 171 -1133 54 -276 75 -415
75 -502 0 -37 -4 -48 -19 -53 -10 -3 -56 -30 -101 -60 -45 -30 -84 -55 -87
-55 -4 0 -15 -7 -25 -17 -10 -9 -19 -14 -21 -12 -18 24 -97 217 -128 312 -35
105 -99 369 -112 462 -3 17 -3 -1 0 -40 8 -128 76 -390 156 -598 l27 -69 -33
8 c-87 22 -143 -4 -165 -77 -7 -24 -15 -99 -19 -166 -4 -90 -10 -123 -19 -123
-20 0 -44 -29 -43 -53 1 -20 2 -20 8 3 7 27 54 55 77 46 17 -6 19 -37 2 -34
-6 2 -16 -7 -23 -18 -6 -12 -16 -28 -23 -36 -10 -13 5 -16 110 -22 68 -3 138
-9 156 -12 25 -5 32 -3 30 7 -5 21 -84 39 -175 39 -66 0 -83 3 -83 15 0 8 6
12 13 9 7 -2 22 4 32 16 14 16 15 20 3 20 -8 0 -25 11 -38 24 -22 25 -22 26
-12 153 11 138 22 175 56 191 60 29 84 23 151 -39 l46 -42 57 41 c98 72 350
203 419 219 37 8 130 -148 248 -417 16 -36 32 -69 36 -74 4 -4 53 0 110 9 112
19 199 15 252 -10 73 -35 164 -144 151 -181 -4 -13 -3 -15 4 -6 6 10 21 -11
51 -74 23 -48 40 -91 39 -96 -2 -4 -21 28 -42 72 -22 43 -43 77 -48 74 -4 -3
-6 -10 -3 -15 4 -5 1 -9 -4 -9 -6 0 -11 4 -11 9 0 21 -87 104 -134 128 -43 22
-68 27 -156 31 -69 2 -129 -1 -173 -11 l-69 -14 -26 61 c-85 201 -231 426
-275 426 -46 0 -231 -85 -338 -155 l-114 -76 -15 23 c-34 53 -88 98 -116 98
-27 -1 -26 -2 11 -15 22 -8 41 -15 42 -15 1 0 16 -22 34 -50 18 -27 38 -50 44
-50 6 0 44 23 84 50 41 28 92 61 115 75 46 27 229 95 256 95 24 0 99 -110 126
-184 12 -34 38 -97 56 -141 19 -44 33 -86 30 -94 -3 -9 0 -11 9 -6 12 7 12 5
1 -6 -11 -12 -14 -12 -22 0 -6 11 -10 5 -15 -22 -8 -40 -35 -62 -66 -54 -14 4
-19 0 -19 -14 0 -37 -18 -18 -24 25 -11 73 -70 126 -141 126 -22 0 -25 4 -23
38 1 35 -21 94 -41 106 -5 3 -2 -13 5 -35 17 -47 7 -100 -26 -142 -28 -36 -25
-45 6 -16 33 31 123 35 151 5 17 -17 17 -18 -6 -11 -13 4 -21 3 -18 -2 3 -5
-11 -10 -31 -11 -20 -2 -53 -7 -73 -12 -36 -10 -37 -11 -41 -71 -3 -48 -9 -65
-31 -87 -23 -22 -35 -26 -82 -26 -37 1 -55 -3 -52 -10 6 -19 88 -19 129 0 31
14 41 15 51 5 9 -10 5 -19 -21 -42 -69 -62 -203 -23 -242 71 -11 25 -17 28
-98 39 -136 17 -224 22 -217 11 3 -6 17 -10 31 -10 14 0 41 -7 61 -15 19 -8
44 -15 54 -15 41 0 25 -20 -46 -59 -79 -44 -92 -57 -49 -48 37 7 106 -11 131
-35 28 -27 36 -63 23 -104 -14 -41 -30 -36 -30 10 0 22 -9 43 -26 61 -23 25
-30 27 -74 22 -34 -4 -59 -1 -79 9 -88 44 -240 -55 -245 -159 -2 -48 28 -48
53 1 32 63 60 75 139 58 65 -15 72 -88 13 -147 -35 -35 -44 -39 -91 -39 -103
0 -165 55 -157 142 2 26 11 57 20 70 9 13 24 33 33 46 15 21 12 20 -42 -9 -46
-24 -69 -30 -105 -27 -35 2 -52 -2 -67 -15 -11 -10 -39 -21 -61 -24 -50 -7
-81 16 -81 59 0 17 -4 27 -10 23 -6 -3 -8 -17 -6 -31 3 -16 0 -27 -10 -31 -16
-6 -19 -39 -4 -48 15 -9 12 -42 -5 -49 -16 -6 -45 2 -45 13 1 27 23 97 33 103
8 5 8 8 1 8 -22 0 -146 -124 -215 -215 -83 -110 -115 -141 -75 -72 55 95 107
163 194 251 48 49 69 76 47 59 -86 -66 -223 -235 -280 -346 -29 -57 -32 -59
-148 -119 -136 -69 -168 -102 -168 -170 -1 -31 -8 -53 -28 -78 -40 -51 -74
-110 -68 -116 3 -3 13 9 23 28 9 18 24 43 34 55 17 21 17 21 83 -53 l67 -75 0
-113 c0 -100 -3 -116 -21 -140 -26 -33 -69 -56 -107 -56 -52 0 -112 82 -112
153 0 20 -3 28 -10 21 -6 -6 -4 -34 6 -79 8 -39 21 -116 29 -173 17 -122 64
-266 120 -368 67 -124 197 -259 323 -334 l62 -38 -36 -21 c-33 -20 -36 -25
-30 -55 6 -30 3 -35 -33 -60 -22 -15 -52 -46 -68 -68 -25 -37 -28 -50 -29
-127 -1 -47 -4 -99 -9 -114 -6 -22 -2 -36 19 -66 l27 -38 -31 -78 c-18 -44
-34 -107 -37 -144 -4 -46 -14 -78 -32 -106 -38 -58 -119 -163 -167 -216 -23
-25 -49 -60 -58 -77 -16 -31 -16 -32 3 -32 11 0 31 4 45 10 14 5 26 7 26 5 0
-3 -18 -41 -40 -85 -22 -44 -40 -85 -40 -91 0 -8 13 -10 39 -5 l40 6 -24 -53
c-34 -79 -82 -226 -90 -280 -7 -44 -6 -47 15 -47 17 0 20 -4 16 -22 -4 -13 5
0 18 27 l24 50 1 -65 c2 -119 30 -302 58 -379 16 -45 60 -125 110 -200 46 -70
92 -139 102 -156 29 -45 61 -251 81 -530 9 -120 9 -120 4 38 -4 138 -23 339
-40 417 -5 23 -3 22 22 -10 72 -90 252 -263 299 -287 28 -14 65 -36 83 -50 18
-13 59 -39 91 -57 32 -19 87 -56 121 -82 l62 -49 -5 -98 c-2 -59 0 -94 5 -89
5 5 12 139 15 298 6 268 7 286 22 263 19 -29 86 -101 74 -79 -4 8 -42 67 -84
131 -213 322 -246 434 -237 792 2 95 1 154 -3 132 -5 -22 -9 -119 -10 -215 -3
-281 23 -378 171 -620 l52 -85 5 -130 c2 -71 1 -161 -4 -199 l-8 -69 -112 102
c-62 56 -113 99 -113 96 0 -4 10 -20 21 -37 l22 -30 -34 18 c-19 9 -61 46 -95
80 -33 35 -64 64 -68 64 -4 0 3 -16 15 -37 l23 -36 -35 24 c-46 33 -243 239
-302 319 -68 90 -86 129 -123 260 -32 113 -48 119 -19 7 8 -32 15 -66 15 -75
0 -26 -69 83 -100 158 -42 102 -52 159 -59 350 l-6 175 -28 -47 c-15 -27 -34
-48 -42 -48 -11 0 -11 9 0 59 20 83 91 269 121 314 l25 38 -41 -21 c-73 -37
-74 -25 -9 105 58 116 59 119 27 89 -18 -16 -45 -35 -59 -41 -24 -10 -26 -9
-22 7 3 10 27 45 53 77 27 32 77 98 112 146 l63 88 12 -68 c21 -120 45 -213
54 -213 5 0 9 -7 9 -15 0 -8 17 -26 37 -40 31 -20 50 -25 101 -25 74 0 215 43
299 91 93 53 166 151 208 277 10 31 22 52 29 49 16 -6 229 -26 371 -35 118 -7
120 -7 124 -32 8 -63 -19 -127 -100 -236 -127 -170 -159 -251 -161 -405 -1
-244 156 -494 326 -519 29 -4 40 -10 37 -20 -12 -45 -12 -80 -1 -144 18 -105
37 -160 73 -207 52 -68 55 -78 72 -218 19 -155 69 -346 124 -474 l38 -90 -24
-61 c-30 -75 -55 -103 -104 -118 -32 -9 -37 -14 -29 -29 14 -24 12 -106 -1
-132 -7 -12 -46 -56 -89 -97 -95 -93 -121 -150 -128 -286 -5 -100 5 -145 44
-204 37 -55 88 -84 147 -85 51 0 51 0 99 63 49 64 59 88 34 79 -7 -3 -33 -8
-57 -12 -40 -6 -47 -4 -78 27 -45 44 -61 85 -61 157 0 55 2 61 35 90 40 34 81
49 97 33 7 -7 -3 -16 -33 -29 -24 -11 -50 -28 -58 -37 -16 -19 -23 -136 -9
-136 4 0 8 -9 8 -21 0 -13 4 -18 13 -13 6 4 9 4 5 -1 -15 -16 28 -34 80 -35
88 0 128 42 232 246 55 110 59 127 30 140 -14 7 -17 13 -10 24 8 13 10 13 10
-1 0 -34 30 -29 53 9 30 47 39 72 27 72 -5 0 4 19 20 43 16 23 31 53 32 66 2
14 11 33 20 42 9 10 24 32 33 49 l16 30 -30 6 c-17 4 -28 10 -25 15 2 4 16 4
30 -1 14 -6 27 -10 30 -10 7 0 208 415 249 515 20 50 45 115 55 146 l17 56
-34 12 c-40 15 -38 22 9 24 32 2 34 4 61 82 35 99 63 227 73 323 l7 73 -37 -6
c-24 -5 -41 -3 -51 5 -23 19 -28 6 -15 -35 7 -20 9 -39 6 -42 -3 -4 -6 -1 -6
6 0 7 -4 10 -9 7 -5 -4 -7 4 -5 16 2 13 1 17 -2 9 -4 -8 -21 16 -45 65 -50
101 -58 109 -92 91 -15 -8 -23 -18 -19 -22 4 -5 1 -5 -6 -1 -16 9 -6 26 15 26
9 0 14 3 10 6 -3 3 5 27 19 53 27 56 54 152 54 197 0 54 -32 133 -71 178 -42
48 -115 80 -206 91 -44 6 -54 4 -72 -14 -25 -25 -29 -25 -50 -7 -9 8 -36 25
-60 38 -24 13 -60 42 -79 66 -31 38 -33 42 -14 42 11 0 42 -18 68 -41 26 -23
62 -48 79 -56 29 -14 35 -14 72 6 22 11 43 17 47 14 3 -4 6 -1 6 5 0 6 9 16
21 22 17 10 23 7 41 -15 11 -14 45 -39 77 -54 147 -75 192 -205 141 -405 -15
-59 -17 -83 -9 -98 9 -16 8 -19 -2 -13 -18 12 -2 -13 35 -52 46 -50 84 -59
154 -35 31 11 75 23 97 27 l40 7 -30 -26 c-16 -14 -37 -28 -46 -31 -17 -6 -29
-46 -29 -99 0 -18 -4 -36 -9 -42 -5 -5 -16 -53 -25 -107 -34 -202 -196 -619
-376 -967 -44 -85 -103 -202 -131 -260 -28 -58 -84 -172 -124 -255 -111 -228
-259 -453 -601 -909 -84 -112 -175 -244 -236 -342 -50 -79 -166 -134 -283
-134 -120 0 -157 36 -157 150 0 71 22 124 75 178 43 44 44 53 1 25 -56 -36
-93 -113 -109 -226 -5 -32 -12 -41 -40 -53 -47 -19 -130 -18 -165 3 -37 22
-54 82 -48 171 6 79 24 118 85 184 25 26 43 48 39 48 -17 0 -91 -80 -114 -124
-24 -46 -26 -62 -27 -163 0 -62 -4 -113 -8 -113 -4 0 -23 6 -41 14 -73 30
-101 179 -53 277 13 26 18 45 13 43 -19 -7 -56 -113 -56 -157 0 -24 7 -67 16
-96 20 -68 11 -78 -16 -17 -25 59 -25 122 -1 208 45 156 128 236 288 278 77
20 132 67 179 155 60 109 55 119 -6 15 -59 -99 -81 -122 -147 -145 -120 -43
-156 -62 -212 -107 -40 -32 -67 -64 -85 -100 -37 -76 -59 -173 -54 -235 l5
-53 -43 0 c-135 0 -169 220 -53 342 43 45 34 50 -14 8 -49 -43 -78 -118 -85
-215 l-5 -81 -35 4 c-24 3 -33 1 -28 -7 4 -6 14 -11 22 -11 8 0 14 -4 14 -10
0 -18 -16 -11 -47 22 -39 42 -50 64 -63 125 -9 41 -7 59 9 111 10 35 32 79 47
100 23 31 24 34 5 17 -29 -26 -55 -76 -71 -142 -11 -41 -11 -68 -2 -134 7 -45
10 -85 7 -87 -3 -3 -17 22 -32 54 -24 51 -28 71 -28 154 1 79 4 102 23 138 28
52 67 89 135 124 29 15 48 27 43 28 -21 1 -130 -67 -155 -98 -58 -70 -79 -215
-45 -320 22 -66 84 -148 110 -144 27 5 40 4 129 -9 44 -6 103 -11 131 -12 44
-2 53 -6 70 -32 29 -44 91 -76 139 -72 22 2 73 -5 114 -15 71 -19 77 -19 137
-3 60 16 66 16 132 -1 142 -36 275 16 389 152 17 21 23 21 93 13 69 -9 123
-11 175 -7 11 1 39 1 62 0 l43 -2 -1 -74 c-1 -84 15 -126 56 -144 14 -7 69
-12 121 -12 66 0 102 -4 117 -14 35 -23 202 -45 272 -36 40 5 82 3 127 -6 73
-15 258 -7 473 21 66 8 254 16 470 20 198 3 425 12 505 20 80 8 186 17 235 20
184 13 293 47 317 100 6 14 18 25 27 25 58 1 235 32 282 50 153 57 302 198
388 368 12 23 25 42 30 42 5 0 42 -16 83 -35 85 -40 171 -58 243 -49 72 9 170
59 222 113 55 56 106 155 98 191 -4 21 5 34 59 83 85 75 141 182 134 252 -3
26 -16 58 -31 78 l-26 34 20 32 c89 147 73 368 -33 425 l-35 20 -6 90 c-7 116
-21 162 -62 203 -29 29 -39 33 -87 33 -40 0 -65 -7 -104 -30 -63 -35 -158
-129 -233 -229 l-56 -75 -7 90 c-42 501 -157 840 -408 1194 -172 243 -406 481
-630 640 -183 131 -522 304 -803 411 -268 103 -321 134 -633 380 -89 70 -189
145 -222 168 -59 40 -61 42 -50 71 5 17 7 38 4 46 -4 9 -1 32 6 50 9 27 9 48
-6 116 -20 100 -20 93 -18 144 2 37 7 44 45 69 89 59 224 208 309 341 65 102
148 301 182 439 60 240 67 561 17 770 -18 75 -18 81 -3 97 55 55 82 90 82 107
0 10 34 56 76 102 117 129 162 193 170 244 9 60 -11 90 -72 108 l-46 13 54 41
c89 68 163 111 321 188 84 40 188 97 232 125 102 67 235 201 309 313 96 144
221 446 286 692 38 142 80 391 79 463 -2 52 -2 49 -10 -28 -40 -393 -224 -928
-398 -1161 -68 -90 -191 -205 -286 -267 -44 -29 -136 -80 -205 -114 -158 -77
-275 -147 -346 -204 -43 -35 -72 -49 -131 -65 -92 -23 -93 -23 -93 -3 0 9 -22
60 -49 114 l-48 99 92 135 c104 154 166 277 169 337 1 27 8 44 19 51 9 5 17
17 17 27 0 10 7 24 15 31 13 10 13 15 3 21 -14 9 25 45 71 66 15 6 20 12 14
12 -8 1 -13 15 -13 36 0 19 -4 35 -10 35 -5 0 -7 7 -3 16 5 13 7 13 14 2 6 -9
9 -7 9 9 0 21 53 105 88 142 7 7 11 19 8 27 -7 17 18 36 38 28 9 -3 16 -1 16
5 0 6 -8 11 -17 11 -15 0 -14 4 6 23 16 15 25 18 28 9 3 -6 9 -10 14 -7 5 4 2
17 -7 31 -16 23 -16 24 10 24 17 0 25 4 20 11 -3 6 -17 9 -30 6 -13 -2 -24 0
-24 4 0 17 -30 9 -42 -11 -15 -23 -38 -27 -38 -7 0 8 -7 28 -16 46 -9 17 -13
38 -10 46 6 17 -9 21 -19 5 -4 -6 -12 -7 -18 -4 -8 5 -8 3 1 -7 17 -19 15 -24
-13 -37 -40 -19 -39 4 5 59 30 38 41 47 46 35 3 -9 11 -13 18 -9 6 4 5 -1 -3
-10 -9 -11 -10 -17 -2 -17 6 0 11 -5 11 -11 0 -5 -4 -7 -10 -4 -20 13 -9 -7
18 -30 33 -30 46 -31 39 -5 -3 12 1 25 12 33 9 6 22 24 28 40 7 15 17 27 23
27 5 0 10 9 10 20 0 13 7 20 20 20 11 0 20 5 20 10 0 6 -9 10 -20 10 -11 0
-20 -5 -20 -11 0 -6 -10 -9 -22 -7 -13 2 -22 9 -20 16 3 18 -15 14 -24 -5 -4
-10 -8 -21 -8 -25 -1 -3 -5 -10 -10 -15 -5 -4 -6 -3 -2 4 10 17 -7 23 -22 7
-11 -12 -10 -14 5 -16 10 0 27 0 38 1 20 2 20 1 0 -13 -23 -16 -75 -10 -75 8
0 17 201 187 212 180 4 -3 5 -11 1 -17 -5 -9 -3 -9 8 0 8 6 19 13 24 15 6 1 9
6 8 10 -2 4 4 5 12 2 8 -4 15 -1 15 5 0 6 -10 11 -22 11 -22 1 -21 2 7 25 17
14 35 25 40 25 6 0 3 -5 -5 -10 -11 -8 -9 -9 10 -6 14 3 27 5 30 6 3 2 8 2 13
1 4 0 7 4 7 10 0 6 -7 9 -15 6 -8 -4 -17 -1 -21 5 -4 6 -3 8 3 5 6 -4 13 0 16
8 10 24 100 65 120 54 24 -14 39 -2 27 21 -8 15 -6 21 14 32 93 52 124 67 130
63 3 -3 4 -2 1 2 -8 11 103 63 122 57 13 -4 14 -3 5 3 -10 7 0 15 34 28 84 32
110 35 133 13 12 -10 21 -23 21 -28 0 -4 3 -15 6 -23 3 -9 0 -15 -8 -14 -38 1
-44 -4 -45 -43 -1 -22 2 -40 8 -40 5 0 9 7 9 15 0 8 5 15 10 15 6 0 10 7 10
15 0 8 -5 15 -11 15 -5 0 -7 4 -4 10 7 12 48 7 51 -6 1 -5 9 -32 18 -61 15
-47 15 -62 2 -140 -45 -273 -127 -562 -211 -740 -24 -51 -40 -93 -36 -93 15 0
97 200 159 390 40 121 65 232 93 404 19 120 20 146 10 205 -14 79 -47 141 -83
159 -23 11 -35 9 -90 -11 -92 -35 -174 -78 -345 -180 -446 -265 -623 -463
-875 -974 -88 -179 -143 -323 -204 -532 -3 -8 -7 -11 -10 -8 -3 2 18 112 46
243 28 132 53 253 57 269 22 114 139 401 209 510 112 177 266 344 437 474 54
41 97 76 97 78 0 8 -137 -93 -220 -161 -142 -118 -331 -314 -426 -441 -118
-159 -234 -360 -364 -635 -150 -316 -162 -340 -178 -340 -8 0 -11 7 -8 18 3 9
18 100 33 202 25 167 28 211 28 450 0 235 -3 278 -23 377 -40 201 -137 473
-232 651 -96 179 -230 385 -325 499 -89 107 -171 133 -219 70z m103 8 c35 -18
137 -128 184 -198 106 -158 274 -453 264 -463 -4 -5 -47 62 -47 73 0 19 -167
283 -249 393 -46 62 -56 73 -88 104 -49 48 -61 57 -68 46 -3 -5 4 -14 16 -20
20 -11 20 -12 3 -31 -10 -11 -24 -17 -31 -15 -13 5 -17 -4 -14 -37 1 -9 -5
-20 -13 -23 -12 -5 -16 -21 -16 -68 0 -74 33 -336 54 -426 21 -91 51 -273 81
-490 14 -102 34 -246 45 -320 11 -74 22 -175 24 -225 6 -107 3 -94 -30 140
-14 99 -34 223 -44 275 -11 52 -31 174 -46 270 -14 96 -40 258 -59 360 -60
336 -81 627 -43 604 7 -5 7 -1 0 12 -8 14 -7 23 5 36 20 22 35 22 72 3z m525
-825 c5 -17 4 -20 -2 -10 -5 8 -13 26 -16 40 -5 17 -4 20 2 10 5 -8 13 -26 16
-40z m45 -140 c0 -9 -4 -8 -9 5 -5 11 -9 27 -9 35 0 9 4 8 9 -5 5 -11 9 -27 9
-35z m1254 -4 c5 -12 -2 -14 -31 -7 -2 1 0 6 3 11 9 14 22 12 28 -4z m-552
-289 c-17 -25 -34 -47 -38 -49 -5 -1 -26 -25 -48 -52 -69 -84 -87 -103 -76
-81 26 55 178 241 188 231 3 -3 -9 -25 -26 -49z m222 -45 c-3 -9 -20 -29 -37
-44 -24 -22 -26 -26 -10 -22 33 9 39 -34 10 -61 -13 -12 -25 -28 -28 -36 -3
-8 -9 -10 -14 -6 -5 4 -2 12 5 16 8 5 10 14 6 21 -6 9 -12 6 -21 -11 -11 -21
-10 -25 9 -36 17 -9 18 -12 6 -13 -23 0 -39 23 -34 49 6 33 95 172 105 166 5
-3 6 -13 3 -23z m13 -24 c-8 -18 -19 -34 -25 -36 -6 -2 -2 12 10 32 26 45 32
46 15 4z m-138 -169 c-10 -5 -15 -19 -14 -34 2 -14 -1 -22 -7 -18 -5 3 -20 -7
-33 -23 -13 -16 -23 -26 -24 -22 0 4 14 23 31 43 17 19 28 35 24 35 -3 0 -3 6
2 13 4 6 8 15 9 20 1 4 2 10 3 14 0 4 7 1 14 -6 10 -10 9 -14 -5 -22z m-28
-100 c0 8 3 12 6 8 4 -3 4 -14 0 -23 -5 -13 -9 -14 -21 -4 -8 7 -12 17 -9 22
4 6 10 5 15 -3 7 -12 9 -12 9 0z m-375 -113 c-49 -88 -56 -85 -9 4 20 39 39
69 41 66 3 -2 -12 -34 -32 -70z m-99 -213 c-8 -15 -15 -25 -16 -21 0 12 23 58
27 54 3 -2 -2 -17 -11 -33z m-312 -579 c14 -14 14 -18 0 -45 -12 -24 -21 -30
-42 -27 -21 2 -28 9 -30 31 -6 50 38 75 72 41z m303 -42 c16 4 19 2 16 -13
-11 -40 -83 -5 -83 40 l0 26 23 -29 c17 -21 30 -28 44 -24z m-374 -42 c20 -22
20 -23 2 -10 -28 21 -35 32 -34 55 l1 20 5 -20 c3 -11 15 -31 26 -45z m687 21
c5 -9 5 -22 1 -29 -5 -8 -13 0 -24 22 -14 30 -14 34 -1 29 8 -3 19 -13 24 -22z
m-788 -71 c75 -34 145 -70 155 -79 10 -9 26 -20 36 -24 10 -4 64 -33 120 -65
56 -32 118 -65 137 -72 19 -8 46 -26 59 -40 13 -14 21 -19 16 -12 -6 11 -3 12
14 3 11 -7 21 -18 21 -26 0 -8 11 -17 25 -21 14 -3 31 -14 38 -23 6 -9 20 -17
30 -18 34 -1 38 -3 32 -13 -3 -5 1 -10 10 -10 10 0 13 -5 9 -12 -4 -7 -3 -8 4
-4 11 6 59 -21 110 -61 20 -16 21 -21 9 -37 -12 -16 -16 -17 -38 -5 -48 27
-118 84 -115 94 2 6 -1 19 -6 30 -8 18 -8 18 -4 -2 5 -27 -6 -29 -28 -7 -9 8
-16 13 -16 9 0 -9 -39 14 -96 56 -29 21 -54 36 -56 34 -3 -3 -51 20 -109 50
-139 74 -417 212 -509 252 -73 33 -73 33 -54 54 25 28 42 24 206 -51z m-478
18 c-8 -27 -33 -58 -47 -58 -11 0 0 49 15 67 18 22 40 16 32 -9z m1548 2 c21
-6 44 -18 53 -26 20 -20 19 -77 -1 -117 -23 -45 -102 -142 -169 -207 -56 -55
-56 -55 -44 -20 7 19 42 64 79 101 36 37 64 72 62 78 -2 6 6 26 17 44 19 29
21 30 21 9 0 -13 4 -20 10 -17 5 3 9 16 8 28 0 12 3 36 7 52 4 17 4 27 0 22
-5 -4 -17 1 -28 10 -19 17 -20 17 -14 1 5 -15 3 -16 -21 -6 -37 16 -48 26 -26
25 11 -1 21 -5 24 -8 3 -4 10 -1 17 6 10 11 4 13 -32 10 -42 -4 -61 7 -32 18
19 8 29 8 69 -3z m-686 -35 c12 -19 14 -28 5 -38 -6 -8 -8 -17 -4 -20 3 -4 0
-13 -6 -21 -7 -8 -10 -20 -6 -26 11 -18 31 -11 43 15 12 27 34 38 92 49 l35 7
-40 -19 c-23 -11 -53 -33 -67 -51 -15 -17 -36 -31 -47 -31 -16 0 -64 16 -80
27 -2 1 6 18 17 38 16 26 18 35 7 35 -7 0 -19 -16 -25 -36 -10 -31 -10 -38 7
-56 18 -20 18 -21 -2 -10 -42 22 -58 49 -52 89 11 70 89 100 123 48z m-1096
-60 c0 -16 -9 -19 -34 -9 -25 9 -19 24 9 24 16 0 25 -6 25 -15z m471 -17 c10
-16 174 -78 207 -78 20 0 31 -4 27 -10 -14 -23 -105 -10 -175 25 -80 40 -102
43 -128 14 -17 -17 -20 -18 -25 -5 -15 37 -72 -8 -65 -51 6 -35 -118 -75 -193
-63 -36 6 -37 5 -48 -31 -13 -43 -67 -104 -128 -144 -36 -23 -101 -96 -128
-144 -4 -8 22 9 60 37 67 51 138 84 211 98 l39 7 -30 9 c-16 6 -43 13 -60 17
l-30 8 45 13 c72 21 215 17 280 -8 165 -65 256 -205 255 -392 -1 -112 -11
-130 -73 -130 -26 0 -54 5 -62 10 -12 7 -8 10 15 10 40 0 75 10 75 21 0 5 -13
9 -29 9 -52 0 -83 19 -171 104 -67 65 -100 88 -146 105 -122 47 -274 12 -386
-88 -48 -43 -186 -236 -176 -247 4 -3 16 0 28 6 13 7 20 7 16 2 -3 -6 -27 -20
-52 -32 -25 -12 -43 -24 -41 -26 2 -2 29 2 60 8 l57 12 103 -52 c167 -86 312
-103 415 -50 54 28 117 104 134 163 15 51 15 51 37 31 10 -9 41 -19 69 -23
l50 -6 -30 -51 c-35 -60 -73 -103 -108 -121 -30 -15 -279 -75 -313 -75 -13 0
-27 -3 -31 -7 -4 -4 -24 -6 -44 -5 -33 2 -35 1 -18 -11 101 -65 175 -149 229
-257 31 -62 32 -69 32 -190 0 -122 -1 -128 -33 -192 -37 -75 -136 -175 -218
-220 -27 -15 -101 -40 -164 -57 -164 -44 -233 -43 -393 9 -69 21 -167 46 -218
55 -141 24 -191 42 -271 94 -232 152 -375 389 -407 674 -13 116 -13 117 0 94
6 -11 26 -25 44 -33 39 -16 98 -4 132 29 13 11 25 19 27 16 2 -2 7 -49 10
-104 8 -128 27 -184 75 -228 111 -100 234 -87 411 42 62 46 69 48 165 59 55 7
117 15 137 18 l37 6 31 -62 c17 -34 33 -60 35 -58 10 10 -27 150 -56 211 -38
82 -52 93 -32 26 26 -90 -8 -112 -207 -130 -269 -25 -440 39 -555 206 -37 52
-39 61 -43 144 -3 55 0 96 7 109 19 36 91 70 183 86 111 19 157 43 201 105 43
60 69 74 207 116 58 18 146 48 196 68 50 19 117 40 150 47 73 14 111 33 199
99 118 89 159 148 160 231 0 63 13 79 29 35 10 -28 15 -30 71 -33 87 -5 142
18 155 67 12 44 19 55 45 68 21 12 127 5 136 -9z m-255 -4 c-3 -9 -6 -22 -6
-30 0 -19 -29 -18 -36 1 -9 24 3 45 27 45 15 0 19 -4 15 -16z m-288 -17 c2
-11 -3 -17 -17 -17 -23 0 -35 15 -26 31 10 15 39 6 43 -14z m-429 -38 c18 -6
36 -21 41 -33 30 -80 -79 -169 -124 -101 -13 19 -14 30 -6 45 16 30 42 26 34
-5 -5 -22 -3 -25 20 -25 19 0 27 6 32 27 18 71 -47 75 -147 9 -61 -41 -129
-69 -129 -53 0 16 170 123 220 138 14 4 25 8 26 8 1 1 16 -4 33 -10z m1926
-29 c3 -6 -1 -7 -10 -4 -10 4 -22 -1 -30 -12 -8 -11 -15 -14 -15 -8 0 26 42
45 55 24z m-935 -76 c0 -29 -21 -54 -63 -76 -38 -21 -56 -23 -194 -23 -90 0
-148 4 -143 9 15 15 101 24 171 19 84 -7 160 16 190 58 22 32 39 38 39 13z
m283 -1 c-2 -7 27 -45 65 -84 52 -56 61 -70 42 -64 -14 4 -51 34 -83 66 -49
50 -63 59 -93 59 -70 0 -145 -66 -165 -145 -13 -50 -18 -54 -37 -25 -10 16
-10 25 -1 43 58 109 139 169 224 165 33 -2 49 -7 48 -15z m241 -24 c22 -18 26
-27 20 -48 -4 -14 -8 -34 -9 -44 -1 -10 -8 -23 -16 -28 -18 -11 -76 -12 -83 0
-6 9 33 27 69 33 27 4 32 44 7 59 -12 7 -18 19 -14 27 3 10 1 13 -6 8 -7 -4
-12 -2 -12 3 0 17 15 13 44 -10z m-1933 -12 c-13 -13 -26 -3 -16 12 3 6 11 8
17 5 6 -4 6 -10 -1 -17z m2509 3 c21 -21 24 -39 14 -77 -11 -41 -29 -26 -26
20 5 55 -13 72 -63 63 -24 -5 -39 -15 -45 -29 -6 -16 -9 -18 -9 -5 -2 44 93
64 129 28z m-2382 -51 c3 -28 -16 -43 -43 -33 -18 7 -20 50 -2 57 25 11 42 1
45 -24z m499 15 c13 -4 20 -11 16 -20 -4 -10 -23 -13 -72 -12 -96 1 -132 -20
-186 -112 l-27 -45 5 48 c5 54 43 103 101 131 31 16 122 21 163 10z m1830 -80
c-2 -14 0 -27 6 -31 5 -3 7 -1 4 4 -4 6 0 14 9 17 26 10 34 7 27 -11 -4 -11
-3 -14 5 -9 8 5 10 2 6 -9 -11 -27 -39 -36 -62 -19 -22 15 -28 47 -16 78 9 24
27 7 21 -20z m-1917 -28 c0 -23 -22 -41 -34 -29 -11 11 -6 41 7 46 23 10 27 7
27 -17z m-284 -11 c8 -33 -4 -45 -21 -22 -17 24 -48 9 -70 -33 -25 -48 -20
-70 16 -70 23 0 41 10 65 36 29 30 35 33 41 18 4 -12 -5 -27 -31 -52 -36 -32
-42 -34 -92 -30 -30 3 -57 7 -60 10 -8 9 17 90 35 112 22 26 72 56 93 56 11 0
20 -10 24 -25z m1564 11 c75 -19 90 -26 90 -42 0 -8 -1 -14 -2 -14 -2 0 -28 7
-58 15 -110 30 -204 10 -224 -47 -14 -41 3 -79 39 -91 66 -21 82 -62 44 -111
-40 -51 -114 -72 -154 -42 -16 12 -13 14 35 18 45 5 59 11 82 38 35 38 32 51
-13 63 -71 18 -93 68 -61 141 35 77 106 100 222 72z m-1840 -10 c0 -2 -35 -16
-77 -31 -92 -32 -288 -129 -322 -159 l-24 -21 12 23 c23 44 192 136 316 171
70 20 95 24 95 17z m2100 -77 c-6 -21 -5 -53 4 -97 12 -54 21 -72 55 -106 37
-37 46 -41 91 -41 55 0 62 -7 26 -30 -17 -11 -35 -14 -64 -9 -36 6 -42 3 -57
-20 -24 -37 -16 -161 14 -210 27 -44 65 -68 99 -64 26 3 27 5 24 53 l-2 50 20
-35 c24 -43 25 -58 3 -82 -10 -12 -30 -18 -56 -18 -35 0 -46 6 -83 45 -47 49
-64 94 -64 171 0 67 17 114 40 114 33 0 29 14 -16 62 -43 46 -44 46 -55 25 -6
-12 -23 -34 -37 -49 l-26 -28 22 -23 c23 -24 30 -57 12 -57 -5 0 -14 9 -20 20
-16 29 -46 43 -69 30 -36 -19 -51 -2 -51 54 0 74 -26 142 -71 187 -32 32 -46
39 -78 39 -24 0 -48 -8 -66 -21 l-27 -22 4 24 c4 29 41 49 94 49 83 0 153 -83
177 -211 6 -32 17 -59 23 -59 21 0 64 42 84 81 14 27 20 58 20 109 0 42 5 77
13 85 20 23 26 17 17 -16z m364 -101 c55 -253 36 -619 -44 -868 -72 -220 -218
-463 -358 -592 -55 -51 -169 -126 -261 -173 -43 -21 -169 -65 -189 -65 -26 0
6 28 46 41 140 45 293 133 391 226 39 37 71 71 71 75 0 12 -38 10 -45 -2 -10
-16 -102 -12 -205 10 -52 11 -113 23 -135 26 l-40 7 32 10 c23 7 56 4 130 -12
159 -34 250 -24 308 35 93 92 220 363 254 539 7 33 14 70 17 83 2 12 0 22 -6
22 -5 0 -10 -6 -10 -14 0 -22 -51 -78 -66 -72 -8 3 -13 0 -11 -7 2 -12 -116
-76 -140 -77 -33 0 -6 24 60 54 107 48 169 120 187 214 15 83 12 464 -4 504
-9 19 -44 34 -103 43 -59 9 -54 25 8 25 38 0 55 -5 65 -17 12 -16 13 -13 14
25 0 62 15 44 34 -40z m-111 -51 c11 -29 1 -72 -16 -75 -16 -3 -17 -1 -7 18 6
12 8 29 4 38 -13 30 -12 41 1 36 7 -3 15 -11 18 -17z m-2593 -37 c12 -8 10
-10 -10 -11 -25 -1 -24 -1 5 -14 l30 -14 -42 -1 c-39 0 -71 19 -45 28 7 2 10
8 6 13 -7 12 37 11 56 -1z m1105 -72 c37 -16 43 -53 14 -84 -26 -28 -64 -31
-91 -7 -33 29 -17 78 32 96 8 3 16 6 17 6 1 1 14 -4 28 -11z m1579 -60 c-15
-27 -47 -57 -55 -52 -5 3 -9 0 -9 -6 0 -6 -5 -8 -10 -5 -6 4 1 16 17 28 15 12
29 20 31 17 2 -3 8 3 13 13 6 9 12 17 15 17 3 0 2 -6 -2 -12z m-548 -40 c59
-40 86 -91 92 -171 5 -70 -9 -108 -55 -146 -33 -28 -34 -30 -19 -52 14 -22 13
-26 -4 -49 l-20 -25 0 33 c0 33 -14 43 -24 17 -8 -22 -26 -18 -26 6 0 13 4 18
13 13 6 -4 3 3 -8 15 -21 24 -71 49 -119 60 -16 4 -32 13 -34 20 -6 19 78 6
129 -21 38 -20 39 -20 71 -1 47 27 70 77 63 133 -14 94 -79 163 -156 163 -49
0 -89 -33 -89 -75 0 -32 31 -68 59 -68 25 0 37 -18 22 -33 -18 -18 -86 8 -99
38 -15 32 -16 100 -2 125 16 30 60 49 111 50 36 0 58 -7 95 -32z m-1184 -65
c-4 -88 -13 -100 -47 -63 -16 17 -17 25 -7 59 11 33 51 97 56 89 1 -2 0 -40
-2 -85z m1634 25 c4 -7 4 -10 0 -7 -8 8 -50 -29 -59 -51 -4 -12 -6 -11 -6 3
-1 9 -2 20 -2 24 -1 6 40 35 58 42 1 1 5 -5 9 -11z m-1195 -114 c-5 -16 -13
-28 -20 -26 -6 1 -11 -5 -11 -14 0 -26 -68 -47 -135 -41 -56 4 -133 32 -122
43 3 3 19 -2 36 -10 59 -31 168 -9 221 45 19 20 36 35 37 34 1 0 -1 -14 -6
-31z m379 -105 c19 -13 50 -31 70 -40 29 -14 32 -18 17 -24 -26 -11 -63 2
-102 37 -46 40 -58 29 -63 -57 -4 -67 -17 -84 -28 -39 -7 27 2 163 13 191 5
13 11 10 32 -14 14 -17 42 -41 61 -54z m-226 -99 c14 -5 32 -22 40 -39 13 -25
13 -31 1 -41 -11 -9 -17 -6 -29 18 -37 71 -128 47 -123 -32 2 -27 14 -47 47
-82 57 -58 88 -74 145 -74 115 0 191 92 135 163 -38 49 -17 66 26 20 46 -50
44 -99 -6 -157 -32 -36 -102 -66 -155 -66 -51 0 -136 49 -173 100 -18 25 -37
51 -43 58 -6 7 -13 28 -16 48 -11 68 71 115 151 84z m819 -122 c-4 -7 -8 -16
-8 -19 0 -3 -15 -18 -32 -33 -60 -50 -80 -176 -38 -240 23 -34 75 -36 98 -3
12 18 18 20 28 9 17 -16 3 -41 -34 -62 -39 -22 -104 3 -131 49 -47 81 -13 224
67 282 42 30 64 38 50 17z m-304 -42 c14 -16 4 -46 -14 -46 -16 0 -29 35 -20
50 9 14 20 13 34 -4z m-2033 -20 c-6 -24 9 -49 36 -59 9 -3 10 -8 3 -15 -17
-19 -59 9 -63 41 -2 15 -8 27 -13 27 -5 0 -9 7 -9 15 0 9 10 15 26 15 23 0 25
-3 20 -24z m2406 -93 c21 -25 29 -53 23 -74 -10 -29 -25 -22 -25 11 0 20 -7
33 -21 41 -26 14 -37 4 -41 -41 -2 -19 -7 -35 -13 -35 -15 0 -18 84 -4 101 16
19 63 18 81 -3z m-932 -23 c0 -28 -15 -32 -34 -11 -17 18 -16 20 1 29 22 13
33 7 33 -18z m560 -97 c43 -25 54 -52 41 -100 -18 -67 -54 -80 -85 -30 -8 12
-4 21 17 41 45 42 31 62 -48 69 -40 4 -58 0 -92 -20 -40 -23 -63 -24 -63 -3 0
10 51 39 90 51 44 13 111 10 140 -8z m-249 -77 c-7 -8 -25 -18 -41 -21 -54
-12 -110 -100 -110 -172 0 -39 31 -113 57 -135 9 -7 38 -15 65 -18 63 -6 63
-24 -1 -28 -40 -2 -54 1 -80 24 -71 59 -93 173 -51 260 25 51 48 72 97 90 53
18 79 18 64 0z m42 -170 c7 -17 -17 -53 -26 -39 -8 12 3 53 13 53 4 0 10 -6
13 -14z m-297 -181 c28 -8 61 -26 74 -40 30 -32 16 -32 -52 0 -59 27 -102 31
-192 14 -162 -30 -221 -63 -257 -144 -39 -84 -14 -122 84 -132 63 -6 103 8
119 42 14 31 32 33 23 3 -12 -42 -42 -58 -109 -58 -78 0 -122 13 -146 42 -22
26 -26 80 -7 100 6 8 19 27 29 43 18 34 87 86 105 80 6 -2 13 0 15 5 4 13 176
58 224 59 22 1 63 -6 90 -14z m-1308 -17 c13 -13 16 -48 4 -48 -16 0 -52 32
-52 46 0 17 31 19 48 2z m-68 -22 c0 -38 219 -166 284 -166 14 0 75 -15 134
-34 269 -86 584 -125 862 -107 140 10 349 46 439 76 24 8 48 12 54 8 6 -4 7
-1 2 7 -6 10 -4 12 8 7 10 -3 17 -3 17 1 0 4 20 15 45 26 25 10 62 29 82 43
28 19 38 22 44 11 21 -32 -3 -52 -116 -94 -133 -49 -151 -54 -214 -59 -30 -3
-57 -8 -60 -12 -6 -8 -10 -9 -57 -11 -14 -1 -22 -6 -19 -12 4 -7 -8 -8 -37 -4
-33 4 -40 3 -28 -6 12 -9 5 -10 -28 -5 -24 4 -48 3 -55 -3 -19 -16 -318 -18
-462 -4 -103 10 -283 34 -350 46 -39 8 -125 38 -130 46 -13 20 -25 9 -25 -23
0 -35 -26 -67 -65 -81 -18 -7 -16 -10 17 -29 21 -12 41 -30 44 -40 5 -17 11
-14 45 21 49 52 125 72 191 53 60 -18 118 -79 118 -122 0 -30 -38 -99 -41 -74
0 6 -2 23 -3 39 -5 67 -92 96 -171 56 -49 -25 -51 -25 -60 3 -14 46 -17 -6 -5
-79 33 -192 -41 -381 -187 -476 -75 -49 -119 -69 -211 -93 -34 -8 -69 -18 -78
-22 -15 -5 -16 -1 -10 33 5 33 5 36 -6 19 -6 -11 -18 -26 -25 -33 -11 -11 -13
-11 -14 0 0 10 -2 10 -6 1 -7 -18 -23 -16 -45 4 -10 9 -18 11 -18 6 0 -6 10
-17 23 -26 12 -8 19 -18 15 -22 -10 -11 -26 3 -44 37 -9 16 -11 27 -5 24 14
-9 14 -5 -4 31 -9 17 -25 73 -36 124 -34 155 -14 288 59 394 77 112 107 146
151 174 88 57 97 81 42 114 -47 28 -95 20 -65 -11 13 -12 13 -16 2 -23 -10 -7
-8 -9 6 -9 15 0 16 -3 6 -15 -13 -16 -57 -17 -77 -2 -23 17 -15 62 15 91 45
42 87 44 160 7 87 -44 83 -15 -6 42 -95 62 -142 105 -142 131 0 13 3 26 7 29
11 12 33 7 33 -7z m114 -55 l29 -30 -43 21 c-30 15 -38 23 -28 29 7 5 13 9 14
9 0 0 13 -13 28 -29z m-149 -39 c3 -11 17 -24 30 -30 33 -15 32 -29 -5 -37
-38 -8 -90 -68 -90 -103 0 -29 44 -82 68 -82 18 0 14 -10 -14 -36 -31 -30 -35
-30 -63 0 -15 16 -26 44 -30 78 l-8 53 -8 -55 -9 -55 -8 35 c-18 81 17 171 86
226 37 29 43 29 51 6z m1470 -2 c3 -5 1 -18 -4 -27 -9 -16 -10 -16 -11 4 0 12
-8 24 -17 26 -14 4 -13 5 4 6 12 0 25 -3 28 -9z m235 -40 c0 -11 -4 -20 -8
-20 -5 0 -8 -10 -8 -22 1 -24 -54 -68 -85 -68 -30 0 -22 15 15 28 23 9 40 24
52 50 10 20 17 40 16 45 -1 4 3 7 8 7 6 0 10 -9 10 -20z m-360 -82 c0 -9 9
-23 20 -31 18 -12 18 -15 6 -20 -11 -4 -21 3 -31 23 -17 33 -22 86 -5 60 5 -8
10 -23 10 -32z m687 -112 c3 -39 1 -71 -6 -84 -17 -32 -73 -71 -133 -93 l-53
-19 26 22 c14 13 47 40 73 61 53 44 59 73 26 145 -10 23 -15 42 -10 42 6 0 9
4 8 9 -2 5 6 16 17 25 19 14 21 13 33 -16 7 -16 16 -58 19 -92z m-2124 -88
c21 -29 26 -43 18 -51 -22 -22 -88 44 -75 76 10 27 27 20 57 -25z m1802 20
c25 -12 45 -26 45 -30 0 -17 -43 -67 -53 -61 -6 3 -7 1 -3 -5 3 -6 2 -13 -3
-16 -5 -3 -12 1 -15 10 -4 10 3 23 19 36 31 25 32 35 0 50 -20 9 -28 8 -44 -6
-11 -10 -25 -15 -30 -11 -6 3 -11 1 -11 -4 0 -6 4 -11 8 -11 5 0 17 -7 28 -16
18 -14 18 -15 -4 -4 -24 12 -46 5 -36 -11 3 -5 10 -7 15 -4 5 4 6 -2 2 -11 -5
-14 -3 -16 13 -10 16 6 17 5 6 -6 -11 -11 -16 -9 -30 9 -12 16 -21 20 -31 14
-8 -5 -21 -7 -29 -3 -11 4 1 20 43 59 32 29 60 53 62 53 1 0 23 -10 48 -22z
m-795 -32 c8 -7 39 -21 68 -32 63 -22 88 -44 49 -44 -13 0 -41 -7 -60 -15 -20
-8 -55 -15 -77 -15 -61 0 -39 -20 23 -21 29 -1 44 -3 35 -6 -10 -2 -18 -10
-18 -18 0 -10 -19 -12 -87 -8 -49 3 -90 7 -92 9 -3 2 6 15 18 28 29 31 40 108
20 132 -13 16 -9 16 46 10 33 -5 67 -14 75 -20z m352 -20 c25 -13 58 -26 72
-30 14 -3 26 -10 26 -14 -1 -10 -132 -52 -164 -52 -14 0 -34 9 -43 20 -10 11
-23 20 -30 20 -22 0 -14 19 20 50 39 36 58 37 119 6z m758 -31 c0 -23 -12 -31
-102 -74 -349 -164 -708 -209 -1241 -156 -70 6 -130 14 -132 17 -12 11 9 38
29 38 12 0 16 -3 10 -8 -7 -4 20 -8 58 -9 39 -2 76 -6 82 -11 18 -13 381 -15
520 -2 340 30 588 98 721 198 49 38 55 38 55 7z m-1320 11 c0 -18 -15 -36 -31
-36 -18 0 -26 20 -12 33 7 8 43 10 43 3z m1285 -86 c-9 -14 -123 -71 -210
-103 -117 -44 -386 -100 -402 -83 -4 3 4 6 17 6 12 0 39 4 59 9 20 5 86 22
146 36 112 28 273 88 348 131 42 23 55 25 42 4z m37 -20 c5 -33 -6 -28 -17 8
-3 12 -2 22 3 22 5 0 12 -14 14 -30z m138 -71 c30 -20 80 -57 111 -81 340
-263 393 -296 604 -378 588 -228 915 -427 1207 -735 343 -362 529 -696 618
-1110 41 -190 52 -290 57 -535 8 -372 -22 -627 -103 -898 -94 -309 -290 -542
-511 -607 -49 -14 -185 -35 -229 -35 -13 0 -24 4 -24 9 0 5 40 12 88 15 252
20 435 161 571 440 47 97 61 136 109 301 66 228 99 715 69 992 -12 108 -14
114 -48 150 -20 21 -53 68 -75 105 -21 36 -42 64 -46 61 -5 -2 -8 -3 -8 -1 0
2 -4 19 -10 38 -9 34 -9 35 8 13 9 -13 42 -59 72 -103 65 -94 86 -109 75 -53
-4 21 -13 69 -19 108 l-12 69 -35 1 c-37 0 -50 10 -86 60 -27 39 -46 139 -34
180 8 27 9 26 10 -21 1 -72 27 -138 67 -174 34 -30 64 -39 64 -20 0 43 -127
371 -149 384 -13 8 -66 -63 -96 -129 -19 -40 -25 -46 -30 -32 -17 43 39 141
99 174 19 11 19 12 -5 59 -34 66 -132 214 -141 214 -4 0 -23 -14 -43 -31 -27
-24 -35 -39 -35 -64 0 -35 13 -45 56 -45 32 0 31 -18 -2 -26 -34 -9 -72 10
-84 40 -19 51 29 136 77 136 13 0 23 3 23 6 0 14 -180 233 -264 321 l-40 42
-29 -21 c-15 -11 -38 -40 -49 -64 -20 -40 -24 -43 -57 -39 -65 6 -120 35 -156
82 -19 24 -35 48 -37 53 -2 6 -32 -2 -67 -16 -74 -30 -109 -28 -184 11 -60 31
-62 31 -123 0 -59 -30 -64 -30 -64 -6 0 11 14 31 32 45 18 14 29 28 25 32 -4
4 -45 10 -91 12 -68 4 -91 1 -129 -16 -79 -35 -113 -68 -157 -153 -22 -43 -45
-79 -51 -79 -34 0 27 146 88 206 17 17 56 44 86 59 49 23 65 26 136 23 83 -3
92 0 66 22 -11 9 -41 11 -103 7 -48 -2 -108 0 -134 6 -40 9 -59 7 -124 -13
-101 -30 -148 -31 -174 -4 -20 19 -25 20 -70 8 -127 -33 -235 59 -247 210 -7
80 11 116 71 145 47 23 74 22 131 -7 25 -13 28 -13 18 -1 -7 8 -10 31 -8 52 1
20 -1 35 -5 32 -4 -3 -11 3 -15 12 -3 10 -1 19 4 21 6 2 11 8 11 14 0 5 -14
-2 -32 -17 -68 -57 -168 -4 -168 90 0 40 -3 45 -22 45 -32 0 -52 15 -45 34 4
9 18 16 35 16 25 0 122 51 122 65 0 2 -14 12 -31 21 -31 15 -32 15 -63 -14
-36 -34 -66 -43 -105 -32 -28 8 -29 7 -50 -64 -12 -39 -21 -80 -21 -91 0 -38
-12 -64 -26 -58 -18 7 -10 93 17 180 25 80 24 109 -1 123 -26 14 -111 130
-104 142 3 5 0 7 -8 6 -7 -2 -12 5 -12 14 1 10 -2 15 -7 13 -8 -5 -59 62 -59
77 0 20 20 3 65 -58 28 -36 49 -73 47 -81 -2 -8 1 -12 6 -9 5 3 26 -13 47 -34
22 -22 43 -40 48 -40 11 0 0 66 -16 96 -7 11 -43 47 -82 79 -38 32 -77 64 -85
72 -25 24 37 -6 100 -48z m-428 -103 c-9 -18 -11 -16 -11 19 0 33 1 37 10 21
8 -12 8 -25 1 -40z m248 13 c-6 -10 -15 -19 -20 -19 -13 0 -13 6 2 29 15 25
31 16 18 -10z m-228 -89 c12 0 7 -44 -13 -114 -13 -46 -13 -49 10 -67 31 -25
86 -24 123 2 29 21 30 24 24 78 -5 40 -4 52 3 41 6 -8 11 -10 12 -5 1 6 5 -9
8 -33 l6 -43 23 21 c12 11 22 17 22 12 0 -5 -9 -17 -20 -27 -11 -10 -18 -21
-15 -25 5 -8 -31 -43 -62 -59 -35 -18 -104 -13 -142 10 -32 19 -34 19 -47 2
-7 -10 -14 -22 -14 -26 0 -5 -4 -5 -10 -2 -6 3 -7 -1 -4 -10 4 -10 -13 -33
-52 -70 -68 -64 -131 -98 -171 -93 l-28 4 30 14 c63 29 153 100 192 152 66 86
82 118 95 198 7 41 14 67 16 57 2 -9 8 -17 14 -17z m285 -34 c33 -27 73 -102
73 -136 0 -28 -26 -73 -54 -90 -18 -11 -19 -11 -10 1 20 26 33 80 27 111 -6
30 -103 140 -103 118 0 -6 -5 -8 -11 -4 -8 4 -7 9 2 15 23 15 46 10 76 -15z
m-773 -35 c-9 -10 -26 18 -18 30 5 9 9 8 14 -7 4 -10 6 -21 4 -23z m217 -20
c16 -16 29 -39 29 -51 0 -39 -30 -88 -72 -117 -41 -28 -42 -28 -203 -28 l-162
0 -48 -30 c-63 -39 -140 -140 -161 -211 -21 -72 -13 -125 29 -195 57 -96 165
-132 257 -84 16 8 43 36 61 61 29 42 31 51 27 114 -3 59 -8 74 -34 107 -18 22
-41 39 -56 41 -35 4 -135 -35 -153 -61 -24 -34 -19 -94 10 -122 29 -30 41 -31
80 -5 36 24 45 25 45 6 0 -22 -49 -56 -81 -56 -64 0 -109 45 -109 110 0 84 93
160 197 160 88 0 147 -75 148 -190 0 -88 -30 -150 -90 -184 -103 -57 -160 -57
-247 0 -69 46 -103 95 -118 170 -21 108 27 234 122 320 76 68 114 79 279 79
141 0 147 1 186 27 53 35 72 78 49 113 -13 20 -25 25 -61 25 -50 0 -75 -24
-75 -73 0 -34 -23 -32 -28 2 -10 63 31 100 111 101 30 0 45 -7 68 -29z m435
-247 c-35 -19 -55 -24 -75 -19 -23 7 -20 9 34 25 85 26 97 24 41 -6z m452 -11
c13 -26 4 -43 -23 -43 -27 0 -40 26 -24 46 16 19 37 17 47 -3z m-258 -39 c0
-24 -4 -33 -12 -28 -7 4 -8 3 -4 -4 9 -15 -18 -67 -46 -86 -25 -18 -83 -21
-93 -6 -3 6 0 10 7 11 63 3 103 33 113 83 11 53 16 66 26 66 5 0 9 -16 9 -36z
m-495 -186 c8 -24 -2 -107 -21 -172 -23 -79 -18 -121 18 -177 56 -85 120 -97
213 -38 43 27 45 30 45 77 0 124 -142 142 -160 21 l-6 -44 -16 30 c-19 37 -11
62 33 99 28 24 39 27 78 23 88 -10 128 -99 83 -187 -21 -44 -94 -85 -175 -99
-111 -19 -215 -103 -242 -193 -20 -70 -13 -106 62 -275 11 -26 -13 -11 -35 21
-37 54 -72 147 -72 192 0 91 53 178 146 237 59 38 78 57 55 57 -6 0 -24 20
-42 45 -18 25 -35 45 -39 45 -4 0 -24 -25 -46 -56 -66 -94 -93 -122 -132 -134
-20 -7 -41 -18 -47 -24 -17 -21 -53 -37 -60 -27 -3 5 27 31 66 57 152 103 241
264 256 465 4 66 9 86 19 82 7 -3 16 -14 19 -25z m705 -38 c0 -24 -26 -38 -42
-22 -16 16 -2 42 22 42 13 0 20 -7 20 -20z m-897 -134 c8 -19 -15 -37 -32 -26
-17 10 -7 40 13 40 7 0 16 -6 19 -14z m1171 -135 c119 -21 155 -41 209 -118
37 -52 56 -169 33 -213 -13 -27 -12 -33 5 -66 25 -51 9 -80 -76 -135 -40 -26
-110 -25 -154 2 -43 26 -35 33 21 18 59 -16 114 -4 150 31 31 32 36 65 12 91
-14 15 -13 20 5 50 58 95 -21 244 -151 284 -29 9 -105 19 -168 22 -114 6 -116
5 -148 -22 -34 -29 -44 -79 -20 -103 9 -9 9 -12 1 -12 -20 0 -43 42 -43 77 0
45 44 93 96 103 64 12 113 10 228 -9z m1172 -224 c55 -28 136 -109 159 -159 8
-18 24 -65 35 -104 19 -67 23 -73 58 -87 82 -33 133 -97 125 -155 -7 -46 -20
-48 -28 -4 -11 60 -41 99 -99 126 -56 27 -59 31 -91 136 -10 30 -33 82 -53
116 -34 58 -40 62 -107 88 -127 48 -237 26 -333 -67 -54 -52 -69 -80 -78 -144
-19 -143 63 -263 179 -263 50 0 107 25 107 46 0 6 -18 24 -41 40 -60 41 -79
70 -79 120 0 66 68 134 135 134 35 0 122 -45 135 -70 6 -11 13 -55 17 -99 6
-79 6 -79 48 -109 72 -51 90 -119 50 -196 -8 -15 -15 -35 -15 -42 0 -8 -11
-19 -25 -24 -14 -5 -25 -14 -25 -20 0 -14 7 -13 40 6 39 23 78 8 113 -45 39
-56 67 -74 99 -62 33 12 42 38 23 67 -21 33 -19 38 10 17 28 -21 33 -68 11
-99 -12 -15 -25 -19 -73 -17 -37 1 -51 -2 -38 -7 11 -4 43 -16 70 -26 39 -15
57 -30 83 -68 17 -26 32 -60 32 -75 l-1 -26 -13 30 c-19 42 -60 81 -109 106
-32 17 -58 22 -113 21 -66 -2 -72 0 -84 23 -11 20 -11 27 0 40 18 21 28 19 32
-7 4 -30 39 -35 62 -9 17 19 17 21 -6 63 -23 43 -24 43 -85 46 -45 2 -69 -2
-88 -14 -38 -25 -30 1 10 32 112 85 107 225 -10 284 -28 14 -51 25 -52 26 -2
0 2 14 9 30 15 41 2 118 -25 150 -16 19 -36 27 -69 31 -42 5 -50 3 -78 -25
-21 -21 -30 -40 -30 -63 0 -55 56 -93 78 -52 14 23 42 9 42 -22 0 -20 -5 -25
-25 -25 -30 0 -33 -16 -5 -25 21 -7 36 -46 25 -65 -13 -21 -96 -50 -141 -50
-122 0 -194 77 -216 228 -14 103 -2 145 64 217 116 127 259 165 384 102z
m-1108 -15 c39 -25 44 -95 7 -100 -11 -1 -27 2 -35 8 -13 9 -11 13 9 29 l24
18 -24 17 c-31 22 -85 20 -118 -3 -57 -41 -140 -254 -141 -359 0 -71 -14 -65
-62 27 -29 55 -38 83 -37 119 l0 47 18 -50 c10 -27 28 -66 40 -85 l21 -35 0
35 c0 79 60 233 115 299 51 60 122 73 183 33z m-716 -1 c-8 -4 -12 -12 -10
-17 1 -5 -19 -20 -47 -33 l-50 -24 53 -17 c49 -16 103 -54 100 -69 -1 -3 6
-20 15 -38 29 -55 18 -237 -13 -218 -6 4 -8 16 -4 28 11 34 21 146 13 141 -4
-2 -10 9 -14 24 -7 36 -58 86 -107 106 -134 56 -286 -46 -262 -175 13 -69 59
-87 122 -49 18 11 43 20 55 20 26 0 61 -33 72 -67 9 -33 -10 -29 -35 7 -25 35
-50 38 -75 10 -29 -32 -104 -28 -138 8 -51 53 -44 160 14 226 29 34 57 47 169
80 30 9 73 27 95 40 36 22 78 37 47 17z m1306 -18 c18 -9 39 -28 47 -44 29
-55 11 -82 -22 -33 -42 65 -176 74 -220 15 -21 -29 -25 -96 -9 -136 15 -36 16
-36 68 -33 53 3 53 3 53 -26 0 -24 -6 -31 -32 -40 -18 -6 -40 -18 -49 -27 -22
-22 -35 -100 -24 -138 11 -38 -3 -41 -26 -6 -30 46 -88 24 -136 -53 -28 -45
-38 -21 -12 30 26 52 55 78 94 84 33 5 38 10 48 49 9 35 19 48 52 66 22 13 40
25 40 29 0 3 -16 6 -35 7 -65 2 -96 66 -75 156 18 74 26 86 73 108 47 22 108
19 165 -8z m898 -90 c-3 -8 -6 -17 -6 -19 0 -2 -7 -4 -15 -4 -9 0 -15 9 -15
24 0 19 4 23 21 19 12 -4 18 -11 15 -20z m-2820 -30 c-2 -10 -11 -20 -22 -22
-10 -2 -22 -8 -26 -15 -12 -17 -9 -82 4 -111 12 -27 64 -55 100 -55 33 0 14
-25 -21 -28 -28 -3 -40 3 -77 42 -43 46 -44 47 -44 116 0 75 9 89 62 90 19 0
26 -5 24 -17z m581 -180 c-3 -10 -5 -2 -5 17 0 19 2 27 5 18 2 -10 2 -26 0
-35z m2508 -200 c-3 -12 -19 -30 -36 -40 -44 -26 -71 -84 -78 -173 l-7 -75
-13 40 c-19 55 -90 125 -128 125 -41 0 -76 -27 -70 -55 3 -16 0 -22 -10 -18
-43 17 12 92 73 100 37 5 45 2 83 -32 l41 -37 10 28 c27 74 34 90 48 107 8 9
26 17 39 17 34 0 38 23 10 67 -33 53 -37 69 -24 82 16 16 71 -103 62 -136z
m-2567 53 c-39 -74 -157 -84 -225 -20 -46 44 -36 54 21 20 31 -18 59 -26 92
-26 40 0 51 5 78 34 32 34 54 29 34 -8z m1318 6 c-4 -3 -12 0 -19 7 -9 9 -9
14 3 21 11 7 16 5 18 -6 2 -9 1 -18 -2 -22z m-577 -21 c31 -31 9 -91 -34 -91
-42 0 -72 55 -49 89 19 26 58 27 83 2z m833 -77 c40 -9 105 -32 143 -52 85
-42 191 -125 201 -155 3 -12 15 -42 26 -65 21 -47 38 -134 38 -194 0 -24 8
-47 22 -63 29 -33 34 -32 45 13 8 36 10 37 59 40 39 2 56 -2 78 -19 34 -27 27
-35 -13 -15 -58 30 -91 18 -91 -34 0 -10 -7 -26 -16 -34 -19 -20 -46 -8 -85
36 -22 26 -27 42 -31 107 -4 57 -12 89 -33 131 -17 34 -23 56 -16 58 21 7 10
27 -39 68 -81 66 -189 122 -280 145 -75 19 -103 21 -245 16 -122 -4 -178 -11
-235 -27 -151 -44 -324 -138 -421 -228 -63 -57 -183 -201 -176 -209 2 -2 38
14 78 36 99 52 118 55 184 32 40 -14 71 -36 120 -85 l65 -65 46 21 c48 21 133
22 178 3 18 -8 17 -5 -4 25 -36 51 -40 143 -8 189 31 46 84 73 126 67 46 -7
59 -20 67 -67 7 -43 17 -49 37 -21 21 30 53 42 110 42 30 0 59 5 66 12 12 12
69 -21 113 -68 l24 -25 -25 9 c-14 6 -38 17 -55 26 -19 10 -55 16 -98 16 -62
0 -70 -2 -95 -29 -22 -24 -38 -30 -89 -36 -35 -4 -63 -4 -63 -1 0 3 9 15 20
26 28 28 26 58 -7 71 -64 24 -118 -30 -116 -117 2 -96 73 -174 157 -174 50 0
76 23 76 67 0 29 -5 36 -32 48 -18 7 -50 16 -71 20 -34 7 -55 20 -45 30 7 7
162 -27 177 -38 9 -8 12 -26 8 -60 -9 -101 -97 -133 -203 -73 -37 22 -67 30
-121 34 -90 6 -158 -17 -221 -74 -37 -32 -46 -48 -51 -84 -8 -58 -31 -66 -31
-10 0 50 17 84 64 129 l36 35 -57 50 c-93 84 -135 92 -251 45 -42 -17 -87 -28
-99 -26 -28 5 -40 -8 -92 -104 -53 -97 -53 -120 -2 -144 60 -27 76 -16 87 60
10 63 10 65 -12 65 -64 0 -73 34 -13 50 22 6 47 14 56 17 14 6 15 -3 9 -73
-12 -139 -10 -144 55 -125 123 37 224 -49 218 -183 -4 -60 -2 -64 38 -111 52
-61 67 -89 59 -110 -4 -12 -17 -1 -55 47 -41 54 -52 63 -76 60 -25 -3 -27 -1
-20 20 16 48 17 144 1 182 -28 66 -113 78 -211 28 -99 -50 -135 -101 -135
-188 0 -54 -21 -56 -32 -3 -13 62 19 139 79 188 l38 31 -43 0 c-23 0 -58 6
-76 14 l-34 14 -15 -56 c-44 -159 -48 -425 -9 -567 57 -207 165 -412 284 -540
138 -147 339 -294 474 -347 61 -25 186 -48 253 -48 52 0 63 4 91 30 17 16 29
34 25 40 -3 5 -2 10 3 10 5 0 9 -14 8 -31 -1 -24 -8 -34 -31 -44 -28 -12 -29
-13 -10 -21 11 -5 70 -9 130 -9 93 0 118 4 162 24 47 21 148 113 137 124 -3 3
2 7 11 10 13 6 13 3 0 -30 -19 -45 -35 -64 -46 -57 -5 3 -8 0 -7 -7 2 -7 -28
-28 -67 -47 -60 -30 -82 -36 -160 -39 -60 -3 -115 0 -165 11 -41 9 -100 16
-131 16 -185 0 -419 117 -625 313 -203 193 -313 408 -364 712 -30 175 -24 364
15 505 32 116 97 255 165 353 66 97 196 229 251 258 29 14 39 24 29 27 -8 3
-21 12 -29 20 -13 13 -10 14 24 10 33 -4 58 5 160 57 130 67 210 90 350 105
111 11 212 5 307 -16z m-294 -70 c5 -9 11 -15 13 -14 5 3 120 -10 136 -15 6
-2 9 -13 6 -24 -5 -19 -13 -21 -87 -21 l-81 -1 45 -23 45 -24 -35 -7 c-47 -9
-135 -2 -135 10 0 6 14 11 32 13 23 2 30 7 26 17 -4 12 -9 12 -33 0 -29 -15
-59 -11 -72 9 -5 7 -8 6 -9 -4 0 -8 -5 -4 -9 10 l-8 25 -1 -27 c-1 -36 -46
-134 -65 -141 -10 -4 -16 6 -20 37 -9 55 -40 106 -66 106 -11 0 -49 -14 -84
-30 l-65 -31 31 -45 c18 -26 27 -49 21 -53 -5 -3 -12 -14 -16 -23 -9 -24 -60
-48 -107 -50 -32 -1 -47 4 -67 25 -23 22 -24 28 -13 42 12 14 15 14 35 -5 38
-36 115 -20 115 24 0 13 -9 31 -20 41 -11 10 -20 21 -20 25 0 14 186 120 210
120 6 0 29 9 51 20 26 12 55 18 79 15 22 -2 52 0 67 5 47 14 91 11 101 -6z
m-1388 -36 c30 -18 60 -44 67 -58 16 -32 -3 -41 -23 -11 -16 23 -91 64 -137
75 -37 9 -94 -19 -118 -58 -39 -63 -15 -146 41 -146 38 0 47 -17 16 -31 -58
-27 -106 20 -106 103 0 138 133 202 260 126z m220 -60 c-1 -31 -3 -39 -10 -27
-5 8 -7 24 -5 35 2 10 4 22 4 27 1 4 3 7 6 7 3 0 5 -19 5 -42z m471 -57 c-8
-5 -26 -7 -40 -4 -42 7 -37 13 10 13 30 0 39 -3 30 -9z m2010 -9 c21 -17 21
-19 3 -19 -100 2 -127 -14 -123 -72 3 -48 -11 -122 -21 -116 -5 3 -9 45 -9 93
0 87 0 87 32 110 39 27 87 28 118 4z m-2742 -76 c6 -4 11 -15 11 -23 0 -13 -7
-10 -30 12 -18 17 -30 39 -30 54 0 26 0 26 19 -5 11 -18 24 -35 30 -38z m1976
34 c0 -20 -6 -26 -28 -28 -32 -4 -46 20 -26 44 19 24 54 14 54 -16z m-1359 -9
c0 -11 -4 -17 -8 -15 -4 3 -8 -3 -8 -13 0 -14 -2 -15 -9 -4 -6 9 -3 20 7 32 9
11 17 19 17 19 0 0 1 -9 1 -19z m-208 -58 c-1 -38 1 -81 6 -97 7 -22 6 -27 -4
-21 -17 11 2 -23 31 -54 19 -20 29 -23 71 -19 27 3 47 2 45 -1 -57 -104 -120
-290 -138 -410 -23 -164 6 -434 68 -618 42 -126 103 -240 186 -348 48 -61 157
-176 183 -192 15 -9 -15 -10 -131 -7 -82 3 -160 6 -172 8 -12 2 -20 0 -18 -4
2 -4 51 -10 107 -14 261 -18 254 -16 348 -80 125 -85 189 -115 305 -145 39
-10 41 -13 42 -50 3 -58 27 -97 81 -127 26 -15 57 -36 68 -46 12 -10 25 -18
30 -16 17 5 144 -44 144 -55 0 -9 2 -9 8 -1 4 7 64 13 157 17 155 6 256 24
282 50 8 8 17 35 20 60 5 42 3 47 -43 98 -27 30 -51 55 -54 56 -3 1 -17 4 -32
8 -16 4 -25 11 -22 16 2 5 24 1 47 -8 93 -36 137 -92 137 -177 0 -39 -4 -48
-33 -70 -48 -37 -130 -53 -327 -66 -96 -6 -215 -15 -265 -20 -49 -5 -252 -9
-450 -9 -270 -1 -385 -5 -460 -16 -253 -39 -312 -44 -375 -34 -111 18 -160 58
-168 138 -7 81 4 115 60 176 28 31 67 65 87 76 26 14 29 18 11 13 -34 -8 -96
-51 -126 -87 -39 -46 -61 -97 -74 -168 -18 -101 -16 -99 -65 -99 -24 0 -54 4
-67 9 -31 12 -94 77 -109 113 -15 37 -29 36 -30 -4 0 -18 -4 -42 -8 -53 -7
-16 -9 -14 -15 16 -8 44 18 161 45 205 27 44 101 110 143 128 47 19 46 27 -1
13 -49 -15 -139 -99 -168 -158 -14 -26 -30 -79 -36 -118 l-12 -71 -33 0 c-55
0 -109 27 -130 65 -15 29 -16 41 -7 92 13 70 9 82 -7 22 -7 -24 -10 -70 -7
-101 4 -45 2 -58 -10 -63 -9 -3 -18 -3 -21 0 -14 14 0 114 24 178 23 60 40 84
103 148 161 161 303 196 721 177 95 -4 125 -4 78 1 -75 8 -78 10 -153 71 -43
35 -103 86 -134 114 -31 28 -83 75 -116 103 -59 49 -61 53 -63 103 -1 29 -6
59 -12 68 -7 12 -8 7 -3 -17 4 -25 3 -32 -5 -27 -7 4 -12 13 -12 20 0 7 -7 13
-15 13 -10 0 -5 -12 15 -38 35 -43 39 -60 9 -33 -29 26 -139 192 -139 210 0
11 54 111 110 204 5 8 47 98 94 198 47 101 114 237 150 302 36 64 66 120 66
123 0 3 29 68 64 144 35 76 75 164 89 196 14 31 29 57 32 57 3 0 5 -30 3 -67z
m-170 27 c-7 -11 -16 -20 -20 -20 -3 0 -15 -3 -25 -6 -14 -6 -15 -4 -6 6 9 10
45 33 61 39 1 1 -3 -8 -10 -19z m-380 -142 c-2 -91 8 -120 64 -183 17 -20 28
-38 25 -41 -9 -9 -27 6 -27 22 0 8 -4 13 -9 9 -11 -6 -42 35 -35 47 3 4 1 8
-4 8 -14 0 -52 94 -52 128 0 36 19 92 31 92 5 0 8 -37 7 -82z m812 77 c0 -15
-89 -98 -118 -111 -40 -16 -96 -20 -72 -4 8 5 23 10 33 10 22 0 105 56 130 87
18 22 27 28 27 18z m1510 -51 c0 -13 -21 -44 -30 -44 -11 0 -14 33 -3 43 8 8
33 9 33 1z m568 -15 c2 -5 20 -18 40 -28 39 -20 93 -71 75 -71 -6 0 -16 6 -22
14 -14 16 -115 66 -135 66 -8 0 -24 9 -37 21 l-24 20 50 -6 c28 -4 52 -11 53
-16z m-807 -32 c63 -41 88 -139 40 -155 -10 -3 -11 3 -6 28 7 31 6 31 -26 28
-44 -4 -76 -46 -59 -78 11 -21 17 -22 73 -17 72 6 108 -6 151 -52 36 -38 26
-39 -37 -6 -42 23 -54 25 -112 19 -81 -8 -115 9 -115 59 0 35 47 97 73 97 8 0
20 6 26 13 19 23 -23 52 -74 51 -81 -2 -176 -77 -210 -168 -20 -51 -16 -119 8
-143 23 -23 89 -28 125 -9 36 19 55 14 70 -20 8 -17 20 -24 40 -24 26 0 52
-15 52 -31 0 -3 -11 -4 -25 -1 -14 2 -36 -3 -51 -13 -30 -19 -33 -18 -40 21
-7 38 -9 39 -39 26 -38 -18 -73 -15 -117 10 -49 28 -68 62 -68 123 0 78 54
177 118 217 83 51 151 60 203 25z m-1886 -82 c29 -24 29 -25 6 -21 -14 1 -31
13 -39 24 -19 29 -4 28 33 -3z m2784 -83 c-1 -64 -12 -112 -21 -96 -10 15 3
164 13 158 5 -3 9 -31 8 -62z m719 -16 c17 -20 35 -56 42 -86 16 -68 8 -241
-13 -292 -9 -21 -14 -38 -11 -38 10 0 44 67 44 88 0 57 84 -6 111 -85 8 -21
13 -69 12 -108 -1 -115 -54 -228 -142 -308 -24 -22 -35 -37 -26 -37 9 0 35 18
59 40 24 22 46 40 49 40 15 0 37 -62 37 -102 0 -94 -94 -224 -202 -277 -34
-17 -69 -31 -80 -31 -10 0 -18 -5 -18 -11 0 -11 22 -9 76 7 30 8 35 -14 15
-73 -47 -138 -197 -231 -356 -221 -57 4 -90 13 -149 41 -42 20 -79 43 -82 52
-4 9 5 41 19 73 73 166 125 472 136 808 l6 202 50 72 c28 40 84 107 125 150
85 86 161 130 226 130 35 0 47 -5 72 -34z m-2214 -20 c36 -15 69 -56 79 -97
10 -42 -17 -44 -32 -3 -28 76 -117 100 -172 45 -58 -58 -32 -140 65 -208 30
-21 55 -41 56 -45 0 -17 -38 -7 -82 21 -64 41 -91 83 -96 150 -4 67 18 108 69
134 42 20 70 21 113 3z m1345 -16 c51 -26 96 -76 125 -140 21 -45 25 -70 24
-140 -1 -86 -21 -180 -38 -180 -6 0 -10 -8 -10 -17 -1 -22 -32 -82 -44 -83 -5
-1 -13 4 -17 12 -6 9 -9 1 -11 -22 -2 -46 -5 -73 -8 -85 -1 -5 -2 -14 -1 -18
1 -5 -4 -7 -11 -4 -7 2 -12 10 -10 16 28 124 34 139 75 181 16 16 26 30 23 30
-4 0 3 18 14 40 15 29 20 59 20 116 0 67 -4 86 -34 148 -37 78 -70 108 -135
126 -72 19 -150 -2 -271 -74 -92 -55 -110 -62 -144 -58 -48 6 -56 -6 -51 -73
2 -33 -3 -64 -16 -92 -24 -56 -41 -56 -22 -1 14 42 13 108 -2 173 -6 24 -5 28
6 18 9 -9 16 -10 26 -1 8 6 42 11 77 12 35 1 62 4 60 8 -8 13 120 95 181 116
69 25 137 22 194 -8z m-319 1 c0 -17 -49 -67 -50 -52 0 8 10 25 22 38 24 25
28 27 28 14z m-879 -157 c10 -12 10 -22 0 -50 -10 -28 -10 -38 0 -50 10 -13
14 -12 30 2 18 16 21 15 56 -25 33 -36 46 -43 98 -51 103 -17 179 -13 209 11
33 26 33 38 1 31 -18 -3 -25 0 -25 11 0 29 79 62 93 39 10 -14 -23 -87 -47
-109 -34 -29 -93 -37 -200 -25 -65 7 -96 16 -118 32 -17 12 -37 23 -45 24 -9
2 -47 27 -85 57 l-70 54 34 3 c37 4 50 18 42 45 -7 21 9 22 27 1z m1168 -82
c42 -31 72 -99 69 -156 -4 -69 -28 -75 -28 -6 0 64 -19 102 -71 139 -25 19
-35 31 -27 35 7 3 0 4 -17 2 -50 -4 -114 -37 -136 -68 -16 -22 -20 -40 -17
-78 3 -49 -4 -65 -16 -34 -3 9 -6 35 -6 59 0 58 56 124 115 134 49 9 100 -2
134 -27z m-2848 2 c-11 -15 -18 -30 -16 -34 3 -5 1 -11 -5 -15 -18 -11 -11 21
11 49 11 14 23 26 25 26 3 0 -4 -12 -15 -26z m970 -85 c32 -32 1 -99 -48 -99
-29 0 -30 16 -1 39 13 11 19 24 15 34 -16 42 -88 3 -192 -102 -44 -45 -83 -81
-87 -81 -22 0 0 33 70 105 110 115 195 152 243 104z m709 -16 c99 -24 186 -75
211 -126 9 -17 22 -55 28 -82 12 -50 12 -50 51 -50 21 0 37 1 35 4 -3 2 18 14
45 27 28 13 66 35 85 50 19 14 49 30 67 35 18 4 82 22 142 39 60 17 111 28
114 25 3 -2 -9 -8 -27 -11 -17 -4 -34 -11 -37 -15 -3 -5 -10 -7 -15 -3 -5 3
-8 0 -7 -8 4 -15 -124 -51 -164 -45 -16 2 -28 -1 -28 -7 0 -23 -105 -87 -174
-107 -39 -11 -77 -22 -83 -25 -7 -2 -13 -17 -13 -34 0 -16 -3 -30 -7 -30 -5 0
-8 33 -8 73 0 120 -62 210 -164 237 -20 5 -65 16 -101 25 -37 9 -77 26 -90 37
l-25 19 40 -4 c22 -2 78 -13 125 -24z m-1553 -17 c-8 -16 -14 -21 -19 -13 -4
7 0 17 9 25 22 16 23 16 10 -12z m2433 -78 c29 -15 45 -29 44 -40 -1 -10 2
-15 7 -12 5 3 9 4 9 2 6 -38 11 -191 6 -187 -3 3 -6 28 -7 57 -1 28 -6 49 -10
47 -4 -3 -10 7 -13 23 -10 42 -46 81 -91 97 -22 8 -33 14 -25 15 13 0 13 1 0
10 -32 20 36 10 80 -12z m-975 -28 c3 -5 13 -10 21 -10 16 0 71 -58 93 -98 8
-16 11 -43 8 -76 -4 -42 -10 -55 -38 -78 -56 -47 -122 -49 -182 -6 -23 17 -27
25 -22 47 9 35 23 51 46 51 20 0 25 -15 9 -25 -16 -10 -12 -23 17 -50 38 -34
68 -32 109 9 49 49 47 92 -6 150 -47 51 -70 57 -159 45 -124 -18 -181 -87
-167 -201 4 -29 8 -61 9 -70 1 -9 6 -16 12 -15 5 1 9 -6 9 -15 -1 -10 1 -16 5
-15 4 1 22 -10 40 -25 38 -33 32 -36 -14 -8 -56 35 -87 91 -92 167 -4 58 -1
75 19 113 28 52 85 95 143 109 55 12 133 13 140 1z m-1641 -27 c-10 -40 -14
-41 -14 -5 0 18 5 32 10 32 6 0 8 -11 4 -27z m966 -16 c0 -54 -75 -127 -130
-127 -29 0 -95 55 -85 71 5 7 18 1 35 -16 21 -20 35 -26 53 -21 37 9 74 43 93
86 18 41 34 44 34 7z m2162 -55 c-21 -32 -23 -49 -10 -78 11 -23 26 -28 78
-26 20 1 22 -1 10 -8 -8 -5 -28 -10 -44 -10 -42 0 -66 33 -66 89 0 35 3 42 11
31 8 -12 10 -9 6 12 -2 15 0 25 4 22 5 -3 9 1 9 8 0 10 2 10 9 -1 6 -9 4 -23
-7 -39z m-659 -6 c36 -15 83 -71 50 -59 -10 3 -26 13 -36 21 -15 14 -125 36
-112 24 3 -3 -1 -12 -9 -21 -22 -25 -30 -61 -14 -61 8 0 19 5 26 12 16 16 25
4 18 -20 -8 -23 -33 -32 -71 -24 -25 4 -27 8 -22 39 8 50 32 81 70 92 46 13
63 13 100 -3z m-2468 -36 c-4 -12 -9 -19 -12 -17 -3 3 -2 15 2 27 4 12 9 19
12 17 3 -3 2 -15 -2 -27z m2539 -54 c-3 -8 -1 -17 4 -20 15 -9 1 -98 -19 -125
-10 -13 -17 -27 -14 -31 3 -5 -4 -6 -15 -3 -11 3 -18 9 -15 13 3 5 -1 10 -7
13 -8 2 0 15 20 32 30 25 33 33 32 74 -2 59 -2 61 10 61 5 0 7 -6 4 -14z m135
-98 c-5 -33 7 -46 36 -40 14 2 25 0 25 -6 0 -6 -9 -8 -20 -5 -12 3 -20 0 -20
-8 0 -7 -3 -10 -6 -6 -6 6 -34 -16 -34 -28 0 -3 12 -23 26 -45 l26 -39 -21
-29 c-11 -16 -17 -33 -13 -37 4 -5 1 -5 -5 -1 -7 4 -13 3 -13 -3 0 -5 6 -12
13 -14 6 -3 2 -6 -10 -6 -13 -1 -23 -6 -23 -12 0 -5 5 -7 12 -3 7 5 8 3 3 -5
-4 -8 -11 -9 -17 -3 -12 12 7 61 27 68 8 4 15 10 15 16 0 5 -4 6 -10 3 -6 -4
-10 5 -10 21 0 32 -50 116 -66 110 -5 -2 -21 5 -35 15 -29 23 -24 23 31 4 40
-14 45 -14 60 2 18 20 20 25 20 53 0 11 3 20 6 20 3 0 4 -10 3 -22z m-769 -23
c-14 -36 -54 -75 -116 -111 -43 -26 -58 -29 -129 -28 -98 0 -162 12 -169 30
-3 8 -1 14 4 14 6 0 10 -3 10 -7 0 -5 48 -8 108 -8 98 0 111 2 157 28 28 15
71 47 95 71 25 23 46 42 48 41 1 -1 -2 -15 -8 -30z m341 14 c68 -23 118 -92
101 -140 -9 -23 -10 -22 -17 16 -5 21 -17 48 -29 58 -31 27 -97 57 -128 57
-16 0 -28 5 -28 10 0 13 59 13 101 -1z m666 -71 c-2 -18 -4 -6 -4 27 0 33 2
48 4 33 2 -15 2 -42 0 -60z m-777 62 c0 -5 -6 -10 -14 -10 -7 0 -25 -9 -40
-21 -14 -11 -26 -18 -26 -15 0 3 0 8 0 11 0 3 2 5 5 5 3 0 14 9 25 20 21 21
50 27 50 10z m660 2 c0 -13 -12 -22 -22 -16 -10 6 -1 24 13 24 5 0 9 -4 9 -8z
m394 -33 c24 -23 13 -38 -11 -17 -19 16 -66 31 -58 19 2 -5 -3 -17 -11 -27 -9
-10 -13 -14 -10 -7 4 6 1 13 -6 15 -8 3 -4 12 11 27 25 25 53 22 85 -10z
m-3139 -56 c25 -47 123 -173 182 -234 l45 -47 -133 -7 c-74 -3 -183 -5 -242
-3 l-108 3 74 102 c41 56 92 129 113 162 21 34 41 61 44 61 3 0 14 -17 25 -37z
m1368 -20 c18 -9 26 -18 20 -20 -7 -3 -13 -12 -13 -21 0 -13 -2 -13 -13 3 -19
25 -86 15 -139 -21 -95 -66 -122 -171 -64 -247 33 -43 73 -67 111 -67 34 0 65
17 65 35 0 8 9 15 20 15 28 0 25 -22 -7 -55 -25 -25 -33 -27 -86 -23 -49 4
-63 9 -93 39 -42 40 -74 101 -74 144 0 72 84 186 164 221 42 18 71 17 109 -3z
m1556 -37 l23 -25 -23 5 c-22 5 -22 4 4 -11 32 -19 37 -31 5 -14 -39 20 -46
29 -41 49 7 25 5 25 32 -4z m174 10 c8 -20 -15 -37 -33 -26 -10 7 -11 10 -2
10 6 0 12 7 12 15 0 19 16 20 23 1z m-1190 -23 c4 -3 -7 -14 -23 -24 -17 -11
-30 -24 -30 -29 0 -6 -4 -9 -8 -6 -5 3 -8 -3 -8 -12 0 -9 -2 -35 -3 -57 l-2
-40 -14 38 c-10 26 -11 45 -5 62 9 24 8 25 -31 25 -29 0 -38 -3 -33 -12 5 -8
0 -7 -11 2 -17 14 -18 13 -13 -2 5 -11 -5 -24 -33 -44 -22 -15 -51 -40 -64
-55 -12 -15 -25 -26 -27 -24 -2 2 -4 -4 -5 -13 -4 -51 -17 -102 -26 -102 -20
0 2 102 31 147 36 55 126 125 150 116 10 -4 14 -2 9 3 -13 13 133 41 146 27z
m245 -37 c-4 -26 -22 -46 -42 -46 -27 0 -65 -22 -59 -36 7 -19 -32 -6 -53 17
-22 24 -13 34 16 19 18 -10 24 -9 31 1 4 7 24 13 43 12 29 -1 36 3 36 17 0 10
-7 25 -15 34 -13 13 -13 15 3 18 24 6 43 -11 40 -36z m307 22 c12 -12 -23 -26
-75 -32 -49 -5 -51 -4 -20 5 19 6 41 16 49 24 13 13 35 14 46 3z m-975 -43
c13 -14 22 -25 19 -25 -2 1 -26 7 -54 15 -38 10 -43 14 -22 14 16 1 26 5 22
11 -12 20 12 9 35 -15z m826 -79 c-4 -26 -11 -44 -16 -41 -4 3 -11 -11 -14
-30 -4 -19 -18 -48 -32 -65 -39 -46 -171 -116 -148 -79 6 11 5 12 -7 2 -16
-13 -179 -22 -179 -10 0 4 5 7 11 7 5 0 7 5 4 10 -7 11 13 12 111 10 39 -1 76
5 100 16 22 9 45 16 53 15 7 -1 10 2 7 8 -4 5 2 16 12 23 31 22 60 72 67 113
13 80 16 88 27 77 6 -6 8 -28 4 -56z m-853 -35 c41 -39 42 -40 44 -118 3 -78
3 -78 -11 -38 -8 22 -17 52 -20 67 -10 44 -63 98 -96 98 -42 0 -60 -10 -71
-37 -10 -26 -29 -23 -29 6 0 34 42 59 103 60 31 1 46 -6 80 -38z m1072 10 c-3
-6 -25 -10 -48 -9 -41 1 -41 1 -7 5 19 3 39 9 44 14 12 11 20 4 11 -10z m223
-18 c-10 -2 -26 -2 -35 0 -10 3 -2 5 17 5 19 0 27 -2 18 -5z m-2487 -70 c18
-16 49 -43 69 -61 19 -18 62 -54 95 -79 33 -26 65 -50 70 -55 6 -5 -41 -6
-115 -2 -205 11 -345 -20 -474 -106 -92 -62 -170 -145 -202 -215 -21 -44 -30
-55 -49 -55 -44 0 -120 31 -142 58 -57 68 -3 216 102 277 23 14 50 25 61 26
10 0 13 3 7 6 -23 9 -85 -19 -127 -56 -40 -36 -40 -36 -22 -6 11 17 59 87 108
157 l89 128 232 3 c128 1 240 3 249 5 9 1 31 -10 49 -25z m2440 -6 c-13 -13
-26 -3 -16 12 3 6 11 8 17 5 6 -4 6 -10 -1 -17z m-1009 -19 c-16 -20 -52 -135
-47 -150 2 -7 6 -30 8 -51 2 -20 7 -37 10 -37 4 0 32 -18 62 -40 30 -22 62
-40 72 -40 12 0 14 -3 6 -11 -28 -28 -171 69 -156 107 4 11 3 15 -4 11 -16
-10 -26 80 -14 131 5 24 17 49 26 56 14 10 18 20 24 56 1 2 6 -1 13 -8 8 -8 8
-15 0 -24z m1031 -89 c-5 -5 -6 11 -3 34 4 41 5 41 8 8 2 -18 0 -37 -5 -42z
m-862 -38 c-29 -27 -41 -46 -41 -65 0 -17 -4 -25 -11 -21 -12 8 -2 62 17 90
16 23 55 45 67 38 5 -3 -10 -22 -32 -42z m584 2 c6 -7 28 -15 49 -17 59 -4 96
-52 96 -124 0 -50 -3 -58 -39 -93 -21 -22 -48 -39 -59 -39 -11 0 -28 -3 -38
-7 -12 -4 -15 -3 -10 6 6 8 1 10 -17 6 -39 -10 -64 9 -65 49 -1 20 4 36 12 39
7 3 13 0 13 -7 0 -6 3 -25 7 -41 5 -22 4 -26 -4 -15 -5 8 -10 10 -10 4 0 -15
11 -24 22 -18 6 4 29 7 51 9 59 3 68 6 94 36 29 34 31 96 4 131 -11 13 -52 39
-91 58 -65 29 -78 32 -132 26 -32 -3 -67 -10 -78 -16 -13 -7 -21 -7 -26 2 -4
7 -3 8 4 4 7 -4 12 -3 12 2 0 30 184 34 205 5z m353 -110 c-40 -42 -67 -58
-64 -40 2 18 66 74 83 74 8 0 0 -15 -19 -34z m-828 8 c12 -24 13 -61 1 -80 -5
-8 -32 -16 -61 -19 -42 -4 -51 -2 -45 8 5 8 1 18 -10 27 -11 7 -20 20 -21 29
-2 13 1 13 19 -4 25 -22 67 -35 83 -24 14 9 27 45 14 37 -6 -3 -10 -2 -10 4 0
5 5 13 11 17 8 4 7 9 -2 15 -10 6 -10 9 -2 9 7 0 17 -9 23 -19z m899 -64 c-5
-16 -11 -32 -15 -36 -4 -3 -4 2 -1 12 4 10 7 33 7 50 0 22 3 28 9 18 5 -8 5
-27 0 -44z m-3423 -142 c1 -93 -6 -102 -46 -60 -26 27 -22 45 23 112 12 18 22
33 22 33 0 0 0 -38 1 -85z m2202 43 c-3 -7 -15 -15 -28 -16 -21 -3 -22 -2 -11
12 16 19 44 21 39 4z m147 -178 c3 -5 -3 -10 -14 -10 -11 0 -23 5 -26 10 -3 6
3 10 14 10 11 0 23 -4 26 -10z m235 -48 c52 -23 146 -34 154 -19 3 4 3 2 2 -5
-2 -7 -13 -12 -26 -10 -15 3 -20 0 -15 -8 6 -9 -1 -10 -26 -5 -59 12 -99 26
-99 36 0 6 -4 8 -9 5 -5 -3 -14 1 -20 8 -14 17 -2 16 39 -2z"/>
<path d="M5110 7470 c0 -14 39 -32 52 -24 7 5 5 11 -7 21 -22 15 -45 17 -45 3z"/>
<path d="M3217 5126 c-3 -7 -8 -34 -12 -59 -7 -42 -10 -47 -44 -58 -141 -46
-260 -220 -261 -381 0 -94 34 -203 76 -239 40 -35 86 -41 165 -23 140 32 248
103 297 198 40 79 43 196 8 296 -15 41 -27 82 -28 90 -2 39 -72 80 -136 80
-36 0 -56 27 -53 71 2 40 -3 50 -12 25z m103 -142 c22 -9 40 -19 40 -23 0 -4
-13 -20 -30 -36 -16 -16 -30 -35 -30 -42 0 -7 -4 -13 -9 -13 -5 0 -7 -9 -4
-20 3 -11 12 -20 19 -20 14 0 16 5 18 50 0 14 4 26 9 28 23 7 33 -1 35 -32 2
-28 -3 -38 -28 -56 -17 -12 -43 -25 -58 -29 -23 -6 -28 -14 -32 -54 -5 -39
-13 -52 -52 -86 -25 -23 -60 -65 -77 -95 -33 -59 -70 -93 -82 -75 -4 7 -12 8
-20 3 -27 -16 -37 -11 -60 29 -34 61 -38 182 -10 258 64 168 236 267 371 213z
m-30 -339 c0 -19 -4 -35 -10 -35 -11 0 -13 30 -4 54 10 25 14 19 14 -19z m80
-55 c0 -5 -12 -10 -27 -9 l-28 1 25 8 c14 4 26 8 28 9 1 1 2 -3 2 -9z"/>
<path d="M3160 4699 c0 -5 -4 -7 -10 -4 -5 3 -10 2 -10 -4 0 -6 9 -15 21 -22
29 -15 48 3 26 25 -18 19 -27 20 -27 5z"/>
<path d="M3078 4626 c-16 -24 -28 -49 -28 -55 0 -6 -5 -11 -11 -11 -13 0 -8
-40 6 -43 14 -3 55 74 55 106 0 17 4 26 10 22 6 -4 8 -12 4 -18 -3 -7 1 -3 10
7 8 10 13 23 10 27 -11 19 -30 7 -56 -35z"/>
<path d="M3397 5103 c-25 -29 -27 -34 -12 -39 23 -9 47 18 43 47 -3 25 -3 24
-31 -8z"/>
<path d="M3320 4420 c-25 -16 -39 -30 -31 -30 18 0 81 39 81 51 0 12 1 13 -50
-21z"/>
<path d="M4226 4901 c-11 -17 22 -33 54 -26 16 4 30 10 30 15 0 18 -74 28 -84
11z"/>
<path d="M5301 4603 c22 -42 29 -69 27 -98 -3 -50 12 -55 79 -25 l48 21 -85
79 c-47 44 -88 79 -92 80 -3 0 7 -26 23 -57z"/>
<path d="M5523 4377 c-28 -19 -33 -28 -33 -65 0 -68 65 -119 100 -77 6 8 9 18
6 24 -3 5 -1 11 5 13 13 4 -22 121 -38 125 -4 1 -23 -8 -40 -20z m43 -38 c3
-6 0 -15 -7 -20 -22 -14 -29 -11 -29 11 0 21 24 27 36 9z"/>
<path d="M5646 4356 c6 -17 34 -30 34 -16 0 5 -9 14 -20 20 -16 8 -18 8 -14
-4z"/>
<path d="M5505 4034 c-62 -67 -4 -233 91 -264 29 -10 43 -9 79 4 24 10 49 24
55 32 17 19 30 18 30 -3 1 -30 26 -53 56 -53 42 0 184 50 191 66 8 21 -24 64
-48 64 -14 0 -19 5 -16 14 4 10 1 13 -8 9 -11 -3 -12 -10 -5 -22 8 -16 5 -17
-33 -11 -51 7 -67 16 -67 36 0 10 -8 14 -22 12 -19 -2 -22 1 -20 21 2 14 0 21
-7 17 -5 -4 -16 2 -23 12 -7 10 -20 21 -29 24 -12 5 -15 0 -14 -24 2 -30 -27
-83 -56 -101 -18 -12 -69 -1 -69 14 0 5 16 17 35 25 29 12 35 19 35 45 0 92
-98 144 -155 83z"/>
<path d="M6055 3862 c3 -8 5 -27 5 -43 0 -45 32 -55 122 -40 40 7 74 14 76 16
3 2 2 15 -2 29 -4 17 -15 26 -37 31 -18 4 -27 10 -21 14 5 3 -26 6 -69 6 -62
0 -78 -3 -74 -13z"/>
<path d="M6301 3842 c-1 -38 25 -92 67 -140 33 -39 162 -102 207 -102 33 0
100 28 145 60 37 27 40 26 40 -14 0 -25 10 -45 41 -80 34 -39 102 -86 123 -86
3 0 17 20 32 45 14 25 36 53 49 63 l23 18 -66 55 c-84 69 -132 102 -132 91 0
-5 11 -39 25 -75 24 -64 21 -92 -8 -68 -21 17 -56 95 -65 143 -8 41 -45 98
-64 98 -4 0 -8 -12 -8 -26 0 -14 -5 -35 -11 -47 -11 -22 -11 -22 10 1 31 31
34 27 8 -13 -20 -31 -48 -52 -31 -22 4 6 -2 3 -14 -7 -70 -61 -258 -4 -314 95
-16 28 -25 36 -34 28 -8 -7 -14 -6 -17 3 -3 7 -6 -2 -6 -20z"/>
<path d="M6420 3854 c0 -24 31 -54 77 -78 41 -21 67 -21 59 0 -3 8 -2 12 4 9
6 -3 10 -13 10 -21 0 -8 4 -14 8 -14 5 0 9 7 9 15 0 8 -4 15 -9 15 -4 0 -8 9
-8 20 0 26 -49 48 -62 28 -6 -10 -8 -10 -9 2 -1 8 -1 19 0 24 1 5 -11 6 -27 3
-16 -3 -34 -1 -41 6 -8 8 -11 6 -11 -9z"/>
<path d="M5913 2754 c15 -14 24 -17 29 -10 15 21 8 31 -22 31 l-29 0 22 -21z"/>
<path d="M4365 599 c-20 -18 -40 -41 -46 -53 -6 -13 -1 -10 15 9 14 17 38 40
53 52 15 13 25 23 21 23 -4 0 -23 -14 -43 -31z"/>
<path d="M6573 913 c9 -2 25 -2 35 0 9 3 1 5 -18 5 -19 0 -27 -2 -17 -5z"/>
<path d="M7050 9698 c0 -3 7 -21 15 -39 16 -34 16 -34 10 -4 -6 26 -25 60 -25
43z"/>
<path d="M7092 9550 c0 -19 2 -27 5 -17 2 9 2 25 0 35 -3 9 -5 1 -5 -18z"/>
<path d="M6603 9383 c0 -7 4 -13 7 -13 4 0 12 6 18 13 8 10 6 13 -7 13 -10 0
-18 -6 -18 -13z"/>
<path d="M6530 9332 c0 -4 5 -13 12 -20 9 -9 9 -12 0 -12 -6 0 -16 8 -21 18
-10 16 -10 16 -11 0 0 -10 5 -18 10 -18 6 0 10 -7 10 -15 0 -8 4 -15 9 -15 11
0 24 48 16 60 -7 12 -25 13 -25 2z"/>
<path d="M6358 9262 c-21 -14 -23 -19 -13 -29 10 -10 16 -9 26 3 10 12 9 13
-6 8 -13 -5 -16 -4 -11 4 4 7 14 12 23 12 11 0 14 -6 9 -24 -3 -14 -2 -27 4
-31 9 -6 8 60 -1 69 -3 3 -16 -3 -31 -12z"/>
<path d="M6456 9264 c-12 -30 -6 -35 39 -32 50 3 62 18 15 18 -20 0 -30 5 -30
15 0 20 -16 19 -24 -1z"/>
<path d="M6680 9271 c0 -6 -8 -11 -17 -12 -16 0 -15 -2 2 -10 14 -6 8 -7 -22
-3 -28 4 -43 2 -43 -5 0 -14 79 -14 100 -1 11 7 11 10 2 10 -7 0 -11 4 -7 9 3
5 1 12 -5 16 -5 3 -10 1 -10 -4z"/>
<path d="M6431 9216 c-16 -19 1 -28 30 -18 l23 9 -21 11 c-16 9 -23 8 -32 -2z"/>
<path d="M6489 9193 c-1 -5 -2 -15 -3 -23 0 -8 -16 -17 -34 -21 -18 -4 -36
-10 -40 -14 -10 -10 -11 -65 -1 -65 5 0 9 -10 9 -22 1 -22 2 -21 16 5 18 33
28 35 18 5 -3 -13 -5 -21 -3 -18 2 3 20 22 39 43 19 21 27 35 18 32 -13 -5
-17 -1 -15 17 0 12 6 26 12 31 7 4 5 10 -4 16 -11 7 -11 9 0 14 10 4 10 6 2 6
-7 1 -14 -2 -14 -6z m-4 -80 c0 -23 -5 -28 -23 -26 -12 2 -22 -2 -22 -7 0 -21
-18 -9 -22 15 -4 20 -1 25 16 25 11 0 28 5 36 10 8 5 15 10 15 10 1 0 1 -12 0
-27z"/>
<path d="M6540 9193 c0 -1 10 -7 21 -14 13 -6 19 -7 15 -1 -3 6 0 12 6 15 7 2
1 4 -14 3 -16 0 -28 -2 -28 -3z"/>
<path d="M2413 9076 c1 -30 3 -33 18 -25 10 5 20 13 23 18 10 16 -5 41 -24 41
-14 0 -18 -8 -17 -34z"/>
<path d="M6113 9080 c-31 -28 -35 -52 -5 -27 13 9 14 9 8 -1 -5 -8 -1 -11 16
-9 16 3 23 11 25 30 3 38 -8 39 -44 7z"/>
<path d="M6190 9099 l-25 -10 24 -20 c15 -13 36 -19 54 -17 35 3 50 28 18 28
-12 0 -21 6 -21 15 0 17 -14 18 -50 4z"/>
<path d="M4013 8970 c0 -30 2 -43 4 -27 2 15 2 39 0 55 -2 15 -4 2 -4 -28z"/>
<path d="M6395 8960 c-4 -6 -11 -7 -17 -4 -7 4 -8 2 -4 -5 4 -6 2 -19 -5 -27
-6 -8 -10 -16 -8 -19 2 -2 14 12 27 31 12 19 20 34 18 34 -3 0 -8 -5 -11 -10z"/>
<path d="M6331 8943 c-8 -9 -10 -18 -4 -24 6 -6 15 -4 23 6 17 21 0 38 -19 18z"/>
<path d="M5950 8925 c-7 -9 -10 -18 -6 -22 3 -3 6 -1 6 5 0 6 8 12 18 14 11 2
13 6 6 11 -7 4 -17 0 -24 -8z"/>
<path d="M6171 8931 c-8 -5 -20 -7 -28 -4 -18 7 -29 -26 -13 -40 10 -9 14 -9
17 2 5 11 7 11 14 0 7 -11 12 -12 29 -1 11 6 27 12 35 12 24 0 18 27 -7 34
-29 7 -30 7 -47 -3z"/>
<path d="M6080 8865 c0 -9 9 -15 24 -15 13 0 31 -3 40 -6 12 -4 16 0 16 15 0
19 -3 20 -20 11 -14 -7 -20 -7 -20 0 0 5 -9 10 -20 10 -11 0 -20 -7 -20 -15z"/>
<path d="M6246 8781 c-12 -36 8 -47 29 -14 14 22 15 25 3 15 -14 -11 -17 -10
-20 5 -4 15 -5 14 -12 -6z"/>
<path d="M6106 8651 c-3 -5 1 -11 9 -15 15 -6 29 7 18 18 -9 9 -21 8 -27 -3z"/>
<path d="M5949 8462 c7 -14 17 -19 31 -15 23 6 27 23 6 23 -8 0 -22 3 -31 7
-15 5 -16 3 -6 -15z"/>
<path d="M5935 8430 c-3 -5 3 -10 15 -10 12 0 18 5 15 10 -3 6 -10 10 -15 10
-5 0 -12 -4 -15 -10z"/>
<path d="M2187 8033 c-14 -13 -6 -33 12 -33 16 0 31 18 31 36 0 7 -36 5 -43
-3z"/>
<path d="M4461 7974 c-18 -15 -36 -43 -43 -67 -6 -23 -13 -44 -14 -46 -2 -2
-15 10 -29 25 l-27 29 21 -29 c12 -16 21 -42 21 -59 0 -45 14 -22 34 55 20 73
38 96 88 108 30 7 31 8 6 9 -15 1 -40 -10 -57 -25z"/>
<path d="M2616 7912 c11 -23 15 -48 11 -75 -4 -27 -2 -36 4 -26 16 25 10 85
-11 110 l-20 24 16 -33z"/>
<path d="M4168 7831 c3 -22 -1 -32 -18 -41 -26 -14 -50 2 -50 33 0 11 -3 18
-6 14 -4 -3 -4 -17 0 -30 5 -23 42 -47 71 -47 18 0 29 41 21 75 -9 35 -23 31
-18 -4z"/>
<path d="M4337 7836 c10 -13 19 -23 21 -21 7 6 -19 45 -29 45 -5 0 -2 -11 8
-24z"/>
<path d="M4491 7807 c-8 -10 -7 -14 2 -14 7 0 18 6 25 14 10 10 10 13 -1 13
-8 0 -20 -6 -26 -13z"/>
<path d="M4283 7783 c-7 -3 -13 -12 -13 -21 0 -11 3 -13 8 -6 4 7 16 13 27 16
15 3 17 5 5 9 -8 3 -21 4 -27 2z"/>
<path d="M2210 7745 c0 -19 -4 -35 -10 -35 -5 0 -10 -6 -10 -14 0 -19 -48 -49
-66 -42 -9 3 -12 1 -9 -4 3 -6 1 -10 -6 -10 -7 0 -10 -3 -6 -6 3 -3 22 -1 43
6 28 10 38 10 44 0 4 -7 10 3 15 26 3 21 15 51 26 66 19 27 19 27 -1 38 -18
10 -20 8 -20 -25z"/>
<path d="M4456 7677 c-4 -22 -18 -46 -36 -61 -28 -23 -28 -25 -10 -31 26 -8
76 19 84 47 8 31 8 53 -1 44 -4 -3 -12 3 -19 15 -11 21 -12 20 -18 -14z"/>
<path d="M2236 7678 c-10 -38 -7 -93 7 -107 10 -12 8 -13 -8 -7 -20 6 -20 6
-1 -9 26 -20 100 -19 132 1 28 19 54 64 53 91 0 10 -5 3 -10 -15 -6 -20 -14
-30 -21 -26 -6 4 -8 3 -4 -4 3 -6 1 -14 -6 -19 -17 -10 -88 -10 -88 0 0 5 -4
6 -9 3 -8 -5 -25 29 -22 47 1 4 -3 7 -9 7 -5 0 -7 13 -3 30 6 35 -2 41 -11 8z"/>
<path d="M3760 7656 c-105 -25 -234 -66 -227 -72 2 -3 38 6 78 19 41 14 110
32 154 42 44 10 94 21 110 25 75 20 -25 7 -115 -14z"/>
<path d="M3978 7593 c12 -2 32 -2 45 0 12 2 2 4 -23 4 -25 0 -35 -2 -22 -4z"/>
<path d="M3743 7580 c-13 -5 -23 -12 -23 -15 0 -9 16 -5 36 10 22 16 19 18
-13 5z"/>
<path d="M3430 7539 c-30 -16 -62 -37 -70 -46 -14 -15 -13 -16 2 -4 9 7 45 28
80 47 35 18 59 34 53 34 -5 0 -35 -14 -65 -31z"/>
<path d="M3963 7559 c-5 -5 -19 -11 -31 -12 -11 0 -18 -5 -16 -9 3 -4 21 -1
42 7 42 18 51 25 31 25 -8 0 -20 -5 -26 -11z"/>
<path d="M3410 7443 c1 -31 43 -47 64 -24 14 15 14 18 1 18 -8 0 -15 -4 -15
-8 0 -4 -9 -5 -21 -2 -16 4 -17 8 -7 14 10 7 9 9 -4 9 -10 0 -18 -3 -18 -7z"/>
<path d="M6895 7379 c-8 -12 14 -31 30 -26 6 2 10 10 10 18 0 17 -31 24 -40 8z"/>
<path d="M3827 7323 c-4 -3 -7 -14 -7 -23 0 -17 -38 -40 -65 -40 -23 0 -18
-18 10 -36 33 -22 99 -13 131 17 28 26 32 74 8 83 -21 8 -69 8 -77 -1z"/>
<path d="M2562 6570 c-18 -29 -31 -96 -21 -111 6 -9 9 -1 9 24 0 21 7 52 16
68 17 35 15 49 -4 19z"/>
<path d="M6500 5576 c0 -15 24 -28 34 -19 13 14 5 33 -14 33 -11 0 -20 -6 -20
-14z"/>
<path d="M6266 5461 c-3 -5 1 -12 10 -15 25 -10 34 -7 34 9 0 16 -35 21 -44 6z"/>
<path d="M6487 5333 c-4 -3 -7 -16 -6 -27 0 -19 1 -19 10 3 10 24 8 36 -4 24z"/>
<path d="M6097 4972 c-5 -25 -9 -28 -36 -24 -20 3 -31 0 -31 -7 0 -7 4 -9 10
-6 5 3 7 0 4 -8 -3 -8 2 -17 10 -20 11 -5 14 -14 10 -37 -7 -30 8 -42 22 -18
5 7 3 8 -6 3 -8 -5 -11 -4 -6 3 4 6 12 9 19 7 55 -17 67 -15 67 7 0 13 7 32
15 42 20 27 19 34 -7 38 -13 2 -27 13 -33 26 -13 30 -31 28 -38 -6z"/>
<path d="M6429 4657 c-8 -11 -24 -20 -34 -20 -17 0 -17 -1 1 -14 21 -15 38
-17 29 -3 -3 6 -1 10 4 10 6 0 11 8 11 18 0 14 2 15 10 2 5 -8 10 -10 10 -5 0
26 -16 32 -31 12z"/>
<path d="M4836 4044 c-10 -26 -7 -30 22 -28 45 3 46 3 27 24 -22 24 -41 26
-49 4z"/>
<path d="M8023 4017 c-4 -7 -19 -21 -33 -31 l-25 -18 25 7 c37 10 71 35 65 45
-9 14 -23 12 -32 -3z"/>
<path d="M2993 2215 c0 -44 2 -61 4 -37 2 23 2 59 0 80 -2 20 -4 1 -4 -43z"/>
<path d="M3613 2070 c0 -30 2 -43 4 -27 2 15 2 39 0 55 -2 15 -4 2 -4 -28z"/>
<path d="M3566 1689 c-4 -28 -5 -53 -3 -56 3 -2 8 19 12 47 4 28 5 53 2 56 -2
3 -7 -19 -11 -47z"/>
<path d="M2899 1577 c7 -9 17 -32 20 -50 l7 -32 5 31 c4 24 0 34 -21 49 -20
16 -23 16 -11 2z"/>
<path d="M3506 1399 c-4 -23 -5 -44 -2 -46 2 -2 7 14 11 37 4 23 5 43 2 46 -2
3 -7 -14 -11 -37z"/>
<path d="M2888 1362 c-8 -20 -25 -66 -38 -102 -12 -36 -49 -113 -81 -171 -66
-118 -78 -154 -23 -69 55 85 89 157 128 270 36 102 44 144 14 72z"/>
<path d="M3703 1312 c-41 -12 -63 -40 -63 -77 0 -28 8 -43 40 -74 l41 -40 -44
2 c-76 3 -137 -59 -137 -140 0 -56 26 -83 79 -83 46 0 91 33 111 80 18 42 44
41 36 -2 -19 -108 -19 -135 2 -156 29 -29 67 -37 112 -23 89 27 95 85 18 184
-36 44 -19 49 24 7 44 -45 82 -62 111 -51 34 13 67 58 67 92 0 55 -40 76 -154
81 l-49 3 38 25 c21 14 50 46 64 72 29 52 25 71 -21 97 -42 24 -83 0 -119 -71
-16 -32 -33 -56 -38 -54 -5 3 -11 23 -15 44 -7 46 -40 92 -64 91 -9 -1 -27 -4
-39 -7z m-20 -262 c-1 -33 -22 -56 -62 -66 -15 -4 -26 -2 -32 7 -8 14 -8 24 5
70 17 61 93 52 89 -11z m167 -144 c-3 -19 -13 -32 -24 -34 -26 -5 -38 11 -30
42 5 21 12 26 33 24 25 -2 27 -5 21 -32z"/>
</g>
</svg>
